<?xml version="1.0" encoding="utf-8" standalone="no"?>
<!DOCTYPE svg PUBLIC "-//W3C//DTD SVG 1.1//EN" "http://www.w3.org/Graphics/SVG/1.1/DTD/svg11.dtd">
<svg width="3000px" height="3000px" version="1.1" xmlns="http://www.w3.org/2000/svg" xmlns:xlink="http://www.w3.org/1999/xlink">
<g id="bg">
<rect x="0" y="0" width="3000px" height="3000px" style="fill:rgb(255,255,255);"/>
</g>
<g id="ideograms">
<path d="M1500.000,535.000 A965.000,965.000 40.000 0,1 1601.714,540.376 L1618.579,381.267 A1125.000,1125.000 0.000 0,0 1500.000,375.000 Z" style="stroke-width:2.0;stroke:rgb(115,115,115);stroke-linecap:round;fill:rgb(116,196,118);" />
<text x="1637.1" y="307.9" font-size="195.0px" font-family="CMUBright-Bold" style="text-anchor:start;fill:rgb(0,0,0);" transform="rotate(273.0,1637.1,307.9)" >35</text>
<path d="M1500.000,535.000 A965.000,965.000 40.000 0,1 1601.714,540.376 L1618.579,381.267 A1125.000,1125.000 0.000 0,0 1500.000,375.000 Z" style="stroke-width:2.0;stroke:rgb(115,115,115);stroke-linecap:round;fill:none;" />
<path d="M1672.307,550.508 A965.000,965.000 40.000 0,1 1771.427,573.959 L1816.431,420.418 A1125.000,1125.000 0.000 0,0 1700.877,393.079 Z" style="stroke-width:2.0;stroke:rgb(115,115,115);stroke-linecap:round;fill:rgb(153,0,204);" />
<text x="1845.8" y="350.9" font-size="195.0px" font-family="CMUBright-Bold" style="text-anchor:start;fill:rgb(0,0,0);" transform="rotate(283.3,1845.8,350.9)" >1</text>
<path d="M1672.307,550.508 A965.000,965.000 40.000 0,1 1771.427,573.959 L1816.431,420.418 A1125.000,1125.000 0.000 0,0 1700.877,393.079 Z" style="stroke-width:2.0;stroke:rgb(115,115,115);stroke-linecap:round;fill:none;" />
<path d="M1839.077,596.533 A965.000,965.000 40.000 0,1 1932.417,637.306 L2004.113,494.269 A1125.000,1125.000 0.000 0,0 1895.297,446.736 Z" style="stroke-width:2.0;stroke:rgb(115,115,115);stroke-linecap:round;fill:rgb(153,0,204);" />
<text x="2043.6" y="430.2" font-size="195.0px" font-family="CMUBright-Bold" style="text-anchor:start;fill:rgb(0,0,0);" transform="rotate(293.6,2043.6,430.2)" >4</text>
<path d="M1839.077,596.533 A965.000,965.000 40.000 0,1 1932.417,637.306 L2004.113,494.269 A1125.000,1125.000 0.000 0,0 1895.297,446.736 Z" style="stroke-width:2.0;stroke:rgb(115,115,115);stroke-linecap:round;fill:none;" />
<path d="M1994.948,671.597 A965.000,965.000 40.000 0,1 2079.507,728.381 L2175.592,600.444 A1125.000,1125.000 0.000 0,0 2077.012,534.245 Z" style="stroke-width:2.0;stroke:rgb(115,115,115);stroke-linecap:round;fill:rgb(153,0,204);" />
<text x="2227.5" y="545.7" font-size="195.0px" font-family="CMUBright-Bold" style="text-anchor:start;fill:rgb(0,0,0);" transform="rotate(303.9,2227.5,545.7)" >5</text>
<path d="M1994.948,671.597 A965.000,965.000 40.000 0,1 2079.507,728.381 L2175.592,600.444 A1125.000,1125.000 0.000 0,0 2077.012,534.245 Z" style="stroke-width:2.0;stroke:rgb(115,115,115);stroke-linecap:round;fill:none;" />
<path d="M2134.911,773.286 A965.000,965.000 40.000 0,1 2207.972,844.256 L2325.356,735.532 A1125.000,1125.000 0.000 0,0 2240.181,652.795 Z" style="stroke-width:2.0;stroke:rgb(115,115,115);stroke-linecap:round;fill:rgb(153,0,204);" />
<text x="2387.6" y="692.4" font-size="195.0px" font-family="CMUBright-Bold" style="text-anchor:start;fill:rgb(0,0,0);" transform="rotate(314.2,2387.6,692.4)" >8</text>
<path d="M2134.911,773.286 A965.000,965.000 40.000 0,1 2207.972,844.256 L2325.356,735.532 A1125.000,1125.000 0.000 0,0 2240.181,652.795 Z" style="stroke-width:2.0;stroke:rgb(115,115,115);stroke-linecap:round;fill:none;" />
<path d="M2254.467,898.332 A965.000,965.000 40.000 0,1 2313.683,981.207 L2448.594,895.190 A1125.000,1125.000 0.000 0,0 2379.560,798.574 Z" style="stroke-width:2.0;stroke:rgb(115,115,115);stroke-linecap:round;fill:rgb(153,0,204);" />
<text x="2517.5" y="863.9" font-size="195.0px" font-family="CMUBright-Bold" style="text-anchor:start;fill:rgb(0,0,0);" transform="rotate(324.5,2517.5,863.9)" >9</text>
<path d="M2254.467,898.332 A965.000,965.000 40.000 0,1 2313.683,981.207 L2448.594,895.190 A1125.000,1125.000 0.000 0,0 2379.560,798.574 Z" style="stroke-width:2.0;stroke:rgb(115,115,115);stroke-linecap:round;fill:none;" />
<path d="M2349.775,1042.717 A965.000,965.000 40.000 0,1 2393.240,1134.833 L2541.342,1074.288 A1125.000,1125.000 0.000 0,0 2490.670,966.898 Z" style="stroke-width:2.0;stroke:rgb(115,115,115);stroke-linecap:round;fill:rgb(153,0,204);" />
<text x="2614.7" y="1055.8" font-size="195.0px" font-family="CMUBright-Bold" style="text-anchor:start;fill:rgb(0,0,0);" transform="rotate(334.7,2614.7,1055.8)" >10</text>
<path d="M2349.775,1042.717 A965.000,965.000 40.000 0,1 2393.240,1134.833 L2541.342,1074.288 A1125.000,1125.000 0.000 0,0 2490.670,966.898 Z" style="stroke-width:2.0;stroke:rgb(115,115,115);stroke-linecap:round;fill:none;" />
<path d="M2417.770,1201.799 A965.000,965.000 40.000 0,1 2444.089,1300.196 L2600.621,1267.068 A1125.000,1125.000 0.000 0,0 2569.939,1152.356 Z" style="stroke-width:2.0;stroke:rgb(115,115,115);stroke-linecap:round;fill:rgb(153,0,204);" />
<text x="2676.2" y="1262.0" font-size="195.0px" font-family="CMUBright-Bold" style="text-anchor:start;fill:rgb(0,0,0);" transform="rotate(345.0,2676.2,1262.0)" >13</text>
<path d="M2417.770,1201.799 A965.000,965.000 40.000 0,1 2444.089,1300.196 L2600.621,1267.068 A1125.000,1125.000 0.000 0,0 2569.939,1152.356 Z" style="stroke-width:2.0;stroke:rgb(115,115,115);stroke-linecap:round;fill:none;" />
<path d="M2456.267,1370.465 A965.000,965.000 40.000 0,1 2464.593,1471.980 L2624.526,1467.335 A1125.000,1125.000 0.000 0,0 2614.818,1348.988 Z" style="stroke-width:2.0;stroke:rgb(115,115,115);stroke-linecap:round;fill:rgb(153,0,204);" />
<text x="2699.8" y="1475.8" font-size="195.0px" font-family="CMUBright-Bold" style="text-anchor:start;fill:rgb(0,0,0);" transform="rotate(355.3,2699.8,1475.8)" >16</text>
<path d="M2456.267,1370.465 A965.000,965.000 40.000 0,1 2464.593,1471.980 L2624.526,1467.335 A1125.000,1125.000 0.000 0,0 2614.818,1348.988 Z" style="stroke-width:2.0;stroke:rgb(115,115,115);stroke-linecap:round;fill:none;" />
<path d="M2464.028,1543.295 A965.000,965.000 40.000 0,1 2454.095,1644.665 L2612.287,1668.651 A1125.000,1125.000 0.000 0,0 2623.867,1550.473 Z" style="stroke-width:2.0;stroke:rgb(115,115,115);stroke-linecap:round;fill:rgb(153,0,204);" />
<text x="2685.0" y="1689.4" font-size="195.0px" font-family="CMUBright-Bold" style="text-anchor:start;fill:rgb(0,0,0);" transform="rotate(5.6,2685.0,1689.4)" >17</text>
<path d="M2464.028,1543.295 A965.000,965.000 40.000 0,1 2454.095,1644.665 L2612.287,1668.651 A1125.000,1125.000 0.000 0,0 2623.867,1550.473 Z" style="stroke-width:2.0;stroke:rgb(115,115,115);stroke-linecap:round;fill:none;" />
<path d="M2440.805,1714.733 A965.000,965.000 40.000 0,1 2412.931,1812.701 L2564.298,1864.548 A1125.000,1125.000 0.000 0,0 2596.794,1750.336 Z" style="stroke-width:2.0;stroke:rgb(115,115,115);stroke-linecap:round;fill:rgb(153,0,204);" />
<text x="2631.8" y="1898.9" font-size="195.0px" font-family="CMUBright-Bold" style="text-anchor:start;fill:rgb(0,0,0);" transform="rotate(15.9,2631.8,1898.9)" >19</text>
<path d="M2440.805,1714.733 A965.000,965.000 40.000 0,1 2412.931,1812.701 L2564.298,1864.548 A1125.000,1125.000 0.000 0,0 2596.794,1750.336 Z" style="stroke-width:2.0;stroke:rgb(115,115,115);stroke-linecap:round;fill:none;" />
<path d="M2387.344,1879.269 A965.000,965.000 40.000 0,1 2342.425,1970.686 L2482.102,2048.727 A1125.000,1125.000 0.000 0,0 2534.469,1942.153 Z" style="stroke-width:2.0;stroke:rgb(115,115,115);stroke-linecap:round;fill:rgb(153,0,204);" />
<text x="2542.3" y="2094.6" font-size="195.0px" font-family="CMUBright-Bold" style="text-anchor:start;fill:rgb(0,0,0);" transform="rotate(26.2,2542.3,2094.6)" >20</text>
<path d="M2387.344,1879.269 A965.000,965.000 40.000 0,1 2342.425,1970.686 L2482.102,2048.727 A1125.000,1125.000 0.000 0,0 2534.469,1942.153 Z" style="stroke-width:2.0;stroke:rgb(115,115,115);stroke-linecap:round;fill:none;" />
<path d="M2305.363,2031.616 A965.000,965.000 40.000 0,1 2244.843,2113.542 L2368.340,2215.270 A1125.000,1125.000 0.000 0,0 2438.895,2119.759 Z" style="stroke-width:2.0;stroke:rgb(115,115,115);stroke-linecap:round;fill:rgb(153,0,204);" />
<text x="2420.7" y="2269.6" font-size="195.0px" font-family="CMUBright-Bold" style="text-anchor:start;fill:rgb(0,0,0);" transform="rotate(36.5,2420.7,2269.6)" >21</text>
<path d="M2305.363,2031.616 A965.000,965.000 40.000 0,1 2244.843,2113.542 L2368.340,2215.270 A1125.000,1125.000 0.000 0,0 2438.895,2119.759 Z" style="stroke-width:2.0;stroke:rgb(115,115,115);stroke-linecap:round;fill:none;" />
<path d="M2197.497,2166.875 A965.000,965.000 40.000 0,1 2123.321,2236.679 L2226.669,2358.823 A1125.000,1125.000 0.000 0,0 2313.144,2277.445 Z" style="stroke-width:2.0;stroke:rgb(115,115,115);stroke-linecap:round;fill:rgb(153,0,204);" />
<text x="2267.0" y="2422.9" font-size="195.0px" font-family="CMUBright-Bold" style="text-anchor:start;fill:rgb(0,0,0);" transform="rotate(46.7,2267.0,2422.9)" >25</text>
<path d="M2197.497,2166.875 A965.000,965.000 40.000 0,1 2123.321,2236.679 L2226.669,2358.823 A1125.000,1125.000 0.000 0,0 2313.144,2277.445 Z" style="stroke-width:2.0;stroke:rgb(115,115,115);stroke-linecap:round;fill:none;" />
<path d="M2067.213,2280.701 A965.000,965.000 40.000 0,1 1981.764,2336.139 L2061.642,2474.773 A1125.000,1125.000 0.000 0,0 2161.258,2410.144 Z" style="stroke-width:2.0;stroke:rgb(115,115,115);stroke-linecap:round;fill:rgb(153,0,204);" />
<text x="2089.8" y="2545.0" font-size="195.0px" font-family="CMUBright-Bold" style="text-anchor:start;fill:rgb(0,0,0);" transform="rotate(57.0,2089.8,2545.0)" >26</text>
<path d="M2067.213,2280.701 A965.000,965.000 40.000 0,1 1981.764,2336.139 L2061.642,2474.773 A1125.000,1125.000 0.000 0,0 2161.258,2410.144 Z" style="stroke-width:2.0;stroke:rgb(115,115,115);stroke-linecap:round;fill:none;" />
<path d="M1918.698,2369.435 A965.000,965.000 40.000 0,1 1824.724,2408.724 L1878.564,2559.393 A1125.000,1125.000 0.000 0,0 1988.119,2513.590 Z" style="stroke-width:2.0;stroke:rgb(115,115,115);stroke-linecap:round;fill:rgb(153,0,204);" />
<text x="1893.8" y="2633.6" font-size="195.0px" font-family="CMUBright-Bold" style="text-anchor:start;fill:rgb(0,0,0);" transform="rotate(67.3,1893.8,2633.6)" >28</text>
<path d="M1918.698,2369.435 A965.000,965.000 40.000 0,1 1824.724,2408.724 L1878.564,2559.393 A1125.000,1125.000 0.000 0,0 1988.119,2513.590 Z" style="stroke-width:2.0;stroke:rgb(115,115,115);stroke-linecap:round;fill:none;" />
<path d="M1756.726,2430.224 A965.000,965.000 40.000 0,1 1657.246,2452.102 L1683.318,2609.964 A1125.000,1125.000 0.000 0,0 1799.291,2584.458 Z" style="stroke-width:2.0;stroke:rgb(115,115,115);stroke-linecap:round;fill:rgb(253,208,162);" />
<text x="1687.0" y="2685.3" font-size="195.0px" font-family="CMUBright-Bold" style="text-anchor:start;fill:rgb(0,0,0);" transform="rotate(77.6,1687.0,2685.3)" >14</text>
<path d="M1756.726,2430.224 A965.000,965.000 40.000 0,1 1657.246,2452.102 L1683.318,2609.964 A1125.000,1125.000 0.000 0,0 1799.291,2584.458 Z" style="stroke-width:2.0;stroke:rgb(115,115,115);stroke-linecap:round;fill:none;" />
<path d="M1586.502,2461.115 A965.000,965.000 40.000 0,1 1484.715,2464.879 L1482.181,2624.859 A1125.000,1125.000 0.000 0,0 1600.844,2620.471 Z" style="stroke-width:2.0;stroke:rgb(115,115,115);stroke-linecap:round;fill:rgb(253,208,162);" />
<text x="1470.4" y="2699.6" font-size="195.0px" font-family="CMUBright-Bold" style="text-anchor:start;fill:rgb(0,0,0);" transform="rotate(87.9,1470.4,2699.6)" >15</text>
<path d="M1586.502,2461.115 A965.000,965.000 40.000 0,1 1484.715,2464.879 L1482.181,2624.859 A1125.000,1125.000 0.000 0,0 1600.844,2620.471 Z" style="stroke-width:2.0;stroke:rgb(115,115,115);stroke-linecap:round;fill:none;" />
<path d="M1413.498,2461.115 A965.000,965.000 40.000 0,1 1312.675,2446.644 L1281.616,2603.600 A1125.000,1125.000 0.000 0,0 1399.156,2620.471 Z" style="stroke-width:2.0;stroke:rgb(115,115,115);stroke-linecap:round;fill:rgb(253,208,162);" />
<text x="1403.0" y="2696.1" font-size="195.0px" font-family="CMUBright-Bold" style="text-anchor:end;fill:rgb(0,0,0);" transform="rotate(-81.8,1403.0,2696.1)" >30</text>
<path d="M1413.498,2461.115 A965.000,965.000 40.000 0,1 1312.675,2446.644 L1281.616,2603.600 A1125.000,1125.000 0.000 0,0 1399.156,2620.471 Z" style="stroke-width:2.0;stroke:rgb(115,115,115);stroke-linecap:round;fill:none;" />
<path d="M1243.274,2430.224 A965.000,965.000 40.000 0,1 1146.656,2397.983 L1088.070,2546.871 A1125.000,1125.000 0.000 0,0 1200.709,2584.458 Z" style="stroke-width:2.0;stroke:rgb(115,115,115);stroke-linecap:round;fill:rgb(253,208,162);" />
<text x="1191.0" y="2659.5" font-size="195.0px" font-family="CMUBright-Bold" style="text-anchor:end;fill:rgb(0,0,0);" transform="rotate(-71.5,1191.0,2659.5)" >31</text>
<path d="M1243.274,2430.224 A965.000,965.000 40.000 0,1 1146.656,2397.983 L1088.070,2546.871 A1125.000,1125.000 0.000 0,0 1200.709,2584.458 Z" style="stroke-width:2.0;stroke:rgb(115,115,115);stroke-linecap:round;fill:none;" />
<path d="M1081.302,2369.435 A965.000,965.000 40.000 0,1 991.993,2320.460 L907.764,2456.494 A1125.000,1125.000 0.000 0,0 1011.881,2513.590 Z" style="stroke-width:2.0;stroke:rgb(115,115,115);stroke-linecap:round;fill:rgb(253,208,162);" />
<text x="988.9" y="2585.7" font-size="195.0px" font-family="CMUBright-Bold" style="text-anchor:end;fill:rgb(0,0,0);" transform="rotate(-61.3,988.9,2585.7)" >32</text>
<path d="M1081.302,2369.435 A965.000,965.000 40.000 0,1 991.993,2320.460 L907.764,2456.494 A1125.000,1125.000 0.000 0,0 1011.881,2513.590 Z" style="stroke-width:2.0;stroke:rgb(115,115,115);stroke-linecap:round;fill:none;" />
<path d="M932.787,2280.701 A965.000,965.000 40.000 0,1 853.658,2216.566 L746.493,2335.375 A1125.000,1125.000 0.000 0,0 838.742,2410.144 Z" style="stroke-width:2.0;stroke:rgb(115,115,115);stroke-linecap:round;fill:rgb(253,141,60);" />
<text x="801.7" y="2475.9" font-size="195.0px" font-family="CMUBright-Bold" style="text-anchor:end;fill:rgb(0,0,0);" transform="rotate(-51.0,801.7,2475.9)" >2</text>
<path d="M932.787,2280.701 A965.000,965.000 40.000 0,1 853.658,2216.566 L746.493,2335.375 A1125.000,1125.000 0.000 0,0 838.742,2410.144 Z" style="stroke-width:2.0;stroke:rgb(115,115,115);stroke-linecap:round;fill:none;" />
<path d="M802.503,2166.875 A965.000,965.000 40.000 0,1 736.097,2089.642 L609.440,2187.406 A1125.000,1125.000 0.000 0,0 686.856,2277.445 Z" style="stroke-width:2.0;stroke:rgb(115,115,115);stroke-linecap:round;fill:rgb(253,141,60);" />
<text x="640.0" y="2336.9" font-size="195.0px" font-family="CMUBright-Bold" style="text-anchor:end;fill:rgb(0,0,0);" transform="rotate(-40.7,640.0,2336.9)" >3</text>
<path d="M802.503,2166.875 A965.000,965.000 40.000 0,1 736.097,2089.642 L609.440,2187.406 A1125.000,1125.000 0.000 0,0 686.856,2277.445 Z" style="stroke-width:2.0;stroke:rgb(115,115,115);stroke-linecap:round;fill:none;" />
<path d="M694.637,2031.616 A965.000,965.000 40.000 0,1 643.089,1943.766 L501.010,2017.344 A1125.000,1125.000 0.000 0,0 561.105,2119.759 Z" style="stroke-width:2.0;stroke:rgb(115,115,115);stroke-linecap:round;fill:rgb(253,141,60);" />
<text x="504.4" y="2169.9" font-size="195.0px" font-family="CMUBright-Bold" style="text-anchor:end;fill:rgb(0,0,0);" transform="rotate(-30.4,504.4,2169.9)" >6</text>
<path d="M694.637,2031.616 A965.000,965.000 40.000 0,1 643.089,1943.766 L501.010,2017.344 A1125.000,1125.000 0.000 0,0 561.105,2119.759 Z" style="stroke-width:2.0;stroke:rgb(115,115,115);stroke-linecap:round;fill:none;" />
<path d="M612.656,1879.269 A965.000,965.000 40.000 0,1 577.622,1783.627 L424.689,1830.653 A1125.000,1125.000 0.000 0,0 465.531,1942.153 Z" style="stroke-width:2.0;stroke:rgb(115,115,115);stroke-linecap:round;fill:rgb(253,141,60);" />
<text x="399.6" y="1978.6" font-size="195.0px" font-family="CMUBright-Bold" style="text-anchor:end;fill:rgb(0,0,0);" transform="rotate(-20.1,399.6,1978.6)" >7</text>
<path d="M612.656,1879.269 A965.000,965.000 40.000 0,1 577.622,1783.627 L424.689,1830.653 A1125.000,1125.000 0.000 0,0 465.531,1942.153 Z" style="stroke-width:2.0;stroke:rgb(115,115,115);stroke-linecap:round;fill:none;" />
<path d="M559.195,1714.733 A965.000,965.000 40.000 0,1 541.802,1614.372 L382.929,1633.336 A1125.000,1125.000 0.000 0,0 403.206,1750.336 Z" style="stroke-width:2.0;stroke:rgb(115,115,115);stroke-linecap:round;fill:rgb(253,141,60);" />
<text x="332.0" y="1775.4" font-size="195.0px" font-family="CMUBright-Bold" style="text-anchor:end;fill:rgb(0,0,0);" transform="rotate(-9.8,332.0,1775.4)" >12</text>
<path d="M559.195,1714.733 A965.000,965.000 40.000 0,1 541.802,1614.372 L382.929,1633.336 A1125.000,1125.000 0.000 0,0 403.206,1750.336 Z" style="stroke-width:2.0;stroke:rgb(115,115,115);stroke-linecap:round;fill:none;" />
<path d="M535.972,1543.295 A965.000,965.000 40.000 0,1 536.778,1441.441 L377.073,1431.732 A1125.000,1125.000 0.000 0,0 376.133,1550.473 Z" style="stroke-width:2.0;stroke:rgb(115,115,115);stroke-linecap:round;fill:rgb(253,141,60);" />
<text x="301.7" y="1564.5" font-size="195.0px" font-family="CMUBright-Bold" style="text-anchor:end;fill:rgb(0,0,0);" transform="rotate(0.5,301.7,1564.5)" >18</text>
<path d="M535.972,1543.295 A965.000,965.000 40.000 0,1 536.778,1441.441 L377.073,1431.732 A1125.000,1125.000 0.000 0,0 376.133,1550.473 Z" style="stroke-width:2.0;stroke:rgb(115,115,115);stroke-linecap:round;fill:none;" />
<path d="M543.733,1370.465 A965.000,965.000 40.000 0,1 562.714,1270.393 L407.309,1232.323 A1125.000,1125.000 0.000 0,0 385.182,1348.988 Z" style="stroke-width:2.0;stroke:rgb(115,115,115);stroke-linecap:round;fill:rgb(253,141,60);" />
<text x="309.7" y="1347.5" font-size="195.0px" font-family="CMUBright-Bold" style="text-anchor:end;fill:rgb(0,0,0);" transform="rotate(10.7,309.7,1347.5)" >22</text>
<path d="M543.733,1370.465 A965.000,965.000 40.000 0,1 562.714,1270.393 L407.309,1232.323 A1125.000,1125.000 0.000 0,0 385.182,1348.988 Z" style="stroke-width:2.0;stroke:rgb(115,115,115);stroke-linecap:round;fill:none;" />
<path d="M582.230,1201.799 A965.000,965.000 40.000 0,1 618.774,1106.724 L472.664,1041.517 A1125.000,1125.000 0.000 0,0 430.061,1152.356 Z" style="stroke-width:2.0;stroke:rgb(115,115,115);stroke-linecap:round;fill:rgb(253,141,60);" />
<text x="355.5" y="1139.3" font-size="195.0px" font-family="CMUBright-Bold" style="text-anchor:end;fill:rgb(0,0,0);" transform="rotate(21.0,355.5,1139.3)" >23</text>
<path d="M582.230,1201.799 A965.000,965.000 40.000 0,1 618.774,1106.724 L472.664,1041.517 A1125.000,1125.000 0.000 0,0 430.061,1152.356 Z" style="stroke-width:2.0;stroke:rgb(115,115,115);stroke-linecap:round;fill:none;" />
<path d="M650.225,1042.717 A965.000,965.000 40.000 0,1 703.158,955.695 L571.039,865.447 A1125.000,1125.000 0.000 0,0 509.330,966.898 Z" style="stroke-width:2.0;stroke:rgb(115,115,115);stroke-linecap:round;fill:rgb(253,141,60);" />
<text x="439.2" y="939.0" font-size="195.0px" font-family="CMUBright-Bold" style="text-anchor:end;fill:rgb(0,0,0);" transform="rotate(31.3,439.2,939.0)" >24</text>
<path d="M650.225,1042.717 A965.000,965.000 40.000 0,1 703.158,955.695 L571.039,865.447 A1125.000,1125.000 0.000 0,0 509.330,966.898 Z" style="stroke-width:2.0;stroke:rgb(115,115,115);stroke-linecap:round;fill:none;" />
<path d="M745.533,898.332 A965.000,965.000 40.000 0,1 813.153,822.160 L699.272,709.772 A1125.000,1125.000 0.000 0,0 620.440,798.574 Z" style="stroke-width:2.0;stroke:rgb(115,115,115);stroke-linecap:round;fill:rgb(253,141,60);" />
<text x="555.8" y="759.4" font-size="195.0px" font-family="CMUBright-Bold" style="text-anchor:end;fill:rgb(0,0,0);" transform="rotate(41.6,555.8,759.4)" >27</text>
<path d="M745.533,898.332 A965.000,965.000 40.000 0,1 813.153,822.160 L699.272,709.772 A1125.000,1125.000 0.000 0,0 620.440,798.574 Z" style="stroke-width:2.0;stroke:rgb(115,115,115);stroke-linecap:round;fill:none;" />
<path d="M865.089,773.286 A965.000,965.000 40.000 0,1 945.224,710.412 L853.241,579.496 A1125.000,1125.000 0.000 0,0 759.819,652.795 Z" style="stroke-width:2.0;stroke:rgb(115,115,115);stroke-linecap:round;fill:rgb(253,141,60);" />
<text x="702.5" y="603.4" font-size="195.0px" font-family="CMUBright-Bold" style="text-anchor:end;fill:rgb(0,0,0);" transform="rotate(51.9,702.5,603.4)" >29</text>
<path d="M865.089,773.286 A965.000,965.000 40.000 0,1 945.224,710.412 L853.241,579.496 A1125.000,1125.000 0.000 0,0 759.819,652.795 Z" style="stroke-width:2.0;stroke:rgb(115,115,115);stroke-linecap:round;fill:none;" />
<path d="M1005.052,671.597 A965.000,965.000 40.000 0,1 1095.126,624.042 L1027.997,478.806 A1125.000,1125.000 0.000 0,0 922.988,534.245 Z" style="stroke-width:2.0;stroke:rgb(115,115,115);stroke-linecap:round;fill:rgb(253,141,60);" />
<text x="875.4" y="475.4" font-size="195.0px" font-family="CMUBright-Bold" style="text-anchor:end;fill:rgb(0,0,0);" transform="rotate(62.2,875.4,475.4)" >34</text>
<path d="M1005.052,671.597 A965.000,965.000 40.000 0,1 1095.126,624.042 L1027.997,478.806 A1125.000,1125.000 0.000 0,0 922.988,534.245 Z" style="stroke-width:2.0;stroke:rgb(115,115,115);stroke-linecap:round;fill:none;" />
<path d="M1160.923,596.533 A965.000,965.000 40.000 0,1 1258.041,565.826 L1217.923,410.937 A1125.000,1125.000 0.000 0,0 1104.703,446.736 Z" style="stroke-width:2.0;stroke:rgb(115,115,115);stroke-linecap:round;fill:rgb(66,146,198);" />
<text x="1070.3" y="379.6" font-size="195.0px" font-family="CMUBright-Bold" style="text-anchor:end;fill:rgb(0,0,0);" transform="rotate(72.5,1070.3,379.6)" >11</text>
<path d="M1160.923,596.533 A965.000,965.000 40.000 0,1 1258.041,565.826 L1217.923,410.937 A1125.000,1125.000 0.000 0,0 1104.703,446.736 Z" style="stroke-width:2.0;stroke:rgb(115,115,115);stroke-linecap:round;fill:none;" />
<path d="M1327.693,550.508 A965.000,965.000 40.000 0,1 1428.732,537.635 L1416.916,378.072 A1125.000,1125.000 0.000 0,0 1299.123,393.079 Z" style="stroke-width:2.0;stroke:rgb(115,115,115);stroke-linecap:round;fill:rgb(66,146,198);" />
<text x="1275.3" y="321.2" font-size="195.0px" font-family="CMUBright-Bold" style="text-anchor:end;fill:rgb(0,0,0);" transform="rotate(82.7,1275.3,321.2)" >33</text>
<path d="M1327.693,550.508 A965.000,965.000 40.000 0,1 1428.732,537.635 L1416.916,378.072 A1125.000,1125.000 0.000 0,0 1299.123,393.079 Z" style="stroke-width:2.0;stroke:rgb(115,115,115);stroke-linecap:round;fill:none;" />
</g>
<g id="track_1">
<path d="M 1711.1,607.9 L 1701.3,647.4 1690.5,687.1 1678.8,726.9 1666.0,766.5 1652.2,806.0 1637.3,845.3 1621.3,884.3 1604.2,922.8 1586.0,960.8 1566.6,998.3 1546.1,1035.2 1524.4,1071.4 1501.6,1106.8 1477.6,1141.4 1452.5,1175.1 1426.3,1207.9 1398.9,1239.8 1370.5,1270.6 1341.0,1300.4 1310.4,1329.2 1278.9,1356.8 1246.4,1383.3 1212.9,1408.7 1178.6,1432.9 1143.4,1455.9 1107.4,1477.7 1070.7,1498.4 1033.3,1517.8 995.2,1536.1 956.6,1553.1 917.5,1569.0 878.0,1583.7 838.2,1597.3 798.1,1609.8 757.8,1621.2 717.4,1631.5 677.1,1640.8 636.8,1649.2 596.7,1656.5  " style="stroke-opacity: 1.000000; stroke-width: 5.0; stroke: rgb(251,106,74); fill: none"  />
<path d="M 1711.1,607.9 L 1702.9,642.2 1694.6,676.2 1686.2,709.6 1677.8,742.3 1669.4,774.0 1661.0,804.4 1652.8,833.5 1644.7,860.9 1636.7,886.6 1628.9,910.4 1621.3,932.1 1614.0,951.7 1607.0,969.0 1600.2,983.8 1593.7,996.3 1587.6,1006.1 1581.8,1013.4 1576.3,1018.1 1571.3,1020.1 1566.6,1019.4 1562.3,1016.1 1558.4,1010.1 1554.9,1001.4 1551.8,990.2 1549.0,976.5 1546.7,960.3 1544.8,941.8 1543.3,920.9 1542.1,898.0 1541.3,872.9 1540.9,846.0 1540.9,817.4 1541.1,787.2 1541.7,755.7 1542.5,722.9 1543.6,689.2 1545.0,654.7 1546.6,619.7 1548.4,584.5  " style="stroke-opacity: 1.000000; stroke-width: 5.0; stroke: rgb(251,106,74); fill: none"  />
<path d="M 1867.0,659.9 L 1850.6,696.3 1833.2,732.5 1814.8,768.6 1795.4,804.3 1775.0,839.5 1753.5,874.2 1730.9,908.2 1707.4,941.4 1682.7,973.8 1657.1,1005.2 1630.4,1035.6 1602.7,1064.8 1574.0,1092.9 1544.3,1119.8 1513.6,1145.4 1482.0,1169.7 1449.5,1192.5 1416.2,1214.0 1381.9,1233.9 1346.9,1252.4 1311.1,1269.4 1274.6,1284.9 1237.3,1298.8 1199.5,1311.2 1161.1,1322.1 1122.1,1331.5 1082.7,1339.3 1042.9,1345.7 1002.8,1350.6 962.4,1354.1 921.8,1356.2 881.0,1356.9 840.3,1356.3 799.5,1354.5 758.9,1351.5 718.4,1347.4 678.3,1342.3 638.6,1336.2 599.3,1329.2  " style="stroke-opacity: 1.000000; stroke-width: 5.0; stroke: rgb(251,106,74); fill: none"  />
<path d="M 639.2,1815.3 L 681.1,1800.2 723.4,1785.3 766.1,1770.8 809.2,1756.6 852.6,1742.9 896.4,1729.5 940.6,1716.5 985.0,1704.0 1029.7,1691.9 1074.7,1680.4 1120.0,1669.3 1165.5,1658.8 1211.2,1648.8 1257.1,1639.3 1303.2,1630.5 1349.5,1622.1 1395.9,1614.4 1442.4,1607.3 1489.1,1600.7 1535.8,1594.8 1582.6,1589.4 1629.5,1584.7 1676.3,1580.5 1723.2,1577.0 1770.1,1574.0 1816.9,1571.6 1863.6,1569.8 1910.3,1568.6 1956.9,1568.0 2003.4,1567.9 2049.7,1568.3 2095.9,1569.3 2141.8,1570.8 2187.6,1572.8 2233.1,1575.2 2278.4,1578.2 2323.3,1581.5 2368.0,1585.3 2412.4,1589.4  " style="stroke-opacity: 1.000000; stroke-width: 5.0; stroke: rgb(251,106,74); fill: none"  />
<path d="M 639.2,1815.3 L 678.4,1801.4 718.3,1788.0 758.8,1775.4 799.8,1763.5 841.3,1752.5 883.2,1742.4 925.5,1733.2 968.2,1725.0 1011.1,1717.9 1054.3,1711.8 1097.7,1706.9 1141.3,1703.2 1185.0,1700.6 1228.8,1699.3 1272.7,1699.2 1316.5,1700.3 1360.3,1702.7 1403.9,1706.4 1447.5,1711.3 1490.9,1717.6 1534.1,1725.1 1577.1,1733.8 1619.8,1743.8 1662.2,1755.1 1704.2,1767.5 1745.8,1781.1 1787.0,1795.9 1827.8,1811.7 1868.1,1828.6 1907.9,1846.6 1947.1,1865.5 1985.7,1885.4 2023.7,1906.1 2061.1,1927.6 2097.8,1949.8 2133.8,1972.8 2169.1,1996.3 2203.6,2020.3 2237.4,2044.7  " style="stroke-opacity: 1.000000; stroke-width: 5.0; stroke: rgb(251,106,74); fill: none"  />
<path d="M 639.2,1815.3 L 677.6,1801.7 716.6,1788.8 756.3,1776.7 796.4,1765.5 837.0,1755.3 878.0,1746.1 919.3,1737.9 960.9,1731.0 1002.7,1725.2 1044.6,1720.8 1086.7,1717.6 1128.8,1715.8 1170.9,1715.3 1213.0,1716.3 1255.0,1718.6 1296.9,1722.4 1338.5,1727.7 1379.9,1734.5 1421.0,1742.7 1461.9,1752.3 1502.3,1763.4 1542.3,1775.9 1581.9,1789.9 1621.0,1805.2 1659.6,1821.9 1697.7,1839.9 1735.1,1859.2 1772.0,1879.7 1808.2,1901.4 1843.7,1924.2 1878.5,1948.1 1912.5,1972.9 1945.8,1998.7 1978.3,2025.3 2010.0,2052.6 2040.9,2080.6 2070.9,2109.2 2100.0,2138.2 2128.3,2167.6  " style="stroke-opacity: 1.000000; stroke-width: 5.0; stroke: rgb(251,106,74); fill: none"  />
<path d="M 2138.8,842.4 L 2113.4,868.0 2087.7,893.1 2061.8,917.5 2035.7,940.9 2009.6,963.1 1983.5,984.2 1957.6,1003.8 1932.0,1021.8 1906.7,1038.2 1881.9,1052.7 1857.6,1065.3 1833.9,1075.9 1810.9,1084.5 1788.6,1090.8 1767.0,1095.0 1746.3,1096.9 1726.5,1096.5 1707.6,1093.7 1689.7,1088.7 1672.8,1081.3 1656.9,1071.6 1642.1,1059.6 1628.4,1045.3 1615.7,1028.9 1604.1,1010.3 1593.6,989.6 1584.2,966.9 1575.9,942.2 1568.6,915.8 1562.4,887.7 1557.3,858.1 1553.1,827.1 1549.9,794.8 1547.6,761.4 1546.2,727.0 1545.6,692.0 1545.9,656.4 1546.8,620.5 1548.4,584.5  " style="stroke-opacity: 1.000000; stroke-width: 5.0; stroke: rgb(251,106,74); fill: none"  />
<path d="M 2245.9,967.0 L 2210.3,992.1 2174.1,1017.0 2137.3,1041.5 2099.9,1065.7 2061.9,1089.5 2023.4,1112.9 1984.3,1135.7 1944.7,1158.1 1904.7,1179.8 1864.1,1201.0 1823.1,1221.6 1781.6,1241.6 1739.7,1260.8 1697.3,1279.4 1654.6,1297.2 1611.6,1314.3 1568.2,1330.7 1524.4,1346.3 1480.4,1361.1 1436.1,1375.1 1391.6,1388.3 1346.9,1400.7 1302.0,1412.2 1256.9,1423.0 1211.7,1432.9 1166.4,1442.1 1121.0,1450.4 1075.6,1458.0 1030.2,1464.7 984.8,1470.7 939.5,1475.9 894.3,1480.4 849.2,1484.1 804.2,1487.2 759.5,1489.5 715.0,1491.2 670.8,1492.3 626.8,1492.8 583.3,1492.7  " style="stroke-opacity: 1.000000; stroke-width: 5.0; stroke: rgb(251,106,74); fill: none"  />
<path d="M 596.7,1656.5 L 636.8,1649.2 677.1,1640.8 717.4,1631.5 757.8,1621.2 798.1,1609.8 838.2,1597.3 878.0,1583.7 917.5,1569.0 956.6,1553.1 995.2,1536.1 1033.3,1517.8 1070.7,1498.4 1107.4,1477.7 1143.4,1455.9 1178.6,1432.9 1212.9,1408.7 1246.4,1383.3 1278.9,1356.8 1310.4,1329.2 1341.0,1300.4 1370.5,1270.6 1398.9,1239.8 1426.3,1207.9 1452.5,1175.1 1477.6,1141.4 1501.6,1106.8 1524.4,1071.4 1546.1,1035.2 1566.6,998.3 1586.0,960.8 1604.2,922.8 1621.3,884.3 1637.3,845.3 1652.2,806.0 1666.0,766.5 1678.8,726.9 1690.5,687.1 1701.3,647.4 1711.1,607.9  " style="stroke-opacity: 1.000000; stroke-width: 5.0; stroke: rgb(251,106,74); fill: none"  />
<path d="M 596.7,1656.5 L 640.6,1648.7 684.6,1640.5 728.9,1631.7 773.3,1622.5 817.8,1612.8 862.5,1602.5 907.2,1591.7 951.9,1580.4 996.7,1568.5 1041.5,1556.0 1086.2,1543.0 1130.9,1529.4 1175.5,1515.3 1220.0,1500.5 1264.4,1485.2 1308.6,1469.3 1352.7,1452.8 1396.6,1435.8 1440.3,1418.2 1483.7,1400.0 1526.9,1381.3 1569.9,1362.0 1612.6,1342.2 1655.0,1321.9 1697.1,1301.1 1738.8,1279.7 1780.2,1257.9 1821.3,1235.7 1862.0,1213.0 1902.3,1189.9 1942.2,1166.4 1981.7,1142.5 2020.8,1118.2 2059.4,1093.7 2097.6,1068.8 2135.4,1043.7 2172.7,1018.3 2209.5,992.8 2245.9,967.0  " style="stroke-opacity: 1.000000; stroke-width: 5.0; stroke: rgb(251,106,74); fill: none"  />
<path d="M 596.7,1656.5 L 642.6,1648.6 688.5,1640.8 734.5,1633.1 780.6,1625.4 826.8,1617.8 873.0,1610.3 919.3,1602.9 965.7,1595.6 1012.2,1588.3 1058.6,1581.2 1105.2,1574.2 1151.8,1567.3 1198.4,1560.5 1245.1,1553.9 1291.8,1547.3 1338.6,1540.9 1385.4,1534.5 1432.2,1528.3 1479.0,1522.2 1525.9,1516.3 1572.7,1510.4 1619.6,1504.7 1666.5,1499.1 1713.4,1493.6 1760.2,1488.2 1807.1,1483.0 1854.0,1477.9 1900.8,1472.9 1947.6,1468.0 1994.4,1463.2 2041.2,1458.5 2087.9,1454.0 2134.6,1449.6 2181.2,1445.2 2227.8,1441.0 2274.4,1436.9 2320.9,1432.8 2367.3,1428.9 2413.7,1425.1  " style="stroke-opacity: 1.000000; stroke-width: 5.0; stroke: rgb(251,106,74); fill: none"  />
<path d="M 596.7,1656.5 L 639.7,1649.4 683.1,1642.7 726.9,1636.6 771.1,1631.0 815.6,1626.0 860.5,1621.7 905.6,1618.1 950.9,1615.1 996.5,1612.9 1042.3,1611.4 1088.2,1610.6 1134.2,1610.7 1180.3,1611.5 1226.5,1613.1 1272.7,1615.6 1318.9,1618.9 1365.1,1623.0 1411.3,1627.9 1457.4,1633.7 1503.3,1640.3 1549.2,1647.7 1594.8,1655.9 1640.3,1665.0 1685.6,1674.9 1730.6,1685.5 1775.4,1696.9 1819.9,1709.1 1864.1,1722.0 1907.9,1735.6 1951.4,1749.9 1994.5,1764.9 2037.2,1780.5 2079.5,1796.7 2121.3,1813.4 2162.6,1830.7 2203.5,1848.5 2243.8,1866.7 2283.6,1885.3 2322.8,1904.3  " style="stroke-opacity: 1.000000; stroke-width: 5.0; stroke: rgb(251,106,74); fill: none"  />
<path d="M 596.7,1656.5 L 638.7,1649.6 681.3,1643.3 724.2,1637.6 767.6,1632.7 811.3,1628.5 855.3,1625.2 899.6,1622.7 944.1,1621.1 988.8,1620.4 1033.6,1620.6 1078.6,1621.8 1123.6,1623.9 1168.6,1627.1 1213.6,1631.3 1258.5,1636.5 1303.3,1642.8 1348.1,1650.1 1392.6,1658.5 1437.0,1667.9 1481.1,1678.3 1525.0,1689.8 1568.6,1702.3 1611.8,1715.8 1654.7,1730.3 1697.2,1745.8 1739.3,1762.2 1781.0,1779.5 1822.2,1797.7 1862.9,1816.8 1903.1,1836.7 1942.7,1857.3 1981.8,1878.7 2020.2,1900.8 2058.1,1923.5 2095.3,1946.8 2131.9,1970.7 2167.7,1995.0 2202.9,2019.7 2237.4,2044.7  " style="stroke-opacity: 1.000000; stroke-width: 5.0; stroke: rgb(251,106,74); fill: none"  />
<path d="M 596.7,1656.5 L 637.8,1649.8 679.4,1643.8 721.5,1638.6 764.0,1634.3 806.8,1630.8 849.8,1628.3 893.1,1626.9 936.5,1626.4 980.1,1627.1 1023.7,1628.9 1067.3,1631.8 1110.8,1635.9 1154.3,1641.1 1197.6,1647.6 1240.7,1655.4 1283.7,1664.3 1326.3,1674.5 1368.6,1685.9 1410.6,1698.6 1452.2,1712.5 1493.4,1727.6 1534.1,1743.8 1574.3,1761.3 1614.0,1779.9 1653.1,1799.7 1691.7,1820.5 1729.6,1842.4 1766.9,1865.2 1803.5,1889.1 1839.4,1913.9 1874.6,1939.5 1909.1,1965.9 1942.8,1993.1 1975.8,2020.9 2007.9,2049.4 2039.2,2078.3 2069.8,2107.8 2099.4,2137.5 2128.3,2167.6  " style="stroke-opacity: 1.000000; stroke-width: 5.0; stroke: rgb(251,106,74); fill: none"  />
<path d="M 596.7,1656.5 L 636.1,1650.2 675.9,1644.7 716.1,1640.2 756.6,1636.7 797.3,1634.4 838.1,1633.2 878.8,1633.3 919.6,1634.7 960.1,1637.4 1000.5,1641.5 1040.6,1647.0 1080.3,1654.0 1119.5,1662.5 1158.3,1672.5 1196.6,1684.0 1234.2,1697.0 1271.2,1711.5 1307.5,1727.6 1343.0,1745.1 1377.7,1764.2 1411.6,1784.7 1444.7,1806.6 1476.8,1830.0 1508.0,1854.8 1538.3,1880.8 1567.5,1908.2 1595.8,1936.7 1623.0,1966.5 1649.2,1997.3 1674.4,2029.1 1698.5,2061.8 1721.5,2095.4 1743.5,2129.8 1764.5,2164.8 1784.4,2200.3 1803.2,2236.3 1821.0,2272.7 1837.8,2309.2 1853.6,2345.8  " style="stroke-opacity: 1.000000; stroke-width: 5.0; stroke: rgb(251,106,74); fill: none"  />
<path d="M 2385.6,1263.1 L 2349.2,1272.4 2312.4,1280.8 2275.4,1288.2 2238.4,1294.6 2201.4,1299.7 2164.7,1303.5 2128.3,1306.0 2092.4,1307.1 2057.1,1306.6 2022.4,1304.6 1988.5,1300.9 1955.4,1295.6 1923.3,1288.6 1892.2,1279.9 1862.3,1269.5 1833.4,1257.3 1805.8,1243.3 1779.5,1227.6 1754.5,1210.1 1730.9,1191.0 1708.6,1170.1 1687.8,1147.6 1668.5,1123.5 1650.5,1097.9 1634.1,1070.7 1619.2,1042.1 1605.7,1012.1 1593.6,980.9 1583.0,948.5 1573.9,915.0 1566.1,880.5 1559.7,845.1 1554.6,809.0 1550.7,772.3 1548.1,735.1 1546.6,697.6 1546.2,659.8 1546.8,622.1 1548.4,584.5  " style="stroke-opacity: 1.000000; stroke-width: 5.0; stroke: rgb(251,106,74); fill: none"  />
<path d="M 2413.7,1425.1 L 2367.3,1428.9 2320.9,1432.8 2274.4,1436.9 2227.8,1441.0 2181.2,1445.2 2134.6,1449.6 2087.9,1454.0 2041.2,1458.5 1994.4,1463.2 1947.6,1468.0 1900.8,1472.9 1854.0,1477.9 1807.1,1483.0 1760.2,1488.2 1713.4,1493.6 1666.5,1499.1 1619.6,1504.7 1572.7,1510.4 1525.9,1516.3 1479.0,1522.2 1432.2,1528.3 1385.4,1534.5 1338.6,1540.9 1291.8,1547.3 1245.1,1553.9 1198.4,1560.5 1151.8,1567.3 1105.2,1574.2 1058.6,1581.2 1012.2,1588.3 965.7,1595.6 919.3,1602.9 873.0,1610.3 826.8,1617.8 780.6,1625.4 734.5,1633.1 688.5,1640.8 642.6,1648.6 596.7,1656.5  " style="stroke-opacity: 1.000000; stroke-width: 5.0; stroke: rgb(251,106,74); fill: none"  />
<path d="M 2413.7,1425.1 L 2373.0,1428.0 2332.0,1430.0 2290.6,1431.1 2248.9,1431.2 2207.0,1430.3 2165.1,1428.3 2123.1,1425.1 2081.2,1420.8 2039.3,1415.2 1997.7,1408.3 1956.3,1400.2 1915.2,1390.8 1874.5,1380.0 1834.2,1367.9 1794.3,1354.4 1755.0,1339.6 1716.3,1323.5 1678.1,1305.9 1640.7,1287.1 1603.9,1266.9 1567.9,1245.5 1532.6,1222.7 1498.1,1198.8 1464.5,1173.6 1431.7,1147.2 1399.9,1119.7 1368.9,1091.2 1338.8,1061.6 1309.7,1031.1 1281.6,999.6 1254.4,967.4 1228.2,934.4 1202.9,900.7 1178.6,866.4 1155.4,831.6 1133.1,796.4 1111.7,760.9 1091.4,725.1 1072.0,689.3  " style="stroke-opacity: 1.000000; stroke-width: 5.0; stroke: rgb(251,106,74); fill: none"  />
<path d="M 2412.4,1589.4 L 2368.0,1585.3 2323.3,1581.5 2278.4,1578.2 2233.1,1575.2 2187.6,1572.8 2141.8,1570.8 2095.9,1569.3 2049.7,1568.3 2003.4,1567.9 1956.9,1568.0 1910.3,1568.6 1863.6,1569.8 1816.9,1571.6 1770.1,1574.0 1723.2,1577.0 1676.3,1580.5 1629.5,1584.7 1582.6,1589.4 1535.8,1594.8 1489.1,1600.7 1442.4,1607.3 1395.9,1614.4 1349.5,1622.1 1303.2,1630.5 1257.1,1639.3 1211.2,1648.8 1165.5,1658.8 1120.0,1669.3 1074.7,1680.4 1029.7,1691.9 985.0,1704.0 940.6,1716.5 896.4,1729.5 852.6,1742.9 809.2,1756.6 766.1,1770.8 723.4,1785.3 681.1,1800.2 639.2,1815.3  " style="stroke-opacity: 1.000000; stroke-width: 5.0; stroke: rgb(251,106,74); fill: none"  />
<path d="M 2412.4,1589.4 L 2371.0,1585.0 2329.2,1579.7 2287.3,1573.5 2245.2,1566.4 2203.1,1558.3 2160.9,1549.3 2118.8,1539.2 2076.8,1528.0 2035.0,1515.8 1993.5,1502.5 1952.2,1488.1 1911.3,1472.6 1870.8,1455.9 1830.8,1438.1 1791.2,1419.2 1752.3,1399.2 1713.9,1378.0 1676.1,1355.7 1639.0,1332.4 1602.6,1307.9 1566.9,1282.4 1532.0,1255.9 1497.9,1228.3 1464.6,1199.8 1432.1,1170.4 1400.5,1140.1 1369.7,1108.9 1339.9,1076.9 1310.9,1044.2 1282.9,1010.8 1255.8,976.7 1229.6,942.0 1204.3,906.9 1180.0,871.3 1156.5,835.3 1134.0,799.1 1112.5,762.6 1091.8,726.0 1072.0,689.3  " style="stroke-opacity: 1.000000; stroke-width: 5.0; stroke: rgb(251,106,74); fill: none"  />
<path d="M 583.3,1492.7 L 626.8,1492.8 670.8,1492.3 715.0,1491.2 759.5,1489.5 804.2,1487.2 849.2,1484.1 894.3,1480.4 939.5,1475.9 984.8,1470.7 1030.2,1464.7 1075.6,1458.0 1121.0,1450.4 1166.4,1442.1 1211.7,1432.9 1256.9,1423.0 1302.0,1412.2 1346.9,1400.7 1391.6,1388.3 1436.1,1375.1 1480.4,1361.1 1524.4,1346.3 1568.2,1330.7 1611.6,1314.3 1654.6,1297.2 1697.3,1279.4 1739.7,1260.8 1781.6,1241.6 1823.1,1221.6 1864.1,1201.0 1904.7,1179.8 1944.7,1158.1 1984.3,1135.7 2023.4,1112.9 2061.9,1089.5 2099.9,1065.7 2137.3,1041.5 2174.1,1017.0 2210.3,992.1 2245.9,967.0  " style="stroke-opacity: 1.000000; stroke-width: 5.0; stroke: rgb(251,106,74); fill: none"  />
<path d="M 2322.8,1904.3 L 2283.6,1885.3 2243.8,1866.7 2203.5,1848.5 2162.6,1830.7 2121.3,1813.4 2079.5,1796.7 2037.2,1780.5 1994.5,1764.9 1951.4,1749.9 1907.9,1735.6 1864.1,1722.0 1819.9,1709.1 1775.4,1696.9 1730.6,1685.5 1685.6,1674.9 1640.3,1665.0 1594.8,1655.9 1549.2,1647.7 1503.3,1640.3 1457.4,1633.7 1411.3,1627.9 1365.1,1623.0 1318.9,1618.9 1272.7,1615.6 1226.5,1613.1 1180.3,1611.5 1134.2,1610.7 1088.2,1610.6 1042.3,1611.4 996.5,1612.9 950.9,1615.1 905.6,1618.1 860.5,1621.7 815.6,1626.0 771.1,1631.0 726.9,1636.6 683.1,1642.7 639.7,1649.4 596.7,1656.5  " style="stroke-opacity: 1.000000; stroke-width: 5.0; stroke: rgb(251,106,74); fill: none"  />
<path d="M 2322.8,1904.3 L 2282.0,1884.1 2241.1,1863.6 2200.2,1842.8 2159.2,1821.6 2118.2,1800.1 2077.3,1778.3 2036.4,1756.2 1995.5,1733.7 1954.6,1710.9 1913.9,1687.7 1873.2,1664.2 1832.6,1640.4 1792.1,1616.3 1751.8,1591.8 1711.6,1566.9 1671.5,1541.8 1631.7,1516.3 1591.9,1490.5 1552.4,1464.4 1513.1,1438.0 1474.0,1411.3 1435.1,1384.3 1396.4,1357.0 1358.0,1329.5 1319.8,1301.7 1281.8,1273.6 1244.2,1245.3 1206.8,1216.7 1169.6,1188.0 1132.8,1159.0 1096.2,1129.8 1059.9,1100.5 1023.9,1071.0 988.2,1041.3 952.8,1011.5 917.8,981.6 883.0,951.6 848.6,921.5 814.4,891.4  " style="stroke-opacity: 1.000000; stroke-width: 5.0; stroke: rgb(251,106,74); fill: none"  />
<path d="M 2237.4,2044.7 L 2202.9,2019.7 2167.7,1995.0 2131.9,1970.7 2095.3,1946.8 2058.1,1923.5 2020.2,1900.8 1981.8,1878.7 1942.7,1857.3 1903.1,1836.7 1862.9,1816.8 1822.2,1797.7 1781.0,1779.5 1739.3,1762.2 1697.2,1745.8 1654.7,1730.3 1611.8,1715.8 1568.6,1702.3 1525.0,1689.8 1481.1,1678.3 1437.0,1667.9 1392.6,1658.5 1348.1,1650.1 1303.3,1642.8 1258.5,1636.5 1213.6,1631.3 1168.6,1627.1 1123.6,1623.9 1078.6,1621.8 1033.6,1620.6 988.8,1620.4 944.1,1621.1 899.6,1622.7 855.3,1625.2 811.3,1628.5 767.6,1632.7 724.2,1637.6 681.3,1643.3 638.7,1649.6 596.7,1656.5  " style="stroke-opacity: 1.000000; stroke-width: 5.0; stroke: rgb(251,106,74); fill: none"  />
<path d="M 2237.4,2044.7 L 2201.7,2018.1 2166.0,1990.9 2130.3,1963.3 2094.8,1935.1 2059.3,1906.5 2024.0,1877.3 1988.9,1847.6 1953.9,1817.4 1919.3,1786.7 1884.8,1755.6 1850.7,1723.9 1816.8,1691.7 1783.3,1659.1 1750.1,1625.9 1717.3,1592.4 1684.9,1558.3 1652.8,1523.8 1621.2,1488.9 1590.1,1453.6 1559.4,1417.9 1529.1,1381.8 1499.3,1345.3 1470.1,1308.5 1441.3,1271.3 1413.0,1233.9 1385.2,1196.1 1358.0,1158.0 1331.2,1119.7 1305.0,1081.2 1279.3,1042.5 1254.2,1003.6 1229.6,964.5 1205.5,925.4 1182.0,886.1 1158.9,846.7 1136.4,807.4 1114.4,768.0 1093.0,728.6 1072.0,689.3  " style="stroke-opacity: 1.000000; stroke-width: 5.0; stroke: rgb(251,106,74); fill: none"  />
<path d="M 2128.3,2167.6 L 2100.0,2138.2 2070.9,2109.2 2040.9,2080.6 2010.0,2052.6 1978.3,2025.3 1945.8,1998.7 1912.5,1972.9 1878.5,1948.1 1843.7,1924.2 1808.2,1901.4 1772.0,1879.7 1735.1,1859.2 1697.7,1839.9 1659.6,1821.9 1621.0,1805.2 1581.9,1789.9 1542.3,1775.9 1502.3,1763.4 1461.9,1752.3 1421.0,1742.7 1379.9,1734.5 1338.5,1727.7 1296.9,1722.4 1255.0,1718.6 1213.0,1716.3 1170.9,1715.3 1128.8,1715.8 1086.7,1717.6 1044.6,1720.8 1002.7,1725.2 960.9,1731.0 919.3,1737.9 878.0,1746.1 837.0,1755.3 796.4,1765.5 756.3,1776.7 716.6,1788.8 677.6,1801.7 639.2,1815.3  " style="stroke-opacity: 1.000000; stroke-width: 5.0; stroke: rgb(251,106,74); fill: none"  />
<path d="M 2128.3,2167.6 L 2099.4,2137.5 2069.8,2107.8 2039.2,2078.3 2007.9,2049.4 1975.8,2020.9 1942.8,1993.1 1909.1,1965.9 1874.6,1939.5 1839.4,1913.9 1803.5,1889.1 1766.9,1865.2 1729.6,1842.4 1691.7,1820.5 1653.1,1799.7 1614.0,1779.9 1574.3,1761.3 1534.1,1743.8 1493.4,1727.6 1452.2,1712.5 1410.6,1698.6 1368.6,1685.9 1326.3,1674.5 1283.7,1664.3 1240.7,1655.4 1197.6,1647.6 1154.3,1641.1 1110.8,1635.9 1067.3,1631.8 1023.7,1628.9 980.1,1627.1 936.5,1626.4 893.1,1626.9 849.8,1628.3 806.8,1630.8 764.0,1634.3 721.5,1638.6 679.4,1643.8 637.8,1649.8 596.7,1656.5  " style="stroke-opacity: 1.000000; stroke-width: 5.0; stroke: rgb(251,106,74); fill: none"  />
<path d="M 1853.6,2345.8 L 1836.2,2304.8 1818.4,2263.7 1800.0,2222.5 1781.1,2181.2 1761.7,2140.0 1741.8,2098.7 1721.3,2057.5 1700.3,2016.4 1678.8,1975.4 1656.7,1934.6 1634.0,1893.9 1610.8,1853.3 1587.1,1813.0 1562.8,1772.9 1538.0,1733.0 1512.7,1693.4 1486.8,1654.1 1460.4,1615.1 1433.5,1576.4 1406.1,1538.1 1378.3,1500.1 1349.9,1462.6 1321.1,1425.3 1291.9,1388.5 1262.2,1352.2 1232.1,1316.2 1201.7,1280.7 1170.8,1245.6 1139.6,1211.0 1108.1,1176.8 1076.3,1143.1 1044.3,1110.0 1011.9,1077.2 979.4,1045.0 946.6,1013.3 913.7,982.1 880.7,951.3 847.6,921.1 814.4,891.4  " style="stroke-opacity: 1.000000; stroke-width: 5.0; stroke: rgb(251,106,74); fill: none"  />
<path d="M 934.1,778.8 L 959.6,810.5 986.0,842.1 1013.3,873.2 1041.6,903.9 1070.7,933.9 1100.7,963.3 1131.5,992.0 1163.2,1019.8 1195.7,1046.7 1229.1,1072.6 1263.1,1097.4 1298.0,1121.2 1333.6,1143.7 1369.9,1165.1 1406.8,1185.1 1444.4,1203.9 1482.6,1221.4 1521.3,1237.4 1560.6,1252.1 1600.4,1265.4 1640.6,1277.3 1681.3,1287.7 1722.3,1296.7 1763.6,1304.2 1805.2,1310.3 1847.0,1315.1 1889.0,1318.4 1931.1,1320.3 1973.3,1320.9 2015.5,1320.2 2057.7,1318.3 2099.7,1315.1 2141.6,1310.7 2183.2,1305.2 2224.6,1298.6 2265.6,1291.1 2306.1,1282.6 2346.1,1273.2 2385.6,1263.1  " style="stroke-opacity: 1.000000; stroke-width: 5.0; stroke: rgb(251,106,74); fill: none"  />
<path d="M 1072.0,689.3 L 1090.3,723.0 1109.5,756.3 1129.7,789.2 1150.8,821.5 1172.8,853.0 1195.7,883.6 1219.5,913.1 1244.2,941.5 1269.7,968.5 1296.0,994.2 1323.2,1018.4 1351.1,1041.0 1379.7,1062.0 1409.1,1081.2 1439.2,1098.6 1469.9,1114.1 1501.2,1127.8 1533.1,1139.5 1565.6,1149.3 1598.5,1157.1 1631.9,1162.9 1665.7,1166.7 1699.8,1168.5 1734.2,1168.4 1768.9,1166.3 1803.8,1162.3 1838.8,1156.4 1873.9,1148.7 1909.0,1139.2 1944.0,1128.1 1979.0,1115.3 2013.7,1101.0 2048.3,1085.3 2082.4,1068.2 2116.2,1049.9 2149.6,1030.5 2182.3,1010.1 2214.5,988.9 2245.9,967.0  " style="stroke-opacity: 1.000000; stroke-width: 5.0; stroke: rgb(251,106,74); fill: none"  />
<path d="M 1072.0,689.3 L 1091.0,724.4 1111.0,759.2 1132.0,793.8 1154.0,828.0 1177.0,861.6 1201.0,894.6 1226.0,926.8 1251.9,958.2 1278.9,988.7 1306.8,1018.1 1335.7,1046.4 1365.5,1073.6 1396.2,1099.5 1427.8,1124.1 1460.2,1147.4 1493.5,1169.2 1527.6,1189.6 1562.5,1208.5 1598.1,1225.9 1634.4,1241.8 1671.4,1256.1 1708.9,1268.8 1747.1,1280.0 1785.7,1289.6 1824.8,1297.6 1864.4,1304.0 1904.3,1309.0 1944.4,1312.4 1984.8,1314.3 2025.4,1314.8 2066.0,1313.8 2106.7,1311.6 2147.3,1308.0 2187.8,1303.2 2228.1,1297.2 2268.1,1290.1 2307.8,1282.0 2347.0,1273.0 2385.6,1263.1  " style="stroke-opacity: 1.000000; stroke-width: 5.0; stroke: rgb(251,106,74); fill: none"  />
<path d="M 1072.0,689.3 L 1091.8,726.0 1112.5,762.6 1134.0,799.1 1156.5,835.3 1180.0,871.3 1204.3,906.9 1229.6,942.0 1255.8,976.7 1282.9,1010.8 1310.9,1044.2 1339.9,1076.9 1369.7,1108.9 1400.5,1140.1 1432.1,1170.4 1464.6,1199.8 1497.9,1228.3 1532.0,1255.9 1566.9,1282.4 1602.6,1307.9 1639.0,1332.4 1676.1,1355.7 1713.9,1378.0 1752.3,1399.2 1791.2,1419.2 1830.8,1438.1 1870.8,1455.9 1911.3,1472.6 1952.2,1488.1 1993.5,1502.5 2035.0,1515.8 2076.8,1528.0 2118.8,1539.2 2160.9,1549.3 2203.1,1558.3 2245.2,1566.4 2287.3,1573.5 2329.2,1579.7 2371.0,1585.0 2412.4,1589.4  " style="stroke-opacity: 1.000000; stroke-width: 5.0; stroke: rgb(251,106,74); fill: none"  />
<path d="M 1072.0,689.3 L 1093.0,728.6 1114.4,768.0 1136.4,807.4 1158.9,846.7 1182.0,886.1 1205.5,925.4 1229.6,964.5 1254.2,1003.6 1279.3,1042.5 1305.0,1081.2 1331.2,1119.7 1358.0,1158.0 1385.2,1196.1 1413.0,1233.9 1441.3,1271.3 1470.1,1308.5 1499.3,1345.3 1529.1,1381.8 1559.4,1417.9 1590.1,1453.6 1621.2,1488.9 1652.8,1523.8 1684.9,1558.3 1717.3,1592.4 1750.1,1625.9 1783.3,1659.1 1816.8,1691.7 1850.7,1723.9 1884.8,1755.6 1919.3,1786.7 1953.9,1817.4 1988.9,1847.6 2024.0,1877.3 2059.3,1906.5 2094.8,1935.1 2130.3,1963.3 2166.0,1990.9 2201.7,2018.1 2237.4,2044.7  " style="stroke-opacity: 1.000000; stroke-width: 5.0; stroke: rgb(251,106,74); fill: none"  />
<path d="M 1072.0,689.3 L 1093.4,729.5 1115.0,769.8 1137.0,810.1 1159.4,850.4 1182.0,890.7 1205.0,931.0 1228.4,971.3 1252.0,1011.5 1276.0,1051.7 1300.3,1091.8 1325.0,1131.7 1350.0,1171.6 1375.3,1211.4 1401.0,1251.0 1426.9,1290.4 1453.3,1329.7 1479.9,1368.9 1506.8,1407.8 1534.0,1446.6 1561.6,1485.1 1589.4,1523.4 1617.5,1561.5 1645.9,1599.4 1674.6,1637.0 1703.5,1674.4 1732.7,1711.5 1762.1,1748.3 1791.7,1784.9 1821.5,1821.2 1851.5,1857.2 1881.8,1892.9 1912.1,1928.3 1942.7,1963.4 1973.4,1998.2 2004.2,2032.7 2035.1,2066.9 2066.1,2100.8 2097.1,2134.4 2128.3,2167.6  " style="stroke-opacity: 1.000000; stroke-width: 5.0; stroke: rgb(251,106,74); fill: none"  />
<path d="M 1548.4,584.5 L 1546.6,619.7 1545.0,654.7 1543.6,689.2 1542.5,722.9 1541.7,755.7 1541.1,787.2 1540.9,817.4 1540.9,846.0 1541.3,872.9 1542.1,898.0 1543.3,920.9 1544.8,941.8 1546.7,960.3 1549.0,976.5 1551.8,990.2 1554.9,1001.4 1558.4,1010.1 1562.3,1016.1 1566.6,1019.4 1571.3,1020.1 1576.3,1018.1 1581.8,1013.4 1587.6,1006.1 1593.7,996.3 1600.2,983.8 1607.0,969.0 1614.0,951.7 1621.3,932.1 1628.9,910.4 1636.7,886.6 1644.7,860.9 1652.8,833.5 1661.0,804.4 1669.4,774.0 1677.8,742.3 1686.2,709.6 1694.6,676.2 1702.9,642.2 1711.1,607.9  " style="stroke-opacity: 1.000000; stroke-width: 5.0; stroke: rgb(251,106,74); fill: none"  />
<path d="M 1548.4,584.5 L 1546.8,620.5 1545.9,656.4 1545.6,692.0 1546.2,727.0 1547.6,761.4 1549.9,794.8 1553.1,827.1 1557.3,858.1 1562.4,887.7 1568.6,915.8 1575.9,942.2 1584.2,966.9 1593.6,989.6 1604.1,1010.3 1615.7,1028.9 1628.4,1045.3 1642.1,1059.6 1656.9,1071.6 1672.8,1081.3 1689.7,1088.7 1707.6,1093.7 1726.5,1096.5 1746.3,1096.9 1767.0,1095.0 1788.6,1090.8 1810.9,1084.5 1833.9,1075.9 1857.6,1065.3 1881.9,1052.7 1906.7,1038.2 1932.0,1021.8 1957.6,1003.8 1983.5,984.2 2009.6,963.1 2035.7,940.9 2061.8,917.5 2087.7,893.1 2113.4,868.0 2138.8,842.4  " style="stroke-opacity: 1.000000; stroke-width: 5.0; stroke: rgb(251,106,74); fill: none"  />
<path d="M 1548.4,584.5 L 1546.6,626.1 1545.5,668.2 1545.4,710.6 1546.1,753.2 1547.7,796.1 1550.4,839.2 1554.0,882.3 1558.8,925.5 1564.6,968.7 1571.5,1011.7 1579.6,1054.7 1588.8,1097.5 1599.2,1140.0 1610.8,1182.2 1623.5,1224.2 1637.5,1265.7 1652.7,1306.8 1669.0,1347.5 1686.6,1387.7 1705.3,1427.4 1725.2,1466.5 1746.2,1505.0 1768.3,1542.8 1791.5,1580.0 1815.7,1616.5 1840.9,1652.3 1867.2,1687.4 1894.3,1721.7 1922.3,1755.3 1951.2,1788.0 1980.8,1819.9 2011.1,1851.0 2042.1,1881.3 2073.6,1910.7 2105.7,1939.2 2138.2,1966.9 2171.0,1993.7 2204.1,2019.6 2237.4,2044.7  " style="stroke-opacity: 1.000000; stroke-width: 5.0; stroke: rgb(251,106,74); fill: none"  />
</g>
<g id="track_0">
<path d="M 1711.1,607.9 L 1703.1,643.0 1695.7,678.2 1689.2,713.1 1683.5,747.7 1678.7,781.7 1675.0,815.0 1672.4,847.4 1671.0,878.7 1670.8,908.7 1671.8,937.5 1674.3,964.8 1678.1,990.5 1683.3,1014.5 1689.9,1036.7 1698.0,1057.1 1707.5,1075.6 1718.5,1092.1 1730.9,1106.5 1744.8,1118.9 1760.1,1129.2 1776.8,1137.4 1794.9,1143.4 1814.4,1147.3 1835.1,1149.2 1857.0,1148.9 1880.1,1146.6 1904.3,1142.4 1929.5,1136.2 1955.7,1128.1 1982.7,1118.2 2010.5,1106.6 2038.9,1093.5 2067.8,1078.8 2097.2,1062.8 2126.9,1045.5 2156.8,1027.1 2186.7,1007.8 2216.4,987.7 2245.9,967.0  " style="stroke-opacity: 1.000000; stroke-width: 5.0; stroke: rgb(107,174,214); fill: none"  />
<path d="M 1711.1,607.9 L 1702.7,645.3 1695.2,683.0 1688.8,721.1 1683.4,759.3 1679.3,797.5 1676.4,835.6 1674.9,873.5 1674.8,911.1 1676.2,948.2 1679.2,984.9 1683.7,1021.0 1689.8,1056.4 1697.6,1091.0 1707.1,1124.8 1718.3,1157.7 1731.2,1189.6 1745.8,1220.5 1762.1,1250.4 1780.1,1279.1 1799.8,1306.6 1821.1,1332.9 1844.0,1358.0 1868.6,1381.8 1894.6,1404.4 1922.1,1425.6 1951.0,1445.6 1981.2,1464.2 2012.7,1481.4 2045.4,1497.4 2079.1,1512.1 2113.8,1525.4 2149.4,1537.5 2185.7,1548.4 2222.7,1558.0 2260.2,1566.5 2298.1,1573.8 2336.1,1580.0 2374.3,1585.2 2412.4,1589.4  " style="stroke-opacity: 1.000000; stroke-width: 5.0; stroke: rgb(107,174,214); fill: none"  />
<path d="M 2011.1,738.9 L 1991.5,768.3 1972.2,797.5 1953.3,826.3 1935.1,854.7 1917.5,882.4 1900.9,909.2 1885.2,935.0 1870.5,959.6 1857.1,982.9 1845.0,1004.8 1834.2,1025.1 1824.8,1043.8 1816.9,1060.7 1810.6,1075.8 1805.9,1088.9 1802.8,1100.2 1801.4,1109.4 1801.7,1116.5 1803.7,1121.6 1807.3,1124.6 1812.7,1125.5 1819.8,1124.3 1828.5,1121.0 1838.8,1115.6 1850.7,1108.3 1864.2,1099.0 1879.1,1087.8 1895.4,1074.8 1913.1,1060.0 1931.9,1043.6 1952.0,1025.6 1973.0,1006.2 1995.0,985.5 2017.8,963.6 2041.2,940.7 2065.2,917.0 2089.6,892.6 2114.1,867.7 2138.8,842.4  " style="stroke-opacity: 1.000000; stroke-width: 5.0; stroke: rgb(107,174,214); fill: none"  />
<path d="M 2011.1,738.9 L 1991.4,768.7 1972.2,798.6 1953.8,828.4 1936.1,858.0 1919.5,887.2 1904.1,915.9 1889.8,944.0 1877.0,971.3 1865.7,997.6 1855.9,1022.9 1847.8,1047.1 1841.5,1070.0 1836.9,1091.6 1834.2,1111.8 1833.5,1130.6 1834.7,1147.8 1837.8,1163.4 1843.0,1177.4 1850.2,1189.7 1859.3,1200.3 1870.4,1209.2 1883.5,1216.4 1898.4,1221.9 1915.3,1225.7 1933.9,1227.7 1954.3,1228.1 1976.3,1226.9 2000.0,1224.0 2025.1,1219.6 2051.5,1213.8 2079.3,1206.5 2108.2,1197.9 2138.0,1188.1 2168.7,1177.1 2200.1,1165.0 2232.1,1152.0 2264.3,1138.3 2296.7,1123.8 2329.1,1108.8  " style="stroke-opacity: 1.000000; stroke-width: 5.0; stroke: rgb(107,174,214); fill: none"  />
<path d="M 2011.1,738.9 L 1991.3,769.0 1972.0,799.3 1953.6,829.8 1936.1,860.1 1919.7,890.3 1904.5,920.2 1890.7,949.5 1878.4,978.3 1867.6,1006.4 1858.5,1033.7 1851.2,1060.1 1845.7,1085.5 1842.2,1109.8 1840.6,1133.0 1841.0,1154.9 1843.4,1175.5 1847.9,1194.8 1854.5,1212.7 1863.1,1229.2 1873.8,1244.2 1886.6,1257.8 1901.4,1269.8 1918.2,1280.3 1937.0,1289.3 1957.6,1296.7 1980.0,1302.7 2004.2,1307.2 2030.0,1310.3 2057.3,1311.9 2086.1,1312.1 2116.1,1311.1 2147.4,1308.7 2179.6,1305.2 2212.8,1300.5 2246.7,1294.8 2281.1,1288.1 2315.8,1280.5 2350.7,1272.1 2385.6,1263.1  " style="stroke-opacity: 1.000000; stroke-width: 5.0; stroke: rgb(107,174,214); fill: none"  />
<path d="M 2011.1,738.9 L 1990.5,770.4 1970.6,802.5 1951.6,835.1 1933.6,868.0 1916.8,901.3 1901.3,934.8 1887.1,968.4 1874.5,1002.1 1863.5,1035.7 1854.2,1069.1 1846.6,1102.4 1840.9,1135.4 1837.1,1168.0 1835.3,1200.2 1835.5,1232.0 1837.7,1263.2 1842.0,1293.9 1848.3,1323.8 1856.7,1353.1 1867.1,1381.7 1879.7,1409.5 1894.2,1436.5 1910.7,1462.6 1929.2,1487.9 1949.6,1512.2 1971.8,1535.7 1995.8,1558.1 2021.4,1579.6 2048.7,1600.2 2077.4,1619.7 2107.5,1638.2 2138.9,1655.8 2171.4,1672.3 2204.9,1687.8 2239.2,1702.4 2274.3,1715.9 2309.8,1728.5 2345.7,1740.2 2381.8,1750.9  " style="stroke-opacity: 1.000000; stroke-width: 5.0; stroke: rgb(107,174,214); fill: none"  />
<path d="M 2011.1,738.9 L 1988.2,773.7 1965.7,809.3 1943.8,845.6 1922.6,882.6 1902.0,920.3 1882.2,958.6 1863.2,997.5 1845.1,1037.0 1827.9,1077.0 1811.8,1117.5 1796.7,1158.5 1782.7,1200.0 1769.8,1241.8 1758.1,1284.0 1747.5,1326.6 1738.2,1369.4 1730.1,1412.5 1723.3,1455.8 1717.8,1499.3 1713.5,1543.0 1710.5,1586.7 1708.8,1630.5 1708.3,1674.4 1709.2,1718.2 1711.2,1762.0 1714.5,1805.6 1719.1,1849.2 1724.8,1892.6 1731.6,1935.7 1739.6,1978.6 1748.6,2021.2 1758.7,2063.5 1769.8,2105.3 1781.8,2146.8 1794.7,2187.7 1808.4,2228.1 1822.8,2268.0 1837.9,2307.2 1853.6,2345.8  " style="stroke-opacity: 1.000000; stroke-width: 5.0; stroke: rgb(107,174,214); fill: none"  />
<path d="M 709.3,1964.0 L 739.7,1946.0 769.8,1928.1 799.3,1910.2 828.0,1892.6 855.8,1875.3 882.5,1858.4 907.8,1841.9 931.7,1826.1 953.9,1810.9 974.3,1796.5 992.9,1782.9 1009.4,1770.1 1023.9,1758.3 1036.1,1747.5 1046.1,1737.6 1053.7,1728.9 1059.0,1721.2 1061.8,1714.6 1062.2,1709.2 1060.2,1704.9 1055.8,1701.8 1048.9,1699.8 1039.6,1699.0 1028.0,1699.3 1014.0,1700.7 997.9,1703.3 979.6,1706.9 959.2,1711.6 936.9,1717.2 912.8,1723.8 887.0,1731.3 859.6,1739.7 830.8,1748.8 800.8,1758.6 769.7,1769.0 737.8,1780.0 705.3,1791.5 672.3,1803.3 639.2,1815.3  " style="stroke-opacity: 1.000000; stroke-width: 5.0; stroke: rgb(107,174,214); fill: none"  />
<path d="M 639.2,1815.3 L 672.3,1803.3 705.3,1791.5 737.8,1780.0 769.7,1769.0 800.8,1758.6 830.8,1748.8 859.6,1739.7 887.0,1731.3 912.8,1723.8 936.9,1717.2 959.2,1711.6 979.6,1706.9 997.9,1703.3 1014.0,1700.7 1028.0,1699.3 1039.6,1699.0 1048.9,1699.8 1055.8,1701.8 1060.2,1704.9 1062.2,1709.2 1061.8,1714.6 1059.0,1721.2 1053.7,1728.9 1046.1,1737.6 1036.1,1747.5 1023.9,1758.3 1009.4,1770.1 992.9,1782.9 974.3,1796.5 953.9,1810.9 931.7,1826.1 907.8,1841.9 882.5,1858.4 855.8,1875.3 828.0,1892.6 799.3,1910.2 769.8,1928.1 739.7,1946.0 709.3,1964.0  " style="stroke-opacity: 1.000000; stroke-width: 5.0; stroke: rgb(107,174,214); fill: none"  />
<path d="M 639.2,1815.3 L 672.3,1803.1 705.0,1790.8 737.3,1778.5 768.7,1766.3 799.2,1754.2 828.4,1742.3 856.3,1730.7 882.6,1719.4 907.2,1708.4 929.8,1697.9 950.5,1687.8 969.1,1678.2 985.4,1669.1 999.4,1660.7 1010.9,1652.8 1020.0,1645.5 1026.6,1638.9 1030.5,1632.9 1031.9,1627.7 1030.7,1623.1 1026.9,1619.2 1020.4,1616.0 1011.5,1613.6 1000.0,1611.8 986.0,1610.7 969.7,1610.4 951.0,1610.7 930.1,1611.6 907.2,1613.2 882.3,1615.4 855.5,1618.1 827.1,1621.5 797.1,1625.3 765.8,1629.6 733.4,1634.3 700.1,1639.4 666.0,1644.9 631.5,1650.6 596.7,1656.5  " style="stroke-opacity: 1.000000; stroke-width: 5.0; stroke: rgb(107,174,214); fill: none"  />
<path d="M 639.2,1815.3 L 675.0,1801.7 710.6,1787.1 745.9,1771.6 780.7,1755.0 814.9,1737.4 848.3,1718.8 880.8,1699.2 912.2,1678.5 942.4,1656.9 971.4,1634.2 999.0,1610.6 1025.2,1586.0 1049.8,1560.4 1072.8,1533.8 1094.0,1506.4 1113.6,1478.0 1131.3,1448.8 1147.3,1418.8 1161.3,1387.9 1173.4,1356.4 1183.7,1324.1 1192.0,1291.1 1198.4,1257.5 1202.8,1223.4 1205.4,1188.7 1206.1,1153.6 1205.0,1118.1 1202.1,1082.3 1197.4,1046.3 1191.1,1010.0 1183.1,973.7 1173.6,937.3 1162.6,901.0 1150.3,864.9 1136.7,828.9 1121.9,793.3 1106.2,758.1 1089.5,723.4 1072.0,689.3  " style="stroke-opacity: 1.000000; stroke-width: 5.0; stroke: rgb(107,174,214); fill: none"  />
<path d="M 2245.9,967.0 L 2216.8,988.2 2188.1,1009.9 2160.2,1031.9 2133.1,1054.2 2107.2,1076.7 2082.5,1099.3 2059.2,1121.9 2037.6,1144.6 2017.6,1167.1 1999.5,1189.4 1983.4,1211.6 1969.3,1233.4 1957.5,1254.9 1947.8,1276.0 1940.5,1296.7 1935.5,1316.9 1932.9,1336.5 1932.8,1355.6 1935.1,1374.1 1939.9,1391.9 1947.1,1409.0 1956.7,1425.5 1968.8,1441.2 1983.1,1456.2 1999.8,1470.5 2018.7,1484.0 2039.7,1496.7 2062.8,1508.6 2087.9,1519.7 2114.7,1530.1 2143.2,1539.6 2173.3,1548.4 2204.8,1556.4 2237.4,1563.7 2271.2,1570.2 2305.7,1576.0 2340.9,1581.1 2376.6,1585.6 2412.4,1589.4  " style="stroke-opacity: 1.000000; stroke-width: 5.0; stroke: rgb(107,174,214); fill: none"  />
<path d="M 2245.9,967.0 L 2215.0,989.7 2184.5,1013.2 2154.6,1037.6 2125.5,1062.9 2097.2,1088.9 2070.0,1115.7 2043.9,1143.3 2019.1,1171.5 1995.7,1200.4 1973.8,1230.0 1953.5,1260.1 1934.8,1290.8 1917.9,1322.0 1902.8,1353.7 1889.6,1385.9 1878.3,1418.4 1869.0,1451.3 1861.6,1484.5 1856.3,1517.9 1853.0,1551.6 1851.7,1585.5 1852.5,1619.4 1855.3,1653.5 1860.1,1687.6 1866.8,1721.7 1875.4,1755.7 1886.0,1789.6 1898.3,1823.4 1912.4,1856.9 1928.2,1890.1 1945.5,1923.0 1964.3,1955.5 1984.6,1987.6 2006.1,2019.2 2028.7,2050.2 2052.4,2080.7 2077.0,2110.4 2102.3,2139.4 2128.3,2167.6  " style="stroke-opacity: 1.000000; stroke-width: 5.0; stroke: rgb(107,174,214); fill: none"  />
<path d="M 2329.1,1108.8 L 2296.0,1124.0 2262.5,1138.5 2229.0,1152.2 2195.5,1164.8 2162.3,1176.3 2129.3,1186.6 2096.8,1195.5 2064.9,1202.9 2033.8,1208.8 2003.4,1213.1 1974.0,1215.7 1945.6,1216.5 1918.3,1215.5 1892.2,1212.7 1867.4,1208.0 1844.0,1201.4 1821.9,1192.8 1801.2,1182.4 1782.1,1170.0 1764.4,1155.7 1748.4,1139.5 1733.9,1121.5 1720.9,1101.7 1709.6,1080.1 1699.9,1056.8 1691.7,1031.8 1685.1,1005.4 1680.0,977.4 1676.5,948.1 1674.4,917.5 1673.7,885.8 1674.4,853.1 1676.3,819.4 1679.6,785.1 1683.9,750.1 1689.3,714.8 1695.8,679.1 1703.0,643.4 1711.1,607.9  " style="stroke-opacity: 1.000000; stroke-width: 5.0; stroke: rgb(107,174,214); fill: none"  />
<path d="M 2329.1,1108.8 L 2296.7,1123.8 2264.3,1138.3 2232.1,1152.0 2200.1,1165.0 2168.7,1177.1 2138.0,1188.1 2108.2,1197.9 2079.3,1206.5 2051.5,1213.8 2025.1,1219.6 2000.0,1224.0 1976.3,1226.9 1954.3,1228.1 1933.9,1227.7 1915.3,1225.7 1898.4,1221.9 1883.5,1216.4 1870.4,1209.2 1859.3,1200.3 1850.2,1189.7 1843.0,1177.4 1837.8,1163.4 1834.7,1147.8 1833.5,1130.6 1834.2,1111.8 1836.9,1091.6 1841.5,1070.0 1847.8,1047.1 1855.9,1022.9 1865.7,997.6 1877.0,971.3 1889.8,944.0 1904.1,915.9 1919.5,887.2 1936.1,858.0 1953.8,828.4 1972.2,798.6 1991.4,768.7 2011.1,738.9  " style="stroke-opacity: 1.000000; stroke-width: 5.0; stroke: rgb(107,174,214); fill: none"  />
<path d="M 2329.1,1108.8 L 2297.0,1123.8 2264.9,1138.3 2233.2,1152.3 2201.9,1165.6 2171.3,1178.2 2141.5,1189.8 2112.7,1200.5 2085.1,1210.1 2058.9,1218.5 2034.0,1225.6 2010.8,1231.5 1989.2,1236.0 1969.4,1239.0 1951.5,1240.6 1935.5,1240.7 1921.5,1239.2 1909.6,1236.2 1899.8,1231.7 1892.2,1225.6 1886.7,1217.9 1883.4,1208.7 1882.3,1198.0 1883.3,1185.7 1886.4,1172.1 1891.7,1157.0 1899.0,1140.5 1908.3,1122.8 1919.5,1103.8 1932.6,1083.7 1947.4,1062.5 1963.9,1040.4 1981.9,1017.4 2001.3,993.6 2022.0,969.2 2043.8,944.3 2066.5,919.0 2090.1,893.5 2114.2,867.9 2138.8,842.4  " style="stroke-opacity: 1.000000; stroke-width: 5.0; stroke: rgb(107,174,214); fill: none"  />
<path d="M 2329.1,1108.8 L 2296.6,1124.4 2264.6,1140.6 2233.2,1157.3 2202.6,1174.4 2173.0,1191.9 2144.7,1209.7 2117.7,1227.9 2092.4,1246.3 2068.7,1264.9 2046.9,1283.6 2027.1,1302.5 2009.4,1321.5 1993.9,1340.6 1980.6,1359.6 1969.7,1378.6 1961.2,1397.6 1955.2,1416.5 1951.6,1435.2 1950.6,1453.8 1952.1,1472.2 1956.1,1490.3 1962.7,1508.3 1971.7,1525.9 1983.2,1543.2 1997.1,1560.2 2013.2,1576.8 2031.7,1593.1 2052.3,1608.9 2074.9,1624.4 2099.4,1639.3 2125.8,1653.8 2153.8,1667.8 2183.4,1681.3 2214.2,1694.3 2246.2,1706.8 2279.2,1718.7 2312.9,1730.0 2347.2,1740.7 2381.8,1750.9  " style="stroke-opacity: 1.000000; stroke-width: 5.0; stroke: rgb(107,174,214); fill: none"  />
<path d="M 596.7,1656.5 L 633.7,1649.7 670.6,1641.9 707.3,1633.1 743.6,1623.3 779.2,1612.5 814.2,1600.6 848.3,1587.5 881.3,1573.4 913.2,1558.2 943.8,1541.8 973.1,1524.2 1000.8,1505.5 1027.1,1485.7 1051.6,1464.8 1074.4,1442.7 1095.5,1419.5 1114.7,1395.3 1132.0,1370.0 1147.4,1343.7 1160.8,1316.4 1172.2,1288.1 1181.7,1259.0 1189.1,1228.9 1194.6,1198.1 1198.1,1166.6 1199.7,1134.3 1199.4,1101.5 1197.2,1068.1 1193.2,1034.2 1187.5,999.9 1180.1,965.4 1171.1,930.6 1160.6,895.7 1148.6,860.7 1135.4,825.9 1121.0,791.2 1105.5,756.8 1089.2,722.8 1072.0,689.3  " style="stroke-opacity: 1.000000; stroke-width: 5.0; stroke: rgb(107,174,214); fill: none"  />
<path d="M 2385.6,1263.1 L 2350.7,1272.1 2315.8,1280.5 2281.1,1288.1 2246.7,1294.8 2212.8,1300.5 2179.6,1305.2 2147.4,1308.7 2116.1,1311.1 2086.1,1312.1 2057.3,1311.9 2030.0,1310.3 2004.2,1307.2 1980.0,1302.7 1957.6,1296.7 1937.0,1289.3 1918.2,1280.3 1901.4,1269.8 1886.6,1257.8 1873.8,1244.2 1863.1,1229.2 1854.5,1212.7 1847.9,1194.8 1843.4,1175.5 1841.0,1154.9 1840.6,1133.0 1842.2,1109.8 1845.7,1085.5 1851.2,1060.1 1858.5,1033.7 1867.6,1006.4 1878.4,978.3 1890.7,949.5 1904.5,920.2 1919.7,890.3 1936.1,860.1 1953.6,829.8 1972.0,799.3 1991.3,769.0 2011.1,738.9  " style="stroke-opacity: 1.000000; stroke-width: 5.0; stroke: rgb(107,174,214); fill: none"  />
<path d="M 2385.6,1263.1 L 2350.5,1272.9 2315.6,1283.4 2281.2,1294.6 2247.5,1306.6 2214.6,1319.3 2182.9,1332.8 2152.3,1347.0 2123.2,1361.9 2095.6,1377.5 2069.6,1393.9 2045.5,1410.9 2023.3,1428.6 2003.1,1447.0 1985.0,1466.0 1969.1,1485.6 1955.5,1505.8 1944.1,1526.6 1935.1,1547.9 1928.5,1569.7 1924.3,1592.0 1922.4,1614.8 1923.0,1637.9 1926.0,1661.4 1931.3,1685.2 1938.9,1709.3 1948.7,1733.6 1960.8,1758.1 1975.0,1782.7 1991.2,1807.3 2009.4,1832.0 2029.3,1856.7 2051.0,1881.2 2074.2,1905.6 2098.9,1929.8 2124.8,1953.6 2151.8,1977.1 2179.7,2000.2 2208.3,2022.7 2237.4,2044.7  " style="stroke-opacity: 1.000000; stroke-width: 5.0; stroke: rgb(107,174,214); fill: none"  />
<path d="M 2385.6,1263.1 L 2350.0,1273.1 2314.6,1283.9 2279.5,1295.5 2245.1,1308.1 2211.5,1321.5 2178.8,1335.8 2147.2,1351.0 2116.9,1367.1 2088.0,1384.0 2060.7,1401.9 2035.0,1420.6 2011.0,1440.2 1988.9,1460.6 1968.8,1481.9 1950.6,1503.9 1934.6,1526.8 1920.6,1550.4 1908.9,1574.7 1899.4,1599.7 1892.1,1625.4 1887.0,1651.7 1884.2,1678.6 1883.6,1706.0 1885.2,1733.9 1889.0,1762.2 1895.0,1790.9 1903.0,1819.9 1913.0,1849.1 1925.0,1878.6 1938.9,1908.2 1954.5,1937.8 1971.8,1967.4 1990.7,1997.0 2010.9,2026.3 2032.5,2055.4 2055.1,2084.2 2078.8,2112.6 2103.2,2140.4 2128.3,2167.6  " style="stroke-opacity: 1.000000; stroke-width: 5.0; stroke: rgb(107,174,214); fill: none"  />
<path d="M 2385.6,1263.1 L 2348.7,1273.5 2311.9,1284.8 2275.4,1297.1 2239.2,1310.5 2203.6,1325.0 2168.7,1340.5 2134.6,1357.1 2101.5,1374.9 2069.4,1393.7 2038.5,1413.7 2008.9,1434.8 1980.6,1456.9 1953.8,1480.2 1928.6,1504.6 1904.9,1530.0 1882.9,1556.5 1862.6,1584.0 1844.0,1612.5 1827.3,1642.0 1812.4,1672.3 1799.3,1703.6 1788.1,1735.7 1778.7,1768.6 1771.2,1802.2 1765.5,1836.4 1761.7,1871.3 1759.6,1906.8 1759.3,1942.7 1760.7,1979.0 1763.8,2015.7 1768.5,2052.6 1774.7,2089.7 1782.3,2126.8 1791.4,2163.9 1801.7,2200.9 1813.2,2237.7 1825.7,2274.2 1839.3,2310.3 1853.6,2345.8  " style="stroke-opacity: 1.000000; stroke-width: 5.0; stroke: rgb(107,174,214); fill: none"  />
<path d="M 2413.7,1425.1 L 2378.5,1428.0 2343.7,1431.1 2309.3,1434.4 2275.8,1437.8 2243.2,1441.4 2211.8,1445.1 2181.9,1448.9 2153.5,1452.8 2126.9,1456.8 2102.3,1460.9 2079.6,1465.2 2059.2,1469.5 2041.1,1473.9 2025.3,1478.3 2012.1,1482.9 2001.4,1487.4 1993.3,1492.1 1987.9,1496.8 1985.2,1501.5 1985.1,1506.2 1987.8,1511.0 1993.1,1515.7 2001.1,1520.5 2011.8,1525.3 2024.9,1530.0 2040.6,1534.7 2058.6,1539.4 2079.0,1544.0 2101.6,1548.6 2126.2,1553.1 2152.7,1557.6 2181.0,1561.9 2210.9,1566.2 2242.2,1570.4 2274.7,1574.5 2308.2,1578.4 2342.5,1582.2 2377.3,1585.9 2412.4,1589.4  " style="stroke-opacity: 1.000000; stroke-width: 5.0; stroke: rgb(107,174,214); fill: none"  />
<path d="M 2413.7,1425.1 L 2378.1,1428.2 2342.8,1431.9 2308.0,1436.0 2273.9,1440.7 2240.7,1445.9 2208.6,1451.8 2177.8,1458.1 2148.5,1465.1 2120.8,1472.6 2094.9,1480.8 2071.0,1489.5 2049.1,1498.9 2029.3,1508.8 2011.9,1519.3 1996.8,1530.4 1984.1,1542.1 1973.8,1554.3 1966.1,1567.0 1960.9,1580.3 1958.3,1594.1 1958.3,1608.3 1960.8,1623.0 1965.8,1638.1 1973.4,1653.6 1983.4,1669.5 1995.8,1685.6 2010.5,1702.1 2027.5,1718.8 2046.6,1735.7 2067.7,1752.8 2090.6,1769.9 2115.4,1787.1 2141.7,1804.3 2169.4,1821.5 2198.4,1838.5 2228.5,1855.4 2259.4,1872.0 2290.9,1888.3 2322.8,1904.3  " style="stroke-opacity: 1.000000; stroke-width: 5.0; stroke: rgb(107,174,214); fill: none"  />
<path d="M 2413.7,1425.1 L 2377.8,1428.3 2342.1,1432.2 2306.8,1436.8 2272.2,1442.0 2238.4,1448.0 2205.6,1454.8 2174.0,1462.3 2143.8,1470.6 2115.1,1479.7 2088.1,1489.6 2062.9,1500.3 2039.6,1511.9 2018.4,1524.2 1999.3,1537.4 1982.4,1551.4 1967.8,1566.2 1955.5,1581.7 1945.6,1598.0 1938.1,1615.1 1933.1,1632.8 1930.4,1651.2 1930.3,1670.3 1932.5,1690.0 1937.2,1710.2 1944.2,1731.0 1953.5,1752.3 1965.1,1774.0 1978.8,1796.0 1994.5,1818.4 2012.3,1841.1 2031.9,1863.9 2053.2,1886.9 2076.1,1909.9 2100.4,1932.9 2126.0,1955.8 2152.7,1978.5 2180.3,2001.0 2208.6,2023.1 2237.4,2044.7  " style="stroke-opacity: 1.000000; stroke-width: 5.0; stroke: rgb(107,174,214); fill: none"  />
<path d="M 2412.4,1589.4 L 2376.6,1585.6 2340.9,1581.1 2305.7,1576.0 2271.2,1570.2 2237.4,1563.7 2204.8,1556.4 2173.3,1548.4 2143.2,1539.6 2114.7,1530.1 2087.9,1519.7 2062.8,1508.6 2039.7,1496.7 2018.7,1484.0 1999.8,1470.5 1983.1,1456.2 1968.8,1441.2 1956.7,1425.5 1947.1,1409.0 1939.9,1391.9 1935.1,1374.1 1932.8,1355.6 1932.9,1336.5 1935.5,1316.9 1940.5,1296.7 1947.8,1276.0 1957.5,1254.9 1969.3,1233.4 1983.4,1211.6 1999.5,1189.4 2017.6,1167.1 2037.6,1144.6 2059.2,1121.9 2082.5,1099.3 2107.2,1076.7 2133.1,1054.2 2160.2,1031.9 2188.1,1009.9 2216.8,988.2 2245.9,967.0  " style="stroke-opacity: 1.000000; stroke-width: 5.0; stroke: rgb(107,174,214); fill: none"  />
<path d="M 2412.4,1589.4 L 2376.5,1586.2 2340.7,1583.7 2305.2,1581.8 2270.1,1580.8 2235.8,1580.7 2202.3,1581.5 2169.9,1583.2 2138.7,1586.0 2108.8,1589.8 2080.5,1594.8 2053.8,1600.8 2028.8,1608.0 2005.7,1616.4 1984.6,1626.0 1965.5,1636.7 1948.4,1648.6 1933.6,1661.7 1920.9,1676.0 1910.5,1691.4 1902.4,1708.0 1896.5,1725.7 1893.0,1744.4 1891.7,1764.2 1892.6,1784.9 1895.8,1806.6 1901.2,1829.2 1908.7,1852.6 1918.2,1876.8 1929.7,1901.6 1943.1,1927.1 1958.3,1953.0 1975.2,1979.4 1993.6,2006.2 2013.4,2033.1 2034.5,2060.2 2056.8,2087.4 2079.9,2114.4 2103.8,2141.2 2128.3,2167.6  " style="stroke-opacity: 1.000000; stroke-width: 5.0; stroke: rgb(107,174,214); fill: none"  />
<path d="M 2381.8,1750.9 L 2345.7,1740.2 2309.8,1728.5 2274.3,1715.9 2239.2,1702.4 2204.9,1687.8 2171.4,1672.3 2138.9,1655.8 2107.5,1638.2 2077.4,1619.7 2048.7,1600.2 2021.4,1579.6 1995.8,1558.1 1971.8,1535.7 1949.6,1512.2 1929.2,1487.9 1910.7,1462.6 1894.2,1436.5 1879.7,1409.5 1867.1,1381.7 1856.7,1353.1 1848.3,1323.8 1842.0,1293.9 1837.7,1263.2 1835.5,1232.0 1835.3,1200.2 1837.1,1168.0 1840.9,1135.4 1846.6,1102.4 1854.2,1069.1 1863.5,1035.7 1874.5,1002.1 1887.1,968.4 1901.3,934.8 1916.8,901.3 1933.6,868.0 1951.6,835.1 1970.6,802.5 1990.5,770.4 2011.1,738.9  " style="stroke-opacity: 1.000000; stroke-width: 5.0; stroke: rgb(107,174,214); fill: none"  />
<path d="M 2381.8,1750.9 L 2346.3,1740.4 2311.0,1729.0 2276.2,1716.8 2242.0,1703.7 2208.6,1689.8 2176.1,1675.0 2144.8,1659.3 2114.8,1642.7 2086.1,1625.3 2059.1,1607.0 2033.6,1587.9 2010.0,1567.9 1988.2,1547.1 1968.4,1525.5 1950.6,1503.2 1934.9,1480.1 1921.4,1456.3 1910.0,1431.8 1900.9,1406.6 1894.0,1380.8 1889.3,1354.4 1887.0,1327.5 1886.8,1300.1 1888.9,1272.3 1893.1,1244.0 1899.5,1215.4 1908.0,1186.5 1918.5,1157.4 1931.0,1128.2 1945.3,1098.8 1961.4,1069.4 1979.2,1040.1 1998.5,1010.9 2019.2,981.8 2041.2,953.1 2064.3,924.7 2088.4,896.7 2113.3,869.2 2138.8,842.4  " style="stroke-opacity: 1.000000; stroke-width: 5.0; stroke: rgb(107,174,214); fill: none"  />
<path d="M 2381.8,1750.9 L 2347.2,1740.7 2312.9,1730.0 2279.2,1718.7 2246.2,1706.8 2214.2,1694.3 2183.4,1681.3 2153.8,1667.8 2125.8,1653.8 2099.4,1639.3 2074.9,1624.4 2052.3,1608.9 2031.7,1593.1 2013.2,1576.8 1997.1,1560.2 1983.2,1543.2 1971.7,1525.9 1962.7,1508.3 1956.1,1490.3 1952.1,1472.2 1950.6,1453.8 1951.6,1435.2 1955.2,1416.5 1961.2,1397.6 1969.7,1378.6 1980.6,1359.6 1993.9,1340.6 2009.4,1321.5 2027.1,1302.5 2046.9,1283.6 2068.7,1264.9 2092.4,1246.3 2117.7,1227.9 2144.7,1209.7 2173.0,1191.9 2202.6,1174.4 2233.2,1157.3 2264.6,1140.6 2296.6,1124.4 2329.1,1108.8  " style="stroke-opacity: 1.000000; stroke-width: 5.0; stroke: rgb(107,174,214); fill: none"  />
<path d="M 2322.8,1904.3 L 2289.8,1887.6 2257.1,1870.1 2225.0,1851.9 2193.7,1832.9 2163.3,1813.2 2134.0,1792.9 2106.0,1771.8 2079.4,1750.2 2054.3,1727.9 2031.0,1705.1 2009.4,1681.7 1989.7,1657.9 1972.0,1633.5 1956.3,1608.8 1942.8,1583.6 1931.5,1558.1 1922.4,1532.2 1915.6,1506.1 1911.1,1479.7 1908.9,1453.1 1909.1,1426.3 1911.5,1399.4 1916.3,1372.4 1923.3,1345.3 1932.5,1318.3 1943.9,1291.3 1957.4,1264.4 1973.0,1237.7 1990.5,1211.1 2009.8,1184.8 2030.9,1158.8 2053.6,1133.1 2077.8,1107.7 2103.4,1082.9 2130.2,1058.5 2158.0,1034.7 2186.7,1011.4 2216.0,988.9 2245.9,967.0  " style="stroke-opacity: 1.000000; stroke-width: 5.0; stroke: rgb(107,174,214); fill: none"  />
<path d="M 2322.8,1904.3 L 2290.9,1888.3 2259.4,1872.0 2228.5,1855.4 2198.4,1838.5 2169.4,1821.5 2141.7,1804.3 2115.4,1787.1 2090.6,1769.9 2067.7,1752.8 2046.6,1735.7 2027.5,1718.8 2010.5,1702.1 1995.8,1685.6 1983.4,1669.5 1973.4,1653.6 1965.8,1638.1 1960.8,1623.0 1958.3,1608.3 1958.3,1594.1 1960.9,1580.3 1966.1,1567.0 1973.8,1554.3 1984.1,1542.1 1996.8,1530.4 2011.9,1519.3 2029.3,1508.8 2049.1,1498.9 2071.0,1489.5 2094.9,1480.8 2120.8,1472.6 2148.5,1465.1 2177.8,1458.1 2208.6,1451.8 2240.7,1445.9 2273.9,1440.7 2308.0,1436.0 2342.8,1431.9 2378.1,1428.2 2413.7,1425.1  " style="stroke-opacity: 1.000000; stroke-width: 5.0; stroke: rgb(107,174,214); fill: none"  />
<path d="M 2322.8,1904.3 L 2291.1,1888.8 2259.6,1873.6 2228.4,1858.8 2197.8,1844.5 2168.1,1830.9 2139.3,1817.9 2111.6,1805.8 2085.2,1794.7 2060.3,1784.5 2037.0,1775.4 2015.5,1767.4 1995.7,1760.6 1977.9,1755.1 1962.1,1750.8 1948.4,1747.9 1936.9,1746.4 1927.6,1746.2 1920.5,1747.5 1915.7,1750.1 1913.3,1754.2 1913.1,1759.6 1915.3,1766.4 1919.7,1774.6 1926.4,1784.2 1935.2,1795.0 1946.3,1807.1 1959.4,1820.3 1974.5,1834.8 1991.5,1850.3 2010.3,1866.8 2030.8,1884.2 2052.8,1902.4 2076.3,1921.5 2101.0,1941.1 2126.8,1961.3 2153.6,1981.8 2181.1,2002.7 2209.1,2023.7 2237.4,2044.7  " style="stroke-opacity: 1.000000; stroke-width: 5.0; stroke: rgb(107,174,214); fill: none"  />
<path d="M 2322.8,1904.3 L 2290.9,1888.8 2259.1,1873.8 2227.6,1859.3 2196.5,1845.4 2166.1,1832.4 2136.5,1820.3 2107.9,1809.2 2080.5,1799.2 2054.3,1790.3 2029.6,1782.8 2006.4,1776.6 1984.9,1771.8 1965.2,1768.4 1947.3,1766.5 1931.3,1766.2 1917.3,1767.4 1905.4,1770.2 1895.5,1774.6 1887.8,1780.6 1882.2,1788.2 1878.7,1797.3 1877.4,1808.1 1878.2,1820.3 1881.2,1834.0 1886.2,1849.2 1893.3,1865.8 1902.3,1883.6 1913.2,1902.8 1925.9,1923.1 1940.4,1944.5 1956.5,1966.9 1974.2,1990.2 1993.2,2014.3 2013.5,2039.0 2034.9,2064.2 2057.2,2089.9 2080.4,2115.7 2104.1,2141.7 2128.3,2167.6  " style="stroke-opacity: 1.000000; stroke-width: 5.0; stroke: rgb(107,174,214); fill: none"  />
<path d="M 2322.8,1904.3 L 2290.3,1888.7 2257.7,1873.7 2225.1,1859.5 2192.6,1846.3 2160.5,1834.1 2128.9,1823.0 2097.9,1813.3 2067.7,1804.9 2038.4,1798.0 2010.2,1792.7 1983.0,1789.0 1957.1,1787.0 1932.6,1786.7 1909.4,1788.2 1887.7,1791.5 1867.6,1796.7 1849.1,1803.8 1832.2,1812.7 1817.1,1823.5 1803.6,1836.1 1792.0,1850.6 1782.0,1866.9 1773.9,1884.9 1767.5,1904.7 1762.8,1926.2 1759.9,1949.2 1758.7,1973.7 1759.2,1999.7 1761.2,2027.0 1764.8,2055.5 1769.9,2085.2 1776.4,2115.8 1784.3,2147.3 1793.4,2179.6 1803.6,2212.3 1814.9,2245.5 1827.0,2279.0 1840.0,2312.5 1853.6,2345.8  " style="stroke-opacity: 1.000000; stroke-width: 5.0; stroke: rgb(107,174,214); fill: none"  />
<path d="M 2237.4,2044.7 L 2204.9,2020.2 2172.6,1994.7 2140.7,1968.3 2109.2,1940.9 2078.3,1912.7 2048.0,1883.6 2018.5,1853.6 1989.8,1822.7 1962.0,1791.0 1935.1,1758.4 1909.3,1725.1 1884.5,1690.9 1861.0,1656.0 1838.6,1620.4 1817.4,1584.0 1797.6,1547.0 1779.0,1509.3 1761.8,1471.1 1746.0,1432.2 1731.6,1392.8 1718.6,1353.0 1707.0,1312.6 1696.8,1271.9 1688.0,1230.8 1680.7,1189.4 1674.8,1147.7 1670.2,1105.9 1667.1,1063.8 1665.2,1021.7 1664.7,979.5 1665.5,937.3 1667.4,895.2 1670.6,853.2 1674.9,811.4 1680.2,769.9 1686.6,728.7 1693.9,687.9 1702.1,647.6 1711.1,607.9  " style="stroke-opacity: 1.000000; stroke-width: 5.0; stroke: rgb(107,174,214); fill: none"  />
<path d="M 2237.4,2044.7 L 2208.3,2022.7 2179.7,2000.2 2151.8,1977.1 2124.8,1953.6 2098.9,1929.8 2074.2,1905.6 2051.0,1881.2 2029.3,1856.7 2009.4,1832.0 1991.2,1807.3 1975.0,1782.7 1960.8,1758.1 1948.7,1733.6 1938.9,1709.3 1931.3,1685.2 1926.0,1661.4 1923.0,1637.9 1922.4,1614.8 1924.3,1592.0 1928.5,1569.7 1935.1,1547.9 1944.1,1526.6 1955.5,1505.8 1969.1,1485.6 1985.0,1466.0 2003.1,1447.0 2023.3,1428.6 2045.5,1410.9 2069.6,1393.9 2095.6,1377.5 2123.2,1361.9 2152.3,1347.0 2182.9,1332.8 2214.6,1319.3 2247.5,1306.6 2281.2,1294.6 2315.6,1283.4 2350.5,1272.9 2385.6,1263.1  " style="stroke-opacity: 1.000000; stroke-width: 5.0; stroke: rgb(107,174,214); fill: none"  />
<path d="M 2237.4,2044.7 L 2208.6,2023.1 2180.3,2001.0 2152.7,1978.5 2126.0,1955.8 2100.4,1932.9 2076.1,1909.9 2053.2,1886.9 2031.9,1863.9 2012.3,1841.1 1994.5,1818.4 1978.8,1796.0 1965.1,1774.0 1953.5,1752.3 1944.2,1731.0 1937.2,1710.2 1932.5,1690.0 1930.3,1670.3 1930.4,1651.2 1933.1,1632.8 1938.1,1615.1 1945.6,1598.0 1955.5,1581.7 1967.8,1566.2 1982.4,1551.4 1999.3,1537.4 2018.4,1524.2 2039.6,1511.9 2062.9,1500.3 2088.1,1489.6 2115.1,1479.7 2143.8,1470.6 2174.0,1462.3 2205.6,1454.8 2238.4,1448.0 2272.2,1442.0 2306.8,1436.8 2342.1,1432.2 2377.8,1428.3 2413.7,1425.1  " style="stroke-opacity: 1.000000; stroke-width: 5.0; stroke: rgb(107,174,214); fill: none"  />
<path d="M 2237.4,2044.7 L 2209.1,2023.7 2181.1,2002.7 2153.6,1981.8 2126.8,1961.3 2101.0,1941.1 2076.3,1921.5 2052.8,1902.4 2030.8,1884.2 2010.3,1866.8 1991.5,1850.3 1974.5,1834.8 1959.4,1820.3 1946.3,1807.1 1935.2,1795.0 1926.4,1784.2 1919.7,1774.6 1915.3,1766.4 1913.1,1759.6 1913.3,1754.2 1915.7,1750.1 1920.5,1747.5 1927.6,1746.2 1936.9,1746.4 1948.4,1747.9 1962.1,1750.8 1977.9,1755.1 1995.7,1760.6 2015.5,1767.4 2037.0,1775.4 2060.3,1784.5 2085.2,1794.7 2111.6,1805.8 2139.3,1817.9 2168.1,1830.9 2197.8,1844.5 2228.4,1858.8 2259.6,1873.6 2291.1,1888.8 2322.8,1904.3  " style="stroke-opacity: 1.000000; stroke-width: 5.0; stroke: rgb(107,174,214); fill: none"  />
<path d="M 2237.4,2044.7 L 2209.0,2023.8 2180.7,2003.2 2152.6,1983.1 2125.1,1963.6 2098.3,1944.8 2072.2,1927.0 2047.2,1910.1 2023.2,1894.4 2000.5,1880.0 1979.2,1866.8 1959.4,1855.1 1941.2,1844.9 1924.7,1836.3 1909.9,1829.3 1896.9,1824.0 1885.9,1820.4 1876.7,1818.6 1869.6,1818.6 1864.4,1820.3 1861.3,1823.9 1860.1,1829.2 1861.0,1836.3 1863.9,1845.2 1868.8,1855.7 1875.6,1868.0 1884.3,1881.8 1894.8,1897.2 1907.1,1914.1 1921.0,1932.4 1936.6,1952.0 1953.7,1972.8 1972.1,1994.7 1991.8,2017.6 2012.6,2041.3 2034.4,2065.8 2057.1,2090.8 2080.4,2116.2 2104.2,2141.9 2128.3,2167.6  " style="stroke-opacity: 1.000000; stroke-width: 5.0; stroke: rgb(107,174,214); fill: none"  />
<path d="M 644.3,1171.1 L 677.2,1183.7 710.0,1196.0 742.4,1207.9 774.1,1219.4 805.0,1230.4 834.8,1240.6 863.5,1250.2 890.7,1259.0 916.4,1266.9 940.4,1273.9 962.7,1279.9 982.9,1284.9 1001.2,1288.8 1017.3,1291.6 1031.2,1293.3 1042.8,1293.8 1052.1,1293.1 1059.0,1291.2 1063.5,1288.2 1065.6,1283.9 1065.3,1278.5 1062.5,1271.9 1057.4,1264.1 1049.9,1255.2 1040.1,1245.2 1028.0,1234.2 1013.8,1222.1 997.4,1209.1 979.1,1195.2 958.9,1180.5 936.9,1164.9 913.3,1148.7 888.2,1131.9 861.9,1114.6 834.3,1096.8 805.9,1078.7 776.6,1060.4 746.9,1042.0 716.8,1023.6  " style="stroke-opacity: 1.000000; stroke-width: 5.0; stroke: rgb(107,174,214); fill: none"  />
<path d="M 716.8,1023.6 L 746.9,1042.0 776.6,1060.4 805.9,1078.7 834.3,1096.8 861.9,1114.6 888.2,1131.9 913.3,1148.7 936.9,1164.9 958.9,1180.5 979.1,1195.2 997.4,1209.1 1013.8,1222.1 1028.0,1234.2 1040.1,1245.2 1049.9,1255.2 1057.4,1264.1 1062.5,1271.9 1065.3,1278.5 1065.6,1283.9 1063.5,1288.2 1059.0,1291.2 1052.1,1293.1 1042.8,1293.8 1031.2,1293.3 1017.3,1291.6 1001.2,1288.8 982.9,1284.9 962.7,1279.9 940.4,1273.9 916.4,1266.9 890.7,1259.0 863.5,1250.2 834.8,1240.6 805.0,1230.4 774.1,1219.4 742.4,1207.9 710.0,1196.0 677.2,1183.7 644.3,1171.1  " style="stroke-opacity: 1.000000; stroke-width: 5.0; stroke: rgb(107,174,214); fill: none"  />
<path d="M 2128.3,2167.6 L 2102.3,2139.4 2077.0,2110.4 2052.4,2080.7 2028.7,2050.2 2006.1,2019.2 1984.6,1987.6 1964.3,1955.5 1945.5,1923.0 1928.2,1890.1 1912.4,1856.9 1898.3,1823.4 1886.0,1789.6 1875.4,1755.7 1866.8,1721.7 1860.1,1687.6 1855.3,1653.5 1852.5,1619.4 1851.7,1585.5 1853.0,1551.6 1856.3,1517.9 1861.6,1484.5 1869.0,1451.3 1878.3,1418.4 1889.6,1385.9 1902.8,1353.7 1917.9,1322.0 1934.8,1290.8 1953.5,1260.1 1973.8,1230.0 1995.7,1200.4 2019.1,1171.5 2043.9,1143.3 2070.0,1115.7 2097.2,1088.9 2125.5,1062.9 2154.6,1037.6 2184.5,1013.2 2215.0,989.7 2245.9,967.0  " style="stroke-opacity: 1.000000; stroke-width: 5.0; stroke: rgb(107,174,214); fill: none"  />
<path d="M 2128.3,2167.6 L 2103.2,2140.4 2078.8,2112.6 2055.1,2084.2 2032.5,2055.4 2010.9,2026.3 1990.7,1997.0 1971.8,1967.4 1954.5,1937.8 1938.9,1908.2 1925.0,1878.6 1913.0,1849.1 1903.0,1819.9 1895.0,1790.9 1889.0,1762.2 1885.2,1733.9 1883.6,1706.0 1884.2,1678.6 1887.0,1651.7 1892.1,1625.4 1899.4,1599.7 1908.9,1574.7 1920.6,1550.4 1934.6,1526.8 1950.6,1503.9 1968.8,1481.9 1988.9,1460.6 2011.0,1440.2 2035.0,1420.6 2060.7,1401.9 2088.0,1384.0 2116.9,1367.1 2147.2,1351.0 2178.8,1335.8 2211.5,1321.5 2245.1,1308.1 2279.5,1295.5 2314.6,1283.9 2350.0,1273.1 2385.6,1263.1  " style="stroke-opacity: 1.000000; stroke-width: 5.0; stroke: rgb(107,174,214); fill: none"  />
<path d="M 2128.3,2167.6 L 2103.8,2141.2 2079.9,2114.4 2056.8,2087.4 2034.5,2060.2 2013.4,2033.1 1993.6,2006.2 1975.2,1979.4 1958.3,1953.0 1943.1,1927.1 1929.7,1901.6 1918.2,1876.8 1908.7,1852.6 1901.2,1829.2 1895.8,1806.6 1892.6,1784.9 1891.7,1764.2 1893.0,1744.4 1896.5,1725.7 1902.4,1708.0 1910.5,1691.4 1920.9,1676.0 1933.6,1661.7 1948.4,1648.6 1965.5,1636.7 1984.6,1626.0 2005.7,1616.4 2028.8,1608.0 2053.8,1600.8 2080.5,1594.8 2108.8,1589.8 2138.7,1586.0 2169.9,1583.2 2202.3,1581.5 2235.8,1580.7 2270.1,1580.8 2305.2,1581.8 2340.7,1583.7 2376.5,1586.2 2412.4,1589.4  " style="stroke-opacity: 1.000000; stroke-width: 5.0; stroke: rgb(107,174,214); fill: none"  />
<path d="M 2128.3,2167.6 L 2104.1,2141.7 2080.4,2115.7 2057.2,2089.9 2034.9,2064.2 2013.5,2039.0 1993.2,2014.3 1974.2,1990.2 1956.5,1966.9 1940.4,1944.5 1925.9,1923.1 1913.2,1902.8 1902.3,1883.6 1893.3,1865.8 1886.2,1849.2 1881.2,1834.0 1878.2,1820.3 1877.4,1808.1 1878.7,1797.3 1882.2,1788.2 1887.8,1780.6 1895.5,1774.6 1905.4,1770.2 1917.3,1767.4 1931.3,1766.2 1947.3,1766.5 1965.2,1768.4 1984.9,1771.8 2006.4,1776.6 2029.6,1782.8 2054.3,1790.3 2080.5,1799.2 2107.9,1809.2 2136.5,1820.3 2166.1,1832.4 2196.5,1845.4 2227.6,1859.3 2259.1,1873.8 2290.9,1888.8 2322.8,1904.3  " style="stroke-opacity: 1.000000; stroke-width: 5.0; stroke: rgb(107,174,214); fill: none"  />
<path d="M 2128.3,2167.6 L 2103.9,2141.9 2079.4,2116.7 2055.0,2092.0 2030.7,2068.1 2006.8,2045.2 1983.4,2023.5 1960.5,2003.0 1938.3,1984.0 1917.0,1966.6 1896.5,1950.8 1877.0,1936.9 1858.5,1924.8 1841.2,1914.7 1825.1,1906.7 1810.3,1900.8 1796.8,1897.0 1784.6,1895.4 1773.8,1896.1 1764.5,1899.0 1756.5,1904.1 1750.1,1911.5 1745.1,1921.0 1741.6,1932.8 1739.5,1946.7 1738.9,1962.6 1739.7,1980.6 1741.8,2000.5 1745.3,2022.3 1750.1,2045.8 1756.2,2070.9 1763.4,2097.6 1771.7,2125.5 1781.1,2154.8 1791.4,2185.0 1802.5,2216.2 1814.4,2248.0 1827.0,2280.4 1840.1,2313.1 1853.6,2345.8  " style="stroke-opacity: 1.000000; stroke-width: 5.0; stroke: rgb(107,174,214); fill: none"  />
<path d="M 1853.6,2345.8 L 1837.9,2307.2 1822.8,2268.0 1808.4,2228.1 1794.7,2187.7 1781.8,2146.8 1769.8,2105.3 1758.7,2063.5 1748.6,2021.2 1739.6,1978.6 1731.6,1935.7 1724.8,1892.6 1719.1,1849.2 1714.5,1805.6 1711.2,1762.0 1709.2,1718.2 1708.3,1674.4 1708.8,1630.5 1710.5,1586.7 1713.5,1543.0 1717.8,1499.3 1723.3,1455.8 1730.1,1412.5 1738.2,1369.4 1747.5,1326.6 1758.1,1284.0 1769.8,1241.8 1782.7,1200.0 1796.7,1158.5 1811.8,1117.5 1827.9,1077.0 1845.1,1037.0 1863.2,997.5 1882.2,958.6 1902.0,920.3 1922.6,882.6 1943.8,845.6 1965.7,809.3 1988.2,773.7 2011.1,738.9  " style="stroke-opacity: 1.000000; stroke-width: 5.0; stroke: rgb(107,174,214); fill: none"  />
<path d="M 1853.6,2345.8 L 1839.3,2310.3 1825.7,2274.2 1813.2,2237.7 1801.7,2200.9 1791.4,2163.9 1782.3,2126.8 1774.7,2089.7 1768.5,2052.6 1763.8,2015.7 1760.7,1979.0 1759.3,1942.7 1759.6,1906.8 1761.7,1871.3 1765.5,1836.4 1771.2,1802.2 1778.7,1768.6 1788.1,1735.7 1799.3,1703.6 1812.4,1672.3 1827.3,1642.0 1844.0,1612.5 1862.6,1584.0 1882.9,1556.5 1904.9,1530.0 1928.6,1504.6 1953.8,1480.2 1980.6,1456.9 2008.9,1434.8 2038.5,1413.7 2069.4,1393.7 2101.5,1374.9 2134.6,1357.1 2168.7,1340.5 2203.6,1325.0 2239.2,1310.5 2275.4,1297.1 2311.9,1284.8 2348.7,1273.5 2385.6,1263.1  " style="stroke-opacity: 1.000000; stroke-width: 5.0; stroke: rgb(107,174,214); fill: none"  />
<path d="M 1853.6,2345.8 L 1840.1,2312.8 1827.1,2279.8 1814.8,2246.9 1803.2,2214.5 1792.6,2182.6 1783.0,2151.4 1774.5,2121.1 1767.2,2091.9 1761.2,2063.8 1756.5,2037.1 1753.3,2011.8 1751.5,1988.1 1751.2,1966.0 1752.5,1945.7 1755.4,1927.1 1759.9,1910.5 1766.1,1895.8 1773.9,1883.1 1783.3,1872.4 1794.3,1863.7 1806.9,1857.1 1821.1,1852.6 1836.9,1850.1 1854.1,1849.7 1872.8,1851.3 1892.9,1854.9 1914.2,1860.4 1936.9,1867.8 1960.7,1876.9 1985.5,1887.8 2011.3,1900.3 2038.0,1914.4 2065.3,1929.9 2093.3,1946.6 2121.8,1964.5 2150.6,1983.4 2179.6,2003.2 2208.5,2023.7 2237.4,2044.7  " style="stroke-opacity: 1.000000; stroke-width: 5.0; stroke: rgb(107,174,214); fill: none"  />
<path d="M 1853.6,2345.8 L 1840.1,2313.1 1827.0,2280.4 1814.4,2248.0 1802.5,2216.2 1791.4,2185.0 1781.1,2154.8 1771.7,2125.5 1763.4,2097.6 1756.2,2070.9 1750.1,2045.8 1745.3,2022.3 1741.8,2000.5 1739.7,1980.6 1738.9,1962.6 1739.5,1946.7 1741.6,1932.8 1745.1,1921.0 1750.1,1911.5 1756.5,1904.1 1764.5,1899.0 1773.8,1896.1 1784.6,1895.4 1796.8,1897.0 1810.3,1900.8 1825.1,1906.7 1841.2,1914.7 1858.5,1924.8 1877.0,1936.9 1896.5,1950.8 1917.0,1966.6 1938.3,1984.0 1960.5,2003.0 1983.4,2023.5 2006.8,2045.2 2030.7,2068.1 2055.0,2092.0 2079.4,2116.7 2103.9,2141.9 2128.3,2167.6  " style="stroke-opacity: 1.000000; stroke-width: 5.0; stroke: rgb(107,174,214); fill: none"  />
<path d="M 1072.0,689.3 L 1089.5,723.4 1106.2,758.1 1121.9,793.3 1136.7,828.9 1150.3,864.9 1162.6,901.0 1173.6,937.3 1183.1,973.7 1191.1,1010.0 1197.4,1046.3 1202.1,1082.3 1205.0,1118.1 1206.1,1153.6 1205.4,1188.7 1202.8,1223.4 1198.4,1257.5 1192.0,1291.1 1183.7,1324.1 1173.4,1356.4 1161.3,1387.9 1147.3,1418.8 1131.3,1448.8 1113.6,1478.0 1094.0,1506.4 1072.8,1533.8 1049.8,1560.4 1025.2,1586.0 999.0,1610.6 971.4,1634.2 942.4,1656.9 912.2,1678.5 880.8,1699.2 848.3,1718.8 814.9,1737.4 780.7,1755.0 745.9,1771.6 710.6,1787.1 675.0,1801.7 639.2,1815.3  " style="stroke-opacity: 1.000000; stroke-width: 5.0; stroke: rgb(107,174,214); fill: none"  />
<path d="M 1072.0,689.3 L 1089.2,722.8 1105.5,756.8 1121.0,791.2 1135.4,825.9 1148.6,860.7 1160.6,895.7 1171.1,930.6 1180.1,965.4 1187.5,999.9 1193.2,1034.2 1197.2,1068.1 1199.4,1101.5 1199.7,1134.3 1198.1,1166.6 1194.6,1198.1 1189.1,1228.9 1181.7,1259.0 1172.2,1288.1 1160.8,1316.4 1147.4,1343.7 1132.0,1370.0 1114.7,1395.3 1095.5,1419.5 1074.4,1442.7 1051.6,1464.8 1027.1,1485.7 1000.8,1505.5 973.1,1524.2 943.8,1541.8 913.2,1558.2 881.3,1573.4 848.3,1587.5 814.2,1600.6 779.2,1612.5 743.6,1623.3 707.3,1633.1 670.6,1641.9 633.7,1649.7 596.7,1656.5  " style="stroke-opacity: 1.000000; stroke-width: 5.0; stroke: rgb(107,174,214); fill: none"  />
<path d="M 1072.0,689.3 L 1088.9,722.2 1105.1,755.5 1120.3,789.2 1134.5,822.9 1147.5,856.7 1159.2,890.4 1169.5,923.9 1178.3,957.0 1185.5,989.8 1191.0,1022.0 1194.7,1053.6 1196.6,1084.4 1196.7,1114.5 1194.8,1143.8 1190.9,1172.1 1185.0,1199.4 1177.2,1225.6 1167.3,1250.8 1155.4,1274.8 1141.6,1297.6 1125.7,1319.2 1107.9,1339.5 1088.2,1358.6 1066.7,1376.3 1043.3,1392.8 1018.2,1407.9 991.5,1421.7 963.2,1434.2 933.4,1445.4 902.3,1455.4 869.9,1464.0 836.4,1471.5 802.0,1477.7 766.7,1482.8 730.7,1486.8 694.2,1489.7 657.3,1491.6 620.3,1492.6 583.3,1492.7  " style="stroke-opacity: 1.000000; stroke-width: 5.0; stroke: rgb(107,174,214); fill: none"  />
</g>
<defs>
<pattern id="checker" width="10" height="10" patternTransform="rotate(45 0 0)" patternUnits="userSpaceOnUse"><line x1="0" y1="0" x2="10" y2="0" style="stroke:black;stroke-width:2" /><line x1="0" y1="0" x2="0" y2="10" style="stroke:black;stroke-width:2" /></pattern>
<pattern id="vline-sparse" width="10" height="10" patternTransform="rotate(0 0 0)" patternUnits="userSpaceOnUse"><line x1="0" y1="0" x2="0" y2="10" style="stroke:black;stroke-width:2" /></pattern>
<pattern id="hline-sparse" width="10" height="10" patternTransform="rotate(0 0 0)" patternUnits="userSpaceOnUse"><line x1="0" y1="0" x2="10" y2="0" style="stroke:black;stroke-width:2" /></pattern>
<pattern id="hline" width="10" height="10" patternTransform="rotate(0 0 0)" patternUnits="userSpaceOnUse"><line x1="0" y1="0" x2="10" y2="0" style="stroke:black;stroke-width:5" /></pattern>
<pattern id="checker" width="10" height="10" patternTransform="rotate(45 0 0)" patternUnits="userSpaceOnUse"><line x1="0" y1="0" x2="10" y2="0" style="stroke:black;stroke-width:5" /><line x1="0" y1="0" x2="0" y2="10" style="stroke:black;stroke-width:4" /></pattern>
<pattern id="vline" width="10" height="10" patternTransform="rotate(0 0 0)" patternUnits="userSpaceOnUse"><line x1="0" y1="0" x2="0" y2="10" style="stroke:black;stroke-width:5" /></pattern>
</defs>
</svg>
