<?xml version="1.0" encoding="utf-8" standalone="no"?>
<!DOCTYPE svg PUBLIC "-//W3C//DTD SVG 1.1//EN" "http://www.w3.org/Graphics/SVG/1.1/DTD/svg11.dtd">
<svg width="3000px" height="3000px" version="1.1" xmlns="http://www.w3.org/2000/svg" xmlns:xlink="http://www.w3.org/1999/xlink">
<g id="bg">
<rect x="0" y="0" width="3000px" height="3000px" style="fill:rgb(255,255,255);"/>
</g>
<g id="ideograms">
<path d="M1500.000,535.000 A965.000,965.000 40.000 0,1 1601.714,540.376 L1618.579,381.267 A1125.000,1125.000 0.000 0,0 1500.000,375.000 Z" style="stroke-width:2.0;stroke:rgb(115,115,115);stroke-linecap:round;fill:rgb(153,0,204);" />
<text x="1635.1" y="307.6" font-size="195.0px" font-family="CMUBright-Bold" style="text-anchor:start;fill:rgb(0,0,0);" transform="rotate(273.0,1635.1,307.6)" >1</text>
<path d="M1500.000,535.000 A965.000,965.000 40.000 0,1 1601.714,540.376 L1618.579,381.267 A1125.000,1125.000 0.000 0,0 1500.000,375.000 Z" style="stroke-width:2.0;stroke:rgb(115,115,115);stroke-linecap:round;fill:none;" />
<path d="M1672.307,550.508 A965.000,965.000 40.000 0,1 1771.427,573.959 L1816.431,420.418 A1125.000,1125.000 0.000 0,0 1700.877,393.079 Z" style="stroke-width:2.0;stroke:rgb(115,115,115);stroke-linecap:round;fill:rgb(153,0,204);" />
<text x="1845.8" y="350.9" font-size="195.0px" font-family="CMUBright-Bold" style="text-anchor:start;fill:rgb(0,0,0);" transform="rotate(283.3,1845.8,350.9)" >5</text>
<path d="M1672.307,550.508 A965.000,965.000 40.000 0,1 1771.427,573.959 L1816.431,420.418 A1125.000,1125.000 0.000 0,0 1700.877,393.079 Z" style="stroke-width:2.0;stroke:rgb(115,115,115);stroke-linecap:round;fill:none;" />
<path d="M1839.077,596.533 A965.000,965.000 40.000 0,1 1932.417,637.306 L2004.113,494.269 A1125.000,1125.000 0.000 0,0 1895.297,446.736 Z" style="stroke-width:2.0;stroke:rgb(115,115,115);stroke-linecap:round;fill:rgb(153,0,204);" />
<text x="2047.2" y="432.0" font-size="195.0px" font-family="CMUBright-Bold" style="text-anchor:start;fill:rgb(0,0,0);" transform="rotate(293.6,2047.2,432.0)" >8</text>
<path d="M1839.077,596.533 A965.000,965.000 40.000 0,1 1932.417,637.306 L2004.113,494.269 A1125.000,1125.000 0.000 0,0 1895.297,446.736 Z" style="stroke-width:2.0;stroke:rgb(115,115,115);stroke-linecap:round;fill:none;" />
<path d="M1994.948,671.597 A965.000,965.000 40.000 0,1 2079.507,728.381 L2175.592,600.444 A1125.000,1125.000 0.000 0,0 2077.012,534.245 Z" style="stroke-width:2.0;stroke:rgb(115,115,115);stroke-linecap:round;fill:rgb(153,0,204);" />
<text x="2229.1" y="546.9" font-size="195.0px" font-family="CMUBright-Bold" style="text-anchor:start;fill:rgb(0,0,0);" transform="rotate(303.9,2229.1,546.9)" >9</text>
<path d="M1994.948,671.597 A965.000,965.000 40.000 0,1 2079.507,728.381 L2175.592,600.444 A1125.000,1125.000 0.000 0,0 2077.012,534.245 Z" style="stroke-width:2.0;stroke:rgb(115,115,115);stroke-linecap:round;fill:none;" />
<path d="M2134.911,773.286 A965.000,965.000 40.000 0,1 2207.972,844.256 L2325.356,735.532 A1125.000,1125.000 0.000 0,0 2240.181,652.795 Z" style="stroke-width:2.0;stroke:rgb(115,115,115);stroke-linecap:round;fill:rgb(153,0,204);" />
<text x="2387.6" y="692.4" font-size="195.0px" font-family="CMUBright-Bold" style="text-anchor:start;fill:rgb(0,0,0);" transform="rotate(314.2,2387.6,692.4)" >10</text>
<path d="M2134.911,773.286 A965.000,965.000 40.000 0,1 2207.972,844.256 L2325.356,735.532 A1125.000,1125.000 0.000 0,0 2240.181,652.795 Z" style="stroke-width:2.0;stroke:rgb(115,115,115);stroke-linecap:round;fill:none;" />
<path d="M2254.467,898.332 A965.000,965.000 40.000 0,1 2313.683,981.207 L2448.594,895.190 A1125.000,1125.000 0.000 0,0 2379.560,798.574 Z" style="stroke-width:2.0;stroke:rgb(115,115,115);stroke-linecap:round;fill:rgb(153,0,204);" />
<text x="2517.5" y="863.9" font-size="195.0px" font-family="CMUBright-Bold" style="text-anchor:start;fill:rgb(0,0,0);" transform="rotate(324.5,2517.5,863.9)" >13</text>
<path d="M2254.467,898.332 A965.000,965.000 40.000 0,1 2313.683,981.207 L2448.594,895.190 A1125.000,1125.000 0.000 0,0 2379.560,798.574 Z" style="stroke-width:2.0;stroke:rgb(115,115,115);stroke-linecap:round;fill:none;" />
<path d="M2349.775,1042.717 A965.000,965.000 40.000 0,1 2393.240,1134.833 L2541.342,1074.288 A1125.000,1125.000 0.000 0,0 2490.670,966.898 Z" style="stroke-width:2.0;stroke:rgb(115,115,115);stroke-linecap:round;fill:rgb(153,0,204);" />
<text x="2614.7" y="1055.8" font-size="195.0px" font-family="CMUBright-Bold" style="text-anchor:start;fill:rgb(0,0,0);" transform="rotate(334.7,2614.7,1055.8)" >16</text>
<path d="M2349.775,1042.717 A965.000,965.000 40.000 0,1 2393.240,1134.833 L2541.342,1074.288 A1125.000,1125.000 0.000 0,0 2490.670,966.898 Z" style="stroke-width:2.0;stroke:rgb(115,115,115);stroke-linecap:round;fill:none;" />
<path d="M2417.770,1201.799 A965.000,965.000 40.000 0,1 2444.089,1300.196 L2600.621,1267.068 A1125.000,1125.000 0.000 0,0 2569.939,1152.356 Z" style="stroke-width:2.0;stroke:rgb(115,115,115);stroke-linecap:round;fill:rgb(153,0,204);" />
<text x="2676.0" y="1261.0" font-size="195.0px" font-family="CMUBright-Bold" style="text-anchor:start;fill:rgb(0,0,0);" transform="rotate(345.0,2676.0,1261.0)" >17</text>
<path d="M2417.770,1201.799 A965.000,965.000 40.000 0,1 2444.089,1300.196 L2600.621,1267.068 A1125.000,1125.000 0.000 0,0 2569.939,1152.356 Z" style="stroke-width:2.0;stroke:rgb(115,115,115);stroke-linecap:round;fill:none;" />
<path d="M2456.267,1370.465 A965.000,965.000 40.000 0,1 2464.593,1471.980 L2624.526,1467.335 A1125.000,1125.000 0.000 0,0 2614.818,1348.988 Z" style="stroke-width:2.0;stroke:rgb(115,115,115);stroke-linecap:round;fill:rgb(153,0,204);" />
<text x="2699.8" y="1475.8" font-size="195.0px" font-family="CMUBright-Bold" style="text-anchor:start;fill:rgb(0,0,0);" transform="rotate(355.3,2699.8,1475.8)" >19</text>
<path d="M2456.267,1370.465 A965.000,965.000 40.000 0,1 2464.593,1471.980 L2624.526,1467.335 A1125.000,1125.000 0.000 0,0 2614.818,1348.988 Z" style="stroke-width:2.0;stroke:rgb(115,115,115);stroke-linecap:round;fill:none;" />
<path d="M2464.028,1543.295 A965.000,965.000 40.000 0,1 2454.095,1644.665 L2612.287,1668.651 A1125.000,1125.000 0.000 0,0 2623.867,1550.473 Z" style="stroke-width:2.0;stroke:rgb(115,115,115);stroke-linecap:round;fill:rgb(153,0,204);" />
<text x="2684.8" y="1690.4" font-size="195.0px" font-family="CMUBright-Bold" style="text-anchor:start;fill:rgb(0,0,0);" transform="rotate(5.6,2684.8,1690.4)" >20</text>
<path d="M2464.028,1543.295 A965.000,965.000 40.000 0,1 2454.095,1644.665 L2612.287,1668.651 A1125.000,1125.000 0.000 0,0 2623.867,1550.473 Z" style="stroke-width:2.0;stroke:rgb(115,115,115);stroke-linecap:round;fill:none;" />
<path d="M2440.805,1714.733 A965.000,965.000 40.000 0,1 2412.931,1812.701 L2564.298,1864.548 A1125.000,1125.000 0.000 0,0 2596.794,1750.336 Z" style="stroke-width:2.0;stroke:rgb(115,115,115);stroke-linecap:round;fill:rgb(153,0,204);" />
<text x="2632.4" y="1897.0" font-size="195.0px" font-family="CMUBright-Bold" style="text-anchor:start;fill:rgb(0,0,0);" transform="rotate(15.9,2632.4,1897.0)" >21</text>
<path d="M2440.805,1714.733 A965.000,965.000 40.000 0,1 2412.931,1812.701 L2564.298,1864.548 A1125.000,1125.000 0.000 0,0 2596.794,1750.336 Z" style="stroke-width:2.0;stroke:rgb(115,115,115);stroke-linecap:round;fill:none;" />
<path d="M2387.344,1879.269 A965.000,965.000 40.000 0,1 2342.425,1970.686 L2482.102,2048.727 A1125.000,1125.000 0.000 0,0 2534.469,1942.153 Z" style="stroke-width:2.0;stroke:rgb(115,115,115);stroke-linecap:round;fill:rgb(153,0,204);" />
<text x="2542.3" y="2094.6" font-size="195.0px" font-family="CMUBright-Bold" style="text-anchor:start;fill:rgb(0,0,0);" transform="rotate(26.2,2542.3,2094.6)" >28</text>
<path d="M2387.344,1879.269 A965.000,965.000 40.000 0,1 2342.425,1970.686 L2482.102,2048.727 A1125.000,1125.000 0.000 0,0 2534.469,1942.153 Z" style="stroke-width:2.0;stroke:rgb(115,115,115);stroke-linecap:round;fill:none;" />
<path d="M2305.363,2031.616 A965.000,965.000 40.000 0,1 2244.843,2113.542 L2368.340,2215.270 A1125.000,1125.000 0.000 0,0 2438.895,2119.759 Z" style="stroke-width:2.0;stroke:rgb(115,115,115);stroke-linecap:round;fill:rgb(253,208,162);" />
<text x="2419.4" y="2271.1" font-size="195.0px" font-family="CMUBright-Bold" style="text-anchor:start;fill:rgb(0,0,0);" transform="rotate(36.5,2419.4,2271.1)" >15</text>
<path d="M2305.363,2031.616 A965.000,965.000 40.000 0,1 2244.843,2113.542 L2368.340,2215.270 A1125.000,1125.000 0.000 0,0 2438.895,2119.759 Z" style="stroke-width:2.0;stroke:rgb(115,115,115);stroke-linecap:round;fill:none;" />
<path d="M2197.497,2166.875 A965.000,965.000 40.000 0,1 2123.321,2236.679 L2226.669,2358.823 A1125.000,1125.000 0.000 0,0 2313.144,2277.445 Z" style="stroke-width:2.0;stroke:rgb(115,115,115);stroke-linecap:round;fill:rgb(253,208,162);" />
<text x="2267.0" y="2422.9" font-size="195.0px" font-family="CMUBright-Bold" style="text-anchor:start;fill:rgb(0,0,0);" transform="rotate(46.7,2267.0,2422.9)" >31</text>
<path d="M2197.497,2166.875 A965.000,965.000 40.000 0,1 2123.321,2236.679 L2226.669,2358.823 A1125.000,1125.000 0.000 0,0 2313.144,2277.445 Z" style="stroke-width:2.0;stroke:rgb(115,115,115);stroke-linecap:round;fill:none;" />
<path d="M2067.213,2280.701 A965.000,965.000 40.000 0,1 1981.764,2336.139 L2061.642,2474.773 A1125.000,1125.000 0.000 0,0 2161.258,2410.144 Z" style="stroke-width:2.0;stroke:rgb(115,115,115);stroke-linecap:round;fill:rgb(253,208,162);" />
<text x="2089.8" y="2545.0" font-size="195.0px" font-family="CMUBright-Bold" style="text-anchor:start;fill:rgb(0,0,0);" transform="rotate(57.0,2089.8,2545.0)" >32</text>
<path d="M2067.213,2280.701 A965.000,965.000 40.000 0,1 1981.764,2336.139 L2061.642,2474.773 A1125.000,1125.000 0.000 0,0 2161.258,2410.144 Z" style="stroke-width:2.0;stroke:rgb(115,115,115);stroke-linecap:round;fill:none;" />
<path d="M1918.698,2369.435 A965.000,965.000 40.000 0,1 1824.724,2408.724 L1878.564,2559.393 A1125.000,1125.000 0.000 0,0 1988.119,2513.590 Z" style="stroke-width:2.0;stroke:rgb(115,115,115);stroke-linecap:round;fill:rgb(253,208,162);" />
<text x="1893.8" y="2633.6" font-size="195.0px" font-family="CMUBright-Bold" style="text-anchor:start;fill:rgb(0,0,0);" transform="rotate(67.3,1893.8,2633.6)" >35</text>
<path d="M1918.698,2369.435 A965.000,965.000 40.000 0,1 1824.724,2408.724 L1878.564,2559.393 A1125.000,1125.000 0.000 0,0 1988.119,2513.590 Z" style="stroke-width:2.0;stroke:rgb(115,115,115);stroke-linecap:round;fill:none;" />
<path d="M1756.726,2430.224 A965.000,965.000 40.000 0,1 1657.246,2452.102 L1683.318,2609.964 A1125.000,1125.000 0.000 0,0 1799.291,2584.458 Z" style="stroke-width:2.0;stroke:rgb(115,115,115);stroke-linecap:round;fill:rgb(253,141,60);" />
<text x="1687.0" y="2685.3" font-size="195.0px" font-family="CMUBright-Bold" style="text-anchor:start;fill:rgb(0,0,0);" transform="rotate(77.6,1687.0,2685.3)" >2</text>
<path d="M1756.726,2430.224 A965.000,965.000 40.000 0,1 1657.246,2452.102 L1683.318,2609.964 A1125.000,1125.000 0.000 0,0 1799.291,2584.458 Z" style="stroke-width:2.0;stroke:rgb(115,115,115);stroke-linecap:round;fill:none;" />
<path d="M1586.502,2461.115 A965.000,965.000 40.000 0,1 1484.715,2464.879 L1482.181,2624.859 A1125.000,1125.000 0.000 0,0 1600.844,2620.471 Z" style="stroke-width:2.0;stroke:rgb(115,115,115);stroke-linecap:round;fill:rgb(253,141,60);" />
<text x="1474.4" y="2699.7" font-size="195.0px" font-family="CMUBright-Bold" style="text-anchor:start;fill:rgb(0,0,0);" transform="rotate(87.9,1474.4,2699.7)" >4</text>
<path d="M1586.502,2461.115 A965.000,965.000 40.000 0,1 1484.715,2464.879 L1482.181,2624.859 A1125.000,1125.000 0.000 0,0 1600.844,2620.471 Z" style="stroke-width:2.0;stroke:rgb(115,115,115);stroke-linecap:round;fill:none;" />
<path d="M1413.498,2461.115 A965.000,965.000 40.000 0,1 1312.675,2446.644 L1281.616,2603.600 A1125.000,1125.000 0.000 0,0 1399.156,2620.471 Z" style="stroke-width:2.0;stroke:rgb(115,115,115);stroke-linecap:round;fill:rgb(253,141,60);" />
<text x="1400.0" y="2695.8" font-size="195.0px" font-family="CMUBright-Bold" style="text-anchor:end;fill:rgb(0,0,0);" transform="rotate(-81.8,1400.0,2695.8)" >7</text>
<path d="M1413.498,2461.115 A965.000,965.000 40.000 0,1 1312.675,2446.644 L1281.616,2603.600 A1125.000,1125.000 0.000 0,0 1399.156,2620.471 Z" style="stroke-width:2.0;stroke:rgb(115,115,115);stroke-linecap:round;fill:none;" />
<path d="M1243.274,2430.224 A965.000,965.000 40.000 0,1 1146.656,2397.983 L1088.070,2546.871 A1125.000,1125.000 0.000 0,0 1200.709,2584.458 Z" style="stroke-width:2.0;stroke:rgb(115,115,115);stroke-linecap:round;fill:rgb(253,141,60);" />
<text x="1189.1" y="2659.0" font-size="195.0px" font-family="CMUBright-Bold" style="text-anchor:end;fill:rgb(0,0,0);" transform="rotate(-71.5,1189.1,2659.0)" >12</text>
<path d="M1243.274,2430.224 A965.000,965.000 40.000 0,1 1146.656,2397.983 L1088.070,2546.871 A1125.000,1125.000 0.000 0,0 1200.709,2584.458 Z" style="stroke-width:2.0;stroke:rgb(115,115,115);stroke-linecap:round;fill:none;" />
<path d="M1081.302,2369.435 A965.000,965.000 40.000 0,1 991.993,2320.460 L907.764,2456.494 A1125.000,1125.000 0.000 0,0 1011.881,2513.590 Z" style="stroke-width:2.0;stroke:rgb(115,115,115);stroke-linecap:round;fill:rgb(253,141,60);" />
<text x="988.9" y="2585.7" font-size="195.0px" font-family="CMUBright-Bold" style="text-anchor:end;fill:rgb(0,0,0);" transform="rotate(-61.3,988.9,2585.7)" >18</text>
<path d="M1081.302,2369.435 A965.000,965.000 40.000 0,1 991.993,2320.460 L907.764,2456.494 A1125.000,1125.000 0.000 0,0 1011.881,2513.590 Z" style="stroke-width:2.0;stroke:rgb(115,115,115);stroke-linecap:round;fill:none;" />
<path d="M932.787,2280.701 A965.000,965.000 40.000 0,1 853.658,2216.566 L746.493,2335.375 A1125.000,1125.000 0.000 0,0 838.742,2410.144 Z" style="stroke-width:2.0;stroke:rgb(115,115,115);stroke-linecap:round;fill:rgb(253,141,60);" />
<text x="801.7" y="2475.9" font-size="195.0px" font-family="CMUBright-Bold" style="text-anchor:end;fill:rgb(0,0,0);" transform="rotate(-51.0,801.7,2475.9)" >22</text>
<path d="M932.787,2280.701 A965.000,965.000 40.000 0,1 853.658,2216.566 L746.493,2335.375 A1125.000,1125.000 0.000 0,0 838.742,2410.144 Z" style="stroke-width:2.0;stroke:rgb(115,115,115);stroke-linecap:round;fill:none;" />
<path d="M802.503,2166.875 A965.000,965.000 40.000 0,1 736.097,2089.642 L609.440,2187.406 A1125.000,1125.000 0.000 0,0 686.856,2277.445 Z" style="stroke-width:2.0;stroke:rgb(115,115,115);stroke-linecap:round;fill:rgb(253,141,60);" />
<text x="640.0" y="2336.9" font-size="195.0px" font-family="CMUBright-Bold" style="text-anchor:end;fill:rgb(0,0,0);" transform="rotate(-40.7,640.0,2336.9)" >23</text>
<path d="M802.503,2166.875 A965.000,965.000 40.000 0,1 736.097,2089.642 L609.440,2187.406 A1125.000,1125.000 0.000 0,0 686.856,2277.445 Z" style="stroke-width:2.0;stroke:rgb(115,115,115);stroke-linecap:round;fill:none;" />
<path d="M694.637,2031.616 A965.000,965.000 40.000 0,1 643.089,1943.766 L501.010,2017.344 A1125.000,1125.000 0.000 0,0 561.105,2119.759 Z" style="stroke-width:2.0;stroke:rgb(115,115,115);stroke-linecap:round;fill:rgb(253,141,60);" />
<text x="503.3" y="2168.3" font-size="195.0px" font-family="CMUBright-Bold" style="text-anchor:end;fill:rgb(0,0,0);" transform="rotate(-30.4,503.3,2168.3)" >24</text>
<path d="M694.637,2031.616 A965.000,965.000 40.000 0,1 643.089,1943.766 L501.010,2017.344 A1125.000,1125.000 0.000 0,0 561.105,2119.759 Z" style="stroke-width:2.0;stroke:rgb(115,115,115);stroke-linecap:round;fill:none;" />
<path d="M612.656,1879.269 A965.000,965.000 40.000 0,1 577.622,1783.627 L424.689,1830.653 A1125.000,1125.000 0.000 0,0 465.531,1942.153 Z" style="stroke-width:2.0;stroke:rgb(115,115,115);stroke-linecap:round;fill:rgb(253,141,60);" />
<text x="400.8" y="1981.4" font-size="195.0px" font-family="CMUBright-Bold" style="text-anchor:end;fill:rgb(0,0,0);" transform="rotate(-20.1,400.8,1981.4)" >25</text>
<path d="M612.656,1879.269 A965.000,965.000 40.000 0,1 577.622,1783.627 L424.689,1830.653 A1125.000,1125.000 0.000 0,0 465.531,1942.153 Z" style="stroke-width:2.0;stroke:rgb(115,115,115);stroke-linecap:round;fill:none;" />
<path d="M559.195,1714.733 A965.000,965.000 40.000 0,1 541.802,1614.372 L382.929,1633.336 A1125.000,1125.000 0.000 0,0 403.206,1750.336 Z" style="stroke-width:2.0;stroke:rgb(115,115,115);stroke-linecap:round;fill:rgb(253,141,60);" />
<text x="332.3" y="1776.4" font-size="195.0px" font-family="CMUBright-Bold" style="text-anchor:end;fill:rgb(0,0,0);" transform="rotate(-9.8,332.3,1776.4)" >27</text>
<path d="M559.195,1714.733 A965.000,965.000 40.000 0,1 541.802,1614.372 L382.929,1633.336 A1125.000,1125.000 0.000 0,0 403.206,1750.336 Z" style="stroke-width:2.0;stroke:rgb(115,115,115);stroke-linecap:round;fill:none;" />
<path d="M535.972,1543.295 A965.000,965.000 40.000 0,1 536.778,1441.441 L377.073,1431.732 A1125.000,1125.000 0.000 0,0 376.133,1550.473 Z" style="stroke-width:2.0;stroke:rgb(115,115,115);stroke-linecap:round;fill:rgb(253,141,60);" />
<text x="301.7" y="1564.5" font-size="195.0px" font-family="CMUBright-Bold" style="text-anchor:end;fill:rgb(0,0,0);" transform="rotate(0.5,301.7,1564.5)" >29</text>
<path d="M535.972,1543.295 A965.000,965.000 40.000 0,1 536.778,1441.441 L377.073,1431.732 A1125.000,1125.000 0.000 0,0 376.133,1550.473 Z" style="stroke-width:2.0;stroke:rgb(115,115,115);stroke-linecap:round;fill:none;" />
<path d="M543.733,1370.465 A965.000,965.000 40.000 0,1 562.714,1270.393 L407.309,1232.323 A1125.000,1125.000 0.000 0,0 385.182,1348.988 Z" style="stroke-width:2.0;stroke:rgb(115,115,115);stroke-linecap:round;fill:rgb(253,141,60);" />
<text x="309.5" y="1349.5" font-size="195.0px" font-family="CMUBright-Bold" style="text-anchor:end;fill:rgb(0,0,0);" transform="rotate(10.7,309.5,1349.5)" >34</text>
<path d="M543.733,1370.465 A965.000,965.000 40.000 0,1 562.714,1270.393 L407.309,1232.323 A1125.000,1125.000 0.000 0,0 385.182,1348.988 Z" style="stroke-width:2.0;stroke:rgb(115,115,115);stroke-linecap:round;fill:none;" />
<path d="M582.230,1201.799 A965.000,965.000 40.000 0,1 618.774,1106.724 L472.664,1041.517 A1125.000,1125.000 0.000 0,0 430.061,1152.356 Z" style="stroke-width:2.0;stroke:rgb(115,115,115);stroke-linecap:round;fill:rgb(66,146,198);" />
<text x="355.5" y="1139.3" font-size="195.0px" font-family="CMUBright-Bold" style="text-anchor:end;fill:rgb(0,0,0);" transform="rotate(21.0,355.5,1139.3)" >3</text>
<path d="M582.230,1201.799 A965.000,965.000 40.000 0,1 618.774,1106.724 L472.664,1041.517 A1125.000,1125.000 0.000 0,0 430.061,1152.356 Z" style="stroke-width:2.0;stroke:rgb(115,115,115);stroke-linecap:round;fill:none;" />
<path d="M650.225,1042.717 A965.000,965.000 40.000 0,1 703.158,955.695 L571.039,865.447 A1125.000,1125.000 0.000 0,0 509.330,966.898 Z" style="stroke-width:2.0;stroke:rgb(115,115,115);stroke-linecap:round;fill:rgb(66,146,198);" />
<text x="438.3" y="940.7" font-size="195.0px" font-family="CMUBright-Bold" style="text-anchor:end;fill:rgb(0,0,0);" transform="rotate(31.3,438.3,940.7)" >6</text>
<path d="M650.225,1042.717 A965.000,965.000 40.000 0,1 703.158,955.695 L571.039,865.447 A1125.000,1125.000 0.000 0,0 509.330,966.898 Z" style="stroke-width:2.0;stroke:rgb(115,115,115);stroke-linecap:round;fill:none;" />
<path d="M745.533,898.332 A965.000,965.000 40.000 0,1 813.153,822.160 L699.272,709.772 A1125.000,1125.000 0.000 0,0 620.440,798.574 Z" style="stroke-width:2.0;stroke:rgb(115,115,115);stroke-linecap:round;fill:rgb(66,146,198);" />
<text x="556.4" y="758.6" font-size="195.0px" font-family="CMUBright-Bold" style="text-anchor:end;fill:rgb(0,0,0);" transform="rotate(41.6,556.4,758.6)" >11</text>
<path d="M745.533,898.332 A965.000,965.000 40.000 0,1 813.153,822.160 L699.272,709.772 A1125.000,1125.000 0.000 0,0 620.440,798.574 Z" style="stroke-width:2.0;stroke:rgb(115,115,115);stroke-linecap:round;fill:none;" />
<path d="M865.089,773.286 A965.000,965.000 40.000 0,1 945.224,710.412 L853.241,579.496 A1125.000,1125.000 0.000 0,0 759.819,652.795 Z" style="stroke-width:2.0;stroke:rgb(115,115,115);stroke-linecap:round;fill:rgb(66,146,198);" />
<text x="704.0" y="602.0" font-size="195.0px" font-family="CMUBright-Bold" style="text-anchor:end;fill:rgb(0,0,0);" transform="rotate(51.9,704.0,602.0)" >14</text>
<path d="M865.089,773.286 A965.000,965.000 40.000 0,1 945.224,710.412 L853.241,579.496 A1125.000,1125.000 0.000 0,0 759.819,652.795 Z" style="stroke-width:2.0;stroke:rgb(115,115,115);stroke-linecap:round;fill:none;" />
<path d="M1005.052,671.597 A965.000,965.000 40.000 0,1 1095.126,624.042 L1027.997,478.806 A1125.000,1125.000 0.000 0,0 922.988,534.245 Z" style="stroke-width:2.0;stroke:rgb(115,115,115);stroke-linecap:round;fill:rgb(66,146,198);" />
<text x="875.4" y="475.4" font-size="195.0px" font-family="CMUBright-Bold" style="text-anchor:end;fill:rgb(0,0,0);" transform="rotate(62.2,875.4,475.4)" >26</text>
<path d="M1005.052,671.597 A965.000,965.000 40.000 0,1 1095.126,624.042 L1027.997,478.806 A1125.000,1125.000 0.000 0,0 922.988,534.245 Z" style="stroke-width:2.0;stroke:rgb(115,115,115);stroke-linecap:round;fill:none;" />
<path d="M1160.923,596.533 A965.000,965.000 40.000 0,1 1258.041,565.826 L1217.923,410.937 A1125.000,1125.000 0.000 0,0 1104.703,446.736 Z" style="stroke-width:2.0;stroke:rgb(115,115,115);stroke-linecap:round;fill:rgb(66,146,198);" />
<text x="1068.4" y="380.3" font-size="195.0px" font-family="CMUBright-Bold" style="text-anchor:end;fill:rgb(0,0,0);" transform="rotate(72.5,1068.4,380.3)" >30</text>
<path d="M1160.923,596.533 A965.000,965.000 40.000 0,1 1258.041,565.826 L1217.923,410.937 A1125.000,1125.000 0.000 0,0 1104.703,446.736 Z" style="stroke-width:2.0;stroke:rgb(115,115,115);stroke-linecap:round;fill:none;" />
<path d="M1327.693,550.508 A965.000,965.000 40.000 0,1 1428.732,537.635 L1416.916,378.072 A1125.000,1125.000 0.000 0,0 1299.123,393.079 Z" style="stroke-width:2.0;stroke:rgb(115,115,115);stroke-linecap:round;fill:rgb(66,146,198);" />
<text x="1275.3" y="321.2" font-size="195.0px" font-family="CMUBright-Bold" style="text-anchor:end;fill:rgb(0,0,0);" transform="rotate(82.7,1275.3,321.2)" >33</text>
<path d="M1327.693,550.508 A965.000,965.000 40.000 0,1 1428.732,537.635 L1416.916,378.072 A1125.000,1125.000 0.000 0,0 1299.123,393.079 Z" style="stroke-width:2.0;stroke:rgb(115,115,115);stroke-linecap:round;fill:none;" />
</g>
<g id="track_1">
<path d="M 1548.4,584.5 L 1545.9,622.8 1542.4,661.1 1537.9,699.4 1532.3,737.6 1525.6,775.4 1517.6,812.8 1508.4,849.6 1497.9,885.7 1486.1,920.9 1472.9,955.3 1458.5,988.6 1442.6,1020.9 1425.4,1051.9 1406.8,1081.7 1386.8,1110.1 1365.4,1137.1 1342.7,1162.7 1318.7,1186.7 1293.3,1209.2 1266.7,1230.1 1238.8,1249.3 1209.8,1267.0 1179.6,1282.9 1148.2,1297.3 1115.9,1309.9 1082.5,1320.9 1048.3,1330.3 1013.2,1338.0 977.4,1344.1 940.9,1348.7 903.8,1351.8 866.3,1353.4 828.3,1353.6 790.1,1352.4 751.8,1350.0 713.4,1346.4 675.1,1341.6 637.0,1335.9 599.3,1329.2  " style="stroke-opacity: 1.000000; stroke-width: 5.0; stroke: rgb(251,106,74); fill: none"  />
<path d="M 1533.9,2416.1 L 1532.3,2370.6 1531.0,2324.9 1529.9,2279.0 1529.2,2232.9 1528.7,2186.7 1528.5,2140.3 1528.6,2093.7 1529.0,2047.1 1529.7,2000.3 1530.8,1953.4 1532.2,1906.5 1534.0,1859.4 1536.1,1812.3 1538.5,1765.2 1541.3,1718.0 1544.5,1670.9 1548.0,1623.7 1551.9,1576.5 1556.2,1529.3 1560.8,1482.2 1565.8,1435.1 1571.1,1388.0 1576.8,1341.0 1582.9,1294.1 1589.3,1247.3 1596.0,1200.6 1603.1,1154.0 1610.5,1107.5 1618.2,1061.2 1626.3,1015.0 1634.6,969.0 1643.3,923.1 1652.2,877.5 1661.4,832.0 1670.9,786.7 1680.6,741.6 1690.5,696.8 1700.7,652.2 1711.1,607.9  " style="stroke-opacity: 1.000000; stroke-width: 5.0; stroke: rgb(251,106,74); fill: none"  />
<path d="M 716.8,1023.6 L 751.4,1045.1 785.8,1067.6 819.9,1091.0 853.7,1115.4 887.0,1140.8 919.8,1167.1 951.9,1194.3 983.3,1222.5 1013.8,1251.6 1043.5,1281.6 1072.2,1312.5 1099.9,1344.3 1126.5,1377.0 1152.0,1410.5 1176.3,1444.8 1199.4,1479.9 1221.3,1515.7 1241.8,1552.3 1261.1,1589.6 1279.0,1627.5 1295.5,1666.0 1310.7,1705.2 1324.4,1744.8 1336.8,1784.9 1347.9,1825.5 1357.5,1866.5 1365.8,1907.8 1372.7,1949.4 1378.3,1991.2 1382.6,2033.2 1385.6,2075.3 1387.5,2117.4 1388.1,2159.5 1387.5,2201.5 1385.9,2243.3 1383.3,2284.9 1379.6,2326.2 1375.1,2367.1 1369.8,2407.5  " style="stroke-opacity: 1.000000; stroke-width: 5.0; stroke: rgb(251,106,74); fill: none"  />
<path d="M 716.8,1023.6 L 751.8,1044.4 787.6,1064.6 824.1,1084.2 861.3,1103.0 899.1,1120.9 937.6,1137.9 976.5,1153.9 1016.0,1168.7 1055.8,1182.5 1096.1,1195.0 1136.8,1206.3 1177.8,1216.3 1219.0,1224.9 1260.5,1232.2 1302.1,1238.0 1343.9,1242.4 1385.8,1245.3 1427.7,1246.7 1469.6,1246.6 1511.6,1245.1 1553.4,1242.0 1595.1,1237.5 1636.6,1231.5 1678.0,1224.1 1719.1,1215.2 1759.9,1204.9 1800.4,1193.3 1840.5,1180.3 1880.2,1166.0 1919.5,1150.6 1958.3,1133.9 1996.5,1116.1 2034.2,1097.3 2071.2,1077.5 2107.6,1056.9 2143.3,1035.4 2178.3,1013.2 2212.5,990.4 2245.9,967.0  " style="stroke-opacity: 1.000000; stroke-width: 5.0; stroke: rgb(251,106,74); fill: none"  />
<path d="M 1369.8,2407.5 L 1375.1,2367.1 1379.6,2326.2 1383.3,2284.9 1385.9,2243.3 1387.5,2201.5 1388.1,2159.5 1387.5,2117.4 1385.6,2075.3 1382.6,2033.2 1378.3,1991.2 1372.7,1949.4 1365.8,1907.8 1357.5,1866.5 1347.9,1825.5 1336.8,1784.9 1324.4,1744.8 1310.7,1705.2 1295.5,1666.0 1279.0,1627.5 1261.1,1589.6 1241.8,1552.3 1221.3,1515.7 1199.4,1479.9 1176.3,1444.8 1152.0,1410.5 1126.5,1377.0 1099.9,1344.3 1072.2,1312.5 1043.5,1281.6 1013.8,1251.6 983.3,1222.5 951.9,1194.3 919.8,1167.1 887.0,1140.8 853.7,1115.4 819.9,1091.0 785.8,1067.6 751.4,1045.1 716.8,1023.6  " style="stroke-opacity: 1.000000; stroke-width: 5.0; stroke: rgb(251,106,74); fill: none"  />
<path d="M 1867.0,659.9 L 1850.6,696.3 1833.2,732.5 1814.8,768.6 1795.4,804.3 1775.0,839.5 1753.5,874.2 1730.9,908.2 1707.4,941.4 1682.7,973.8 1657.1,1005.2 1630.4,1035.6 1602.7,1064.8 1574.0,1092.9 1544.3,1119.8 1513.6,1145.4 1482.0,1169.7 1449.5,1192.5 1416.2,1214.0 1381.9,1233.9 1346.9,1252.4 1311.1,1269.4 1274.6,1284.9 1237.3,1298.8 1199.5,1311.2 1161.1,1322.1 1122.1,1331.5 1082.7,1339.3 1042.9,1345.7 1002.8,1350.6 962.4,1354.1 921.8,1356.2 881.0,1356.9 840.3,1356.3 799.5,1354.5 758.9,1351.5 718.4,1347.4 678.3,1342.3 638.6,1336.2 599.3,1329.2  " style="stroke-opacity: 1.000000; stroke-width: 5.0; stroke: rgb(251,106,74); fill: none"  />
<path d="M 2011.1,738.9 L 1986.4,776.0 1961.9,813.6 1937.7,851.6 1913.6,890.1 1889.9,929.0 1866.5,968.4 1843.4,1008.1 1820.7,1048.3 1798.3,1088.9 1776.4,1129.9 1754.9,1171.2 1733.8,1212.9 1713.2,1254.9 1693.1,1297.3 1673.5,1339.9 1654.5,1382.9 1635.9,1426.1 1617.9,1469.6 1600.4,1513.4 1583.5,1557.3 1567.2,1601.5 1551.4,1645.9 1536.2,1690.4 1521.6,1735.1 1507.6,1779.9 1494.2,1824.8 1481.3,1869.8 1469.0,1914.9 1457.3,1960.0 1446.2,2005.1 1435.6,2050.2 1425.5,2095.2 1416.1,2140.2 1407.1,2185.1 1398.6,2229.9 1390.7,2274.6 1383.3,2319.1 1376.3,2363.4 1369.8,2407.5  " style="stroke-opacity: 1.000000; stroke-width: 5.0; stroke: rgb(251,106,74); fill: none"  />
<path d="M 2011.1,738.9 L 1985.8,776.8 1960.6,815.0 1935.5,853.5 1910.6,892.2 1885.9,931.3 1861.3,970.6 1836.8,1010.3 1812.6,1050.1 1788.6,1090.3 1764.9,1130.7 1741.4,1171.4 1718.1,1212.3 1695.1,1253.4 1672.4,1294.8 1649.9,1336.4 1627.8,1378.2 1605.9,1420.1 1584.4,1462.3 1563.2,1504.7 1542.3,1547.2 1521.7,1589.8 1501.5,1632.7 1481.6,1675.6 1462.1,1718.7 1442.9,1761.8 1424.0,1805.1 1405.5,1848.4 1387.3,1891.9 1369.5,1935.3 1352.0,1978.8 1334.9,2022.4 1318.1,2065.9 1301.7,2109.4 1285.6,2152.9 1269.8,2196.4 1254.3,2239.8 1239.2,2283.2 1224.3,2326.5 1209.8,2369.6  " style="stroke-opacity: 1.000000; stroke-width: 5.0; stroke: rgb(251,106,74); fill: none"  />
<path d="M 2011.1,738.9 L 1985.2,777.6 1959.3,816.3 1933.5,855.2 1907.7,894.2 1881.9,933.2 1856.2,972.4 1830.6,1011.7 1805.0,1051.0 1779.5,1090.5 1754.1,1130.1 1728.7,1169.7 1703.4,1209.5 1678.2,1249.3 1653.1,1289.2 1628.0,1329.2 1603.1,1369.3 1578.2,1409.4 1553.5,1449.6 1528.9,1489.9 1504.3,1530.3 1479.9,1570.7 1455.5,1611.1 1431.3,1651.7 1407.2,1692.2 1383.2,1732.9 1359.3,1773.5 1335.5,1814.2 1311.9,1855.0 1288.3,1895.7 1264.9,1936.5 1241.6,1977.3 1218.4,2018.1 1195.3,2058.9 1172.3,2099.8 1149.5,2140.6 1126.7,2181.4 1104.1,2222.3 1081.6,2263.0 1059.2,2303.8  " style="stroke-opacity: 1.000000; stroke-width: 5.0; stroke: rgb(251,106,74); fill: none"  />
<path d="M 2011.1,738.9 L 1986.6,774.9 1961.4,810.9 1935.5,846.8 1909.0,882.6 1881.8,918.2 1854.0,953.6 1825.4,988.8 1796.2,1023.6 1766.4,1058.1 1735.8,1092.2 1704.6,1125.9 1672.8,1159.1 1640.3,1191.9 1607.2,1224.1 1573.5,1255.8 1539.2,1287.0 1504.3,1317.5 1468.9,1347.5 1432.9,1376.8 1396.3,1405.5 1359.3,1433.5 1321.8,1460.8 1283.8,1487.4 1245.4,1513.3 1206.5,1538.5 1167.3,1563.0 1127.8,1586.7 1087.9,1609.7 1047.8,1632.0 1007.4,1653.6 966.8,1674.4 926.0,1694.5 885.1,1713.8 844.1,1732.5 803.0,1750.4 762.0,1767.6 720.9,1784.2 680.0,1800.1 639.2,1815.3  " style="stroke-opacity: 1.000000; stroke-width: 5.0; stroke: rgb(251,106,74); fill: none"  />
<path d="M 2011.1,738.9 L 1988.0,772.5 1964.0,805.9 1939.0,839.0 1913.2,871.6 1886.3,903.8 1858.6,935.3 1830.0,966.2 1800.4,996.2 1770.0,1025.4 1738.6,1053.7 1706.5,1081.0 1673.5,1107.3 1639.7,1132.4 1605.1,1156.4 1569.7,1179.1 1533.6,1200.6 1496.8,1220.8 1459.3,1239.7 1421.2,1257.3 1382.6,1273.5 1343.3,1288.2 1303.6,1301.6 1263.3,1313.6 1222.7,1324.2 1181.6,1333.4 1140.3,1341.2 1098.6,1347.6 1056.8,1352.7 1014.7,1356.4 972.6,1358.8 930.4,1359.9 888.3,1359.9 846.2,1358.6 804.3,1356.2 762.5,1352.7 721.1,1348.2 680.0,1342.7 639.4,1336.3 599.3,1329.2  " style="stroke-opacity: 1.000000; stroke-width: 5.0; stroke: rgb(251,106,74); fill: none"  />
<path d="M 2138.8,842.4 L 2109.5,872.0 2079.3,901.3 2048.3,930.3 2016.5,958.8 1984.0,986.7 1950.6,1014.0 1916.4,1040.6 1881.6,1066.5 1845.9,1091.6 1809.6,1115.8 1772.6,1139.0 1735.0,1161.3 1696.7,1182.6 1657.9,1202.8 1618.4,1221.9 1578.4,1239.9 1538.0,1256.7 1497.0,1272.4 1455.6,1286.8 1413.8,1300.0 1371.6,1312.0 1329.1,1322.8 1286.3,1332.3 1243.2,1340.5 1200.0,1347.6 1156.6,1353.4 1113.0,1358.0 1069.4,1361.4 1025.8,1363.6 982.1,1364.7 938.6,1364.7 895.2,1363.5 851.9,1361.4 808.9,1358.2 766.2,1354.1 723.8,1349.1 681.8,1343.2 640.3,1336.6 599.3,1329.2  " style="stroke-opacity: 1.000000; stroke-width: 5.0; stroke: rgb(251,106,74); fill: none"  />
<path d="M 2138.8,842.4 L 2110.7,871.9 2083.0,902.3 2055.8,933.6 2029.2,965.7 2003.3,998.6 1978.2,1032.2 1954.0,1066.7 1930.7,1101.8 1908.4,1137.6 1887.2,1174.1 1867.1,1211.3 1848.3,1249.0 1830.7,1287.3 1814.4,1326.1 1799.5,1365.4 1785.9,1405.1 1773.8,1445.3 1763.0,1485.9 1753.8,1526.8 1745.9,1568.0 1739.6,1609.4 1734.7,1651.1 1731.3,1693.0 1729.4,1734.9 1728.9,1777.0 1729.8,1819.1 1732.2,1861.1 1735.9,1903.1 1741.0,1945.0 1747.3,1986.7 1754.9,2028.2 1763.8,2069.5 1773.7,2110.4 1784.8,2150.9 1796.8,2191.0 1809.8,2230.6 1823.7,2269.6 1838.3,2308.0 1853.6,2345.8  " style="stroke-opacity: 1.000000; stroke-width: 5.0; stroke: rgb(251,106,74); fill: none"  />
<path d="M 1209.8,2369.6 L 1224.3,2326.5 1239.2,2283.2 1254.3,2239.8 1269.8,2196.4 1285.6,2152.9 1301.7,2109.4 1318.1,2065.9 1334.9,2022.4 1352.0,1978.8 1369.5,1935.3 1387.3,1891.9 1405.5,1848.4 1424.0,1805.1 1442.9,1761.8 1462.1,1718.7 1481.6,1675.6 1501.5,1632.7 1521.7,1589.8 1542.3,1547.2 1563.2,1504.7 1584.4,1462.3 1605.9,1420.1 1627.8,1378.2 1649.9,1336.4 1672.4,1294.8 1695.1,1253.4 1718.1,1212.3 1741.4,1171.4 1764.9,1130.7 1788.6,1090.3 1812.6,1050.1 1836.8,1010.3 1861.3,970.6 1885.9,931.3 1910.6,892.2 1935.5,853.5 1960.6,815.0 1985.8,776.8 2011.1,738.9  " style="stroke-opacity: 1.000000; stroke-width: 5.0; stroke: rgb(251,106,74); fill: none"  />
<path d="M 1209.8,2369.6 L 1223.6,2329.3 1238.2,2288.9 1253.6,2248.4 1269.8,2207.8 1286.8,2167.4 1304.8,2127.0 1323.5,2086.8 1343.2,2046.9 1363.7,2007.2 1385.2,1967.8 1407.5,1928.8 1430.8,1890.2 1454.9,1852.1 1479.9,1814.5 1505.8,1777.4 1532.6,1740.9 1560.2,1704.9 1588.7,1669.7 1618.0,1635.0 1648.1,1601.1 1679.0,1567.9 1710.6,1535.5 1743.0,1503.8 1776.1,1472.9 1809.9,1442.8 1844.3,1413.5 1879.3,1385.0 1914.8,1357.4 1950.9,1330.6 1987.5,1304.6 2024.4,1279.5 2061.8,1255.2 2099.5,1231.8 2137.4,1209.3 2175.6,1187.5 2213.9,1166.6 2252.3,1146.5 2290.7,1127.3 2329.1,1108.8  " style="stroke-opacity: 1.000000; stroke-width: 5.0; stroke: rgb(251,106,74); fill: none"  />
<path d="M 1209.8,2369.6 L 1223.4,2330.2 1237.8,2290.7 1253.2,2251.2 1269.4,2211.8 1286.7,2172.5 1304.9,2133.4 1324.1,2094.6 1344.3,2056.1 1365.5,2018.1 1387.7,1980.5 1411.0,1943.5 1435.2,1907.1 1460.5,1871.3 1486.7,1836.3 1514.0,1801.9 1542.2,1768.4 1571.4,1735.6 1601.5,1703.8 1632.5,1672.8 1664.4,1642.8 1697.2,1613.7 1730.9,1585.5 1765.3,1558.4 1800.5,1532.3 1836.4,1507.1 1873.0,1483.1 1910.3,1460.0 1948.1,1438.1 1986.4,1417.1 2025.3,1397.2 2064.5,1378.3 2104.1,1360.5 2144.0,1343.7 2184.2,1327.9 2224.4,1313.1 2264.8,1299.2 2305.2,1286.3 2345.5,1274.3 2385.6,1263.1  " style="stroke-opacity: 1.000000; stroke-width: 5.0; stroke: rgb(251,106,74); fill: none"  />
<path d="M 1209.8,2369.6 L 1222.9,2331.9 1236.9,2294.2 1252.0,2256.7 1268.1,2219.4 1285.3,2182.5 1303.6,2146.0 1323.0,2110.1 1343.5,2074.9 1365.2,2040.5 1387.9,2006.9 1411.8,1974.3 1436.7,1942.6 1462.8,1912.1 1490.0,1882.6 1518.2,1854.4 1547.5,1827.4 1577.8,1801.7 1609.1,1777.4 1641.4,1754.4 1674.7,1732.9 1708.8,1712.7 1743.8,1694.0 1779.6,1676.8 1816.2,1661.1 1853.5,1646.8 1891.4,1634.0 1930.0,1622.6 1969.1,1612.7 2008.6,1604.2 2048.5,1597.1 2088.8,1591.4 2129.3,1587.1 2170.0,1584.0 2210.7,1582.1 2251.5,1581.5 2292.1,1581.9 2332.5,1583.4 2372.6,1586.0 2412.4,1589.4  " style="stroke-opacity: 1.000000; stroke-width: 5.0; stroke: rgb(251,106,74); fill: none"  />
<path d="M 1209.8,2369.6 L 1222.6,2332.7 1236.4,2295.9 1251.3,2259.3 1267.2,2223.0 1284.1,2187.2 1302.2,2152.1 1321.3,2117.7 1341.6,2084.1 1362.9,2051.5 1385.4,2019.9 1408.9,1989.5 1433.6,1960.3 1459.3,1932.4 1486.1,1905.8 1513.9,1880.7 1542.8,1857.1 1572.6,1835.0 1603.5,1814.5 1635.2,1795.6 1667.9,1778.4 1701.4,1762.8 1735.7,1748.9 1770.7,1736.8 1806.5,1726.2 1842.9,1717.4 1880.0,1710.3 1917.5,1704.8 1955.5,1700.9 1994.0,1698.6 2032.7,1697.9 2071.7,1698.6 2110.8,1700.9 2150.0,1704.5 2189.2,1709.4 2228.3,1715.5 2267.2,1722.9 2305.9,1731.3 2344.1,1740.6 2381.8,1750.9  " style="stroke-opacity: 1.000000; stroke-width: 5.0; stroke: rgb(251,106,74); fill: none"  />
<path d="M 1209.8,2369.6 L 1222.4,2333.4 1235.9,2297.4 1250.5,2261.6 1266.0,2226.4 1282.6,2191.7 1300.2,2157.8 1318.9,2124.8 1338.6,2092.8 1359.4,2061.9 1381.2,2032.3 1404.0,2004.0 1427.9,1977.1 1452.7,1951.8 1478.6,1928.0 1505.4,1906.0 1533.2,1885.6 1561.9,1867.0 1591.4,1850.2 1621.8,1835.3 1653.1,1822.3 1685.1,1811.1 1717.8,1801.8 1751.1,1794.5 1785.1,1789.0 1819.7,1785.4 1854.8,1783.7 1890.3,1783.8 1926.1,1785.7 1962.3,1789.3 1998.7,1794.6 2035.3,1801.5 2071.9,1809.9 2108.5,1819.8 2145.0,1831.1 2181.3,1843.7 2217.4,1857.4 2253.0,1872.1 2288.2,1887.8 2322.8,1904.3  " style="stroke-opacity: 1.000000; stroke-width: 5.0; stroke: rgb(251,106,74); fill: none"  />
<path d="M 2245.9,967.0 L 2210.6,992.6 2175.4,1018.8 2140.2,1045.7 2105.2,1073.2 2070.4,1101.4 2035.9,1130.3 2001.6,1159.9 1967.6,1190.1 1934.0,1220.9 1900.8,1252.4 1868.0,1284.6 1835.7,1317.4 1803.9,1350.8 1772.6,1384.8 1741.9,1419.4 1711.8,1454.6 1682.3,1490.4 1653.3,1526.7 1625.1,1563.5 1597.5,1600.9 1570.6,1638.7 1544.4,1677.0 1518.9,1715.8 1494.1,1754.9 1470.0,1794.5 1446.7,1834.4 1424.1,1874.6 1402.3,1915.1 1381.2,1955.9 1360.8,1996.9 1341.2,2038.1 1322.3,2079.4 1304.1,2120.8 1286.7,2162.4 1270.0,2203.9 1253.9,2245.5 1238.6,2287.0 1223.9,2328.4 1209.8,2369.6  " style="stroke-opacity: 1.000000; stroke-width: 5.0; stroke: rgb(251,106,74); fill: none"  />
<path d="M 2329.1,1108.8 L 2290.7,1127.3 2252.3,1146.5 2213.9,1166.6 2175.6,1187.5 2137.4,1209.3 2099.5,1231.8 2061.8,1255.2 2024.4,1279.5 1987.5,1304.6 1950.9,1330.6 1914.8,1357.4 1879.3,1385.0 1844.3,1413.5 1809.9,1442.8 1776.1,1472.9 1743.0,1503.8 1710.6,1535.5 1679.0,1567.9 1648.1,1601.1 1618.0,1635.0 1588.7,1669.7 1560.2,1704.9 1532.6,1740.9 1505.8,1777.4 1479.9,1814.5 1454.9,1852.1 1430.8,1890.2 1407.5,1928.8 1385.2,1967.8 1363.7,2007.2 1343.2,2046.9 1323.5,2086.8 1304.8,2127.0 1286.8,2167.4 1269.8,2207.8 1253.6,2248.4 1238.2,2288.9 1223.6,2329.3 1209.8,2369.6  " style="stroke-opacity: 1.000000; stroke-width: 5.0; stroke: rgb(251,106,74); fill: none"  />
<path d="M 2329.1,1108.8 L 2288.7,1127.6 2247.9,1146.2 2206.7,1164.5 2165.0,1182.5 2123.0,1200.1 2080.6,1217.4 2037.8,1234.2 1994.6,1250.7 1951.2,1266.7 1907.4,1282.2 1863.3,1297.3 1818.9,1311.9 1774.3,1325.9 1729.4,1339.4 1684.3,1352.4 1639.0,1364.9 1593.4,1376.7 1547.7,1388.0 1501.8,1398.7 1455.8,1408.8 1409.7,1418.4 1363.5,1427.3 1317.2,1435.6 1270.8,1443.4 1224.4,1450.5 1178.0,1457.1 1131.6,1463.0 1085.2,1468.4 1038.8,1473.3 992.6,1477.5 946.4,1481.2 900.3,1484.4 854.4,1487.0 808.7,1489.1 763.1,1490.8 717.8,1491.9 672.7,1492.6 627.8,1492.9 583.3,1492.7  " style="stroke-opacity: 1.000000; stroke-width: 5.0; stroke: rgb(251,106,74); fill: none"  />
<path d="M 2329.1,1108.8 L 2289.6,1127.1 2249.5,1145.1 2208.9,1162.7 2167.8,1179.8 2126.2,1196.4 2084.1,1212.5 2041.6,1228.0 1998.7,1243.0 1955.3,1257.2 1911.6,1270.9 1867.6,1283.8 1823.2,1296.0 1778.5,1307.5 1733.6,1318.2 1688.3,1328.1 1642.9,1337.2 1597.3,1345.6 1551.5,1353.1 1505.5,1359.8 1459.5,1365.7 1413.3,1370.7 1367.1,1374.9 1320.8,1378.3 1274.6,1380.8 1228.3,1382.5 1182.1,1383.4 1136.0,1383.5 1090.0,1382.9 1044.1,1381.4 998.4,1379.2 952.8,1376.2 907.5,1372.5 862.5,1368.2 817.7,1363.1 773.3,1357.5 729.2,1351.2 685.5,1344.4 642.2,1337.0 599.3,1329.2  " style="stroke-opacity: 1.000000; stroke-width: 5.0; stroke: rgb(251,106,74); fill: none"  />
<path d="M 2385.6,1263.1 L 2345.5,1274.3 2305.2,1286.3 2264.8,1299.2 2224.4,1313.1 2184.2,1327.9 2144.0,1343.7 2104.1,1360.5 2064.5,1378.3 2025.3,1397.2 1986.4,1417.1 1948.1,1438.1 1910.3,1460.0 1873.0,1483.1 1836.4,1507.1 1800.5,1532.3 1765.3,1558.4 1730.9,1585.5 1697.2,1613.7 1664.4,1642.8 1632.5,1672.8 1601.5,1703.8 1571.4,1735.6 1542.2,1768.4 1514.0,1801.9 1486.7,1836.3 1460.5,1871.3 1435.2,1907.1 1411.0,1943.5 1387.7,1980.5 1365.5,2018.1 1344.3,2056.1 1324.1,2094.6 1304.9,2133.4 1286.7,2172.5 1269.4,2211.8 1253.2,2251.2 1237.8,2290.7 1223.4,2330.2 1209.8,2369.6  " style="stroke-opacity: 1.000000; stroke-width: 5.0; stroke: rgb(251,106,74); fill: none"  />
<path d="M 2385.6,1263.1 L 2342.5,1274.4 2299.1,1285.4 2255.2,1296.1 2211.0,1306.3 2166.5,1316.2 2121.7,1325.6 2076.6,1334.5 2031.2,1343.0 1985.6,1351.0 1939.7,1358.5 1893.7,1365.4 1847.4,1371.8 1801.0,1377.7 1754.4,1383.0 1707.7,1387.7 1660.9,1391.8 1613.9,1395.4 1566.9,1398.3 1519.9,1400.7 1472.8,1402.4 1425.7,1403.5 1378.7,1404.1 1331.6,1404.0 1284.6,1403.3 1237.7,1402.1 1190.8,1400.3 1144.1,1397.8 1097.5,1394.9 1051.0,1391.3 1004.7,1387.3 958.6,1382.7 912.8,1377.6 867.1,1372.0 821.7,1365.9 776.6,1359.4 731.8,1352.4 687.3,1345.0 643.1,1337.3 599.3,1329.2  " style="stroke-opacity: 1.000000; stroke-width: 5.0; stroke: rgb(251,106,74); fill: none"  />
<path d="M 1059.2,2303.8 L 1080.0,2266.6 1101.5,2229.4 1123.9,2192.3 1147.1,2155.4 1171.1,2118.6 1195.9,2082.1 1221.6,2045.9 1248.1,2010.1 1275.4,1974.7 1303.5,1939.8 1332.4,1905.4 1362.2,1871.6 1392.7,1838.4 1424.1,1805.8 1456.2,1774.0 1489.0,1742.8 1522.6,1712.4 1556.9,1682.8 1592.0,1653.9 1627.6,1625.9 1664.0,1598.8 1700.9,1572.5 1738.4,1547.1 1776.5,1522.6 1815.1,1499.0 1854.2,1476.3 1893.7,1454.6 1933.6,1433.7 1973.9,1413.8 2014.5,1394.8 2055.4,1376.7 2096.5,1359.5 2137.7,1343.2 2179.1,1327.7 2220.5,1313.2 2261.9,1299.5 2303.3,1286.6 2344.6,1274.4 2385.6,1263.1  " style="stroke-opacity: 1.000000; stroke-width: 5.0; stroke: rgb(251,106,74); fill: none"  />
<path d="M 2413.7,1425.1 L 2368.3,1428.7 2322.7,1432.0 2276.9,1435.1 2230.9,1438.0 2184.7,1440.6 2138.3,1442.8 2091.8,1444.8 2045.2,1446.5 1998.4,1447.9 1951.6,1448.9 1904.6,1449.6 1857.5,1450.0 1810.4,1450.0 1763.2,1449.6 1716.0,1448.9 1668.7,1447.9 1621.4,1446.5 1574.1,1444.7 1526.8,1442.6 1479.4,1440.1 1432.2,1437.2 1384.9,1434.0 1337.7,1430.4 1290.6,1426.5 1243.6,1422.2 1196.6,1417.5 1149.7,1412.5 1103.0,1407.2 1056.3,1401.6 1009.8,1395.6 963.5,1389.3 917.3,1382.7 871.3,1375.9 825.4,1368.7 779.8,1361.3 734.3,1353.6 689.1,1345.7 644.1,1337.5 599.3,1329.2  " style="stroke-opacity: 1.000000; stroke-width: 5.0; stroke: rgb(251,106,74); fill: none"  />
<path d="M 2412.4,1589.4 L 2372.6,1586.0 2332.5,1583.4 2292.1,1581.9 2251.5,1581.5 2210.7,1582.1 2170.0,1584.0 2129.3,1587.1 2088.8,1591.4 2048.5,1597.1 2008.6,1604.2 1969.1,1612.7 1930.0,1622.6 1891.4,1634.0 1853.5,1646.8 1816.2,1661.1 1779.6,1676.8 1743.8,1694.0 1708.8,1712.7 1674.7,1732.9 1641.4,1754.4 1609.1,1777.4 1577.8,1801.7 1547.5,1827.4 1518.2,1854.4 1490.0,1882.6 1462.8,1912.1 1436.7,1942.6 1411.8,1974.3 1387.9,2006.9 1365.2,2040.5 1343.5,2074.9 1323.0,2110.1 1303.6,2146.0 1285.3,2182.5 1268.1,2219.4 1252.0,2256.7 1236.9,2294.2 1222.9,2331.9 1209.8,2369.6  " style="stroke-opacity: 1.000000; stroke-width: 5.0; stroke: rgb(251,106,74); fill: none"  />
<path d="M 2412.4,1589.4 L 2366.1,1584.9 2319.7,1580.5 2273.2,1576.2 2226.7,1571.9 2180.1,1567.7 2133.4,1563.7 2086.7,1559.7 2039.9,1555.8 1993.0,1552.1 1946.1,1548.4 1899.2,1544.9 1852.2,1541.4 1805.2,1538.1 1758.2,1534.9 1711.1,1531.8 1664.0,1528.8 1616.9,1526.0 1569.7,1523.2 1522.6,1520.6 1475.4,1518.1 1428.2,1515.8 1381.1,1513.5 1333.9,1511.4 1286.7,1509.4 1239.6,1507.5 1192.5,1505.7 1145.4,1504.1 1098.3,1502.5 1051.2,1501.1 1004.2,1499.8 957.2,1498.6 910.3,1497.5 863.4,1496.6 816.6,1495.7 769.8,1494.9 723.1,1494.2 676.4,1493.6 629.8,1493.1 583.3,1492.7  " style="stroke-opacity: 1.000000; stroke-width: 5.0; stroke: rgb(251,106,74); fill: none"  />
<path d="M 2381.8,1750.9 L 2338.0,1738.3 2294.1,1725.4 2250.1,1712.2 2206.0,1698.7 2161.9,1684.9 2117.7,1670.8 2073.5,1656.3 2029.2,1641.5 1985.0,1626.3 1940.7,1610.8 1896.5,1595.0 1852.3,1578.8 1808.2,1562.2 1764.1,1545.3 1720.1,1528.1 1676.2,1510.5 1632.5,1492.5 1588.8,1474.3 1545.2,1455.6 1501.8,1436.7 1458.6,1417.4 1415.5,1397.8 1372.5,1377.8 1329.8,1357.6 1287.3,1337.0 1244.9,1316.2 1202.8,1295.0 1160.9,1273.6 1119.2,1252.0 1077.8,1230.0 1036.6,1207.9 995.6,1185.5 955.0,1162.9 914.5,1140.1 874.4,1117.1 834.6,1093.9 795.0,1070.6 755.7,1047.1 716.8,1023.6  " style="stroke-opacity: 1.000000; stroke-width: 5.0; stroke: rgb(251,106,74); fill: none"  />
<path d="M 2381.8,1750.9 L 2344.1,1740.6 2305.9,1731.3 2267.2,1722.9 2228.3,1715.5 2189.2,1709.4 2150.0,1704.5 2110.8,1700.9 2071.7,1698.6 2032.7,1697.9 1994.0,1698.6 1955.5,1700.9 1917.5,1704.8 1880.0,1710.3 1842.9,1717.4 1806.5,1726.2 1770.7,1736.8 1735.7,1748.9 1701.4,1762.8 1667.9,1778.4 1635.2,1795.6 1603.5,1814.5 1572.6,1835.0 1542.8,1857.1 1513.9,1880.7 1486.1,1905.8 1459.3,1932.4 1433.6,1960.3 1408.9,1989.5 1385.4,2019.9 1362.9,2051.5 1341.6,2084.1 1321.3,2117.7 1302.2,2152.1 1284.1,2187.2 1267.2,2223.0 1251.3,2259.3 1236.4,2295.9 1222.6,2332.7 1209.8,2369.6  " style="stroke-opacity: 1.000000; stroke-width: 5.0; stroke: rgb(251,106,74); fill: none"  />
<path d="M 2381.8,1750.9 L 2339.8,1739.2 2297.3,1728.0 2254.4,1717.3 2211.0,1707.1 2167.3,1697.5 2123.1,1688.5 2078.7,1680.1 2033.9,1672.3 1988.8,1665.3 1943.5,1659.0 1897.9,1653.4 1852.1,1648.6 1806.2,1644.6 1760.1,1641.3 1713.8,1638.9 1667.5,1637.3 1621.2,1636.5 1574.7,1636.5 1528.3,1637.4 1481.9,1639.1 1435.5,1641.7 1389.3,1645.1 1343.1,1649.3 1297.0,1654.3 1251.1,1660.2 1205.4,1666.8 1159.8,1674.2 1114.5,1682.4 1069.5,1691.3 1024.8,1701.0 980.3,1711.3 936.2,1722.3 892.5,1734.0 849.1,1746.2 806.2,1759.0 763.7,1772.4 721.7,1786.3 680.2,1800.6 639.2,1815.3  " style="stroke-opacity: 1.000000; stroke-width: 5.0; stroke: rgb(251,106,74); fill: none"  />
<path d="M 639.2,1815.3 L 681.1,1800.2 723.4,1785.3 766.1,1770.8 809.2,1756.6 852.6,1742.9 896.4,1729.5 940.6,1716.5 985.0,1704.0 1029.7,1691.9 1074.7,1680.4 1120.0,1669.3 1165.5,1658.8 1211.2,1648.8 1257.1,1639.3 1303.2,1630.5 1349.5,1622.1 1395.9,1614.4 1442.4,1607.3 1489.1,1600.7 1535.8,1594.8 1582.6,1589.4 1629.5,1584.7 1676.3,1580.5 1723.2,1577.0 1770.1,1574.0 1816.9,1571.6 1863.6,1569.8 1910.3,1568.6 1956.9,1568.0 2003.4,1567.9 2049.7,1568.3 2095.9,1569.3 2141.8,1570.8 2187.6,1572.8 2233.1,1575.2 2278.4,1578.2 2323.3,1581.5 2368.0,1585.3 2412.4,1589.4  " style="stroke-opacity: 1.000000; stroke-width: 5.0; stroke: rgb(251,106,74); fill: none"  />
<path d="M 639.2,1815.3 L 680.2,1800.6 721.7,1786.3 763.7,1772.4 806.2,1759.0 849.1,1746.2 892.5,1734.0 936.2,1722.3 980.3,1711.3 1024.8,1701.0 1069.5,1691.3 1114.5,1682.4 1159.8,1674.2 1205.4,1666.8 1251.1,1660.2 1297.0,1654.3 1343.1,1649.3 1389.3,1645.1 1435.5,1641.7 1481.9,1639.1 1528.3,1637.4 1574.7,1636.5 1621.2,1636.5 1667.5,1637.3 1713.8,1638.9 1760.1,1641.3 1806.2,1644.6 1852.1,1648.6 1897.9,1653.4 1943.5,1659.0 1988.8,1665.3 2033.9,1672.3 2078.7,1680.1 2123.1,1688.5 2167.3,1697.5 2211.0,1707.1 2254.4,1717.3 2297.3,1728.0 2339.8,1739.2 2381.8,1750.9  " style="stroke-opacity: 1.000000; stroke-width: 5.0; stroke: rgb(251,106,74); fill: none"  />
<path d="M 2322.8,1904.3 L 2288.2,1887.8 2253.0,1872.1 2217.4,1857.4 2181.3,1843.7 2145.0,1831.1 2108.5,1819.8 2071.9,1809.9 2035.3,1801.5 1998.7,1794.6 1962.3,1789.3 1926.1,1785.7 1890.3,1783.8 1854.8,1783.7 1819.7,1785.4 1785.1,1789.0 1751.1,1794.5 1717.8,1801.8 1685.1,1811.1 1653.1,1822.3 1621.8,1835.3 1591.4,1850.2 1561.9,1867.0 1533.2,1885.6 1505.4,1906.0 1478.6,1928.0 1452.7,1951.8 1427.9,1977.1 1404.0,2004.0 1381.2,2032.3 1359.4,2061.9 1338.6,2092.8 1318.9,2124.8 1300.2,2157.8 1282.6,2191.7 1266.0,2226.4 1250.5,2261.6 1235.9,2297.4 1222.4,2333.4 1209.8,2369.6  " style="stroke-opacity: 1.000000; stroke-width: 5.0; stroke: rgb(251,106,74); fill: none"  />
<path d="M 2322.8,1904.3 L 2284.4,1885.8 2245.4,1867.8 2205.7,1850.3 2165.5,1833.4 2124.7,1817.1 2083.4,1801.5 2041.6,1786.6 1999.4,1772.5 1956.7,1759.3 1913.6,1746.9 1870.2,1735.4 1826.4,1724.8 1782.3,1715.2 1737.9,1706.6 1693.4,1699.0 1648.6,1692.4 1603.6,1686.8 1558.5,1682.3 1513.3,1678.8 1468.0,1676.4 1422.6,1675.1 1377.3,1674.8 1332.0,1675.6 1286.8,1677.5 1241.6,1680.4 1196.6,1684.3 1151.7,1689.2 1107.1,1695.1 1062.7,1701.9 1018.5,1709.7 974.7,1718.4 931.2,1727.9 888.0,1738.3 845.3,1749.5 803.1,1761.4 761.3,1773.9 720.0,1787.2 679.3,1801.0 639.2,1815.3  " style="stroke-opacity: 1.000000; stroke-width: 5.0; stroke: rgb(251,106,74); fill: none"  />
<path d="M 2322.8,1904.3 L 2283.6,1885.3 2243.8,1866.7 2203.5,1848.5 2162.6,1830.7 2121.3,1813.4 2079.5,1796.7 2037.2,1780.5 1994.5,1764.9 1951.4,1749.9 1907.9,1735.6 1864.1,1722.0 1819.9,1709.1 1775.4,1696.9 1730.6,1685.5 1685.6,1674.9 1640.3,1665.0 1594.8,1655.9 1549.2,1647.7 1503.3,1640.3 1457.4,1633.7 1411.3,1627.9 1365.1,1623.0 1318.9,1618.9 1272.7,1615.6 1226.5,1613.1 1180.3,1611.5 1134.2,1610.7 1088.2,1610.6 1042.3,1611.4 996.5,1612.9 950.9,1615.1 905.6,1618.1 860.5,1621.7 815.6,1626.0 771.1,1631.0 726.9,1636.6 683.1,1642.7 639.7,1649.4 596.7,1656.5  " style="stroke-opacity: 1.000000; stroke-width: 5.0; stroke: rgb(251,106,74); fill: none"  />
<path d="M 599.3,1329.2 L 637.0,1335.9 675.1,1341.6 713.4,1346.4 751.8,1350.0 790.1,1352.4 828.3,1353.6 866.3,1353.4 903.8,1351.8 940.9,1348.7 977.4,1344.1 1013.2,1338.0 1048.3,1330.3 1082.5,1320.9 1115.9,1309.9 1148.2,1297.3 1179.6,1282.9 1209.8,1267.0 1238.8,1249.3 1266.7,1230.1 1293.3,1209.2 1318.7,1186.7 1342.7,1162.7 1365.4,1137.1 1386.8,1110.1 1406.8,1081.7 1425.4,1051.9 1442.6,1020.9 1458.5,988.6 1472.9,955.3 1486.1,920.9 1497.9,885.7 1508.4,849.6 1517.6,812.8 1525.6,775.4 1532.3,737.6 1537.9,699.4 1542.4,661.1 1545.9,622.8 1548.4,584.5  " style="stroke-opacity: 1.000000; stroke-width: 5.0; stroke: rgb(251,106,74); fill: none"  />
<path d="M 599.3,1329.2 L 639.4,1336.3 680.0,1342.7 721.1,1348.2 762.5,1352.7 804.3,1356.2 846.2,1358.6 888.3,1359.9 930.4,1359.9 972.6,1358.8 1014.7,1356.4 1056.8,1352.7 1098.6,1347.6 1140.3,1341.2 1181.6,1333.4 1222.7,1324.2 1263.3,1313.6 1303.6,1301.6 1343.3,1288.2 1382.6,1273.5 1421.2,1257.3 1459.3,1239.7 1496.8,1220.8 1533.6,1200.6 1569.7,1179.1 1605.1,1156.4 1639.7,1132.4 1673.5,1107.3 1706.5,1081.0 1738.6,1053.7 1770.0,1025.4 1800.4,996.2 1830.0,966.2 1858.6,935.3 1886.3,903.8 1913.2,871.6 1939.0,839.0 1964.0,805.9 1988.0,772.5 2011.1,738.9  " style="stroke-opacity: 1.000000; stroke-width: 5.0; stroke: rgb(251,106,74); fill: none"  />
<path d="M 599.3,1329.2 L 640.3,1336.6 681.8,1343.2 723.8,1349.1 766.2,1354.1 808.9,1358.2 851.9,1361.4 895.2,1363.5 938.6,1364.7 982.1,1364.7 1025.8,1363.6 1069.4,1361.4 1113.0,1358.0 1156.6,1353.4 1200.0,1347.6 1243.2,1340.5 1286.3,1332.3 1329.1,1322.8 1371.6,1312.0 1413.8,1300.0 1455.6,1286.8 1497.0,1272.4 1538.0,1256.7 1578.4,1239.9 1618.4,1221.9 1657.9,1202.8 1696.7,1182.6 1735.0,1161.3 1772.6,1139.0 1809.6,1115.8 1845.9,1091.6 1881.6,1066.5 1916.4,1040.6 1950.6,1014.0 1984.0,986.7 2016.5,958.8 2048.3,930.3 2079.3,901.3 2109.5,872.0 2138.8,842.4  " style="stroke-opacity: 1.000000; stroke-width: 5.0; stroke: rgb(251,106,74); fill: none"  />
<path d="M 599.3,1329.2 L 643.1,1337.3 687.3,1345.0 731.8,1352.4 776.6,1359.4 821.7,1365.9 867.1,1372.0 912.8,1377.6 958.6,1382.7 1004.7,1387.3 1051.0,1391.3 1097.5,1394.9 1144.1,1397.8 1190.8,1400.3 1237.7,1402.1 1284.6,1403.3 1331.6,1404.0 1378.7,1404.1 1425.7,1403.5 1472.8,1402.4 1519.9,1400.7 1566.9,1398.3 1613.9,1395.4 1660.9,1391.8 1707.7,1387.7 1754.4,1383.0 1801.0,1377.7 1847.4,1371.8 1893.7,1365.4 1939.7,1358.5 1985.6,1351.0 2031.2,1343.0 2076.6,1334.5 2121.7,1325.6 2166.5,1316.2 2211.0,1306.3 2255.2,1296.1 2299.1,1285.4 2342.5,1274.4 2385.6,1263.1  " style="stroke-opacity: 1.000000; stroke-width: 5.0; stroke: rgb(251,106,74); fill: none"  />
<path d="M 599.3,1329.2 L 645.0,1337.8 690.8,1346.4 736.7,1354.8 782.7,1363.2 828.7,1371.6 874.9,1379.8 921.0,1387.9 967.3,1396.0 1013.6,1403.9 1060.0,1411.8 1106.4,1419.5 1152.9,1427.2 1199.4,1434.7 1246.0,1442.1 1292.6,1449.4 1339.3,1456.6 1385.9,1463.7 1432.7,1470.6 1479.4,1477.4 1526.1,1484.1 1572.9,1490.7 1619.7,1497.2 1666.5,1503.5 1713.2,1509.8 1760.0,1515.9 1806.8,1521.9 1853.6,1527.7 1900.3,1533.5 1947.1,1539.1 1993.8,1544.6 2040.5,1550.0 2087.1,1555.3 2133.7,1560.5 2180.3,1565.6 2226.8,1570.5 2273.3,1575.4 2319.7,1580.2 2366.1,1584.8 2412.4,1589.4  " style="stroke-opacity: 1.000000; stroke-width: 5.0; stroke: rgb(251,106,74); fill: none"  />
<path d="M 1853.6,2345.8 L 1837.1,2305.5 1820.9,2264.7 1805.2,2223.3 1789.9,2181.5 1775.2,2139.2 1761.0,2096.4 1747.4,2053.2 1734.4,2009.7 1722.1,1965.8 1710.4,1921.5 1699.5,1876.9 1689.3,1832.0 1679.8,1786.9 1671.2,1741.5 1663.3,1695.9 1656.2,1650.1 1649.9,1604.1 1644.4,1558.0 1639.8,1511.8 1636.0,1465.5 1633.0,1419.2 1630.9,1372.8 1629.6,1326.5 1629.2,1280.1 1629.5,1233.9 1630.7,1187.7 1632.7,1141.6 1635.4,1095.6 1638.9,1049.9 1643.2,1004.3 1648.2,958.9 1653.9,913.8 1660.3,869.0 1667.3,824.5 1675.0,780.4 1683.2,736.6 1692.0,693.3 1701.3,650.3 1711.1,607.9  " style="stroke-opacity: 1.000000; stroke-width: 5.0; stroke: rgb(251,106,74); fill: none"  />
<path d="M 1853.6,2345.8 L 1837.5,2306.4 1821.9,2266.3 1806.8,2225.7 1792.4,2184.5 1778.6,2142.8 1765.5,2100.7 1753.2,2058.0 1741.7,2015.0 1731.1,1971.6 1721.3,1927.8 1712.5,1883.8 1704.6,1839.4 1697.7,1794.8 1691.8,1750.0 1686.9,1705.1 1683.0,1660.0 1680.2,1614.7 1678.4,1569.4 1677.7,1524.1 1678.1,1478.7 1679.5,1433.4 1682.0,1388.1 1685.5,1343.0 1690.1,1297.9 1695.7,1253.0 1702.3,1208.3 1710.0,1163.9 1718.5,1119.6 1728.1,1075.7 1738.5,1032.1 1749.9,988.9 1762.0,946.0 1775.0,903.6 1788.7,861.7 1803.2,820.2 1818.3,779.3 1834.0,738.9 1850.2,699.1 1867.0,659.9  " style="stroke-opacity: 1.000000; stroke-width: 5.0; stroke: rgb(251,106,74); fill: none"  />
</g>
<g id="track_0">
<path d="M 1548.4,584.5 L 1546.7,620.2 1545.6,655.6 1545.1,690.7 1545.1,725.2 1545.9,758.8 1547.3,791.4 1549.5,822.7 1552.4,852.7 1556.2,881.2 1560.8,907.9 1566.3,932.8 1572.6,955.7 1579.8,976.6 1587.8,995.3 1596.8,1011.8 1606.7,1026.0 1617.4,1037.8 1629.0,1047.1 1641.4,1054.0 1654.7,1058.5 1668.8,1060.4 1683.7,1059.9 1699.4,1056.9 1715.8,1051.5 1732.8,1043.7 1750.5,1033.6 1768.8,1021.2 1787.6,1006.7 1806.9,990.0 1826.7,971.4 1846.8,950.9 1867.1,928.7 1887.7,905.0 1908.4,879.8 1929.2,853.3 1950.0,825.8 1970.6,797.5 1991.0,768.4 2011.1,738.9  " style="stroke-opacity: 1.000000; stroke-width: 5.0; stroke: rgb(107,174,214); fill: none"  />
<path d="M 1548.4,584.5 L 1546.8,620.5 1545.9,656.4 1545.6,692.0 1546.2,727.0 1547.6,761.4 1549.9,794.8 1553.1,827.1 1557.3,858.1 1562.4,887.7 1568.6,915.8 1575.9,942.2 1584.2,966.9 1593.6,989.6 1604.1,1010.3 1615.7,1028.9 1628.4,1045.3 1642.1,1059.6 1656.9,1071.6 1672.8,1081.3 1689.7,1088.7 1707.6,1093.7 1726.5,1096.5 1746.3,1096.9 1767.0,1095.0 1788.6,1090.8 1810.9,1084.5 1833.9,1075.9 1857.6,1065.3 1881.9,1052.7 1906.7,1038.2 1932.0,1021.8 1957.6,1003.8 1983.5,984.2 2009.6,963.1 2035.7,940.9 2061.8,917.5 2087.7,893.1 2113.4,868.0 2138.8,842.4  " style="stroke-opacity: 1.000000; stroke-width: 5.0; stroke: rgb(107,174,214); fill: none"  />
<path d="M 1548.4,584.5 L 1546.8,622.1 1546.2,659.8 1546.6,697.6 1548.1,735.1 1550.7,772.3 1554.6,809.0 1559.7,845.1 1566.1,880.5 1573.9,915.0 1583.0,948.5 1593.6,980.9 1605.7,1012.1 1619.2,1042.1 1634.1,1070.7 1650.5,1097.9 1668.5,1123.5 1687.8,1147.6 1708.6,1170.1 1730.9,1191.0 1754.5,1210.1 1779.5,1227.6 1805.8,1243.3 1833.4,1257.3 1862.3,1269.5 1892.2,1279.9 1923.3,1288.6 1955.4,1295.6 1988.5,1300.9 2022.4,1304.6 2057.1,1306.6 2092.4,1307.1 2128.3,1306.0 2164.7,1303.5 2201.4,1299.7 2238.4,1294.6 2275.4,1288.2 2312.4,1280.8 2349.2,1272.4 2385.6,1263.1  " style="stroke-opacity: 1.000000; stroke-width: 5.0; stroke: rgb(107,174,214); fill: none"  />
<path d="M 1533.9,2416.1 L 1532.5,2380.9 1530.9,2345.9 1529.2,2311.5 1527.3,2277.8 1525.2,2245.1 1523.0,2213.6 1520.5,2183.5 1517.9,2155.0 1515.0,2128.2 1512.0,2103.4 1508.8,2080.6 1505.4,2060.0 1501.8,2041.7 1498.1,2025.8 1494.2,2012.3 1490.0,2001.5 1485.8,1993.2 1481.3,1987.6 1476.8,1984.6 1472.0,1984.4 1467.2,1986.8 1462.2,1991.9 1457.0,1999.7 1451.8,2010.1 1446.5,2023.1 1441.1,2038.5 1435.6,2056.3 1430.0,2076.4 1424.5,2098.8 1418.8,2123.2 1413.2,2149.5 1407.6,2177.5 1402.0,2207.2 1396.4,2238.3 1390.9,2270.6 1385.4,2303.9 1380.1,2337.9 1374.8,2372.6 1369.8,2407.5  " style="stroke-opacity: 1.000000; stroke-width: 5.0; stroke: rgb(107,174,214); fill: none"  />
<path d="M 1711.1,607.9 L 1703.0,642.2 1695.2,676.3 1687.7,710.0 1680.6,743.0 1673.9,775.1 1667.7,806.0 1662.1,835.7 1657.0,863.9 1652.6,890.4 1649.0,915.2 1646.0,938.0 1643.8,958.7 1642.3,977.3 1641.7,993.7 1641.9,1007.7 1643.0,1019.3 1644.9,1028.4 1647.7,1035.0 1651.3,1039.0 1655.8,1040.5 1661.2,1039.5 1667.4,1035.9 1674.4,1029.7 1682.2,1021.1 1690.7,1010.0 1700.1,996.6 1710.1,980.9 1720.8,962.9 1732.1,942.9 1744.0,920.9 1756.4,897.0 1769.3,871.5 1782.6,844.4 1796.3,815.9 1810.2,786.2 1824.3,755.6 1838.5,724.2 1852.8,692.2 1867.0,659.9  " style="stroke-opacity: 1.000000; stroke-width: 5.0; stroke: rgb(107,174,214); fill: none"  />
<path d="M 1711.1,607.9 L 1703.1,642.6 1695.6,677.3 1688.8,711.8 1682.8,745.7 1677.5,778.9 1673.1,811.2 1669.6,842.5 1667.2,872.5 1665.8,901.1 1665.6,928.3 1666.5,953.7 1668.6,977.4 1671.9,999.3 1676.5,1019.1 1682.4,1036.9 1689.6,1052.6 1698.0,1066.1 1707.8,1077.4 1718.8,1086.4 1731.1,1093.2 1744.6,1097.6 1759.4,1099.8 1775.3,1099.6 1792.4,1097.2 1810.6,1092.6 1829.8,1085.8 1850.0,1076.9 1871.1,1066.0 1893.1,1053.0 1915.8,1038.2 1939.2,1021.7 1963.2,1003.5 1987.7,983.8 2012.6,962.7 2037.8,940.4 2063.1,917.0 2088.5,892.8 2113.7,867.8 2138.8,842.4  " style="stroke-opacity: 1.000000; stroke-width: 5.0; stroke: rgb(107,174,214); fill: none"  />
<path d="M 1711.1,607.9 L 1702.8,644.6 1695.5,681.6 1689.2,718.8 1683.9,756.0 1679.9,793.0 1677.1,829.9 1675.7,866.3 1675.7,902.2 1677.2,937.6 1680.2,972.2 1684.8,1006.0 1691.1,1038.8 1699.0,1070.7 1708.6,1101.5 1719.9,1131.2 1733.0,1159.7 1747.7,1186.8 1764.2,1212.7 1782.3,1237.2 1802.2,1260.3 1823.7,1281.9 1846.8,1302.0 1871.4,1320.7 1897.6,1337.8 1925.2,1353.5 1954.3,1367.6 1984.6,1380.2 2016.2,1391.3 2048.9,1401.0 2082.6,1409.2 2117.3,1415.9 2152.9,1421.3 2189.1,1425.4 2225.9,1428.2 2263.2,1429.7 2300.7,1430.1 2338.5,1429.4 2376.2,1427.7 2413.7,1425.1  " style="stroke-opacity: 1.000000; stroke-width: 5.0; stroke: rgb(107,174,214); fill: none"  />
<path d="M 1369.8,2407.5 L 1374.7,2372.5 1379.4,2337.8 1383.8,2303.6 1388.0,2270.2 1391.8,2237.6 1395.2,2206.2 1398.1,2176.2 1400.6,2147.7 1402.6,2120.8 1404.1,2095.8 1405.0,2072.9 1405.3,2052.0 1405.1,2033.3 1404.2,2017.0 1402.8,2003.1 1400.7,1991.6 1397.9,1982.7 1394.6,1976.4 1390.6,1972.7 1386.0,1971.6 1380.8,1973.1 1374.9,1977.3 1368.5,1984.0 1361.5,1993.3 1354.0,2005.1 1345.9,2019.3 1337.3,2035.9 1328.2,2054.7 1318.8,2075.7 1308.9,2098.6 1298.6,2123.5 1288.1,2150.1 1277.3,2178.3 1266.2,2207.9 1255.0,2238.7 1243.7,2270.5 1232.4,2303.1 1221.1,2336.2 1209.8,2369.6  " style="stroke-opacity: 1.000000; stroke-width: 5.0; stroke: rgb(107,174,214); fill: none"  />
<path d="M 1867.0,659.9 L 1852.8,692.2 1838.5,724.2 1824.3,755.6 1810.2,786.2 1796.3,815.9 1782.6,844.4 1769.3,871.5 1756.4,897.0 1744.0,920.9 1732.1,942.9 1720.8,962.9 1710.1,980.9 1700.1,996.6 1690.7,1010.0 1682.2,1021.1 1674.4,1029.7 1667.4,1035.9 1661.2,1039.5 1655.8,1040.5 1651.3,1039.0 1647.7,1035.0 1644.9,1028.4 1643.0,1019.3 1641.9,1007.7 1641.7,993.7 1642.3,977.3 1643.8,958.7 1646.0,938.0 1649.0,915.2 1652.6,890.4 1657.0,863.9 1662.1,835.7 1667.7,806.0 1673.9,775.1 1680.6,743.0 1687.7,710.0 1695.2,676.3 1703.0,642.2 1711.1,607.9  " style="stroke-opacity: 1.000000; stroke-width: 5.0; stroke: rgb(107,174,214); fill: none"  />
<path d="M 1867.0,659.9 L 1852.9,692.4 1839.3,724.9 1826.3,757.0 1813.8,788.7 1802.2,819.7 1791.4,849.8 1781.6,878.8 1772.8,906.7 1765.2,933.2 1758.7,958.2 1753.6,981.7 1749.7,1003.4 1747.2,1023.2 1746.2,1041.2 1746.6,1057.2 1748.4,1071.1 1751.7,1082.9 1756.6,1092.6 1762.9,1100.0 1770.7,1105.3 1780.0,1108.3 1790.8,1109.1 1803.0,1107.8 1816.6,1104.2 1831.5,1098.5 1847.7,1090.7 1865.2,1080.9 1883.8,1069.1 1903.6,1055.5 1924.3,1040.1 1946.0,1023.0 1968.4,1004.3 1991.6,984.2 2015.4,962.8 2039.7,940.3 2064.3,916.9 2089.1,892.6 2114.0,867.7 2138.8,842.4  " style="stroke-opacity: 1.000000; stroke-width: 5.0; stroke: rgb(107,174,214); fill: none"  />
<path d="M 1867.0,659.9 L 1852.5,694.0 1838.9,728.4 1826.2,763.1 1814.5,797.8 1804.0,832.4 1794.8,866.9 1787.0,901.1 1780.7,934.8 1776.0,967.9 1772.9,1000.5 1771.5,1032.2 1771.9,1063.2 1774.0,1093.2 1778.1,1122.2 1784.0,1150.1 1791.9,1176.9 1801.7,1202.5 1813.4,1226.9 1827.0,1250.0 1842.5,1271.7 1859.9,1292.0 1879.2,1311.0 1900.2,1328.5 1923.0,1344.7 1947.5,1359.3 1973.7,1372.6 2001.3,1384.4 2030.5,1394.8 2061.0,1403.7 2092.8,1411.3 2125.7,1417.6 2159.6,1422.5 2194.5,1426.2 2230.1,1428.7 2266.2,1430.0 2302.9,1430.2 2339.8,1429.4 2376.8,1427.7 2413.7,1425.1  " style="stroke-opacity: 1.000000; stroke-width: 5.0; stroke: rgb(107,174,214); fill: none"  />
<path d="M 2011.1,738.9 L 1991.0,768.4 1970.6,797.5 1950.0,825.8 1929.2,853.3 1908.4,879.8 1887.7,905.0 1867.1,928.7 1846.8,950.9 1826.7,971.4 1806.9,990.0 1787.6,1006.7 1768.8,1021.2 1750.5,1033.6 1732.8,1043.7 1715.8,1051.5 1699.4,1056.9 1683.7,1059.9 1668.8,1060.4 1654.7,1058.5 1641.4,1054.0 1629.0,1047.1 1617.4,1037.8 1606.7,1026.0 1596.8,1011.8 1587.8,995.3 1579.8,976.6 1572.6,955.7 1566.3,932.8 1560.8,907.9 1556.2,881.2 1552.4,852.7 1549.5,822.7 1547.3,791.4 1545.9,758.8 1545.1,725.2 1545.1,690.7 1545.6,655.6 1546.7,620.2 1548.4,584.5  " style="stroke-opacity: 1.000000; stroke-width: 5.0; stroke: rgb(107,174,214); fill: none"  />
<path d="M 2011.1,738.9 L 1991.5,768.3 1972.2,797.5 1953.3,826.3 1935.1,854.7 1917.5,882.4 1900.9,909.2 1885.2,935.0 1870.5,959.6 1857.1,982.9 1845.0,1004.8 1834.2,1025.1 1824.8,1043.8 1816.9,1060.7 1810.6,1075.8 1805.9,1088.9 1802.8,1100.2 1801.4,1109.4 1801.7,1116.5 1803.7,1121.6 1807.3,1124.6 1812.7,1125.5 1819.8,1124.3 1828.5,1121.0 1838.8,1115.6 1850.7,1108.3 1864.2,1099.0 1879.1,1087.8 1895.4,1074.8 1913.1,1060.0 1931.9,1043.6 1952.0,1025.6 1973.0,1006.2 1995.0,985.5 2017.8,963.6 2041.2,940.7 2065.2,917.0 2089.6,892.6 2114.1,867.7 2138.8,842.4  " style="stroke-opacity: 1.000000; stroke-width: 5.0; stroke: rgb(107,174,214); fill: none"  />
<path d="M 2011.1,738.9 L 1991.3,769.0 1972.0,799.3 1953.6,829.8 1936.1,860.1 1919.7,890.3 1904.5,920.2 1890.7,949.5 1878.4,978.3 1867.6,1006.4 1858.5,1033.7 1851.2,1060.1 1845.7,1085.5 1842.2,1109.8 1840.6,1133.0 1841.0,1154.9 1843.4,1175.5 1847.9,1194.8 1854.5,1212.7 1863.1,1229.2 1873.8,1244.2 1886.6,1257.8 1901.4,1269.8 1918.2,1280.3 1937.0,1289.3 1957.6,1296.7 1980.0,1302.7 2004.2,1307.2 2030.0,1310.3 2057.3,1311.9 2086.1,1312.1 2116.1,1311.1 2147.4,1308.7 2179.6,1305.2 2212.8,1300.5 2246.7,1294.8 2281.1,1288.1 2315.8,1280.5 2350.7,1272.1 2385.6,1263.1  " style="stroke-opacity: 1.000000; stroke-width: 5.0; stroke: rgb(107,174,214); fill: none"  />
<path d="M 2011.1,738.9 L 1990.8,769.9 1971.2,801.3 1952.5,833.1 1934.8,865.2 1918.3,897.5 1903.1,929.7 1889.4,961.9 1877.1,994.0 1866.5,1025.8 1857.7,1057.2 1850.6,1088.2 1845.5,1118.7 1842.3,1148.7 1841.1,1177.9 1842.0,1206.5 1844.9,1234.3 1849.9,1261.2 1857.1,1287.2 1866.4,1312.4 1877.8,1336.5 1891.3,1359.6 1906.8,1381.7 1924.4,1402.8 1944.0,1422.7 1965.5,1441.5 1988.8,1459.2 2013.9,1475.7 2040.8,1491.2 2069.2,1505.5 2099.1,1518.6 2130.4,1530.6 2162.9,1541.6 2196.5,1551.4 2231.1,1560.2 2266.4,1568.0 2302.4,1574.7 2338.9,1580.5 2375.6,1585.4 2412.4,1589.4  " style="stroke-opacity: 1.000000; stroke-width: 5.0; stroke: rgb(107,174,214); fill: none"  />
<path d="M 2138.8,842.4 L 2113.4,868.0 2087.7,893.1 2061.8,917.5 2035.7,940.9 2009.6,963.1 1983.5,984.2 1957.6,1003.8 1932.0,1021.8 1906.7,1038.2 1881.9,1052.7 1857.6,1065.3 1833.9,1075.9 1810.9,1084.5 1788.6,1090.8 1767.0,1095.0 1746.3,1096.9 1726.5,1096.5 1707.6,1093.7 1689.7,1088.7 1672.8,1081.3 1656.9,1071.6 1642.1,1059.6 1628.4,1045.3 1615.7,1028.9 1604.1,1010.3 1593.6,989.6 1584.2,966.9 1575.9,942.2 1568.6,915.8 1562.4,887.7 1557.3,858.1 1553.1,827.1 1549.9,794.8 1547.6,761.4 1546.2,727.0 1545.6,692.0 1545.9,656.4 1546.8,620.5 1548.4,584.5  " style="stroke-opacity: 1.000000; stroke-width: 5.0; stroke: rgb(107,174,214); fill: none"  />
<path d="M 2138.8,842.4 L 2113.7,867.8 2088.5,892.8 2063.1,917.0 2037.8,940.4 2012.6,962.7 1987.7,983.8 1963.2,1003.5 1939.2,1021.7 1915.8,1038.2 1893.1,1053.0 1871.1,1066.0 1850.0,1076.9 1829.8,1085.8 1810.6,1092.6 1792.4,1097.2 1775.3,1099.6 1759.4,1099.8 1744.6,1097.6 1731.1,1093.2 1718.8,1086.4 1707.8,1077.4 1698.0,1066.1 1689.6,1052.6 1682.4,1036.9 1676.5,1019.1 1671.9,999.3 1668.6,977.4 1666.5,953.7 1665.6,928.3 1665.8,901.1 1667.2,872.5 1669.6,842.5 1673.1,811.2 1677.5,778.9 1682.8,745.7 1688.8,711.8 1695.6,677.3 1703.1,642.6 1711.1,607.9  " style="stroke-opacity: 1.000000; stroke-width: 5.0; stroke: rgb(107,174,214); fill: none"  />
<path d="M 2138.8,842.4 L 2114.0,867.7 2089.1,892.6 2064.3,916.9 2039.7,940.3 2015.4,962.8 1991.6,984.2 1968.4,1004.3 1946.0,1023.0 1924.3,1040.1 1903.6,1055.5 1883.8,1069.1 1865.2,1080.9 1847.7,1090.7 1831.5,1098.5 1816.6,1104.2 1803.0,1107.8 1790.8,1109.1 1780.0,1108.3 1770.7,1105.3 1762.9,1100.0 1756.6,1092.6 1751.7,1082.9 1748.4,1071.1 1746.6,1057.2 1746.2,1041.2 1747.2,1023.2 1749.7,1003.4 1753.6,981.7 1758.7,958.2 1765.2,933.2 1772.8,906.7 1781.6,878.8 1791.4,849.8 1802.2,819.7 1813.8,788.7 1826.3,757.0 1839.3,724.9 1852.9,692.4 1867.0,659.9  " style="stroke-opacity: 1.000000; stroke-width: 5.0; stroke: rgb(107,174,214); fill: none"  />
<path d="M 2138.8,842.4 L 2113.9,868.5 2089.6,894.9 2066.0,921.5 2043.4,948.3 2021.8,975.1 2001.6,1001.7 1982.7,1028.2 1965.4,1054.3 1949.8,1080.0 1936.0,1105.2 1924.1,1129.9 1914.2,1153.9 1906.3,1177.2 1900.6,1199.7 1897.1,1221.3 1895.8,1242.1 1896.8,1261.9 1900.1,1280.6 1905.6,1298.4 1913.5,1315.1 1923.7,1330.7 1936.1,1345.2 1950.7,1358.5 1967.6,1370.7 1986.5,1381.7 2007.5,1391.6 2030.5,1400.3 2055.3,1407.9 2081.9,1414.4 2110.2,1419.8 2140.0,1424.1 2171.1,1427.4 2203.5,1429.7 2237.0,1431.0 2271.3,1431.4 2306.3,1430.9 2341.9,1429.7 2377.8,1427.7 2413.7,1425.1  " style="stroke-opacity: 1.000000; stroke-width: 5.0; stroke: rgb(107,174,214); fill: none"  />
<path d="M 1209.8,2369.6 L 1221.1,2336.2 1232.4,2303.1 1243.7,2270.5 1255.0,2238.7 1266.2,2207.9 1277.3,2178.3 1288.1,2150.1 1298.6,2123.5 1308.9,2098.6 1318.8,2075.7 1328.2,2054.7 1337.3,2035.9 1345.9,2019.3 1354.0,2005.1 1361.5,1993.3 1368.5,1984.0 1374.9,1977.3 1380.8,1973.1 1386.0,1971.6 1390.6,1972.7 1394.6,1976.4 1397.9,1982.7 1400.7,1991.6 1402.8,2003.1 1404.2,2017.0 1405.1,2033.3 1405.3,2052.0 1405.0,2072.9 1404.1,2095.8 1402.6,2120.8 1400.6,2147.7 1398.1,2176.2 1395.2,2206.2 1391.8,2237.6 1388.0,2270.2 1383.8,2303.6 1379.4,2337.8 1374.7,2372.5 1369.8,2407.5  " style="stroke-opacity: 1.000000; stroke-width: 5.0; stroke: rgb(107,174,214); fill: none"  />
<path d="M 1209.8,2369.6 L 1220.9,2336.1 1231.7,2302.8 1242.2,2270.0 1252.3,2237.8 1261.8,2206.4 1270.8,2176.2 1279.0,2147.1 1286.6,2119.5 1293.3,2093.5 1299.2,2069.1 1304.2,2046.7 1308.3,2026.2 1311.4,2007.8 1313.5,1991.6 1314.5,1977.6 1314.5,1966.0 1313.4,1956.7 1311.2,1949.9 1308.0,1945.6 1303.6,1943.7 1298.2,1944.2 1291.7,1947.3 1284.2,1952.8 1275.6,1960.7 1266.1,1970.9 1255.6,1983.4 1244.2,1998.2 1232.0,2015.1 1218.9,2034.0 1205.1,2054.9 1190.5,2077.5 1175.4,2101.8 1159.7,2127.7 1143.6,2154.8 1127.1,2183.1 1110.3,2212.3 1093.3,2242.4 1076.2,2272.9 1059.2,2303.8  " style="stroke-opacity: 1.000000; stroke-width: 5.0; stroke: rgb(107,174,214); fill: none"  />
<path d="M 1209.8,2369.6 L 1221.0,2334.9 1231.5,2300.0 1241.0,2265.1 1249.6,2230.4 1257.1,2195.9 1263.4,2162.0 1268.3,2128.7 1272.0,2096.2 1274.1,2064.5 1274.8,2033.9 1273.8,2004.4 1271.3,1976.1 1267.1,1949.1 1261.2,1923.5 1253.6,1899.5 1244.2,1876.9 1233.1,1856.0 1220.3,1836.8 1205.8,1819.2 1189.5,1803.4 1171.5,1789.3 1151.9,1777.1 1130.7,1766.6 1107.9,1757.9 1083.6,1751.0 1057.9,1745.8 1030.8,1742.4 1002.4,1740.7 972.9,1740.6 942.3,1742.2 910.7,1745.3 878.3,1749.8 845.1,1755.8 811.4,1763.0 777.2,1771.5 742.7,1781.1 708.1,1791.7 673.5,1803.1 639.2,1815.3  " style="stroke-opacity: 1.000000; stroke-width: 5.0; stroke: rgb(107,174,214); fill: none"  />
<path d="M 1209.8,2369.6 L 1221.5,2333.1 1232.3,2296.2 1242.2,2258.9 1250.9,2221.3 1258.5,2183.6 1264.7,2145.9 1269.6,2108.3 1273.1,2070.9 1275.0,2033.7 1275.4,1997.0 1274.1,1960.6 1271.2,1924.8 1266.5,1889.6 1260.1,1855.1 1251.9,1821.4 1241.9,1788.4 1230.1,1756.3 1216.6,1725.1 1201.2,1694.9 1184.1,1665.8 1165.2,1637.6 1144.6,1610.6 1122.3,1584.6 1098.4,1559.9 1073.0,1536.2 1046.0,1513.8 1017.5,1492.6 987.7,1472.5 956.6,1453.7 924.3,1436.1 890.9,1419.6 856.6,1404.4 821.4,1390.3 785.4,1377.4 748.8,1365.6 711.8,1355.0 674.4,1345.3 636.9,1336.8 599.3,1329.2  " style="stroke-opacity: 1.000000; stroke-width: 5.0; stroke: rgb(107,174,214); fill: none"  />
<path d="M 2245.9,967.0 L 2216.0,988.9 2186.7,1011.4 2158.0,1034.7 2130.2,1058.5 2103.4,1082.9 2077.8,1107.7 2053.6,1133.1 2030.9,1158.8 2009.8,1184.8 1990.5,1211.1 1973.0,1237.7 1957.4,1264.4 1943.9,1291.3 1932.5,1318.3 1923.3,1345.3 1916.3,1372.4 1911.5,1399.4 1909.1,1426.3 1908.9,1453.1 1911.1,1479.7 1915.6,1506.1 1922.4,1532.2 1931.5,1558.1 1942.8,1583.6 1956.3,1608.8 1972.0,1633.5 1989.7,1657.9 2009.4,1681.7 2031.0,1705.1 2054.3,1727.9 2079.4,1750.2 2106.0,1771.8 2134.0,1792.9 2163.3,1813.2 2193.7,1832.9 2225.0,1851.9 2257.1,1870.1 2289.8,1887.6 2322.8,1904.3  " style="stroke-opacity: 1.000000; stroke-width: 5.0; stroke: rgb(107,174,214); fill: none"  />
<path d="M 2329.1,1108.8 L 2297.2,1123.9 2265.7,1139.1 2234.7,1154.2 2204.5,1169.2 2175.2,1184.0 2147.1,1198.4 2120.4,1212.5 2095.3,1226.2 2071.8,1239.3 2050.1,1251.8 2030.4,1263.7 2012.8,1274.9 1997.4,1285.4 1984.2,1295.1 1973.4,1304.0 1965.0,1312.1 1959.1,1319.2 1955.7,1325.5 1954.8,1330.9 1956.4,1335.4 1960.5,1338.9 1967.2,1341.5 1976.4,1343.1 1988.0,1343.8 2002.0,1343.6 2018.3,1342.5 2036.9,1340.6 2057.6,1337.8 2080.3,1334.1 2104.9,1329.7 2131.3,1324.6 2159.3,1318.7 2188.8,1312.2 2219.6,1305.1 2251.5,1297.5 2284.2,1289.4 2317.6,1280.9 2351.5,1272.1 2385.6,1263.1  " style="stroke-opacity: 1.000000; stroke-width: 5.0; stroke: rgb(107,174,214); fill: none"  />
<path d="M 2329.1,1108.8 L 2296.9,1124.2 2265.2,1140.0 2234.0,1156.2 2203.7,1172.6 2174.4,1189.1 2146.4,1205.9 2119.8,1222.6 2094.8,1239.5 2071.6,1256.3 2050.2,1273.0 2030.9,1289.6 2013.7,1306.0 1998.7,1322.2 1986.0,1338.2 1975.8,1353.9 1968.0,1369.3 1962.7,1384.3 1959.9,1399.0 1959.7,1413.2 1962.1,1427.0 1967.1,1440.4 1974.6,1453.2 1984.7,1465.6 1997.2,1477.5 2012.1,1488.8 2029.4,1499.6 2049.0,1509.8 2070.7,1519.5 2094.5,1528.6 2120.3,1537.2 2147.8,1545.2 2177.0,1552.6 2207.7,1559.5 2239.7,1565.8 2272.8,1571.5 2306.9,1576.8 2341.7,1581.5 2376.9,1585.7 2412.4,1589.4  " style="stroke-opacity: 1.000000; stroke-width: 5.0; stroke: rgb(107,174,214); fill: none"  />
<path d="M 2385.6,1263.1 L 2349.2,1272.4 2312.4,1280.8 2275.4,1288.2 2238.4,1294.6 2201.4,1299.7 2164.7,1303.5 2128.3,1306.0 2092.4,1307.1 2057.1,1306.6 2022.4,1304.6 1988.5,1300.9 1955.4,1295.6 1923.3,1288.6 1892.2,1279.9 1862.3,1269.5 1833.4,1257.3 1805.8,1243.3 1779.5,1227.6 1754.5,1210.1 1730.9,1191.0 1708.6,1170.1 1687.8,1147.6 1668.5,1123.5 1650.5,1097.9 1634.1,1070.7 1619.2,1042.1 1605.7,1012.1 1593.6,980.9 1583.0,948.5 1573.9,915.0 1566.1,880.5 1559.7,845.1 1554.6,809.0 1550.7,772.3 1548.1,735.1 1546.6,697.6 1546.2,659.8 1546.8,622.1 1548.4,584.5  " style="stroke-opacity: 1.000000; stroke-width: 5.0; stroke: rgb(107,174,214); fill: none"  />
<path d="M 2385.6,1263.1 L 2350.7,1272.1 2315.8,1280.5 2281.1,1288.1 2246.7,1294.8 2212.8,1300.5 2179.6,1305.2 2147.4,1308.7 2116.1,1311.1 2086.1,1312.1 2057.3,1311.9 2030.0,1310.3 2004.2,1307.2 1980.0,1302.7 1957.6,1296.7 1937.0,1289.3 1918.2,1280.3 1901.4,1269.8 1886.6,1257.8 1873.8,1244.2 1863.1,1229.2 1854.5,1212.7 1847.9,1194.8 1843.4,1175.5 1841.0,1154.9 1840.6,1133.0 1842.2,1109.8 1845.7,1085.5 1851.2,1060.1 1858.5,1033.7 1867.6,1006.4 1878.4,978.3 1890.7,949.5 1904.5,920.2 1919.7,890.3 1936.1,860.1 1953.6,829.8 1972.0,799.3 1991.3,769.0 2011.1,738.9  " style="stroke-opacity: 1.000000; stroke-width: 5.0; stroke: rgb(107,174,214); fill: none"  />
<path d="M 2385.6,1263.1 L 2351.5,1272.1 2317.6,1280.9 2284.2,1289.4 2251.5,1297.5 2219.6,1305.1 2188.8,1312.2 2159.3,1318.7 2131.3,1324.6 2104.9,1329.7 2080.3,1334.1 2057.6,1337.8 2036.9,1340.6 2018.3,1342.5 2002.0,1343.6 1988.0,1343.8 1976.4,1343.1 1967.2,1341.5 1960.5,1338.9 1956.4,1335.4 1954.8,1330.9 1955.7,1325.5 1959.1,1319.2 1965.0,1312.1 1973.4,1304.0 1984.2,1295.1 1997.4,1285.4 2012.8,1274.9 2030.4,1263.7 2050.1,1251.8 2071.8,1239.3 2095.3,1226.2 2120.4,1212.5 2147.1,1198.4 2175.2,1184.0 2204.5,1169.2 2234.7,1154.2 2265.7,1139.1 2297.2,1123.9 2329.1,1108.8  " style="stroke-opacity: 1.000000; stroke-width: 5.0; stroke: rgb(107,174,214); fill: none"  />
<path d="M 2385.6,1263.1 L 2351.4,1272.4 2317.6,1282.0 2284.3,1291.8 2251.8,1301.9 2220.3,1312.1 2190.0,1322.4 2161.2,1332.9 2134.0,1343.4 2108.5,1353.9 2084.9,1364.5 2063.3,1375.1 2044.0,1385.6 2026.9,1396.0 2012.2,1406.4 1999.9,1416.7 1990.2,1426.8 1983.1,1436.8 1978.5,1446.6 1976.6,1456.2 1977.4,1465.6 1980.8,1474.7 1986.9,1483.7 1995.6,1492.3 2006.8,1500.7 2020.6,1508.9 2036.8,1516.7 2055.4,1524.2 2076.2,1531.5 2099.1,1538.4 2124.1,1545.0 2151.0,1551.2 2179.6,1557.2 2209.8,1562.8 2241.3,1568.0 2274.0,1573.0 2307.7,1577.6 2342.2,1581.8 2377.1,1585.8 2412.4,1589.4  " style="stroke-opacity: 1.000000; stroke-width: 5.0; stroke: rgb(107,174,214); fill: none"  />
<path d="M 2413.7,1425.1 L 2376.2,1427.7 2338.5,1429.4 2300.7,1430.1 2263.2,1429.7 2225.9,1428.2 2189.1,1425.4 2152.9,1421.3 2117.3,1415.9 2082.6,1409.2 2048.9,1401.0 2016.2,1391.3 1984.6,1380.2 1954.3,1367.6 1925.2,1353.5 1897.6,1337.8 1871.4,1320.7 1846.8,1302.0 1823.7,1281.9 1802.2,1260.3 1782.3,1237.2 1764.2,1212.7 1747.7,1186.8 1733.0,1159.7 1719.9,1131.2 1708.6,1101.5 1699.0,1070.7 1691.1,1038.8 1684.8,1006.0 1680.2,972.2 1677.2,937.6 1675.7,902.2 1675.7,866.3 1677.1,829.9 1679.9,793.0 1683.9,756.0 1689.2,718.8 1695.5,681.6 1702.8,644.6 1711.1,607.9  " style="stroke-opacity: 1.000000; stroke-width: 5.0; stroke: rgb(107,174,214); fill: none"  />
<path d="M 2413.7,1425.1 L 2376.8,1427.7 2339.8,1429.4 2302.9,1430.2 2266.2,1430.0 2230.1,1428.7 2194.5,1426.2 2159.6,1422.5 2125.7,1417.6 2092.8,1411.3 2061.0,1403.7 2030.5,1394.8 2001.3,1384.4 1973.7,1372.6 1947.5,1359.3 1923.0,1344.7 1900.2,1328.5 1879.2,1311.0 1859.9,1292.0 1842.5,1271.7 1827.0,1250.0 1813.4,1226.9 1801.7,1202.5 1791.9,1176.9 1784.0,1150.1 1778.1,1122.2 1774.0,1093.2 1771.9,1063.2 1771.5,1032.2 1772.9,1000.5 1776.0,967.9 1780.7,934.8 1787.0,901.1 1794.8,866.9 1804.0,832.4 1814.5,797.8 1826.2,763.1 1838.9,728.4 1852.5,694.0 1867.0,659.9  " style="stroke-opacity: 1.000000; stroke-width: 5.0; stroke: rgb(107,174,214); fill: none"  />
<path d="M 2413.7,1425.1 L 2377.8,1427.7 2341.9,1429.7 2306.3,1430.9 2271.3,1431.4 2237.0,1431.0 2203.5,1429.7 2171.1,1427.4 2140.0,1424.1 2110.2,1419.8 2081.9,1414.4 2055.3,1407.9 2030.5,1400.3 2007.5,1391.6 1986.5,1381.7 1967.6,1370.7 1950.7,1358.5 1936.1,1345.2 1923.7,1330.7 1913.5,1315.1 1905.6,1298.4 1900.1,1280.6 1896.8,1261.9 1895.8,1242.1 1897.1,1221.3 1900.6,1199.7 1906.3,1177.2 1914.2,1153.9 1924.1,1129.9 1936.0,1105.2 1949.8,1080.0 1965.4,1054.3 1982.7,1028.2 2001.6,1001.7 2021.8,975.1 2043.4,948.3 2066.0,921.5 2089.6,894.9 2113.9,868.5 2138.8,842.4  " style="stroke-opacity: 1.000000; stroke-width: 5.0; stroke: rgb(107,174,214); fill: none"  />
<path d="M 2412.4,1589.4 L 2376.9,1585.7 2341.7,1581.5 2306.9,1576.8 2272.8,1571.5 2239.7,1565.8 2207.7,1559.5 2177.0,1552.6 2147.8,1545.2 2120.3,1537.2 2094.5,1528.6 2070.7,1519.5 2049.0,1509.8 2029.4,1499.6 2012.1,1488.8 1997.2,1477.5 1984.7,1465.6 1974.6,1453.2 1967.1,1440.4 1962.1,1427.0 1959.7,1413.2 1959.9,1399.0 1962.7,1384.3 1968.0,1369.3 1975.8,1353.9 1986.0,1338.2 1998.7,1322.2 2013.7,1306.0 2030.9,1289.6 2050.2,1273.0 2071.6,1256.3 2094.8,1239.5 2119.8,1222.6 2146.4,1205.9 2174.4,1189.1 2203.7,1172.6 2234.0,1156.2 2265.2,1140.0 2296.9,1124.2 2329.1,1108.8  " style="stroke-opacity: 1.000000; stroke-width: 5.0; stroke: rgb(107,174,214); fill: none"  />
<path d="M 2412.4,1589.4 L 2377.1,1585.8 2342.2,1581.8 2307.7,1577.6 2274.0,1573.0 2241.3,1568.0 2209.8,1562.8 2179.6,1557.2 2151.0,1551.2 2124.1,1545.0 2099.1,1538.4 2076.2,1531.5 2055.4,1524.2 2036.8,1516.7 2020.6,1508.9 2006.8,1500.7 1995.6,1492.3 1986.9,1483.7 1980.8,1474.7 1977.4,1465.6 1976.6,1456.2 1978.5,1446.6 1983.1,1436.8 1990.2,1426.8 1999.9,1416.7 2012.2,1406.4 2026.9,1396.0 2044.0,1385.6 2063.3,1375.1 2084.9,1364.5 2108.5,1353.9 2134.0,1343.4 2161.2,1332.9 2190.0,1322.4 2220.3,1312.1 2251.8,1301.9 2284.3,1291.8 2317.6,1282.0 2351.4,1272.4 2385.6,1263.1  " style="stroke-opacity: 1.000000; stroke-width: 5.0; stroke: rgb(107,174,214); fill: none"  />
<path d="M 2412.4,1589.4 L 2377.3,1586.0 2342.4,1582.9 2308.0,1580.0 2274.4,1577.3 2241.7,1575.0 2210.2,1573.0 2180.1,1571.4 2151.5,1570.2 2124.6,1569.4 2099.5,1569.1 2076.5,1569.2 2055.7,1569.8 2037.0,1570.9 2020.8,1572.5 2006.9,1574.6 1995.6,1577.2 1986.8,1580.3 1980.6,1583.9 1977.1,1588.1 1976.2,1592.7 1978.0,1597.9 1982.4,1603.5 1989.4,1609.6 1999.0,1616.2 2011.1,1623.2 2025.7,1630.7 2042.6,1638.5 2061.8,1646.7 2083.2,1655.2 2106.6,1664.1 2131.9,1673.2 2159.0,1682.5 2187.6,1692.1 2217.7,1701.8 2248.9,1711.6 2281.2,1721.4 2314.3,1731.3 2347.9,1741.1 2381.8,1750.9  " style="stroke-opacity: 1.000000; stroke-width: 5.0; stroke: rgb(107,174,214); fill: none"  />
<path d="M 2381.8,1750.9 L 2344.3,1739.7 2306.9,1727.6 2269.7,1714.4 2232.7,1700.2 2196.2,1684.8 2160.3,1668.4 2125.1,1650.8 2090.6,1632.1 2057.1,1612.2 2024.5,1591.2 1993.1,1569.0 1962.8,1545.7 1933.7,1521.2 1906.0,1495.7 1879.7,1469.0 1854.8,1441.2 1831.4,1412.4 1809.6,1382.5 1789.3,1351.7 1770.6,1319.8 1753.5,1287.1 1738.1,1253.4 1724.4,1218.9 1712.3,1183.7 1701.8,1147.7 1693.0,1111.0 1685.8,1073.7 1680.3,1035.9 1676.3,997.6 1673.8,959.0 1672.8,920.0 1673.3,880.8 1675.1,841.5 1678.3,802.1 1682.7,762.7 1688.2,723.5 1694.9,684.6 1702.5,646.0 1711.1,607.9  " style="stroke-opacity: 1.000000; stroke-width: 5.0; stroke: rgb(107,174,214); fill: none"  />
<path d="M 2381.8,1750.9 L 2346.8,1740.6 2312.1,1729.5 2277.9,1717.7 2244.3,1705.2 2211.7,1692.0 2180.1,1678.0 2149.8,1663.3 2120.9,1648.0 2093.5,1631.9 2067.9,1615.1 2044.0,1597.7 2022.1,1579.7 2002.2,1561.0 1984.4,1541.7 1968.8,1521.8 1955.5,1501.4 1944.5,1480.5 1935.8,1459.0 1929.5,1437.1 1925.7,1414.7 1924.2,1392.0 1925.1,1368.8 1928.5,1345.4 1934.1,1321.7 1942.1,1297.7 1952.4,1273.6 1964.8,1249.3 1979.4,1224.9 1996.0,1200.5 2014.6,1176.1 2034.9,1151.7 2057.0,1127.5 2080.6,1103.5 2105.6,1079.8 2131.9,1056.3 2159.2,1033.2 2187.5,1010.6 2216.5,988.5 2245.9,967.0  " style="stroke-opacity: 1.000000; stroke-width: 5.0; stroke: rgb(107,174,214); fill: none"  />
<path d="M 2381.8,1750.9 L 2347.2,1740.7 2312.9,1730.0 2279.2,1718.7 2246.2,1706.8 2214.2,1694.3 2183.4,1681.3 2153.8,1667.8 2125.8,1653.8 2099.4,1639.3 2074.9,1624.4 2052.3,1608.9 2031.7,1593.1 2013.2,1576.8 1997.1,1560.2 1983.2,1543.2 1971.7,1525.9 1962.7,1508.3 1956.1,1490.3 1952.1,1472.2 1950.6,1453.8 1951.6,1435.2 1955.2,1416.5 1961.2,1397.6 1969.7,1378.6 1980.6,1359.6 1993.9,1340.6 2009.4,1321.5 2027.1,1302.5 2046.9,1283.6 2068.7,1264.9 2092.4,1246.3 2117.7,1227.9 2144.7,1209.7 2173.0,1191.9 2202.6,1174.4 2233.2,1157.3 2264.6,1140.6 2296.6,1124.4 2329.1,1108.8  " style="stroke-opacity: 1.000000; stroke-width: 5.0; stroke: rgb(107,174,214); fill: none"  />
<path d="M 2381.8,1750.9 L 2347.9,1741.1 2314.3,1731.3 2281.2,1721.4 2248.9,1711.6 2217.7,1701.8 2187.6,1692.1 2159.0,1682.5 2131.9,1673.2 2106.6,1664.1 2083.2,1655.2 2061.8,1646.7 2042.6,1638.5 2025.7,1630.7 2011.1,1623.2 1999.0,1616.2 1989.4,1609.6 1982.4,1603.5 1978.0,1597.9 1976.2,1592.7 1977.1,1588.1 1980.6,1583.9 1986.8,1580.3 1995.6,1577.2 2006.9,1574.6 2020.8,1572.5 2037.0,1570.9 2055.7,1569.8 2076.5,1569.2 2099.5,1569.1 2124.6,1569.4 2151.5,1570.2 2180.1,1571.4 2210.2,1573.0 2241.7,1575.0 2274.4,1577.3 2308.0,1580.0 2342.4,1582.9 2377.3,1586.0 2412.4,1589.4  " style="stroke-opacity: 1.000000; stroke-width: 5.0; stroke: rgb(107,174,214); fill: none"  />
<path d="M 922.8,2212.2 L 945.4,2184.6 968.3,2157.5 991.4,2131.1 1014.5,2105.6 1037.6,2081.1 1060.5,2057.9 1083.1,2036.0 1105.4,2015.8 1127.3,1997.2 1148.6,1980.4 1169.3,1965.6 1189.4,1952.8 1208.7,1942.1 1227.2,1933.6 1244.9,1927.3 1261.7,1923.4 1277.6,1921.9 1292.4,1922.7 1306.3,1925.9 1319.2,1931.5 1330.9,1939.5 1341.7,1949.9 1351.3,1962.6 1359.8,1977.5 1367.3,1994.8 1373.6,2014.1 1378.9,2035.6 1383.2,2059.0 1386.4,2084.3 1388.5,2111.3 1389.7,2140.0 1390.0,2170.1 1389.4,2201.5 1387.9,2234.1 1385.6,2267.7 1382.6,2302.0 1378.9,2336.9 1374.6,2372.1 1369.8,2407.5  " style="stroke-opacity: 1.000000; stroke-width: 5.0; stroke: rgb(107,174,214); fill: none"  />
<path d="M 639.2,1815.3 L 674.1,1803.0 709.3,1791.4 744.6,1780.9 780.0,1771.3 815.2,1763.0 850.2,1755.9 884.7,1750.2 918.8,1745.9 952.2,1743.2 984.8,1742.0 1016.6,1742.6 1047.5,1744.8 1077.3,1748.9 1106.0,1754.7 1133.5,1762.3 1159.8,1771.8 1184.8,1783.1 1208.4,1796.2 1230.6,1811.2 1251.3,1828.0 1270.6,1846.6 1288.3,1867.0 1304.6,1889.1 1319.3,1912.8 1332.4,1938.2 1344.1,1965.1 1354.2,1993.4 1362.8,2023.1 1369.9,2054.1 1375.5,2086.3 1379.8,2119.5 1382.7,2153.7 1384.2,2188.7 1384.5,2224.4 1383.6,2260.6 1381.6,2297.2 1378.6,2333.9 1374.6,2370.8 1369.8,2407.5  " style="stroke-opacity: 1.000000; stroke-width: 5.0; stroke: rgb(107,174,214); fill: none"  />
<path d="M 639.2,1815.3 L 673.5,1803.1 708.1,1791.7 742.7,1781.1 777.2,1771.5 811.4,1763.0 845.1,1755.8 878.3,1749.8 910.7,1745.3 942.3,1742.2 972.9,1740.6 1002.4,1740.7 1030.8,1742.4 1057.9,1745.8 1083.6,1751.0 1107.9,1757.9 1130.7,1766.6 1151.9,1777.1 1171.5,1789.3 1189.5,1803.4 1205.8,1819.2 1220.3,1836.8 1233.1,1856.0 1244.2,1876.9 1253.6,1899.5 1261.2,1923.5 1267.1,1949.1 1271.3,1976.1 1273.8,2004.4 1274.8,2033.9 1274.1,2064.5 1272.0,2096.2 1268.3,2128.7 1263.4,2162.0 1257.1,2195.9 1249.6,2230.4 1241.0,2265.1 1231.5,2300.0 1221.0,2334.9 1209.8,2369.6  " style="stroke-opacity: 1.000000; stroke-width: 5.0; stroke: rgb(107,174,214); fill: none"  />
<path d="M 596.7,1656.5 L 633.2,1650.6 669.9,1645.6 706.6,1641.5 743.1,1638.4 779.3,1636.5 814.9,1635.7 850.0,1636.3 884.2,1638.2 917.6,1641.4 949.9,1646.2 981.1,1652.4 1011.0,1660.1 1039.7,1669.4 1066.9,1680.2 1092.6,1692.6 1116.8,1706.6 1139.3,1722.2 1160.2,1739.4 1179.3,1758.1 1196.7,1778.3 1212.4,1800.1 1226.2,1823.3 1238.2,1847.9 1248.5,1873.9 1256.9,1901.2 1263.5,1929.7 1268.4,1959.4 1271.6,1990.2 1273.0,2022.0 1272.8,2054.7 1271.1,2088.1 1267.8,2122.3 1263.1,2157.0 1257.0,2192.1 1249.7,2227.6 1241.2,2263.2 1231.6,2298.9 1221.1,2334.4 1209.8,2369.6  " style="stroke-opacity: 1.000000; stroke-width: 5.0; stroke: rgb(107,174,214); fill: none"  />
<path d="M 596.7,1656.5 L 631.4,1650.4 665.9,1644.2 699.8,1637.9 732.9,1631.5 765.0,1625.0 795.9,1618.5 825.4,1612.1 853.3,1605.6 879.5,1599.2 903.7,1592.9 925.8,1586.7 945.8,1580.5 963.5,1574.5 978.7,1568.7 991.5,1563.0 1001.7,1557.5 1009.4,1552.1 1014.3,1547.0 1016.6,1542.0 1016.3,1537.3 1013.2,1532.8 1007.4,1528.5 999.0,1524.5 988.0,1520.7 974.5,1517.2 958.5,1513.9 940.1,1510.9 919.4,1508.1 896.5,1505.5 871.6,1503.2 844.8,1501.2 816.2,1499.4 786.0,1497.8 754.5,1496.4 721.8,1495.3 688.0,1494.4 653.5,1493.6 618.5,1493.1 583.3,1492.7  " style="stroke-opacity: 1.000000; stroke-width: 5.0; stroke: rgb(107,174,214); fill: none"  />
<path d="M 596.7,1656.5 L 631.6,1650.3 666.2,1643.8 700.2,1637.0 733.5,1629.9 765.7,1622.6 796.8,1615.0 826.5,1607.2 854.6,1599.2 880.9,1590.9 905.3,1582.5 927.7,1573.9 947.9,1565.2 965.9,1556.3 981.5,1547.3 994.6,1538.2 1005.2,1529.0 1013.2,1519.7 1018.6,1510.3 1021.4,1500.9 1021.4,1491.5 1018.8,1482.1 1013.6,1472.6 1005.7,1463.2 995.3,1453.8 982.3,1444.5 966.9,1435.2 949.1,1426.1 929.0,1417.0 906.7,1408.1 882.4,1399.3 856.2,1390.6 828.3,1382.1 798.7,1373.9 767.8,1365.8 735.6,1357.9 702.5,1350.3 668.5,1343.0 634.1,1335.9 599.3,1329.2  " style="stroke-opacity: 1.000000; stroke-width: 5.0; stroke: rgb(107,174,214); fill: none"  />
<path d="M 2322.8,1904.3 L 2289.8,1887.6 2257.1,1870.1 2225.0,1851.9 2193.7,1832.9 2163.3,1813.2 2134.0,1792.9 2106.0,1771.8 2079.4,1750.2 2054.3,1727.9 2031.0,1705.1 2009.4,1681.7 1989.7,1657.9 1972.0,1633.5 1956.3,1608.8 1942.8,1583.6 1931.5,1558.1 1922.4,1532.2 1915.6,1506.1 1911.1,1479.7 1908.9,1453.1 1909.1,1426.3 1911.5,1399.4 1916.3,1372.4 1923.3,1345.3 1932.5,1318.3 1943.9,1291.3 1957.4,1264.4 1973.0,1237.7 1990.5,1211.1 2009.8,1184.8 2030.9,1158.8 2053.6,1133.1 2077.8,1107.7 2103.4,1082.9 2130.2,1058.5 2158.0,1034.7 2186.7,1011.4 2216.0,988.9 2245.9,967.0  " style="stroke-opacity: 1.000000; stroke-width: 5.0; stroke: rgb(107,174,214); fill: none"  />
<path d="M 2322.8,1904.3 L 2291.1,1888.5 2259.7,1872.5 2229.0,1856.4 2199.0,1840.3 2170.1,1824.2 2142.5,1808.2 2116.2,1792.3 2091.5,1776.7 2068.5,1761.4 2047.5,1746.5 2028.4,1731.9 2011.4,1717.8 1996.7,1704.3 1984.3,1691.2 1974.3,1678.8 1966.7,1667.0 1961.6,1655.8 1959.1,1645.3 1959.1,1635.5 1961.6,1626.4 1966.8,1618.1 1974.5,1610.5 1984.7,1603.7 1997.3,1597.7 2012.4,1592.4 2029.8,1587.8 2049.5,1584.0 2071.3,1581.0 2095.2,1578.7 2121.0,1577.0 2148.6,1576.1 2177.8,1575.8 2208.4,1576.2 2240.4,1577.2 2273.5,1578.7 2307.4,1580.7 2342.0,1583.2 2377.1,1586.1 2412.4,1589.4  " style="stroke-opacity: 1.000000; stroke-width: 5.0; stroke: rgb(107,174,214); fill: none"  />
<path d="M 2322.8,1904.3 L 2291.2,1888.7 2259.9,1873.0 2229.1,1857.4 2199.1,1841.9 2170.1,1826.7 2142.3,1811.8 2115.8,1797.3 2090.9,1783.2 2067.6,1769.8 2046.1,1756.9 2026.6,1744.7 2009.2,1733.2 1993.9,1722.4 1980.9,1712.5 1970.3,1703.5 1962.0,1695.3 1956.2,1688.0 1952.8,1681.7 1952.0,1676.3 1953.7,1671.9 1957.9,1668.4 1964.7,1665.9 1973.8,1664.4 1985.5,1663.9 1999.5,1664.3 2015.8,1665.6 2034.3,1667.9 2054.9,1671.0 2077.6,1675.0 2102.1,1679.8 2128.4,1685.4 2156.4,1691.7 2185.8,1698.7 2216.4,1706.3 2248.1,1714.4 2280.8,1723.0 2314.1,1732.0 2347.8,1741.3 2381.8,1750.9  " style="stroke-opacity: 1.000000; stroke-width: 5.0; stroke: rgb(107,174,214); fill: none"  />
<path d="M 583.3,1492.7 L 618.5,1492.9 653.5,1493.0 688.0,1492.8 721.8,1492.4 754.5,1491.8 786.1,1490.9 816.3,1489.8 844.9,1488.5 871.7,1486.8 896.7,1484.9 919.6,1482.7 940.3,1480.3 958.8,1477.5 974.8,1474.5 988.4,1471.2 999.5,1467.6 1007.9,1463.7 1013.8,1459.5 1016.9,1455.0 1017.4,1450.3 1015.1,1445.4 1010.3,1440.1 1002.7,1434.7 992.6,1429.0 979.9,1423.1 964.7,1417.0 947.1,1410.7 927.3,1404.3 905.2,1397.7 881.1,1391.0 855.1,1384.2 827.3,1377.3 797.9,1370.3 767.1,1363.4 735.1,1356.4 702.1,1349.5 668.3,1342.6 633.9,1335.8 599.3,1329.2  " style="stroke-opacity: 1.000000; stroke-width: 5.0; stroke: rgb(107,174,214); fill: none"  />
<path d="M 599.3,1329.2 L 636.9,1336.8 674.4,1345.3 711.8,1355.0 748.8,1365.6 785.4,1377.4 821.4,1390.3 856.6,1404.4 890.9,1419.6 924.3,1436.1 956.6,1453.7 987.7,1472.5 1017.5,1492.6 1046.0,1513.8 1073.0,1536.2 1098.4,1559.9 1122.3,1584.6 1144.6,1610.6 1165.2,1637.6 1184.1,1665.8 1201.2,1694.9 1216.6,1725.1 1230.1,1756.3 1241.9,1788.4 1251.9,1821.4 1260.1,1855.1 1266.5,1889.6 1271.2,1924.8 1274.1,1960.6 1275.4,1997.0 1275.0,2033.7 1273.1,2070.9 1269.6,2108.3 1264.7,2145.9 1258.5,2183.6 1250.9,2221.3 1242.2,2258.9 1232.3,2296.2 1221.5,2333.1 1209.8,2369.6  " style="stroke-opacity: 1.000000; stroke-width: 5.0; stroke: rgb(107,174,214); fill: none"  />
<path d="M 599.3,1329.2 L 636.2,1336.6 673.0,1345.0 709.5,1354.4 745.6,1364.7 781.1,1376.1 815.9,1388.6 849.7,1402.1 882.5,1416.8 914.2,1432.6 944.5,1449.4 973.5,1467.4 1001.0,1486.5 1026.9,1506.8 1051.1,1528.1 1073.6,1550.5 1094.3,1574.0 1113.1,1598.6 1130.0,1624.2 1144.9,1650.7 1157.9,1678.2 1168.9,1706.7 1177.9,1736.0 1184.9,1766.1 1189.9,1797.0 1192.9,1828.6 1194.0,1860.9 1193.1,1893.7 1190.4,1927.1 1185.9,1960.9 1179.6,1995.0 1171.6,2029.5 1162.1,2064.1 1151.0,2098.9 1138.6,2133.6 1124.8,2168.3 1109.8,2202.7 1093.8,2236.9 1076.9,2270.6 1059.2,2303.8  " style="stroke-opacity: 1.000000; stroke-width: 5.0; stroke: rgb(107,174,214); fill: none"  />
<path d="M 599.3,1329.2 L 633.9,1335.8 668.3,1342.6 702.1,1349.5 735.1,1356.4 767.1,1363.4 797.9,1370.3 827.3,1377.3 855.1,1384.2 881.1,1391.0 905.2,1397.7 927.3,1404.3 947.1,1410.7 964.7,1417.0 979.9,1423.1 992.6,1429.0 1002.7,1434.7 1010.3,1440.1 1015.1,1445.4 1017.4,1450.3 1016.9,1455.0 1013.8,1459.5 1007.9,1463.7 999.5,1467.6 988.4,1471.2 974.8,1474.5 958.8,1477.5 940.3,1480.3 919.6,1482.7 896.7,1484.9 871.7,1486.8 844.9,1488.5 816.3,1489.8 786.1,1490.9 754.5,1491.8 721.8,1492.4 688.0,1492.8 653.5,1493.0 618.5,1492.9 583.3,1492.7  " style="stroke-opacity: 1.000000; stroke-width: 5.0; stroke: rgb(107,174,214); fill: none"  />
</g>
<defs>
<pattern id="checker" width="10" height="10" patternTransform="rotate(45 0 0)" patternUnits="userSpaceOnUse"><line x1="0" y1="0" x2="10" y2="0" style="stroke:black;stroke-width:2" /><line x1="0" y1="0" x2="0" y2="10" style="stroke:black;stroke-width:2" /></pattern>
<pattern id="hline" width="10" height="10" patternTransform="rotate(0 0 0)" patternUnits="userSpaceOnUse"><line x1="0" y1="0" x2="10" y2="0" style="stroke:black;stroke-width:5" /></pattern>
<pattern id="checker" width="10" height="10" patternTransform="rotate(45 0 0)" patternUnits="userSpaceOnUse"><line x1="0" y1="0" x2="10" y2="0" style="stroke:black;stroke-width:5" /><line x1="0" y1="0" x2="0" y2="10" style="stroke:black;stroke-width:4" /></pattern>
<pattern id="vline" width="10" height="10" patternTransform="rotate(0 0 0)" patternUnits="userSpaceOnUse"><line x1="0" y1="0" x2="0" y2="10" style="stroke:black;stroke-width:5" /></pattern>
<pattern id="vline-sparse" width="10" height="10" patternTransform="rotate(0 0 0)" patternUnits="userSpaceOnUse"><line x1="0" y1="0" x2="0" y2="10" style="stroke:black;stroke-width:2" /></pattern>
<pattern id="hline-sparse" width="10" height="10" patternTransform="rotate(0 0 0)" patternUnits="userSpaceOnUse"><line x1="0" y1="0" x2="10" y2="0" style="stroke:black;stroke-width:2" /></pattern>
</defs>
</svg>
