<?xml version="1.0" encoding="utf-8" standalone="no"?>
<!DOCTYPE svg PUBLIC "-//W3C//DTD SVG 1.1//EN" "http://www.w3.org/Graphics/SVG/1.1/DTD/svg11.dtd">
<svg width="3000px" height="3000px" version="1.1" xmlns="http://www.w3.org/2000/svg" xmlns:xlink="http://www.w3.org/1999/xlink">
<g id="bg">
<rect x="0" y="0" width="3000px" height="3000px" style="fill:rgb(255,255,255);"/>
</g>
<g id="ideograms">
<path d="M1500.000,535.000 A965.000,965.000 40.000 0,1 1601.714,540.376 L1618.579,381.267 A1125.000,1125.000 0.000 0,0 1500.000,375.000 Z" style="stroke-width:2.0;stroke:rgb(115,115,115);stroke-linecap:round;fill:rgb(153,0,204);" />
<text x="1635.1" y="307.6" font-size="195.0px" font-family="CMUBright-Bold" style="text-anchor:start;fill:rgb(0,0,0);" transform="rotate(273.0,1635.1,307.6)" >5</text>
<path d="M1500.000,535.000 A965.000,965.000 40.000 0,1 1601.714,540.376 L1618.579,381.267 A1125.000,1125.000 0.000 0,0 1500.000,375.000 Z" style="stroke-width:2.0;stroke:rgb(115,115,115);stroke-linecap:round;fill:none;" />
<path d="M1672.307,550.508 A965.000,965.000 40.000 0,1 1771.427,573.959 L1816.431,420.418 A1125.000,1125.000 0.000 0,0 1700.877,393.079 Z" style="stroke-width:2.0;stroke:rgb(115,115,115);stroke-linecap:round;fill:rgb(153,0,204);" />
<text x="1847.7" y="351.5" font-size="195.0px" font-family="CMUBright-Bold" style="text-anchor:start;fill:rgb(0,0,0);" transform="rotate(283.3,1847.7,351.5)" >6</text>
<path d="M1672.307,550.508 A965.000,965.000 40.000 0,1 1771.427,573.959 L1816.431,420.418 A1125.000,1125.000 0.000 0,0 1700.877,393.079 Z" style="stroke-width:2.0;stroke:rgb(115,115,115);stroke-linecap:round;fill:none;" />
<path d="M1839.077,596.533 A965.000,965.000 40.000 0,1 1932.417,637.306 L2004.113,494.269 A1125.000,1125.000 0.000 0,0 1895.297,446.736 Z" style="stroke-width:2.0;stroke:rgb(115,115,115);stroke-linecap:round;fill:rgb(153,0,204);" />
<text x="2047.2" y="432.0" font-size="195.0px" font-family="CMUBright-Bold" style="text-anchor:start;fill:rgb(0,0,0);" transform="rotate(293.6,2047.2,432.0)" >8</text>
<path d="M1839.077,596.533 A965.000,965.000 40.000 0,1 1932.417,637.306 L2004.113,494.269 A1125.000,1125.000 0.000 0,0 1895.297,446.736 Z" style="stroke-width:2.0;stroke:rgb(115,115,115);stroke-linecap:round;fill:none;" />
<path d="M1994.948,671.597 A965.000,965.000 40.000 0,1 2079.507,728.381 L2175.592,600.444 A1125.000,1125.000 0.000 0,0 2077.012,534.245 Z" style="stroke-width:2.0;stroke:rgb(115,115,115);stroke-linecap:round;fill:rgb(153,0,204);" />
<text x="2229.1" y="546.9" font-size="195.0px" font-family="CMUBright-Bold" style="text-anchor:start;fill:rgb(0,0,0);" transform="rotate(303.9,2229.1,546.9)" >9</text>
<path d="M1994.948,671.597 A965.000,965.000 40.000 0,1 2079.507,728.381 L2175.592,600.444 A1125.000,1125.000 0.000 0,0 2077.012,534.245 Z" style="stroke-width:2.0;stroke:rgb(115,115,115);stroke-linecap:round;fill:none;" />
<path d="M2134.911,773.286 A965.000,965.000 40.000 0,1 2207.972,844.256 L2325.356,735.532 A1125.000,1125.000 0.000 0,0 2240.181,652.795 Z" style="stroke-width:2.0;stroke:rgb(115,115,115);stroke-linecap:round;fill:rgb(153,0,204);" />
<text x="2387.6" y="692.4" font-size="195.0px" font-family="CMUBright-Bold" style="text-anchor:start;fill:rgb(0,0,0);" transform="rotate(314.2,2387.6,692.4)" >10</text>
<path d="M2134.911,773.286 A965.000,965.000 40.000 0,1 2207.972,844.256 L2325.356,735.532 A1125.000,1125.000 0.000 0,0 2240.181,652.795 Z" style="stroke-width:2.0;stroke:rgb(115,115,115);stroke-linecap:round;fill:none;" />
<path d="M2254.467,898.332 A965.000,965.000 40.000 0,1 2313.683,981.207 L2448.594,895.190 A1125.000,1125.000 0.000 0,0 2379.560,798.574 Z" style="stroke-width:2.0;stroke:rgb(115,115,115);stroke-linecap:round;fill:rgb(153,0,204);" />
<text x="2517.5" y="863.9" font-size="195.0px" font-family="CMUBright-Bold" style="text-anchor:start;fill:rgb(0,0,0);" transform="rotate(324.5,2517.5,863.9)" >13</text>
<path d="M2254.467,898.332 A965.000,965.000 40.000 0,1 2313.683,981.207 L2448.594,895.190 A1125.000,1125.000 0.000 0,0 2379.560,798.574 Z" style="stroke-width:2.0;stroke:rgb(115,115,115);stroke-linecap:round;fill:none;" />
<path d="M2349.775,1042.717 A965.000,965.000 40.000 0,1 2393.240,1134.833 L2541.342,1074.288 A1125.000,1125.000 0.000 0,0 2490.670,966.898 Z" style="stroke-width:2.0;stroke:rgb(115,115,115);stroke-linecap:round;fill:rgb(153,0,204);" />
<text x="2614.7" y="1055.8" font-size="195.0px" font-family="CMUBright-Bold" style="text-anchor:start;fill:rgb(0,0,0);" transform="rotate(334.7,2614.7,1055.8)" >19</text>
<path d="M2349.775,1042.717 A965.000,965.000 40.000 0,1 2393.240,1134.833 L2541.342,1074.288 A1125.000,1125.000 0.000 0,0 2490.670,966.898 Z" style="stroke-width:2.0;stroke:rgb(115,115,115);stroke-linecap:round;fill:none;" />
<path d="M2417.770,1201.799 A965.000,965.000 40.000 0,1 2444.089,1300.196 L2600.621,1267.068 A1125.000,1125.000 0.000 0,0 2569.939,1152.356 Z" style="stroke-width:2.0;stroke:rgb(115,115,115);stroke-linecap:round;fill:rgb(153,0,204);" />
<text x="2675.8" y="1260.0" font-size="195.0px" font-family="CMUBright-Bold" style="text-anchor:start;fill:rgb(0,0,0);" transform="rotate(345.0,2675.8,1260.0)" >21</text>
<path d="M2417.770,1201.799 A965.000,965.000 40.000 0,1 2444.089,1300.196 L2600.621,1267.068 A1125.000,1125.000 0.000 0,0 2569.939,1152.356 Z" style="stroke-width:2.0;stroke:rgb(115,115,115);stroke-linecap:round;fill:none;" />
<path d="M2456.267,1370.465 A965.000,965.000 40.000 0,1 2464.593,1471.980 L2624.526,1467.335 A1125.000,1125.000 0.000 0,0 2614.818,1348.988 Z" style="stroke-width:2.0;stroke:rgb(115,115,115);stroke-linecap:round;fill:rgb(153,0,204);" />
<text x="2699.8" y="1475.8" font-size="195.0px" font-family="CMUBright-Bold" style="text-anchor:start;fill:rgb(0,0,0);" transform="rotate(355.3,2699.8,1475.8)" >28</text>
<path d="M2456.267,1370.465 A965.000,965.000 40.000 0,1 2464.593,1471.980 L2624.526,1467.335 A1125.000,1125.000 0.000 0,0 2614.818,1348.988 Z" style="stroke-width:2.0;stroke:rgb(115,115,115);stroke-linecap:round;fill:none;" />
<path d="M2464.028,1543.295 A965.000,965.000 40.000 0,1 2454.095,1644.665 L2612.287,1668.651 A1125.000,1125.000 0.000 0,0 2623.867,1550.473 Z" style="stroke-width:2.0;stroke:rgb(115,115,115);stroke-linecap:round;fill:rgb(253,208,162);" />
<text x="2684.8" y="1690.4" font-size="195.0px" font-family="CMUBright-Bold" style="text-anchor:start;fill:rgb(0,0,0);" transform="rotate(5.6,2684.8,1690.4)" >3</text>
<path d="M2464.028,1543.295 A965.000,965.000 40.000 0,1 2454.095,1644.665 L2612.287,1668.651 A1125.000,1125.000 0.000 0,0 2623.867,1550.473 Z" style="stroke-width:2.0;stroke:rgb(115,115,115);stroke-linecap:round;fill:none;" />
<path d="M2440.805,1714.733 A965.000,965.000 40.000 0,1 2412.931,1812.701 L2564.298,1864.548 A1125.000,1125.000 0.000 0,0 2596.794,1750.336 Z" style="stroke-width:2.0;stroke:rgb(115,115,115);stroke-linecap:round;fill:rgb(253,208,162);" />
<text x="2631.8" y="1898.9" font-size="195.0px" font-family="CMUBright-Bold" style="text-anchor:start;fill:rgb(0,0,0);" transform="rotate(15.9,2631.8,1898.9)" >26</text>
<path d="M2440.805,1714.733 A965.000,965.000 40.000 0,1 2412.931,1812.701 L2564.298,1864.548 A1125.000,1125.000 0.000 0,0 2596.794,1750.336 Z" style="stroke-width:2.0;stroke:rgb(115,115,115);stroke-linecap:round;fill:none;" />
<path d="M2387.344,1879.269 A965.000,965.000 40.000 0,1 2342.425,1970.686 L2482.102,2048.727 A1125.000,1125.000 0.000 0,0 2534.469,1942.153 Z" style="stroke-width:2.0;stroke:rgb(115,115,115);stroke-linecap:round;fill:rgb(253,208,162);" />
<text x="2542.3" y="2094.6" font-size="195.0px" font-family="CMUBright-Bold" style="text-anchor:start;fill:rgb(0,0,0);" transform="rotate(26.2,2542.3,2094.6)" >31</text>
<path d="M2387.344,1879.269 A965.000,965.000 40.000 0,1 2342.425,1970.686 L2482.102,2048.727 A1125.000,1125.000 0.000 0,0 2534.469,1942.153 Z" style="stroke-width:2.0;stroke:rgb(115,115,115);stroke-linecap:round;fill:none;" />
<path d="M2305.363,2031.616 A965.000,965.000 40.000 0,1 2244.843,2113.542 L2368.340,2215.270 A1125.000,1125.000 0.000 0,0 2438.895,2119.759 Z" style="stroke-width:2.0;stroke:rgb(115,115,115);stroke-linecap:round;fill:rgb(253,208,162);" />
<text x="2419.4" y="2271.1" font-size="195.0px" font-family="CMUBright-Bold" style="text-anchor:start;fill:rgb(0,0,0);" transform="rotate(36.5,2419.4,2271.1)" >32</text>
<path d="M2305.363,2031.616 A965.000,965.000 40.000 0,1 2244.843,2113.542 L2368.340,2215.270 A1125.000,1125.000 0.000 0,0 2438.895,2119.759 Z" style="stroke-width:2.0;stroke:rgb(115,115,115);stroke-linecap:round;fill:none;" />
<path d="M2197.497,2166.875 A965.000,965.000 40.000 0,1 2123.321,2236.679 L2226.669,2358.823 A1125.000,1125.000 0.000 0,0 2313.144,2277.445 Z" style="stroke-width:2.0;stroke:rgb(115,115,115);stroke-linecap:round;fill:rgb(253,141,60);" />
<text x="2268.5" y="2421.6" font-size="195.0px" font-family="CMUBright-Bold" style="text-anchor:start;fill:rgb(0,0,0);" transform="rotate(46.7,2268.5,2421.6)" >1</text>
<path d="M2197.497,2166.875 A965.000,965.000 40.000 0,1 2123.321,2236.679 L2226.669,2358.823 A1125.000,1125.000 0.000 0,0 2313.144,2277.445 Z" style="stroke-width:2.0;stroke:rgb(115,115,115);stroke-linecap:round;fill:none;" />
<path d="M2067.213,2280.701 A965.000,965.000 40.000 0,1 1981.764,2336.139 L2061.642,2474.773 A1125.000,1125.000 0.000 0,0 2161.258,2410.144 Z" style="stroke-width:2.0;stroke:rgb(115,115,115);stroke-linecap:round;fill:rgb(253,141,60);" />
<text x="2092.5" y="2543.6" font-size="195.0px" font-family="CMUBright-Bold" style="text-anchor:start;fill:rgb(0,0,0);" transform="rotate(57.0,2092.5,2543.6)" >7</text>
<path d="M2067.213,2280.701 A965.000,965.000 40.000 0,1 1981.764,2336.139 L2061.642,2474.773 A1125.000,1125.000 0.000 0,0 2161.258,2410.144 Z" style="stroke-width:2.0;stroke:rgb(115,115,115);stroke-linecap:round;fill:none;" />
<path d="M1918.698,2369.435 A965.000,965.000 40.000 0,1 1824.724,2408.724 L1878.564,2559.393 A1125.000,1125.000 0.000 0,0 1988.119,2513.590 Z" style="stroke-width:2.0;stroke:rgb(115,115,115);stroke-linecap:round;fill:rgb(253,141,60);" />
<text x="1895.7" y="2632.9" font-size="195.0px" font-family="CMUBright-Bold" style="text-anchor:start;fill:rgb(0,0,0);" transform="rotate(67.3,1895.7,2632.9)" >12</text>
<path d="M1918.698,2369.435 A965.000,965.000 40.000 0,1 1824.724,2408.724 L1878.564,2559.393 A1125.000,1125.000 0.000 0,0 1988.119,2513.590 Z" style="stroke-width:2.0;stroke:rgb(115,115,115);stroke-linecap:round;fill:none;" />
<path d="M1756.726,2430.224 A965.000,965.000 40.000 0,1 1657.246,2452.102 L1683.318,2609.964 A1125.000,1125.000 0.000 0,0 1799.291,2584.458 Z" style="stroke-width:2.0;stroke:rgb(115,115,115);stroke-linecap:round;fill:rgb(253,141,60);" />
<text x="1685.0" y="2685.6" font-size="195.0px" font-family="CMUBright-Bold" style="text-anchor:start;fill:rgb(0,0,0);" transform="rotate(77.6,1685.0,2685.6)" >16</text>
<path d="M1756.726,2430.224 A965.000,965.000 40.000 0,1 1657.246,2452.102 L1683.318,2609.964 A1125.000,1125.000 0.000 0,0 1799.291,2584.458 Z" style="stroke-width:2.0;stroke:rgb(115,115,115);stroke-linecap:round;fill:none;" />
<path d="M1586.502,2461.115 A965.000,965.000 40.000 0,1 1484.715,2464.879 L1482.181,2624.859 A1125.000,1125.000 0.000 0,0 1600.844,2620.471 Z" style="stroke-width:2.0;stroke:rgb(115,115,115);stroke-linecap:round;fill:rgb(253,141,60);" />
<text x="1471.4" y="2699.7" font-size="195.0px" font-family="CMUBright-Bold" style="text-anchor:start;fill:rgb(0,0,0);" transform="rotate(87.9,1471.4,2699.7)" >17</text>
<path d="M1586.502,2461.115 A965.000,965.000 40.000 0,1 1484.715,2464.879 L1482.181,2624.859 A1125.000,1125.000 0.000 0,0 1600.844,2620.471 Z" style="stroke-width:2.0;stroke:rgb(115,115,115);stroke-linecap:round;fill:none;" />
<path d="M1413.498,2461.115 A965.000,965.000 40.000 0,1 1312.675,2446.644 L1281.616,2603.600 A1125.000,1125.000 0.000 0,0 1399.156,2620.471 Z" style="stroke-width:2.0;stroke:rgb(115,115,115);stroke-linecap:round;fill:rgb(253,141,60);" />
<text x="1403.0" y="2696.1" font-size="195.0px" font-family="CMUBright-Bold" style="text-anchor:end;fill:rgb(0,0,0);" transform="rotate(-81.8,1403.0,2696.1)" >18</text>
<path d="M1413.498,2461.115 A965.000,965.000 40.000 0,1 1312.675,2446.644 L1281.616,2603.600 A1125.000,1125.000 0.000 0,0 1399.156,2620.471 Z" style="stroke-width:2.0;stroke:rgb(115,115,115);stroke-linecap:round;fill:none;" />
<path d="M1243.274,2430.224 A965.000,965.000 40.000 0,1 1146.656,2397.983 L1088.070,2546.871 A1125.000,1125.000 0.000 0,0 1200.709,2584.458 Z" style="stroke-width:2.0;stroke:rgb(115,115,115);stroke-linecap:round;fill:rgb(253,141,60);" />
<text x="1191.0" y="2659.5" font-size="195.0px" font-family="CMUBright-Bold" style="text-anchor:end;fill:rgb(0,0,0);" transform="rotate(-71.5,1191.0,2659.5)" >20</text>
<path d="M1243.274,2430.224 A965.000,965.000 40.000 0,1 1146.656,2397.983 L1088.070,2546.871 A1125.000,1125.000 0.000 0,0 1200.709,2584.458 Z" style="stroke-width:2.0;stroke:rgb(115,115,115);stroke-linecap:round;fill:none;" />
<path d="M1081.302,2369.435 A965.000,965.000 40.000 0,1 991.993,2320.460 L907.764,2456.494 A1125.000,1125.000 0.000 0,0 1011.881,2513.590 Z" style="stroke-width:2.0;stroke:rgb(115,115,115);stroke-linecap:round;fill:rgb(253,141,60);" />
<text x="987.1" y="2584.9" font-size="195.0px" font-family="CMUBright-Bold" style="text-anchor:end;fill:rgb(0,0,0);" transform="rotate(-61.3,987.1,2584.9)" >22</text>
<path d="M1081.302,2369.435 A965.000,965.000 40.000 0,1 991.993,2320.460 L907.764,2456.494 A1125.000,1125.000 0.000 0,0 1011.881,2513.590 Z" style="stroke-width:2.0;stroke:rgb(115,115,115);stroke-linecap:round;fill:none;" />
<path d="M932.787,2280.701 A965.000,965.000 40.000 0,1 853.658,2216.566 L746.493,2335.375 A1125.000,1125.000 0.000 0,0 838.742,2410.144 Z" style="stroke-width:2.0;stroke:rgb(115,115,115);stroke-linecap:round;fill:rgb(253,141,60);" />
<text x="803.3" y="2477.0" font-size="195.0px" font-family="CMUBright-Bold" style="text-anchor:end;fill:rgb(0,0,0);" transform="rotate(-51.0,803.3,2477.0)" >23</text>
<path d="M932.787,2280.701 A965.000,965.000 40.000 0,1 853.658,2216.566 L746.493,2335.375 A1125.000,1125.000 0.000 0,0 838.742,2410.144 Z" style="stroke-width:2.0;stroke:rgb(115,115,115);stroke-linecap:round;fill:none;" />
<path d="M802.503,2166.875 A965.000,965.000 40.000 0,1 736.097,2089.642 L609.440,2187.406 A1125.000,1125.000 0.000 0,0 686.856,2277.445 Z" style="stroke-width:2.0;stroke:rgb(115,115,115);stroke-linecap:round;fill:rgb(253,141,60);" />
<text x="638.6" y="2335.5" font-size="195.0px" font-family="CMUBright-Bold" style="text-anchor:end;fill:rgb(0,0,0);" transform="rotate(-40.7,638.6,2335.5)" >24</text>
<path d="M802.503,2166.875 A965.000,965.000 40.000 0,1 736.097,2089.642 L609.440,2187.406 A1125.000,1125.000 0.000 0,0 686.856,2277.445 Z" style="stroke-width:2.0;stroke:rgb(115,115,115);stroke-linecap:round;fill:none;" />
<path d="M694.637,2031.616 A965.000,965.000 40.000 0,1 643.089,1943.766 L501.010,2017.344 A1125.000,1125.000 0.000 0,0 561.105,2119.759 Z" style="stroke-width:2.0;stroke:rgb(115,115,115);stroke-linecap:round;fill:rgb(253,141,60);" />
<text x="504.4" y="2169.9" font-size="195.0px" font-family="CMUBright-Bold" style="text-anchor:end;fill:rgb(0,0,0);" transform="rotate(-30.4,504.4,2169.9)" >25</text>
<path d="M694.637,2031.616 A965.000,965.000 40.000 0,1 643.089,1943.766 L501.010,2017.344 A1125.000,1125.000 0.000 0,0 561.105,2119.759 Z" style="stroke-width:2.0;stroke:rgb(115,115,115);stroke-linecap:round;fill:none;" />
<path d="M612.656,1879.269 A965.000,965.000 40.000 0,1 577.622,1783.627 L424.689,1830.653 A1125.000,1125.000 0.000 0,0 465.531,1942.153 Z" style="stroke-width:2.0;stroke:rgb(115,115,115);stroke-linecap:round;fill:rgb(253,141,60);" />
<text x="400.4" y="1980.5" font-size="195.0px" font-family="CMUBright-Bold" style="text-anchor:end;fill:rgb(0,0,0);" transform="rotate(-20.1,400.4,1980.5)" >27</text>
<path d="M612.656,1879.269 A965.000,965.000 40.000 0,1 577.622,1783.627 L424.689,1830.653 A1125.000,1125.000 0.000 0,0 465.531,1942.153 Z" style="stroke-width:2.0;stroke:rgb(115,115,115);stroke-linecap:round;fill:none;" />
<path d="M559.195,1714.733 A965.000,965.000 40.000 0,1 541.802,1614.372 L382.929,1633.336 A1125.000,1125.000 0.000 0,0 403.206,1750.336 Z" style="stroke-width:2.0;stroke:rgb(115,115,115);stroke-linecap:round;fill:rgb(253,141,60);" />
<text x="332.5" y="1777.4" font-size="195.0px" font-family="CMUBright-Bold" style="text-anchor:end;fill:rgb(0,0,0);" transform="rotate(-9.8,332.5,1777.4)" >29</text>
<path d="M559.195,1714.733 A965.000,965.000 40.000 0,1 541.802,1614.372 L382.929,1633.336 A1125.000,1125.000 0.000 0,0 403.206,1750.336 Z" style="stroke-width:2.0;stroke:rgb(115,115,115);stroke-linecap:round;fill:none;" />
<path d="M535.972,1543.295 A965.000,965.000 40.000 0,1 536.778,1441.441 L377.073,1431.732 A1125.000,1125.000 0.000 0,0 376.133,1550.473 Z" style="stroke-width:2.0;stroke:rgb(115,115,115);stroke-linecap:round;fill:rgb(253,141,60);" />
<text x="301.7" y="1564.5" font-size="195.0px" font-family="CMUBright-Bold" style="text-anchor:end;fill:rgb(0,0,0);" transform="rotate(0.5,301.7,1564.5)" >34</text>
<path d="M535.972,1543.295 A965.000,965.000 40.000 0,1 536.778,1441.441 L377.073,1431.732 A1125.000,1125.000 0.000 0,0 376.133,1550.473 Z" style="stroke-width:2.0;stroke:rgb(115,115,115);stroke-linecap:round;fill:none;" />
<path d="M543.733,1370.465 A965.000,965.000 40.000 0,1 562.714,1270.393 L407.309,1232.323 A1125.000,1125.000 0.000 0,0 385.182,1348.988 Z" style="stroke-width:2.0;stroke:rgb(115,115,115);stroke-linecap:round;fill:rgb(253,141,60);" />
<text x="309.5" y="1349.5" font-size="195.0px" font-family="CMUBright-Bold" style="text-anchor:end;fill:rgb(0,0,0);" transform="rotate(10.7,309.5,1349.5)" >35</text>
<path d="M543.733,1370.465 A965.000,965.000 40.000 0,1 562.714,1270.393 L407.309,1232.323 A1125.000,1125.000 0.000 0,0 385.182,1348.988 Z" style="stroke-width:2.0;stroke:rgb(115,115,115);stroke-linecap:round;fill:none;" />
<path d="M582.230,1201.799 A965.000,965.000 40.000 0,1 618.774,1106.724 L472.664,1041.517 A1125.000,1125.000 0.000 0,0 430.061,1152.356 Z" style="stroke-width:2.0;stroke:rgb(115,115,115);stroke-linecap:round;fill:rgb(66,146,198);" />
<text x="356.1" y="1137.4" font-size="195.0px" font-family="CMUBright-Bold" style="text-anchor:end;fill:rgb(0,0,0);" transform="rotate(21.0,356.1,1137.4)" >2</text>
<path d="M582.230,1201.799 A965.000,965.000 40.000 0,1 618.774,1106.724 L472.664,1041.517 A1125.000,1125.000 0.000 0,0 430.061,1152.356 Z" style="stroke-width:2.0;stroke:rgb(115,115,115);stroke-linecap:round;fill:none;" />
<path d="M650.225,1042.717 A965.000,965.000 40.000 0,1 703.158,955.695 L571.039,865.447 A1125.000,1125.000 0.000 0,0 509.330,966.898 Z" style="stroke-width:2.0;stroke:rgb(115,115,115);stroke-linecap:round;fill:rgb(66,146,198);" />
<text x="440.2" y="937.2" font-size="195.0px" font-family="CMUBright-Bold" style="text-anchor:end;fill:rgb(0,0,0);" transform="rotate(31.3,440.2,937.2)" >4</text>
<path d="M650.225,1042.717 A965.000,965.000 40.000 0,1 703.158,955.695 L571.039,865.447 A1125.000,1125.000 0.000 0,0 509.330,966.898 Z" style="stroke-width:2.0;stroke:rgb(115,115,115);stroke-linecap:round;fill:none;" />
<path d="M745.533,898.332 A965.000,965.000 40.000 0,1 813.153,822.160 L699.272,709.772 A1125.000,1125.000 0.000 0,0 620.440,798.574 Z" style="stroke-width:2.0;stroke:rgb(115,115,115);stroke-linecap:round;fill:rgb(66,146,198);" />
<text x="556.4" y="758.6" font-size="195.0px" font-family="CMUBright-Bold" style="text-anchor:end;fill:rgb(0,0,0);" transform="rotate(41.6,556.4,758.6)" >11</text>
<path d="M745.533,898.332 A965.000,965.000 40.000 0,1 813.153,822.160 L699.272,709.772 A1125.000,1125.000 0.000 0,0 620.440,798.574 Z" style="stroke-width:2.0;stroke:rgb(115,115,115);stroke-linecap:round;fill:none;" />
<path d="M865.089,773.286 A965.000,965.000 40.000 0,1 945.224,710.412 L853.241,579.496 A1125.000,1125.000 0.000 0,0 759.819,652.795 Z" style="stroke-width:2.0;stroke:rgb(115,115,115);stroke-linecap:round;fill:rgb(66,146,198);" />
<text x="704.0" y="602.0" font-size="195.0px" font-family="CMUBright-Bold" style="text-anchor:end;fill:rgb(0,0,0);" transform="rotate(51.9,704.0,602.0)" >14</text>
<path d="M865.089,773.286 A965.000,965.000 40.000 0,1 945.224,710.412 L853.241,579.496 A1125.000,1125.000 0.000 0,0 759.819,652.795 Z" style="stroke-width:2.0;stroke:rgb(115,115,115);stroke-linecap:round;fill:none;" />
<path d="M1005.052,671.597 A965.000,965.000 40.000 0,1 1095.126,624.042 L1027.997,478.806 A1125.000,1125.000 0.000 0,0 922.988,534.245 Z" style="stroke-width:2.0;stroke:rgb(115,115,115);stroke-linecap:round;fill:rgb(66,146,198);" />
<text x="875.4" y="475.4" font-size="195.0px" font-family="CMUBright-Bold" style="text-anchor:end;fill:rgb(0,0,0);" transform="rotate(62.2,875.4,475.4)" >15</text>
<path d="M1005.052,671.597 A965.000,965.000 40.000 0,1 1095.126,624.042 L1027.997,478.806 A1125.000,1125.000 0.000 0,0 922.988,534.245 Z" style="stroke-width:2.0;stroke:rgb(115,115,115);stroke-linecap:round;fill:none;" />
<path d="M1160.923,596.533 A965.000,965.000 40.000 0,1 1258.041,565.826 L1217.923,410.937 A1125.000,1125.000 0.000 0,0 1104.703,446.736 Z" style="stroke-width:2.0;stroke:rgb(115,115,115);stroke-linecap:round;fill:rgb(66,146,198);" />
<text x="1068.4" y="380.3" font-size="195.0px" font-family="CMUBright-Bold" style="text-anchor:end;fill:rgb(0,0,0);" transform="rotate(72.5,1068.4,380.3)" >30</text>
<path d="M1160.923,596.533 A965.000,965.000 40.000 0,1 1258.041,565.826 L1217.923,410.937 A1125.000,1125.000 0.000 0,0 1104.703,446.736 Z" style="stroke-width:2.0;stroke:rgb(115,115,115);stroke-linecap:round;fill:none;" />
<path d="M1327.693,550.508 A965.000,965.000 40.000 0,1 1428.732,537.635 L1416.916,378.072 A1125.000,1125.000 0.000 0,0 1299.123,393.079 Z" style="stroke-width:2.0;stroke:rgb(115,115,115);stroke-linecap:round;fill:rgb(66,146,198);" />
<text x="1275.3" y="321.2" font-size="195.0px" font-family="CMUBright-Bold" style="text-anchor:end;fill:rgb(0,0,0);" transform="rotate(82.7,1275.3,321.2)" >33</text>
<path d="M1327.693,550.508 A965.000,965.000 40.000 0,1 1428.732,537.635 L1416.916,378.072 A1125.000,1125.000 0.000 0,0 1299.123,393.079 Z" style="stroke-width:2.0;stroke:rgb(115,115,115);stroke-linecap:round;fill:none;" />
</g>
<g id="track_1">
<path d="M 2128.3,2167.6 L 2101.3,2138.3 2074.7,2108.0 2048.8,2077.0 2023.6,2045.1 1999.3,2012.4 1975.8,1979.0 1953.4,1945.0 1932.2,1910.2 1912.1,1874.9 1893.3,1838.9 1875.8,1802.4 1859.8,1765.5 1845.2,1728.0 1832.2,1690.1 1820.7,1651.9 1810.8,1613.3 1802.6,1574.4 1796.0,1535.3 1791.1,1496.0 1787.8,1456.5 1786.3,1416.9 1786.4,1377.2 1788.2,1337.5 1791.7,1297.9 1796.8,1258.3 1803.5,1218.8 1811.7,1179.5 1821.5,1140.4 1832.8,1101.5 1845.5,1063.0 1859.5,1024.8 1874.9,987.1 1891.4,949.8 1909.1,913.1 1927.8,876.9 1947.5,841.3 1968.0,806.4 1989.2,772.3 2011.1,738.9  " style="stroke-opacity: 1.000000; stroke-width: 5.0; stroke: rgb(251,106,74); fill: none"  />
<path d="M 1999.0,2269.1 L 1976.1,2233.2 1953.5,2196.5 1931.5,2159.2 1909.9,2121.3 1888.9,2082.8 1868.5,2043.6 1848.8,2003.9 1829.8,1963.6 1811.6,1922.7 1794.2,1881.4 1777.6,1839.7 1761.9,1797.4 1747.2,1754.8 1733.3,1711.8 1720.5,1668.4 1708.6,1624.7 1697.8,1580.7 1687.9,1536.5 1679.1,1492.0 1671.4,1447.3 1664.7,1402.4 1659.1,1357.4 1654.5,1312.4 1650.9,1267.2 1648.5,1222.1 1647.0,1176.9 1646.6,1131.8 1647.1,1086.7 1648.7,1041.8 1651.2,997.1 1654.6,952.5 1658.9,908.2 1664.1,864.1 1670.1,820.4 1676.9,777.0 1684.5,734.0 1692.7,691.5 1701.6,649.4 1711.1,607.9  " style="stroke-opacity: 1.000000; stroke-width: 5.0; stroke: rgb(251,106,74); fill: none"  />
<path d="M 1867.0,659.9 L 1850.6,696.3 1833.2,732.5 1814.8,768.6 1795.4,804.3 1775.0,839.5 1753.5,874.2 1730.9,908.2 1707.4,941.4 1682.7,973.8 1657.1,1005.2 1630.4,1035.6 1602.7,1064.8 1574.0,1092.9 1544.3,1119.8 1513.6,1145.4 1482.0,1169.7 1449.5,1192.5 1416.2,1214.0 1381.9,1233.9 1346.9,1252.4 1311.1,1269.4 1274.6,1284.9 1237.3,1298.8 1199.5,1311.2 1161.1,1322.1 1122.1,1331.5 1082.7,1339.3 1042.9,1345.7 1002.8,1350.6 962.4,1354.1 921.8,1356.2 881.0,1356.9 840.3,1356.3 799.5,1354.5 758.9,1351.5 718.4,1347.4 678.3,1342.3 638.6,1336.2 599.3,1329.2  " style="stroke-opacity: 1.000000; stroke-width: 5.0; stroke: rgb(251,106,74); fill: none"  />
<path d="M 2011.1,738.9 L 1989.2,772.3 1968.0,806.4 1947.5,841.3 1927.8,876.9 1909.1,913.1 1891.4,949.8 1874.9,987.1 1859.5,1024.8 1845.5,1063.0 1832.8,1101.5 1821.5,1140.4 1811.7,1179.5 1803.5,1218.8 1796.8,1258.3 1791.7,1297.9 1788.2,1337.5 1786.4,1377.2 1786.3,1416.9 1787.8,1456.5 1791.1,1496.0 1796.0,1535.3 1802.6,1574.4 1810.8,1613.3 1820.7,1651.9 1832.2,1690.1 1845.2,1728.0 1859.8,1765.5 1875.8,1802.4 1893.3,1838.9 1912.1,1874.9 1932.2,1910.2 1953.4,1945.0 1975.8,1979.0 1999.3,2012.4 2023.6,2045.1 2048.8,2077.0 2074.7,2108.0 2101.3,2138.3 2128.3,2167.6  " style="stroke-opacity: 1.000000; stroke-width: 5.0; stroke: rgb(251,106,74); fill: none"  />
<path d="M 2011.1,738.9 L 1988.9,771.1 1965.8,802.9 1941.8,834.3 1916.8,865.0 1890.9,895.0 1864.2,924.0 1836.5,952.1 1808.1,979.1 1778.8,1004.9 1748.8,1029.3 1718.0,1052.4 1686.5,1074.0 1654.2,1094.1 1621.4,1112.5 1587.8,1129.3 1553.7,1144.4 1519.1,1157.7 1483.9,1169.3 1448.3,1179.0 1412.3,1187.0 1375.8,1193.1 1339.1,1197.3 1302.0,1199.8 1264.7,1200.4 1227.3,1199.2 1189.7,1196.2 1152.0,1191.5 1114.3,1185.2 1076.7,1177.1 1039.2,1167.5 1001.8,1156.4 964.6,1143.9 927.8,1130.0 891.3,1114.8 855.3,1098.5 819.7,1081.0 784.7,1062.7 750.4,1043.5 716.8,1023.6  " style="stroke-opacity: 1.000000; stroke-width: 5.0; stroke: rgb(251,106,74); fill: none"  />
<path d="M 2011.1,738.9 L 1988.2,773.7 1965.7,809.3 1943.8,845.6 1922.6,882.6 1902.0,920.3 1882.2,958.6 1863.2,997.5 1845.1,1037.0 1827.9,1077.0 1811.8,1117.5 1796.7,1158.5 1782.7,1200.0 1769.8,1241.8 1758.1,1284.0 1747.5,1326.6 1738.2,1369.4 1730.1,1412.5 1723.3,1455.8 1717.8,1499.3 1713.5,1543.0 1710.5,1586.7 1708.8,1630.5 1708.3,1674.4 1709.2,1718.2 1711.2,1762.0 1714.5,1805.6 1719.1,1849.2 1724.8,1892.6 1731.6,1935.7 1739.6,1978.6 1748.6,2021.2 1758.7,2063.5 1769.8,2105.3 1781.8,2146.8 1794.7,2187.7 1808.4,2228.1 1822.8,2268.0 1837.9,2307.2 1853.6,2345.8  " style="stroke-opacity: 1.000000; stroke-width: 5.0; stroke: rgb(251,106,74); fill: none"  />
<path d="M 2011.1,738.9 L 1986.1,775.8 1960.6,812.7 1934.6,849.5 1908.0,886.3 1881.0,923.0 1853.4,959.6 1825.3,996.0 1796.8,1032.3 1767.6,1068.3 1738.0,1104.1 1707.9,1139.7 1677.3,1174.9 1646.2,1209.9 1614.6,1244.5 1582.5,1278.8 1550.0,1312.7 1517.0,1346.2 1483.5,1379.4 1449.6,1412.1 1415.3,1444.4 1380.6,1476.2 1345.5,1507.6 1310.0,1538.5 1274.2,1568.9 1238.0,1598.9 1201.5,1628.3 1164.8,1657.2 1127.7,1685.7 1090.4,1713.6 1052.9,1741.0 1015.1,1767.8 977.2,1794.2 939.1,1820.0 901.0,1845.3 862.7,1870.0 824.4,1894.3 786.0,1918.0 747.6,1941.2 709.3,1964.0  " style="stroke-opacity: 1.000000; stroke-width: 5.0; stroke: rgb(251,106,74); fill: none"  />
<path d="M 2011.1,738.9 L 1987.5,773.3 1963.1,807.5 1937.8,841.5 1911.6,875.2 1884.5,908.5 1856.6,941.4 1827.7,973.7 1798.0,1005.4 1767.5,1036.4 1736.0,1066.7 1703.8,1096.2 1670.7,1124.8 1636.9,1152.6 1602.3,1179.4 1566.9,1205.2 1530.7,1230.1 1493.9,1253.9 1456.4,1276.6 1418.2,1298.2 1379.5,1318.6 1340.1,1338.0 1300.2,1356.1 1259.8,1373.1 1218.9,1389.0 1177.6,1403.6 1135.9,1417.1 1093.9,1429.4 1051.6,1440.5 1009.0,1450.5 966.3,1459.3 923.5,1467.1 880.5,1473.7 837.6,1479.3 794.7,1483.9 751.9,1487.5 709.3,1490.1 667.0,1491.8 624.9,1492.7 583.3,1492.7  " style="stroke-opacity: 1.000000; stroke-width: 5.0; stroke: rgb(251,106,74); fill: none"  />
<path d="M 2138.8,842.4 L 2111.9,870.8 2085.5,900.0 2059.8,930.0 2034.9,960.8 2011.0,992.3 1988.1,1024.5 1966.3,1057.3 1945.8,1090.7 1926.7,1124.7 1909.0,1159.1 1892.8,1194.1 1878.2,1229.4 1865.2,1265.1 1854.0,1301.0 1844.5,1337.3 1836.8,1373.8 1830.9,1410.4 1826.9,1447.2 1824.7,1484.1 1824.4,1521.0 1826.0,1557.9 1829.4,1594.8 1834.7,1631.5 1841.9,1668.1 1850.8,1704.5 1861.4,1740.7 1873.8,1776.6 1887.9,1812.1 1903.5,1847.3 1920.7,1882.0 1939.3,1916.3 1959.3,1950.0 1980.5,1983.2 2002.9,2015.7 2026.3,2047.6 2050.7,2078.8 2075.9,2109.2 2101.8,2138.9 2128.3,2167.6  " style="stroke-opacity: 1.000000; stroke-width: 5.0; stroke: rgb(251,106,74); fill: none"  />
<path d="M 2138.8,842.4 L 2108.8,872.7 2078.2,902.8 2046.7,932.7 2014.5,962.1 1981.6,991.2 1948.0,1019.8 1913.6,1047.8 1878.6,1075.3 1842.8,1102.2 1806.4,1128.3 1769.4,1153.8 1731.7,1178.5 1693.4,1202.3 1654.6,1225.4 1615.1,1247.6 1575.2,1268.9 1534.7,1289.2 1493.7,1308.7 1452.3,1327.1 1410.5,1344.6 1368.2,1361.1 1325.6,1376.6 1282.7,1391.1 1239.5,1404.6 1196.0,1417.1 1152.3,1428.6 1108.4,1439.1 1064.4,1448.5 1020.2,1457.0 976.0,1464.6 931.8,1471.1 887.6,1476.8 843.5,1481.5 799.6,1485.4 755.8,1488.4 712.2,1490.6 668.9,1492.1 625.9,1492.7 583.3,1492.7  " style="stroke-opacity: 1.000000; stroke-width: 5.0; stroke: rgb(251,106,74); fill: none"  />
<path d="M 1853.6,2345.8 L 1836.6,2305.7 1818.9,2265.5 1800.5,2225.3 1781.4,2185.0 1761.6,2144.8 1741.2,2104.7 1720.0,2064.7 1698.1,2024.9 1675.5,1985.2 1652.2,1945.8 1628.1,1906.7 1603.3,1867.9 1577.8,1829.5 1551.6,1791.4 1524.7,1753.8 1497.1,1716.6 1468.8,1679.8 1439.8,1643.6 1410.2,1607.8 1379.9,1572.6 1349.0,1537.9 1317.5,1503.9 1285.4,1470.4 1252.8,1437.5 1219.6,1405.3 1185.9,1373.6 1151.7,1342.7 1117.1,1312.4 1082.0,1282.7 1046.6,1253.7 1010.8,1225.4 974.7,1197.8 938.3,1170.9 901.7,1144.6 864.9,1119.1 828.0,1094.2 790.9,1070.0 753.8,1046.5 716.8,1023.6  " style="stroke-opacity: 1.000000; stroke-width: 5.0; stroke: rgb(251,106,74); fill: none"  />
<path d="M 1853.6,2345.8 L 1837.9,2307.2 1822.8,2268.0 1808.4,2228.1 1794.7,2187.7 1781.8,2146.8 1769.8,2105.3 1758.7,2063.5 1748.6,2021.2 1739.6,1978.6 1731.6,1935.7 1724.8,1892.6 1719.1,1849.2 1714.5,1805.6 1711.2,1762.0 1709.2,1718.2 1708.3,1674.4 1708.8,1630.5 1710.5,1586.7 1713.5,1543.0 1717.8,1499.3 1723.3,1455.8 1730.1,1412.5 1738.2,1369.4 1747.5,1326.6 1758.1,1284.0 1769.8,1241.8 1782.7,1200.0 1796.7,1158.5 1811.8,1117.5 1827.9,1077.0 1845.1,1037.0 1863.2,997.5 1882.2,958.6 1902.0,920.3 1922.6,882.6 1943.8,845.6 1965.7,809.3 1988.2,773.7 2011.1,738.9  " style="stroke-opacity: 1.000000; stroke-width: 5.0; stroke: rgb(251,106,74); fill: none"  />
<path d="M 1853.6,2345.8 L 1839.3,2310.3 1825.7,2274.2 1813.2,2237.7 1801.7,2200.9 1791.4,2163.9 1782.3,2126.8 1774.7,2089.7 1768.5,2052.6 1763.8,2015.7 1760.7,1979.0 1759.3,1942.7 1759.6,1906.8 1761.7,1871.3 1765.5,1836.4 1771.2,1802.2 1778.7,1768.6 1788.1,1735.7 1799.3,1703.6 1812.4,1672.3 1827.3,1642.0 1844.0,1612.5 1862.6,1584.0 1882.9,1556.5 1904.9,1530.0 1928.6,1504.6 1953.8,1480.2 1980.6,1456.9 2008.9,1434.8 2038.5,1413.7 2069.4,1393.7 2101.5,1374.9 2134.6,1357.1 2168.7,1340.5 2203.6,1325.0 2239.2,1310.5 2275.4,1297.1 2311.9,1284.8 2348.7,1273.5 2385.6,1263.1  " style="stroke-opacity: 1.000000; stroke-width: 5.0; stroke: rgb(251,106,74); fill: none"  />
<path d="M 1853.6,2345.8 L 1839.5,2310.9 1826.2,2275.6 1813.9,2240.0 1802.7,2204.1 1792.6,2168.2 1783.9,2132.3 1776.6,2096.6 1770.7,2061.2 1766.4,2026.1 1763.8,1991.4 1762.9,1957.3 1763.7,1923.9 1766.3,1891.1 1770.8,1859.1 1777.1,1828.0 1785.3,1797.8 1795.4,1768.6 1807.5,1740.4 1821.4,1713.3 1837.2,1687.3 1854.9,1662.5 1874.4,1638.8 1895.7,1616.4 1918.7,1595.2 1943.4,1575.3 1969.8,1556.6 1997.6,1539.2 2027.0,1523.1 2057.7,1508.3 2089.7,1494.7 2122.8,1482.3 2157.0,1471.2 2192.1,1461.3 2227.9,1452.6 2264.4,1445.0 2301.4,1438.5 2338.8,1433.0 2376.2,1428.6 2413.7,1425.1  " style="stroke-opacity: 1.000000; stroke-width: 5.0; stroke: rgb(251,106,74); fill: none"  />
<path d="M 2245.9,967.0 L 2213.0,991.1 2180.3,1016.0 2148.0,1041.9 2116.1,1068.8 2084.8,1096.5 2054.0,1125.1 2024.0,1154.7 1994.8,1185.1 1966.5,1216.4 1939.2,1248.5 1912.8,1281.4 1887.5,1315.2 1863.4,1349.7 1840.4,1385.0 1818.7,1421.0 1798.3,1457.7 1779.1,1495.1 1761.3,1533.1 1744.9,1571.7 1729.9,1610.8 1716.2,1650.5 1704.0,1690.6 1693.2,1731.2 1683.8,1772.1 1675.8,1813.4 1669.2,1855.0 1664.0,1896.8 1660.1,1938.8 1657.6,1980.9 1656.5,2023.1 1656.5,2065.3 1657.8,2107.4 1660.3,2149.4 1664.0,2191.3 1668.7,2232.9 1674.4,2274.2 1681.0,2315.0 1688.6,2355.5 1696.9,2395.4  " style="stroke-opacity: 1.000000; stroke-width: 5.0; stroke: rgb(251,106,74); fill: none"  />
<path d="M 1696.9,2395.4 L 1688.6,2355.5 1681.0,2315.0 1674.4,2274.2 1668.7,2232.9 1664.0,2191.3 1660.3,2149.4 1657.8,2107.4 1656.5,2065.3 1656.5,2023.1 1657.6,1980.9 1660.1,1938.8 1664.0,1896.8 1669.2,1855.0 1675.8,1813.4 1683.8,1772.1 1693.2,1731.2 1704.0,1690.6 1716.2,1650.5 1729.9,1610.8 1744.9,1571.7 1761.3,1533.1 1779.1,1495.1 1798.3,1457.7 1818.7,1421.0 1840.4,1385.0 1863.4,1349.7 1887.5,1315.2 1912.8,1281.4 1939.2,1248.5 1966.5,1216.4 1994.8,1185.1 2024.0,1154.7 2054.0,1125.1 2084.8,1096.5 2116.1,1068.8 2148.0,1041.9 2180.3,1016.0 2213.0,991.1 2245.9,967.0  " style="stroke-opacity: 1.000000; stroke-width: 5.0; stroke: rgb(251,106,74); fill: none"  />
<path d="M 1696.9,2395.4 L 1689.0,2357.1 1681.9,2318.4 1675.9,2279.4 1671.0,2240.1 1667.2,2200.7 1664.6,2161.2 1663.4,2121.9 1663.6,2082.7 1665.2,2043.7 1668.3,2005.1 1672.9,1966.9 1679.1,1929.2 1686.8,1892.0 1696.2,1855.5 1707.2,1819.7 1719.9,1784.6 1734.2,1750.3 1750.1,1716.9 1767.7,1684.4 1786.9,1652.9 1807.7,1622.4 1830.0,1592.8 1853.8,1564.4 1879.2,1537.0 1905.9,1510.8 1934.0,1485.6 1963.4,1461.6 1994.1,1438.8 2025.9,1417.2 2058.8,1396.7 2092.6,1377.3 2127.4,1359.1 2162.9,1342.1 2199.1,1326.2 2235.8,1311.5 2273.0,1297.8 2310.4,1285.2 2348.0,1273.7 2385.6,1263.1  " style="stroke-opacity: 1.000000; stroke-width: 5.0; stroke: rgb(251,106,74); fill: none"  />
<path d="M 1533.9,2416.1 L 1532.5,2372.6 1531.8,2328.7 1531.6,2284.4 1532.0,2239.9 1533.0,2195.1 1534.8,2150.1 1537.2,2104.9 1540.4,2059.5 1544.3,2014.1 1548.9,1968.6 1554.4,1923.0 1560.6,1877.4 1567.6,1831.8 1575.4,1786.2 1584.0,1740.7 1593.5,1695.4 1603.7,1650.2 1614.8,1605.1 1626.7,1560.2 1639.4,1515.5 1653.0,1471.1 1667.3,1427.0 1682.3,1383.1 1698.2,1339.5 1714.8,1296.3 1732.1,1253.5 1750.1,1211.0 1768.9,1169.0 1788.3,1127.4 1808.3,1086.2 1828.9,1045.5 1850.1,1005.3 1871.8,965.6 1894.0,926.4 1916.7,887.8 1939.8,849.7 1963.2,812.2 1987.0,775.2 2011.1,738.9  " style="stroke-opacity: 1.000000; stroke-width: 5.0; stroke: rgb(251,106,74); fill: none"  />
<path d="M 1533.9,2416.1 L 1532.9,2376.3 1532.8,2336.0 1533.7,2295.6 1535.7,2255.0 1538.8,2214.4 1543.2,2173.8 1548.7,2133.4 1555.5,2093.3 1563.7,2053.4 1573.2,2014.0 1584.0,1975.0 1596.3,1936.6 1610.0,1898.8 1625.1,1861.7 1641.6,1825.4 1659.5,1789.8 1678.9,1755.1 1699.7,1721.3 1721.8,1688.5 1745.4,1656.6 1770.2,1625.8 1796.4,1596.0 1823.9,1567.3 1852.6,1539.7 1882.5,1513.2 1913.5,1487.9 1945.6,1463.7 1978.7,1440.7 2012.8,1418.9 2047.7,1398.2 2083.4,1378.7 2119.8,1360.4 2156.8,1343.2 2194.2,1327.2 2232.2,1312.2 2270.4,1298.4 2308.7,1285.6 2347.2,1273.9 2385.6,1263.1  " style="stroke-opacity: 1.000000; stroke-width: 5.0; stroke: rgb(251,106,74); fill: none"  />
<path d="M 2329.1,1108.8 L 2288.7,1127.6 2247.9,1146.2 2206.7,1164.5 2165.0,1182.5 2123.0,1200.1 2080.6,1217.4 2037.8,1234.2 1994.6,1250.7 1951.2,1266.7 1907.4,1282.2 1863.3,1297.3 1818.9,1311.9 1774.3,1325.9 1729.4,1339.4 1684.3,1352.4 1639.0,1364.9 1593.4,1376.7 1547.7,1388.0 1501.8,1398.7 1455.8,1408.8 1409.7,1418.4 1363.5,1427.3 1317.2,1435.6 1270.8,1443.4 1224.4,1450.5 1178.0,1457.1 1131.6,1463.0 1085.2,1468.4 1038.8,1473.3 992.6,1477.5 946.4,1481.2 900.3,1484.4 854.4,1487.0 808.7,1489.1 763.1,1490.8 717.8,1491.9 672.7,1492.6 627.8,1492.9 583.3,1492.7  " style="stroke-opacity: 1.000000; stroke-width: 5.0; stroke: rgb(251,106,74); fill: none"  />
<path d="M 1209.8,2369.6 L 1223.4,2330.2 1237.8,2290.7 1253.2,2251.2 1269.4,2211.8 1286.7,2172.5 1304.9,2133.4 1324.1,2094.6 1344.3,2056.1 1365.5,2018.1 1387.7,1980.5 1411.0,1943.5 1435.2,1907.1 1460.5,1871.3 1486.7,1836.3 1514.0,1801.9 1542.2,1768.4 1571.4,1735.6 1601.5,1703.8 1632.5,1672.8 1664.4,1642.8 1697.2,1613.7 1730.9,1585.5 1765.3,1558.4 1800.5,1532.3 1836.4,1507.1 1873.0,1483.1 1910.3,1460.0 1948.1,1438.1 1986.4,1417.1 2025.3,1397.2 2064.5,1378.3 2104.1,1360.5 2144.0,1343.7 2184.2,1327.9 2224.4,1313.1 2264.8,1299.2 2305.2,1286.3 2345.5,1274.3 2385.6,1263.1  " style="stroke-opacity: 1.000000; stroke-width: 5.0; stroke: rgb(251,106,74); fill: none"  />
<path d="M 2385.6,1263.1 L 2348.7,1273.5 2311.9,1284.8 2275.4,1297.1 2239.2,1310.5 2203.6,1325.0 2168.7,1340.5 2134.6,1357.1 2101.5,1374.9 2069.4,1393.7 2038.5,1413.7 2008.9,1434.8 1980.6,1456.9 1953.8,1480.2 1928.6,1504.6 1904.9,1530.0 1882.9,1556.5 1862.6,1584.0 1844.0,1612.5 1827.3,1642.0 1812.4,1672.3 1799.3,1703.6 1788.1,1735.7 1778.7,1768.6 1771.2,1802.2 1765.5,1836.4 1761.7,1871.3 1759.6,1906.8 1759.3,1942.7 1760.7,1979.0 1763.8,2015.7 1768.5,2052.6 1774.7,2089.7 1782.3,2126.8 1791.4,2163.9 1801.7,2200.9 1813.2,2237.7 1825.7,2274.2 1839.3,2310.3 1853.6,2345.8  " style="stroke-opacity: 1.000000; stroke-width: 5.0; stroke: rgb(251,106,74); fill: none"  />
<path d="M 2385.6,1263.1 L 2348.0,1273.7 2310.4,1285.2 2273.0,1297.8 2235.8,1311.5 2199.1,1326.2 2162.9,1342.1 2127.4,1359.1 2092.6,1377.3 2058.8,1396.7 2025.9,1417.2 1994.1,1438.8 1963.4,1461.6 1934.0,1485.6 1905.9,1510.8 1879.2,1537.0 1853.8,1564.4 1830.0,1592.8 1807.7,1622.4 1786.9,1652.9 1767.7,1684.4 1750.1,1716.9 1734.2,1750.3 1719.9,1784.6 1707.2,1819.7 1696.2,1855.5 1686.8,1892.0 1679.1,1929.2 1672.9,1966.9 1668.3,2005.1 1665.2,2043.7 1663.6,2082.7 1663.4,2121.9 1664.6,2161.2 1667.2,2200.7 1671.0,2240.1 1675.9,2279.4 1681.9,2318.4 1689.0,2357.1 1696.9,2395.4  " style="stroke-opacity: 1.000000; stroke-width: 5.0; stroke: rgb(251,106,74); fill: none"  />
<path d="M 2385.6,1263.1 L 2347.2,1273.9 2308.7,1285.6 2270.4,1298.4 2232.2,1312.2 2194.2,1327.2 2156.8,1343.2 2119.8,1360.4 2083.4,1378.7 2047.7,1398.2 2012.8,1418.9 1978.7,1440.7 1945.6,1463.7 1913.5,1487.9 1882.5,1513.2 1852.6,1539.7 1823.9,1567.3 1796.4,1596.0 1770.2,1625.8 1745.4,1656.6 1721.8,1688.5 1699.7,1721.3 1678.9,1755.1 1659.5,1789.8 1641.6,1825.4 1625.1,1861.7 1610.0,1898.8 1596.3,1936.6 1584.0,1975.0 1573.2,2014.0 1563.7,2053.4 1555.5,2093.3 1548.7,2133.4 1543.2,2173.8 1538.8,2214.4 1535.7,2255.0 1533.7,2295.6 1532.8,2336.0 1532.9,2376.3 1533.9,2416.1  " style="stroke-opacity: 1.000000; stroke-width: 5.0; stroke: rgb(251,106,74); fill: none"  />
<path d="M 2385.6,1263.1 L 2345.5,1274.3 2305.2,1286.3 2264.8,1299.2 2224.4,1313.1 2184.2,1327.9 2144.0,1343.7 2104.1,1360.5 2064.5,1378.3 2025.3,1397.2 1986.4,1417.1 1948.1,1438.1 1910.3,1460.0 1873.0,1483.1 1836.4,1507.1 1800.5,1532.3 1765.3,1558.4 1730.9,1585.5 1697.2,1613.7 1664.4,1642.8 1632.5,1672.8 1601.5,1703.8 1571.4,1735.6 1542.2,1768.4 1514.0,1801.9 1486.7,1836.3 1460.5,1871.3 1435.2,1907.1 1411.0,1943.5 1387.7,1980.5 1365.5,2018.1 1344.3,2056.1 1324.1,2094.6 1304.9,2133.4 1286.7,2172.5 1269.4,2211.8 1253.2,2251.2 1237.8,2290.7 1223.4,2330.2 1209.8,2369.6  " style="stroke-opacity: 1.000000; stroke-width: 5.0; stroke: rgb(251,106,74); fill: none"  />
<path d="M 2385.6,1263.1 L 2341.7,1275.0 2297.6,1287.2 2253.4,1299.7 2209.1,1312.5 2164.8,1325.6 2120.3,1339.0 2075.9,1352.8 2031.4,1366.9 1986.9,1381.4 1942.4,1396.2 1898.0,1411.3 1853.5,1426.8 1809.1,1442.7 1764.8,1458.9 1720.6,1475.4 1676.4,1492.3 1632.3,1509.6 1588.4,1527.1 1544.5,1545.1 1500.8,1563.3 1457.3,1582.0 1413.9,1600.9 1370.6,1620.1 1327.6,1639.7 1284.7,1659.6 1242.0,1679.8 1199.6,1700.2 1157.3,1721.0 1115.3,1742.0 1073.5,1763.2 1032.0,1784.8 990.7,1806.5 949.7,1828.5 908.9,1850.6 868.4,1873.0 828.2,1895.5 788.3,1918.2 748.7,1941.0 709.3,1964.0  " style="stroke-opacity: 1.000000; stroke-width: 5.0; stroke: rgb(251,106,74); fill: none"  />
<path d="M 2385.6,1263.1 L 2340.7,1275.2 2295.7,1287.3 2250.7,1299.6 2205.6,1312.0 2160.5,1324.5 2115.4,1337.1 2070.2,1349.8 2025.1,1362.6 1979.9,1375.5 1934.7,1388.6 1889.5,1401.7 1844.3,1415.0 1799.1,1428.4 1754.0,1442.0 1708.8,1455.6 1663.7,1469.4 1618.5,1483.3 1573.4,1497.3 1528.4,1511.4 1483.3,1525.6 1438.3,1540.0 1393.4,1554.4 1348.5,1569.0 1303.6,1583.7 1258.8,1598.5 1214.1,1613.4 1169.4,1628.4 1124.8,1643.5 1080.2,1658.7 1035.8,1674.0 991.4,1689.4 947.0,1704.9 902.8,1720.5 858.6,1736.1 814.6,1751.8 770.6,1767.6 726.7,1783.4 682.9,1799.4 639.2,1815.3  " style="stroke-opacity: 1.000000; stroke-width: 5.0; stroke: rgb(251,106,74); fill: none"  />
<path d="M 2385.6,1263.1 L 2341.6,1274.8 2297.3,1286.2 2252.8,1297.5 2208.0,1308.5 2163.1,1319.3 2117.9,1329.8 2072.5,1340.0 2026.9,1350.0 1981.1,1359.7 1935.2,1369.1 1889.1,1378.2 1842.9,1386.9 1796.5,1395.3 1750.0,1403.4 1703.4,1411.2 1656.7,1418.6 1609.9,1425.7 1563.0,1432.4 1516.1,1438.7 1469.1,1444.7 1422.1,1450.3 1375.0,1455.6 1327.9,1460.5 1280.8,1465.0 1233.8,1469.2 1186.7,1473.0 1139.7,1476.5 1092.8,1479.6 1045.9,1482.4 999.1,1484.8 952.3,1486.9 905.7,1488.7 859.2,1490.1 812.8,1491.3 766.6,1492.1 720.5,1492.7 674.6,1493.0 628.8,1493.0 583.3,1492.7  " style="stroke-opacity: 1.000000; stroke-width: 5.0; stroke: rgb(251,106,74); fill: none"  />
<path d="M 709.3,1964.0 L 747.6,1941.2 786.0,1918.0 824.4,1894.3 862.7,1870.0 901.0,1845.3 939.1,1820.0 977.2,1794.2 1015.1,1767.8 1052.9,1741.0 1090.4,1713.6 1127.7,1685.7 1164.8,1657.2 1201.5,1628.3 1238.0,1598.9 1274.2,1568.9 1310.0,1538.5 1345.5,1507.6 1380.6,1476.2 1415.3,1444.4 1449.6,1412.1 1483.5,1379.4 1517.0,1346.2 1550.0,1312.7 1582.5,1278.8 1614.6,1244.5 1646.2,1209.9 1677.3,1174.9 1707.9,1139.7 1738.0,1104.1 1767.6,1068.3 1796.8,1032.3 1825.3,996.0 1853.4,959.6 1881.0,923.0 1908.0,886.3 1934.6,849.5 1960.6,812.7 1986.1,775.8 2011.1,738.9  " style="stroke-opacity: 1.000000; stroke-width: 5.0; stroke: rgb(251,106,74); fill: none"  />
<path d="M 709.3,1964.0 L 747.8,1941.6 786.8,1919.4 826.3,1897.5 866.1,1875.9 906.4,1854.5 947.1,1833.5 988.2,1812.9 1029.7,1792.7 1071.5,1772.8 1113.8,1753.4 1156.3,1734.4 1199.2,1716.0 1242.4,1698.0 1285.9,1680.5 1329.7,1663.5 1373.7,1647.1 1418.0,1631.2 1462.5,1615.8 1507.2,1601.1 1552.2,1586.9 1597.3,1573.2 1642.5,1560.2 1687.9,1547.7 1733.4,1535.9 1778.9,1524.6 1824.6,1513.9 1870.3,1503.8 1916.0,1494.3 1961.7,1485.3 2007.4,1476.9 2053.1,1469.1 2098.7,1461.8 2144.1,1455.1 2189.5,1448.8 2234.7,1443.1 2279.8,1437.9 2324.7,1433.2 2369.3,1428.9 2413.7,1425.1  " style="stroke-opacity: 1.000000; stroke-width: 5.0; stroke: rgb(251,106,74); fill: none"  />
<path d="M 639.2,1815.3 L 680.0,1800.1 720.9,1784.2 762.0,1767.6 803.0,1750.4 844.1,1732.5 885.1,1713.8 926.0,1694.5 966.8,1674.4 1007.4,1653.6 1047.8,1632.0 1087.9,1609.7 1127.8,1586.7 1167.3,1563.0 1206.5,1538.5 1245.4,1513.3 1283.8,1487.4 1321.8,1460.8 1359.3,1433.5 1396.3,1405.5 1432.9,1376.8 1468.9,1347.5 1504.3,1317.5 1539.2,1287.0 1573.5,1255.8 1607.2,1224.1 1640.3,1191.9 1672.8,1159.1 1704.6,1125.9 1735.8,1092.2 1766.4,1058.1 1796.2,1023.6 1825.4,988.8 1854.0,953.6 1881.8,918.2 1909.0,882.6 1935.5,846.8 1961.4,810.9 1986.6,774.9 2011.1,738.9  " style="stroke-opacity: 1.000000; stroke-width: 5.0; stroke: rgb(251,106,74); fill: none"  />
<path d="M 639.2,1815.3 L 681.9,1799.5 724.7,1783.5 767.6,1767.1 810.6,1750.3 853.6,1733.3 896.6,1715.9 939.6,1698.2 982.7,1680.2 1025.7,1661.8 1068.7,1643.1 1111.6,1624.0 1154.5,1604.6 1197.2,1584.8 1239.9,1564.7 1282.5,1544.3 1325.0,1523.5 1367.4,1502.3 1409.6,1480.9 1451.6,1459.1 1493.5,1437.0 1535.2,1414.5 1576.8,1391.8 1618.1,1368.7 1659.2,1345.4 1700.1,1321.8 1740.8,1297.8 1781.3,1273.7 1821.5,1249.2 1861.4,1224.5 1901.1,1199.6 1940.6,1174.4 1979.8,1149.1 2018.7,1123.5 2057.3,1097.8 2095.6,1071.9 2133.6,1045.9 2171.4,1019.7 2208.8,993.4 2245.9,967.0  " style="stroke-opacity: 1.000000; stroke-width: 5.0; stroke: rgb(251,106,74); fill: none"  />
<path d="M 639.2,1815.3 L 682.0,1799.8 725.1,1784.4 768.4,1769.2 812.0,1754.2 855.8,1739.5 899.9,1724.9 944.2,1710.6 988.7,1696.6 1033.4,1682.9 1078.3,1669.4 1123.4,1656.2 1168.7,1643.4 1214.1,1630.8 1259.7,1618.6 1305.4,1606.7 1351.3,1595.1 1397.2,1583.9 1443.3,1573.0 1489.5,1562.5 1535.8,1552.3 1582.1,1542.5 1628.5,1533.0 1674.9,1523.9 1721.4,1515.2 1767.9,1506.8 1814.4,1498.8 1860.9,1491.1 1907.4,1483.8 1953.9,1476.8 2000.3,1470.2 2046.6,1463.9 2092.9,1458.0 2139.1,1452.4 2185.2,1447.1 2231.2,1442.1 2277.0,1437.4 2322.8,1433.0 2368.3,1428.9 2413.7,1425.1  " style="stroke-opacity: 1.000000; stroke-width: 5.0; stroke: rgb(251,106,74); fill: none"  />
<path d="M 2413.7,1425.1 L 2376.2,1428.6 2338.8,1433.0 2301.4,1438.5 2264.4,1445.0 2227.9,1452.6 2192.1,1461.3 2157.0,1471.2 2122.8,1482.3 2089.7,1494.7 2057.7,1508.3 2027.0,1523.1 1997.6,1539.2 1969.8,1556.6 1943.4,1575.3 1918.7,1595.2 1895.7,1616.4 1874.4,1638.8 1854.9,1662.5 1837.2,1687.3 1821.4,1713.3 1807.5,1740.4 1795.4,1768.6 1785.3,1797.8 1777.1,1828.0 1770.8,1859.1 1766.3,1891.1 1763.7,1923.9 1762.9,1957.3 1763.8,1991.4 1766.4,2026.1 1770.7,2061.2 1776.6,2096.6 1783.9,2132.3 1792.6,2168.2 1802.7,2204.1 1813.9,2240.0 1826.2,2275.6 1839.5,2310.9 1853.6,2345.8  " style="stroke-opacity: 1.000000; stroke-width: 5.0; stroke: rgb(251,106,74); fill: none"  />
<path d="M 2413.7,1425.1 L 2375.5,1428.6 2337.3,1433.2 2299.1,1438.8 2261.2,1445.6 2223.6,1453.4 2186.4,1462.5 2149.9,1472.7 2114.1,1484.3 2079.2,1497.1 2045.2,1511.2 2012.3,1526.7 1980.6,1543.5 1950.1,1561.6 1920.8,1581.1 1893.0,1601.9 1866.6,1624.0 1841.8,1647.4 1818.4,1672.1 1796.7,1698.1 1776.6,1725.4 1758.1,1753.8 1741.4,1783.3 1726.3,1814.0 1712.9,1845.7 1701.2,1878.4 1691.1,1912.1 1682.8,1946.6 1676.1,1981.9 1671.0,2017.9 1667.5,2054.5 1665.5,2091.6 1665.0,2129.2 1665.9,2167.1 1668.1,2205.3 1671.7,2243.5 1676.4,2281.8 1682.3,2320.0 1689.1,2357.8 1696.9,2395.4  " style="stroke-opacity: 1.000000; stroke-width: 5.0; stroke: rgb(251,106,74); fill: none"  />
<path d="M 2413.7,1425.1 L 2373.1,1428.8 2332.3,1433.5 2291.2,1439.1 2250.1,1445.8 2208.9,1453.5 2167.9,1462.4 2127.0,1472.3 2086.3,1483.5 2046.0,1495.8 2006.0,1509.3 1966.5,1524.1 1927.5,1540.1 1889.0,1557.4 1851.2,1575.9 1814.1,1595.7 1777.7,1616.7 1742.1,1638.9 1707.4,1662.4 1673.5,1687.1 1640.5,1713.0 1608.4,1740.1 1577.3,1768.2 1547.3,1797.5 1518.2,1827.9 1490.1,1859.2 1463.2,1891.5 1437.3,1924.7 1412.4,1958.8 1388.7,1993.7 1366.0,2029.3 1344.4,2065.5 1324.0,2102.4 1304.5,2139.7 1286.2,2177.5 1268.9,2215.6 1252.6,2254.0 1237.4,2292.5 1223.1,2331.1 1209.8,2369.6  " style="stroke-opacity: 1.000000; stroke-width: 5.0; stroke: rgb(251,106,74); fill: none"  />
<path d="M 2413.7,1425.1 L 2369.3,1428.9 2324.7,1433.2 2279.8,1437.9 2234.7,1443.1 2189.5,1448.8 2144.1,1455.1 2098.7,1461.8 2053.1,1469.1 2007.4,1476.9 1961.7,1485.3 1916.0,1494.3 1870.3,1503.8 1824.6,1513.9 1778.9,1524.6 1733.4,1535.9 1687.9,1547.7 1642.5,1560.2 1597.3,1573.2 1552.2,1586.9 1507.2,1601.1 1462.5,1615.8 1418.0,1631.2 1373.7,1647.1 1329.7,1663.5 1285.9,1680.5 1242.4,1698.0 1199.2,1716.0 1156.3,1734.4 1113.8,1753.4 1071.5,1772.8 1029.7,1792.7 988.2,1812.9 947.1,1833.5 906.4,1854.5 866.1,1875.9 826.3,1897.5 786.8,1919.4 747.8,1941.6 709.3,1964.0  " style="stroke-opacity: 1.000000; stroke-width: 5.0; stroke: rgb(251,106,74); fill: none"  />
<path d="M 1384.1,590.6 L 1389.0,626.3 1394.5,661.8 1400.6,696.8 1407.4,731.2 1414.9,764.7 1423.2,797.2 1432.1,828.4 1441.7,858.2 1452.1,886.4 1463.2,913.0 1475.1,937.7 1487.7,960.4 1501.0,981.0 1515.0,999.5 1529.7,1015.8 1545.1,1029.7 1561.2,1041.3 1577.9,1050.5 1595.3,1057.2 1613.2,1061.4 1631.8,1063.2 1650.8,1062.5 1670.4,1059.4 1690.4,1053.8 1710.9,1045.9 1731.7,1035.6 1752.8,1023.1 1774.3,1008.4 1795.9,991.7 1817.7,972.9 1839.7,952.4 1861.7,930.0 1883.6,906.1 1905.5,880.8 1927.2,854.2 1948.7,826.5 1969.9,797.9 1990.7,768.7 2011.1,738.9  " style="stroke-opacity: 1.000000; stroke-width: 5.0; stroke: rgb(251,106,74); fill: none"  />
<path d="M 583.3,1492.7 L 624.9,1492.7 667.0,1491.8 709.3,1490.1 751.9,1487.5 794.7,1483.9 837.6,1479.3 880.5,1473.7 923.5,1467.1 966.3,1459.3 1009.0,1450.5 1051.6,1440.5 1093.9,1429.4 1135.9,1417.1 1177.6,1403.6 1218.9,1389.0 1259.8,1373.1 1300.2,1356.1 1340.1,1338.0 1379.5,1318.6 1418.2,1298.2 1456.4,1276.6 1493.9,1253.9 1530.7,1230.1 1566.9,1205.2 1602.3,1179.4 1636.9,1152.6 1670.7,1124.8 1703.8,1096.2 1736.0,1066.7 1767.5,1036.4 1798.0,1005.4 1827.7,973.7 1856.6,941.4 1884.5,908.5 1911.6,875.2 1937.8,841.5 1963.1,807.5 1987.5,773.3 2011.1,738.9  " style="stroke-opacity: 1.000000; stroke-width: 5.0; stroke: rgb(251,106,74); fill: none"  />
<path d="M 583.3,1492.7 L 628.8,1493.0 674.6,1493.0 720.5,1492.7 766.6,1492.1 812.8,1491.3 859.2,1490.1 905.7,1488.7 952.3,1486.9 999.1,1484.8 1045.9,1482.4 1092.8,1479.6 1139.7,1476.5 1186.7,1473.0 1233.8,1469.2 1280.8,1465.0 1327.9,1460.5 1375.0,1455.6 1422.1,1450.3 1469.1,1444.7 1516.1,1438.7 1563.0,1432.4 1609.9,1425.7 1656.7,1418.6 1703.4,1411.2 1750.0,1403.4 1796.5,1395.3 1842.9,1386.9 1889.1,1378.2 1935.2,1369.1 1981.1,1359.7 2026.9,1350.0 2072.5,1340.0 2117.9,1329.8 2163.1,1319.3 2208.0,1308.5 2252.8,1297.5 2297.3,1286.2 2341.6,1274.8 2385.6,1263.1  " style="stroke-opacity: 1.000000; stroke-width: 5.0; stroke: rgb(251,106,74); fill: none"  />
<path d="M 599.3,1329.2 L 637.0,1335.9 675.1,1341.6 713.4,1346.4 751.8,1350.0 790.1,1352.4 828.3,1353.6 866.3,1353.4 903.8,1351.8 940.9,1348.7 977.4,1344.1 1013.2,1338.0 1048.3,1330.3 1082.5,1320.9 1115.9,1309.9 1148.2,1297.3 1179.6,1282.9 1209.8,1267.0 1238.8,1249.3 1266.7,1230.1 1293.3,1209.2 1318.7,1186.7 1342.7,1162.7 1365.4,1137.1 1386.8,1110.1 1406.8,1081.7 1425.4,1051.9 1442.6,1020.9 1458.5,988.6 1472.9,955.3 1486.1,920.9 1497.9,885.7 1508.4,849.6 1517.6,812.8 1525.6,775.4 1532.3,737.6 1537.9,699.4 1542.4,661.1 1545.9,622.8 1548.4,584.5  " style="stroke-opacity: 1.000000; stroke-width: 5.0; stroke: rgb(251,106,74); fill: none"  />
</g>
<g id="track_0">
<path d="M 2128.3,2167.6 L 2103.4,2141.6 2078.1,2116.1 2052.5,2091.4 2026.8,2067.6 2001.0,2044.9 1975.3,2023.4 1949.7,2003.4 1924.4,1985.0 1899.4,1968.2 1874.8,1953.3 1850.7,1940.3 1827.2,1929.3 1804.3,1920.4 1782.0,1913.7 1760.6,1909.2 1739.9,1907.0 1720.1,1907.1 1701.2,1909.5 1683.2,1914.3 1666.2,1921.4 1650.1,1930.8 1635.1,1942.6 1621.1,1956.6 1608.2,1972.9 1596.3,1991.3 1585.5,2011.9 1575.8,2034.4 1567.0,2058.9 1559.4,2085.2 1552.7,2113.2 1547.1,2142.7 1542.4,2173.7 1538.7,2205.9 1535.9,2239.3 1533.9,2273.6 1532.8,2308.6 1532.5,2344.2 1532.9,2380.1 1533.9,2416.1  " style="stroke-opacity: 1.000000; stroke-width: 5.0; stroke: rgb(107,174,214); fill: none"  />
<path d="M 2128.3,2167.6 L 2098.8,2136.8 2068.6,2106.2 2037.7,2075.9 2005.9,2045.9 1973.5,2016.4 1940.3,1987.3 1906.4,1958.7 1871.8,1930.6 1836.5,1903.2 1800.5,1876.5 1763.9,1850.4 1726.6,1825.2 1688.7,1800.7 1650.2,1777.0 1611.1,1754.2 1571.5,1732.3 1531.3,1711.3 1490.7,1691.2 1449.6,1672.1 1408.0,1653.9 1366.0,1636.8 1323.7,1620.6 1281.0,1605.4 1238.0,1591.2 1194.7,1578.1 1151.2,1565.9 1107.5,1554.7 1063.6,1544.6 1019.6,1535.4 975.5,1527.1 931.4,1519.9 887.4,1513.5 843.3,1508.1 799.4,1503.5 755.7,1499.8 712.1,1496.9 668.8,1494.8 625.9,1493.4 583.3,1492.7  " style="stroke-opacity: 1.000000; stroke-width: 5.0; stroke: rgb(107,174,214); fill: none"  />
<path d="M 1548.4,584.5 L 1546.6,619.7 1545.0,654.7 1543.6,689.2 1542.5,722.9 1541.7,755.7 1541.1,787.2 1540.9,817.4 1540.9,846.0 1541.3,872.9 1542.1,898.0 1543.3,920.9 1544.8,941.8 1546.7,960.3 1549.0,976.5 1551.8,990.2 1554.9,1001.4 1558.4,1010.1 1562.3,1016.1 1566.6,1019.4 1571.3,1020.1 1576.3,1018.1 1581.8,1013.4 1587.6,1006.1 1593.7,996.3 1600.2,983.8 1607.0,969.0 1614.0,951.7 1621.3,932.1 1628.9,910.4 1636.7,886.6 1644.7,860.9 1652.8,833.5 1661.0,804.4 1669.4,774.0 1677.8,742.3 1686.2,709.6 1694.6,676.2 1702.9,642.2 1711.1,607.9  " style="stroke-opacity: 1.000000; stroke-width: 5.0; stroke: rgb(107,174,214); fill: none"  />
<path d="M 1548.4,584.5 L 1546.7,619.9 1545.3,655.1 1544.4,689.8 1543.9,723.8 1543.9,756.9 1544.3,788.8 1545.4,819.5 1546.9,848.7 1549.1,876.2 1551.9,901.9 1555.3,925.6 1559.3,947.3 1564.0,966.8 1569.3,984.0 1575.2,998.8 1581.9,1011.2 1589.1,1021.0 1597.1,1028.4 1605.6,1033.1 1614.8,1035.3 1624.6,1034.9 1634.9,1031.9 1645.9,1026.3 1657.3,1018.2 1669.3,1007.6 1681.8,994.6 1694.7,979.3 1708.0,961.7 1721.6,942.0 1735.6,920.3 1749.9,896.7 1764.4,871.3 1779.0,844.4 1793.8,816.0 1808.6,786.4 1823.4,755.8 1838.1,724.3 1852.6,692.3 1867.0,659.9  " style="stroke-opacity: 1.000000; stroke-width: 5.0; stroke: rgb(107,174,214); fill: none"  />
<path d="M 1548.4,584.5 L 1546.8,620.5 1545.9,656.4 1545.6,692.0 1546.2,727.0 1547.6,761.4 1549.9,794.8 1553.1,827.1 1557.3,858.1 1562.4,887.7 1568.6,915.8 1575.9,942.2 1584.2,966.9 1593.6,989.6 1604.1,1010.3 1615.7,1028.9 1628.4,1045.3 1642.1,1059.6 1656.9,1071.6 1672.8,1081.3 1689.7,1088.7 1707.6,1093.7 1726.5,1096.5 1746.3,1096.9 1767.0,1095.0 1788.6,1090.8 1810.9,1084.5 1833.9,1075.9 1857.6,1065.3 1881.9,1052.7 1906.7,1038.2 1932.0,1021.8 1957.6,1003.8 1983.5,984.2 2009.6,963.1 2035.7,940.9 2061.8,917.5 2087.7,893.1 2113.4,868.0 2138.8,842.4  " style="stroke-opacity: 1.000000; stroke-width: 5.0; stroke: rgb(107,174,214); fill: none"  />
<path d="M 1548.4,584.5 L 1546.8,621.0 1546.0,657.4 1546.1,693.6 1547.1,729.3 1549.0,764.5 1552.0,798.9 1556.1,832.3 1561.2,864.7 1567.6,895.7 1575.1,925.4 1583.8,953.7 1593.8,980.2 1605.0,1005.1 1617.5,1028.2 1631.3,1049.4 1646.3,1068.6 1662.5,1085.8 1680.0,1101.0 1698.7,1114.0 1718.6,1124.9 1739.7,1133.7 1761.9,1140.3 1785.1,1144.8 1809.4,1147.1 1834.6,1147.3 1860.8,1145.4 1887.8,1141.5 1915.6,1135.6 1944.1,1127.8 1973.2,1118.2 2002.8,1106.8 2032.8,1093.8 2063.2,1079.2 2093.8,1063.3 2124.5,1046.0 2155.2,1027.6 2185.7,1008.2 2216.0,987.9 2245.9,967.0  " style="stroke-opacity: 1.000000; stroke-width: 5.0; stroke: rgb(107,174,214); fill: none"  />
<path d="M 1711.1,607.9 L 1702.9,642.2 1694.6,676.2 1686.2,709.6 1677.8,742.3 1669.4,774.0 1661.0,804.4 1652.8,833.5 1644.7,860.9 1636.7,886.6 1628.9,910.4 1621.3,932.1 1614.0,951.7 1607.0,969.0 1600.2,983.8 1593.7,996.3 1587.6,1006.1 1581.8,1013.4 1576.3,1018.1 1571.3,1020.1 1566.6,1019.4 1562.3,1016.1 1558.4,1010.1 1554.9,1001.4 1551.8,990.2 1549.0,976.5 1546.7,960.3 1544.8,941.8 1543.3,920.9 1542.1,898.0 1541.3,872.9 1540.9,846.0 1540.9,817.4 1541.1,787.2 1541.7,755.7 1542.5,722.9 1543.6,689.2 1545.0,654.7 1546.6,619.7 1548.4,584.5  " style="stroke-opacity: 1.000000; stroke-width: 5.0; stroke: rgb(107,174,214); fill: none"  />
<path d="M 1711.1,607.9 L 1703.1,643.0 1695.7,678.2 1689.2,713.1 1683.5,747.7 1678.7,781.7 1675.0,815.0 1672.4,847.4 1671.0,878.7 1670.8,908.7 1671.8,937.5 1674.3,964.8 1678.1,990.5 1683.3,1014.5 1689.9,1036.7 1698.0,1057.1 1707.5,1075.6 1718.5,1092.1 1730.9,1106.5 1744.8,1118.9 1760.1,1129.2 1776.8,1137.4 1794.9,1143.4 1814.4,1147.3 1835.1,1149.2 1857.0,1148.9 1880.1,1146.6 1904.3,1142.4 1929.5,1136.2 1955.7,1128.1 1982.7,1118.2 2010.5,1106.6 2038.9,1093.5 2067.8,1078.8 2097.2,1062.8 2126.9,1045.5 2156.8,1027.1 2186.7,1007.8 2216.4,987.7 2245.9,967.0  " style="stroke-opacity: 1.000000; stroke-width: 5.0; stroke: rgb(107,174,214); fill: none"  />
<path d="M 1711.1,607.9 L 1703.0,643.4 1695.8,679.1 1689.3,714.8 1683.9,750.1 1679.6,785.1 1676.3,819.4 1674.4,853.1 1673.7,885.8 1674.4,917.5 1676.5,948.1 1680.0,977.4 1685.1,1005.4 1691.7,1031.8 1699.9,1056.8 1709.6,1080.1 1720.9,1101.7 1733.9,1121.5 1748.4,1139.5 1764.4,1155.7 1782.1,1170.0 1801.2,1182.4 1821.9,1192.8 1844.0,1201.4 1867.4,1208.0 1892.2,1212.7 1918.3,1215.5 1945.6,1216.5 1974.0,1215.7 2003.4,1213.1 2033.8,1208.8 2064.9,1202.9 2096.8,1195.5 2129.3,1186.6 2162.3,1176.3 2195.5,1164.8 2229.0,1152.2 2262.5,1138.5 2296.0,1124.0 2329.1,1108.8  " style="stroke-opacity: 1.000000; stroke-width: 5.0; stroke: rgb(107,174,214); fill: none"  />
<path d="M 1999.0,2269.1 L 1978.1,2237.8 1956.4,2206.9 1933.9,2176.6 1910.7,2147.1 1886.7,2118.5 1862.0,2091.1 1836.7,2064.9 1810.7,2040.1 1784.1,2016.7 1757.0,1995.0 1729.4,1975.0 1701.3,1956.8 1672.8,1940.5 1643.8,1926.1 1614.6,1913.8 1585.0,1903.6 1555.2,1895.5 1525.1,1889.5 1494.9,1885.7 1464.5,1884.1 1434.0,1884.7 1403.5,1887.4 1372.9,1892.4 1342.4,1899.4 1312.0,1908.6 1281.8,1919.8 1251.7,1933.0 1221.8,1948.2 1192.3,1965.2 1163.0,1983.9 1134.1,2004.3 1105.7,2026.3 1077.7,2049.7 1050.3,2074.3 1023.4,2100.2 997.2,2127.1 971.6,2154.8 946.8,2183.3 922.8,2212.2  " style="stroke-opacity: 1.000000; stroke-width: 5.0; stroke: rgb(107,174,214); fill: none"  />
<path d="M 1999.0,2269.1 L 1976.0,2234.3 1952.1,2199.7 1927.3,2165.3 1901.7,2131.2 1875.1,2097.5 1847.7,2064.2 1819.3,2031.5 1790.1,1999.3 1760.1,1967.8 1729.2,1937.0 1697.4,1907.0 1664.8,1877.8 1631.4,1849.6 1597.2,1822.2 1562.2,1795.8 1526.5,1770.4 1490.0,1746.0 1452.9,1722.7 1415.0,1700.5 1376.6,1679.4 1337.6,1659.5 1297.9,1640.7 1257.8,1623.0 1217.2,1606.6 1176.1,1591.3 1134.6,1577.1 1092.8,1564.2 1050.7,1552.4 1008.3,1541.7 965.7,1532.2 923.0,1523.8 880.2,1516.5 837.3,1510.2 794.5,1504.9 751.8,1500.7 709.3,1497.4 667.0,1495.0 624.9,1493.5 583.3,1492.7  " style="stroke-opacity: 1.000000; stroke-width: 5.0; stroke: rgb(107,174,214); fill: none"  />
<path d="M 1867.0,659.9 L 1852.6,692.3 1838.1,724.3 1823.4,755.8 1808.6,786.4 1793.8,816.0 1779.0,844.4 1764.4,871.3 1749.9,896.7 1735.6,920.3 1721.6,942.0 1708.0,961.7 1694.7,979.3 1681.8,994.6 1669.3,1007.6 1657.3,1018.2 1645.9,1026.3 1634.9,1031.9 1624.6,1034.9 1614.8,1035.3 1605.6,1033.1 1597.1,1028.4 1589.1,1021.0 1581.9,1011.2 1575.2,998.8 1569.3,984.0 1564.0,966.8 1559.3,947.3 1555.3,925.6 1551.9,901.9 1549.1,876.2 1546.9,848.7 1545.4,819.5 1544.3,788.8 1543.9,756.9 1543.9,723.8 1544.4,689.8 1545.3,655.1 1546.7,619.9 1548.4,584.5  " style="stroke-opacity: 1.000000; stroke-width: 5.0; stroke: rgb(107,174,214); fill: none"  />
<path d="M 1867.0,659.9 L 1852.9,692.4 1839.3,724.9 1826.3,757.0 1813.8,788.7 1802.2,819.7 1791.4,849.8 1781.6,878.8 1772.8,906.7 1765.2,933.2 1758.7,958.2 1753.6,981.7 1749.7,1003.4 1747.2,1023.2 1746.2,1041.2 1746.6,1057.2 1748.4,1071.1 1751.7,1082.9 1756.6,1092.6 1762.9,1100.0 1770.7,1105.3 1780.0,1108.3 1790.8,1109.1 1803.0,1107.8 1816.6,1104.2 1831.5,1098.5 1847.7,1090.7 1865.2,1080.9 1883.8,1069.1 1903.6,1055.5 1924.3,1040.1 1946.0,1023.0 1968.4,1004.3 1991.6,984.2 2015.4,962.8 2039.7,940.3 2064.3,916.9 2089.1,892.6 2114.0,867.7 2138.8,842.4  " style="stroke-opacity: 1.000000; stroke-width: 5.0; stroke: rgb(107,174,214); fill: none"  />
<path d="M 1867.0,659.9 L 1852.8,693.0 1839.3,726.3 1826.6,759.5 1814.9,792.6 1804.1,825.2 1794.5,857.2 1786.2,888.6 1779.2,919.2 1773.6,948.7 1769.5,977.2 1767.0,1004.5 1766.2,1030.4 1767.0,1055.0 1769.6,1078.1 1773.9,1099.6 1779.9,1119.4 1787.8,1137.6 1797.5,1154.1 1808.9,1168.7 1822.2,1181.6 1837.1,1192.6 1853.9,1201.8 1872.3,1209.1 1892.3,1214.6 1913.9,1218.3 1937.1,1220.2 1961.6,1220.3 1987.6,1218.7 2014.7,1215.4 2043.1,1210.5 2072.5,1204.1 2102.8,1196.2 2133.9,1187.0 2165.7,1176.4 2198.0,1164.7 2230.7,1152.0 2263.5,1138.3 2296.4,1123.9 2329.1,1108.8  " style="stroke-opacity: 1.000000; stroke-width: 5.0; stroke: rgb(107,174,214); fill: none"  />
<path d="M 1867.0,659.9 L 1852.7,693.5 1839.2,727.3 1826.5,761.2 1814.9,795.0 1804.3,828.6 1795.0,861.9 1787.1,894.6 1780.6,926.7 1775.6,958.0 1772.2,988.5 1770.4,1017.9 1770.4,1046.3 1772.2,1073.6 1775.8,1099.6 1781.2,1124.2 1788.5,1147.5 1797.7,1169.3 1808.7,1189.7 1821.7,1208.5 1836.5,1225.7 1853.1,1241.3 1871.5,1255.2 1891.8,1267.6 1913.7,1278.3 1937.2,1287.3 1962.4,1294.8 1989.1,1300.6 2017.1,1304.9 2046.6,1307.6 2077.2,1308.8 2108.9,1308.6 2141.6,1306.9 2175.2,1304.0 2209.4,1299.8 2244.2,1294.4 2279.4,1287.9 2314.8,1280.5 2350.3,1272.2 2385.6,1263.1  " style="stroke-opacity: 1.000000; stroke-width: 5.0; stroke: rgb(107,174,214); fill: none"  />
<path d="M 2138.8,842.4 L 2113.4,868.0 2087.7,893.1 2061.8,917.5 2035.7,940.9 2009.6,963.1 1983.5,984.2 1957.6,1003.8 1932.0,1021.8 1906.7,1038.2 1881.9,1052.7 1857.6,1065.3 1833.9,1075.9 1810.9,1084.5 1788.6,1090.8 1767.0,1095.0 1746.3,1096.9 1726.5,1096.5 1707.6,1093.7 1689.7,1088.7 1672.8,1081.3 1656.9,1071.6 1642.1,1059.6 1628.4,1045.3 1615.7,1028.9 1604.1,1010.3 1593.6,989.6 1584.2,966.9 1575.9,942.2 1568.6,915.8 1562.4,887.7 1557.3,858.1 1553.1,827.1 1549.9,794.8 1547.6,761.4 1546.2,727.0 1545.6,692.0 1545.9,656.4 1546.8,620.5 1548.4,584.5  " style="stroke-opacity: 1.000000; stroke-width: 5.0; stroke: rgb(107,174,214); fill: none"  />
<path d="M 2138.8,842.4 L 2114.0,867.7 2089.1,892.6 2064.3,916.9 2039.7,940.3 2015.4,962.8 1991.6,984.2 1968.4,1004.3 1946.0,1023.0 1924.3,1040.1 1903.6,1055.5 1883.8,1069.1 1865.2,1080.9 1847.7,1090.7 1831.5,1098.5 1816.6,1104.2 1803.0,1107.8 1790.8,1109.1 1780.0,1108.3 1770.7,1105.3 1762.9,1100.0 1756.6,1092.6 1751.7,1082.9 1748.4,1071.1 1746.6,1057.2 1746.2,1041.2 1747.2,1023.2 1749.7,1003.4 1753.6,981.7 1758.7,958.2 1765.2,933.2 1772.8,906.7 1781.6,878.8 1791.4,849.8 1802.2,819.7 1813.8,788.7 1826.3,757.0 1839.3,724.9 1852.9,692.4 1867.0,659.9  " style="stroke-opacity: 1.000000; stroke-width: 5.0; stroke: rgb(107,174,214); fill: none"  />
<path d="M 2138.8,842.4 L 2114.2,867.8 2090.0,893.1 2066.3,918.1 2043.3,942.8 2021.1,966.9 1999.9,990.3 1979.9,1012.8 1961.1,1034.5 1943.7,1055.0 1927.8,1074.3 1913.6,1092.4 1901.0,1109.1 1890.3,1124.3 1881.4,1138.0 1874.4,1150.2 1869.3,1160.7 1866.3,1169.5 1865.3,1176.5 1866.3,1181.9 1869.4,1185.5 1874.6,1187.3 1881.7,1187.4 1890.9,1185.7 1902.0,1182.3 1915.0,1177.2 1929.9,1170.5 1946.6,1162.1 1965.0,1152.2 1985.0,1140.8 2006.5,1128.0 2029.4,1113.9 2053.6,1098.6 2078.9,1082.1 2105.2,1064.7 2132.4,1046.4 2160.2,1027.3 2188.5,1007.6 2217.2,987.5 2245.9,967.0  " style="stroke-opacity: 1.000000; stroke-width: 5.0; stroke: rgb(107,174,214); fill: none"  />
<path d="M 2138.8,842.4 L 2114.2,867.9 2090.1,893.5 2066.5,919.0 2043.8,944.3 2022.0,969.2 2001.3,993.6 1981.9,1017.4 1963.9,1040.4 1947.4,1062.5 1932.6,1083.7 1919.5,1103.8 1908.3,1122.8 1899.0,1140.5 1891.7,1157.0 1886.4,1172.1 1883.3,1185.7 1882.3,1198.0 1883.4,1208.7 1886.7,1217.9 1892.2,1225.6 1899.8,1231.7 1909.6,1236.2 1921.5,1239.2 1935.5,1240.7 1951.5,1240.6 1969.4,1239.0 1989.2,1236.0 2010.8,1231.5 2034.0,1225.6 2058.9,1218.5 2085.1,1210.1 2112.7,1200.5 2141.5,1189.8 2171.3,1178.2 2201.9,1165.6 2233.2,1152.3 2264.9,1138.3 2297.0,1123.8 2329.1,1108.8  " style="stroke-opacity: 1.000000; stroke-width: 5.0; stroke: rgb(107,174,214); fill: none"  />
<path d="M 1853.6,2345.8 L 1839.9,2313.3 1826.2,2281.1 1812.5,2249.5 1798.9,2218.6 1785.4,2188.7 1772.2,2160.0 1759.4,2132.7 1746.9,2106.9 1734.8,2082.9 1723.3,2060.7 1712.3,2040.5 1701.8,2022.4 1692.1,2006.5 1683.0,1992.9 1674.6,1981.7 1666.9,1973.0 1660.0,1966.7 1653.9,1963.0 1648.5,1961.9 1644.0,1963.3 1640.3,1967.3 1637.4,1973.9 1635.4,1982.9 1634.1,1994.5 1633.7,2008.5 1634.0,2024.9 1635.2,2043.5 1637.1,2064.3 1639.7,2087.1 1643.0,2111.9 1646.9,2138.5 1651.5,2166.8 1656.7,2196.5 1662.4,2227.6 1668.6,2259.8 1675.2,2292.9 1682.2,2326.6 1689.4,2360.9 1696.9,2395.4  " style="stroke-opacity: 1.000000; stroke-width: 5.0; stroke: rgb(107,174,214); fill: none"  />
<path d="M 1853.6,2345.8 L 1839.4,2312.7 1824.7,2279.9 1809.5,2247.8 1793.8,2216.5 1777.6,2186.2 1761.1,2157.0 1744.1,2129.3 1726.9,2103.2 1709.4,2078.7 1691.6,2056.1 1673.6,2035.4 1655.5,2016.9 1637.1,2000.5 1618.7,1986.4 1600.2,1974.7 1581.6,1965.3 1563.0,1958.4 1544.5,1954.1 1526.0,1952.2 1507.5,1952.9 1489.2,1956.1 1471.0,1961.8 1453.0,1970.1 1435.1,1980.8 1417.6,1993.9 1400.2,2009.3 1383.1,2027.0 1366.4,2046.8 1350.0,2068.7 1333.9,2092.6 1318.3,2118.3 1303.0,2145.6 1288.2,2174.5 1273.8,2204.8 1260.0,2236.2 1246.6,2268.6 1233.8,2301.8 1221.5,2335.5 1209.8,2369.6  " style="stroke-opacity: 1.000000; stroke-width: 5.0; stroke: rgb(107,174,214); fill: none"  />
<path d="M 1853.6,2345.8 L 1838.4,2310.6 1822.3,2275.7 1805.1,2241.1 1787.0,2207.1 1767.9,2173.7 1747.8,2141.2 1726.8,2109.7 1704.7,2079.2 1681.7,2050.0 1657.8,2022.0 1633.0,1995.5 1607.2,1970.5 1580.5,1947.1 1553.0,1925.3 1524.6,1905.3 1495.4,1887.0 1465.4,1870.6 1434.7,1856.0 1403.2,1843.4 1371.1,1832.7 1338.4,1823.9 1305.1,1817.1 1271.3,1812.2 1237.0,1809.3 1202.2,1808.3 1167.2,1809.1 1131.8,1811.8 1096.1,1816.4 1060.3,1822.6 1024.4,1830.6 988.5,1840.2 952.6,1851.3 916.8,1863.9 881.2,1877.9 845.9,1893.0 811.0,1909.4 776.5,1926.7 742.6,1945.0 709.3,1964.0  " style="stroke-opacity: 1.000000; stroke-width: 5.0; stroke: rgb(107,174,214); fill: none"  />
<path d="M 1853.6,2345.8 L 1838.1,2309.9 1821.6,2274.2 1804.1,2238.8 1785.6,2203.8 1766.0,2169.4 1745.4,2135.7 1723.8,2102.8 1701.1,2070.8 1677.4,2039.8 1652.7,2010.0 1627.0,1981.4 1600.2,1954.1 1572.5,1928.2 1543.8,1903.7 1514.2,1880.7 1483.7,1859.3 1452.3,1839.5 1420.0,1821.3 1387.0,1804.8 1353.2,1790.0 1318.6,1777.0 1283.4,1765.7 1247.5,1756.1 1211.0,1748.3 1174.1,1742.2 1136.6,1737.8 1098.7,1735.0 1060.5,1734.0 1022.1,1734.6 983.4,1736.7 944.6,1740.3 905.7,1745.4 866.8,1751.9 828.1,1759.7 789.6,1768.7 751.3,1778.9 713.4,1790.2 676.0,1802.3 639.2,1815.3  " style="stroke-opacity: 1.000000; stroke-width: 5.0; stroke: rgb(107,174,214); fill: none"  />
<path d="M 2245.9,967.0 L 2216.0,987.9 2185.7,1008.2 2155.2,1027.6 2124.5,1046.0 2093.8,1063.3 2063.2,1079.2 2032.8,1093.8 2002.8,1106.8 1973.2,1118.2 1944.1,1127.8 1915.6,1135.6 1887.8,1141.5 1860.8,1145.4 1834.6,1147.3 1809.4,1147.1 1785.1,1144.8 1761.9,1140.3 1739.7,1133.7 1718.6,1124.9 1698.7,1114.0 1680.0,1101.0 1662.5,1085.8 1646.3,1068.6 1631.3,1049.4 1617.5,1028.2 1605.0,1005.1 1593.8,980.2 1583.8,953.7 1575.1,925.4 1567.6,895.7 1561.2,864.7 1556.1,832.3 1552.0,798.9 1549.0,764.5 1547.1,729.3 1546.1,693.6 1546.0,657.4 1546.8,621.0 1548.4,584.5  " style="stroke-opacity: 1.000000; stroke-width: 5.0; stroke: rgb(107,174,214); fill: none"  />
<path d="M 2245.9,967.0 L 2216.7,987.6 2187.4,1007.6 2158.2,1026.9 2129.1,1045.4 2100.3,1062.9 2072.1,1079.2 2044.5,1094.2 2017.6,1107.8 1991.6,1119.9 1966.6,1130.4 1942.6,1139.2 1919.9,1146.2 1898.4,1151.4 1878.3,1154.6 1859.6,1155.9 1842.4,1155.2 1826.7,1152.5 1812.5,1147.8 1800.0,1141.0 1789.1,1132.2 1779.9,1121.3 1772.3,1108.5 1766.4,1093.7 1762.2,1077.0 1759.6,1058.4 1758.6,1038.0 1759.2,1015.9 1761.3,992.2 1765.0,967.0 1770.1,940.4 1776.5,912.4 1784.3,883.3 1793.3,853.2 1803.4,822.2 1814.5,790.4 1826.5,758.1 1839.4,725.5 1852.9,692.7 1867.0,659.9  " style="stroke-opacity: 1.000000; stroke-width: 5.0; stroke: rgb(107,174,214); fill: none"  />
<path d="M 2245.9,967.0 L 2217.2,987.8 2188.9,1008.6 2161.1,1029.5 2134.2,1050.3 2108.3,1071.0 2083.6,1091.3 2060.3,1111.2 2038.5,1130.6 2018.3,1149.4 2000.0,1167.6 1983.5,1185.1 1969.1,1201.7 1956.8,1217.5 1946.6,1232.4 1938.8,1246.3 1933.2,1259.2 1930.0,1271.1 1929.2,1281.8 1930.8,1291.5 1934.9,1300.0 1941.3,1307.4 1950.1,1313.6 1961.3,1318.7 1974.8,1322.6 1990.5,1325.4 2008.4,1327.0 2028.5,1327.6 2050.5,1327.0 2074.4,1325.4 2100.1,1322.8 2127.5,1319.2 2156.4,1314.7 2186.6,1309.4 2217.9,1303.2 2250.3,1296.3 2283.5,1288.8 2317.2,1280.7 2351.4,1272.1 2385.6,1263.1  " style="stroke-opacity: 1.000000; stroke-width: 5.0; stroke: rgb(107,174,214); fill: none"  />
<path d="M 2245.9,967.0 L 2217.0,988.0 2188.6,1009.2 2160.8,1030.6 2133.9,1052.2 2108.1,1073.7 2083.5,1095.2 2060.3,1116.4 2038.8,1137.4 2018.9,1158.1 2000.8,1178.4 1984.8,1198.2 1970.8,1217.4 1958.9,1236.0 1949.3,1254.0 1942.0,1271.3 1937.1,1287.8 1934.6,1303.6 1934.5,1318.5 1936.9,1332.5 1941.7,1345.7 1948.9,1357.9 1958.6,1369.2 1970.7,1379.6 1985.2,1389.1 2001.9,1397.5 2020.8,1405.1 2041.9,1411.7 2065.0,1417.3 2090.1,1422.0 2116.9,1425.8 2145.5,1428.8 2175.5,1430.9 2207.0,1432.1 2239.6,1432.6 2273.2,1432.4 2307.6,1431.5 2342.7,1429.9 2378.1,1427.7 2413.7,1425.1  " style="stroke-opacity: 1.000000; stroke-width: 5.0; stroke: rgb(107,174,214); fill: none"  />
<path d="M 1696.9,2395.4 L 1689.4,2360.9 1682.2,2326.6 1675.2,2292.9 1668.6,2259.8 1662.4,2227.6 1656.7,2196.5 1651.5,2166.8 1646.9,2138.5 1643.0,2111.9 1639.7,2087.1 1637.1,2064.3 1635.2,2043.5 1634.0,2024.9 1633.7,2008.5 1634.1,1994.5 1635.4,1982.9 1637.4,1973.9 1640.3,1967.3 1644.0,1963.3 1648.5,1961.9 1653.9,1963.0 1660.0,1966.7 1666.9,1973.0 1674.6,1981.7 1683.0,1992.9 1692.1,2006.5 1701.8,2022.4 1712.3,2040.5 1723.3,2060.7 1734.8,2082.9 1746.9,2106.9 1759.4,2132.7 1772.2,2160.0 1785.4,2188.7 1798.9,2218.6 1812.5,2249.5 1826.2,2281.1 1839.9,2313.3 1853.6,2345.8  " style="stroke-opacity: 1.000000; stroke-width: 5.0; stroke: rgb(107,174,214); fill: none"  />
<path d="M 1696.9,2395.4 L 1689.0,2360.6 1680.7,2326.1 1671.9,2292.1 1662.6,2258.9 1653.0,2226.7 1642.9,2195.7 1632.5,2166.0 1621.6,2137.9 1610.4,2111.5 1598.9,2086.9 1587.0,2064.4 1574.8,2044.0 1562.3,2025.7 1549.6,2009.8 1536.6,1996.3 1523.3,1985.3 1509.8,1976.8 1496.2,1970.9 1482.3,1967.5 1468.3,1966.8 1454.2,1968.7 1440.0,1973.1 1425.7,1980.2 1411.3,1989.7 1397.0,2001.8 1382.6,2016.2 1368.3,2033.0 1354.0,2052.1 1339.8,2073.3 1325.7,2096.4 1311.8,2121.5 1298.1,2148.3 1284.5,2176.7 1271.3,2206.5 1258.3,2237.5 1245.6,2269.6 1233.3,2302.4 1221.3,2335.8 1209.8,2369.6  " style="stroke-opacity: 1.000000; stroke-width: 5.0; stroke: rgb(107,174,214); fill: none"  />
<path d="M 1696.9,2395.4 L 1688.2,2358.0 1678.6,2320.8 1667.9,2283.7 1656.1,2247.0 1643.3,2210.7 1629.3,2175.2 1614.3,2140.4 1598.0,2106.5 1580.6,2073.6 1562.1,2041.8 1542.3,2011.3 1521.4,1982.1 1499.4,1954.3 1476.2,1927.9 1451.8,1903.1 1426.4,1880.0 1399.8,1858.4 1372.2,1838.7 1343.5,1820.6 1313.8,1804.3 1283.2,1789.9 1251.6,1777.2 1219.2,1766.4 1186.0,1757.3 1152.0,1750.1 1117.3,1744.7 1082.0,1741.1 1046.1,1739.2 1009.8,1739.0 973.0,1740.4 935.9,1743.4 898.6,1747.9 861.2,1753.9 823.7,1761.3 786.2,1769.9 748.9,1779.8 711.9,1790.7 675.3,1802.6 639.2,1815.3  " style="stroke-opacity: 1.000000; stroke-width: 5.0; stroke: rgb(107,174,214); fill: none"  />
<path d="M 1533.9,2416.1 L 1532.9,2380.1 1532.5,2344.2 1532.8,2308.6 1533.9,2273.6 1535.9,2239.3 1538.7,2205.9 1542.4,2173.7 1547.1,2142.7 1552.7,2113.2 1559.4,2085.2 1567.0,2058.9 1575.8,2034.4 1585.5,2011.9 1596.3,1991.3 1608.2,1972.9 1621.1,1956.6 1635.1,1942.6 1650.1,1930.8 1666.2,1921.4 1683.2,1914.3 1701.2,1909.5 1720.1,1907.1 1739.9,1907.0 1760.6,1909.2 1782.0,1913.7 1804.3,1920.4 1827.2,1929.3 1850.7,1940.3 1874.8,1953.3 1899.4,1968.2 1924.4,1985.0 1949.7,2003.4 1975.3,2023.4 2001.0,2044.9 2026.8,2067.6 2052.5,2091.4 2078.1,2116.1 2103.4,2141.6 2128.3,2167.6  " style="stroke-opacity: 1.000000; stroke-width: 5.0; stroke: rgb(107,174,214); fill: none"  />
<path d="M 1533.9,2416.1 L 1532.7,2380.7 1531.9,2345.5 1531.5,2310.8 1531.6,2276.8 1532.1,2243.7 1533.1,2211.8 1534.6,2181.1 1536.6,2152.0 1539.2,2124.5 1542.4,2098.9 1546.2,2075.2 1550.5,2053.6 1555.5,2034.2 1561.1,2017.1 1567.3,2002.3 1574.1,1990.1 1581.5,1980.3 1589.6,1973.1 1598.2,1968.5 1607.4,1966.4 1617.2,1967.0 1627.5,1970.2 1638.3,1975.9 1649.7,1984.2 1661.5,1995.0 1673.7,2008.2 1686.4,2023.7 1699.4,2041.5 1712.8,2061.4 1726.4,2083.4 1740.3,2107.2 1754.4,2132.8 1768.6,2160.0 1782.9,2188.6 1797.2,2218.4 1811.6,2249.2 1825.8,2280.9 1839.8,2313.2 1853.6,2345.8  " style="stroke-opacity: 1.000000; stroke-width: 5.0; stroke: rgb(107,174,214); fill: none"  />
<path d="M 1533.9,2416.1 L 1532.5,2380.9 1530.9,2345.9 1529.2,2311.5 1527.3,2277.8 1525.2,2245.1 1523.0,2213.6 1520.5,2183.5 1517.9,2155.0 1515.0,2128.2 1512.0,2103.4 1508.8,2080.6 1505.4,2060.0 1501.8,2041.7 1498.1,2025.8 1494.2,2012.3 1490.0,2001.5 1485.8,1993.2 1481.3,1987.6 1476.8,1984.6 1472.0,1984.4 1467.2,1986.8 1462.2,1991.9 1457.0,1999.7 1451.8,2010.1 1446.5,2023.1 1441.1,2038.5 1435.6,2056.3 1430.0,2076.4 1424.5,2098.8 1418.8,2123.2 1413.2,2149.5 1407.6,2177.5 1402.0,2207.2 1396.4,2238.3 1390.9,2270.6 1385.4,2303.9 1380.1,2337.9 1374.8,2372.6 1369.8,2407.5  " style="stroke-opacity: 1.000000; stroke-width: 5.0; stroke: rgb(107,174,214); fill: none"  />
<path d="M 1533.9,2416.1 L 1532.1,2379.2 1529.5,2342.2 1525.9,2305.5 1521.3,2269.1 1515.7,2233.4 1509.1,2198.3 1501.3,2164.2 1492.3,2131.1 1482.2,2099.1 1470.9,2068.5 1458.4,2039.2 1444.6,2011.5 1429.6,1985.4 1413.4,1961.1 1395.9,1938.5 1377.2,1917.7 1357.3,1898.9 1336.2,1882.0 1313.9,1867.2 1290.5,1854.3 1266.0,1843.5 1240.4,1834.8 1213.8,1828.1 1186.3,1823.5 1157.8,1820.9 1128.5,1820.3 1098.5,1821.7 1067.7,1825.0 1036.3,1830.1 1004.4,1837.1 972.0,1845.7 939.3,1856.0 906.3,1867.8 873.2,1881.0 840.0,1895.5 806.9,1911.2 774.0,1928.0 741.4,1945.6 709.3,1964.0  " style="stroke-opacity: 1.000000; stroke-width: 5.0; stroke: rgb(107,174,214); fill: none"  />
<path d="M 1533.9,2416.1 L 1532.0,2377.1 1529.1,2337.9 1525.1,2298.6 1520.1,2259.3 1513.8,2220.2 1506.4,2181.4 1497.7,2143.0 1487.7,2105.1 1476.4,2067.8 1463.7,2031.2 1449.7,1995.3 1434.3,1960.4 1417.4,1926.3 1399.2,1893.3 1379.5,1861.4 1358.5,1830.6 1336.1,1801.1 1312.3,1772.7 1287.1,1745.7 1260.6,1720.0 1232.8,1695.6 1203.8,1672.6 1173.6,1651.0 1142.2,1630.9 1109.8,1612.2 1076.2,1594.9 1041.7,1579.1 1006.3,1564.7 970.1,1551.7 933.2,1540.1 895.5,1529.8 857.4,1521.0 818.7,1513.4 779.7,1507.1 740.4,1502.0 701.0,1498.1 661.6,1495.3 622.3,1493.5 583.3,1492.7  " style="stroke-opacity: 1.000000; stroke-width: 5.0; stroke: rgb(107,174,214); fill: none"  />
<path d="M 1369.8,2407.5 L 1374.7,2369.5 1378.8,2331.2 1381.8,2292.7 1383.7,2254.2 1384.4,2215.8 1383.8,2177.6 1382.0,2139.7 1378.7,2102.2 1373.9,2065.3 1367.7,2029.1 1360.0,1993.6 1350.7,1958.9 1339.8,1925.1 1327.3,1892.3 1313.2,1860.5 1297.5,1829.9 1280.2,1800.4 1261.3,1772.1 1240.8,1745.2 1218.8,1719.5 1195.2,1695.2 1170.1,1672.3 1143.5,1650.7 1115.6,1630.6 1086.3,1611.9 1055.7,1594.7 1023.9,1578.8 991.0,1564.4 957.1,1551.5 922.2,1539.9 886.4,1529.7 849.8,1520.8 812.7,1513.3 775.0,1507.0 736.9,1501.9 698.5,1498.0 660.0,1495.2 621.6,1493.5 583.3,1492.7  " style="stroke-opacity: 1.000000; stroke-width: 5.0; stroke: rgb(107,174,214); fill: none"  />
<path d="M 2329.1,1108.8 L 2296.0,1124.0 2262.5,1138.5 2229.0,1152.2 2195.5,1164.8 2162.3,1176.3 2129.3,1186.6 2096.8,1195.5 2064.9,1202.9 2033.8,1208.8 2003.4,1213.1 1974.0,1215.7 1945.6,1216.5 1918.3,1215.5 1892.2,1212.7 1867.4,1208.0 1844.0,1201.4 1821.9,1192.8 1801.2,1182.4 1782.1,1170.0 1764.4,1155.7 1748.4,1139.5 1733.9,1121.5 1720.9,1101.7 1709.6,1080.1 1699.9,1056.8 1691.7,1031.8 1685.1,1005.4 1680.0,977.4 1676.5,948.1 1674.4,917.5 1673.7,885.8 1674.4,853.1 1676.3,819.4 1679.6,785.1 1683.9,750.1 1689.3,714.8 1695.8,679.1 1703.0,643.4 1711.1,607.9  " style="stroke-opacity: 1.000000; stroke-width: 5.0; stroke: rgb(107,174,214); fill: none"  />
<path d="M 2329.1,1108.8 L 2296.4,1123.9 2263.5,1138.3 2230.7,1152.0 2198.0,1164.7 2165.7,1176.4 2133.9,1187.0 2102.8,1196.2 2072.5,1204.1 2043.1,1210.5 2014.7,1215.4 1987.6,1218.7 1961.6,1220.3 1937.1,1220.2 1913.9,1218.3 1892.3,1214.6 1872.3,1209.1 1853.9,1201.8 1837.1,1192.6 1822.2,1181.6 1808.9,1168.7 1797.5,1154.1 1787.8,1137.6 1779.9,1119.4 1773.9,1099.6 1769.6,1078.1 1767.0,1055.0 1766.2,1030.4 1767.0,1004.5 1769.5,977.2 1773.6,948.7 1779.2,919.2 1786.2,888.6 1794.5,857.2 1804.1,825.2 1814.9,792.6 1826.6,759.5 1839.3,726.3 1852.8,693.0 1867.0,659.9  " style="stroke-opacity: 1.000000; stroke-width: 5.0; stroke: rgb(107,174,214); fill: none"  />
<path d="M 2329.1,1108.8 L 2297.0,1123.8 2264.9,1138.3 2233.2,1152.3 2201.9,1165.6 2171.3,1178.2 2141.5,1189.8 2112.7,1200.5 2085.1,1210.1 2058.9,1218.5 2034.0,1225.6 2010.8,1231.5 1989.2,1236.0 1969.4,1239.0 1951.5,1240.6 1935.5,1240.7 1921.5,1239.2 1909.6,1236.2 1899.8,1231.7 1892.2,1225.6 1886.7,1217.9 1883.4,1208.7 1882.3,1198.0 1883.3,1185.7 1886.4,1172.1 1891.7,1157.0 1899.0,1140.5 1908.3,1122.8 1919.5,1103.8 1932.6,1083.7 1947.4,1062.5 1963.9,1040.4 1981.9,1017.4 2001.3,993.6 2022.0,969.2 2043.8,944.3 2066.5,919.0 2090.1,893.5 2114.2,867.9 2138.8,842.4  " style="stroke-opacity: 1.000000; stroke-width: 5.0; stroke: rgb(107,174,214); fill: none"  />
<path d="M 2329.1,1108.8 L 2297.2,1123.8 2265.4,1138.5 2234.0,1152.8 2203.2,1166.6 2173.2,1179.8 2144.2,1192.2 2116.4,1203.9 2089.8,1214.7 2064.8,1224.4 2041.3,1233.2 2019.6,1240.8 1999.8,1247.3 1981.9,1252.5 1966.0,1256.5 1952.3,1259.2 1940.7,1260.6 1931.4,1260.6 1924.4,1259.2 1919.7,1256.5 1917.3,1252.4 1917.2,1247.0 1919.4,1240.2 1924.0,1232.1 1930.8,1222.6 1939.9,1211.9 1951.1,1200.0 1964.4,1187.0 1979.7,1172.8 1997.0,1157.6 2016.0,1141.4 2036.8,1124.3 2059.1,1106.4 2082.9,1087.7 2107.9,1068.5 2134.1,1048.7 2161.1,1028.6 2188.9,1008.2 2217.3,987.6 2245.9,967.0  " style="stroke-opacity: 1.000000; stroke-width: 5.0; stroke: rgb(107,174,214); fill: none"  />
<path d="M 1209.8,2369.6 L 1221.5,2335.5 1233.8,2301.8 1246.6,2268.6 1260.0,2236.2 1273.8,2204.8 1288.2,2174.5 1303.0,2145.6 1318.3,2118.3 1333.9,2092.6 1350.0,2068.7 1366.4,2046.8 1383.1,2027.0 1400.2,2009.3 1417.6,1993.9 1435.1,1980.8 1453.0,1970.1 1471.0,1961.8 1489.2,1956.1 1507.5,1952.9 1526.0,1952.2 1544.5,1954.1 1563.0,1958.4 1581.6,1965.3 1600.2,1974.7 1618.7,1986.4 1637.1,2000.5 1655.5,2016.9 1673.6,2035.4 1691.6,2056.1 1709.4,2078.7 1726.9,2103.2 1744.1,2129.3 1761.1,2157.0 1777.6,2186.2 1793.8,2216.5 1809.5,2247.8 1824.7,2279.9 1839.4,2312.7 1853.6,2345.8  " style="stroke-opacity: 1.000000; stroke-width: 5.0; stroke: rgb(107,174,214); fill: none"  />
<path d="M 1209.8,2369.6 L 1221.3,2335.8 1233.3,2302.4 1245.6,2269.6 1258.3,2237.5 1271.3,2206.5 1284.5,2176.7 1298.1,2148.3 1311.8,2121.5 1325.7,2096.4 1339.8,2073.3 1354.0,2052.1 1368.3,2033.0 1382.6,2016.2 1397.0,2001.8 1411.3,1989.7 1425.7,1980.2 1440.0,1973.1 1454.2,1968.7 1468.3,1966.8 1482.3,1967.5 1496.2,1970.9 1509.8,1976.8 1523.3,1985.3 1536.6,1996.3 1549.6,2009.8 1562.3,2025.7 1574.8,2044.0 1587.0,2064.4 1598.9,2086.9 1610.4,2111.5 1621.6,2137.9 1632.5,2166.0 1642.9,2195.7 1653.0,2226.7 1662.6,2258.9 1671.9,2292.1 1680.7,2326.1 1689.0,2360.6 1696.9,2395.4  " style="stroke-opacity: 1.000000; stroke-width: 5.0; stroke: rgb(107,174,214); fill: none"  />
<path d="M 1209.8,2369.6 L 1221.1,2334.4 1231.6,2298.9 1241.2,2263.2 1249.7,2227.6 1257.0,2192.1 1263.1,2157.0 1267.8,2122.3 1271.1,2088.1 1272.8,2054.7 1273.0,2022.0 1271.6,1990.2 1268.4,1959.4 1263.5,1929.7 1256.9,1901.2 1248.5,1873.9 1238.2,1847.9 1226.2,1823.3 1212.4,1800.1 1196.7,1778.3 1179.3,1758.1 1160.2,1739.4 1139.3,1722.2 1116.8,1706.6 1092.6,1692.6 1066.9,1680.2 1039.7,1669.4 1011.0,1660.1 981.1,1652.4 949.9,1646.2 917.6,1641.4 884.2,1638.2 850.0,1636.3 814.9,1635.7 779.3,1636.5 743.1,1638.4 706.6,1641.5 669.9,1645.6 633.2,1650.6 596.7,1656.5  " style="stroke-opacity: 1.000000; stroke-width: 5.0; stroke: rgb(107,174,214); fill: none"  />
<path d="M 2385.6,1263.1 L 2351.1,1272.1 2316.6,1280.5 2282.4,1288.4 2248.7,1295.4 2215.7,1301.7 2183.5,1307.0 2152.3,1311.4 2122.4,1314.7 2093.8,1316.9 2066.7,1317.9 2041.2,1317.7 2017.4,1316.3 1995.5,1313.6 1975.5,1309.6 1957.6,1304.2 1941.7,1297.5 1927.9,1289.5 1916.4,1280.0 1907.0,1269.3 1899.9,1257.2 1895.1,1243.8 1892.5,1229.1 1892.2,1213.2 1894.1,1196.1 1898.2,1177.8 1904.4,1158.3 1912.7,1137.9 1923.1,1116.5 1935.4,1094.1 1949.5,1071.0 1965.4,1047.1 1982.9,1022.5 2001.9,997.5 2022.2,972.0 2043.8,946.2 2066.4,920.2 2089.9,894.1 2114.1,868.2 2138.8,842.4  " style="stroke-opacity: 1.000000; stroke-width: 5.0; stroke: rgb(107,174,214); fill: none"  />
<path d="M 709.3,1964.0 L 742.6,1945.0 776.5,1926.7 811.0,1909.4 845.9,1893.0 881.2,1877.9 916.8,1863.9 952.6,1851.3 988.5,1840.2 1024.4,1830.6 1060.3,1822.6 1096.1,1816.4 1131.8,1811.8 1167.2,1809.1 1202.2,1808.3 1237.0,1809.3 1271.3,1812.2 1305.1,1817.1 1338.4,1823.9 1371.1,1832.7 1403.2,1843.4 1434.7,1856.0 1465.4,1870.6 1495.4,1887.0 1524.6,1905.3 1553.0,1925.3 1580.5,1947.1 1607.2,1970.5 1633.0,1995.5 1657.8,2022.0 1681.7,2050.0 1704.7,2079.2 1726.8,2109.7 1747.8,2141.2 1767.9,2173.7 1787.0,2207.1 1805.1,2241.1 1822.3,2275.7 1838.4,2310.6 1853.6,2345.8  " style="stroke-opacity: 1.000000; stroke-width: 5.0; stroke: rgb(107,174,214); fill: none"  />
<path d="M 709.3,1964.0 L 741.4,1945.6 774.0,1928.0 806.9,1911.2 840.0,1895.5 873.2,1881.0 906.3,1867.8 939.3,1856.0 972.0,1845.7 1004.4,1837.1 1036.3,1830.1 1067.7,1825.0 1098.5,1821.7 1128.5,1820.3 1157.8,1820.9 1186.3,1823.5 1213.8,1828.1 1240.4,1834.8 1266.0,1843.5 1290.5,1854.3 1313.9,1867.2 1336.2,1882.0 1357.3,1898.9 1377.2,1917.7 1395.9,1938.5 1413.4,1961.1 1429.6,1985.4 1444.6,2011.5 1458.4,2039.2 1470.9,2068.5 1482.2,2099.1 1492.3,2131.1 1501.3,2164.2 1509.1,2198.3 1515.7,2233.4 1521.3,2269.1 1525.9,2305.5 1529.5,2342.2 1532.1,2379.2 1533.9,2416.1  " style="stroke-opacity: 1.000000; stroke-width: 5.0; stroke: rgb(107,174,214); fill: none"  />
<path d="M 709.3,1964.0 L 739.9,1946.2 770.6,1928.8 800.9,1912.0 830.9,1895.9 860.3,1880.7 888.9,1866.4 916.6,1853.2 943.2,1841.2 968.6,1830.5 992.7,1821.1 1015.4,1813.2 1036.5,1806.8 1055.9,1802.0 1073.6,1798.8 1089.5,1797.3 1103.6,1797.5 1115.7,1799.4 1125.8,1803.1 1134.0,1808.5 1140.2,1815.6 1144.3,1824.5 1146.4,1835.1 1146.4,1847.4 1144.5,1861.3 1140.6,1876.8 1134.8,1893.8 1127.2,1912.3 1117.7,1932.2 1106.5,1953.4 1093.6,1975.8 1079.2,1999.3 1063.3,2023.9 1046.1,2049.3 1027.7,2075.4 1008.2,2102.2 987.8,2129.4 966.7,2156.9 944.9,2184.6 922.8,2212.2  " style="stroke-opacity: 1.000000; stroke-width: 5.0; stroke: rgb(107,174,214); fill: none"  />
<path d="M 709.3,1964.0 L 739.8,1945.9 769.9,1927.6 799.4,1909.3 828.0,1891.0 855.6,1872.8 882.1,1854.8 907.1,1837.0 930.6,1819.6 952.3,1802.7 972.2,1786.2 990.2,1770.3 1006.1,1755.0 1019.7,1740.4 1031.2,1726.5 1040.2,1713.3 1046.9,1701.0 1051.2,1689.5 1052.9,1678.8 1052.2,1669.0 1049.0,1660.2 1043.2,1652.3 1035.0,1645.3 1024.3,1639.2 1011.2,1634.1 995.8,1629.9 978.1,1626.7 958.2,1624.4 936.2,1623.0 912.2,1622.4 886.4,1622.7 858.8,1623.8 829.7,1625.7 799.1,1628.3 767.3,1631.6 734.5,1635.6 700.7,1640.1 666.4,1645.2 631.6,1650.7 596.7,1656.5  " style="stroke-opacity: 1.000000; stroke-width: 5.0; stroke: rgb(107,174,214); fill: none"  />
<path d="M 709.3,1964.0 L 740.0,1945.7 770.2,1927.1 799.8,1908.2 828.5,1889.2 856.1,1870.1 882.5,1850.9 907.5,1831.8 930.9,1812.8 952.6,1794.0 972.3,1775.4 990.1,1757.2 1005.8,1739.3 1019.3,1721.8 1030.4,1704.7 1039.2,1688.1 1045.6,1672.1 1049.6,1656.7 1051.0,1641.8 1049.9,1627.6 1046.3,1614.1 1040.1,1601.3 1031.5,1589.1 1020.4,1577.7 1006.8,1567.0 990.9,1557.1 972.7,1547.9 952.3,1539.4 929.8,1531.7 905.3,1524.8 878.9,1518.6 850.7,1513.1 821.0,1508.3 789.8,1504.2 757.4,1500.8 723.9,1498.0 689.5,1495.9 654.4,1494.3 618.9,1493.3 583.3,1492.7  " style="stroke-opacity: 1.000000; stroke-width: 5.0; stroke: rgb(107,174,214); fill: none"  />
<path d="M 639.2,1815.3 L 676.0,1802.3 713.4,1790.2 751.3,1778.9 789.6,1768.7 828.1,1759.7 866.8,1751.9 905.7,1745.4 944.6,1740.3 983.4,1736.7 1022.1,1734.6 1060.5,1734.0 1098.7,1735.0 1136.6,1737.8 1174.1,1742.2 1211.0,1748.3 1247.5,1756.1 1283.4,1765.7 1318.6,1777.0 1353.2,1790.0 1387.0,1804.8 1420.0,1821.3 1452.3,1839.5 1483.7,1859.3 1514.2,1880.7 1543.8,1903.7 1572.5,1928.2 1600.2,1954.1 1627.0,1981.4 1652.7,2010.0 1677.4,2039.8 1701.1,2070.8 1723.8,2102.8 1745.4,2135.7 1766.0,2169.4 1785.6,2203.8 1804.1,2238.8 1821.6,2274.2 1838.1,2309.9 1853.6,2345.8  " style="stroke-opacity: 1.000000; stroke-width: 5.0; stroke: rgb(107,174,214); fill: none"  />
<path d="M 639.2,1815.3 L 672.4,1803.0 705.2,1790.4 737.5,1777.6 769.0,1764.7 799.4,1751.7 828.6,1738.7 856.4,1725.7 882.6,1712.8 907.1,1700.0 929.6,1687.4 950.1,1674.9 968.5,1662.7 984.5,1650.8 998.3,1639.1 1009.5,1627.8 1018.3,1616.8 1024.6,1606.3 1028.2,1596.1 1029.2,1586.4 1027.6,1577.1 1023.4,1568.3 1016.5,1559.9 1007.1,1552.1 995.1,1544.7 980.7,1537.8 963.9,1531.5 944.7,1525.6 923.3,1520.3 899.8,1515.5 874.3,1511.2 847.0,1507.3 818.0,1504.0 787.5,1501.1 755.6,1498.7 722.5,1496.7 688.6,1495.1 653.9,1494.0 618.7,1493.2 583.3,1492.7  " style="stroke-opacity: 1.000000; stroke-width: 5.0; stroke: rgb(107,174,214); fill: none"  />
<path d="M 2413.7,1425.1 L 2378.1,1427.7 2342.7,1429.9 2307.6,1431.5 2273.2,1432.4 2239.6,1432.6 2207.0,1432.1 2175.5,1430.9 2145.5,1428.8 2116.9,1425.8 2090.1,1422.0 2065.0,1417.3 2041.9,1411.7 2020.8,1405.1 2001.9,1397.5 1985.2,1389.1 1970.7,1379.6 1958.6,1369.2 1948.9,1357.9 1941.7,1345.7 1936.9,1332.5 1934.5,1318.5 1934.6,1303.6 1937.1,1287.8 1942.0,1271.3 1949.3,1254.0 1958.9,1236.0 1970.8,1217.4 1984.8,1198.2 2000.8,1178.4 2018.9,1158.1 2038.8,1137.4 2060.3,1116.4 2083.5,1095.2 2108.1,1073.7 2133.9,1052.2 2160.8,1030.6 2188.6,1009.2 2217.0,988.0 2245.9,967.0  " style="stroke-opacity: 1.000000; stroke-width: 5.0; stroke: rgb(107,174,214); fill: none"  />
<path d="M 2413.7,1425.1 L 2378.5,1427.9 2343.6,1430.5 2309.2,1432.8 2275.5,1434.9 2242.8,1436.7 2211.3,1438.2 2181.1,1439.3 2152.5,1440.1 2125.6,1440.5 2100.6,1440.4 2077.6,1439.9 2056.7,1439.0 2038.1,1437.6 2021.8,1435.8 2008.0,1433.5 1996.7,1430.7 1988.0,1427.4 1981.9,1423.7 1978.4,1419.5 1977.6,1414.8 1979.5,1409.7 1984.0,1404.1 1991.1,1398.1 2000.8,1391.7 2013.0,1384.9 2027.7,1377.7 2044.8,1370.1 2064.1,1362.2 2085.6,1354.0 2109.1,1345.6 2134.6,1336.8 2161.8,1327.9 2190.6,1318.8 2220.8,1309.6 2252.2,1300.3 2284.6,1291.0 2317.8,1281.6 2351.6,1272.3 2385.6,1263.1  " style="stroke-opacity: 1.000000; stroke-width: 5.0; stroke: rgb(107,174,214); fill: none"  />
<path d="M 596.7,1656.5 L 636.1,1650.2 675.9,1644.7 716.1,1640.2 756.6,1636.7 797.3,1634.4 838.1,1633.2 878.8,1633.3 919.6,1634.7 960.1,1637.4 1000.5,1641.5 1040.6,1647.0 1080.3,1654.0 1119.5,1662.5 1158.3,1672.5 1196.6,1684.0 1234.2,1697.0 1271.2,1711.5 1307.5,1727.6 1343.0,1745.1 1377.7,1764.2 1411.6,1784.7 1444.7,1806.6 1476.8,1830.0 1508.0,1854.8 1538.3,1880.8 1567.5,1908.2 1595.8,1936.7 1623.0,1966.5 1649.2,1997.3 1674.4,2029.1 1698.5,2061.8 1721.5,2095.4 1743.5,2129.8 1764.5,2164.8 1784.4,2200.3 1803.2,2236.3 1821.0,2272.7 1837.8,2309.2 1853.6,2345.8  " style="stroke-opacity: 1.000000; stroke-width: 5.0; stroke: rgb(107,174,214); fill: none"  />
<path d="M 596.7,1656.5 L 631.6,1650.7 666.4,1645.2 700.7,1640.1 734.5,1635.6 767.3,1631.6 799.1,1628.3 829.7,1625.7 858.8,1623.8 886.4,1622.7 912.2,1622.4 936.2,1623.0 958.2,1624.4 978.1,1626.7 995.8,1629.9 1011.2,1634.1 1024.3,1639.2 1035.0,1645.3 1043.2,1652.3 1049.0,1660.2 1052.2,1669.0 1052.9,1678.8 1051.2,1689.5 1046.9,1701.0 1040.2,1713.3 1031.2,1726.5 1019.7,1740.4 1006.1,1755.0 990.2,1770.3 972.2,1786.2 952.3,1802.7 930.6,1819.6 907.1,1837.0 882.1,1854.8 855.6,1872.8 828.0,1891.0 799.4,1909.3 769.9,1927.6 739.8,1945.9 709.3,1964.0  " style="stroke-opacity: 1.000000; stroke-width: 5.0; stroke: rgb(107,174,214); fill: none"  />
<path d="M 583.3,1492.7 L 625.9,1493.4 668.8,1494.8 712.1,1496.9 755.7,1499.8 799.4,1503.5 843.3,1508.1 887.4,1513.5 931.4,1519.9 975.5,1527.1 1019.6,1535.4 1063.6,1544.6 1107.5,1554.7 1151.2,1565.9 1194.7,1578.1 1238.0,1591.2 1281.0,1605.4 1323.7,1620.6 1366.0,1636.8 1408.0,1653.9 1449.6,1672.1 1490.7,1691.2 1531.3,1711.3 1571.5,1732.3 1611.1,1754.2 1650.2,1777.0 1688.7,1800.7 1726.6,1825.2 1763.9,1850.4 1800.5,1876.5 1836.5,1903.2 1871.8,1930.6 1906.4,1958.7 1940.3,1987.3 1973.5,2016.4 2005.9,2045.9 2037.7,2075.9 2068.6,2106.2 2098.8,2136.8 2128.3,2167.6  " style="stroke-opacity: 1.000000; stroke-width: 5.0; stroke: rgb(107,174,214); fill: none"  />
<path d="M 583.3,1492.7 L 622.3,1493.5 661.6,1495.3 701.0,1498.1 740.4,1502.0 779.7,1507.1 818.7,1513.4 857.4,1521.0 895.5,1529.8 933.2,1540.1 970.1,1551.7 1006.3,1564.7 1041.7,1579.1 1076.2,1594.9 1109.8,1612.2 1142.2,1630.9 1173.6,1651.0 1203.8,1672.6 1232.8,1695.6 1260.6,1720.0 1287.1,1745.7 1312.3,1772.7 1336.1,1801.1 1358.5,1830.6 1379.5,1861.4 1399.2,1893.3 1417.4,1926.3 1434.3,1960.4 1449.7,1995.3 1463.7,2031.2 1476.4,2067.8 1487.7,2105.1 1497.7,2143.0 1506.4,2181.4 1513.8,2220.2 1520.1,2259.3 1525.1,2298.6 1529.1,2337.9 1532.0,2377.1 1533.9,2416.1  " style="stroke-opacity: 1.000000; stroke-width: 5.0; stroke: rgb(107,174,214); fill: none"  />
<path d="M 583.3,1492.7 L 618.7,1493.2 653.9,1494.0 688.6,1495.1 722.5,1496.7 755.6,1498.7 787.5,1501.1 818.0,1504.0 847.0,1507.3 874.3,1511.2 899.8,1515.5 923.3,1520.3 944.7,1525.6 963.9,1531.5 980.7,1537.8 995.1,1544.7 1007.1,1552.1 1016.5,1559.9 1023.4,1568.3 1027.6,1577.1 1029.2,1586.4 1028.2,1596.1 1024.6,1606.3 1018.3,1616.8 1009.5,1627.8 998.3,1639.1 984.5,1650.8 968.5,1662.7 950.1,1674.9 929.6,1687.4 907.1,1700.0 882.6,1712.8 856.4,1725.7 828.6,1738.7 799.4,1751.7 769.0,1764.7 737.5,1777.6 705.2,1790.4 672.4,1803.0 639.2,1815.3  " style="stroke-opacity: 1.000000; stroke-width: 5.0; stroke: rgb(107,174,214); fill: none"  />
<path d="M 583.3,1492.7 L 618.5,1493.1 653.5,1493.6 688.0,1494.4 721.8,1495.3 754.5,1496.4 786.0,1497.8 816.2,1499.4 844.8,1501.2 871.6,1503.2 896.5,1505.5 919.4,1508.1 940.1,1510.9 958.5,1513.9 974.5,1517.2 988.0,1520.7 999.0,1524.5 1007.4,1528.5 1013.2,1532.8 1016.3,1537.3 1016.6,1542.0 1014.3,1547.0 1009.4,1552.1 1001.7,1557.5 991.5,1563.0 978.7,1568.7 963.5,1574.5 945.8,1580.5 925.8,1586.7 903.7,1592.9 879.5,1599.2 853.3,1605.6 825.4,1612.1 795.9,1618.5 765.0,1625.0 732.9,1631.5 699.8,1637.9 665.9,1644.2 631.4,1650.4 596.7,1656.5  " style="stroke-opacity: 1.000000; stroke-width: 5.0; stroke: rgb(107,174,214); fill: none"  />
</g>
<defs>
<pattern id="hline" width="10" height="10" patternTransform="rotate(0 0 0)" patternUnits="userSpaceOnUse"><line x1="0" y1="0" x2="10" y2="0" style="stroke:black;stroke-width:5" /></pattern>
<pattern id="checker" width="10" height="10" patternTransform="rotate(45 0 0)" patternUnits="userSpaceOnUse"><line x1="0" y1="0" x2="10" y2="0" style="stroke:black;stroke-width:2" /><line x1="0" y1="0" x2="0" y2="10" style="stroke:black;stroke-width:2" /></pattern>
<pattern id="checker" width="10" height="10" patternTransform="rotate(45 0 0)" patternUnits="userSpaceOnUse"><line x1="0" y1="0" x2="10" y2="0" style="stroke:black;stroke-width:5" /><line x1="0" y1="0" x2="0" y2="10" style="stroke:black;stroke-width:4" /></pattern>
<pattern id="hline-sparse" width="10" height="10" patternTransform="rotate(0 0 0)" patternUnits="userSpaceOnUse"><line x1="0" y1="0" x2="10" y2="0" style="stroke:black;stroke-width:2" /></pattern>
<pattern id="vline-sparse" width="10" height="10" patternTransform="rotate(0 0 0)" patternUnits="userSpaceOnUse"><line x1="0" y1="0" x2="0" y2="10" style="stroke:black;stroke-width:2" /></pattern>
<pattern id="vline" width="10" height="10" patternTransform="rotate(0 0 0)" patternUnits="userSpaceOnUse"><line x1="0" y1="0" x2="0" y2="10" style="stroke:black;stroke-width:5" /></pattern>
</defs>
</svg>
