<?xml version="1.0" encoding="utf-8" standalone="no"?>
<!DOCTYPE svg PUBLIC "-//W3C//DTD SVG 1.1//EN" "http://www.w3.org/Graphics/SVG/1.1/DTD/svg11.dtd">
<svg width="3000px" height="3000px" version="1.1" xmlns="http://www.w3.org/2000/svg" xmlns:xlink="http://www.w3.org/1999/xlink">
<g id="bg">
<rect x="0" y="0" width="3000px" height="3000px" style="fill:rgb(255,255,255);"/>
</g>
<g id="ideograms">
<path d="M1500.000,535.000 A965.000,965.000 40.000 0,1 1601.714,540.376 L1618.579,381.267 A1125.000,1125.000 0.000 0,0 1500.000,375.000 Z" style="stroke-width:2.0;stroke:rgb(115,115,115);stroke-linecap:round;fill:rgb(153,0,204);" />
<text x="1635.1" y="307.6" font-size="195.0px" font-family="CMUBright-Bold" style="text-anchor:start;fill:rgb(0,0,0);" transform="rotate(273.0,1635.1,307.6)" >1</text>
<path d="M1500.000,535.000 A965.000,965.000 40.000 0,1 1601.714,540.376 L1618.579,381.267 A1125.000,1125.000 0.000 0,0 1500.000,375.000 Z" style="stroke-width:2.0;stroke:rgb(115,115,115);stroke-linecap:round;fill:none;" />
<path d="M1672.307,550.508 A965.000,965.000 40.000 0,1 1771.427,573.959 L1816.431,420.418 A1125.000,1125.000 0.000 0,0 1700.877,393.079 Z" style="stroke-width:2.0;stroke:rgb(115,115,115);stroke-linecap:round;fill:rgb(153,0,204);" />
<text x="1843.9" y="350.3" font-size="195.0px" font-family="CMUBright-Bold" style="text-anchor:start;fill:rgb(0,0,0);" transform="rotate(283.3,1843.9,350.3)" >4</text>
<path d="M1672.307,550.508 A965.000,965.000 40.000 0,1 1771.427,573.959 L1816.431,420.418 A1125.000,1125.000 0.000 0,0 1700.877,393.079 Z" style="stroke-width:2.0;stroke:rgb(115,115,115);stroke-linecap:round;fill:none;" />
<path d="M1839.077,596.533 A965.000,965.000 40.000 0,1 1932.417,637.306 L2004.113,494.269 A1125.000,1125.000 0.000 0,0 1895.297,446.736 Z" style="stroke-width:2.0;stroke:rgb(115,115,115);stroke-linecap:round;fill:rgb(153,0,204);" />
<text x="2045.4" y="431.1" font-size="195.0px" font-family="CMUBright-Bold" style="text-anchor:start;fill:rgb(0,0,0);" transform="rotate(293.6,2045.4,431.1)" >5</text>
<path d="M1839.077,596.533 A965.000,965.000 40.000 0,1 1932.417,637.306 L2004.113,494.269 A1125.000,1125.000 0.000 0,0 1895.297,446.736 Z" style="stroke-width:2.0;stroke:rgb(115,115,115);stroke-linecap:round;fill:none;" />
<path d="M1994.948,671.597 A965.000,965.000 40.000 0,1 2079.507,728.381 L2175.592,600.444 A1125.000,1125.000 0.000 0,0 2077.012,534.245 Z" style="stroke-width:2.0;stroke:rgb(115,115,115);stroke-linecap:round;fill:rgb(153,0,204);" />
<text x="2229.1" y="546.9" font-size="195.0px" font-family="CMUBright-Bold" style="text-anchor:start;fill:rgb(0,0,0);" transform="rotate(303.9,2229.1,546.9)" >6</text>
<path d="M1994.948,671.597 A965.000,965.000 40.000 0,1 2079.507,728.381 L2175.592,600.444 A1125.000,1125.000 0.000 0,0 2077.012,534.245 Z" style="stroke-width:2.0;stroke:rgb(115,115,115);stroke-linecap:round;fill:none;" />
<path d="M2134.911,773.286 A965.000,965.000 40.000 0,1 2207.972,844.256 L2325.356,735.532 A1125.000,1125.000 0.000 0,0 2240.181,652.795 Z" style="stroke-width:2.0;stroke:rgb(115,115,115);stroke-linecap:round;fill:rgb(153,0,204);" />
<text x="2387.6" y="692.4" font-size="195.0px" font-family="CMUBright-Bold" style="text-anchor:start;fill:rgb(0,0,0);" transform="rotate(314.2,2387.6,692.4)" >8</text>
<path d="M2134.911,773.286 A965.000,965.000 40.000 0,1 2207.972,844.256 L2325.356,735.532 A1125.000,1125.000 0.000 0,0 2240.181,652.795 Z" style="stroke-width:2.0;stroke:rgb(115,115,115);stroke-linecap:round;fill:none;" />
<path d="M2254.467,898.332 A965.000,965.000 40.000 0,1 2313.683,981.207 L2448.594,895.190 A1125.000,1125.000 0.000 0,0 2379.560,798.574 Z" style="stroke-width:2.0;stroke:rgb(115,115,115);stroke-linecap:round;fill:rgb(153,0,204);" />
<text x="2517.5" y="863.9" font-size="195.0px" font-family="CMUBright-Bold" style="text-anchor:start;fill:rgb(0,0,0);" transform="rotate(324.5,2517.5,863.9)" >10</text>
<path d="M2254.467,898.332 A965.000,965.000 40.000 0,1 2313.683,981.207 L2448.594,895.190 A1125.000,1125.000 0.000 0,0 2379.560,798.574 Z" style="stroke-width:2.0;stroke:rgb(115,115,115);stroke-linecap:round;fill:none;" />
<path d="M2349.775,1042.717 A965.000,965.000 40.000 0,1 2393.240,1134.833 L2541.342,1074.288 A1125.000,1125.000 0.000 0,0 2490.670,966.898 Z" style="stroke-width:2.0;stroke:rgb(115,115,115);stroke-linecap:round;fill:rgb(153,0,204);" />
<text x="2614.7" y="1055.8" font-size="195.0px" font-family="CMUBright-Bold" style="text-anchor:start;fill:rgb(0,0,0);" transform="rotate(334.7,2614.7,1055.8)" >13</text>
<path d="M2349.775,1042.717 A965.000,965.000 40.000 0,1 2393.240,1134.833 L2541.342,1074.288 A1125.000,1125.000 0.000 0,0 2490.670,966.898 Z" style="stroke-width:2.0;stroke:rgb(115,115,115);stroke-linecap:round;fill:none;" />
<path d="M2417.770,1201.799 A965.000,965.000 40.000 0,1 2444.089,1300.196 L2600.621,1267.068 A1125.000,1125.000 0.000 0,0 2569.939,1152.356 Z" style="stroke-width:2.0;stroke:rgb(115,115,115);stroke-linecap:round;fill:rgb(153,0,204);" />
<text x="2676.0" y="1261.0" font-size="195.0px" font-family="CMUBright-Bold" style="text-anchor:start;fill:rgb(0,0,0);" transform="rotate(345.0,2676.0,1261.0)" >17</text>
<path d="M2417.770,1201.799 A965.000,965.000 40.000 0,1 2444.089,1300.196 L2600.621,1267.068 A1125.000,1125.000 0.000 0,0 2569.939,1152.356 Z" style="stroke-width:2.0;stroke:rgb(115,115,115);stroke-linecap:round;fill:none;" />
<path d="M2456.267,1370.465 A965.000,965.000 40.000 0,1 2464.593,1471.980 L2624.526,1467.335 A1125.000,1125.000 0.000 0,0 2614.818,1348.988 Z" style="stroke-width:2.0;stroke:rgb(115,115,115);stroke-linecap:round;fill:rgb(153,0,204);" />
<text x="2699.8" y="1475.8" font-size="195.0px" font-family="CMUBright-Bold" style="text-anchor:start;fill:rgb(0,0,0);" transform="rotate(355.3,2699.8,1475.8)" >19</text>
<path d="M2456.267,1370.465 A965.000,965.000 40.000 0,1 2464.593,1471.980 L2624.526,1467.335 A1125.000,1125.000 0.000 0,0 2614.818,1348.988 Z" style="stroke-width:2.0;stroke:rgb(115,115,115);stroke-linecap:round;fill:none;" />
<path d="M2464.028,1543.295 A965.000,965.000 40.000 0,1 2454.095,1644.665 L2612.287,1668.651 A1125.000,1125.000 0.000 0,0 2623.867,1550.473 Z" style="stroke-width:2.0;stroke:rgb(115,115,115);stroke-linecap:round;fill:rgb(153,0,204);" />
<text x="2685.1" y="1688.4" font-size="195.0px" font-family="CMUBright-Bold" style="text-anchor:start;fill:rgb(0,0,0);" transform="rotate(5.6,2685.1,1688.4)" >21</text>
<path d="M2464.028,1543.295 A965.000,965.000 40.000 0,1 2454.095,1644.665 L2612.287,1668.651 A1125.000,1125.000 0.000 0,0 2623.867,1550.473 Z" style="stroke-width:2.0;stroke:rgb(115,115,115);stroke-linecap:round;fill:none;" />
<path d="M2440.805,1714.733 A965.000,965.000 40.000 0,1 2412.931,1812.701 L2564.298,1864.548 A1125.000,1125.000 0.000 0,0 2596.794,1750.336 Z" style="stroke-width:2.0;stroke:rgb(115,115,115);stroke-linecap:round;fill:rgb(153,0,204);" />
<text x="2632.1" y="1898.0" font-size="195.0px" font-family="CMUBright-Bold" style="text-anchor:start;fill:rgb(0,0,0);" transform="rotate(15.9,2632.1,1898.0)" >27</text>
<path d="M2440.805,1714.733 A965.000,965.000 40.000 0,1 2412.931,1812.701 L2564.298,1864.548 A1125.000,1125.000 0.000 0,0 2596.794,1750.336 Z" style="stroke-width:2.0;stroke:rgb(115,115,115);stroke-linecap:round;fill:none;" />
<path d="M2387.344,1879.269 A965.000,965.000 40.000 0,1 2342.425,1970.686 L2482.102,2048.727 A1125.000,1125.000 0.000 0,0 2534.469,1942.153 Z" style="stroke-width:2.0;stroke:rgb(115,115,115);stroke-linecap:round;fill:rgb(153,0,204);" />
<text x="2542.3" y="2094.6" font-size="195.0px" font-family="CMUBright-Bold" style="text-anchor:start;fill:rgb(0,0,0);" transform="rotate(26.2,2542.3,2094.6)" >28</text>
<path d="M2387.344,1879.269 A965.000,965.000 40.000 0,1 2342.425,1970.686 L2482.102,2048.727 A1125.000,1125.000 0.000 0,0 2534.469,1942.153 Z" style="stroke-width:2.0;stroke:rgb(115,115,115);stroke-linecap:round;fill:none;" />
<path d="M2305.363,2031.616 A965.000,965.000 40.000 0,1 2244.843,2113.542 L2368.340,2215.270 A1125.000,1125.000 0.000 0,0 2438.895,2119.759 Z" style="stroke-width:2.0;stroke:rgb(115,115,115);stroke-linecap:round;fill:rgb(153,0,204);" />
<text x="2419.4" y="2271.1" font-size="195.0px" font-family="CMUBright-Bold" style="text-anchor:start;fill:rgb(0,0,0);" transform="rotate(36.5,2419.4,2271.1)" >35</text>
<path d="M2305.363,2031.616 A965.000,965.000 40.000 0,1 2244.843,2113.542 L2368.340,2215.270 A1125.000,1125.000 0.000 0,0 2438.895,2119.759 Z" style="stroke-width:2.0;stroke:rgb(115,115,115);stroke-linecap:round;fill:none;" />
<path d="M2197.497,2166.875 A965.000,965.000 40.000 0,1 2123.321,2236.679 L2226.669,2358.823 A1125.000,1125.000 0.000 0,0 2313.144,2277.445 Z" style="stroke-width:2.0;stroke:rgb(115,115,115);stroke-linecap:round;fill:rgb(253,208,162);" />
<text x="2268.5" y="2421.6" font-size="195.0px" font-family="CMUBright-Bold" style="text-anchor:start;fill:rgb(0,0,0);" transform="rotate(46.7,2268.5,2421.6)" >11</text>
<path d="M2197.497,2166.875 A965.000,965.000 40.000 0,1 2123.321,2236.679 L2226.669,2358.823 A1125.000,1125.000 0.000 0,0 2313.144,2277.445 Z" style="stroke-width:2.0;stroke:rgb(115,115,115);stroke-linecap:round;fill:none;" />
<path d="M2067.213,2280.701 A965.000,965.000 40.000 0,1 1981.764,2336.139 L2061.642,2474.773 A1125.000,1125.000 0.000 0,0 2161.258,2410.144 Z" style="stroke-width:2.0;stroke:rgb(115,115,115);stroke-linecap:round;fill:rgb(253,208,162);" />
<text x="2091.6" y="2544.0" font-size="195.0px" font-family="CMUBright-Bold" style="text-anchor:start;fill:rgb(0,0,0);" transform="rotate(57.0,2091.6,2544.0)" >14</text>
<path d="M2067.213,2280.701 A965.000,965.000 40.000 0,1 1981.764,2336.139 L2061.642,2474.773 A1125.000,1125.000 0.000 0,0 2161.258,2410.144 Z" style="stroke-width:2.0;stroke:rgb(115,115,115);stroke-linecap:round;fill:none;" />
<path d="M1918.698,2369.435 A965.000,965.000 40.000 0,1 1824.724,2408.724 L1878.564,2559.393 A1125.000,1125.000 0.000 0,0 1988.119,2513.590 Z" style="stroke-width:2.0;stroke:rgb(115,115,115);stroke-linecap:round;fill:rgb(253,208,162);" />
<text x="1893.8" y="2633.6" font-size="195.0px" font-family="CMUBright-Bold" style="text-anchor:start;fill:rgb(0,0,0);" transform="rotate(67.3,1893.8,2633.6)" >15</text>
<path d="M1918.698,2369.435 A965.000,965.000 40.000 0,1 1824.724,2408.724 L1878.564,2559.393 A1125.000,1125.000 0.000 0,0 1988.119,2513.590 Z" style="stroke-width:2.0;stroke:rgb(115,115,115);stroke-linecap:round;fill:none;" />
<path d="M1756.726,2430.224 A965.000,965.000 40.000 0,1 1657.246,2452.102 L1683.318,2609.964 A1125.000,1125.000 0.000 0,0 1799.291,2584.458 Z" style="stroke-width:2.0;stroke:rgb(115,115,115);stroke-linecap:round;fill:rgb(253,208,162);" />
<text x="1685.0" y="2685.6" font-size="195.0px" font-family="CMUBright-Bold" style="text-anchor:start;fill:rgb(0,0,0);" transform="rotate(77.6,1685.0,2685.6)" >31</text>
<path d="M1756.726,2430.224 A965.000,965.000 40.000 0,1 1657.246,2452.102 L1683.318,2609.964 A1125.000,1125.000 0.000 0,0 1799.291,2584.458 Z" style="stroke-width:2.0;stroke:rgb(115,115,115);stroke-linecap:round;fill:none;" />
<path d="M1586.502,2461.115 A965.000,965.000 40.000 0,1 1484.715,2464.879 L1482.181,2624.859 A1125.000,1125.000 0.000 0,0 1600.844,2620.471 Z" style="stroke-width:2.0;stroke:rgb(115,115,115);stroke-linecap:round;fill:rgb(253,208,162);" />
<text x="1470.4" y="2699.6" font-size="195.0px" font-family="CMUBright-Bold" style="text-anchor:start;fill:rgb(0,0,0);" transform="rotate(87.9,1470.4,2699.6)" >32</text>
<path d="M1586.502,2461.115 A965.000,965.000 40.000 0,1 1484.715,2464.879 L1482.181,2624.859 A1125.000,1125.000 0.000 0,0 1600.844,2620.471 Z" style="stroke-width:2.0;stroke:rgb(115,115,115);stroke-linecap:round;fill:none;" />
<path d="M1413.498,2461.115 A965.000,965.000 40.000 0,1 1312.675,2446.644 L1281.616,2603.600 A1125.000,1125.000 0.000 0,0 1399.156,2620.471 Z" style="stroke-width:2.0;stroke:rgb(115,115,115);stroke-linecap:round;fill:rgb(253,141,60);" />
<text x="1401.0" y="2695.9" font-size="195.0px" font-family="CMUBright-Bold" style="text-anchor:end;fill:rgb(0,0,0);" transform="rotate(-81.8,1401.0,2695.9)" >2</text>
<path d="M1413.498,2461.115 A965.000,965.000 40.000 0,1 1312.675,2446.644 L1281.616,2603.600 A1125.000,1125.000 0.000 0,0 1399.156,2620.471 Z" style="stroke-width:2.0;stroke:rgb(115,115,115);stroke-linecap:round;fill:none;" />
<path d="M1243.274,2430.224 A965.000,965.000 40.000 0,1 1146.656,2397.983 L1088.070,2546.871 A1125.000,1125.000 0.000 0,0 1200.709,2584.458 Z" style="stroke-width:2.0;stroke:rgb(115,115,115);stroke-linecap:round;fill:rgb(253,141,60);" />
<text x="1191.0" y="2659.5" font-size="195.0px" font-family="CMUBright-Bold" style="text-anchor:end;fill:rgb(0,0,0);" transform="rotate(-71.5,1191.0,2659.5)" >3</text>
<path d="M1243.274,2430.224 A965.000,965.000 40.000 0,1 1146.656,2397.983 L1088.070,2546.871 A1125.000,1125.000 0.000 0,0 1200.709,2584.458 Z" style="stroke-width:2.0;stroke:rgb(115,115,115);stroke-linecap:round;fill:none;" />
<path d="M1081.302,2369.435 A965.000,965.000 40.000 0,1 991.993,2320.460 L907.764,2456.494 A1125.000,1125.000 0.000 0,0 1011.881,2513.590 Z" style="stroke-width:2.0;stroke:rgb(115,115,115);stroke-linecap:round;fill:rgb(253,141,60);" />
<text x="986.2" y="2584.5" font-size="195.0px" font-family="CMUBright-Bold" style="text-anchor:end;fill:rgb(0,0,0);" transform="rotate(-61.3,986.2,2584.5)" >7</text>
<path d="M1081.302,2369.435 A965.000,965.000 40.000 0,1 991.993,2320.460 L907.764,2456.494 A1125.000,1125.000 0.000 0,0 1011.881,2513.590 Z" style="stroke-width:2.0;stroke:rgb(115,115,115);stroke-linecap:round;fill:none;" />
<path d="M932.787,2280.701 A965.000,965.000 40.000 0,1 853.658,2216.566 L746.493,2335.375 A1125.000,1125.000 0.000 0,0 838.742,2410.144 Z" style="stroke-width:2.0;stroke:rgb(115,115,115);stroke-linecap:round;fill:rgb(253,141,60);" />
<text x="803.3" y="2477.0" font-size="195.0px" font-family="CMUBright-Bold" style="text-anchor:end;fill:rgb(0,0,0);" transform="rotate(-51.0,803.3,2477.0)" >9</text>
<path d="M932.787,2280.701 A965.000,965.000 40.000 0,1 853.658,2216.566 L746.493,2335.375 A1125.000,1125.000 0.000 0,0 838.742,2410.144 Z" style="stroke-width:2.0;stroke:rgb(115,115,115);stroke-linecap:round;fill:none;" />
<path d="M802.503,2166.875 A965.000,965.000 40.000 0,1 736.097,2089.642 L609.440,2187.406 A1125.000,1125.000 0.000 0,0 686.856,2277.445 Z" style="stroke-width:2.0;stroke:rgb(115,115,115);stroke-linecap:round;fill:rgb(253,141,60);" />
<text x="638.6" y="2335.5" font-size="195.0px" font-family="CMUBright-Bold" style="text-anchor:end;fill:rgb(0,0,0);" transform="rotate(-40.7,638.6,2335.5)" >12</text>
<path d="M802.503,2166.875 A965.000,965.000 40.000 0,1 736.097,2089.642 L609.440,2187.406 A1125.000,1125.000 0.000 0,0 686.856,2277.445 Z" style="stroke-width:2.0;stroke:rgb(115,115,115);stroke-linecap:round;fill:none;" />
<path d="M694.637,2031.616 A965.000,965.000 40.000 0,1 643.089,1943.766 L501.010,2017.344 A1125.000,1125.000 0.000 0,0 561.105,2119.759 Z" style="stroke-width:2.0;stroke:rgb(115,115,115);stroke-linecap:round;fill:rgb(253,141,60);" />
<text x="504.4" y="2169.9" font-size="195.0px" font-family="CMUBright-Bold" style="text-anchor:end;fill:rgb(0,0,0);" transform="rotate(-30.4,504.4,2169.9)" >16</text>
<path d="M694.637,2031.616 A965.000,965.000 40.000 0,1 643.089,1943.766 L501.010,2017.344 A1125.000,1125.000 0.000 0,0 561.105,2119.759 Z" style="stroke-width:2.0;stroke:rgb(115,115,115);stroke-linecap:round;fill:none;" />
<path d="M612.656,1879.269 A965.000,965.000 40.000 0,1 577.622,1783.627 L424.689,1830.653 A1125.000,1125.000 0.000 0,0 465.531,1942.153 Z" style="stroke-width:2.0;stroke:rgb(115,115,115);stroke-linecap:round;fill:rgb(253,141,60);" />
<text x="400.8" y="1981.4" font-size="195.0px" font-family="CMUBright-Bold" style="text-anchor:end;fill:rgb(0,0,0);" transform="rotate(-20.1,400.8,1981.4)" >18</text>
<path d="M612.656,1879.269 A965.000,965.000 40.000 0,1 577.622,1783.627 L424.689,1830.653 A1125.000,1125.000 0.000 0,0 465.531,1942.153 Z" style="stroke-width:2.0;stroke:rgb(115,115,115);stroke-linecap:round;fill:none;" />
<path d="M559.195,1714.733 A965.000,965.000 40.000 0,1 541.802,1614.372 L382.929,1633.336 A1125.000,1125.000 0.000 0,0 403.206,1750.336 Z" style="stroke-width:2.0;stroke:rgb(115,115,115);stroke-linecap:round;fill:rgb(253,141,60);" />
<text x="332.5" y="1777.4" font-size="195.0px" font-family="CMUBright-Bold" style="text-anchor:end;fill:rgb(0,0,0);" transform="rotate(-9.8,332.5,1777.4)" >20</text>
<path d="M559.195,1714.733 A965.000,965.000 40.000 0,1 541.802,1614.372 L382.929,1633.336 A1125.000,1125.000 0.000 0,0 403.206,1750.336 Z" style="stroke-width:2.0;stroke:rgb(115,115,115);stroke-linecap:round;fill:none;" />
<path d="M535.972,1543.295 A965.000,965.000 40.000 0,1 536.778,1441.441 L377.073,1431.732 A1125.000,1125.000 0.000 0,0 376.133,1550.473 Z" style="stroke-width:2.0;stroke:rgb(115,115,115);stroke-linecap:round;fill:rgb(253,141,60);" />
<text x="301.6" y="1562.5" font-size="195.0px" font-family="CMUBright-Bold" style="text-anchor:end;fill:rgb(0,0,0);" transform="rotate(0.5,301.6,1562.5)" >22</text>
<path d="M535.972,1543.295 A965.000,965.000 40.000 0,1 536.778,1441.441 L377.073,1431.732 A1125.000,1125.000 0.000 0,0 376.133,1550.473 Z" style="stroke-width:2.0;stroke:rgb(115,115,115);stroke-linecap:round;fill:none;" />
<path d="M543.733,1370.465 A965.000,965.000 40.000 0,1 562.714,1270.393 L407.309,1232.323 A1125.000,1125.000 0.000 0,0 385.182,1348.988 Z" style="stroke-width:2.0;stroke:rgb(115,115,115);stroke-linecap:round;fill:rgb(253,141,60);" />
<text x="309.5" y="1349.5" font-size="195.0px" font-family="CMUBright-Bold" style="text-anchor:end;fill:rgb(0,0,0);" transform="rotate(10.7,309.5,1349.5)" >23</text>
<path d="M543.733,1370.465 A965.000,965.000 40.000 0,1 562.714,1270.393 L407.309,1232.323 A1125.000,1125.000 0.000 0,0 385.182,1348.988 Z" style="stroke-width:2.0;stroke:rgb(115,115,115);stroke-linecap:round;fill:none;" />
<path d="M582.230,1201.799 A965.000,965.000 40.000 0,1 618.774,1106.724 L472.664,1041.517 A1125.000,1125.000 0.000 0,0 430.061,1152.356 Z" style="stroke-width:2.0;stroke:rgb(115,115,115);stroke-linecap:round;fill:rgb(253,141,60);" />
<text x="355.5" y="1139.3" font-size="195.0px" font-family="CMUBright-Bold" style="text-anchor:end;fill:rgb(0,0,0);" transform="rotate(21.0,355.5,1139.3)" >25</text>
<path d="M582.230,1201.799 A965.000,965.000 40.000 0,1 618.774,1106.724 L472.664,1041.517 A1125.000,1125.000 0.000 0,0 430.061,1152.356 Z" style="stroke-width:2.0;stroke:rgb(115,115,115);stroke-linecap:round;fill:none;" />
<path d="M650.225,1042.717 A965.000,965.000 40.000 0,1 703.158,955.695 L571.039,865.447 A1125.000,1125.000 0.000 0,0 509.330,966.898 Z" style="stroke-width:2.0;stroke:rgb(115,115,115);stroke-linecap:round;fill:rgb(253,141,60);" />
<text x="438.3" y="940.7" font-size="195.0px" font-family="CMUBright-Bold" style="text-anchor:end;fill:rgb(0,0,0);" transform="rotate(31.3,438.3,940.7)" >26</text>
<path d="M650.225,1042.717 A965.000,965.000 40.000 0,1 703.158,955.695 L571.039,865.447 A1125.000,1125.000 0.000 0,0 509.330,966.898 Z" style="stroke-width:2.0;stroke:rgb(115,115,115);stroke-linecap:round;fill:none;" />
<path d="M745.533,898.332 A965.000,965.000 40.000 0,1 813.153,822.160 L699.272,709.772 A1125.000,1125.000 0.000 0,0 620.440,798.574 Z" style="stroke-width:2.0;stroke:rgb(115,115,115);stroke-linecap:round;fill:rgb(253,141,60);" />
<text x="555.2" y="760.2" font-size="195.0px" font-family="CMUBright-Bold" style="text-anchor:end;fill:rgb(0,0,0);" transform="rotate(41.6,555.2,760.2)" >29</text>
<path d="M745.533,898.332 A965.000,965.000 40.000 0,1 813.153,822.160 L699.272,709.772 A1125.000,1125.000 0.000 0,0 620.440,798.574 Z" style="stroke-width:2.0;stroke:rgb(115,115,115);stroke-linecap:round;fill:none;" />
<path d="M865.089,773.286 A965.000,965.000 40.000 0,1 945.224,710.412 L853.241,579.496 A1125.000,1125.000 0.000 0,0 759.819,652.795 Z" style="stroke-width:2.0;stroke:rgb(115,115,115);stroke-linecap:round;fill:rgb(253,141,60);" />
<text x="702.5" y="603.4" font-size="195.0px" font-family="CMUBright-Bold" style="text-anchor:end;fill:rgb(0,0,0);" transform="rotate(51.9,702.5,603.4)" >34</text>
<path d="M865.089,773.286 A965.000,965.000 40.000 0,1 945.224,710.412 L853.241,579.496 A1125.000,1125.000 0.000 0,0 759.819,652.795 Z" style="stroke-width:2.0;stroke:rgb(115,115,115);stroke-linecap:round;fill:none;" />
<path d="M1005.052,671.597 A965.000,965.000 40.000 0,1 1095.126,624.042 L1027.997,478.806 A1125.000,1125.000 0.000 0,0 922.988,534.245 Z" style="stroke-width:2.0;stroke:rgb(115,115,115);stroke-linecap:round;fill:rgb(66,146,198);" />
<text x="877.1" y="474.3" font-size="195.0px" font-family="CMUBright-Bold" style="text-anchor:end;fill:rgb(0,0,0);" transform="rotate(62.2,877.1,474.3)" >24</text>
<path d="M1005.052,671.597 A965.000,965.000 40.000 0,1 1095.126,624.042 L1027.997,478.806 A1125.000,1125.000 0.000 0,0 922.988,534.245 Z" style="stroke-width:2.0;stroke:rgb(115,115,115);stroke-linecap:round;fill:none;" />
<path d="M1160.923,596.533 A965.000,965.000 40.000 0,1 1258.041,565.826 L1217.923,410.937 A1125.000,1125.000 0.000 0,0 1104.703,446.736 Z" style="stroke-width:2.0;stroke:rgb(115,115,115);stroke-linecap:round;fill:rgb(66,146,198);" />
<text x="1068.4" y="380.3" font-size="195.0px" font-family="CMUBright-Bold" style="text-anchor:end;fill:rgb(0,0,0);" transform="rotate(72.5,1068.4,380.3)" >30</text>
<path d="M1160.923,596.533 A965.000,965.000 40.000 0,1 1258.041,565.826 L1217.923,410.937 A1125.000,1125.000 0.000 0,0 1104.703,446.736 Z" style="stroke-width:2.0;stroke:rgb(115,115,115);stroke-linecap:round;fill:none;" />
<path d="M1327.693,550.508 A965.000,965.000 40.000 0,1 1428.732,537.635 L1416.916,378.072 A1125.000,1125.000 0.000 0,0 1299.123,393.079 Z" style="stroke-width:2.0;stroke:rgb(115,115,115);stroke-linecap:round;fill:rgb(66,146,198);" />
<text x="1275.3" y="321.2" font-size="195.0px" font-family="CMUBright-Bold" style="text-anchor:end;fill:rgb(0,0,0);" transform="rotate(82.7,1275.3,321.2)" >33</text>
<path d="M1327.693,550.508 A965.000,965.000 40.000 0,1 1428.732,537.635 L1416.916,378.072 A1125.000,1125.000 0.000 0,0 1299.123,393.079 Z" style="stroke-width:2.0;stroke:rgb(115,115,115);stroke-linecap:round;fill:none;" />
</g>
<g id="track_1">
<path d="M 1548.4,584.5 L 1545.8,627.1 1542.5,669.9 1538.4,713.1 1533.6,756.4 1527.9,800.0 1521.4,843.6 1514.0,887.4 1505.7,931.1 1496.4,974.8 1486.2,1018.5 1475.1,1062.0 1462.9,1105.4 1449.8,1148.6 1435.7,1191.5 1420.6,1234.2 1404.5,1276.5 1387.5,1318.5 1369.4,1360.0 1350.4,1401.2 1330.4,1441.9 1309.4,1482.1 1287.5,1521.8 1264.7,1561.0 1241.1,1599.6 1216.5,1637.6 1191.2,1675.0 1165.0,1711.8 1138.1,1747.9 1110.4,1783.3 1082.1,1818.0 1053.1,1852.1 1023.6,1885.4 993.5,1918.0 962.9,1949.8 931.9,1980.9 900.5,2011.3 868.9,2040.9 837.0,2069.7 804.9,2097.7  " style="stroke-opacity: 1.000000; stroke-width: 5.0; stroke: rgb(251,106,74); fill: none"  />
<path d="M 1548.4,584.5 L 1545.8,624.3 1542.3,664.4 1537.8,704.6 1532.1,744.8 1525.4,785.0 1517.4,825.0 1508.3,864.8 1497.9,904.2 1486.2,943.1 1473.2,981.5 1458.9,1019.4 1443.2,1056.5 1426.2,1092.9 1407.9,1128.5 1388.2,1163.2 1367.1,1197.0 1344.7,1229.9 1321.0,1261.7 1296.0,1292.4 1269.7,1322.0 1242.1,1350.5 1213.4,1377.8 1183.4,1404.0 1152.3,1428.9 1120.2,1452.6 1087.0,1475.0 1052.9,1496.2 1017.9,1516.1 982.0,1534.8 945.4,1552.3 908.1,1568.5 870.2,1583.5 831.8,1597.3 793.1,1609.9 754.0,1621.4 714.7,1631.8 675.3,1641.0 635.9,1649.3 596.7,1656.5  " style="stroke-opacity: 1.000000; stroke-width: 5.0; stroke: rgb(251,106,74); fill: none"  />
<path d="M 1548.4,584.5 L 1546.0,621.5 1542.8,658.4 1538.6,695.0 1533.5,731.3 1527.3,767.0 1520.1,801.9 1511.8,835.9 1502.3,868.9 1491.7,900.7 1479.9,931.2 1466.9,960.2 1452.7,987.7 1437.3,1013.5 1420.7,1037.6 1402.8,1059.9 1383.8,1080.4 1363.6,1098.9 1342.2,1115.4 1319.7,1129.9 1296.1,1142.4 1271.4,1152.8 1245.7,1161.1 1219.0,1167.4 1191.4,1171.6 1162.9,1173.7 1133.7,1173.8 1103.6,1172.0 1072.9,1168.2 1041.6,1162.6 1009.8,1155.1 977.6,1146.0 945.0,1135.2 912.2,1122.9 879.3,1109.1 846.4,1094.1 813.5,1077.9 780.9,1060.6 748.6,1042.5 716.8,1023.6  " style="stroke-opacity: 1.000000; stroke-width: 5.0; stroke: rgb(251,106,74); fill: none"  />
<path d="M 1548.4,584.5 L 1546.1,620.9 1543.0,657.2 1539.2,693.2 1534.4,728.7 1528.8,763.4 1522.2,797.3 1514.6,830.1 1506.1,861.7 1496.5,892.0 1485.9,920.7 1474.2,947.9 1461.5,973.3 1447.7,996.8 1432.9,1018.4 1417.0,1038.1 1400.0,1055.6 1382.0,1071.0 1363.0,1084.2 1343.1,1095.2 1322.1,1104.0 1300.3,1110.5 1277.5,1114.7 1253.9,1116.7 1229.5,1116.4 1204.4,1114.0 1178.6,1109.3 1152.1,1102.6 1125.1,1093.8 1097.6,1083.1 1069.7,1070.4 1041.4,1056.0 1012.9,1039.9 984.3,1022.2 955.5,1003.1 926.8,982.7 898.3,961.2 869.9,938.6 841.9,915.3 814.4,891.4  " style="stroke-opacity: 1.000000; stroke-width: 5.0; stroke: rgb(251,106,74); fill: none"  />
<path d="M 1548.4,584.5 L 1546.2,620.5 1543.3,656.3 1539.8,691.7 1535.5,726.5 1530.5,760.4 1524.7,793.4 1518.1,825.2 1510.7,855.7 1502.4,884.6 1493.3,911.9 1483.3,937.4 1472.5,960.9 1460.7,982.5 1448.1,1002.0 1434.6,1019.3 1420.3,1034.3 1405.1,1047.1 1389.1,1057.4 1372.3,1065.4 1354.7,1071.0 1336.3,1074.1 1317.3,1074.8 1297.5,1073.2 1277.2,1069.1 1256.2,1062.7 1234.7,1054.0 1212.6,1043.1 1190.2,1030.0 1167.3,1014.9 1144.2,997.9 1120.8,978.9 1097.2,958.3 1073.6,936.1 1049.9,912.4 1026.2,887.5 1002.7,861.5 979.5,834.6 956.6,806.9 934.1,778.8  " style="stroke-opacity: 1.000000; stroke-width: 5.0; stroke: rgb(251,106,74); fill: none"  />
<path d="M 2011.1,738.9 L 1985.2,777.6 1959.3,816.3 1933.5,855.2 1907.7,894.2 1881.9,933.2 1856.2,972.4 1830.6,1011.7 1805.0,1051.0 1779.5,1090.5 1754.1,1130.1 1728.7,1169.7 1703.4,1209.5 1678.2,1249.3 1653.1,1289.2 1628.0,1329.2 1603.1,1369.3 1578.2,1409.4 1553.5,1449.6 1528.9,1489.9 1504.3,1530.3 1479.9,1570.7 1455.5,1611.1 1431.3,1651.7 1407.2,1692.2 1383.2,1732.9 1359.3,1773.5 1335.5,1814.2 1311.9,1855.0 1288.3,1895.7 1264.9,1936.5 1241.6,1977.3 1218.4,2018.1 1195.3,2058.9 1172.3,2099.8 1149.5,2140.6 1126.7,2181.4 1104.1,2222.3 1081.6,2263.0 1059.2,2303.8  " style="stroke-opacity: 1.000000; stroke-width: 5.0; stroke: rgb(251,106,74); fill: none"  />
<path d="M 1059.2,2303.8 L 1081.6,2263.0 1104.1,2222.3 1126.7,2181.4 1149.5,2140.6 1172.3,2099.8 1195.3,2058.9 1218.4,2018.1 1241.6,1977.3 1264.9,1936.5 1288.3,1895.7 1311.9,1855.0 1335.5,1814.2 1359.3,1773.5 1383.2,1732.9 1407.2,1692.2 1431.3,1651.7 1455.5,1611.1 1479.9,1570.7 1504.3,1530.3 1528.9,1489.9 1553.5,1449.6 1578.2,1409.4 1603.1,1369.3 1628.0,1329.2 1653.1,1289.2 1678.2,1249.3 1703.4,1209.5 1728.7,1169.7 1754.1,1130.1 1779.5,1090.5 1805.0,1051.0 1830.6,1011.7 1856.2,972.4 1881.9,933.2 1907.7,894.2 1933.5,855.2 1959.3,816.3 1985.2,777.6 2011.1,738.9  " style="stroke-opacity: 1.000000; stroke-width: 5.0; stroke: rgb(251,106,74); fill: none"  />
<path d="M 922.8,2212.2 L 951.5,2176.9 980.6,2141.6 1010.0,2106.3 1039.8,2071.1 1069.8,2036.0 1100.2,2000.9 1130.9,1965.9 1161.9,1931.0 1193.2,1896.3 1224.9,1861.7 1256.8,1827.3 1289.1,1793.0 1321.7,1758.9 1354.5,1725.1 1387.7,1691.4 1421.1,1657.9 1454.8,1624.7 1488.8,1591.7 1523.0,1559.0 1557.5,1526.6 1592.3,1494.4 1627.2,1462.5 1662.4,1430.8 1697.9,1399.5 1733.5,1368.4 1769.3,1337.7 1805.3,1307.3 1841.4,1277.1 1877.7,1247.3 1914.2,1217.8 1950.8,1188.7 1987.4,1159.8 2024.2,1131.3 2061.1,1103.1 2098.0,1075.3 2135.0,1047.7 2171.9,1020.5 2208.9,993.6 2245.9,967.0  " style="stroke-opacity: 1.000000; stroke-width: 5.0; stroke: rgb(251,106,74); fill: none"  />
<path d="M 922.8,2212.2 L 950.4,2178.5 978.7,2144.9 1007.7,2111.5 1037.3,2078.2 1067.5,2045.2 1098.5,2012.4 1130.0,1980.0 1162.3,1947.9 1195.1,1916.3 1228.6,1885.0 1262.6,1854.3 1297.3,1824.0 1332.6,1794.3 1368.5,1765.2 1404.9,1736.6 1441.8,1708.6 1479.3,1681.3 1517.3,1654.7 1555.8,1628.7 1594.8,1603.4 1634.2,1578.9 1674.0,1555.0 1714.2,1531.9 1754.8,1509.6 1795.7,1487.9 1837.0,1467.1 1878.5,1447.0 1920.3,1427.6 1962.2,1409.0 2004.4,1391.2 2046.7,1374.1 2089.1,1357.8 2131.6,1342.2 2174.1,1327.3 2216.6,1313.1 2259.0,1299.6 2301.4,1286.8 2343.6,1274.6 2385.6,1263.1  " style="stroke-opacity: 1.000000; stroke-width: 5.0; stroke: rgb(251,106,74); fill: none"  />
<path d="M 2245.9,967.0 L 2208.9,993.6 2171.9,1020.5 2135.0,1047.7 2098.0,1075.3 2061.1,1103.1 2024.2,1131.3 1987.4,1159.8 1950.8,1188.7 1914.2,1217.8 1877.7,1247.3 1841.4,1277.1 1805.3,1307.3 1769.3,1337.7 1733.5,1368.4 1697.9,1399.5 1662.4,1430.8 1627.2,1462.5 1592.3,1494.4 1557.5,1526.6 1523.0,1559.0 1488.8,1591.7 1454.8,1624.7 1421.1,1657.9 1387.7,1691.4 1354.5,1725.1 1321.7,1758.9 1289.1,1793.0 1256.8,1827.3 1224.9,1861.7 1193.2,1896.3 1161.9,1931.0 1130.9,1965.9 1100.2,2000.9 1069.8,2036.0 1039.8,2071.1 1010.0,2106.3 980.6,2141.6 951.5,2176.9 922.8,2212.2  " style="stroke-opacity: 1.000000; stroke-width: 5.0; stroke: rgb(251,106,74); fill: none"  />
<path d="M 2245.9,967.0 L 2212.5,990.4 2178.3,1013.2 2143.3,1035.4 2107.6,1056.9 2071.2,1077.5 2034.2,1097.3 1996.5,1116.1 1958.3,1133.9 1919.5,1150.6 1880.2,1166.0 1840.5,1180.3 1800.4,1193.3 1759.9,1204.9 1719.1,1215.2 1678.0,1224.1 1636.6,1231.5 1595.1,1237.5 1553.4,1242.0 1511.6,1245.1 1469.6,1246.6 1427.7,1246.7 1385.8,1245.3 1343.9,1242.4 1302.1,1238.0 1260.5,1232.2 1219.0,1224.9 1177.8,1216.3 1136.8,1206.3 1096.1,1195.0 1055.8,1182.5 1016.0,1168.7 976.5,1153.9 937.6,1137.9 899.1,1120.9 861.3,1103.0 824.1,1084.2 787.6,1064.6 751.8,1044.4 716.8,1023.6  " style="stroke-opacity: 1.000000; stroke-width: 5.0; stroke: rgb(251,106,74); fill: none"  />
<path d="M 804.9,2097.7 L 837.0,2069.7 868.9,2040.9 900.5,2011.3 931.9,1980.9 962.9,1949.8 993.5,1918.0 1023.6,1885.4 1053.1,1852.1 1082.1,1818.0 1110.4,1783.3 1138.1,1747.9 1165.0,1711.8 1191.2,1675.0 1216.5,1637.6 1241.1,1599.6 1264.7,1561.0 1287.5,1521.8 1309.4,1482.1 1330.4,1441.9 1350.4,1401.2 1369.4,1360.0 1387.5,1318.5 1404.5,1276.5 1420.6,1234.2 1435.7,1191.5 1449.8,1148.6 1462.9,1105.4 1475.1,1062.0 1486.2,1018.5 1496.4,974.8 1505.7,931.1 1514.0,887.4 1521.4,843.6 1527.9,800.0 1533.6,756.4 1538.4,713.1 1542.5,669.9 1545.8,627.1 1548.4,584.5  " style="stroke-opacity: 1.000000; stroke-width: 5.0; stroke: rgb(251,106,74); fill: none"  />
<path d="M 804.9,2097.7 L 837.4,2070.2 870.6,2042.9 904.6,2016.0 939.3,1989.6 974.7,1963.6 1010.8,1938.1 1047.5,1913.3 1084.9,1889.0 1122.9,1865.5 1161.5,1842.7 1200.7,1820.7 1240.4,1799.5 1280.7,1779.1 1321.5,1759.6 1362.7,1741.1 1404.4,1723.5 1446.6,1706.8 1489.1,1691.1 1532.0,1676.4 1575.2,1662.8 1618.8,1650.1 1662.6,1638.5 1706.7,1627.9 1750.9,1618.3 1795.4,1609.8 1839.9,1602.3 1884.6,1595.8 1929.3,1590.3 1974.0,1585.8 2018.7,1582.3 2063.3,1579.7 2107.8,1578.0 2152.2,1577.2 2196.3,1577.3 2240.2,1578.3 2283.8,1580.0 2327.1,1582.4 2370.0,1585.6 2412.4,1589.4  " style="stroke-opacity: 1.000000; stroke-width: 5.0; stroke: rgb(251,106,74); fill: none"  />
<path d="M 804.9,2097.7 L 836.0,2071.4 868.1,2045.6 900.9,2020.4 934.6,1995.8 969.0,1972.0 1004.1,1948.9 1039.9,1926.8 1076.4,1905.7 1113.5,1885.6 1151.2,1866.7 1189.5,1848.9 1228.3,1832.4 1267.6,1817.2 1307.3,1803.3 1347.5,1790.8 1388.0,1779.6 1428.8,1769.9 1470.0,1761.7 1511.3,1754.9 1552.9,1749.6 1594.7,1745.8 1636.6,1743.5 1678.6,1742.6 1720.6,1743.2 1762.6,1745.3 1804.5,1748.8 1846.4,1753.7 1888.1,1759.9 1929.6,1767.5 1970.8,1776.4 2011.8,1786.5 2052.4,1797.8 2092.6,1810.3 2132.4,1823.7 2171.7,1838.2 2210.4,1853.6 2248.6,1869.8 2286.0,1886.7 2322.8,1904.3  " style="stroke-opacity: 1.000000; stroke-width: 5.0; stroke: rgb(251,106,74); fill: none"  />
<path d="M 2329.1,1108.8 L 2287.0,1128.7 2244.9,1148.7 2202.8,1168.8 2160.7,1189.0 2118.6,1209.3 2076.4,1229.8 2034.3,1250.4 1992.1,1271.0 1950.0,1291.8 1907.8,1312.7 1865.7,1333.8 1823.6,1354.9 1781.6,1376.2 1739.5,1397.5 1697.5,1419.0 1655.6,1440.6 1613.6,1462.4 1571.8,1484.2 1529.9,1506.1 1488.2,1528.2 1446.5,1550.3 1404.8,1572.6 1363.2,1595.0 1321.7,1617.4 1280.3,1640.0 1238.9,1662.6 1197.7,1685.4 1156.5,1708.2 1115.3,1731.1 1074.3,1754.1 1033.4,1777.2 992.5,1800.3 951.8,1823.6 911.1,1846.8 870.5,1870.2 830.1,1893.5 789.7,1917.0 749.5,1940.4 709.3,1964.0  " style="stroke-opacity: 1.000000; stroke-width: 5.0; stroke: rgb(251,106,74); fill: none"  />
<path d="M 1999.0,2269.1 L 1973.6,2230.1 1948.1,2191.0 1922.6,2152.0 1896.9,2113.0 1871.1,2073.9 1845.1,2034.9 1819.1,1995.9 1793.0,1956.9 1766.7,1917.9 1740.3,1879.0 1713.8,1840.1 1687.2,1801.2 1660.5,1762.4 1633.7,1723.6 1606.7,1684.9 1579.7,1646.2 1552.5,1607.6 1525.3,1569.0 1497.9,1530.5 1470.5,1492.1 1442.9,1453.7 1415.3,1415.4 1387.5,1377.2 1359.7,1339.1 1331.8,1301.1 1303.8,1263.1 1275.7,1225.3 1247.5,1187.5 1219.3,1149.8 1191.0,1112.3 1162.7,1074.8 1134.3,1037.4 1105.8,1000.1 1077.3,963.0 1048.7,925.9 1020.1,889.0 991.5,852.1 962.8,815.4 934.1,778.8  " style="stroke-opacity: 1.000000; stroke-width: 5.0; stroke: rgb(251,106,74); fill: none"  />
<path d="M 709.3,1964.0 L 747.0,1942.1 785.3,1920.6 824.2,1899.5 863.6,1878.8 903.6,1858.5 944.0,1838.7 985.0,1819.4 1026.4,1800.7 1068.3,1782.6 1110.6,1765.1 1153.3,1748.3 1196.4,1732.2 1239.9,1716.7 1283.7,1702.0 1327.8,1688.1 1372.2,1674.9 1416.9,1662.5 1461.9,1650.9 1507.0,1640.1 1552.4,1630.2 1597.9,1621.0 1643.6,1612.7 1689.4,1605.2 1735.2,1598.5 1781.1,1592.6 1827.1,1587.6 1873.0,1583.4 1918.9,1579.9 1964.7,1577.3 2010.5,1575.4 2056.1,1574.2 2101.5,1573.8 2146.8,1574.2 2191.8,1575.2 2236.6,1576.8 2281.1,1579.1 2325.2,1582.0 2369.0,1585.4 2412.4,1589.4  " style="stroke-opacity: 1.000000; stroke-width: 5.0; stroke: rgb(251,106,74); fill: none"  />
<path d="M 2385.6,1263.1 L 2343.6,1274.6 2301.4,1286.8 2259.0,1299.6 2216.6,1313.1 2174.1,1327.3 2131.6,1342.2 2089.1,1357.8 2046.7,1374.1 2004.4,1391.2 1962.2,1409.0 1920.3,1427.6 1878.5,1447.0 1837.0,1467.1 1795.7,1487.9 1754.8,1509.6 1714.2,1531.9 1674.0,1555.0 1634.2,1578.9 1594.8,1603.4 1555.8,1628.7 1517.3,1654.7 1479.3,1681.3 1441.8,1708.6 1404.9,1736.6 1368.5,1765.2 1332.6,1794.3 1297.3,1824.0 1262.6,1854.3 1228.6,1885.0 1195.1,1916.3 1162.3,1947.9 1130.0,1980.0 1098.5,2012.4 1067.5,2045.2 1037.3,2078.2 1007.7,2111.5 978.7,2144.9 950.4,2178.5 922.8,2212.2  " style="stroke-opacity: 1.000000; stroke-width: 5.0; stroke: rgb(251,106,74); fill: none"  />
<path d="M 2385.6,1263.1 L 2340.7,1275.1 2295.6,1287.0 2250.5,1298.9 2205.3,1310.6 2160.0,1322.3 2114.6,1334.0 2069.1,1345.5 2023.6,1356.9 1978.0,1368.3 1932.3,1379.5 1886.6,1390.7 1840.8,1401.7 1794.9,1412.7 1749.0,1423.5 1703.1,1434.2 1657.1,1444.8 1611.1,1455.3 1565.0,1465.7 1518.9,1476.0 1472.8,1486.1 1426.6,1496.1 1380.4,1506.0 1334.3,1515.8 1288.1,1525.5 1241.9,1535.0 1195.6,1544.5 1149.4,1553.8 1103.2,1562.9 1057.0,1572.0 1010.9,1581.0 964.7,1589.8 918.6,1598.5 872.5,1607.1 826.4,1615.6 780.4,1624.0 734.4,1632.3 688.4,1640.5 642.5,1648.6 596.7,1656.5  " style="stroke-opacity: 1.000000; stroke-width: 5.0; stroke: rgb(251,106,74); fill: none"  />
<path d="M 2385.6,1263.1 L 2343.5,1274.1 2300.8,1284.7 2257.7,1294.7 2214.2,1304.2 2170.3,1313.1 2126.0,1321.4 2081.4,1329.1 2036.5,1336.1 1991.4,1342.4 1945.9,1348.0 1900.3,1352.9 1854.4,1357.0 1808.4,1360.3 1762.3,1362.8 1716.0,1364.5 1669.7,1365.4 1623.3,1365.4 1576.9,1364.7 1530.5,1363.0 1484.1,1360.6 1437.8,1357.3 1391.6,1353.2 1345.5,1348.2 1299.5,1342.5 1253.7,1335.9 1208.0,1328.6 1162.6,1320.4 1117.5,1311.5 1072.6,1301.9 1028.0,1291.5 983.7,1280.5 939.8,1268.8 896.3,1256.4 853.1,1243.5 810.4,1230.0 768.1,1216.0 726.3,1201.4 685.0,1186.5 644.3,1171.1  " style="stroke-opacity: 1.000000; stroke-width: 5.0; stroke: rgb(251,106,74); fill: none"  />
<path d="M 2385.6,1263.1 L 2346.1,1273.2 2306.1,1282.6 2265.6,1291.1 2224.6,1298.6 2183.2,1305.2 2141.6,1310.7 2099.7,1315.1 2057.7,1318.3 2015.5,1320.2 1973.3,1320.9 1931.1,1320.3 1889.0,1318.4 1847.0,1315.1 1805.2,1310.3 1763.6,1304.2 1722.3,1296.7 1681.3,1287.7 1640.6,1277.3 1600.4,1265.4 1560.6,1252.1 1521.3,1237.4 1482.6,1221.4 1444.4,1203.9 1406.8,1185.1 1369.9,1165.1 1333.6,1143.7 1298.0,1121.2 1263.1,1097.4 1229.1,1072.6 1195.7,1046.7 1163.2,1019.8 1131.5,992.0 1100.7,963.3 1070.7,933.9 1041.6,903.9 1013.3,873.2 986.0,842.1 959.6,810.5 934.1,778.8  " style="stroke-opacity: 1.000000; stroke-width: 5.0; stroke: rgb(251,106,74); fill: none"  />
<path d="M 639.2,1815.3 L 682.9,1799.4 726.7,1783.4 770.6,1767.6 814.6,1751.8 858.6,1736.1 902.8,1720.5 947.0,1704.9 991.4,1689.4 1035.8,1674.0 1080.2,1658.7 1124.8,1643.5 1169.4,1628.4 1214.1,1613.4 1258.8,1598.5 1303.6,1583.7 1348.5,1569.0 1393.4,1554.4 1438.3,1540.0 1483.3,1525.6 1528.4,1511.4 1573.4,1497.3 1618.5,1483.3 1663.7,1469.4 1708.8,1455.6 1754.0,1442.0 1799.1,1428.4 1844.3,1415.0 1889.5,1401.7 1934.7,1388.6 1979.9,1375.5 2025.1,1362.6 2070.2,1349.8 2115.4,1337.1 2160.5,1324.5 2205.6,1312.0 2250.7,1299.6 2295.7,1287.3 2340.7,1275.2 2385.6,1263.1  " style="stroke-opacity: 1.000000; stroke-width: 5.0; stroke: rgb(251,106,74); fill: none"  />
<path d="M 596.7,1656.5 L 642.5,1648.6 688.4,1640.5 734.4,1632.3 780.4,1624.0 826.4,1615.6 872.5,1607.1 918.6,1598.5 964.7,1589.8 1010.9,1581.0 1057.0,1572.0 1103.2,1562.9 1149.4,1553.8 1195.6,1544.5 1241.9,1535.0 1288.1,1525.5 1334.3,1515.8 1380.4,1506.0 1426.6,1496.1 1472.8,1486.1 1518.9,1476.0 1565.0,1465.7 1611.1,1455.3 1657.1,1444.8 1703.1,1434.2 1749.0,1423.5 1794.9,1412.7 1840.8,1401.7 1886.6,1390.7 1932.3,1379.5 1978.0,1368.3 2023.6,1356.9 2069.1,1345.5 2114.6,1334.0 2160.0,1322.3 2205.3,1310.6 2250.5,1298.9 2295.6,1287.0 2340.7,1275.1 2385.6,1263.1  " style="stroke-opacity: 1.000000; stroke-width: 5.0; stroke: rgb(251,106,74); fill: none"  />
<path d="M 596.7,1656.5 L 641.6,1648.9 686.7,1641.4 732.1,1634.2 777.6,1627.3 823.4,1620.6 869.4,1614.2 915.5,1608.0 961.8,1602.2 1008.2,1596.6 1054.8,1591.4 1101.5,1586.5 1148.4,1581.9 1195.3,1577.7 1242.4,1573.8 1289.5,1570.2 1336.7,1567.0 1383.9,1564.2 1431.2,1561.7 1478.5,1559.6 1525.8,1557.8 1573.2,1556.5 1620.5,1555.4 1667.8,1554.8 1715.1,1554.5 1762.4,1554.5 1809.6,1554.9 1856.7,1555.7 1903.7,1556.8 1950.7,1558.3 1997.6,1560.0 2044.3,1562.1 2090.9,1564.5 2137.3,1567.3 2183.6,1570.3 2229.8,1573.6 2275.7,1577.2 2321.5,1581.0 2367.0,1585.1 2412.4,1589.4  " style="stroke-opacity: 1.000000; stroke-width: 5.0; stroke: rgb(251,106,74); fill: none"  />
<path d="M 596.7,1656.5 L 639.7,1649.4 683.1,1642.7 726.9,1636.6 771.1,1631.0 815.6,1626.0 860.5,1621.7 905.6,1618.1 950.9,1615.1 996.5,1612.9 1042.3,1611.4 1088.2,1610.6 1134.2,1610.7 1180.3,1611.5 1226.5,1613.1 1272.7,1615.6 1318.9,1618.9 1365.1,1623.0 1411.3,1627.9 1457.4,1633.7 1503.3,1640.3 1549.2,1647.7 1594.8,1655.9 1640.3,1665.0 1685.6,1674.9 1730.6,1685.5 1775.4,1696.9 1819.9,1709.1 1864.1,1722.0 1907.9,1735.6 1951.4,1749.9 1994.5,1764.9 2037.2,1780.5 2079.5,1796.7 2121.3,1813.4 2162.6,1830.7 2203.5,1848.5 2243.8,1866.7 2283.6,1885.3 2322.8,1904.3  " style="stroke-opacity: 1.000000; stroke-width: 5.0; stroke: rgb(251,106,74); fill: none"  />
<path d="M 2412.4,1589.4 L 2370.0,1585.6 2327.1,1582.4 2283.8,1580.0 2240.2,1578.3 2196.3,1577.3 2152.2,1577.2 2107.8,1578.0 2063.3,1579.7 2018.7,1582.3 1974.0,1585.8 1929.3,1590.3 1884.6,1595.8 1839.9,1602.3 1795.4,1609.8 1750.9,1618.3 1706.7,1627.9 1662.6,1638.5 1618.8,1650.1 1575.2,1662.8 1532.0,1676.4 1489.1,1691.1 1446.6,1706.8 1404.4,1723.5 1362.7,1741.1 1321.5,1759.6 1280.7,1779.1 1240.4,1799.5 1200.7,1820.7 1161.5,1842.7 1122.9,1865.5 1084.9,1889.0 1047.5,1913.3 1010.8,1938.1 974.7,1963.6 939.3,1989.6 904.6,2016.0 870.6,2042.9 837.4,2070.2 804.9,2097.7  " style="stroke-opacity: 1.000000; stroke-width: 5.0; stroke: rgb(251,106,74); fill: none"  />
<path d="M 2412.4,1589.4 L 2369.0,1585.4 2325.2,1582.0 2281.1,1579.1 2236.6,1576.8 2191.8,1575.2 2146.8,1574.2 2101.5,1573.8 2056.1,1574.2 2010.5,1575.4 1964.7,1577.3 1918.9,1579.9 1873.0,1583.4 1827.1,1587.6 1781.1,1592.6 1735.2,1598.5 1689.4,1605.2 1643.6,1612.7 1597.9,1621.0 1552.4,1630.2 1507.0,1640.1 1461.9,1650.9 1416.9,1662.5 1372.2,1674.9 1327.8,1688.1 1283.7,1702.0 1239.9,1716.7 1196.4,1732.2 1153.3,1748.3 1110.6,1765.1 1068.3,1782.6 1026.4,1800.7 985.0,1819.4 944.0,1838.7 903.6,1858.5 863.6,1878.8 824.2,1899.5 785.3,1920.6 747.0,1942.1 709.3,1964.0  " style="stroke-opacity: 1.000000; stroke-width: 5.0; stroke: rgb(251,106,74); fill: none"  />
<path d="M 2412.4,1589.4 L 2367.0,1585.1 2321.5,1581.0 2275.7,1577.2 2229.8,1573.6 2183.6,1570.3 2137.3,1567.3 2090.9,1564.5 2044.3,1562.1 1997.6,1560.0 1950.7,1558.3 1903.7,1556.8 1856.7,1555.7 1809.6,1554.9 1762.4,1554.5 1715.1,1554.5 1667.8,1554.8 1620.5,1555.4 1573.2,1556.5 1525.8,1557.8 1478.5,1559.6 1431.2,1561.7 1383.9,1564.2 1336.7,1567.0 1289.5,1570.2 1242.4,1573.8 1195.3,1577.7 1148.4,1581.9 1101.5,1586.5 1054.8,1591.4 1008.2,1596.6 961.8,1602.2 915.5,1608.0 869.4,1614.2 823.4,1620.6 777.6,1627.3 732.1,1634.2 686.7,1641.4 641.6,1648.9 596.7,1656.5  " style="stroke-opacity: 1.000000; stroke-width: 5.0; stroke: rgb(251,106,74); fill: none"  />
<path d="M 2412.4,1589.4 L 2370.0,1584.9 2327.3,1579.7 2284.4,1573.7 2241.3,1566.9 2198.1,1559.3 2154.7,1550.8 2111.4,1541.5 2068.1,1531.2 2024.8,1520.0 1981.6,1507.8 1938.6,1494.7 1895.9,1480.7 1853.3,1465.6 1811.1,1449.6 1769.1,1432.6 1727.6,1414.7 1686.4,1395.7 1645.7,1375.8 1605.4,1354.9 1565.6,1333.1 1526.4,1310.4 1487.7,1286.8 1449.6,1262.2 1412.1,1236.9 1375.3,1210.6 1339.0,1183.6 1303.5,1155.8 1268.6,1127.3 1234.5,1098.1 1201.0,1068.2 1168.3,1037.8 1136.4,1006.8 1105.2,975.2 1074.7,943.3 1045.0,910.9 1016.1,878.2 988.0,845.2 960.7,812.1 934.1,778.8  " style="stroke-opacity: 1.000000; stroke-width: 5.0; stroke: rgb(251,106,74); fill: none"  />
<path d="M 583.3,1492.7 L 623.2,1492.6 663.4,1491.5 703.8,1489.4 744.3,1486.2 784.8,1481.9 825.2,1476.4 865.4,1469.7 905.4,1461.7 945.0,1452.4 984.1,1441.8 1022.7,1429.8 1060.8,1416.4 1098.1,1401.7 1134.8,1385.5 1170.6,1367.9 1205.6,1349.0 1239.8,1328.6 1273.0,1306.9 1305.1,1283.7 1336.3,1259.3 1366.4,1233.5 1395.4,1206.5 1423.3,1178.2 1450.1,1148.7 1475.7,1118.0 1500.1,1086.3 1523.3,1053.5 1545.4,1019.7 1566.2,985.1 1585.8,949.6 1604.3,913.3 1621.6,876.4 1637.7,839.0 1652.6,801.0 1666.4,762.7 1679.2,724.1 1690.8,685.4 1701.4,646.6 1711.1,607.9  " style="stroke-opacity: 1.000000; stroke-width: 5.0; stroke: rgb(251,106,74); fill: none"  />
<path d="M 599.3,1329.2 L 635.2,1335.6 671.2,1341.3 707.1,1346.1 742.6,1349.9 777.7,1352.7 812.2,1354.4 845.9,1354.8 878.6,1354.0 910.3,1351.9 940.7,1348.5 969.9,1343.6 997.5,1337.3 1023.7,1329.5 1048.2,1320.2 1071.1,1309.4 1092.2,1297.2 1111.4,1283.4 1128.8,1268.1 1144.2,1251.3 1157.7,1233.0 1169.2,1213.3 1178.7,1192.2 1186.2,1169.8 1191.8,1146.0 1195.4,1121.0 1197.0,1094.9 1196.8,1067.6 1194.7,1039.2 1190.8,1010.0 1185.2,979.8 1177.9,949.0 1169.0,917.4 1158.6,885.4 1146.9,852.9 1133.9,820.2 1119.8,787.3 1104.7,754.4 1088.7,721.7 1072.0,689.3  " style="stroke-opacity: 1.000000; stroke-width: 5.0; stroke: rgb(251,106,74); fill: none"  />
<path d="M 644.3,1171.1 L 679.6,1184.2 715.2,1196.4 751.2,1207.7 787.4,1217.9 823.6,1226.9 859.7,1234.6 895.6,1240.9 931.2,1245.7 966.4,1249.0 1001.1,1250.6 1035.2,1250.5 1068.7,1248.7 1101.3,1245.2 1133.1,1239.8 1164.1,1232.6 1194.0,1223.5 1222.9,1212.5 1250.8,1199.6 1277.5,1184.9 1303.0,1168.4 1327.3,1150.0 1350.4,1129.8 1372.2,1107.9 1392.7,1084.2 1411.9,1058.9 1429.8,1032.1 1446.4,1003.7 1461.6,973.9 1475.6,942.8 1488.2,910.4 1499.6,877.0 1509.7,842.5 1518.6,807.1 1526.3,771.0 1532.8,734.3 1538.2,697.1 1542.6,659.7 1546.0,622.1 1548.4,584.5  " style="stroke-opacity: 1.000000; stroke-width: 5.0; stroke: rgb(251,106,74); fill: none"  />
<path d="M 644.3,1171.1 L 680.2,1184.4 716.6,1196.9 753.5,1208.4 790.6,1218.8 827.9,1228.0 865.3,1236.0 902.6,1242.6 939.9,1247.7 976.9,1251.3 1013.6,1253.3 1050.0,1253.7 1085.9,1252.3 1121.2,1249.2 1156.0,1244.4 1190.1,1237.7 1223.5,1229.2 1256.1,1218.9 1287.8,1206.7 1318.7,1192.8 1348.6,1177.0 1377.5,1159.4 1405.5,1140.0 1432.4,1118.9 1458.2,1096.2 1483.0,1071.8 1506.6,1045.8 1529.1,1018.3 1550.4,989.4 1570.6,959.2 1589.7,927.8 1607.6,895.2 1624.4,861.5 1640.0,827.0 1654.5,791.6 1667.9,755.6 1680.3,719.1 1691.5,682.2 1701.8,645.0 1711.1,607.9  " style="stroke-opacity: 1.000000; stroke-width: 5.0; stroke: rgb(251,106,74); fill: none"  />
<path d="M 644.3,1171.1 L 684.2,1186.1 724.7,1200.5 765.7,1214.4 807.3,1227.6 849.4,1240.2 891.9,1252.0 934.9,1263.1 978.2,1273.3 1021.9,1282.7 1065.9,1291.2 1110.2,1298.7 1154.8,1305.3 1199.5,1311.0 1244.5,1315.6 1289.6,1319.2 1334.8,1321.7 1380.1,1323.2 1425.4,1323.7 1470.8,1323.1 1516.1,1321.4 1561.4,1318.7 1606.5,1314.9 1651.6,1310.0 1696.5,1304.1 1741.2,1297.2 1785.7,1289.3 1829.9,1280.4 1873.8,1270.5 1917.5,1259.7 1960.7,1248.0 2003.6,1235.4 2046.1,1222.0 2088.1,1207.8 2129.7,1192.9 2170.7,1177.2 2211.2,1160.9 2251.1,1144.1 2290.4,1126.7 2329.1,1108.8  " style="stroke-opacity: 1.000000; stroke-width: 5.0; stroke: rgb(251,106,74); fill: none"  />
<path d="M 644.3,1171.1 L 685.0,1186.5 726.3,1201.4 768.1,1216.0 810.4,1230.0 853.1,1243.5 896.3,1256.4 939.8,1268.8 983.7,1280.5 1028.0,1291.5 1072.6,1301.9 1117.5,1311.5 1162.6,1320.4 1208.0,1328.6 1253.7,1335.9 1299.5,1342.5 1345.5,1348.2 1391.6,1353.2 1437.8,1357.3 1484.1,1360.6 1530.5,1363.0 1576.9,1364.7 1623.3,1365.4 1669.7,1365.4 1716.0,1364.5 1762.3,1362.8 1808.4,1360.3 1854.4,1357.0 1900.3,1352.9 1945.9,1348.0 1991.4,1342.4 2036.5,1336.1 2081.4,1329.1 2126.0,1321.4 2170.3,1313.1 2214.2,1304.2 2257.7,1294.7 2300.8,1284.7 2343.5,1274.1 2385.6,1263.1  " style="stroke-opacity: 1.000000; stroke-width: 5.0; stroke: rgb(251,106,74); fill: none"  />
<path d="M 644.3,1171.1 L 687.7,1187.8 731.1,1204.7 774.6,1221.6 818.1,1238.7 861.7,1255.8 905.2,1273.1 948.8,1290.5 992.3,1308.0 1035.9,1325.6 1079.5,1343.4 1123.0,1361.2 1166.5,1379.2 1210.1,1397.3 1253.6,1415.5 1297.0,1433.8 1340.5,1452.3 1383.9,1470.9 1427.3,1489.5 1470.6,1508.3 1513.9,1527.2 1557.1,1546.3 1600.3,1565.4 1643.4,1584.6 1686.4,1603.9 1729.4,1623.4 1772.4,1642.9 1815.2,1662.6 1858.0,1682.3 1900.7,1702.1 1943.3,1722.0 1985.8,1742.0 2028.3,1762.0 2070.6,1782.2 2112.9,1802.4 2155.1,1822.7 2197.2,1843.0 2239.1,1863.4 2281.0,1883.8 2322.8,1904.3  " style="stroke-opacity: 1.000000; stroke-width: 5.0; stroke: rgb(251,106,74); fill: none"  />
<path d="M 716.8,1023.6 L 748.6,1042.5 780.9,1060.6 813.5,1077.9 846.4,1094.1 879.3,1109.1 912.2,1122.9 945.0,1135.2 977.6,1146.0 1009.8,1155.1 1041.6,1162.6 1072.9,1168.2 1103.6,1172.0 1133.7,1173.8 1162.9,1173.7 1191.4,1171.6 1219.0,1167.4 1245.7,1161.1 1271.4,1152.8 1296.1,1142.4 1319.7,1129.9 1342.2,1115.4 1363.6,1098.9 1383.8,1080.4 1402.8,1059.9 1420.7,1037.6 1437.3,1013.5 1452.7,987.7 1466.9,960.2 1479.9,931.2 1491.7,900.7 1502.3,868.9 1511.8,835.9 1520.1,801.9 1527.3,767.0 1533.5,731.3 1538.6,695.0 1542.8,658.4 1546.0,621.5 1548.4,584.5  " style="stroke-opacity: 1.000000; stroke-width: 5.0; stroke: rgb(251,106,74); fill: none"  />
<path d="M 716.8,1023.6 L 751.8,1044.4 787.6,1064.6 824.1,1084.2 861.3,1103.0 899.1,1120.9 937.6,1137.9 976.5,1153.9 1016.0,1168.7 1055.8,1182.5 1096.1,1195.0 1136.8,1206.3 1177.8,1216.3 1219.0,1224.9 1260.5,1232.2 1302.1,1238.0 1343.9,1242.4 1385.8,1245.3 1427.7,1246.7 1469.6,1246.6 1511.6,1245.1 1553.4,1242.0 1595.1,1237.5 1636.6,1231.5 1678.0,1224.1 1719.1,1215.2 1759.9,1204.9 1800.4,1193.3 1840.5,1180.3 1880.2,1166.0 1919.5,1150.6 1958.3,1133.9 1996.5,1116.1 2034.2,1097.3 2071.2,1077.5 2107.6,1056.9 2143.3,1035.4 2178.3,1013.2 2212.5,990.4 2245.9,967.0  " style="stroke-opacity: 1.000000; stroke-width: 5.0; stroke: rgb(251,106,74); fill: none"  />
<path d="M 716.8,1023.6 L 747.4,1041.9 778.1,1059.7 808.7,1076.8 839.1,1093.1 869.0,1108.4 898.4,1122.6 927.1,1135.5 954.9,1147.1 981.7,1157.2 1007.4,1165.9 1031.9,1172.9 1055.1,1178.2 1076.9,1181.7 1097.2,1183.5 1116.0,1183.4 1133.1,1181.5 1148.6,1177.6 1162.3,1171.8 1174.3,1164.1 1184.5,1154.5 1192.9,1143.0 1199.5,1129.7 1204.3,1114.5 1207.3,1097.5 1208.5,1078.8 1208.0,1058.4 1205.8,1036.4 1201.9,1012.9 1196.4,988.0 1189.3,961.8 1180.8,934.5 1170.9,906.0 1159.8,876.6 1147.4,846.4 1134.0,815.6 1119.6,784.3 1104.3,752.7 1088.4,721.0 1072.0,689.3  " style="stroke-opacity: 1.000000; stroke-width: 5.0; stroke: rgb(251,106,74); fill: none"  />
<path d="M 2322.8,1904.3 L 2281.0,1883.8 2239.1,1863.4 2197.2,1843.0 2155.1,1822.7 2112.9,1802.4 2070.6,1782.2 2028.3,1762.0 1985.8,1742.0 1943.3,1722.0 1900.7,1702.1 1858.0,1682.3 1815.2,1662.6 1772.4,1642.9 1729.4,1623.4 1686.4,1603.9 1643.4,1584.6 1600.3,1565.4 1557.1,1546.3 1513.9,1527.2 1470.6,1508.3 1427.3,1489.5 1383.9,1470.9 1340.5,1452.3 1297.0,1433.8 1253.6,1415.5 1210.1,1397.3 1166.5,1379.2 1123.0,1361.2 1079.5,1343.4 1035.9,1325.6 992.3,1308.0 948.8,1290.5 905.2,1273.1 861.7,1255.8 818.1,1238.7 774.6,1221.6 731.1,1204.7 687.7,1187.8 644.3,1171.1  " style="stroke-opacity: 1.000000; stroke-width: 5.0; stroke: rgb(251,106,74); fill: none"  />
<path d="M 814.4,891.4 L 841.9,915.3 869.9,938.6 898.3,961.2 926.8,982.7 955.5,1003.1 984.3,1022.2 1012.9,1039.9 1041.4,1056.0 1069.7,1070.4 1097.6,1083.1 1125.1,1093.8 1152.1,1102.6 1178.6,1109.3 1204.4,1114.0 1229.5,1116.4 1253.9,1116.7 1277.5,1114.7 1300.3,1110.5 1322.1,1104.0 1343.1,1095.2 1363.0,1084.2 1382.0,1071.0 1400.0,1055.6 1417.0,1038.1 1432.9,1018.4 1447.7,996.8 1461.5,973.3 1474.2,947.9 1485.9,920.7 1496.5,892.0 1506.1,861.7 1514.6,830.1 1522.2,797.3 1528.8,763.4 1534.4,728.7 1539.2,693.2 1543.0,657.2 1546.1,620.9 1548.4,584.5  " style="stroke-opacity: 1.000000; stroke-width: 5.0; stroke: rgb(251,106,74); fill: none"  />
<path d="M 934.1,778.8 L 956.6,806.9 979.5,834.6 1002.7,861.5 1026.2,887.5 1049.9,912.4 1073.6,936.1 1097.2,958.3 1120.8,978.9 1144.2,997.9 1167.3,1014.9 1190.2,1030.0 1212.6,1043.1 1234.7,1054.0 1256.2,1062.7 1277.2,1069.1 1297.5,1073.2 1317.3,1074.8 1336.3,1074.1 1354.7,1071.0 1372.3,1065.4 1389.1,1057.4 1405.1,1047.1 1420.3,1034.3 1434.6,1019.3 1448.1,1002.0 1460.7,982.5 1472.5,960.9 1483.3,937.4 1493.3,911.9 1502.4,884.6 1510.7,855.7 1518.1,825.2 1524.7,793.4 1530.5,760.4 1535.5,726.5 1539.8,691.7 1543.3,656.3 1546.2,620.5 1548.4,584.5  " style="stroke-opacity: 1.000000; stroke-width: 5.0; stroke: rgb(251,106,74); fill: none"  />
<path d="M 934.1,778.8 L 959.6,810.5 986.0,842.1 1013.3,873.2 1041.6,903.9 1070.7,933.9 1100.7,963.3 1131.5,992.0 1163.2,1019.8 1195.7,1046.7 1229.1,1072.6 1263.1,1097.4 1298.0,1121.2 1333.6,1143.7 1369.9,1165.1 1406.8,1185.1 1444.4,1203.9 1482.6,1221.4 1521.3,1237.4 1560.6,1252.1 1600.4,1265.4 1640.6,1277.3 1681.3,1287.7 1722.3,1296.7 1763.6,1304.2 1805.2,1310.3 1847.0,1315.1 1889.0,1318.4 1931.1,1320.3 1973.3,1320.9 2015.5,1320.2 2057.7,1318.3 2099.7,1315.1 2141.6,1310.7 2183.2,1305.2 2224.6,1298.6 2265.6,1291.1 2306.1,1282.6 2346.1,1273.2 2385.6,1263.1  " style="stroke-opacity: 1.000000; stroke-width: 5.0; stroke: rgb(251,106,74); fill: none"  />
<path d="M 2237.4,2044.7 L 2201.7,2018.1 2166.0,1990.9 2130.3,1963.3 2094.8,1935.1 2059.3,1906.5 2024.0,1877.3 1988.9,1847.6 1953.9,1817.4 1919.3,1786.7 1884.8,1755.6 1850.7,1723.9 1816.8,1691.7 1783.3,1659.1 1750.1,1625.9 1717.3,1592.4 1684.9,1558.3 1652.8,1523.8 1621.2,1488.9 1590.1,1453.6 1559.4,1417.9 1529.1,1381.8 1499.3,1345.3 1470.1,1308.5 1441.3,1271.3 1413.0,1233.9 1385.2,1196.1 1358.0,1158.0 1331.2,1119.7 1305.0,1081.2 1279.3,1042.5 1254.2,1003.6 1229.6,964.5 1205.5,925.4 1182.0,886.1 1158.9,846.7 1136.4,807.4 1114.4,768.0 1093.0,728.6 1072.0,689.3  " style="stroke-opacity: 1.000000; stroke-width: 5.0; stroke: rgb(251,106,74); fill: none"  />
<path d="M 2237.4,2044.7 L 2200.8,2017.6 2164.3,1990.1 2127.7,1962.3 2091.2,1934.2 2054.7,1905.7 2018.3,1876.9 1982.0,1847.8 1945.8,1818.4 1909.7,1788.7 1873.7,1758.6 1837.9,1728.2 1802.2,1697.5 1766.7,1666.5 1731.4,1635.2 1696.2,1603.6 1661.3,1571.7 1626.6,1539.6 1592.2,1507.1 1557.9,1474.4 1524.0,1441.3 1490.2,1408.1 1456.8,1374.6 1423.6,1340.8 1390.7,1306.9 1358.1,1272.7 1325.8,1238.3 1293.8,1203.7 1262.0,1168.9 1230.6,1134.0 1199.5,1098.9 1168.8,1063.7 1138.3,1028.3 1108.2,992.8 1078.4,957.3 1048.9,921.7 1019.7,886.0 990.8,850.3 962.3,814.5 934.1,778.8  " style="stroke-opacity: 1.000000; stroke-width: 5.0; stroke: rgb(251,106,74); fill: none"  />
</g>
<g id="track_0">
<path d="M 1548.4,584.5 L 1546.7,625.2 1545.8,666.4 1545.9,707.8 1547.0,749.4 1549.1,791.2 1552.4,833.1 1556.8,875.0 1562.3,916.8 1569.1,958.4 1577.2,999.9 1586.5,1041.0 1597.1,1081.8 1609.1,1122.2 1622.4,1162.1 1637.0,1201.6 1652.9,1240.4 1670.2,1278.7 1688.8,1316.3 1708.7,1353.2 1730.0,1389.4 1752.5,1424.8 1776.2,1459.4 1801.2,1493.1 1827.3,1526.0 1854.6,1558.0 1883.0,1589.0 1912.5,1619.2 1942.9,1648.4 1974.3,1676.6 2006.5,1703.8 2039.5,1730.1 2073.3,1755.3 2107.7,1779.6 2142.7,1802.8 2178.1,1825.1 2214.0,1846.3 2250.1,1866.6 2286.4,1885.9 2322.8,1904.3  " style="stroke-opacity: 1.000000; stroke-width: 5.0; stroke: rgb(107,174,214); fill: none"  />
<path d="M 1548.4,584.5 L 1546.6,626.1 1545.5,668.2 1545.4,710.6 1546.1,753.2 1547.7,796.1 1550.4,839.2 1554.0,882.3 1558.8,925.5 1564.6,968.7 1571.5,1011.7 1579.6,1054.7 1588.8,1097.5 1599.2,1140.0 1610.8,1182.2 1623.5,1224.2 1637.5,1265.7 1652.7,1306.8 1669.0,1347.5 1686.6,1387.7 1705.3,1427.4 1725.2,1466.5 1746.2,1505.0 1768.3,1542.8 1791.5,1580.0 1815.7,1616.5 1840.9,1652.3 1867.2,1687.4 1894.3,1721.7 1922.3,1755.3 1951.2,1788.0 1980.8,1819.9 2011.1,1851.0 2042.1,1881.3 2073.6,1910.7 2105.7,1939.2 2138.2,1966.9 2171.0,1993.7 2204.1,2019.6 2237.4,2044.7  " style="stroke-opacity: 1.000000; stroke-width: 5.0; stroke: rgb(107,174,214); fill: none"  />
<path d="M 1711.1,607.9 L 1703.1,643.0 1695.7,678.2 1689.2,713.1 1683.5,747.7 1678.7,781.7 1675.0,815.0 1672.4,847.4 1671.0,878.7 1670.8,908.7 1671.8,937.5 1674.3,964.8 1678.1,990.5 1683.3,1014.5 1689.9,1036.7 1698.0,1057.1 1707.5,1075.6 1718.5,1092.1 1730.9,1106.5 1744.8,1118.9 1760.1,1129.2 1776.8,1137.4 1794.9,1143.4 1814.4,1147.3 1835.1,1149.2 1857.0,1148.9 1880.1,1146.6 1904.3,1142.4 1929.5,1136.2 1955.7,1128.1 1982.7,1118.2 2010.5,1106.6 2038.9,1093.5 2067.8,1078.8 2097.2,1062.8 2126.9,1045.5 2156.8,1027.1 2186.7,1007.8 2216.4,987.7 2245.9,967.0  " style="stroke-opacity: 1.000000; stroke-width: 5.0; stroke: rgb(107,174,214); fill: none"  />
<path d="M 1867.0,659.9 L 1852.9,692.4 1839.3,724.9 1826.3,757.0 1813.8,788.7 1802.2,819.7 1791.4,849.8 1781.6,878.8 1772.8,906.7 1765.2,933.2 1758.7,958.2 1753.6,981.7 1749.7,1003.4 1747.2,1023.2 1746.2,1041.2 1746.6,1057.2 1748.4,1071.1 1751.7,1082.9 1756.6,1092.6 1762.9,1100.0 1770.7,1105.3 1780.0,1108.3 1790.8,1109.1 1803.0,1107.8 1816.6,1104.2 1831.5,1098.5 1847.7,1090.7 1865.2,1080.9 1883.8,1069.1 1903.6,1055.5 1924.3,1040.1 1946.0,1023.0 1968.4,1004.3 1991.6,984.2 2015.4,962.8 2039.7,940.3 2064.3,916.9 2089.1,892.6 2114.0,867.7 2138.8,842.4  " style="stroke-opacity: 1.000000; stroke-width: 5.0; stroke: rgb(107,174,214); fill: none"  />
<path d="M 1867.0,659.9 L 1852.9,692.7 1839.4,725.5 1826.5,758.1 1814.5,790.4 1803.4,822.2 1793.3,853.2 1784.3,883.3 1776.5,912.4 1770.1,940.4 1765.0,967.0 1761.3,992.2 1759.2,1015.9 1758.6,1038.0 1759.6,1058.4 1762.2,1077.0 1766.4,1093.7 1772.3,1108.5 1779.9,1121.3 1789.1,1132.2 1800.0,1141.0 1812.5,1147.8 1826.7,1152.5 1842.4,1155.2 1859.6,1155.9 1878.3,1154.6 1898.4,1151.4 1919.9,1146.2 1942.6,1139.2 1966.6,1130.4 1991.6,1119.9 2017.6,1107.8 2044.5,1094.2 2072.1,1079.2 2100.3,1062.9 2129.1,1045.4 2158.2,1026.9 2187.4,1007.6 2216.7,987.6 2245.9,967.0  " style="stroke-opacity: 1.000000; stroke-width: 5.0; stroke: rgb(107,174,214); fill: none"  />
<path d="M 1867.0,659.9 L 1852.8,693.0 1839.3,726.3 1826.6,759.5 1814.9,792.6 1804.1,825.2 1794.5,857.2 1786.2,888.6 1779.2,919.2 1773.6,948.7 1769.5,977.2 1767.0,1004.5 1766.2,1030.4 1767.0,1055.0 1769.6,1078.1 1773.9,1099.6 1779.9,1119.4 1787.8,1137.6 1797.5,1154.1 1808.9,1168.7 1822.2,1181.6 1837.1,1192.6 1853.9,1201.8 1872.3,1209.1 1892.3,1214.6 1913.9,1218.3 1937.1,1220.2 1961.6,1220.3 1987.6,1218.7 2014.7,1215.4 2043.1,1210.5 2072.5,1204.1 2102.8,1196.2 2133.9,1187.0 2165.7,1176.4 2198.0,1164.7 2230.7,1152.0 2263.5,1138.3 2296.4,1123.9 2329.1,1108.8  " style="stroke-opacity: 1.000000; stroke-width: 5.0; stroke: rgb(107,174,214); fill: none"  />
<path d="M 1867.0,659.9 L 1851.8,695.9 1837.3,732.5 1823.8,769.6 1811.4,807.2 1800.0,845.1 1789.9,883.3 1781.0,921.7 1773.6,960.2 1767.6,998.7 1763.1,1037.2 1760.2,1075.6 1759.0,1113.8 1759.4,1151.7 1761.5,1189.4 1765.3,1226.6 1771.0,1263.5 1778.3,1299.9 1787.5,1335.8 1798.4,1371.0 1811.1,1405.7 1825.6,1439.7 1841.7,1473.0 1859.6,1505.5 1879.1,1537.3 1900.3,1568.2 1923.0,1598.4 1947.2,1627.6 1972.8,1655.9 1999.8,1683.4 2028.1,1709.8 2057.5,1735.4 2088.1,1760.0 2119.6,1783.6 2152.0,1806.2 2185.2,1827.8 2219.0,1848.4 2253.3,1868.0 2287.9,1886.6 2322.8,1904.3  " style="stroke-opacity: 1.000000; stroke-width: 5.0; stroke: rgb(107,174,214); fill: none"  />
<path d="M 2011.1,738.9 L 1991.3,768.2 1971.6,797.1 1952.0,825.5 1932.7,853.1 1913.7,879.8 1895.2,905.4 1877.2,929.7 1860.0,952.5 1843.5,973.8 1827.9,993.3 1813.1,1011.0 1799.4,1026.7 1786.7,1040.4 1775.2,1052.0 1764.7,1061.3 1755.5,1068.4 1747.5,1073.2 1740.8,1075.6 1735.4,1075.7 1731.2,1073.5 1728.4,1068.8 1726.8,1061.8 1726.5,1052.5 1727.6,1040.9 1729.9,1027.1 1733.4,1011.2 1738.1,993.1 1744.0,973.1 1751.0,951.1 1759.0,927.5 1768.1,902.1 1778.1,875.3 1788.9,847.1 1800.6,817.8 1812.9,787.4 1825.8,756.2 1839.2,724.4 1852.9,692.3 1867.0,659.9  " style="stroke-opacity: 1.000000; stroke-width: 5.0; stroke: rgb(107,174,214); fill: none"  />
<path d="M 2011.1,738.9 L 1991.4,768.7 1972.2,798.6 1953.8,828.4 1936.1,858.0 1919.5,887.2 1904.1,915.9 1889.8,944.0 1877.0,971.3 1865.7,997.6 1855.9,1022.9 1847.8,1047.1 1841.5,1070.0 1836.9,1091.6 1834.2,1111.8 1833.5,1130.6 1834.7,1147.8 1837.8,1163.4 1843.0,1177.4 1850.2,1189.7 1859.3,1200.3 1870.4,1209.2 1883.5,1216.4 1898.4,1221.9 1915.3,1225.7 1933.9,1227.7 1954.3,1228.1 1976.3,1226.9 2000.0,1224.0 2025.1,1219.6 2051.5,1213.8 2079.3,1206.5 2108.2,1197.9 2138.0,1188.1 2168.7,1177.1 2200.1,1165.0 2232.1,1152.0 2264.3,1138.3 2296.7,1123.8 2329.1,1108.8  " style="stroke-opacity: 1.000000; stroke-width: 5.0; stroke: rgb(107,174,214); fill: none"  />
<path d="M 2138.8,842.4 L 2114.2,867.8 2090.0,893.1 2066.3,918.1 2043.3,942.8 2021.1,966.9 1999.9,990.3 1979.9,1012.8 1961.1,1034.5 1943.7,1055.0 1927.8,1074.3 1913.6,1092.4 1901.0,1109.1 1890.3,1124.3 1881.4,1138.0 1874.4,1150.2 1869.3,1160.7 1866.3,1169.5 1865.3,1176.5 1866.3,1181.9 1869.4,1185.5 1874.6,1187.3 1881.7,1187.4 1890.9,1185.7 1902.0,1182.3 1915.0,1177.2 1929.9,1170.5 1946.6,1162.1 1965.0,1152.2 1985.0,1140.8 2006.5,1128.0 2029.4,1113.9 2053.6,1098.6 2078.9,1082.1 2105.2,1064.7 2132.4,1046.4 2160.2,1027.3 2188.5,1007.6 2217.2,987.5 2245.9,967.0  " style="stroke-opacity: 1.000000; stroke-width: 5.0; stroke: rgb(107,174,214); fill: none"  />
<path d="M 2138.8,842.4 L 2114.2,867.9 2090.1,893.5 2066.5,919.0 2043.8,944.3 2022.0,969.2 2001.3,993.6 1981.9,1017.4 1963.9,1040.4 1947.4,1062.5 1932.6,1083.7 1919.5,1103.8 1908.3,1122.8 1899.0,1140.5 1891.7,1157.0 1886.4,1172.1 1883.3,1185.7 1882.3,1198.0 1883.4,1208.7 1886.7,1217.9 1892.2,1225.6 1899.8,1231.7 1909.6,1236.2 1921.5,1239.2 1935.5,1240.7 1951.5,1240.6 1969.4,1239.0 1989.2,1236.0 2010.8,1231.5 2034.0,1225.6 2058.9,1218.5 2085.1,1210.1 2112.7,1200.5 2141.5,1189.8 2171.3,1178.2 2201.9,1165.6 2233.2,1152.3 2264.9,1138.3 2297.0,1123.8 2329.1,1108.8  " style="stroke-opacity: 1.000000; stroke-width: 5.0; stroke: rgb(107,174,214); fill: none"  />
<path d="M 2138.8,842.4 L 2113.9,868.5 2089.6,894.9 2066.0,921.5 2043.4,948.3 2021.8,975.1 2001.6,1001.7 1982.7,1028.2 1965.4,1054.3 1949.8,1080.0 1936.0,1105.2 1924.1,1129.9 1914.2,1153.9 1906.3,1177.2 1900.6,1199.7 1897.1,1221.3 1895.8,1242.1 1896.8,1261.9 1900.1,1280.6 1905.6,1298.4 1913.5,1315.1 1923.7,1330.7 1936.1,1345.2 1950.7,1358.5 1967.6,1370.7 1986.5,1381.7 2007.5,1391.6 2030.5,1400.3 2055.3,1407.9 2081.9,1414.4 2110.2,1419.8 2140.0,1424.1 2171.1,1427.4 2203.5,1429.7 2237.0,1431.0 2271.3,1431.4 2306.3,1430.9 2341.9,1429.7 2377.8,1427.7 2413.7,1425.1  " style="stroke-opacity: 1.000000; stroke-width: 5.0; stroke: rgb(107,174,214); fill: none"  />
<path d="M 922.8,2212.2 L 945.0,2184.3 966.8,2156.3 987.9,2128.2 1008.1,2100.3 1027.2,2072.7 1045.2,2045.5 1061.9,2018.8 1077.1,1992.8 1090.8,1967.6 1102.8,1943.3 1113.0,1919.9 1121.4,1897.7 1127.8,1876.5 1132.3,1856.6 1134.7,1838.0 1135.1,1820.8 1133.3,1805.0 1129.5,1790.6 1123.4,1777.7 1115.3,1766.3 1105.0,1756.4 1092.7,1748.1 1078.3,1741.3 1061.8,1736.0 1043.4,1732.3 1023.2,1730.1 1001.1,1729.3 977.3,1730.0 951.9,1732.2 925.0,1735.6 896.7,1740.4 867.2,1746.4 836.6,1753.5 805.0,1761.7 772.7,1770.9 739.7,1780.9 706.3,1791.8 672.8,1803.3 639.2,1815.3  " style="stroke-opacity: 1.000000; stroke-width: 5.0; stroke: rgb(107,174,214); fill: none"  />
<path d="M 922.8,2212.2 L 946.1,2182.7 968.8,2152.5 990.6,2121.8 1011.5,2090.6 1031.2,2058.9 1049.7,2026.9 1066.8,1994.7 1082.4,1962.4 1096.4,1929.9 1108.6,1897.4 1119.1,1864.9 1127.8,1832.6 1134.5,1800.4 1139.2,1768.5 1141.8,1736.8 1142.4,1705.6 1140.9,1674.7 1137.3,1644.2 1131.6,1614.3 1123.7,1584.9 1113.8,1556.1 1101.7,1527.9 1087.6,1500.4 1071.4,1473.6 1053.3,1447.5 1033.3,1422.2 1011.4,1397.7 987.8,1373.9 962.5,1351.1 935.6,1329.0 907.3,1307.9 877.6,1287.6 846.8,1268.2 814.8,1249.8 781.9,1232.2 748.2,1215.5 713.9,1199.8 679.2,1185.0 644.3,1171.1  " style="stroke-opacity: 1.000000; stroke-width: 5.0; stroke: rgb(107,174,214); fill: none"  />
<path d="M 922.8,2212.2 L 947.5,2180.9 971.7,2148.8 995.3,2115.9 1018.1,2082.3 1039.9,2047.9 1060.8,2012.9 1080.7,1977.2 1099.3,1941.0 1116.7,1904.3 1132.8,1867.0 1147.5,1829.4 1160.8,1791.3 1172.6,1752.9 1182.8,1714.2 1191.4,1675.2 1198.4,1636.0 1203.7,1596.6 1207.4,1557.1 1209.4,1517.5 1209.8,1477.9 1208.4,1438.3 1205.3,1398.7 1200.6,1359.3 1194.2,1320.0 1186.2,1280.8 1176.6,1242.0 1165.5,1203.4 1152.8,1165.1 1138.7,1127.2 1123.2,1089.7 1106.4,1052.7 1088.3,1016.2 1069.0,980.2 1048.7,944.9 1027.3,910.2 1005.1,876.2 982.1,842.9 958.4,810.4 934.1,778.8  " style="stroke-opacity: 1.000000; stroke-width: 5.0; stroke: rgb(107,174,214); fill: none"  />
<path d="M 2245.9,967.0 L 2216.4,987.7 2186.7,1007.8 2156.8,1027.1 2126.9,1045.5 2097.2,1062.8 2067.8,1078.8 2038.9,1093.5 2010.5,1106.6 1982.7,1118.2 1955.7,1128.1 1929.5,1136.2 1904.3,1142.4 1880.1,1146.6 1857.0,1148.9 1835.1,1149.2 1814.4,1147.3 1794.9,1143.4 1776.8,1137.4 1760.1,1129.2 1744.8,1118.9 1730.9,1106.5 1718.5,1092.1 1707.5,1075.6 1698.0,1057.1 1689.9,1036.7 1683.3,1014.5 1678.1,990.5 1674.3,964.8 1671.8,937.5 1670.8,908.7 1671.0,878.7 1672.4,847.4 1675.0,815.0 1678.7,781.7 1683.5,747.7 1689.2,713.1 1695.7,678.2 1703.1,643.0 1711.1,607.9  " style="stroke-opacity: 1.000000; stroke-width: 5.0; stroke: rgb(107,174,214); fill: none"  />
<path d="M 2245.9,967.0 L 2216.7,987.6 2187.4,1007.6 2158.2,1026.9 2129.1,1045.4 2100.3,1062.9 2072.1,1079.2 2044.5,1094.2 2017.6,1107.8 1991.6,1119.9 1966.6,1130.4 1942.6,1139.2 1919.9,1146.2 1898.4,1151.4 1878.3,1154.6 1859.6,1155.9 1842.4,1155.2 1826.7,1152.5 1812.5,1147.8 1800.0,1141.0 1789.1,1132.2 1779.9,1121.3 1772.3,1108.5 1766.4,1093.7 1762.2,1077.0 1759.6,1058.4 1758.6,1038.0 1759.2,1015.9 1761.3,992.2 1765.0,967.0 1770.1,940.4 1776.5,912.4 1784.3,883.3 1793.3,853.2 1803.4,822.2 1814.5,790.4 1826.5,758.1 1839.4,725.5 1852.9,692.7 1867.0,659.9  " style="stroke-opacity: 1.000000; stroke-width: 5.0; stroke: rgb(107,174,214); fill: none"  />
<path d="M 2245.9,967.0 L 2217.2,987.5 2188.5,1007.6 2160.2,1027.3 2132.4,1046.4 2105.2,1064.7 2078.9,1082.1 2053.6,1098.6 2029.4,1113.9 2006.5,1128.0 1985.0,1140.8 1965.0,1152.2 1946.6,1162.1 1929.9,1170.5 1915.0,1177.2 1902.0,1182.3 1890.9,1185.7 1881.7,1187.4 1874.6,1187.3 1869.4,1185.5 1866.3,1181.9 1865.3,1176.5 1866.3,1169.5 1869.3,1160.7 1874.4,1150.2 1881.4,1138.0 1890.3,1124.3 1901.0,1109.1 1913.6,1092.4 1927.8,1074.3 1943.7,1055.0 1961.1,1034.5 1979.9,1012.8 1999.9,990.3 2021.1,966.9 2043.3,942.8 2066.3,918.1 2090.0,893.1 2114.2,867.8 2138.8,842.4  " style="stroke-opacity: 1.000000; stroke-width: 5.0; stroke: rgb(107,174,214); fill: none"  />
<path d="M 2245.9,967.0 L 2217.3,987.6 2188.9,1008.2 2161.1,1028.6 2134.1,1048.7 2107.9,1068.5 2082.9,1087.7 2059.1,1106.4 2036.8,1124.3 2016.0,1141.4 1997.0,1157.6 1979.7,1172.8 1964.4,1187.0 1951.1,1200.0 1939.9,1211.9 1930.8,1222.6 1924.0,1232.1 1919.4,1240.2 1917.2,1247.0 1917.3,1252.4 1919.7,1256.5 1924.4,1259.2 1931.4,1260.6 1940.7,1260.6 1952.3,1259.2 1966.0,1256.5 1981.9,1252.5 1999.8,1247.3 2019.6,1240.8 2041.3,1233.2 2064.8,1224.4 2089.8,1214.7 2116.4,1203.9 2144.2,1192.2 2173.2,1179.8 2203.2,1166.6 2234.0,1152.8 2265.4,1138.5 2297.2,1123.8 2329.1,1108.8  " style="stroke-opacity: 1.000000; stroke-width: 5.0; stroke: rgb(107,174,214); fill: none"  />
<path d="M 2245.9,967.0 L 2217.0,988.0 2188.6,1009.2 2160.8,1030.6 2133.9,1052.2 2108.1,1073.7 2083.5,1095.2 2060.3,1116.4 2038.8,1137.4 2018.9,1158.1 2000.8,1178.4 1984.8,1198.2 1970.8,1217.4 1958.9,1236.0 1949.3,1254.0 1942.0,1271.3 1937.1,1287.8 1934.6,1303.6 1934.5,1318.5 1936.9,1332.5 1941.7,1345.7 1948.9,1357.9 1958.6,1369.2 1970.7,1379.6 1985.2,1389.1 2001.9,1397.5 2020.8,1405.1 2041.9,1411.7 2065.0,1417.3 2090.1,1422.0 2116.9,1425.8 2145.5,1428.8 2175.5,1430.9 2207.0,1432.1 2239.6,1432.6 2273.2,1432.4 2307.6,1431.5 2342.7,1429.9 2378.1,1427.7 2413.7,1425.1  " style="stroke-opacity: 1.000000; stroke-width: 5.0; stroke: rgb(107,174,214); fill: none"  />
<path d="M 2245.9,967.0 L 2216.0,988.9 2186.7,1011.4 2158.0,1034.7 2130.2,1058.5 2103.4,1082.9 2077.8,1107.7 2053.6,1133.1 2030.9,1158.8 2009.8,1184.8 1990.5,1211.1 1973.0,1237.7 1957.4,1264.4 1943.9,1291.3 1932.5,1318.3 1923.3,1345.3 1916.3,1372.4 1911.5,1399.4 1909.1,1426.3 1908.9,1453.1 1911.1,1479.7 1915.6,1506.1 1922.4,1532.2 1931.5,1558.1 1942.8,1583.6 1956.3,1608.8 1972.0,1633.5 1989.7,1657.9 2009.4,1681.7 2031.0,1705.1 2054.3,1727.9 2079.4,1750.2 2106.0,1771.8 2134.0,1792.9 2163.3,1813.2 2193.7,1832.9 2225.0,1851.9 2257.1,1870.1 2289.8,1887.6 2322.8,1904.3  " style="stroke-opacity: 1.000000; stroke-width: 5.0; stroke: rgb(107,174,214); fill: none"  />
<path d="M 804.9,2097.7 L 831.8,2074.2 858.2,2050.5 883.9,2026.7 908.8,2002.8 932.6,1979.1 955.1,1955.5 976.3,1932.3 995.9,1909.4 1013.9,1887.0 1030.0,1865.2 1044.2,1844.1 1056.5,1823.7 1066.6,1804.0 1074.5,1785.3 1080.2,1767.4 1083.7,1750.5 1084.8,1734.6 1083.5,1719.7 1079.9,1706.0 1073.9,1693.3 1065.6,1681.7 1054.9,1671.3 1042.0,1662.1 1026.7,1654.0 1009.3,1647.0 989.8,1641.2 968.2,1636.6 944.6,1633.0 919.3,1630.6 892.2,1629.2 863.5,1628.8 833.4,1629.4 802.0,1631.0 769.4,1633.4 736.0,1636.6 701.8,1640.7 667.0,1645.4 631.9,1650.7 596.7,1656.5  " style="stroke-opacity: 1.000000; stroke-width: 5.0; stroke: rgb(107,174,214); fill: none"  />
<path d="M 804.9,2097.7 L 832.3,2073.6 859.1,2049.0 885.3,2024.0 910.4,1998.5 934.5,1972.8 957.3,1946.9 978.7,1920.9 998.5,1894.8 1016.6,1868.7 1032.8,1842.8 1047.2,1817.0 1059.5,1791.4 1069.7,1766.1 1077.8,1741.1 1083.6,1716.5 1087.1,1692.4 1088.3,1668.7 1087.2,1645.6 1083.7,1623.1 1077.8,1601.2 1069.6,1579.9 1059.1,1559.3 1046.2,1539.4 1031.1,1520.3 1013.8,1501.9 994.4,1484.3 972.9,1467.4 949.4,1451.4 924.1,1436.2 897.0,1421.8 868.3,1408.3 838.2,1395.6 806.7,1383.7 774.0,1372.6 740.3,1362.4 705.8,1352.9 670.6,1344.2 635.1,1336.3 599.3,1329.2  " style="stroke-opacity: 1.000000; stroke-width: 5.0; stroke: rgb(107,174,214); fill: none"  />
<path d="M 804.9,2097.7 L 832.7,2073.2 859.9,2048.1 886.4,2022.4 912.0,1996.2 936.4,1969.5 959.7,1942.5 981.5,1915.1 1001.8,1887.5 1020.5,1859.6 1037.4,1831.7 1052.5,1803.7 1065.5,1775.6 1076.6,1747.6 1085.5,1719.7 1092.3,1692.0 1096.8,1664.4 1099.1,1637.1 1099.2,1610.1 1096.9,1583.4 1092.3,1557.1 1085.5,1531.2 1076.4,1505.8 1065.0,1480.8 1051.5,1456.4 1035.8,1432.6 1017.9,1409.3 998.1,1386.7 976.4,1364.7 952.8,1343.3 927.5,1322.7 900.5,1302.8 872.1,1283.6 842.3,1265.1 811.3,1247.5 779.3,1230.6 746.4,1214.5 712.8,1199.2 678.7,1184.7 644.3,1171.1  " style="stroke-opacity: 1.000000; stroke-width: 5.0; stroke: rgb(107,174,214); fill: none"  />
<path d="M 804.9,2097.7 L 834.2,2071.9 863.0,2045.1 891.3,2017.5 918.9,1989.1 945.6,1959.9 971.3,1929.9 995.9,1899.1 1019.3,1867.7 1041.4,1835.6 1062.1,1802.8 1081.4,1769.5 1099.1,1735.6 1115.2,1701.3 1129.6,1666.4 1142.3,1631.2 1153.3,1595.5 1162.4,1559.5 1169.7,1523.2 1175.2,1486.7 1178.8,1450.0 1180.5,1413.1 1180.4,1376.1 1178.4,1339.0 1174.6,1301.9 1169.0,1264.8 1161.6,1227.9 1152.5,1191.0 1141.7,1154.4 1129.2,1117.9 1115.3,1081.8 1099.8,1046.0 1082.9,1010.6 1064.8,975.7 1045.4,941.3 1024.9,907.4 1003.4,874.1 981.0,841.6 957.9,809.8 934.1,778.8  " style="stroke-opacity: 1.000000; stroke-width: 5.0; stroke: rgb(107,174,214); fill: none"  />
<path d="M 2329.1,1108.8 L 2296.4,1123.9 2263.5,1138.3 2230.7,1152.0 2198.0,1164.7 2165.7,1176.4 2133.9,1187.0 2102.8,1196.2 2072.5,1204.1 2043.1,1210.5 2014.7,1215.4 1987.6,1218.7 1961.6,1220.3 1937.1,1220.2 1913.9,1218.3 1892.3,1214.6 1872.3,1209.1 1853.9,1201.8 1837.1,1192.6 1822.2,1181.6 1808.9,1168.7 1797.5,1154.1 1787.8,1137.6 1779.9,1119.4 1773.9,1099.6 1769.6,1078.1 1767.0,1055.0 1766.2,1030.4 1767.0,1004.5 1769.5,977.2 1773.6,948.7 1779.2,919.2 1786.2,888.6 1794.5,857.2 1804.1,825.2 1814.9,792.6 1826.6,759.5 1839.3,726.3 1852.8,693.0 1867.0,659.9  " style="stroke-opacity: 1.000000; stroke-width: 5.0; stroke: rgb(107,174,214); fill: none"  />
<path d="M 2329.1,1108.8 L 2297.2,1123.8 2265.4,1138.5 2234.0,1152.8 2203.2,1166.6 2173.2,1179.8 2144.2,1192.2 2116.4,1203.9 2089.8,1214.7 2064.8,1224.4 2041.3,1233.2 2019.6,1240.8 1999.8,1247.3 1981.9,1252.5 1966.0,1256.5 1952.3,1259.2 1940.7,1260.6 1931.4,1260.6 1924.4,1259.2 1919.7,1256.5 1917.3,1252.4 1917.2,1247.0 1919.4,1240.2 1924.0,1232.1 1930.8,1222.6 1939.9,1211.9 1951.1,1200.0 1964.4,1187.0 1979.7,1172.8 1997.0,1157.6 2016.0,1141.4 2036.8,1124.3 2059.1,1106.4 2082.9,1087.7 2107.9,1068.5 2134.1,1048.7 2161.1,1028.6 2188.9,1008.2 2217.3,987.6 2245.9,967.0  " style="stroke-opacity: 1.000000; stroke-width: 5.0; stroke: rgb(107,174,214); fill: none"  />
<path d="M 2329.1,1108.8 L 2297.1,1124.1 2265.5,1139.5 2234.5,1155.1 2204.3,1170.8 2175.2,1186.5 2147.3,1202.1 2120.7,1217.5 2095.8,1232.7 2072.6,1247.6 2051.3,1262.2 2032.0,1276.5 2014.8,1290.3 1999.9,1303.6 1987.2,1316.5 1977.0,1328.8 1969.3,1340.5 1964.0,1351.5 1961.3,1362.0 1961.2,1371.8 1963.6,1380.9 1968.6,1389.3 1976.2,1397.0 1986.3,1404.0 1998.8,1410.2 2013.8,1415.8 2031.2,1420.6 2050.8,1424.7 2072.5,1428.1 2096.4,1430.8 2122.1,1432.8 2149.7,1434.2 2178.9,1434.9 2209.6,1435.0 2241.5,1434.6 2274.6,1433.6 2308.6,1432.1 2343.3,1430.2 2378.4,1427.8 2413.7,1425.1  " style="stroke-opacity: 1.000000; stroke-width: 5.0; stroke: rgb(107,174,214); fill: none"  />
<path d="M 2329.1,1108.8 L 2296.3,1124.7 2263.8,1141.2 2232.0,1158.5 2200.9,1176.3 2170.9,1194.6 2142.0,1213.6 2114.5,1233.0 2088.5,1252.8 2064.1,1273.2 2041.5,1293.9 2020.8,1314.9 2002.1,1336.3 1985.6,1358.0 1971.1,1379.9 1959.0,1402.1 1949.2,1424.4 1941.7,1446.9 1936.7,1469.4 1934.1,1492.1 1933.9,1514.8 1936.1,1537.5 1940.8,1560.1 1947.9,1582.7 1957.4,1605.2 1969.2,1627.5 1983.2,1649.7 1999.5,1671.6 2017.8,1693.3 2038.2,1714.7 2060.5,1735.8 2084.5,1756.4 2110.2,1776.7 2137.4,1796.6 2166.0,1815.9 2195.7,1834.8 2226.5,1853.1 2258.0,1870.8 2290.2,1887.9 2322.8,1904.3  " style="stroke-opacity: 1.000000; stroke-width: 5.0; stroke: rgb(107,174,214); fill: none"  />
<path d="M 2329.1,1108.8 L 2295.8,1125.0 2262.9,1141.9 2230.5,1159.6 2198.9,1178.1 2168.2,1197.3 2138.6,1217.2 2110.2,1237.8 2083.3,1259.0 2057.9,1280.9 2034.2,1303.3 2012.2,1326.4 1992.1,1349.9 1974.0,1373.9 1958.0,1398.5 1944.1,1423.4 1932.4,1448.8 1922.9,1474.5 1915.7,1500.5 1910.8,1526.8 1908.2,1553.4 1907.9,1580.2 1909.9,1607.1 1914.2,1634.2 1920.8,1661.3 1929.6,1688.5 1940.6,1715.7 1953.6,1742.8 1968.7,1769.8 1985.8,1796.6 2004.7,1823.2 2025.4,1849.6 2047.7,1875.7 2071.5,1901.4 2096.7,1926.6 2123.1,1951.4 2150.5,1975.7 2178.8,1999.4 2207.9,2022.4 2237.4,2044.7  " style="stroke-opacity: 1.000000; stroke-width: 5.0; stroke: rgb(107,174,214); fill: none"  />
<path d="M 709.3,1964.0 L 739.8,1946.2 770.1,1928.7 800.1,1911.6 829.5,1895.1 858.2,1879.3 886.0,1864.3 912.7,1850.2 938.1,1837.1 962.2,1825.1 984.8,1814.3 1005.7,1804.7 1024.9,1796.5 1042.3,1789.7 1057.7,1784.3 1071.1,1780.4 1082.5,1778.0 1091.8,1777.1 1098.9,1777.8 1103.9,1780.1 1106.6,1784.0 1107.2,1789.4 1105.5,1796.4 1101.7,1804.9 1095.8,1814.9 1087.7,1826.3 1077.6,1839.2 1065.5,1853.4 1051.5,1868.9 1035.7,1885.6 1018.2,1903.4 999.0,1922.3 978.4,1942.2 956.4,1962.9 933.2,1984.3 908.9,2006.3 883.8,2028.8 857.9,2051.6 831.6,2074.6 804.9,2097.7  " style="stroke-opacity: 1.000000; stroke-width: 5.0; stroke: rgb(107,174,214); fill: none"  />
<path d="M 709.3,1964.0 L 739.8,1945.9 769.9,1927.6 799.4,1909.3 828.0,1891.0 855.6,1872.8 882.1,1854.8 907.1,1837.0 930.6,1819.6 952.3,1802.7 972.2,1786.2 990.2,1770.3 1006.1,1755.0 1019.7,1740.4 1031.2,1726.5 1040.2,1713.3 1046.9,1701.0 1051.2,1689.5 1052.9,1678.8 1052.2,1669.0 1049.0,1660.2 1043.2,1652.3 1035.0,1645.3 1024.3,1639.2 1011.2,1634.1 995.8,1629.9 978.1,1626.7 958.2,1624.4 936.2,1623.0 912.2,1622.4 886.4,1622.7 858.8,1623.8 829.7,1625.7 799.1,1628.3 767.3,1631.6 734.5,1635.6 700.7,1640.1 666.4,1645.2 631.6,1650.7 596.7,1656.5  " style="stroke-opacity: 1.000000; stroke-width: 5.0; stroke: rgb(107,174,214); fill: none"  />
<path d="M 2385.6,1263.1 L 2349.2,1272.4 2312.4,1280.8 2275.4,1288.2 2238.4,1294.6 2201.4,1299.7 2164.7,1303.5 2128.3,1306.0 2092.4,1307.1 2057.1,1306.6 2022.4,1304.6 1988.5,1300.9 1955.4,1295.6 1923.3,1288.6 1892.2,1279.9 1862.3,1269.5 1833.4,1257.3 1805.8,1243.3 1779.5,1227.6 1754.5,1210.1 1730.9,1191.0 1708.6,1170.1 1687.8,1147.6 1668.5,1123.5 1650.5,1097.9 1634.1,1070.7 1619.2,1042.1 1605.7,1012.1 1593.6,980.9 1583.0,948.5 1573.9,915.0 1566.1,880.5 1559.7,845.1 1554.6,809.0 1550.7,772.3 1548.1,735.1 1546.6,697.6 1546.2,659.8 1546.8,622.1 1548.4,584.5  " style="stroke-opacity: 1.000000; stroke-width: 5.0; stroke: rgb(107,174,214); fill: none"  />
<path d="M 2385.6,1263.1 L 2351.4,1272.4 2317.6,1282.0 2284.3,1291.8 2251.8,1301.9 2220.3,1312.1 2190.0,1322.4 2161.2,1332.9 2134.0,1343.4 2108.5,1353.9 2084.9,1364.5 2063.3,1375.1 2044.0,1385.6 2026.9,1396.0 2012.2,1406.4 1999.9,1416.7 1990.2,1426.8 1983.1,1436.8 1978.5,1446.6 1976.6,1456.2 1977.4,1465.6 1980.8,1474.7 1986.9,1483.7 1995.6,1492.3 2006.8,1500.7 2020.6,1508.9 2036.8,1516.7 2055.4,1524.2 2076.2,1531.5 2099.1,1538.4 2124.1,1545.0 2151.0,1551.2 2179.6,1557.2 2209.8,1562.8 2241.3,1568.0 2274.0,1573.0 2307.7,1577.6 2342.2,1581.8 2377.1,1585.8 2412.4,1589.4  " style="stroke-opacity: 1.000000; stroke-width: 5.0; stroke: rgb(107,174,214); fill: none"  />
<path d="M 2385.6,1263.1 L 2350.9,1272.7 2316.5,1282.9 2282.6,1293.7 2249.4,1305.1 2217.2,1317.0 2186.1,1329.5 2156.4,1342.5 2128.2,1356.1 2101.6,1370.2 2076.8,1384.8 2053.9,1399.8 2033.1,1415.3 2014.4,1431.3 1997.9,1447.7 1983.8,1464.4 1972.1,1481.6 1962.8,1499.1 1955.9,1516.9 1951.6,1535.0 1949.8,1553.3 1950.5,1571.9 1953.8,1590.7 1959.5,1609.7 1967.7,1628.8 1978.3,1648.0 1991.3,1667.3 2006.5,1686.5 2023.9,1705.8 2043.4,1725.0 2064.9,1744.1 2088.3,1763.1 2113.4,1781.9 2140.0,1800.4 2168.0,1818.7 2197.3,1836.7 2227.6,1854.3 2258.8,1871.4 2290.6,1888.1 2322.8,1904.3  " style="stroke-opacity: 1.000000; stroke-width: 5.0; stroke: rgb(107,174,214); fill: none"  />
<path d="M 639.2,1815.3 L 672.8,1803.3 706.3,1791.8 739.7,1780.9 772.7,1770.9 805.0,1761.7 836.6,1753.5 867.2,1746.4 896.7,1740.4 925.0,1735.6 951.9,1732.2 977.3,1730.0 1001.1,1729.3 1023.2,1730.1 1043.4,1732.3 1061.8,1736.0 1078.3,1741.3 1092.7,1748.1 1105.0,1756.4 1115.3,1766.3 1123.4,1777.7 1129.5,1790.6 1133.3,1805.0 1135.1,1820.8 1134.7,1838.0 1132.3,1856.6 1127.8,1876.5 1121.4,1897.7 1113.0,1919.9 1102.8,1943.3 1090.8,1967.6 1077.1,1992.8 1061.9,2018.8 1045.2,2045.5 1027.2,2072.7 1008.1,2100.3 987.9,2128.2 966.8,2156.3 945.0,2184.3 922.8,2212.2  " style="stroke-opacity: 1.000000; stroke-width: 5.0; stroke: rgb(107,174,214); fill: none"  />
<path d="M 2413.7,1425.1 L 2376.8,1427.7 2339.8,1429.4 2302.9,1430.2 2266.2,1430.0 2230.1,1428.7 2194.5,1426.2 2159.6,1422.5 2125.7,1417.6 2092.8,1411.3 2061.0,1403.7 2030.5,1394.8 2001.3,1384.4 1973.7,1372.6 1947.5,1359.3 1923.0,1344.7 1900.2,1328.5 1879.2,1311.0 1859.9,1292.0 1842.5,1271.7 1827.0,1250.0 1813.4,1226.9 1801.7,1202.5 1791.9,1176.9 1784.0,1150.1 1778.1,1122.2 1774.0,1093.2 1771.9,1063.2 1771.5,1032.2 1772.9,1000.5 1776.0,967.9 1780.7,934.8 1787.0,901.1 1794.8,866.9 1804.0,832.4 1814.5,797.8 1826.2,763.1 1838.9,728.4 1852.5,694.0 1867.0,659.9  " style="stroke-opacity: 1.000000; stroke-width: 5.0; stroke: rgb(107,174,214); fill: none"  />
<path d="M 2413.7,1425.1 L 2377.8,1427.7 2341.9,1429.7 2306.3,1430.9 2271.3,1431.4 2237.0,1431.0 2203.5,1429.7 2171.1,1427.4 2140.0,1424.1 2110.2,1419.8 2081.9,1414.4 2055.3,1407.9 2030.5,1400.3 2007.5,1391.6 1986.5,1381.7 1967.6,1370.7 1950.7,1358.5 1936.1,1345.2 1923.7,1330.7 1913.5,1315.1 1905.6,1298.4 1900.1,1280.6 1896.8,1261.9 1895.8,1242.1 1897.1,1221.3 1900.6,1199.7 1906.3,1177.2 1914.2,1153.9 1924.1,1129.9 1936.0,1105.2 1949.8,1080.0 1965.4,1054.3 1982.7,1028.2 2001.6,1001.7 2021.8,975.1 2043.4,948.3 2066.0,921.5 2089.6,894.9 2113.9,868.5 2138.8,842.4  " style="stroke-opacity: 1.000000; stroke-width: 5.0; stroke: rgb(107,174,214); fill: none"  />
<path d="M 2413.7,1425.1 L 2378.1,1427.7 2342.7,1429.9 2307.6,1431.5 2273.2,1432.4 2239.6,1432.6 2207.0,1432.1 2175.5,1430.9 2145.5,1428.8 2116.9,1425.8 2090.1,1422.0 2065.0,1417.3 2041.9,1411.7 2020.8,1405.1 2001.9,1397.5 1985.2,1389.1 1970.7,1379.6 1958.6,1369.2 1948.9,1357.9 1941.7,1345.7 1936.9,1332.5 1934.5,1318.5 1934.6,1303.6 1937.1,1287.8 1942.0,1271.3 1949.3,1254.0 1958.9,1236.0 1970.8,1217.4 1984.8,1198.2 2000.8,1178.4 2018.9,1158.1 2038.8,1137.4 2060.3,1116.4 2083.5,1095.2 2108.1,1073.7 2133.9,1052.2 2160.8,1030.6 2188.6,1009.2 2217.0,988.0 2245.9,967.0  " style="stroke-opacity: 1.000000; stroke-width: 5.0; stroke: rgb(107,174,214); fill: none"  />
<path d="M 2413.7,1425.1 L 2378.4,1427.8 2343.3,1430.2 2308.6,1432.1 2274.6,1433.6 2241.5,1434.6 2209.6,1435.0 2178.9,1434.9 2149.7,1434.2 2122.1,1432.8 2096.4,1430.8 2072.5,1428.1 2050.8,1424.7 2031.2,1420.6 2013.8,1415.8 1998.8,1410.2 1986.3,1404.0 1976.2,1397.0 1968.6,1389.3 1963.6,1380.9 1961.2,1371.8 1961.3,1362.0 1964.0,1351.5 1969.3,1340.5 1977.0,1328.8 1987.2,1316.5 1999.9,1303.6 2014.8,1290.3 2032.0,1276.5 2051.3,1262.2 2072.6,1247.6 2095.8,1232.7 2120.7,1217.5 2147.3,1202.1 2175.2,1186.5 2204.3,1170.8 2234.5,1155.1 2265.5,1139.5 2297.1,1124.1 2329.1,1108.8  " style="stroke-opacity: 1.000000; stroke-width: 5.0; stroke: rgb(107,174,214); fill: none"  />
<path d="M 2413.7,1425.1 L 2378.1,1428.2 2342.8,1431.9 2308.0,1436.0 2273.9,1440.7 2240.7,1445.9 2208.6,1451.8 2177.8,1458.1 2148.5,1465.1 2120.8,1472.6 2094.9,1480.8 2071.0,1489.5 2049.1,1498.9 2029.3,1508.8 2011.9,1519.3 1996.8,1530.4 1984.1,1542.1 1973.8,1554.3 1966.1,1567.0 1960.9,1580.3 1958.3,1594.1 1958.3,1608.3 1960.8,1623.0 1965.8,1638.1 1973.4,1653.6 1983.4,1669.5 1995.8,1685.6 2010.5,1702.1 2027.5,1718.8 2046.6,1735.7 2067.7,1752.8 2090.6,1769.9 2115.4,1787.1 2141.7,1804.3 2169.4,1821.5 2198.4,1838.5 2228.5,1855.4 2259.4,1872.0 2290.9,1888.3 2322.8,1904.3  " style="stroke-opacity: 1.000000; stroke-width: 5.0; stroke: rgb(107,174,214); fill: none"  />
<path d="M 596.7,1656.5 L 631.9,1650.7 667.0,1645.4 701.8,1640.7 736.0,1636.6 769.4,1633.4 802.0,1631.0 833.4,1629.4 863.5,1628.8 892.2,1629.2 919.3,1630.6 944.6,1633.0 968.2,1636.6 989.8,1641.2 1009.3,1647.0 1026.7,1654.0 1042.0,1662.1 1054.9,1671.3 1065.6,1681.7 1073.9,1693.3 1079.9,1706.0 1083.5,1719.7 1084.8,1734.6 1083.7,1750.5 1080.2,1767.4 1074.5,1785.3 1066.6,1804.0 1056.5,1823.7 1044.2,1844.1 1030.0,1865.2 1013.9,1887.0 995.9,1909.4 976.3,1932.3 955.1,1955.5 932.6,1979.1 908.8,2002.8 883.9,2026.7 858.2,2050.5 831.8,2074.2 804.9,2097.7  " style="stroke-opacity: 1.000000; stroke-width: 5.0; stroke: rgb(107,174,214); fill: none"  />
<path d="M 596.7,1656.5 L 631.6,1650.7 666.4,1645.2 700.7,1640.1 734.5,1635.6 767.3,1631.6 799.1,1628.3 829.7,1625.7 858.8,1623.8 886.4,1622.7 912.2,1622.4 936.2,1623.0 958.2,1624.4 978.1,1626.7 995.8,1629.9 1011.2,1634.1 1024.3,1639.2 1035.0,1645.3 1043.2,1652.3 1049.0,1660.2 1052.2,1669.0 1052.9,1678.8 1051.2,1689.5 1046.9,1701.0 1040.2,1713.3 1031.2,1726.5 1019.7,1740.4 1006.1,1755.0 990.2,1770.3 972.2,1786.2 952.3,1802.7 930.6,1819.6 907.1,1837.0 882.1,1854.8 855.6,1872.8 828.0,1891.0 799.4,1909.3 769.9,1927.6 739.8,1945.9 709.3,1964.0  " style="stroke-opacity: 1.000000; stroke-width: 5.0; stroke: rgb(107,174,214); fill: none"  />
<path d="M 596.7,1656.5 L 631.4,1650.4 665.9,1644.2 699.8,1637.9 732.9,1631.5 765.0,1625.0 795.9,1618.5 825.4,1612.1 853.3,1605.6 879.5,1599.2 903.7,1592.9 925.8,1586.7 945.8,1580.5 963.5,1574.5 978.7,1568.7 991.5,1563.0 1001.7,1557.5 1009.4,1552.1 1014.3,1547.0 1016.6,1542.0 1016.3,1537.3 1013.2,1532.8 1007.4,1528.5 999.0,1524.5 988.0,1520.7 974.5,1517.2 958.5,1513.9 940.1,1510.9 919.4,1508.1 896.5,1505.5 871.6,1503.2 844.8,1501.2 816.2,1499.4 786.0,1497.8 754.5,1496.4 721.8,1495.3 688.0,1494.4 653.5,1493.6 618.5,1493.1 583.3,1492.7  " style="stroke-opacity: 1.000000; stroke-width: 5.0; stroke: rgb(107,174,214); fill: none"  />
<path d="M 2412.4,1589.4 L 2377.1,1585.8 2342.2,1581.8 2307.7,1577.6 2274.0,1573.0 2241.3,1568.0 2209.8,1562.8 2179.6,1557.2 2151.0,1551.2 2124.1,1545.0 2099.1,1538.4 2076.2,1531.5 2055.4,1524.2 2036.8,1516.7 2020.6,1508.9 2006.8,1500.7 1995.6,1492.3 1986.9,1483.7 1980.8,1474.7 1977.4,1465.6 1976.6,1456.2 1978.5,1446.6 1983.1,1436.8 1990.2,1426.8 1999.9,1416.7 2012.2,1406.4 2026.9,1396.0 2044.0,1385.6 2063.3,1375.1 2084.9,1364.5 2108.5,1353.9 2134.0,1343.4 2161.2,1332.9 2190.0,1322.4 2220.3,1312.1 2251.8,1301.9 2284.3,1291.8 2317.6,1282.0 2351.4,1272.4 2385.6,1263.1  " style="stroke-opacity: 1.000000; stroke-width: 5.0; stroke: rgb(107,174,214); fill: none"  />
<path d="M 2412.4,1589.4 L 2377.1,1586.1 2342.0,1583.2 2307.4,1580.7 2273.5,1578.7 2240.4,1577.2 2208.4,1576.2 2177.8,1575.8 2148.6,1576.1 2121.0,1577.0 2095.2,1578.7 2071.3,1581.0 2049.5,1584.0 2029.8,1587.8 2012.4,1592.4 1997.3,1597.7 1984.7,1603.7 1974.5,1610.5 1966.8,1618.1 1961.6,1626.4 1959.1,1635.5 1959.1,1645.3 1961.6,1655.8 1966.7,1667.0 1974.3,1678.8 1984.3,1691.2 1996.7,1704.3 2011.4,1717.8 2028.4,1731.9 2047.5,1746.5 2068.5,1761.4 2091.5,1776.7 2116.2,1792.3 2142.5,1808.2 2170.1,1824.2 2199.0,1840.3 2229.0,1856.4 2259.7,1872.5 2291.1,1888.5 2322.8,1904.3  " style="stroke-opacity: 1.000000; stroke-width: 5.0; stroke: rgb(107,174,214); fill: none"  />
<path d="M 2412.4,1589.4 L 2376.9,1586.2 2341.5,1583.4 2306.5,1581.3 2272.0,1579.8 2238.4,1579.1 2205.8,1579.0 2174.3,1579.8 2144.3,1581.4 2115.7,1583.9 2088.8,1587.3 2063.7,1591.6 2040.5,1596.9 2019.3,1603.2 2000.2,1610.4 1983.4,1618.6 1968.8,1627.8 1956.5,1638.0 1946.6,1649.2 1939.2,1661.3 1934.1,1674.4 1931.6,1688.4 1931.4,1703.3 1933.7,1719.1 1938.4,1735.7 1945.4,1753.1 1954.7,1771.2 1966.2,1790.0 1979.9,1809.5 1995.7,1829.5 2013.4,1850.1 2032.9,1871.0 2054.2,1892.4 2077.0,1914.0 2101.3,1935.9 2126.8,1957.8 2153.3,1979.8 2180.7,2001.6 2208.8,2023.3 2237.4,2044.7  " style="stroke-opacity: 1.000000; stroke-width: 5.0; stroke: rgb(107,174,214); fill: none"  />
<path d="M 583.3,1492.7 L 619.3,1493.3 655.2,1494.6 690.7,1496.5 725.7,1499.2 759.8,1502.7 793.0,1507.0 825.1,1512.2 855.8,1518.2 885.1,1525.2 912.7,1533.1 938.7,1541.9 962.7,1551.7 984.8,1562.5 1004.8,1574.2 1022.7,1586.9 1038.4,1600.5 1051.8,1615.1 1062.9,1630.7 1071.6,1647.1 1077.9,1664.4 1081.9,1682.6 1083.5,1701.6 1082.7,1721.4 1079.5,1742.0 1074.1,1763.2 1066.4,1785.1 1056.4,1807.6 1044.4,1830.6 1030.3,1854.1 1014.3,1878.0 996.5,1902.2 976.9,1926.7 955.8,1951.3 933.2,1976.0 909.4,2000.8 884.4,2025.4 858.6,2049.8 832.0,2074.0 804.9,2097.7  " style="stroke-opacity: 1.000000; stroke-width: 5.0; stroke: rgb(107,174,214); fill: none"  />
<path d="M 599.3,1329.2 L 635.1,1336.3 670.6,1344.2 705.8,1352.9 740.3,1362.4 774.0,1372.6 806.7,1383.7 838.2,1395.6 868.3,1408.3 897.0,1421.8 924.1,1436.2 949.4,1451.4 972.9,1467.4 994.4,1484.3 1013.8,1501.9 1031.1,1520.3 1046.2,1539.4 1059.1,1559.3 1069.6,1579.9 1077.8,1601.2 1083.7,1623.1 1087.2,1645.6 1088.3,1668.7 1087.1,1692.4 1083.6,1716.5 1077.8,1741.1 1069.7,1766.1 1059.5,1791.4 1047.2,1817.0 1032.8,1842.8 1016.6,1868.7 998.5,1894.8 978.7,1920.9 957.3,1946.9 934.5,1972.8 910.4,1998.5 885.3,2024.0 859.1,2049.0 832.3,2073.6 804.9,2097.7  " style="stroke-opacity: 1.000000; stroke-width: 5.0; stroke: rgb(107,174,214); fill: none"  />
<path d="M 644.3,1171.1 L 679.2,1185.0 713.9,1199.8 748.2,1215.5 781.9,1232.2 814.8,1249.8 846.8,1268.2 877.6,1287.6 907.3,1307.9 935.6,1329.0 962.5,1351.1 987.8,1373.9 1011.4,1397.7 1033.3,1422.2 1053.3,1447.5 1071.4,1473.6 1087.6,1500.4 1101.7,1527.9 1113.8,1556.1 1123.7,1584.9 1131.6,1614.3 1137.3,1644.2 1140.9,1674.7 1142.4,1705.6 1141.8,1736.8 1139.2,1768.5 1134.5,1800.4 1127.8,1832.6 1119.1,1864.9 1108.6,1897.4 1096.4,1929.9 1082.4,1962.4 1066.8,1994.7 1049.7,2026.9 1031.2,2058.9 1011.5,2090.6 990.6,2121.8 968.8,2152.5 946.1,2182.7 922.8,2212.2  " style="stroke-opacity: 1.000000; stroke-width: 5.0; stroke: rgb(107,174,214); fill: none"  />
<path d="M 644.3,1171.1 L 678.7,1184.7 712.8,1199.2 746.4,1214.5 779.3,1230.6 811.3,1247.5 842.3,1265.1 872.1,1283.6 900.5,1302.8 927.5,1322.7 952.8,1343.3 976.4,1364.7 998.1,1386.7 1017.9,1409.3 1035.8,1432.6 1051.5,1456.4 1065.0,1480.8 1076.4,1505.8 1085.5,1531.2 1092.3,1557.1 1096.9,1583.4 1099.2,1610.1 1099.1,1637.1 1096.8,1664.4 1092.3,1692.0 1085.5,1719.7 1076.6,1747.6 1065.5,1775.6 1052.5,1803.7 1037.4,1831.7 1020.5,1859.6 1001.8,1887.5 981.5,1915.1 959.7,1942.5 936.4,1969.5 912.0,1996.2 886.4,2022.4 859.9,2048.1 832.7,2073.2 804.9,2097.7  " style="stroke-opacity: 1.000000; stroke-width: 5.0; stroke: rgb(107,174,214); fill: none"  />
<path d="M 2381.8,1750.9 L 2347.2,1740.7 2312.9,1730.0 2279.2,1718.7 2246.2,1706.8 2214.2,1694.3 2183.4,1681.3 2153.8,1667.8 2125.8,1653.8 2099.4,1639.3 2074.9,1624.4 2052.3,1608.9 2031.7,1593.1 2013.2,1576.8 1997.1,1560.2 1983.2,1543.2 1971.7,1525.9 1962.7,1508.3 1956.1,1490.3 1952.1,1472.2 1950.6,1453.8 1951.6,1435.2 1955.2,1416.5 1961.2,1397.6 1969.7,1378.6 1980.6,1359.6 1993.9,1340.6 2009.4,1321.5 2027.1,1302.5 2046.9,1283.6 2068.7,1264.9 2092.4,1246.3 2117.7,1227.9 2144.7,1209.7 2173.0,1191.9 2202.6,1174.4 2233.2,1157.3 2264.6,1140.6 2296.6,1124.4 2329.1,1108.8  " style="stroke-opacity: 1.000000; stroke-width: 5.0; stroke: rgb(107,174,214); fill: none"  />
<path d="M 2381.8,1750.9 L 2347.8,1741.3 2314.1,1732.0 2280.8,1723.0 2248.1,1714.4 2216.4,1706.3 2185.8,1698.7 2156.4,1691.7 2128.4,1685.4 2102.1,1679.8 2077.6,1675.0 2054.9,1671.0 2034.3,1667.9 2015.8,1665.6 1999.5,1664.3 1985.5,1663.9 1973.8,1664.4 1964.7,1665.9 1957.9,1668.4 1953.7,1671.9 1952.0,1676.3 1952.8,1681.7 1956.2,1688.0 1962.0,1695.3 1970.3,1703.5 1980.9,1712.5 1993.9,1722.4 2009.2,1733.2 2026.6,1744.7 2046.1,1756.9 2067.6,1769.8 2090.9,1783.2 2115.8,1797.3 2142.3,1811.8 2170.1,1826.7 2199.1,1841.9 2229.1,1857.4 2259.9,1873.0 2291.2,1888.7 2322.8,1904.3  " style="stroke-opacity: 1.000000; stroke-width: 5.0; stroke: rgb(107,174,214); fill: none"  />
<path d="M 2322.8,1904.3 L 2286.4,1885.9 2250.1,1866.6 2214.0,1846.3 2178.1,1825.1 2142.7,1802.8 2107.7,1779.6 2073.3,1755.3 2039.5,1730.1 2006.5,1703.8 1974.3,1676.6 1942.9,1648.4 1912.5,1619.2 1883.0,1589.0 1854.6,1558.0 1827.3,1526.0 1801.2,1493.1 1776.2,1459.4 1752.5,1424.8 1730.0,1389.4 1708.7,1353.2 1688.8,1316.3 1670.2,1278.7 1652.9,1240.4 1637.0,1201.6 1622.4,1162.1 1609.1,1122.2 1597.1,1081.8 1586.5,1041.0 1577.2,999.9 1569.1,958.4 1562.3,916.8 1556.8,875.0 1552.4,833.1 1549.1,791.2 1547.0,749.4 1545.9,707.8 1545.8,666.4 1546.7,625.2 1548.4,584.5  " style="stroke-opacity: 1.000000; stroke-width: 5.0; stroke: rgb(107,174,214); fill: none"  />
<path d="M 2322.8,1904.3 L 2287.9,1886.6 2253.3,1868.0 2219.0,1848.4 2185.2,1827.8 2152.0,1806.2 2119.6,1783.6 2088.1,1760.0 2057.5,1735.4 2028.1,1709.8 1999.8,1683.4 1972.8,1655.9 1947.2,1627.6 1923.0,1598.4 1900.3,1568.2 1879.1,1537.3 1859.6,1505.5 1841.7,1473.0 1825.6,1439.7 1811.1,1405.7 1798.4,1371.0 1787.5,1335.8 1778.3,1299.9 1771.0,1263.5 1765.3,1226.6 1761.5,1189.4 1759.4,1151.7 1759.0,1113.8 1760.2,1075.6 1763.1,1037.2 1767.6,998.7 1773.6,960.2 1781.0,921.7 1789.9,883.3 1800.0,845.1 1811.4,807.2 1823.8,769.6 1837.3,732.5 1851.8,695.9 1867.0,659.9  " style="stroke-opacity: 1.000000; stroke-width: 5.0; stroke: rgb(107,174,214); fill: none"  />
<path d="M 2322.8,1904.3 L 2290.2,1887.9 2258.0,1870.8 2226.5,1853.1 2195.7,1834.8 2166.0,1815.9 2137.4,1796.6 2110.2,1776.7 2084.5,1756.4 2060.5,1735.8 2038.2,1714.7 2017.8,1693.3 1999.5,1671.6 1983.2,1649.7 1969.2,1627.5 1957.4,1605.2 1947.9,1582.7 1940.8,1560.1 1936.1,1537.5 1933.9,1514.8 1934.1,1492.1 1936.7,1469.4 1941.7,1446.9 1949.2,1424.4 1959.0,1402.1 1971.1,1379.9 1985.6,1358.0 2002.1,1336.3 2020.8,1314.9 2041.5,1293.9 2064.1,1273.2 2088.5,1252.8 2114.5,1233.0 2142.0,1213.6 2170.9,1194.6 2200.9,1176.3 2232.0,1158.5 2263.8,1141.2 2296.3,1124.7 2329.1,1108.8  " style="stroke-opacity: 1.000000; stroke-width: 5.0; stroke: rgb(107,174,214); fill: none"  />
<path d="M 2322.8,1904.3 L 2291.2,1888.7 2259.9,1873.0 2229.1,1857.4 2199.1,1841.9 2170.1,1826.7 2142.3,1811.8 2115.8,1797.3 2090.9,1783.2 2067.6,1769.8 2046.1,1756.9 2026.6,1744.7 2009.2,1733.2 1993.9,1722.4 1980.9,1712.5 1970.3,1703.5 1962.0,1695.3 1956.2,1688.0 1952.8,1681.7 1952.0,1676.3 1953.7,1671.9 1957.9,1668.4 1964.7,1665.9 1973.8,1664.4 1985.5,1663.9 1999.5,1664.3 2015.8,1665.6 2034.3,1667.9 2054.9,1671.0 2077.6,1675.0 2102.1,1679.8 2128.4,1685.4 2156.4,1691.7 2185.8,1698.7 2216.4,1706.3 2248.1,1714.4 2280.8,1723.0 2314.1,1732.0 2347.8,1741.3 2381.8,1750.9  " style="stroke-opacity: 1.000000; stroke-width: 5.0; stroke: rgb(107,174,214); fill: none"  />
<path d="M 814.4,891.4 L 842.8,917.2 870.6,943.8 897.7,971.2 924.1,999.4 949.4,1028.2 973.7,1057.8 996.7,1087.9 1018.4,1118.6 1038.6,1149.8 1057.3,1181.5 1074.3,1213.7 1089.6,1246.1 1103.1,1279.0 1114.8,1312.1 1124.6,1345.4 1132.4,1379.0 1138.2,1412.6 1142.0,1446.4 1143.8,1480.3 1143.5,1514.1 1141.2,1547.9 1136.9,1581.6 1130.5,1615.2 1122.2,1648.6 1111.9,1681.8 1099.7,1714.7 1085.7,1747.3 1069.8,1779.6 1052.3,1811.4 1033.1,1842.8 1012.4,1873.7 990.2,1904.1 966.7,1933.8 942.0,1963.0 916.2,1991.4 889.4,2019.2 861.9,2046.2 833.6,2072.4 804.9,2097.7  " style="stroke-opacity: 1.000000; stroke-width: 5.0; stroke: rgb(107,174,214); fill: none"  />
<path d="M 934.1,778.8 L 958.4,810.4 982.1,842.9 1005.1,876.2 1027.3,910.2 1048.7,944.9 1069.0,980.2 1088.3,1016.2 1106.4,1052.7 1123.2,1089.7 1138.7,1127.2 1152.8,1165.1 1165.5,1203.4 1176.6,1242.0 1186.2,1280.8 1194.2,1320.0 1200.6,1359.3 1205.3,1398.7 1208.4,1438.3 1209.8,1477.9 1209.4,1517.5 1207.4,1557.1 1203.7,1596.6 1198.4,1636.0 1191.4,1675.2 1182.8,1714.2 1172.6,1752.9 1160.8,1791.3 1147.5,1829.4 1132.8,1867.0 1116.7,1904.3 1099.3,1941.0 1080.7,1977.2 1060.8,2012.9 1039.9,2047.9 1018.1,2082.3 995.3,2115.9 971.7,2148.8 947.5,2180.9 922.8,2212.2  " style="stroke-opacity: 1.000000; stroke-width: 5.0; stroke: rgb(107,174,214); fill: none"  />
<path d="M 934.1,778.8 L 957.0,808.6 979.2,839.1 1000.5,870.2 1020.9,901.8 1040.1,933.7 1058.1,966.0 1074.7,998.5 1089.7,1031.1 1103.2,1063.8 1115.0,1096.5 1125.0,1129.1 1133.1,1161.6 1139.3,1193.8 1143.5,1225.8 1145.6,1257.5 1145.7,1288.8 1143.8,1319.7 1139.7,1350.0 1133.4,1379.9 1125.1,1409.2 1114.7,1437.8 1102.2,1465.8 1087.6,1493.1 1071.1,1519.6 1052.5,1545.4 1032.1,1570.4 1009.9,1594.6 985.9,1617.9 960.2,1640.4 933.0,1662.0 904.3,1682.7 874.4,1702.5 843.2,1721.4 810.9,1739.4 777.7,1756.4 743.8,1772.5 709.3,1787.7 674.3,1802.0 639.2,1815.3  " style="stroke-opacity: 1.000000; stroke-width: 5.0; stroke: rgb(107,174,214); fill: none"  />
<path d="M 934.1,778.8 L 955.9,807.0 977.3,835.3 997.9,863.7 1017.6,892.0 1036.4,919.9 1053.9,947.4 1070.2,974.3 1085.0,1000.5 1098.2,1026.0 1109.8,1050.5 1119.7,1074.0 1127.7,1096.4 1133.8,1117.6 1138.0,1137.6 1140.1,1156.2 1140.2,1173.5 1138.2,1189.3 1134.1,1203.6 1127.9,1216.4 1119.6,1227.7 1109.1,1237.4 1096.7,1245.5 1082.1,1252.1 1065.6,1257.1 1047.2,1260.5 1026.9,1262.4 1004.8,1262.8 981.0,1261.7 955.7,1259.2 928.8,1255.3 900.6,1250.1 871.2,1243.7 840.7,1236.0 809.2,1227.3 777.0,1217.6 744.2,1207.1 711.1,1195.7 677.7,1183.7 644.3,1171.1  " style="stroke-opacity: 1.000000; stroke-width: 5.0; stroke: rgb(107,174,214); fill: none"  />
<path d="M 2237.4,2044.7 L 2208.8,2023.3 2180.7,2001.6 2153.3,1979.8 2126.8,1957.8 2101.3,1935.9 2077.0,1914.0 2054.2,1892.4 2032.9,1871.0 2013.4,1850.1 1995.7,1829.5 1979.9,1809.5 1966.2,1790.0 1954.7,1771.2 1945.4,1753.1 1938.4,1735.7 1933.7,1719.1 1931.4,1703.3 1931.6,1688.4 1934.1,1674.4 1939.2,1661.3 1946.6,1649.2 1956.5,1638.0 1968.8,1627.8 1983.4,1618.6 2000.2,1610.4 2019.3,1603.2 2040.5,1596.9 2063.7,1591.6 2088.8,1587.3 2115.7,1583.9 2144.3,1581.4 2174.3,1579.8 2205.8,1579.0 2238.4,1579.1 2272.0,1579.8 2306.5,1581.3 2341.5,1583.4 2376.9,1586.2 2412.4,1589.4  " style="stroke-opacity: 1.000000; stroke-width: 5.0; stroke: rgb(107,174,214); fill: none"  />
</g>
<defs>
<pattern id="vline-sparse" width="10" height="10" patternTransform="rotate(0 0 0)" patternUnits="userSpaceOnUse"><line x1="0" y1="0" x2="0" y2="10" style="stroke:black;stroke-width:2" /></pattern>
<pattern id="checker" width="10" height="10" patternTransform="rotate(45 0 0)" patternUnits="userSpaceOnUse"><line x1="0" y1="0" x2="10" y2="0" style="stroke:black;stroke-width:5" /><line x1="0" y1="0" x2="0" y2="10" style="stroke:black;stroke-width:4" /></pattern>
<pattern id="vline" width="10" height="10" patternTransform="rotate(0 0 0)" patternUnits="userSpaceOnUse"><line x1="0" y1="0" x2="0" y2="10" style="stroke:black;stroke-width:5" /></pattern>
<pattern id="checker" width="10" height="10" patternTransform="rotate(45 0 0)" patternUnits="userSpaceOnUse"><line x1="0" y1="0" x2="10" y2="0" style="stroke:black;stroke-width:2" /><line x1="0" y1="0" x2="0" y2="10" style="stroke:black;stroke-width:2" /></pattern>
<pattern id="hline-sparse" width="10" height="10" patternTransform="rotate(0 0 0)" patternUnits="userSpaceOnUse"><line x1="0" y1="0" x2="10" y2="0" style="stroke:black;stroke-width:2" /></pattern>
<pattern id="hline" width="10" height="10" patternTransform="rotate(0 0 0)" patternUnits="userSpaceOnUse"><line x1="0" y1="0" x2="10" y2="0" style="stroke:black;stroke-width:5" /></pattern>
</defs>
</svg>
