<?xml version="1.0" encoding="utf-8" standalone="no"?>
<!DOCTYPE svg PUBLIC "-//W3C//DTD SVG 1.1//EN" "http://www.w3.org/Graphics/SVG/1.1/DTD/svg11.dtd">
<svg width="3000px" height="3000px" version="1.1" xmlns="http://www.w3.org/2000/svg" xmlns:xlink="http://www.w3.org/1999/xlink">
<g id="bg">
<rect x="0" y="0" width="3000px" height="3000px" style="fill:rgb(255,255,255);"/>
</g>
<g id="ideograms">
<path d="M1500.000,535.000 A965.000,965.000 40.000 0,1 1601.714,540.376 L1618.579,381.267 A1125.000,1125.000 0.000 0,0 1500.000,375.000 Z" style="stroke-width:2.0;stroke:rgb(115,115,115);stroke-linecap:round;fill:rgb(153,0,204);" />
<text x="1635.1" y="307.6" font-size="195.0px" font-family="CMUBright-Bold" style="text-anchor:start;fill:rgb(0,0,0);" transform="rotate(273.0,1635.1,307.6)" >1</text>
<path d="M1500.000,535.000 A965.000,965.000 40.000 0,1 1601.714,540.376 L1618.579,381.267 A1125.000,1125.000 0.000 0,0 1500.000,375.000 Z" style="stroke-width:2.0;stroke:rgb(115,115,115);stroke-linecap:round;fill:none;" />
<path d="M1672.307,550.508 A965.000,965.000 40.000 0,1 1771.427,573.959 L1816.431,420.418 A1125.000,1125.000 0.000 0,0 1700.877,393.079 Z" style="stroke-width:2.0;stroke:rgb(115,115,115);stroke-linecap:round;fill:rgb(153,0,204);" />
<text x="1845.8" y="350.9" font-size="195.0px" font-family="CMUBright-Bold" style="text-anchor:start;fill:rgb(0,0,0);" transform="rotate(283.3,1845.8,350.9)" >5</text>
<path d="M1672.307,550.508 A965.000,965.000 40.000 0,1 1771.427,573.959 L1816.431,420.418 A1125.000,1125.000 0.000 0,0 1700.877,393.079 Z" style="stroke-width:2.0;stroke:rgb(115,115,115);stroke-linecap:round;fill:none;" />
<path d="M1839.077,596.533 A965.000,965.000 40.000 0,1 1932.417,637.306 L2004.113,494.269 A1125.000,1125.000 0.000 0,0 1895.297,446.736 Z" style="stroke-width:2.0;stroke:rgb(115,115,115);stroke-linecap:round;fill:rgb(153,0,204);" />
<text x="2047.2" y="432.0" font-size="195.0px" font-family="CMUBright-Bold" style="text-anchor:start;fill:rgb(0,0,0);" transform="rotate(293.6,2047.2,432.0)" >8</text>
<path d="M1839.077,596.533 A965.000,965.000 40.000 0,1 1932.417,637.306 L2004.113,494.269 A1125.000,1125.000 0.000 0,0 1895.297,446.736 Z" style="stroke-width:2.0;stroke:rgb(115,115,115);stroke-linecap:round;fill:none;" />
<path d="M1994.948,671.597 A965.000,965.000 40.000 0,1 2079.507,728.381 L2175.592,600.444 A1125.000,1125.000 0.000 0,0 2077.012,534.245 Z" style="stroke-width:2.0;stroke:rgb(115,115,115);stroke-linecap:round;fill:rgb(153,0,204);" />
<text x="2229.1" y="546.9" font-size="195.0px" font-family="CMUBright-Bold" style="text-anchor:start;fill:rgb(0,0,0);" transform="rotate(303.9,2229.1,546.9)" >10</text>
<path d="M1994.948,671.597 A965.000,965.000 40.000 0,1 2079.507,728.381 L2175.592,600.444 A1125.000,1125.000 0.000 0,0 2077.012,534.245 Z" style="stroke-width:2.0;stroke:rgb(115,115,115);stroke-linecap:round;fill:none;" />
<path d="M2134.911,773.286 A965.000,965.000 40.000 0,1 2207.972,844.256 L2325.356,735.532 A1125.000,1125.000 0.000 0,0 2240.181,652.795 Z" style="stroke-width:2.0;stroke:rgb(115,115,115);stroke-linecap:round;fill:rgb(153,0,204);" />
<text x="2386.2" y="690.9" font-size="195.0px" font-family="CMUBright-Bold" style="text-anchor:start;fill:rgb(0,0,0);" transform="rotate(314.2,2386.2,690.9)" >12</text>
<path d="M2134.911,773.286 A965.000,965.000 40.000 0,1 2207.972,844.256 L2325.356,735.532 A1125.000,1125.000 0.000 0,0 2240.181,652.795 Z" style="stroke-width:2.0;stroke:rgb(115,115,115);stroke-linecap:round;fill:none;" />
<path d="M2254.467,898.332 A965.000,965.000 40.000 0,1 2313.683,981.207 L2448.594,895.190 A1125.000,1125.000 0.000 0,0 2379.560,798.574 Z" style="stroke-width:2.0;stroke:rgb(115,115,115);stroke-linecap:round;fill:rgb(153,0,204);" />
<text x="2517.5" y="863.9" font-size="195.0px" font-family="CMUBright-Bold" style="text-anchor:start;fill:rgb(0,0,0);" transform="rotate(324.5,2517.5,863.9)" >13</text>
<path d="M2254.467,898.332 A965.000,965.000 40.000 0,1 2313.683,981.207 L2448.594,895.190 A1125.000,1125.000 0.000 0,0 2379.560,798.574 Z" style="stroke-width:2.0;stroke:rgb(115,115,115);stroke-linecap:round;fill:none;" />
<path d="M2349.775,1042.717 A965.000,965.000 40.000 0,1 2393.240,1134.833 L2541.342,1074.288 A1125.000,1125.000 0.000 0,0 2490.670,966.898 Z" style="stroke-width:2.0;stroke:rgb(115,115,115);stroke-linecap:round;fill:rgb(153,0,204);" />
<text x="2614.7" y="1055.8" font-size="195.0px" font-family="CMUBright-Bold" style="text-anchor:start;fill:rgb(0,0,0);" transform="rotate(334.7,2614.7,1055.8)" >16</text>
<path d="M2349.775,1042.717 A965.000,965.000 40.000 0,1 2393.240,1134.833 L2541.342,1074.288 A1125.000,1125.000 0.000 0,0 2490.670,966.898 Z" style="stroke-width:2.0;stroke:rgb(115,115,115);stroke-linecap:round;fill:none;" />
<path d="M2417.770,1201.799 A965.000,965.000 40.000 0,1 2444.089,1300.196 L2600.621,1267.068 A1125.000,1125.000 0.000 0,0 2569.939,1152.356 Z" style="stroke-width:2.0;stroke:rgb(115,115,115);stroke-linecap:round;fill:rgb(153,0,204);" />
<text x="2676.2" y="1262.0" font-size="195.0px" font-family="CMUBright-Bold" style="text-anchor:start;fill:rgb(0,0,0);" transform="rotate(345.0,2676.2,1262.0)" >19</text>
<path d="M2417.770,1201.799 A965.000,965.000 40.000 0,1 2444.089,1300.196 L2600.621,1267.068 A1125.000,1125.000 0.000 0,0 2569.939,1152.356 Z" style="stroke-width:2.0;stroke:rgb(115,115,115);stroke-linecap:round;fill:none;" />
<path d="M2456.267,1370.465 A965.000,965.000 40.000 0,1 2464.593,1471.980 L2624.526,1467.335 A1125.000,1125.000 0.000 0,0 2614.818,1348.988 Z" style="stroke-width:2.0;stroke:rgb(115,115,115);stroke-linecap:round;fill:rgb(153,0,204);" />
<text x="2699.8" y="1475.8" font-size="195.0px" font-family="CMUBright-Bold" style="text-anchor:start;fill:rgb(0,0,0);" transform="rotate(355.3,2699.8,1475.8)" >20</text>
<path d="M2456.267,1370.465 A965.000,965.000 40.000 0,1 2464.593,1471.980 L2624.526,1467.335 A1125.000,1125.000 0.000 0,0 2614.818,1348.988 Z" style="stroke-width:2.0;stroke:rgb(115,115,115);stroke-linecap:round;fill:none;" />
<path d="M2464.028,1543.295 A965.000,965.000 40.000 0,1 2454.095,1644.665 L2612.287,1668.651 A1125.000,1125.000 0.000 0,0 2623.867,1550.473 Z" style="stroke-width:2.0;stroke:rgb(115,115,115);stroke-linecap:round;fill:rgb(153,0,204);" />
<text x="2685.1" y="1688.4" font-size="195.0px" font-family="CMUBright-Bold" style="text-anchor:start;fill:rgb(0,0,0);" transform="rotate(5.6,2685.1,1688.4)" >21</text>
<path d="M2464.028,1543.295 A965.000,965.000 40.000 0,1 2454.095,1644.665 L2612.287,1668.651 A1125.000,1125.000 0.000 0,0 2623.867,1550.473 Z" style="stroke-width:2.0;stroke:rgb(115,115,115);stroke-linecap:round;fill:none;" />
<path d="M2440.805,1714.733 A965.000,965.000 40.000 0,1 2412.931,1812.701 L2564.298,1864.548 A1125.000,1125.000 0.000 0,0 2596.794,1750.336 Z" style="stroke-width:2.0;stroke:rgb(115,115,115);stroke-linecap:round;fill:rgb(153,0,204);" />
<text x="2631.8" y="1898.9" font-size="195.0px" font-family="CMUBright-Bold" style="text-anchor:start;fill:rgb(0,0,0);" transform="rotate(15.9,2631.8,1898.9)" >28</text>
<path d="M2440.805,1714.733 A965.000,965.000 40.000 0,1 2412.931,1812.701 L2564.298,1864.548 A1125.000,1125.000 0.000 0,0 2596.794,1750.336 Z" style="stroke-width:2.0;stroke:rgb(115,115,115);stroke-linecap:round;fill:none;" />
<path d="M2387.344,1879.269 A965.000,965.000 40.000 0,1 2342.425,1970.686 L2482.102,2048.727 A1125.000,1125.000 0.000 0,0 2534.469,1942.153 Z" style="stroke-width:2.0;stroke:rgb(115,115,115);stroke-linecap:round;fill:rgb(153,0,204);" />
<text x="2542.3" y="2094.6" font-size="195.0px" font-family="CMUBright-Bold" style="text-anchor:start;fill:rgb(0,0,0);" transform="rotate(26.2,2542.3,2094.6)" >35</text>
<path d="M2387.344,1879.269 A965.000,965.000 40.000 0,1 2342.425,1970.686 L2482.102,2048.727 A1125.000,1125.000 0.000 0,0 2534.469,1942.153 Z" style="stroke-width:2.0;stroke:rgb(115,115,115);stroke-linecap:round;fill:none;" />
<path d="M2305.363,2031.616 A965.000,965.000 40.000 0,1 2244.843,2113.542 L2368.340,2215.270 A1125.000,1125.000 0.000 0,0 2438.895,2119.759 Z" style="stroke-width:2.0;stroke:rgb(115,115,115);stroke-linecap:round;fill:rgb(253,208,162);" />
<text x="2420.7" y="2269.6" font-size="195.0px" font-family="CMUBright-Bold" style="text-anchor:start;fill:rgb(0,0,0);" transform="rotate(36.5,2420.7,2269.6)" >2</text>
<path d="M2305.363,2031.616 A965.000,965.000 40.000 0,1 2244.843,2113.542 L2368.340,2215.270 A1125.000,1125.000 0.000 0,0 2438.895,2119.759 Z" style="stroke-width:2.0;stroke:rgb(115,115,115);stroke-linecap:round;fill:none;" />
<path d="M2197.497,2166.875 A965.000,965.000 40.000 0,1 2123.321,2236.679 L2226.669,2358.823 A1125.000,1125.000 0.000 0,0 2313.144,2277.445 Z" style="stroke-width:2.0;stroke:rgb(115,115,115);stroke-linecap:round;fill:rgb(253,208,162);" />
<text x="2267.0" y="2422.9" font-size="195.0px" font-family="CMUBright-Bold" style="text-anchor:start;fill:rgb(0,0,0);" transform="rotate(46.7,2267.0,2422.9)" >6</text>
<path d="M2197.497,2166.875 A965.000,965.000 40.000 0,1 2123.321,2236.679 L2226.669,2358.823 A1125.000,1125.000 0.000 0,0 2313.144,2277.445 Z" style="stroke-width:2.0;stroke:rgb(115,115,115);stroke-linecap:round;fill:none;" />
<path d="M2067.213,2280.701 A965.000,965.000 40.000 0,1 1981.764,2336.139 L2061.642,2474.773 A1125.000,1125.000 0.000 0,0 2161.258,2410.144 Z" style="stroke-width:2.0;stroke:rgb(115,115,115);stroke-linecap:round;fill:rgb(253,208,162);" />
<text x="2089.8" y="2545.0" font-size="195.0px" font-family="CMUBright-Bold" style="text-anchor:start;fill:rgb(0,0,0);" transform="rotate(57.0,2089.8,2545.0)" >31</text>
<path d="M2067.213,2280.701 A965.000,965.000 40.000 0,1 1981.764,2336.139 L2061.642,2474.773 A1125.000,1125.000 0.000 0,0 2161.258,2410.144 Z" style="stroke-width:2.0;stroke:rgb(115,115,115);stroke-linecap:round;fill:none;" />
<path d="M1918.698,2369.435 A965.000,965.000 40.000 0,1 1824.724,2408.724 L1878.564,2559.393 A1125.000,1125.000 0.000 0,0 1988.119,2513.590 Z" style="stroke-width:2.0;stroke:rgb(115,115,115);stroke-linecap:round;fill:rgb(253,208,162);" />
<text x="1893.8" y="2633.6" font-size="195.0px" font-family="CMUBright-Bold" style="text-anchor:start;fill:rgb(0,0,0);" transform="rotate(67.3,1893.8,2633.6)" >32</text>
<path d="M1918.698,2369.435 A965.000,965.000 40.000 0,1 1824.724,2408.724 L1878.564,2559.393 A1125.000,1125.000 0.000 0,0 1988.119,2513.590 Z" style="stroke-width:2.0;stroke:rgb(115,115,115);stroke-linecap:round;fill:none;" />
<path d="M1756.726,2430.224 A965.000,965.000 40.000 0,1 1657.246,2452.102 L1683.318,2609.964 A1125.000,1125.000 0.000 0,0 1799.291,2584.458 Z" style="stroke-width:2.0;stroke:rgb(115,115,115);stroke-linecap:round;fill:rgb(253,141,60);" />
<text x="1685.0" y="2685.6" font-size="195.0px" font-family="CMUBright-Bold" style="text-anchor:start;fill:rgb(0,0,0);" transform="rotate(77.6,1685.0,2685.6)" >3</text>
<path d="M1756.726,2430.224 A965.000,965.000 40.000 0,1 1657.246,2452.102 L1683.318,2609.964 A1125.000,1125.000 0.000 0,0 1799.291,2584.458 Z" style="stroke-width:2.0;stroke:rgb(115,115,115);stroke-linecap:round;fill:none;" />
<path d="M1586.502,2461.115 A965.000,965.000 40.000 0,1 1484.715,2464.879 L1482.181,2624.859 A1125.000,1125.000 0.000 0,0 1600.844,2620.471 Z" style="stroke-width:2.0;stroke:rgb(115,115,115);stroke-linecap:round;fill:rgb(253,141,60);" />
<text x="1474.4" y="2699.7" font-size="195.0px" font-family="CMUBright-Bold" style="text-anchor:start;fill:rgb(0,0,0);" transform="rotate(87.9,1474.4,2699.7)" >4</text>
<path d="M1586.502,2461.115 A965.000,965.000 40.000 0,1 1484.715,2464.879 L1482.181,2624.859 A1125.000,1125.000 0.000 0,0 1600.844,2620.471 Z" style="stroke-width:2.0;stroke:rgb(115,115,115);stroke-linecap:round;fill:none;" />
<path d="M1413.498,2461.115 A965.000,965.000 40.000 0,1 1312.675,2446.644 L1281.616,2603.600 A1125.000,1125.000 0.000 0,0 1399.156,2620.471 Z" style="stroke-width:2.0;stroke:rgb(115,115,115);stroke-linecap:round;fill:rgb(253,141,60);" />
<text x="1400.0" y="2695.8" font-size="195.0px" font-family="CMUBright-Bold" style="text-anchor:end;fill:rgb(0,0,0);" transform="rotate(-81.8,1400.0,2695.8)" >7</text>
<path d="M1413.498,2461.115 A965.000,965.000 40.000 0,1 1312.675,2446.644 L1281.616,2603.600 A1125.000,1125.000 0.000 0,0 1399.156,2620.471 Z" style="stroke-width:2.0;stroke:rgb(115,115,115);stroke-linecap:round;fill:none;" />
<path d="M1243.274,2430.224 A965.000,965.000 40.000 0,1 1146.656,2397.983 L1088.070,2546.871 A1125.000,1125.000 0.000 0,0 1200.709,2584.458 Z" style="stroke-width:2.0;stroke:rgb(115,115,115);stroke-linecap:round;fill:rgb(253,141,60);" />
<text x="1191.0" y="2659.5" font-size="195.0px" font-family="CMUBright-Bold" style="text-anchor:end;fill:rgb(0,0,0);" transform="rotate(-71.5,1191.0,2659.5)" >9</text>
<path d="M1243.274,2430.224 A965.000,965.000 40.000 0,1 1146.656,2397.983 L1088.070,2546.871 A1125.000,1125.000 0.000 0,0 1200.709,2584.458 Z" style="stroke-width:2.0;stroke:rgb(115,115,115);stroke-linecap:round;fill:none;" />
<path d="M1081.302,2369.435 A965.000,965.000 40.000 0,1 991.993,2320.460 L907.764,2456.494 A1125.000,1125.000 0.000 0,0 1011.881,2513.590 Z" style="stroke-width:2.0;stroke:rgb(115,115,115);stroke-linecap:round;fill:rgb(253,141,60);" />
<text x="988.0" y="2585.3" font-size="195.0px" font-family="CMUBright-Bold" style="text-anchor:end;fill:rgb(0,0,0);" transform="rotate(-61.3,988.0,2585.3)" >17</text>
<path d="M1081.302,2369.435 A965.000,965.000 40.000 0,1 991.993,2320.460 L907.764,2456.494 A1125.000,1125.000 0.000 0,0 1011.881,2513.590 Z" style="stroke-width:2.0;stroke:rgb(115,115,115);stroke-linecap:round;fill:none;" />
<path d="M932.787,2280.701 A965.000,965.000 40.000 0,1 853.658,2216.566 L746.493,2335.375 A1125.000,1125.000 0.000 0,0 838.742,2410.144 Z" style="stroke-width:2.0;stroke:rgb(115,115,115);stroke-linecap:round;fill:rgb(253,141,60);" />
<text x="803.3" y="2477.0" font-size="195.0px" font-family="CMUBright-Bold" style="text-anchor:end;fill:rgb(0,0,0);" transform="rotate(-51.0,803.3,2477.0)" >18</text>
<path d="M932.787,2280.701 A965.000,965.000 40.000 0,1 853.658,2216.566 L746.493,2335.375 A1125.000,1125.000 0.000 0,0 838.742,2410.144 Z" style="stroke-width:2.0;stroke:rgb(115,115,115);stroke-linecap:round;fill:none;" />
<path d="M802.503,2166.875 A965.000,965.000 40.000 0,1 736.097,2089.642 L609.440,2187.406 A1125.000,1125.000 0.000 0,0 686.856,2277.445 Z" style="stroke-width:2.0;stroke:rgb(115,115,115);stroke-linecap:round;fill:rgb(253,141,60);" />
<text x="638.6" y="2335.5" font-size="195.0px" font-family="CMUBright-Bold" style="text-anchor:end;fill:rgb(0,0,0);" transform="rotate(-40.7,638.6,2335.5)" >22</text>
<path d="M802.503,2166.875 A965.000,965.000 40.000 0,1 736.097,2089.642 L609.440,2187.406 A1125.000,1125.000 0.000 0,0 686.856,2277.445 Z" style="stroke-width:2.0;stroke:rgb(115,115,115);stroke-linecap:round;fill:none;" />
<path d="M694.637,2031.616 A965.000,965.000 40.000 0,1 643.089,1943.766 L501.010,2017.344 A1125.000,1125.000 0.000 0,0 561.105,2119.759 Z" style="stroke-width:2.0;stroke:rgb(115,115,115);stroke-linecap:round;fill:rgb(253,141,60);" />
<text x="504.4" y="2169.9" font-size="195.0px" font-family="CMUBright-Bold" style="text-anchor:end;fill:rgb(0,0,0);" transform="rotate(-30.4,504.4,2169.9)" >23</text>
<path d="M694.637,2031.616 A965.000,965.000 40.000 0,1 643.089,1943.766 L501.010,2017.344 A1125.000,1125.000 0.000 0,0 561.105,2119.759 Z" style="stroke-width:2.0;stroke:rgb(115,115,115);stroke-linecap:round;fill:none;" />
<path d="M612.656,1879.269 A965.000,965.000 40.000 0,1 577.622,1783.627 L424.689,1830.653 A1125.000,1125.000 0.000 0,0 465.531,1942.153 Z" style="stroke-width:2.0;stroke:rgb(115,115,115);stroke-linecap:round;fill:rgb(253,141,60);" />
<text x="400.8" y="1981.4" font-size="195.0px" font-family="CMUBright-Bold" style="text-anchor:end;fill:rgb(0,0,0);" transform="rotate(-20.1,400.8,1981.4)" >25</text>
<path d="M612.656,1879.269 A965.000,965.000 40.000 0,1 577.622,1783.627 L424.689,1830.653 A1125.000,1125.000 0.000 0,0 465.531,1942.153 Z" style="stroke-width:2.0;stroke:rgb(115,115,115);stroke-linecap:round;fill:none;" />
<path d="M559.195,1714.733 A965.000,965.000 40.000 0,1 541.802,1614.372 L382.929,1633.336 A1125.000,1125.000 0.000 0,0 403.206,1750.336 Z" style="stroke-width:2.0;stroke:rgb(115,115,115);stroke-linecap:round;fill:rgb(253,141,60);" />
<text x="332.3" y="1776.4" font-size="195.0px" font-family="CMUBright-Bold" style="text-anchor:end;fill:rgb(0,0,0);" transform="rotate(-9.8,332.3,1776.4)" >27</text>
<path d="M559.195,1714.733 A965.000,965.000 40.000 0,1 541.802,1614.372 L382.929,1633.336 A1125.000,1125.000 0.000 0,0 403.206,1750.336 Z" style="stroke-width:2.0;stroke:rgb(115,115,115);stroke-linecap:round;fill:none;" />
<path d="M535.972,1543.295 A965.000,965.000 40.000 0,1 536.778,1441.441 L377.073,1431.732 A1125.000,1125.000 0.000 0,0 376.133,1550.473 Z" style="stroke-width:2.0;stroke:rgb(115,115,115);stroke-linecap:round;fill:rgb(253,141,60);" />
<text x="301.7" y="1564.5" font-size="195.0px" font-family="CMUBright-Bold" style="text-anchor:end;fill:rgb(0,0,0);" transform="rotate(0.5,301.7,1564.5)" >29</text>
<path d="M535.972,1543.295 A965.000,965.000 40.000 0,1 536.778,1441.441 L377.073,1431.732 A1125.000,1125.000 0.000 0,0 376.133,1550.473 Z" style="stroke-width:2.0;stroke:rgb(115,115,115);stroke-linecap:round;fill:none;" />
<path d="M543.733,1370.465 A965.000,965.000 40.000 0,1 562.714,1270.393 L407.309,1232.323 A1125.000,1125.000 0.000 0,0 385.182,1348.988 Z" style="stroke-width:2.0;stroke:rgb(115,115,115);stroke-linecap:round;fill:rgb(253,141,60);" />
<text x="309.5" y="1349.5" font-size="195.0px" font-family="CMUBright-Bold" style="text-anchor:end;fill:rgb(0,0,0);" transform="rotate(10.7,309.5,1349.5)" >34</text>
<path d="M543.733,1370.465 A965.000,965.000 40.000 0,1 562.714,1270.393 L407.309,1232.323 A1125.000,1125.000 0.000 0,0 385.182,1348.988 Z" style="stroke-width:2.0;stroke:rgb(115,115,115);stroke-linecap:round;fill:none;" />
<path d="M582.230,1201.799 A965.000,965.000 40.000 0,1 618.774,1106.724 L472.664,1041.517 A1125.000,1125.000 0.000 0,0 430.061,1152.356 Z" style="stroke-width:2.0;stroke:rgb(115,115,115);stroke-linecap:round;fill:rgb(66,146,198);" />
<text x="356.1" y="1137.4" font-size="195.0px" font-family="CMUBright-Bold" style="text-anchor:end;fill:rgb(0,0,0);" transform="rotate(21.0,356.1,1137.4)" >11</text>
<path d="M582.230,1201.799 A965.000,965.000 40.000 0,1 618.774,1106.724 L472.664,1041.517 A1125.000,1125.000 0.000 0,0 430.061,1152.356 Z" style="stroke-width:2.0;stroke:rgb(115,115,115);stroke-linecap:round;fill:none;" />
<path d="M650.225,1042.717 A965.000,965.000 40.000 0,1 703.158,955.695 L571.039,865.447 A1125.000,1125.000 0.000 0,0 509.330,966.898 Z" style="stroke-width:2.0;stroke:rgb(115,115,115);stroke-linecap:round;fill:rgb(66,146,198);" />
<text x="439.2" y="939.0" font-size="195.0px" font-family="CMUBright-Bold" style="text-anchor:end;fill:rgb(0,0,0);" transform="rotate(31.3,439.2,939.0)" >14</text>
<path d="M650.225,1042.717 A965.000,965.000 40.000 0,1 703.158,955.695 L571.039,865.447 A1125.000,1125.000 0.000 0,0 509.330,966.898 Z" style="stroke-width:2.0;stroke:rgb(115,115,115);stroke-linecap:round;fill:none;" />
<path d="M745.533,898.332 A965.000,965.000 40.000 0,1 813.153,822.160 L699.272,709.772 A1125.000,1125.000 0.000 0,0 620.440,798.574 Z" style="stroke-width:2.0;stroke:rgb(115,115,115);stroke-linecap:round;fill:rgb(66,146,198);" />
<text x="555.2" y="760.2" font-size="195.0px" font-family="CMUBright-Bold" style="text-anchor:end;fill:rgb(0,0,0);" transform="rotate(41.6,555.2,760.2)" >15</text>
<path d="M745.533,898.332 A965.000,965.000 40.000 0,1 813.153,822.160 L699.272,709.772 A1125.000,1125.000 0.000 0,0 620.440,798.574 Z" style="stroke-width:2.0;stroke:rgb(115,115,115);stroke-linecap:round;fill:none;" />
<path d="M865.089,773.286 A965.000,965.000 40.000 0,1 945.224,710.412 L853.241,579.496 A1125.000,1125.000 0.000 0,0 759.819,652.795 Z" style="stroke-width:2.0;stroke:rgb(115,115,115);stroke-linecap:round;fill:rgb(66,146,198);" />
<text x="704.0" y="602.0" font-size="195.0px" font-family="CMUBright-Bold" style="text-anchor:end;fill:rgb(0,0,0);" transform="rotate(51.9,704.0,602.0)" >24</text>
<path d="M865.089,773.286 A965.000,965.000 40.000 0,1 945.224,710.412 L853.241,579.496 A1125.000,1125.000 0.000 0,0 759.819,652.795 Z" style="stroke-width:2.0;stroke:rgb(115,115,115);stroke-linecap:round;fill:none;" />
<path d="M1005.052,671.597 A965.000,965.000 40.000 0,1 1095.126,624.042 L1027.997,478.806 A1125.000,1125.000 0.000 0,0 922.988,534.245 Z" style="stroke-width:2.0;stroke:rgb(115,115,115);stroke-linecap:round;fill:rgb(66,146,198);" />
<text x="875.4" y="475.4" font-size="195.0px" font-family="CMUBright-Bold" style="text-anchor:end;fill:rgb(0,0,0);" transform="rotate(62.2,875.4,475.4)" >26</text>
<path d="M1005.052,671.597 A965.000,965.000 40.000 0,1 1095.126,624.042 L1027.997,478.806 A1125.000,1125.000 0.000 0,0 922.988,534.245 Z" style="stroke-width:2.0;stroke:rgb(115,115,115);stroke-linecap:round;fill:none;" />
<path d="M1160.923,596.533 A965.000,965.000 40.000 0,1 1258.041,565.826 L1217.923,410.937 A1125.000,1125.000 0.000 0,0 1104.703,446.736 Z" style="stroke-width:2.0;stroke:rgb(115,115,115);stroke-linecap:round;fill:rgb(66,146,198);" />
<text x="1068.4" y="380.3" font-size="195.0px" font-family="CMUBright-Bold" style="text-anchor:end;fill:rgb(0,0,0);" transform="rotate(72.5,1068.4,380.3)" >30</text>
<path d="M1160.923,596.533 A965.000,965.000 40.000 0,1 1258.041,565.826 L1217.923,410.937 A1125.000,1125.000 0.000 0,0 1104.703,446.736 Z" style="stroke-width:2.0;stroke:rgb(115,115,115);stroke-linecap:round;fill:none;" />
<path d="M1327.693,550.508 A965.000,965.000 40.000 0,1 1428.732,537.635 L1416.916,378.072 A1125.000,1125.000 0.000 0,0 1299.123,393.079 Z" style="stroke-width:2.0;stroke:rgb(115,115,115);stroke-linecap:round;fill:rgb(66,146,198);" />
<text x="1275.3" y="321.2" font-size="195.0px" font-family="CMUBright-Bold" style="text-anchor:end;fill:rgb(0,0,0);" transform="rotate(82.7,1275.3,321.2)" >33</text>
<path d="M1327.693,550.508 A965.000,965.000 40.000 0,1 1428.732,537.635 L1416.916,378.072 A1125.000,1125.000 0.000 0,0 1299.123,393.079 Z" style="stroke-width:2.0;stroke:rgb(115,115,115);stroke-linecap:round;fill:none;" />
</g>
<g id="track_1">
<path d="M 1548.4,584.5 L 1545.9,630.0 1543.1,675.6 1540.0,721.5 1536.6,767.4 1533.0,813.5 1529.0,859.8 1524.8,906.1 1520.2,952.6 1515.2,999.1 1510.0,1045.7 1504.4,1092.3 1498.4,1139.0 1492.1,1185.7 1485.4,1232.4 1478.4,1279.1 1471.0,1325.8 1463.3,1372.5 1455.1,1419.2 1446.7,1465.8 1437.9,1512.3 1428.7,1558.8 1419.1,1605.2 1409.2,1651.4 1399.0,1697.6 1388.4,1743.7 1377.5,1789.6 1366.3,1835.4 1354.8,1881.0 1342.9,1926.4 1330.8,1971.7 1318.3,2016.8 1305.6,2061.7 1292.6,2106.4 1279.4,2150.9 1265.9,2195.1 1252.2,2239.1 1238.2,2282.9 1224.1,2326.4 1209.8,2369.6  " style="stroke-opacity: 1.000000; stroke-width: 5.0; stroke: rgb(251,106,74); fill: none"  />
<path d="M 1548.4,584.5 L 1545.9,622.8 1542.4,661.1 1537.9,699.4 1532.3,737.6 1525.6,775.4 1517.6,812.8 1508.4,849.6 1497.9,885.7 1486.1,920.9 1472.9,955.3 1458.5,988.6 1442.6,1020.9 1425.4,1051.9 1406.8,1081.7 1386.8,1110.1 1365.4,1137.1 1342.7,1162.7 1318.7,1186.7 1293.3,1209.2 1266.7,1230.1 1238.8,1249.3 1209.8,1267.0 1179.6,1282.9 1148.2,1297.3 1115.9,1309.9 1082.5,1320.9 1048.3,1330.3 1013.2,1338.0 977.4,1344.1 940.9,1348.7 903.8,1351.8 866.3,1353.4 828.3,1353.6 790.1,1352.4 751.8,1350.0 713.4,1346.4 675.1,1341.6 637.0,1335.9 599.3,1329.2  " style="stroke-opacity: 1.000000; stroke-width: 5.0; stroke: rgb(251,106,74); fill: none"  />
<path d="M 2128.3,2167.6 L 2103.0,2141.3 2077.2,2115.6 2051.0,2090.6 2024.5,2066.6 1997.7,2043.7 1970.8,2022.1 1943.9,2001.9 1916.9,1983.3 1890.1,1966.4 1863.4,1951.3 1837.0,1938.1 1810.9,1927.0 1785.1,1917.9 1759.8,1911.0 1735.0,1906.3 1710.7,1903.8 1687.0,1903.7 1664.0,1905.9 1641.7,1910.4 1620.0,1917.2 1599.1,1926.4 1579.0,1937.8 1559.7,1951.6 1541.3,1967.5 1523.7,1985.6 1507.0,2005.8 1491.1,2028.1 1476.2,2052.2 1462.1,2078.2 1449.0,2105.9 1436.7,2135.1 1425.4,2165.9 1414.9,2197.9 1405.3,2231.0 1396.6,2265.1 1388.7,2300.0 1381.6,2335.5 1375.3,2371.4 1369.8,2407.5  " style="stroke-opacity: 1.000000; stroke-width: 5.0; stroke: rgb(251,106,74); fill: none"  />
<path d="M 2128.3,2167.6 L 2104.1,2141.7 2080.4,2115.7 2057.2,2089.9 2034.9,2064.2 2013.5,2039.0 1993.2,2014.3 1974.2,1990.2 1956.5,1966.9 1940.4,1944.5 1925.9,1923.1 1913.2,1902.8 1902.3,1883.6 1893.3,1865.8 1886.2,1849.2 1881.2,1834.0 1878.2,1820.3 1877.4,1808.1 1878.7,1797.3 1882.2,1788.2 1887.8,1780.6 1895.5,1774.6 1905.4,1770.2 1917.3,1767.4 1931.3,1766.2 1947.3,1766.5 1965.2,1768.4 1984.9,1771.8 2006.4,1776.6 2029.6,1782.8 2054.3,1790.3 2080.5,1799.2 2107.9,1809.2 2136.5,1820.3 2166.1,1832.4 2196.5,1845.4 2227.6,1859.3 2259.1,1873.8 2290.9,1888.8 2322.8,1904.3  " style="stroke-opacity: 1.000000; stroke-width: 5.0; stroke: rgb(251,106,74); fill: none"  />
<path d="M 1369.8,2407.5 L 1375.3,2371.4 1381.6,2335.5 1388.7,2300.0 1396.6,2265.1 1405.3,2231.0 1414.9,2197.9 1425.4,2165.9 1436.7,2135.1 1449.0,2105.9 1462.1,2078.2 1476.2,2052.2 1491.1,2028.1 1507.0,2005.8 1523.7,1985.6 1541.3,1967.5 1559.7,1951.6 1579.0,1937.8 1599.1,1926.4 1620.0,1917.2 1641.7,1910.4 1664.0,1905.9 1687.0,1903.7 1710.7,1903.8 1735.0,1906.3 1759.8,1911.0 1785.1,1917.9 1810.9,1927.0 1837.0,1938.1 1863.4,1951.3 1890.1,1966.4 1916.9,1983.3 1943.9,2001.9 1970.8,2022.1 1997.7,2043.7 2024.5,2066.6 2051.0,2090.6 2077.2,2115.6 2103.0,2141.3 2128.3,2167.6  " style="stroke-opacity: 1.000000; stroke-width: 5.0; stroke: rgb(251,106,74); fill: none"  />
<path d="M 1369.8,2407.5 L 1376.2,2364.4 1383.3,2321.0 1391.0,2277.4 1399.3,2233.7 1408.4,2189.8 1418.1,2145.8 1428.6,2101.8 1439.8,2057.8 1451.8,2013.7 1464.5,1969.8 1478.0,1925.9 1492.2,1882.1 1507.3,1838.5 1523.1,1795.1 1539.7,1751.9 1557.1,1708.9 1575.3,1666.3 1594.2,1623.9 1613.9,1581.9 1634.4,1540.2 1655.7,1498.9 1677.6,1458.0 1700.3,1417.5 1723.6,1377.5 1747.7,1338.0 1772.4,1298.9 1797.7,1260.4 1823.7,1222.3 1850.2,1184.8 1877.2,1147.9 1904.8,1111.5 1932.8,1075.8 1961.2,1040.6 1990.1,1006.0 2019.3,972.0 2048.8,938.7 2078.6,905.9 2108.6,873.9 2138.8,842.4  " style="stroke-opacity: 1.000000; stroke-width: 5.0; stroke: rgb(251,106,74); fill: none"  />
<path d="M 1369.8,2407.5 L 1375.9,2368.0 1383.0,2328.5 1391.1,2288.8 1400.3,2249.2 1410.7,2209.8 1422.1,2170.7 1434.8,2131.9 1448.7,2093.6 1463.8,2055.9 1480.2,2018.8 1497.9,1982.4 1516.8,1946.8 1537.0,1912.1 1558.5,1878.3 1581.2,1845.4 1605.2,1813.7 1630.4,1783.0 1656.9,1753.4 1684.6,1725.1 1713.5,1697.9 1743.4,1672.0 1774.5,1647.4 1806.7,1624.0 1839.9,1602.0 1874.0,1581.3 1909.1,1561.9 1945.0,1543.9 1981.6,1527.1 2019.0,1511.7 2057.1,1497.6 2095.7,1484.8 2134.7,1473.3 2174.2,1463.0 2214.0,1453.9 2253.9,1446.0 2294.0,1439.2 2334.0,1433.5 2374.0,1428.8 2413.7,1425.1  " style="stroke-opacity: 1.000000; stroke-width: 5.0; stroke: rgb(251,106,74); fill: none"  />
<path d="M 1867.0,659.9 L 1850.6,696.3 1833.2,732.5 1814.8,768.6 1795.4,804.3 1775.0,839.5 1753.5,874.2 1730.9,908.2 1707.4,941.4 1682.7,973.8 1657.1,1005.2 1630.4,1035.6 1602.7,1064.8 1574.0,1092.9 1544.3,1119.8 1513.6,1145.4 1482.0,1169.7 1449.5,1192.5 1416.2,1214.0 1381.9,1233.9 1346.9,1252.4 1311.1,1269.4 1274.6,1284.9 1237.3,1298.8 1199.5,1311.2 1161.1,1322.1 1122.1,1331.5 1082.7,1339.3 1042.9,1345.7 1002.8,1350.6 962.4,1354.1 921.8,1356.2 881.0,1356.9 840.3,1356.3 799.5,1354.5 758.9,1351.5 718.4,1347.4 678.3,1342.3 638.6,1336.2 599.3,1329.2  " style="stroke-opacity: 1.000000; stroke-width: 5.0; stroke: rgb(251,106,74); fill: none"  />
<path d="M 1209.8,2369.6 L 1224.1,2326.4 1238.2,2282.9 1252.2,2239.1 1265.9,2195.1 1279.4,2150.9 1292.6,2106.4 1305.6,2061.7 1318.3,2016.8 1330.8,1971.7 1342.9,1926.4 1354.8,1881.0 1366.3,1835.4 1377.5,1789.6 1388.4,1743.7 1399.0,1697.6 1409.2,1651.4 1419.1,1605.2 1428.7,1558.8 1437.9,1512.3 1446.7,1465.8 1455.1,1419.2 1463.3,1372.5 1471.0,1325.8 1478.4,1279.1 1485.4,1232.4 1492.1,1185.7 1498.4,1139.0 1504.4,1092.3 1510.0,1045.7 1515.2,999.1 1520.2,952.6 1524.8,906.1 1529.0,859.8 1533.0,813.5 1536.6,767.4 1540.0,721.5 1543.1,675.6 1545.9,630.0 1548.4,584.5  " style="stroke-opacity: 1.000000; stroke-width: 5.0; stroke: rgb(251,106,74); fill: none"  />
<path d="M 1209.8,2369.6 L 1224.1,2327.4 1238.9,2285.1 1254.2,2242.6 1269.9,2200.1 1286.2,2157.5 1303.1,2115.0 1320.5,2072.4 1338.4,2029.8 1356.8,1987.3 1375.9,1945.0 1395.4,1902.7 1415.6,1860.5 1436.3,1818.6 1457.5,1776.8 1479.3,1735.2 1501.7,1693.8 1524.6,1652.7 1548.0,1611.9 1571.9,1571.3 1596.4,1531.1 1621.4,1491.2 1646.9,1451.6 1672.9,1412.3 1699.3,1373.5 1726.2,1335.0 1753.6,1296.9 1781.3,1259.2 1809.5,1222.0 1838.0,1185.2 1866.9,1148.8 1896.2,1112.8 1925.7,1077.4 1955.5,1042.3 1985.6,1007.8 2015.9,973.8 2046.4,940.2 2077.1,907.1 2107.9,874.5 2138.8,842.4  " style="stroke-opacity: 1.000000; stroke-width: 5.0; stroke: rgb(251,106,74); fill: none"  />
<path d="M 2011.1,738.9 L 1985.8,776.8 1960.6,815.0 1935.5,853.5 1910.6,892.2 1885.9,931.3 1861.3,970.6 1836.8,1010.3 1812.6,1050.1 1788.6,1090.3 1764.9,1130.7 1741.4,1171.4 1718.1,1212.3 1695.1,1253.4 1672.4,1294.8 1649.9,1336.4 1627.8,1378.2 1605.9,1420.1 1584.4,1462.3 1563.2,1504.7 1542.3,1547.2 1521.7,1589.8 1501.5,1632.7 1481.6,1675.6 1462.1,1718.7 1442.9,1761.8 1424.0,1805.1 1405.5,1848.4 1387.3,1891.9 1369.5,1935.3 1352.0,1978.8 1334.9,2022.4 1318.1,2065.9 1301.7,2109.4 1285.6,2152.9 1269.8,2196.4 1254.3,2239.8 1239.2,2283.2 1224.3,2326.5 1209.8,2369.6  " style="stroke-opacity: 1.000000; stroke-width: 5.0; stroke: rgb(251,106,74); fill: none"  />
<path d="M 2138.8,842.4 L 2108.6,873.9 2078.6,905.9 2048.8,938.7 2019.3,972.0 1990.1,1006.0 1961.2,1040.6 1932.8,1075.8 1904.8,1111.5 1877.2,1147.9 1850.2,1184.8 1823.7,1222.3 1797.7,1260.4 1772.4,1298.9 1747.7,1338.0 1723.6,1377.5 1700.3,1417.5 1677.6,1458.0 1655.7,1498.9 1634.4,1540.2 1613.9,1581.9 1594.2,1623.9 1575.3,1666.3 1557.1,1708.9 1539.7,1751.9 1523.1,1795.1 1507.3,1838.5 1492.2,1882.1 1478.0,1925.9 1464.5,1969.8 1451.8,2013.7 1439.8,2057.8 1428.6,2101.8 1418.1,2145.8 1408.4,2189.8 1399.3,2233.7 1391.0,2277.4 1383.3,2321.0 1376.2,2364.4 1369.8,2407.5  " style="stroke-opacity: 1.000000; stroke-width: 5.0; stroke: rgb(251,106,74); fill: none"  />
<path d="M 2138.8,842.4 L 2107.9,874.5 2077.1,907.1 2046.4,940.2 2015.9,973.8 1985.6,1007.8 1955.5,1042.3 1925.7,1077.4 1896.2,1112.8 1866.9,1148.8 1838.0,1185.2 1809.5,1222.0 1781.3,1259.2 1753.6,1296.9 1726.2,1335.0 1699.3,1373.5 1672.9,1412.3 1646.9,1451.6 1621.4,1491.2 1596.4,1531.1 1571.9,1571.3 1548.0,1611.9 1524.6,1652.7 1501.7,1693.8 1479.3,1735.2 1457.5,1776.8 1436.3,1818.6 1415.6,1860.5 1395.4,1902.7 1375.9,1945.0 1356.8,1987.3 1338.4,2029.8 1320.5,2072.4 1303.1,2115.0 1286.2,2157.5 1269.9,2200.1 1254.2,2242.6 1238.9,2285.1 1224.1,2327.4 1209.8,2369.6  " style="stroke-opacity: 1.000000; stroke-width: 5.0; stroke: rgb(251,106,74); fill: none"  />
<path d="M 2138.8,842.4 L 2107.1,875.2 2075.5,908.2 2044.0,941.6 2012.5,975.3 1981.2,1009.3 1950.0,1043.6 1918.9,1078.3 1887.9,1113.2 1857.2,1148.4 1826.6,1183.9 1796.2,1219.8 1766.0,1255.9 1736.0,1292.2 1706.2,1328.9 1676.7,1365.8 1647.5,1402.9 1618.5,1440.3 1589.8,1478.0 1561.3,1515.9 1533.2,1554.0 1505.3,1592.3 1477.8,1630.8 1450.6,1669.5 1423.6,1708.4 1397.0,1747.4 1370.8,1786.6 1344.8,1826.0 1319.2,1865.4 1293.9,1905.0 1268.9,1944.7 1244.3,1984.5 1220.0,2024.3 1196.1,2064.2 1172.4,2104.2 1149.1,2144.1 1126.2,2184.1 1103.5,2224.0 1081.2,2264.0 1059.2,2303.8  " style="stroke-opacity: 1.000000; stroke-width: 5.0; stroke: rgb(251,106,74); fill: none"  />
<path d="M 2138.8,842.4 L 2106.4,875.8 2074.0,909.3 2041.6,943.0 2009.3,976.7 1977.0,1010.5 1944.7,1044.5 1912.5,1078.5 1880.3,1112.7 1848.1,1147.0 1816.0,1181.4 1784.0,1215.9 1752.0,1250.4 1720.1,1285.1 1688.2,1319.9 1656.5,1354.8 1624.8,1389.8 1593.2,1424.8 1561.6,1460.0 1530.2,1495.2 1498.8,1530.5 1467.6,1565.9 1436.4,1601.4 1405.3,1637.0 1374.4,1672.6 1343.5,1708.3 1312.7,1744.0 1282.1,1779.8 1251.5,1815.7 1221.1,1851.6 1190.7,1887.5 1160.5,1923.5 1130.4,1959.5 1100.4,1995.6 1070.5,2031.6 1040.7,2067.7 1011.1,2103.8 981.5,2140.0 952.1,2176.1 922.8,2212.2  " style="stroke-opacity: 1.000000; stroke-width: 5.0; stroke: rgb(251,106,74); fill: none"  />
<path d="M 2138.8,842.4 L 2108.2,873.5 2077.0,904.4 2045.2,935.1 2012.7,965.6 1979.6,995.8 1945.8,1025.6 1911.5,1055.1 1876.5,1084.1 1841.0,1112.7 1804.9,1140.8 1768.2,1168.4 1730.9,1195.4 1693.1,1221.9 1654.8,1247.7 1615.9,1272.9 1576.6,1297.4 1536.8,1321.2 1496.6,1344.4 1455.9,1366.8 1414.9,1388.5 1373.4,1409.4 1331.6,1429.6 1289.5,1449.0 1247.1,1467.6 1204.4,1485.5 1161.4,1502.6 1118.3,1518.9 1075.0,1534.4 1031.5,1549.2 987.9,1563.1 944.2,1576.4 900.5,1588.8 856.8,1600.6 813.1,1611.6 769.5,1621.9 726.0,1631.5 682.7,1640.5 639.6,1648.8 596.7,1656.5  " style="stroke-opacity: 1.000000; stroke-width: 5.0; stroke: rgb(251,106,74); fill: none"  />
<path d="M 2138.8,842.4 L 2109.5,872.0 2079.3,901.3 2048.3,930.3 2016.5,958.8 1984.0,986.7 1950.6,1014.0 1916.4,1040.6 1881.6,1066.5 1845.9,1091.6 1809.6,1115.8 1772.6,1139.0 1735.0,1161.3 1696.7,1182.6 1657.9,1202.8 1618.4,1221.9 1578.4,1239.9 1538.0,1256.7 1497.0,1272.4 1455.6,1286.8 1413.8,1300.0 1371.6,1312.0 1329.1,1322.8 1286.3,1332.3 1243.2,1340.5 1200.0,1347.6 1156.6,1353.4 1113.0,1358.0 1069.4,1361.4 1025.8,1363.6 982.1,1364.7 938.6,1364.7 895.2,1363.5 851.9,1361.4 808.9,1358.2 766.2,1354.1 723.8,1349.1 681.8,1343.2 640.3,1336.6 599.3,1329.2  " style="stroke-opacity: 1.000000; stroke-width: 5.0; stroke: rgb(251,106,74); fill: none"  />
<path d="M 2329.1,1108.8 L 2289.8,1127.6 2250.4,1147.1 2211.1,1167.3 2171.7,1188.1 2132.4,1209.7 2093.3,1231.9 2054.2,1254.9 2015.4,1278.5 1976.9,1302.9 1938.6,1328.0 1900.6,1353.8 1862.9,1380.3 1825.7,1407.4 1788.8,1435.3 1752.4,1463.9 1716.5,1493.2 1681.0,1523.1 1646.1,1553.6 1611.7,1584.9 1577.9,1616.7 1544.7,1649.1 1512.1,1682.1 1480.0,1715.7 1448.7,1749.8 1417.9,1784.4 1387.9,1819.5 1358.4,1855.0 1329.7,1891.0 1301.7,1927.3 1274.3,1964.0 1247.7,2001.0 1221.7,2038.4 1196.4,2075.9 1171.8,2113.6 1148.0,2151.5 1124.8,2189.6 1102.2,2227.6 1080.4,2265.8 1059.2,2303.8  " style="stroke-opacity: 1.000000; stroke-width: 5.0; stroke: rgb(251,106,74); fill: none"  />
<path d="M 2329.1,1108.8 L 2289.6,1127.1 2249.5,1145.1 2208.9,1162.7 2167.8,1179.8 2126.2,1196.4 2084.1,1212.5 2041.6,1228.0 1998.7,1243.0 1955.3,1257.2 1911.6,1270.9 1867.6,1283.8 1823.2,1296.0 1778.5,1307.5 1733.6,1318.2 1688.3,1328.1 1642.9,1337.2 1597.3,1345.6 1551.5,1353.1 1505.5,1359.8 1459.5,1365.7 1413.3,1370.7 1367.1,1374.9 1320.8,1378.3 1274.6,1380.8 1228.3,1382.5 1182.1,1383.4 1136.0,1383.5 1090.0,1382.9 1044.1,1381.4 998.4,1379.2 952.8,1376.2 907.5,1372.5 862.5,1368.2 817.7,1363.1 773.3,1357.5 729.2,1351.2 685.5,1344.4 642.2,1337.0 599.3,1329.2  " style="stroke-opacity: 1.000000; stroke-width: 5.0; stroke: rgb(251,106,74); fill: none"  />
<path d="M 1059.2,2303.8 L 1080.4,2264.7 1101.5,2225.1 1122.2,2185.0 1142.7,2144.5 1162.8,2103.6 1182.7,2062.3 1202.1,2020.7 1221.1,1978.6 1239.7,1936.2 1257.9,1893.4 1275.6,1850.3 1292.9,1806.9 1309.6,1763.2 1325.8,1719.2 1341.5,1675.0 1356.7,1630.5 1371.3,1585.8 1385.3,1540.8 1398.8,1495.7 1411.7,1450.4 1424.0,1404.9 1435.7,1359.3 1446.8,1313.6 1457.4,1267.8 1467.3,1221.9 1476.7,1176.0 1485.5,1130.0 1493.7,1084.0 1501.3,1038.1 1508.3,992.1 1514.8,946.3 1520.8,900.5 1526.2,854.8 1531.1,809.3 1535.5,763.9 1539.4,718.7 1542.8,673.7 1545.8,629.0 1548.4,584.5  " style="stroke-opacity: 1.000000; stroke-width: 5.0; stroke: rgb(251,106,74); fill: none"  />
<path d="M 1059.2,2303.8 L 1081.2,2264.0 1103.5,2224.0 1126.2,2184.1 1149.1,2144.1 1172.4,2104.2 1196.1,2064.2 1220.0,2024.3 1244.3,1984.5 1268.9,1944.7 1293.9,1905.0 1319.2,1865.4 1344.8,1826.0 1370.8,1786.6 1397.0,1747.4 1423.6,1708.4 1450.6,1669.5 1477.8,1630.8 1505.3,1592.3 1533.2,1554.0 1561.3,1515.9 1589.8,1478.0 1618.5,1440.3 1647.5,1402.9 1676.7,1365.8 1706.2,1328.9 1736.0,1292.2 1766.0,1255.9 1796.2,1219.8 1826.6,1183.9 1857.2,1148.4 1887.9,1113.2 1918.9,1078.3 1950.0,1043.6 1981.2,1009.3 2012.5,975.3 2044.0,941.6 2075.5,908.2 2107.1,875.2 2138.8,842.4  " style="stroke-opacity: 1.000000; stroke-width: 5.0; stroke: rgb(251,106,74); fill: none"  />
<path d="M 1059.2,2303.8 L 1080.4,2265.8 1102.2,2227.6 1124.8,2189.6 1148.0,2151.5 1171.8,2113.6 1196.4,2075.9 1221.7,2038.4 1247.7,2001.0 1274.3,1964.0 1301.7,1927.3 1329.7,1891.0 1358.4,1855.0 1387.9,1819.5 1417.9,1784.4 1448.7,1749.8 1480.0,1715.7 1512.1,1682.1 1544.7,1649.1 1577.9,1616.7 1611.7,1584.9 1646.1,1553.6 1681.0,1523.1 1716.5,1493.2 1752.4,1463.9 1788.8,1435.3 1825.7,1407.4 1862.9,1380.3 1900.6,1353.8 1938.6,1328.0 1976.9,1302.9 2015.4,1278.5 2054.2,1254.9 2093.3,1231.9 2132.4,1209.7 2171.7,1188.1 2211.1,1167.3 2250.4,1147.1 2289.8,1127.6 2329.1,1108.8  " style="stroke-opacity: 1.000000; stroke-width: 5.0; stroke: rgb(251,106,74); fill: none"  />
<path d="M 1059.2,2303.8 L 1079.6,2267.5 1100.8,2231.2 1123.0,2195.1 1146.1,2159.2 1170.0,2123.6 1195.0,2088.4 1220.8,2053.6 1247.5,2019.4 1275.2,1985.7 1303.7,1952.8 1333.2,1920.5 1363.6,1889.0 1394.8,1858.3 1426.9,1828.5 1459.8,1799.6 1493.6,1771.6 1528.1,1744.6 1563.5,1718.6 1599.5,1693.7 1636.3,1669.8 1673.8,1647.0 1711.9,1625.4 1750.6,1604.8 1789.9,1585.4 1829.8,1567.1 1870.1,1550.0 1910.8,1533.9 1952.0,1519.1 1993.4,1505.3 2035.2,1492.7 2077.2,1481.1 2119.3,1470.6 2161.6,1461.2 2203.9,1452.8 2246.2,1445.4 2288.4,1439.0 2330.4,1433.5 2372.2,1428.8 2413.7,1425.1  " style="stroke-opacity: 1.000000; stroke-width: 5.0; stroke: rgb(251,106,74); fill: none"  />
<path d="M 1059.2,2303.8 L 1079.2,2268.3 1100.1,2232.9 1122.0,2197.7 1144.8,2162.9 1168.7,2128.5 1193.5,2094.6 1219.2,2061.3 1246.0,2028.7 1273.7,1996.8 1302.3,1965.9 1331.9,1935.8 1362.4,1906.7 1393.9,1878.6 1426.2,1851.7 1459.3,1825.8 1493.4,1801.2 1528.2,1777.7 1563.8,1755.6 1600.2,1734.7 1637.3,1715.1 1675.0,1696.9 1713.4,1680.0 1752.4,1664.4 1792.0,1650.2 1832.0,1637.4 1872.5,1625.9 1913.4,1615.8 1954.7,1607.0 1996.2,1599.5 2037.9,1593.4 2079.8,1588.4 2121.8,1584.7 2163.9,1582.2 2205.8,1580.9 2247.7,1580.6 2289.4,1581.4 2330.8,1583.2 2371.8,1585.9 2412.4,1589.4  " style="stroke-opacity: 1.000000; stroke-width: 5.0; stroke: rgb(251,106,74); fill: none"  />
<path d="M 922.8,2212.2 L 952.1,2176.1 981.5,2140.0 1011.1,2103.8 1040.7,2067.7 1070.5,2031.6 1100.4,1995.6 1130.4,1959.5 1160.5,1923.5 1190.7,1887.5 1221.1,1851.6 1251.5,1815.7 1282.1,1779.8 1312.7,1744.0 1343.5,1708.3 1374.4,1672.6 1405.3,1637.0 1436.4,1601.4 1467.6,1565.9 1498.8,1530.5 1530.2,1495.2 1561.6,1460.0 1593.2,1424.8 1624.8,1389.8 1656.5,1354.8 1688.2,1319.9 1720.1,1285.1 1752.0,1250.4 1784.0,1215.9 1816.0,1181.4 1848.1,1147.0 1880.3,1112.7 1912.5,1078.5 1944.7,1044.5 1977.0,1010.5 2009.3,976.7 2041.6,943.0 2074.0,909.3 2106.4,875.8 2138.8,842.4  " style="stroke-opacity: 1.000000; stroke-width: 5.0; stroke: rgb(251,106,74); fill: none"  />
<path d="M 922.8,2212.2 L 948.7,2180.8 975.7,2149.7 1003.5,2119.0 1032.2,2088.8 1061.8,2059.2 1092.2,2030.3 1123.5,2002.1 1155.7,1974.8 1188.6,1948.4 1222.3,1923.1 1256.8,1898.8 1292.0,1875.6 1328.0,1853.6 1364.6,1832.8 1401.8,1813.3 1439.7,1795.2 1478.2,1778.3 1517.2,1762.9 1556.7,1748.8 1596.7,1736.2 1637.1,1724.9 1677.9,1715.2 1719.0,1706.8 1760.5,1699.9 1802.2,1694.5 1844.1,1690.4 1886.1,1687.8 1928.2,1686.5 1970.4,1686.5 2012.6,1687.9 2054.7,1690.5 2096.7,1694.4 2138.5,1699.4 2180.1,1705.6 2221.3,1712.8 2262.1,1721.0 2302.6,1730.2 2342.4,1740.1 2381.8,1750.9  " style="stroke-opacity: 1.000000; stroke-width: 5.0; stroke: rgb(251,106,74); fill: none"  />
<path d="M 2413.7,1425.1 L 2373.1,1428.8 2332.3,1433.5 2291.2,1439.1 2250.1,1445.8 2208.9,1453.5 2167.9,1462.4 2127.0,1472.3 2086.3,1483.5 2046.0,1495.8 2006.0,1509.3 1966.5,1524.1 1927.5,1540.1 1889.0,1557.4 1851.2,1575.9 1814.1,1595.7 1777.7,1616.7 1742.1,1638.9 1707.4,1662.4 1673.5,1687.1 1640.5,1713.0 1608.4,1740.1 1577.3,1768.2 1547.3,1797.5 1518.2,1827.9 1490.1,1859.2 1463.2,1891.5 1437.3,1924.7 1412.4,1958.8 1388.7,1993.7 1366.0,2029.3 1344.4,2065.5 1324.0,2102.4 1304.5,2139.7 1286.2,2177.5 1268.9,2215.6 1252.6,2254.0 1237.4,2292.5 1223.1,2331.1 1209.8,2369.6  " style="stroke-opacity: 1.000000; stroke-width: 5.0; stroke: rgb(251,106,74); fill: none"  />
<path d="M 2413.7,1425.1 L 2372.2,1428.8 2330.4,1433.5 2288.4,1439.0 2246.2,1445.4 2203.9,1452.8 2161.6,1461.2 2119.3,1470.6 2077.2,1481.1 2035.2,1492.7 1993.4,1505.3 1952.0,1519.1 1910.8,1533.9 1870.1,1550.0 1829.8,1567.1 1789.9,1585.4 1750.6,1604.8 1711.9,1625.4 1673.8,1647.0 1636.3,1669.8 1599.5,1693.7 1563.5,1718.6 1528.1,1744.6 1493.6,1771.6 1459.8,1799.6 1426.9,1828.5 1394.8,1858.3 1363.6,1889.0 1333.2,1920.5 1303.7,1952.8 1275.2,1985.7 1247.5,2019.4 1220.8,2053.6 1195.0,2088.4 1170.0,2123.6 1146.1,2159.2 1123.0,2195.1 1100.8,2231.2 1079.6,2267.5 1059.2,2303.8  " style="stroke-opacity: 1.000000; stroke-width: 5.0; stroke: rgb(251,106,74); fill: none"  />
<path d="M 2413.7,1425.1 L 2367.3,1428.9 2320.9,1432.8 2274.4,1436.9 2227.8,1441.0 2181.2,1445.2 2134.6,1449.6 2087.9,1454.0 2041.2,1458.5 1994.4,1463.2 1947.6,1468.0 1900.8,1472.9 1854.0,1477.9 1807.1,1483.0 1760.2,1488.2 1713.4,1493.6 1666.5,1499.1 1619.6,1504.7 1572.7,1510.4 1525.9,1516.3 1479.0,1522.2 1432.2,1528.3 1385.4,1534.5 1338.6,1540.9 1291.8,1547.3 1245.1,1553.9 1198.4,1560.5 1151.8,1567.3 1105.2,1574.2 1058.6,1581.2 1012.2,1588.3 965.7,1595.6 919.3,1602.9 873.0,1610.3 826.8,1617.8 780.6,1625.4 734.5,1633.1 688.5,1640.8 642.6,1648.6 596.7,1656.5  " style="stroke-opacity: 1.000000; stroke-width: 5.0; stroke: rgb(251,106,74); fill: none"  />
<path d="M 2413.7,1425.1 L 2368.3,1428.7 2322.7,1432.0 2276.9,1435.1 2230.9,1438.0 2184.7,1440.6 2138.3,1442.8 2091.8,1444.8 2045.2,1446.5 1998.4,1447.9 1951.6,1448.9 1904.6,1449.6 1857.5,1450.0 1810.4,1450.0 1763.2,1449.6 1716.0,1448.9 1668.7,1447.9 1621.4,1446.5 1574.1,1444.7 1526.8,1442.6 1479.4,1440.1 1432.2,1437.2 1384.9,1434.0 1337.7,1430.4 1290.6,1426.5 1243.6,1422.2 1196.6,1417.5 1149.7,1412.5 1103.0,1407.2 1056.3,1401.6 1009.8,1395.6 963.5,1389.3 917.3,1382.7 871.3,1375.9 825.4,1368.7 779.8,1361.3 734.3,1353.6 689.1,1345.7 644.1,1337.5 599.3,1329.2  " style="stroke-opacity: 1.000000; stroke-width: 5.0; stroke: rgb(251,106,74); fill: none"  />
<path d="M 2412.4,1589.4 L 2372.6,1586.0 2332.5,1583.4 2292.1,1581.9 2251.5,1581.5 2210.7,1582.1 2170.0,1584.0 2129.3,1587.1 2088.8,1591.4 2048.5,1597.1 2008.6,1604.2 1969.1,1612.7 1930.0,1622.6 1891.4,1634.0 1853.5,1646.8 1816.2,1661.1 1779.6,1676.8 1743.8,1694.0 1708.8,1712.7 1674.7,1732.9 1641.4,1754.4 1609.1,1777.4 1577.8,1801.7 1547.5,1827.4 1518.2,1854.4 1490.0,1882.6 1462.8,1912.1 1436.7,1942.6 1411.8,1974.3 1387.9,2006.9 1365.2,2040.5 1343.5,2074.9 1323.0,2110.1 1303.6,2146.0 1285.3,2182.5 1268.1,2219.4 1252.0,2256.7 1236.9,2294.2 1222.9,2331.9 1209.8,2369.6  " style="stroke-opacity: 1.000000; stroke-width: 5.0; stroke: rgb(251,106,74); fill: none"  />
<path d="M 2412.4,1589.4 L 2371.8,1585.9 2330.8,1583.2 2289.4,1581.4 2247.7,1580.6 2205.8,1580.9 2163.9,1582.2 2121.8,1584.7 2079.8,1588.4 2037.9,1593.4 1996.2,1599.5 1954.7,1607.0 1913.4,1615.8 1872.5,1625.9 1832.0,1637.4 1792.0,1650.2 1752.4,1664.4 1713.4,1680.0 1675.0,1696.9 1637.3,1715.1 1600.2,1734.7 1563.8,1755.6 1528.2,1777.7 1493.4,1801.2 1459.3,1825.8 1426.2,1851.7 1393.9,1878.6 1362.4,1906.7 1331.9,1935.8 1302.3,1965.9 1273.7,1996.8 1246.0,2028.7 1219.2,2061.3 1193.5,2094.6 1168.7,2128.5 1144.8,2162.9 1122.0,2197.7 1100.1,2232.9 1079.2,2268.3 1059.2,2303.8  " style="stroke-opacity: 1.000000; stroke-width: 5.0; stroke: rgb(251,106,74); fill: none"  />
<path d="M 2412.4,1589.4 L 2366.1,1584.9 2319.7,1580.5 2273.2,1576.2 2226.7,1571.9 2180.1,1567.7 2133.4,1563.7 2086.7,1559.7 2039.9,1555.8 1993.0,1552.1 1946.1,1548.4 1899.2,1544.9 1852.2,1541.4 1805.2,1538.1 1758.2,1534.9 1711.1,1531.8 1664.0,1528.8 1616.9,1526.0 1569.7,1523.2 1522.6,1520.6 1475.4,1518.1 1428.2,1515.8 1381.1,1513.5 1333.9,1511.4 1286.7,1509.4 1239.6,1507.5 1192.5,1505.7 1145.4,1504.1 1098.3,1502.5 1051.2,1501.1 1004.2,1499.8 957.2,1498.6 910.3,1497.5 863.4,1496.6 816.6,1495.7 769.8,1494.9 723.1,1494.2 676.4,1493.6 629.8,1493.1 583.3,1492.7  " style="stroke-opacity: 1.000000; stroke-width: 5.0; stroke: rgb(251,106,74); fill: none"  />
<path d="M 2412.4,1589.4 L 2366.1,1584.8 2319.7,1580.2 2273.3,1575.4 2226.8,1570.5 2180.3,1565.6 2133.7,1560.5 2087.1,1555.3 2040.5,1550.0 1993.8,1544.6 1947.1,1539.1 1900.3,1533.5 1853.6,1527.7 1806.8,1521.9 1760.0,1515.9 1713.2,1509.8 1666.5,1503.5 1619.7,1497.2 1572.9,1490.7 1526.1,1484.1 1479.4,1477.4 1432.7,1470.6 1385.9,1463.7 1339.3,1456.6 1292.6,1449.4 1246.0,1442.1 1199.4,1434.7 1152.9,1427.2 1106.4,1419.5 1060.0,1411.8 1013.6,1403.9 967.3,1396.0 921.0,1387.9 874.9,1379.8 828.7,1371.6 782.7,1363.2 736.7,1354.8 690.8,1346.4 645.0,1337.8 599.3,1329.2  " style="stroke-opacity: 1.000000; stroke-width: 5.0; stroke: rgb(251,106,74); fill: none"  />
<path d="M 596.7,1656.5 L 639.6,1648.8 682.7,1640.5 726.0,1631.5 769.5,1621.9 813.1,1611.6 856.8,1600.6 900.5,1588.8 944.2,1576.4 987.9,1563.1 1031.5,1549.2 1075.0,1534.4 1118.3,1518.9 1161.4,1502.6 1204.4,1485.5 1247.1,1467.6 1289.5,1449.0 1331.6,1429.6 1373.4,1409.4 1414.9,1388.5 1455.9,1366.8 1496.6,1344.4 1536.8,1321.2 1576.6,1297.4 1615.9,1272.9 1654.8,1247.7 1693.1,1221.9 1730.9,1195.4 1768.2,1168.4 1804.9,1140.8 1841.0,1112.7 1876.5,1084.1 1911.5,1055.1 1945.8,1025.6 1979.6,995.8 2012.7,965.6 2045.2,935.1 2077.0,904.4 2108.2,873.5 2138.8,842.4  " style="stroke-opacity: 1.000000; stroke-width: 5.0; stroke: rgb(251,106,74); fill: none"  />
<path d="M 2381.8,1750.9 L 2338.8,1738.9 2295.6,1727.2 2251.9,1715.9 2207.9,1704.9 2163.5,1694.4 2118.9,1684.3 2073.9,1674.6 2028.7,1665.4 1983.2,1656.7 1937.4,1648.5 1891.5,1640.8 1845.3,1633.6 1799.0,1627.1 1752.5,1621.0 1705.9,1615.6 1659.1,1610.7 1612.3,1606.4 1565.3,1602.7 1518.3,1599.6 1471.3,1597.2 1424.2,1595.3 1377.1,1594.0 1330.1,1593.3 1283.1,1593.2 1236.1,1593.7 1189.3,1594.8 1142.5,1596.5 1095.9,1598.7 1049.4,1601.5 1003.0,1604.9 956.8,1608.7 910.9,1613.1 865.2,1618.0 819.7,1623.4 774.5,1629.2 729.5,1635.4 684.9,1642.1 640.6,1649.1 596.7,1656.5  " style="stroke-opacity: 1.000000; stroke-width: 5.0; stroke: rgb(251,106,74); fill: none"  />
<path d="M 599.3,1329.2 L 637.0,1335.9 675.1,1341.6 713.4,1346.4 751.8,1350.0 790.1,1352.4 828.3,1353.6 866.3,1353.4 903.8,1351.8 940.9,1348.7 977.4,1344.1 1013.2,1338.0 1048.3,1330.3 1082.5,1320.9 1115.9,1309.9 1148.2,1297.3 1179.6,1282.9 1209.8,1267.0 1238.8,1249.3 1266.7,1230.1 1293.3,1209.2 1318.7,1186.7 1342.7,1162.7 1365.4,1137.1 1386.8,1110.1 1406.8,1081.7 1425.4,1051.9 1442.6,1020.9 1458.5,988.6 1472.9,955.3 1486.1,920.9 1497.9,885.7 1508.4,849.6 1517.6,812.8 1525.6,775.4 1532.3,737.6 1537.9,699.4 1542.4,661.1 1545.9,622.8 1548.4,584.5  " style="stroke-opacity: 1.000000; stroke-width: 5.0; stroke: rgb(251,106,74); fill: none"  />
<path d="M 599.3,1329.2 L 638.6,1336.2 678.3,1342.3 718.4,1347.4 758.9,1351.5 799.5,1354.5 840.3,1356.3 881.0,1356.9 921.8,1356.2 962.4,1354.1 1002.8,1350.6 1042.9,1345.7 1082.7,1339.3 1122.1,1331.5 1161.1,1322.1 1199.5,1311.2 1237.3,1298.8 1274.6,1284.9 1311.1,1269.4 1346.9,1252.4 1381.9,1233.9 1416.2,1214.0 1449.5,1192.5 1482.0,1169.7 1513.6,1145.4 1544.3,1119.8 1574.0,1092.9 1602.7,1064.8 1630.4,1035.6 1657.1,1005.2 1682.7,973.8 1707.4,941.4 1730.9,908.2 1753.5,874.2 1775.0,839.5 1795.4,804.3 1814.8,768.6 1833.2,732.5 1850.6,696.3 1867.0,659.9  " style="stroke-opacity: 1.000000; stroke-width: 5.0; stroke: rgb(251,106,74); fill: none"  />
<path d="M 599.3,1329.2 L 640.3,1336.6 681.8,1343.2 723.8,1349.1 766.2,1354.1 808.9,1358.2 851.9,1361.4 895.2,1363.5 938.6,1364.7 982.1,1364.7 1025.8,1363.6 1069.4,1361.4 1113.0,1358.0 1156.6,1353.4 1200.0,1347.6 1243.2,1340.5 1286.3,1332.3 1329.1,1322.8 1371.6,1312.0 1413.8,1300.0 1455.6,1286.8 1497.0,1272.4 1538.0,1256.7 1578.4,1239.9 1618.4,1221.9 1657.9,1202.8 1696.7,1182.6 1735.0,1161.3 1772.6,1139.0 1809.6,1115.8 1845.9,1091.6 1881.6,1066.5 1916.4,1040.6 1950.6,1014.0 1984.0,986.7 2016.5,958.8 2048.3,930.3 2079.3,901.3 2109.5,872.0 2138.8,842.4  " style="stroke-opacity: 1.000000; stroke-width: 5.0; stroke: rgb(251,106,74); fill: none"  />
<path d="M 599.3,1329.2 L 642.2,1337.0 685.5,1344.4 729.2,1351.2 773.3,1357.5 817.7,1363.1 862.5,1368.2 907.5,1372.5 952.8,1376.2 998.4,1379.2 1044.1,1381.4 1090.0,1382.9 1136.0,1383.5 1182.1,1383.4 1228.3,1382.5 1274.6,1380.8 1320.8,1378.3 1367.1,1374.9 1413.3,1370.7 1459.5,1365.7 1505.5,1359.8 1551.5,1353.1 1597.3,1345.6 1642.9,1337.2 1688.3,1328.1 1733.6,1318.2 1778.5,1307.5 1823.2,1296.0 1867.6,1283.8 1911.6,1270.9 1955.3,1257.2 1998.7,1243.0 2041.6,1228.0 2084.1,1212.5 2126.2,1196.4 2167.8,1179.8 2208.9,1162.7 2249.5,1145.1 2289.6,1127.1 2329.1,1108.8  " style="stroke-opacity: 1.000000; stroke-width: 5.0; stroke: rgb(251,106,74); fill: none"  />
<path d="M 599.3,1329.2 L 643.1,1337.3 687.3,1345.0 731.8,1352.4 776.6,1359.4 821.7,1365.9 867.1,1372.0 912.8,1377.6 958.6,1382.7 1004.7,1387.3 1051.0,1391.3 1097.5,1394.9 1144.1,1397.8 1190.8,1400.3 1237.7,1402.1 1284.6,1403.3 1331.6,1404.0 1378.7,1404.1 1425.7,1403.5 1472.8,1402.4 1519.9,1400.7 1566.9,1398.3 1613.9,1395.4 1660.9,1391.8 1707.7,1387.7 1754.4,1383.0 1801.0,1377.7 1847.4,1371.8 1893.7,1365.4 1939.7,1358.5 1985.6,1351.0 2031.2,1343.0 2076.6,1334.5 2121.7,1325.6 2166.5,1316.2 2211.0,1306.3 2255.2,1296.1 2299.1,1285.4 2342.5,1274.4 2385.6,1263.1  " style="stroke-opacity: 1.000000; stroke-width: 5.0; stroke: rgb(251,106,74); fill: none"  />
<path d="M 599.3,1329.2 L 644.1,1337.5 689.1,1345.7 734.3,1353.6 779.8,1361.3 825.4,1368.7 871.3,1375.9 917.3,1382.7 963.5,1389.3 1009.8,1395.6 1056.3,1401.6 1103.0,1407.2 1149.7,1412.5 1196.6,1417.5 1243.6,1422.2 1290.6,1426.5 1337.7,1430.4 1384.9,1434.0 1432.2,1437.2 1479.4,1440.1 1526.8,1442.6 1574.1,1444.7 1621.4,1446.5 1668.7,1447.9 1716.0,1448.9 1763.2,1449.6 1810.4,1450.0 1857.5,1450.0 1904.6,1449.6 1951.6,1448.9 1998.4,1447.9 2045.2,1446.5 2091.8,1444.8 2138.3,1442.8 2184.7,1440.6 2230.9,1438.0 2276.9,1435.1 2322.7,1432.0 2368.3,1428.7 2413.7,1425.1  " style="stroke-opacity: 1.000000; stroke-width: 5.0; stroke: rgb(251,106,74); fill: none"  />
<path d="M 599.3,1329.2 L 645.0,1337.8 690.8,1346.4 736.7,1354.8 782.7,1363.2 828.7,1371.6 874.9,1379.8 921.0,1387.9 967.3,1396.0 1013.6,1403.9 1060.0,1411.8 1106.4,1419.5 1152.9,1427.2 1199.4,1434.7 1246.0,1442.1 1292.6,1449.4 1339.3,1456.6 1385.9,1463.7 1432.7,1470.6 1479.4,1477.4 1526.1,1484.1 1572.9,1490.7 1619.7,1497.2 1666.5,1503.5 1713.2,1509.8 1760.0,1515.9 1806.8,1521.9 1853.6,1527.7 1900.3,1533.5 1947.1,1539.1 1993.8,1544.6 2040.5,1550.0 2087.1,1555.3 2133.7,1560.5 2180.3,1565.6 2226.8,1570.5 2273.3,1575.4 2319.7,1580.2 2366.1,1584.8 2412.4,1589.4  " style="stroke-opacity: 1.000000; stroke-width: 5.0; stroke: rgb(251,106,74); fill: none"  />
</g>
<g id="track_0">
<path d="M 1548.4,584.5 L 1546.7,620.2 1545.6,655.6 1545.1,690.7 1545.1,725.2 1545.9,758.8 1547.3,791.4 1549.5,822.7 1552.4,852.7 1556.2,881.2 1560.8,907.9 1566.3,932.8 1572.6,955.7 1579.8,976.6 1587.8,995.3 1596.8,1011.8 1606.7,1026.0 1617.4,1037.8 1629.0,1047.1 1641.4,1054.0 1654.7,1058.5 1668.8,1060.4 1683.7,1059.9 1699.4,1056.9 1715.8,1051.5 1732.8,1043.7 1750.5,1033.6 1768.8,1021.2 1787.6,1006.7 1806.9,990.0 1826.7,971.4 1846.8,950.9 1867.1,928.7 1887.7,905.0 1908.4,879.8 1929.2,853.3 1950.0,825.8 1970.6,797.5 1991.0,768.4 2011.1,738.9  " style="stroke-opacity: 1.000000; stroke-width: 5.0; stroke: rgb(107,174,214); fill: none"  />
<path d="M 1711.1,607.9 L 1703.1,642.4 1695.5,676.7 1688.3,710.7 1681.8,744.1 1675.8,776.6 1670.6,808.2 1666.1,838.5 1662.5,867.5 1659.7,895.0 1657.8,920.7 1656.9,944.7 1657.0,966.8 1658.1,986.8 1660.3,1004.6 1663.5,1020.3 1667.8,1033.6 1673.2,1044.7 1679.7,1053.3 1687.3,1059.5 1695.9,1063.3 1705.6,1064.6 1716.3,1063.5 1728.1,1060.0 1740.8,1054.0 1754.5,1045.8 1769.1,1035.2 1784.5,1022.4 1800.7,1007.5 1817.7,990.6 1835.4,971.7 1853.6,951.0 1872.4,928.6 1891.6,904.7 1911.2,879.5 1931.0,853.0 1951.1,825.5 1971.2,797.2 1991.2,768.2 2011.1,738.9  " style="stroke-opacity: 1.000000; stroke-width: 5.0; stroke: rgb(107,174,214); fill: none"  />
<path d="M 1711.1,607.9 L 1703.1,642.6 1695.6,677.3 1688.8,711.8 1682.8,745.7 1677.5,778.9 1673.1,811.2 1669.6,842.5 1667.2,872.5 1665.8,901.1 1665.6,928.3 1666.5,953.7 1668.6,977.4 1671.9,999.3 1676.5,1019.1 1682.4,1036.9 1689.6,1052.6 1698.0,1066.1 1707.8,1077.4 1718.8,1086.4 1731.1,1093.2 1744.6,1097.6 1759.4,1099.8 1775.3,1099.6 1792.4,1097.2 1810.6,1092.6 1829.8,1085.8 1850.0,1076.9 1871.1,1066.0 1893.1,1053.0 1915.8,1038.2 1939.2,1021.7 1963.2,1003.5 1987.7,983.8 2012.6,962.7 2037.8,940.4 2063.1,917.0 2088.5,892.8 2113.7,867.8 2138.8,842.4  " style="stroke-opacity: 1.000000; stroke-width: 5.0; stroke: rgb(107,174,214); fill: none"  />
<path d="M 1711.1,607.9 L 1703.1,643.0 1695.7,678.2 1689.2,713.1 1683.5,747.7 1678.7,781.7 1675.0,815.0 1672.4,847.4 1671.0,878.7 1670.8,908.7 1671.8,937.5 1674.3,964.8 1678.1,990.5 1683.3,1014.5 1689.9,1036.7 1698.0,1057.1 1707.5,1075.6 1718.5,1092.1 1730.9,1106.5 1744.8,1118.9 1760.1,1129.2 1776.8,1137.4 1794.9,1143.4 1814.4,1147.3 1835.1,1149.2 1857.0,1148.9 1880.1,1146.6 1904.3,1142.4 1929.5,1136.2 1955.7,1128.1 1982.7,1118.2 2010.5,1106.6 2038.9,1093.5 2067.8,1078.8 2097.2,1062.8 2126.9,1045.5 2156.8,1027.1 2186.7,1007.8 2216.4,987.7 2245.9,967.0  " style="stroke-opacity: 1.000000; stroke-width: 5.0; stroke: rgb(107,174,214); fill: none"  />
<path d="M 1711.1,607.9 L 1702.5,646.0 1694.9,684.6 1688.2,723.5 1682.7,762.7 1678.3,802.1 1675.1,841.5 1673.3,880.8 1672.8,920.0 1673.8,959.0 1676.3,997.6 1680.3,1035.9 1685.8,1073.7 1693.0,1111.0 1701.8,1147.7 1712.3,1183.7 1724.4,1218.9 1738.1,1253.4 1753.5,1287.1 1770.6,1319.8 1789.3,1351.7 1809.6,1382.5 1831.4,1412.4 1854.8,1441.2 1879.7,1469.0 1906.0,1495.7 1933.7,1521.2 1962.8,1545.7 1993.1,1569.0 2024.5,1591.2 2057.1,1612.2 2090.6,1632.1 2125.1,1650.8 2160.3,1668.4 2196.2,1684.8 2232.7,1700.2 2269.7,1714.4 2306.9,1727.6 2344.3,1739.7 2381.8,1750.9  " style="stroke-opacity: 1.000000; stroke-width: 5.0; stroke: rgb(107,174,214); fill: none"  />
<path d="M 1369.8,2407.5 L 1374.8,2372.6 1380.1,2337.9 1385.4,2303.9 1390.9,2270.6 1396.4,2238.3 1402.0,2207.2 1407.6,2177.5 1413.2,2149.5 1418.8,2123.2 1424.5,2098.8 1430.0,2076.4 1435.6,2056.3 1441.1,2038.5 1446.5,2023.1 1451.8,2010.1 1457.0,1999.7 1462.2,1991.9 1467.2,1986.8 1472.0,1984.4 1476.8,1984.6 1481.3,1987.6 1485.8,1993.2 1490.0,2001.5 1494.2,2012.3 1498.1,2025.8 1501.8,2041.7 1505.4,2060.0 1508.8,2080.6 1512.0,2103.4 1515.0,2128.2 1517.9,2155.0 1520.5,2183.5 1523.0,2213.6 1525.2,2245.1 1527.3,2277.8 1529.2,2311.5 1530.9,2345.9 1532.5,2380.9 1533.9,2416.1  " style="stroke-opacity: 1.000000; stroke-width: 5.0; stroke: rgb(107,174,214); fill: none"  />
<path d="M 1369.8,2407.5 L 1374.7,2372.5 1379.4,2337.8 1383.8,2303.6 1388.0,2270.2 1391.8,2237.6 1395.2,2206.2 1398.1,2176.2 1400.6,2147.7 1402.6,2120.8 1404.1,2095.8 1405.0,2072.9 1405.3,2052.0 1405.1,2033.3 1404.2,2017.0 1402.8,2003.1 1400.7,1991.6 1397.9,1982.7 1394.6,1976.4 1390.6,1972.7 1386.0,1971.6 1380.8,1973.1 1374.9,1977.3 1368.5,1984.0 1361.5,1993.3 1354.0,2005.1 1345.9,2019.3 1337.3,2035.9 1328.2,2054.7 1318.8,2075.7 1308.9,2098.6 1298.6,2123.5 1288.1,2150.1 1277.3,2178.3 1266.2,2207.9 1255.0,2238.7 1243.7,2270.5 1232.4,2303.1 1221.1,2336.2 1209.8,2369.6  " style="stroke-opacity: 1.000000; stroke-width: 5.0; stroke: rgb(107,174,214); fill: none"  />
<path d="M 1369.8,2407.5 L 1374.6,2372.4 1379.1,2337.5 1383.2,2303.0 1386.7,2269.2 1389.7,2236.2 1392.1,2204.3 1393.8,2173.7 1394.9,2144.5 1395.2,2116.9 1394.7,2091.1 1393.5,2067.1 1391.4,2045.2 1388.5,2025.4 1384.7,2007.8 1380.1,1992.5 1374.6,1979.5 1368.3,1969.0 1361.1,1961.0 1353.0,1955.5 1344.0,1952.5 1334.2,1952.1 1323.7,1954.1 1312.3,1958.7 1300.1,1965.8 1287.2,1975.2 1273.7,1987.0 1259.4,2001.1 1244.6,2017.4 1229.2,2035.8 1213.4,2056.2 1197.0,2078.5 1180.3,2102.4 1163.3,2128.0 1146.1,2154.9 1128.7,2183.1 1111.2,2212.2 1093.7,2242.2 1076.4,2272.8 1059.2,2303.8  " style="stroke-opacity: 1.000000; stroke-width: 5.0; stroke: rgb(107,174,214); fill: none"  />
<path d="M 1867.0,659.9 L 1852.9,692.3 1839.2,724.4 1825.8,756.2 1812.9,787.4 1800.6,817.8 1788.9,847.1 1778.1,875.3 1768.1,902.1 1759.0,927.5 1751.0,951.1 1744.0,973.1 1738.1,993.1 1733.4,1011.2 1729.9,1027.1 1727.6,1040.9 1726.5,1052.5 1726.8,1061.8 1728.4,1068.8 1731.2,1073.5 1735.4,1075.7 1740.8,1075.6 1747.5,1073.2 1755.5,1068.4 1764.7,1061.3 1775.2,1052.0 1786.7,1040.4 1799.4,1026.7 1813.1,1011.0 1827.9,993.3 1843.5,973.8 1860.0,952.5 1877.2,929.7 1895.2,905.4 1913.7,879.8 1932.7,853.1 1952.0,825.5 1971.6,797.1 1991.3,768.2 2011.1,738.9  " style="stroke-opacity: 1.000000; stroke-width: 5.0; stroke: rgb(107,174,214); fill: none"  />
<path d="M 1867.0,659.9 L 1852.7,693.5 1839.2,727.3 1826.5,761.2 1814.9,795.0 1804.3,828.6 1795.0,861.9 1787.1,894.6 1780.6,926.7 1775.6,958.0 1772.2,988.5 1770.4,1017.9 1770.4,1046.3 1772.2,1073.6 1775.8,1099.6 1781.2,1124.2 1788.5,1147.5 1797.7,1169.3 1808.7,1189.7 1821.7,1208.5 1836.5,1225.7 1853.1,1241.3 1871.5,1255.2 1891.8,1267.6 1913.7,1278.3 1937.2,1287.3 1962.4,1294.8 1989.1,1300.6 2017.1,1304.9 2046.6,1307.6 2077.2,1308.8 2108.9,1308.6 2141.6,1306.9 2175.2,1304.0 2209.4,1299.8 2244.2,1294.4 2279.4,1287.9 2314.8,1280.5 2350.3,1272.2 2385.6,1263.1  " style="stroke-opacity: 1.000000; stroke-width: 5.0; stroke: rgb(107,174,214); fill: none"  />
<path d="M 1209.8,2369.6 L 1220.9,2336.1 1231.7,2302.8 1242.2,2270.0 1252.3,2237.8 1261.8,2206.4 1270.8,2176.2 1279.0,2147.1 1286.6,2119.5 1293.3,2093.5 1299.2,2069.1 1304.2,2046.7 1308.3,2026.2 1311.4,2007.8 1313.5,1991.6 1314.5,1977.6 1314.5,1966.0 1313.4,1956.7 1311.2,1949.9 1308.0,1945.6 1303.6,1943.7 1298.2,1944.2 1291.7,1947.3 1284.2,1952.8 1275.6,1960.7 1266.1,1970.9 1255.6,1983.4 1244.2,1998.2 1232.0,2015.1 1218.9,2034.0 1205.1,2054.9 1190.5,2077.5 1175.4,2101.8 1159.7,2127.7 1143.6,2154.8 1127.1,2183.1 1110.3,2212.3 1093.3,2242.4 1076.2,2272.9 1059.2,2303.8  " style="stroke-opacity: 1.000000; stroke-width: 5.0; stroke: rgb(107,174,214); fill: none"  />
<path d="M 1209.8,2369.6 L 1220.9,2336.0 1231.5,2302.4 1241.7,2269.2 1251.2,2236.6 1260.0,2204.7 1268.1,2173.7 1275.2,2143.9 1281.5,2115.4 1286.7,2088.3 1290.9,2062.8 1293.9,2039.0 1295.8,2017.0 1296.5,1997.0 1295.9,1979.0 1294.1,1963.1 1291.0,1949.4 1286.7,1938.0 1281.0,1928.8 1274.0,1921.9 1265.7,1917.4 1256.2,1915.2 1245.4,1915.4 1233.4,1917.8 1220.2,1922.6 1205.8,1929.6 1190.3,1938.8 1173.8,1950.1 1156.3,1963.5 1137.9,1978.9 1118.6,1996.1 1098.6,2015.1 1077.9,2035.7 1056.6,2057.8 1034.8,2081.2 1012.7,2105.8 990.3,2131.4 967.7,2157.8 945.2,2184.8 922.8,2212.2  " style="stroke-opacity: 1.000000; stroke-width: 5.0; stroke: rgb(107,174,214); fill: none"  />
<path d="M 1209.8,2369.6 L 1221.1,2334.4 1231.6,2298.9 1241.2,2263.2 1249.7,2227.6 1257.0,2192.1 1263.1,2157.0 1267.8,2122.3 1271.1,2088.1 1272.8,2054.7 1273.0,2022.0 1271.6,1990.2 1268.4,1959.4 1263.5,1929.7 1256.9,1901.2 1248.5,1873.9 1238.2,1847.9 1226.2,1823.3 1212.4,1800.1 1196.7,1778.3 1179.3,1758.1 1160.2,1739.4 1139.3,1722.2 1116.8,1706.6 1092.6,1692.6 1066.9,1680.2 1039.7,1669.4 1011.0,1660.1 981.1,1652.4 949.9,1646.2 917.6,1641.4 884.2,1638.2 850.0,1636.3 814.9,1635.7 779.3,1636.5 743.1,1638.4 706.6,1641.5 669.9,1645.6 633.2,1650.6 596.7,1656.5  " style="stroke-opacity: 1.000000; stroke-width: 5.0; stroke: rgb(107,174,214); fill: none"  />
<path d="M 1209.8,2369.6 L 1221.5,2333.1 1232.3,2296.2 1242.2,2258.9 1250.9,2221.3 1258.5,2183.6 1264.7,2145.9 1269.6,2108.3 1273.1,2070.9 1275.0,2033.7 1275.4,1997.0 1274.1,1960.6 1271.2,1924.8 1266.5,1889.6 1260.1,1855.1 1251.9,1821.4 1241.9,1788.4 1230.1,1756.3 1216.6,1725.1 1201.2,1694.9 1184.1,1665.8 1165.2,1637.6 1144.6,1610.6 1122.3,1584.6 1098.4,1559.9 1073.0,1536.2 1046.0,1513.8 1017.5,1492.6 987.7,1472.5 956.6,1453.7 924.3,1436.1 890.9,1419.6 856.6,1404.4 821.4,1390.3 785.4,1377.4 748.8,1365.6 711.8,1355.0 674.4,1345.3 636.9,1336.8 599.3,1329.2  " style="stroke-opacity: 1.000000; stroke-width: 5.0; stroke: rgb(107,174,214); fill: none"  />
<path d="M 2011.1,738.9 L 1991.2,768.2 1971.2,797.2 1951.1,825.5 1931.0,853.0 1911.2,879.5 1891.6,904.7 1872.4,928.6 1853.6,951.0 1835.4,971.7 1817.7,990.6 1800.7,1007.5 1784.5,1022.4 1769.1,1035.2 1754.5,1045.8 1740.8,1054.0 1728.1,1060.0 1716.3,1063.5 1705.6,1064.6 1695.9,1063.3 1687.3,1059.5 1679.7,1053.3 1673.2,1044.7 1667.8,1033.6 1663.5,1020.3 1660.3,1004.6 1658.1,986.8 1657.0,966.8 1656.9,944.7 1657.8,920.7 1659.7,895.0 1662.5,867.5 1666.1,838.5 1670.6,808.2 1675.8,776.6 1681.8,744.1 1688.3,710.7 1695.5,676.7 1703.1,642.4 1711.1,607.9  " style="stroke-opacity: 1.000000; stroke-width: 5.0; stroke: rgb(107,174,214); fill: none"  />
<path d="M 2138.8,842.4 L 2114.2,867.8 2090.0,893.1 2066.3,918.1 2043.3,942.8 2021.1,966.9 1999.9,990.3 1979.9,1012.8 1961.1,1034.5 1943.7,1055.0 1927.8,1074.3 1913.6,1092.4 1901.0,1109.1 1890.3,1124.3 1881.4,1138.0 1874.4,1150.2 1869.3,1160.7 1866.3,1169.5 1865.3,1176.5 1866.3,1181.9 1869.4,1185.5 1874.6,1187.3 1881.7,1187.4 1890.9,1185.7 1902.0,1182.3 1915.0,1177.2 1929.9,1170.5 1946.6,1162.1 1965.0,1152.2 1985.0,1140.8 2006.5,1128.0 2029.4,1113.9 2053.6,1098.6 2078.9,1082.1 2105.2,1064.7 2132.4,1046.4 2160.2,1027.3 2188.5,1007.6 2217.2,987.5 2245.9,967.0  " style="stroke-opacity: 1.000000; stroke-width: 5.0; stroke: rgb(107,174,214); fill: none"  />
<path d="M 2138.8,842.4 L 2114.2,867.9 2090.1,893.5 2066.5,919.0 2043.8,944.3 2022.0,969.2 2001.3,993.6 1981.9,1017.4 1963.9,1040.4 1947.4,1062.5 1932.6,1083.7 1919.5,1103.8 1908.3,1122.8 1899.0,1140.5 1891.7,1157.0 1886.4,1172.1 1883.3,1185.7 1882.3,1198.0 1883.4,1208.7 1886.7,1217.9 1892.2,1225.6 1899.8,1231.7 1909.6,1236.2 1921.5,1239.2 1935.5,1240.7 1951.5,1240.6 1969.4,1239.0 1989.2,1236.0 2010.8,1231.5 2034.0,1225.6 2058.9,1218.5 2085.1,1210.1 2112.7,1200.5 2141.5,1189.8 2171.3,1178.2 2201.9,1165.6 2233.2,1152.3 2264.9,1138.3 2297.0,1123.8 2329.1,1108.8  " style="stroke-opacity: 1.000000; stroke-width: 5.0; stroke: rgb(107,174,214); fill: none"  />
<path d="M 2138.8,842.4 L 2113.9,868.5 2089.6,894.9 2066.0,921.5 2043.4,948.3 2021.8,975.1 2001.6,1001.7 1982.7,1028.2 1965.4,1054.3 1949.8,1080.0 1936.0,1105.2 1924.1,1129.9 1914.2,1153.9 1906.3,1177.2 1900.6,1199.7 1897.1,1221.3 1895.8,1242.1 1896.8,1261.9 1900.1,1280.6 1905.6,1298.4 1913.5,1315.1 1923.7,1330.7 1936.1,1345.2 1950.7,1358.5 1967.6,1370.7 1986.5,1381.7 2007.5,1391.6 2030.5,1400.3 2055.3,1407.9 2081.9,1414.4 2110.2,1419.8 2140.0,1424.1 2171.1,1427.4 2203.5,1429.7 2237.0,1431.0 2271.3,1431.4 2306.3,1430.9 2341.9,1429.7 2377.8,1427.7 2413.7,1425.1  " style="stroke-opacity: 1.000000; stroke-width: 5.0; stroke: rgb(107,174,214); fill: none"  />
<path d="M 2138.8,842.4 L 2113.6,868.8 2089.1,895.7 2065.3,923.0 2042.5,950.6 2020.8,978.4 2000.4,1006.2 1981.5,1034.1 1964.1,1061.8 1948.4,1089.4 1934.6,1116.7 1922.6,1143.7 1912.6,1170.3 1904.7,1196.4 1898.9,1222.0 1895.3,1247.0 1894.0,1271.4 1894.9,1295.0 1898.1,1317.9 1903.6,1340.1 1911.4,1361.4 1921.5,1381.8 1933.9,1401.4 1948.4,1420.1 1965.2,1437.8 1984.1,1454.5 2005.0,1470.3 2027.9,1485.2 2052.7,1499.0 2079.3,1511.9 2107.6,1523.8 2137.3,1534.7 2168.5,1544.7 2201.0,1553.7 2234.5,1561.8 2269.0,1569.0 2304.2,1575.3 2340.0,1580.8 2376.1,1585.5 2412.4,1589.4  " style="stroke-opacity: 1.000000; stroke-width: 5.0; stroke: rgb(107,174,214); fill: none"  />
<path d="M 2245.9,967.0 L 2216.4,987.7 2186.7,1007.8 2156.8,1027.1 2126.9,1045.5 2097.2,1062.8 2067.8,1078.8 2038.9,1093.5 2010.5,1106.6 1982.7,1118.2 1955.7,1128.1 1929.5,1136.2 1904.3,1142.4 1880.1,1146.6 1857.0,1148.9 1835.1,1149.2 1814.4,1147.3 1794.9,1143.4 1776.8,1137.4 1760.1,1129.2 1744.8,1118.9 1730.9,1106.5 1718.5,1092.1 1707.5,1075.6 1698.0,1057.1 1689.9,1036.7 1683.3,1014.5 1678.1,990.5 1674.3,964.8 1671.8,937.5 1670.8,908.7 1671.0,878.7 1672.4,847.4 1675.0,815.0 1678.7,781.7 1683.5,747.7 1689.2,713.1 1695.7,678.2 1703.1,643.0 1711.1,607.9  " style="stroke-opacity: 1.000000; stroke-width: 5.0; stroke: rgb(107,174,214); fill: none"  />
<path d="M 2245.9,967.0 L 2217.0,987.5 2188.1,1007.5 2159.3,1027.0 2130.9,1045.7 2103.0,1063.5 2075.8,1080.3 2049.4,1095.9 2024.0,1110.3 1999.6,1123.2 1976.4,1134.7 1954.6,1144.6 1934.2,1152.9 1915.2,1159.4 1897.9,1164.2 1882.2,1167.1 1868.2,1168.2 1855.9,1167.3 1845.5,1164.6 1836.9,1160.0 1830.1,1153.4 1825.2,1144.9 1822.2,1134.6 1821.0,1122.4 1821.7,1108.3 1824.1,1092.5 1828.4,1075.1 1834.4,1055.9 1842.0,1035.3 1851.3,1013.1 1862.1,989.7 1874.4,964.9 1888.0,939.1 1902.8,912.3 1918.8,884.6 1935.8,856.2 1953.7,827.2 1972.3,797.9 1991.5,768.4 2011.1,738.9  " style="stroke-opacity: 1.000000; stroke-width: 5.0; stroke: rgb(107,174,214); fill: none"  />
<path d="M 2245.9,967.0 L 2217.2,987.8 2188.9,1008.6 2161.1,1029.5 2134.2,1050.3 2108.3,1071.0 2083.6,1091.3 2060.3,1111.2 2038.5,1130.6 2018.3,1149.4 2000.0,1167.6 1983.5,1185.1 1969.1,1201.7 1956.8,1217.5 1946.6,1232.4 1938.8,1246.3 1933.2,1259.2 1930.0,1271.1 1929.2,1281.8 1930.8,1291.5 1934.9,1300.0 1941.3,1307.4 1950.1,1313.6 1961.3,1318.7 1974.8,1322.6 1990.5,1325.4 2008.4,1327.0 2028.5,1327.6 2050.5,1327.0 2074.4,1325.4 2100.1,1322.8 2127.5,1319.2 2156.4,1314.7 2186.6,1309.4 2217.9,1303.2 2250.3,1296.3 2283.5,1288.8 2317.2,1280.7 2351.4,1272.1 2385.6,1263.1  " style="stroke-opacity: 1.000000; stroke-width: 5.0; stroke: rgb(107,174,214); fill: none"  />
<path d="M 2245.9,967.0 L 2217.0,988.0 2188.6,1009.2 2160.8,1030.6 2133.9,1052.2 2108.1,1073.7 2083.5,1095.2 2060.3,1116.4 2038.8,1137.4 2018.9,1158.1 2000.8,1178.4 1984.8,1198.2 1970.8,1217.4 1958.9,1236.0 1949.3,1254.0 1942.0,1271.3 1937.1,1287.8 1934.6,1303.6 1934.5,1318.5 1936.9,1332.5 1941.7,1345.7 1948.9,1357.9 1958.6,1369.2 1970.7,1379.6 1985.2,1389.1 2001.9,1397.5 2020.8,1405.1 2041.9,1411.7 2065.0,1417.3 2090.1,1422.0 2116.9,1425.8 2145.5,1428.8 2175.5,1430.9 2207.0,1432.1 2239.6,1432.6 2273.2,1432.4 2307.6,1431.5 2342.7,1429.9 2378.1,1427.7 2413.7,1425.1  " style="stroke-opacity: 1.000000; stroke-width: 5.0; stroke: rgb(107,174,214); fill: none"  />
<path d="M 2245.9,967.0 L 2216.8,988.2 2188.1,1009.9 2160.2,1031.9 2133.1,1054.2 2107.2,1076.7 2082.5,1099.3 2059.2,1121.9 2037.6,1144.6 2017.6,1167.1 1999.5,1189.4 1983.4,1211.6 1969.3,1233.4 1957.5,1254.9 1947.8,1276.0 1940.5,1296.7 1935.5,1316.9 1932.9,1336.5 1932.8,1355.6 1935.1,1374.1 1939.9,1391.9 1947.1,1409.0 1956.7,1425.5 1968.8,1441.2 1983.1,1456.2 1999.8,1470.5 2018.7,1484.0 2039.7,1496.7 2062.8,1508.6 2087.9,1519.7 2114.7,1530.1 2143.2,1539.6 2173.3,1548.4 2204.8,1556.4 2237.4,1563.7 2271.2,1570.2 2305.7,1576.0 2340.9,1581.1 2376.6,1585.6 2412.4,1589.4  " style="stroke-opacity: 1.000000; stroke-width: 5.0; stroke: rgb(107,174,214); fill: none"  />
<path d="M 2245.9,967.0 L 2216.5,988.5 2187.5,1010.6 2159.2,1033.2 2131.9,1056.3 2105.6,1079.8 2080.6,1103.5 2057.0,1127.5 2034.9,1151.7 2014.6,1176.1 1996.0,1200.5 1979.4,1224.9 1964.8,1249.3 1952.4,1273.6 1942.1,1297.7 1934.1,1321.7 1928.5,1345.4 1925.1,1368.8 1924.2,1392.0 1925.7,1414.7 1929.5,1437.1 1935.8,1459.0 1944.5,1480.5 1955.5,1501.4 1968.8,1521.8 1984.4,1541.7 2002.2,1561.0 2022.1,1579.7 2044.0,1597.7 2067.9,1615.1 2093.5,1631.9 2120.9,1648.0 2149.8,1663.3 2180.1,1678.0 2211.7,1692.0 2244.3,1705.2 2277.9,1717.7 2312.1,1729.5 2346.8,1740.6 2381.8,1750.9  " style="stroke-opacity: 1.000000; stroke-width: 5.0; stroke: rgb(107,174,214); fill: none"  />
<path d="M 2329.1,1108.8 L 2297.0,1123.8 2264.9,1138.3 2233.2,1152.3 2201.9,1165.6 2171.3,1178.2 2141.5,1189.8 2112.7,1200.5 2085.1,1210.1 2058.9,1218.5 2034.0,1225.6 2010.8,1231.5 1989.2,1236.0 1969.4,1239.0 1951.5,1240.6 1935.5,1240.7 1921.5,1239.2 1909.6,1236.2 1899.8,1231.7 1892.2,1225.6 1886.7,1217.9 1883.4,1208.7 1882.3,1198.0 1883.3,1185.7 1886.4,1172.1 1891.7,1157.0 1899.0,1140.5 1908.3,1122.8 1919.5,1103.8 1932.6,1083.7 1947.4,1062.5 1963.9,1040.4 1981.9,1017.4 2001.3,993.6 2022.0,969.2 2043.8,944.3 2066.5,919.0 2090.1,893.5 2114.2,867.9 2138.8,842.4  " style="stroke-opacity: 1.000000; stroke-width: 5.0; stroke: rgb(107,174,214); fill: none"  />
<path d="M 2329.1,1108.8 L 2297.2,1123.8 2265.4,1138.5 2234.0,1152.8 2203.2,1166.6 2173.2,1179.8 2144.2,1192.2 2116.4,1203.9 2089.8,1214.7 2064.8,1224.4 2041.3,1233.2 2019.6,1240.8 1999.8,1247.3 1981.9,1252.5 1966.0,1256.5 1952.3,1259.2 1940.7,1260.6 1931.4,1260.6 1924.4,1259.2 1919.7,1256.5 1917.3,1252.4 1917.2,1247.0 1919.4,1240.2 1924.0,1232.1 1930.8,1222.6 1939.9,1211.9 1951.1,1200.0 1964.4,1187.0 1979.7,1172.8 1997.0,1157.6 2016.0,1141.4 2036.8,1124.3 2059.1,1106.4 2082.9,1087.7 2107.9,1068.5 2134.1,1048.7 2161.1,1028.6 2188.9,1008.2 2217.3,987.6 2245.9,967.0  " style="stroke-opacity: 1.000000; stroke-width: 5.0; stroke: rgb(107,174,214); fill: none"  />
<path d="M 2329.1,1108.8 L 2297.1,1124.1 2265.5,1139.5 2234.5,1155.1 2204.3,1170.8 2175.2,1186.5 2147.3,1202.1 2120.7,1217.5 2095.8,1232.7 2072.6,1247.6 2051.3,1262.2 2032.0,1276.5 2014.8,1290.3 1999.9,1303.6 1987.2,1316.5 1977.0,1328.8 1969.3,1340.5 1964.0,1351.5 1961.3,1362.0 1961.2,1371.8 1963.6,1380.9 1968.6,1389.3 1976.2,1397.0 1986.3,1404.0 1998.8,1410.2 2013.8,1415.8 2031.2,1420.6 2050.8,1424.7 2072.5,1428.1 2096.4,1430.8 2122.1,1432.8 2149.7,1434.2 2178.9,1434.9 2209.6,1435.0 2241.5,1434.6 2274.6,1433.6 2308.6,1432.1 2343.3,1430.2 2378.4,1427.8 2413.7,1425.1  " style="stroke-opacity: 1.000000; stroke-width: 5.0; stroke: rgb(107,174,214); fill: none"  />
<path d="M 2329.1,1108.8 L 2296.9,1124.2 2265.2,1140.0 2234.0,1156.2 2203.7,1172.6 2174.4,1189.1 2146.4,1205.9 2119.8,1222.6 2094.8,1239.5 2071.6,1256.3 2050.2,1273.0 2030.9,1289.6 2013.7,1306.0 1998.7,1322.2 1986.0,1338.2 1975.8,1353.9 1968.0,1369.3 1962.7,1384.3 1959.9,1399.0 1959.7,1413.2 1962.1,1427.0 1967.1,1440.4 1974.6,1453.2 1984.7,1465.6 1997.2,1477.5 2012.1,1488.8 2029.4,1499.6 2049.0,1509.8 2070.7,1519.5 2094.5,1528.6 2120.3,1537.2 2147.8,1545.2 2177.0,1552.6 2207.7,1559.5 2239.7,1565.8 2272.8,1571.5 2306.9,1576.8 2341.7,1581.5 2376.9,1585.7 2412.4,1589.4  " style="stroke-opacity: 1.000000; stroke-width: 5.0; stroke: rgb(107,174,214); fill: none"  />
<path d="M 1059.2,2303.8 L 1076.4,2272.8 1093.7,2242.2 1111.2,2212.2 1128.7,2183.1 1146.1,2154.9 1163.3,2128.0 1180.3,2102.4 1197.0,2078.5 1213.4,2056.2 1229.2,2035.8 1244.6,2017.4 1259.4,2001.1 1273.7,1987.0 1287.2,1975.2 1300.1,1965.8 1312.3,1958.7 1323.7,1954.1 1334.2,1952.1 1344.0,1952.5 1353.0,1955.5 1361.1,1961.0 1368.3,1969.0 1374.6,1979.5 1380.1,1992.5 1384.7,2007.8 1388.5,2025.4 1391.4,2045.2 1393.5,2067.1 1394.7,2091.1 1395.2,2116.9 1394.9,2144.5 1393.8,2173.7 1392.1,2204.3 1389.7,2236.2 1386.7,2269.2 1383.2,2303.0 1379.1,2337.5 1374.6,2372.4 1369.8,2407.5  " style="stroke-opacity: 1.000000; stroke-width: 5.0; stroke: rgb(107,174,214); fill: none"  />
<path d="M 1059.2,2303.8 L 1076.2,2272.9 1093.3,2242.4 1110.3,2212.3 1127.1,2183.1 1143.6,2154.8 1159.7,2127.7 1175.4,2101.8 1190.5,2077.5 1205.1,2054.9 1218.9,2034.0 1232.0,2015.1 1244.2,1998.2 1255.6,1983.4 1266.1,1970.9 1275.6,1960.7 1284.2,1952.8 1291.7,1947.3 1298.2,1944.2 1303.6,1943.7 1308.0,1945.6 1311.2,1949.9 1313.4,1956.7 1314.5,1966.0 1314.5,1977.6 1313.5,1991.6 1311.4,2007.8 1308.3,2026.2 1304.2,2046.7 1299.2,2069.1 1293.3,2093.5 1286.6,2119.5 1279.0,2147.1 1270.8,2176.2 1261.8,2206.4 1252.3,2237.8 1242.2,2270.0 1231.7,2302.8 1220.9,2336.1 1209.8,2369.6  " style="stroke-opacity: 1.000000; stroke-width: 5.0; stroke: rgb(107,174,214); fill: none"  />
<path d="M 1059.2,2303.8 L 1076.9,2270.6 1093.8,2236.9 1109.8,2202.7 1124.8,2168.3 1138.6,2133.6 1151.0,2098.9 1162.1,2064.1 1171.6,2029.5 1179.6,1995.0 1185.9,1960.9 1190.4,1927.1 1193.1,1893.7 1194.0,1860.9 1192.9,1828.6 1189.9,1797.0 1184.9,1766.1 1177.9,1736.0 1168.9,1706.7 1157.9,1678.2 1144.9,1650.7 1130.0,1624.2 1113.1,1598.6 1094.3,1574.0 1073.6,1550.5 1051.1,1528.1 1026.9,1506.8 1001.0,1486.5 973.5,1467.4 944.5,1449.4 914.2,1432.6 882.5,1416.8 849.7,1402.1 815.9,1388.6 781.1,1376.1 745.6,1364.7 709.5,1354.4 673.0,1345.0 636.2,1336.6 599.3,1329.2  " style="stroke-opacity: 1.000000; stroke-width: 5.0; stroke: rgb(107,174,214); fill: none"  />
<path d="M 922.8,2212.2 L 945.2,2184.8 967.7,2157.8 990.3,2131.4 1012.7,2105.8 1034.8,2081.2 1056.6,2057.8 1077.9,2035.7 1098.6,2015.1 1118.6,1996.1 1137.9,1978.9 1156.3,1963.5 1173.8,1950.1 1190.3,1938.8 1205.8,1929.6 1220.2,1922.6 1233.4,1917.8 1245.4,1915.4 1256.2,1915.2 1265.7,1917.4 1274.0,1921.9 1281.0,1928.8 1286.7,1938.0 1291.0,1949.4 1294.1,1963.1 1295.9,1979.0 1296.5,1997.0 1295.8,2017.0 1293.9,2039.0 1290.9,2062.8 1286.7,2088.3 1281.5,2115.4 1275.2,2143.9 1268.1,2173.7 1260.0,2204.7 1251.2,2236.6 1241.7,2269.2 1231.5,2302.4 1220.9,2336.0 1209.8,2369.6  " style="stroke-opacity: 1.000000; stroke-width: 5.0; stroke: rgb(107,174,214); fill: none"  />
<path d="M 922.8,2212.2 L 945.7,2183.2 968.1,2153.6 989.5,2123.6 1010.0,2093.2 1029.3,2062.6 1047.4,2031.8 1064.0,2001.0 1079.0,1970.2 1092.4,1939.5 1104.1,1908.9 1113.9,1878.7 1121.7,1848.8 1127.6,1819.2 1131.4,1790.2 1133.1,1761.7 1132.7,1733.8 1130.1,1706.5 1125.3,1679.9 1118.3,1654.0 1109.1,1629.0 1097.7,1604.7 1084.2,1581.3 1068.6,1558.8 1050.9,1537.2 1031.2,1516.5 1009.5,1496.8 986.0,1478.1 960.6,1460.3 933.6,1443.5 905.0,1427.8 874.9,1413.0 843.5,1399.2 810.9,1386.4 777.3,1374.5 742.7,1363.6 707.5,1353.7 671.7,1344.6 635.6,1336.5 599.3,1329.2  " style="stroke-opacity: 1.000000; stroke-width: 5.0; stroke: rgb(107,174,214); fill: none"  />
<path d="M 2385.6,1263.1 L 2350.3,1272.2 2314.8,1280.5 2279.4,1287.9 2244.2,1294.4 2209.4,1299.8 2175.2,1304.0 2141.6,1306.9 2108.9,1308.6 2077.2,1308.8 2046.6,1307.6 2017.1,1304.9 1989.1,1300.6 1962.4,1294.8 1937.2,1287.3 1913.7,1278.3 1891.8,1267.6 1871.5,1255.2 1853.1,1241.3 1836.5,1225.7 1821.7,1208.5 1808.7,1189.7 1797.7,1169.3 1788.5,1147.5 1781.2,1124.2 1775.8,1099.6 1772.2,1073.6 1770.4,1046.3 1770.4,1017.9 1772.2,988.5 1775.6,958.0 1780.6,926.7 1787.1,894.6 1795.0,861.9 1804.3,828.6 1814.9,795.0 1826.5,761.2 1839.2,727.3 1852.7,693.5 1867.0,659.9  " style="stroke-opacity: 1.000000; stroke-width: 5.0; stroke: rgb(107,174,214); fill: none"  />
<path d="M 2385.6,1263.1 L 2350.7,1272.1 2315.8,1280.5 2281.1,1288.1 2246.7,1294.8 2212.8,1300.5 2179.6,1305.2 2147.4,1308.7 2116.1,1311.1 2086.1,1312.1 2057.3,1311.9 2030.0,1310.3 2004.2,1307.2 1980.0,1302.7 1957.6,1296.7 1937.0,1289.3 1918.2,1280.3 1901.4,1269.8 1886.6,1257.8 1873.8,1244.2 1863.1,1229.2 1854.5,1212.7 1847.9,1194.8 1843.4,1175.5 1841.0,1154.9 1840.6,1133.0 1842.2,1109.8 1845.7,1085.5 1851.2,1060.1 1858.5,1033.7 1867.6,1006.4 1878.4,978.3 1890.7,949.5 1904.5,920.2 1919.7,890.3 1936.1,860.1 1953.6,829.8 1972.0,799.3 1991.3,769.0 2011.1,738.9  " style="stroke-opacity: 1.000000; stroke-width: 5.0; stroke: rgb(107,174,214); fill: none"  />
<path d="M 2413.7,1425.1 L 2377.8,1427.7 2341.9,1429.7 2306.3,1430.9 2271.3,1431.4 2237.0,1431.0 2203.5,1429.7 2171.1,1427.4 2140.0,1424.1 2110.2,1419.8 2081.9,1414.4 2055.3,1407.9 2030.5,1400.3 2007.5,1391.6 1986.5,1381.7 1967.6,1370.7 1950.7,1358.5 1936.1,1345.2 1923.7,1330.7 1913.5,1315.1 1905.6,1298.4 1900.1,1280.6 1896.8,1261.9 1895.8,1242.1 1897.1,1221.3 1900.6,1199.7 1906.3,1177.2 1914.2,1153.9 1924.1,1129.9 1936.0,1105.2 1949.8,1080.0 1965.4,1054.3 1982.7,1028.2 2001.6,1001.7 2021.8,975.1 2043.4,948.3 2066.0,921.5 2089.6,894.9 2113.9,868.5 2138.8,842.4  " style="stroke-opacity: 1.000000; stroke-width: 5.0; stroke: rgb(107,174,214); fill: none"  />
<path d="M 2413.7,1425.1 L 2378.4,1427.8 2343.3,1430.2 2308.6,1432.1 2274.6,1433.6 2241.5,1434.6 2209.6,1435.0 2178.9,1434.9 2149.7,1434.2 2122.1,1432.8 2096.4,1430.8 2072.5,1428.1 2050.8,1424.7 2031.2,1420.6 2013.8,1415.8 1998.8,1410.2 1986.3,1404.0 1976.2,1397.0 1968.6,1389.3 1963.6,1380.9 1961.2,1371.8 1961.3,1362.0 1964.0,1351.5 1969.3,1340.5 1977.0,1328.8 1987.2,1316.5 1999.9,1303.6 2014.8,1290.3 2032.0,1276.5 2051.3,1262.2 2072.6,1247.6 2095.8,1232.7 2120.7,1217.5 2147.3,1202.1 2175.2,1186.5 2204.3,1170.8 2234.5,1155.1 2265.5,1139.5 2297.1,1124.1 2329.1,1108.8  " style="stroke-opacity: 1.000000; stroke-width: 5.0; stroke: rgb(107,174,214); fill: none"  />
<path d="M 2413.7,1425.1 L 2378.5,1428.0 2343.7,1431.1 2309.3,1434.4 2275.8,1437.8 2243.2,1441.4 2211.8,1445.1 2181.9,1448.9 2153.5,1452.8 2126.9,1456.8 2102.3,1460.9 2079.6,1465.2 2059.2,1469.5 2041.1,1473.9 2025.3,1478.3 2012.1,1482.9 2001.4,1487.4 1993.3,1492.1 1987.9,1496.8 1985.2,1501.5 1985.1,1506.2 1987.8,1511.0 1993.1,1515.7 2001.1,1520.5 2011.8,1525.3 2024.9,1530.0 2040.6,1534.7 2058.6,1539.4 2079.0,1544.0 2101.6,1548.6 2126.2,1553.1 2152.7,1557.6 2181.0,1561.9 2210.9,1566.2 2242.2,1570.4 2274.7,1574.5 2308.2,1578.4 2342.5,1582.2 2377.3,1585.9 2412.4,1589.4  " style="stroke-opacity: 1.000000; stroke-width: 5.0; stroke: rgb(107,174,214); fill: none"  />
<path d="M 2412.4,1589.4 L 2374.3,1585.2 2336.1,1580.0 2298.1,1573.8 2260.2,1566.5 2222.7,1558.0 2185.7,1548.4 2149.4,1537.5 2113.8,1525.4 2079.1,1512.1 2045.4,1497.4 2012.7,1481.4 1981.2,1464.2 1951.0,1445.6 1922.1,1425.6 1894.6,1404.4 1868.6,1381.8 1844.0,1358.0 1821.1,1332.9 1799.8,1306.6 1780.1,1279.1 1762.1,1250.4 1745.8,1220.5 1731.2,1189.6 1718.3,1157.7 1707.1,1124.8 1697.6,1091.0 1689.8,1056.4 1683.7,1021.0 1679.2,984.9 1676.2,948.2 1674.8,911.1 1674.9,873.5 1676.4,835.6 1679.3,797.5 1683.4,759.3 1688.8,721.1 1695.2,683.0 1702.7,645.3 1711.1,607.9  " style="stroke-opacity: 1.000000; stroke-width: 5.0; stroke: rgb(107,174,214); fill: none"  />
<path d="M 2412.4,1589.4 L 2376.1,1585.5 2340.0,1580.8 2304.2,1575.3 2269.0,1569.0 2234.5,1561.8 2201.0,1553.7 2168.5,1544.7 2137.3,1534.7 2107.6,1523.8 2079.3,1511.9 2052.7,1499.0 2027.9,1485.2 2005.0,1470.3 1984.1,1454.5 1965.2,1437.8 1948.4,1420.1 1933.9,1401.4 1921.5,1381.8 1911.4,1361.4 1903.6,1340.1 1898.1,1317.9 1894.9,1295.0 1894.0,1271.4 1895.3,1247.0 1898.9,1222.0 1904.7,1196.4 1912.6,1170.3 1922.6,1143.7 1934.6,1116.7 1948.4,1089.4 1964.1,1061.8 1981.5,1034.1 2000.4,1006.2 2020.8,978.4 2042.5,950.6 2065.3,923.0 2089.1,895.7 2113.6,868.8 2138.8,842.4  " style="stroke-opacity: 1.000000; stroke-width: 5.0; stroke: rgb(107,174,214); fill: none"  />
<path d="M 2412.4,1589.4 L 2376.6,1585.6 2340.9,1581.1 2305.7,1576.0 2271.2,1570.2 2237.4,1563.7 2204.8,1556.4 2173.3,1548.4 2143.2,1539.6 2114.7,1530.1 2087.9,1519.7 2062.8,1508.6 2039.7,1496.7 2018.7,1484.0 1999.8,1470.5 1983.1,1456.2 1968.8,1441.2 1956.7,1425.5 1947.1,1409.0 1939.9,1391.9 1935.1,1374.1 1932.8,1355.6 1932.9,1336.5 1935.5,1316.9 1940.5,1296.7 1947.8,1276.0 1957.5,1254.9 1969.3,1233.4 1983.4,1211.6 1999.5,1189.4 2017.6,1167.1 2037.6,1144.6 2059.2,1121.9 2082.5,1099.3 2107.2,1076.7 2133.1,1054.2 2160.2,1031.9 2188.1,1009.9 2216.8,988.2 2245.9,967.0  " style="stroke-opacity: 1.000000; stroke-width: 5.0; stroke: rgb(107,174,214); fill: none"  />
<path d="M 2412.4,1589.4 L 2376.9,1585.7 2341.7,1581.5 2306.9,1576.8 2272.8,1571.5 2239.7,1565.8 2207.7,1559.5 2177.0,1552.6 2147.8,1545.2 2120.3,1537.2 2094.5,1528.6 2070.7,1519.5 2049.0,1509.8 2029.4,1499.6 2012.1,1488.8 1997.2,1477.5 1984.7,1465.6 1974.6,1453.2 1967.1,1440.4 1962.1,1427.0 1959.7,1413.2 1959.9,1399.0 1962.7,1384.3 1968.0,1369.3 1975.8,1353.9 1986.0,1338.2 1998.7,1322.2 2013.7,1306.0 2030.9,1289.6 2050.2,1273.0 2071.6,1256.3 2094.8,1239.5 2119.8,1222.6 2146.4,1205.9 2174.4,1189.1 2203.7,1172.6 2234.0,1156.2 2265.2,1140.0 2296.9,1124.2 2329.1,1108.8  " style="stroke-opacity: 1.000000; stroke-width: 5.0; stroke: rgb(107,174,214); fill: none"  />
<path d="M 2412.4,1589.4 L 2377.1,1585.8 2342.2,1581.8 2307.7,1577.6 2274.0,1573.0 2241.3,1568.0 2209.8,1562.8 2179.6,1557.2 2151.0,1551.2 2124.1,1545.0 2099.1,1538.4 2076.2,1531.5 2055.4,1524.2 2036.8,1516.7 2020.6,1508.9 2006.8,1500.7 1995.6,1492.3 1986.9,1483.7 1980.8,1474.7 1977.4,1465.6 1976.6,1456.2 1978.5,1446.6 1983.1,1436.8 1990.2,1426.8 1999.9,1416.7 2012.2,1406.4 2026.9,1396.0 2044.0,1385.6 2063.3,1375.1 2084.9,1364.5 2108.5,1353.9 2134.0,1343.4 2161.2,1332.9 2190.0,1322.4 2220.3,1312.1 2251.8,1301.9 2284.3,1291.8 2317.6,1282.0 2351.4,1272.4 2385.6,1263.1  " style="stroke-opacity: 1.000000; stroke-width: 5.0; stroke: rgb(107,174,214); fill: none"  />
<path d="M 2412.4,1589.4 L 2377.3,1585.9 2342.5,1582.2 2308.2,1578.4 2274.7,1574.5 2242.2,1570.4 2210.9,1566.2 2181.0,1561.9 2152.7,1557.6 2126.2,1553.1 2101.6,1548.6 2079.0,1544.0 2058.6,1539.4 2040.6,1534.7 2024.9,1530.0 2011.8,1525.3 2001.1,1520.5 1993.1,1515.7 1987.8,1511.0 1985.1,1506.2 1985.2,1501.5 1987.9,1496.8 1993.3,1492.1 2001.4,1487.4 2012.1,1482.9 2025.3,1478.3 2041.1,1473.9 2059.2,1469.5 2079.6,1465.2 2102.3,1460.9 2126.9,1456.8 2153.5,1452.8 2181.9,1448.9 2211.8,1445.1 2243.2,1441.4 2275.8,1437.8 2309.3,1434.4 2343.7,1431.1 2378.5,1428.0 2413.7,1425.1  " style="stroke-opacity: 1.000000; stroke-width: 5.0; stroke: rgb(107,174,214); fill: none"  />
<path d="M 596.7,1656.5 L 632.7,1650.7 668.8,1645.6 704.7,1641.4 740.4,1638.1 775.5,1635.8 810.0,1634.7 843.7,1634.8 876.4,1636.1 908.0,1638.7 938.4,1642.7 967.4,1648.0 995.0,1654.7 1021.1,1662.9 1045.5,1672.6 1068.1,1683.7 1089.0,1696.4 1108.0,1710.5 1125.1,1726.0 1140.3,1743.1 1153.5,1761.5 1164.7,1781.4 1173.9,1802.6 1181.0,1825.2 1186.2,1849.0 1189.4,1874.1 1190.7,1900.3 1190.0,1927.6 1187.4,1955.9 1183.1,1985.1 1177.0,2015.1 1169.2,2045.9 1159.8,2077.2 1149.0,2109.1 1136.7,2141.4 1123.2,2173.9 1108.6,2206.6 1092.9,2239.2 1076.4,2271.7 1059.2,2303.8  " style="stroke-opacity: 1.000000; stroke-width: 5.0; stroke: rgb(107,174,214); fill: none"  />
<path d="M 2381.8,1750.9 L 2346.3,1740.4 2311.0,1729.0 2276.2,1716.8 2242.0,1703.7 2208.6,1689.8 2176.1,1675.0 2144.8,1659.3 2114.8,1642.7 2086.1,1625.3 2059.1,1607.0 2033.6,1587.9 2010.0,1567.9 1988.2,1547.1 1968.4,1525.5 1950.6,1503.2 1934.9,1480.1 1921.4,1456.3 1910.0,1431.8 1900.9,1406.6 1894.0,1380.8 1889.3,1354.4 1887.0,1327.5 1886.8,1300.1 1888.9,1272.3 1893.1,1244.0 1899.5,1215.4 1908.0,1186.5 1918.5,1157.4 1931.0,1128.2 1945.3,1098.8 1961.4,1069.4 1979.2,1040.1 1998.5,1010.9 2019.2,981.8 2041.2,953.1 2064.3,924.7 2088.4,896.7 2113.3,869.2 2138.8,842.4  " style="stroke-opacity: 1.000000; stroke-width: 5.0; stroke: rgb(107,174,214); fill: none"  />
<path d="M 2381.8,1750.9 L 2346.8,1740.6 2312.1,1729.5 2277.9,1717.7 2244.3,1705.2 2211.7,1692.0 2180.1,1678.0 2149.8,1663.3 2120.9,1648.0 2093.5,1631.9 2067.9,1615.1 2044.0,1597.7 2022.1,1579.7 2002.2,1561.0 1984.4,1541.7 1968.8,1521.8 1955.5,1501.4 1944.5,1480.5 1935.8,1459.0 1929.5,1437.1 1925.7,1414.7 1924.2,1392.0 1925.1,1368.8 1928.5,1345.4 1934.1,1321.7 1942.1,1297.7 1952.4,1273.6 1964.8,1249.3 1979.4,1224.9 1996.0,1200.5 2014.6,1176.1 2034.9,1151.7 2057.0,1127.5 2080.6,1103.5 2105.6,1079.8 2131.9,1056.3 2159.2,1033.2 2187.5,1010.6 2216.5,988.5 2245.9,967.0  " style="stroke-opacity: 1.000000; stroke-width: 5.0; stroke: rgb(107,174,214); fill: none"  />
<path d="M 2381.8,1750.9 L 2347.2,1740.7 2312.9,1730.0 2279.2,1718.7 2246.2,1706.8 2214.2,1694.3 2183.4,1681.3 2153.8,1667.8 2125.8,1653.8 2099.4,1639.3 2074.9,1624.4 2052.3,1608.9 2031.7,1593.1 2013.2,1576.8 1997.1,1560.2 1983.2,1543.2 1971.7,1525.9 1962.7,1508.3 1956.1,1490.3 1952.1,1472.2 1950.6,1453.8 1951.6,1435.2 1955.2,1416.5 1961.2,1397.6 1969.7,1378.6 1980.6,1359.6 1993.9,1340.6 2009.4,1321.5 2027.1,1302.5 2046.9,1283.6 2068.7,1264.9 2092.4,1246.3 2117.7,1227.9 2144.7,1209.7 2173.0,1191.9 2202.6,1174.4 2233.2,1157.3 2264.6,1140.6 2296.6,1124.4 2329.1,1108.8  " style="stroke-opacity: 1.000000; stroke-width: 5.0; stroke: rgb(107,174,214); fill: none"  />
<path d="M 2381.8,1750.9 L 2347.7,1741.0 2314.0,1730.9 2280.9,1720.6 2248.6,1710.0 2217.2,1699.3 2187.2,1688.5 2158.5,1677.6 2131.4,1666.7 2106.1,1655.7 2082.7,1644.7 2061.3,1633.8 2042.1,1623.0 2025.2,1612.3 2010.6,1601.7 1998.6,1591.2 1989.0,1581.0 1982.0,1570.9 1977.6,1561.0 1975.9,1551.4 1976.8,1542.0 1980.4,1532.9 1986.6,1524.0 1995.4,1515.5 2006.8,1507.3 2020.7,1499.4 2037.0,1491.8 2055.7,1484.6 2076.6,1477.7 2099.7,1471.1 2124.8,1464.9 2151.7,1459.1 2180.4,1453.6 2210.7,1448.5 2242.3,1443.7 2275.1,1439.3 2308.9,1435.2 2343.4,1431.5 2378.4,1428.1 2413.7,1425.1  " style="stroke-opacity: 1.000000; stroke-width: 5.0; stroke: rgb(107,174,214); fill: none"  />
<path d="M 583.3,1492.7 L 618.5,1492.9 653.5,1493.0 688.0,1492.8 721.8,1492.4 754.5,1491.8 786.1,1490.9 816.3,1489.8 844.9,1488.5 871.7,1486.8 896.7,1484.9 919.6,1482.7 940.3,1480.3 958.8,1477.5 974.8,1474.5 988.4,1471.2 999.5,1467.6 1007.9,1463.7 1013.8,1459.5 1016.9,1455.0 1017.4,1450.3 1015.1,1445.4 1010.3,1440.1 1002.7,1434.7 992.6,1429.0 979.9,1423.1 964.7,1417.0 947.1,1410.7 927.3,1404.3 905.2,1397.7 881.1,1391.0 855.1,1384.2 827.3,1377.3 797.9,1370.3 767.1,1363.4 735.1,1356.4 702.1,1349.5 668.3,1342.6 633.9,1335.8 599.3,1329.2  " style="stroke-opacity: 1.000000; stroke-width: 5.0; stroke: rgb(107,174,214); fill: none"  />
<path d="M 599.3,1329.2 L 637.6,1336.9 676.0,1345.6 714.2,1355.4 752.3,1366.3 790.0,1378.3 827.3,1391.5 863.9,1405.9 899.9,1421.4 935.1,1438.2 969.4,1456.2 1002.7,1475.5 1035.0,1496.0 1066.1,1517.7 1096.0,1540.7 1124.6,1564.9 1151.9,1590.3 1177.8,1617.0 1202.2,1644.7 1225.2,1673.7 1246.6,1703.7 1266.6,1734.8 1284.9,1766.9 1301.7,1800.1 1316.9,1834.1 1330.6,1869.0 1342.6,1904.7 1353.1,1941.2 1362.1,1978.4 1369.5,2016.1 1375.4,2054.4 1379.9,2093.2 1382.9,2132.2 1384.6,2171.6 1385.0,2211.1 1384.2,2250.7 1382.1,2290.2 1379.0,2329.6 1374.8,2368.7 1369.8,2407.5  " style="stroke-opacity: 1.000000; stroke-width: 5.0; stroke: rgb(107,174,214); fill: none"  />
<path d="M 599.3,1329.2 L 636.9,1336.8 674.4,1345.3 711.8,1355.0 748.8,1365.6 785.4,1377.4 821.4,1390.3 856.6,1404.4 890.9,1419.6 924.3,1436.1 956.6,1453.7 987.7,1472.5 1017.5,1492.6 1046.0,1513.8 1073.0,1536.2 1098.4,1559.9 1122.3,1584.6 1144.6,1610.6 1165.2,1637.6 1184.1,1665.8 1201.2,1694.9 1216.6,1725.1 1230.1,1756.3 1241.9,1788.4 1251.9,1821.4 1260.1,1855.1 1266.5,1889.6 1271.2,1924.8 1274.1,1960.6 1275.4,1997.0 1275.0,2033.7 1273.1,2070.9 1269.6,2108.3 1264.7,2145.9 1258.5,2183.6 1250.9,2221.3 1242.2,2258.9 1232.3,2296.2 1221.5,2333.1 1209.8,2369.6  " style="stroke-opacity: 1.000000; stroke-width: 5.0; stroke: rgb(107,174,214); fill: none"  />
<path d="M 599.3,1329.2 L 636.2,1336.6 673.0,1345.0 709.5,1354.4 745.6,1364.7 781.1,1376.1 815.9,1388.6 849.7,1402.1 882.5,1416.8 914.2,1432.6 944.5,1449.4 973.5,1467.4 1001.0,1486.5 1026.9,1506.8 1051.1,1528.1 1073.6,1550.5 1094.3,1574.0 1113.1,1598.6 1130.0,1624.2 1144.9,1650.7 1157.9,1678.2 1168.9,1706.7 1177.9,1736.0 1184.9,1766.1 1189.9,1797.0 1192.9,1828.6 1194.0,1860.9 1193.1,1893.7 1190.4,1927.1 1185.9,1960.9 1179.6,1995.0 1171.6,2029.5 1162.1,2064.1 1151.0,2098.9 1138.6,2133.6 1124.8,2168.3 1109.8,2202.7 1093.8,2236.9 1076.9,2270.6 1059.2,2303.8  " style="stroke-opacity: 1.000000; stroke-width: 5.0; stroke: rgb(107,174,214); fill: none"  />
<path d="M 599.3,1329.2 L 635.6,1336.5 671.7,1344.6 707.5,1353.7 742.7,1363.6 777.3,1374.5 810.9,1386.4 843.5,1399.2 874.9,1413.0 905.0,1427.8 933.6,1443.5 960.6,1460.3 986.0,1478.1 1009.5,1496.8 1031.2,1516.5 1050.9,1537.2 1068.6,1558.8 1084.2,1581.3 1097.7,1604.7 1109.1,1629.0 1118.3,1654.0 1125.3,1679.9 1130.1,1706.5 1132.7,1733.8 1133.1,1761.7 1131.4,1790.2 1127.6,1819.2 1121.7,1848.8 1113.9,1878.7 1104.1,1908.9 1092.4,1939.5 1079.0,1970.2 1064.0,2001.0 1047.4,2031.8 1029.3,2062.6 1010.0,2093.2 989.5,2123.6 968.1,2153.6 945.7,2183.2 922.8,2212.2  " style="stroke-opacity: 1.000000; stroke-width: 5.0; stroke: rgb(107,174,214); fill: none"  />
<path d="M 599.3,1329.2 L 634.1,1335.9 668.5,1343.0 702.5,1350.3 735.6,1357.9 767.8,1365.8 798.7,1373.9 828.3,1382.1 856.2,1390.6 882.4,1399.3 906.7,1408.1 929.0,1417.0 949.1,1426.1 966.9,1435.2 982.3,1444.5 995.3,1453.8 1005.7,1463.2 1013.6,1472.6 1018.8,1482.1 1021.4,1491.5 1021.4,1500.9 1018.6,1510.3 1013.2,1519.7 1005.2,1529.0 994.6,1538.2 981.5,1547.3 965.9,1556.3 947.9,1565.2 927.7,1573.9 905.3,1582.5 880.9,1590.9 854.6,1599.2 826.5,1607.2 796.8,1615.0 765.7,1622.6 733.5,1629.9 700.2,1637.0 666.2,1643.8 631.6,1650.3 596.7,1656.5  " style="stroke-opacity: 1.000000; stroke-width: 5.0; stroke: rgb(107,174,214); fill: none"  />
<path d="M 599.3,1329.2 L 633.9,1335.8 668.3,1342.6 702.1,1349.5 735.1,1356.4 767.1,1363.4 797.9,1370.3 827.3,1377.3 855.1,1384.2 881.1,1391.0 905.2,1397.7 927.3,1404.3 947.1,1410.7 964.7,1417.0 979.9,1423.1 992.6,1429.0 1002.7,1434.7 1010.3,1440.1 1015.1,1445.4 1017.4,1450.3 1016.9,1455.0 1013.8,1459.5 1007.9,1463.7 999.5,1467.6 988.4,1471.2 974.8,1474.5 958.8,1477.5 940.3,1480.3 919.6,1482.7 896.7,1484.9 871.7,1486.8 844.9,1488.5 816.3,1489.8 786.1,1490.9 754.5,1491.8 721.8,1492.4 688.0,1492.8 653.5,1493.0 618.5,1492.9 583.3,1492.7  " style="stroke-opacity: 1.000000; stroke-width: 5.0; stroke: rgb(107,174,214); fill: none"  />
<path d="M 2322.8,1904.3 L 2287.9,1886.6 2253.3,1868.0 2219.0,1848.4 2185.2,1827.8 2152.0,1806.2 2119.6,1783.6 2088.1,1760.0 2057.5,1735.4 2028.1,1709.8 1999.8,1683.4 1972.8,1655.9 1947.2,1627.6 1923.0,1598.4 1900.3,1568.2 1879.1,1537.3 1859.6,1505.5 1841.7,1473.0 1825.6,1439.7 1811.1,1405.7 1798.4,1371.0 1787.5,1335.8 1778.3,1299.9 1771.0,1263.5 1765.3,1226.6 1761.5,1189.4 1759.4,1151.7 1759.0,1113.8 1760.2,1075.6 1763.1,1037.2 1767.6,998.7 1773.6,960.2 1781.0,921.7 1789.9,883.3 1800.0,845.1 1811.4,807.2 1823.8,769.6 1837.3,732.5 1851.8,695.9 1867.0,659.9  " style="stroke-opacity: 1.000000; stroke-width: 5.0; stroke: rgb(107,174,214); fill: none"  />
</g>
<defs>
<pattern id="checker" width="10" height="10" patternTransform="rotate(45 0 0)" patternUnits="userSpaceOnUse"><line x1="0" y1="0" x2="10" y2="0" style="stroke:black;stroke-width:2" /><line x1="0" y1="0" x2="0" y2="10" style="stroke:black;stroke-width:2" /></pattern>
<pattern id="hline-sparse" width="10" height="10" patternTransform="rotate(0 0 0)" patternUnits="userSpaceOnUse"><line x1="0" y1="0" x2="10" y2="0" style="stroke:black;stroke-width:2" /></pattern>
<pattern id="vline" width="10" height="10" patternTransform="rotate(0 0 0)" patternUnits="userSpaceOnUse"><line x1="0" y1="0" x2="0" y2="10" style="stroke:black;stroke-width:5" /></pattern>
<pattern id="hline" width="10" height="10" patternTransform="rotate(0 0 0)" patternUnits="userSpaceOnUse"><line x1="0" y1="0" x2="10" y2="0" style="stroke:black;stroke-width:5" /></pattern>
<pattern id="vline-sparse" width="10" height="10" patternTransform="rotate(0 0 0)" patternUnits="userSpaceOnUse"><line x1="0" y1="0" x2="0" y2="10" style="stroke:black;stroke-width:2" /></pattern>
<pattern id="checker" width="10" height="10" patternTransform="rotate(45 0 0)" patternUnits="userSpaceOnUse"><line x1="0" y1="0" x2="10" y2="0" style="stroke:black;stroke-width:5" /><line x1="0" y1="0" x2="0" y2="10" style="stroke:black;stroke-width:4" /></pattern>
</defs>
</svg>
