<?xml version="1.0" encoding="utf-8" standalone="no"?>
<!DOCTYPE svg PUBLIC "-//W3C//DTD SVG 1.1//EN" "http://www.w3.org/Graphics/SVG/1.1/DTD/svg11.dtd">
<svg width="3000px" height="3000px" version="1.1" xmlns="http://www.w3.org/2000/svg" xmlns:xlink="http://www.w3.org/1999/xlink">
<g id="bg">
<rect x="0" y="0" width="3000px" height="3000px" style="fill:rgb(255,255,255);"/>
</g>
<g id="ideograms">
<path d="M1500.000,535.000 A965.000,965.000 40.000 0,1 1601.714,540.376 L1618.579,381.267 A1125.000,1125.000 0.000 0,0 1500.000,375.000 Z" style="stroke-width:2.0;stroke:rgb(115,115,115);stroke-linecap:round;fill:rgb(153,0,204);" />
<text x="1635.1" y="307.6" font-size="195.0px" font-family="CMUBright-Bold" style="text-anchor:start;fill:rgb(0,0,0);" transform="rotate(273.0,1635.1,307.6)" >1</text>
<path d="M1500.000,535.000 A965.000,965.000 40.000 0,1 1601.714,540.376 L1618.579,381.267 A1125.000,1125.000 0.000 0,0 1500.000,375.000 Z" style="stroke-width:2.0;stroke:rgb(115,115,115);stroke-linecap:round;fill:none;" />
<path d="M1672.307,550.508 A965.000,965.000 40.000 0,1 1771.427,573.959 L1816.431,420.418 A1125.000,1125.000 0.000 0,0 1700.877,393.079 Z" style="stroke-width:2.0;stroke:rgb(115,115,115);stroke-linecap:round;fill:rgb(153,0,204);" />
<text x="1843.9" y="350.3" font-size="195.0px" font-family="CMUBright-Bold" style="text-anchor:start;fill:rgb(0,0,0);" transform="rotate(283.3,1843.9,350.3)" >4</text>
<path d="M1672.307,550.508 A965.000,965.000 40.000 0,1 1771.427,573.959 L1816.431,420.418 A1125.000,1125.000 0.000 0,0 1700.877,393.079 Z" style="stroke-width:2.0;stroke:rgb(115,115,115);stroke-linecap:round;fill:none;" />
<path d="M1839.077,596.533 A965.000,965.000 40.000 0,1 1932.417,637.306 L2004.113,494.269 A1125.000,1125.000 0.000 0,0 1895.297,446.736 Z" style="stroke-width:2.0;stroke:rgb(115,115,115);stroke-linecap:round;fill:rgb(153,0,204);" />
<text x="2045.4" y="431.1" font-size="195.0px" font-family="CMUBright-Bold" style="text-anchor:start;fill:rgb(0,0,0);" transform="rotate(293.6,2045.4,431.1)" >5</text>
<path d="M1839.077,596.533 A965.000,965.000 40.000 0,1 1932.417,637.306 L2004.113,494.269 A1125.000,1125.000 0.000 0,0 1895.297,446.736 Z" style="stroke-width:2.0;stroke:rgb(115,115,115);stroke-linecap:round;fill:none;" />
<path d="M1994.948,671.597 A965.000,965.000 40.000 0,1 2079.507,728.381 L2175.592,600.444 A1125.000,1125.000 0.000 0,0 2077.012,534.245 Z" style="stroke-width:2.0;stroke:rgb(115,115,115);stroke-linecap:round;fill:rgb(153,0,204);" />
<text x="2229.1" y="546.9" font-size="195.0px" font-family="CMUBright-Bold" style="text-anchor:start;fill:rgb(0,0,0);" transform="rotate(303.9,2229.1,546.9)" >6</text>
<path d="M1994.948,671.597 A965.000,965.000 40.000 0,1 2079.507,728.381 L2175.592,600.444 A1125.000,1125.000 0.000 0,0 2077.012,534.245 Z" style="stroke-width:2.0;stroke:rgb(115,115,115);stroke-linecap:round;fill:none;" />
<path d="M2134.911,773.286 A965.000,965.000 40.000 0,1 2207.972,844.256 L2325.356,735.532 A1125.000,1125.000 0.000 0,0 2240.181,652.795 Z" style="stroke-width:2.0;stroke:rgb(115,115,115);stroke-linecap:round;fill:rgb(153,0,204);" />
<text x="2387.6" y="692.4" font-size="195.0px" font-family="CMUBright-Bold" style="text-anchor:start;fill:rgb(0,0,0);" transform="rotate(314.2,2387.6,692.4)" >8</text>
<path d="M2134.911,773.286 A965.000,965.000 40.000 0,1 2207.972,844.256 L2325.356,735.532 A1125.000,1125.000 0.000 0,0 2240.181,652.795 Z" style="stroke-width:2.0;stroke:rgb(115,115,115);stroke-linecap:round;fill:none;" />
<path d="M2254.467,898.332 A965.000,965.000 40.000 0,1 2313.683,981.207 L2448.594,895.190 A1125.000,1125.000 0.000 0,0 2379.560,798.574 Z" style="stroke-width:2.0;stroke:rgb(115,115,115);stroke-linecap:round;fill:rgb(153,0,204);" />
<text x="2517.5" y="863.9" font-size="195.0px" font-family="CMUBright-Bold" style="text-anchor:start;fill:rgb(0,0,0);" transform="rotate(324.5,2517.5,863.9)" >9</text>
<path d="M2254.467,898.332 A965.000,965.000 40.000 0,1 2313.683,981.207 L2448.594,895.190 A1125.000,1125.000 0.000 0,0 2379.560,798.574 Z" style="stroke-width:2.0;stroke:rgb(115,115,115);stroke-linecap:round;fill:none;" />
<path d="M2349.775,1042.717 A965.000,965.000 40.000 0,1 2393.240,1134.833 L2541.342,1074.288 A1125.000,1125.000 0.000 0,0 2490.670,966.898 Z" style="stroke-width:2.0;stroke:rgb(115,115,115);stroke-linecap:round;fill:rgb(153,0,204);" />
<text x="2614.7" y="1055.8" font-size="195.0px" font-family="CMUBright-Bold" style="text-anchor:start;fill:rgb(0,0,0);" transform="rotate(334.7,2614.7,1055.8)" >10</text>
<path d="M2349.775,1042.717 A965.000,965.000 40.000 0,1 2393.240,1134.833 L2541.342,1074.288 A1125.000,1125.000 0.000 0,0 2490.670,966.898 Z" style="stroke-width:2.0;stroke:rgb(115,115,115);stroke-linecap:round;fill:none;" />
<path d="M2417.770,1201.799 A965.000,965.000 40.000 0,1 2444.089,1300.196 L2600.621,1267.068 A1125.000,1125.000 0.000 0,0 2569.939,1152.356 Z" style="stroke-width:2.0;stroke:rgb(115,115,115);stroke-linecap:round;fill:rgb(153,0,204);" />
<text x="2676.2" y="1262.0" font-size="195.0px" font-family="CMUBright-Bold" style="text-anchor:start;fill:rgb(0,0,0);" transform="rotate(345.0,2676.2,1262.0)" >13</text>
<path d="M2417.770,1201.799 A965.000,965.000 40.000 0,1 2444.089,1300.196 L2600.621,1267.068 A1125.000,1125.000 0.000 0,0 2569.939,1152.356 Z" style="stroke-width:2.0;stroke:rgb(115,115,115);stroke-linecap:round;fill:none;" />
<path d="M2456.267,1370.465 A965.000,965.000 40.000 0,1 2464.593,1471.980 L2624.526,1467.335 A1125.000,1125.000 0.000 0,0 2614.818,1348.988 Z" style="stroke-width:2.0;stroke:rgb(115,115,115);stroke-linecap:round;fill:rgb(153,0,204);" />
<text x="2699.8" y="1475.8" font-size="195.0px" font-family="CMUBright-Bold" style="text-anchor:start;fill:rgb(0,0,0);" transform="rotate(355.3,2699.8,1475.8)" >18</text>
<path d="M2456.267,1370.465 A965.000,965.000 40.000 0,1 2464.593,1471.980 L2624.526,1467.335 A1125.000,1125.000 0.000 0,0 2614.818,1348.988 Z" style="stroke-width:2.0;stroke:rgb(115,115,115);stroke-linecap:round;fill:none;" />
<path d="M2464.028,1543.295 A965.000,965.000 40.000 0,1 2454.095,1644.665 L2612.287,1668.651 A1125.000,1125.000 0.000 0,0 2623.867,1550.473 Z" style="stroke-width:2.0;stroke:rgb(115,115,115);stroke-linecap:round;fill:rgb(153,0,204);" />
<text x="2684.8" y="1690.4" font-size="195.0px" font-family="CMUBright-Bold" style="text-anchor:start;fill:rgb(0,0,0);" transform="rotate(5.6,2684.8,1690.4)" >19</text>
<path d="M2464.028,1543.295 A965.000,965.000 40.000 0,1 2454.095,1644.665 L2612.287,1668.651 A1125.000,1125.000 0.000 0,0 2623.867,1550.473 Z" style="stroke-width:2.0;stroke:rgb(115,115,115);stroke-linecap:round;fill:none;" />
<path d="M2440.805,1714.733 A965.000,965.000 40.000 0,1 2412.931,1812.701 L2564.298,1864.548 A1125.000,1125.000 0.000 0,0 2596.794,1750.336 Z" style="stroke-width:2.0;stroke:rgb(115,115,115);stroke-linecap:round;fill:rgb(153,0,204);" />
<text x="2631.8" y="1898.9" font-size="195.0px" font-family="CMUBright-Bold" style="text-anchor:start;fill:rgb(0,0,0);" transform="rotate(15.9,2631.8,1898.9)" >28</text>
<path d="M2440.805,1714.733 A965.000,965.000 40.000 0,1 2412.931,1812.701 L2564.298,1864.548 A1125.000,1125.000 0.000 0,0 2596.794,1750.336 Z" style="stroke-width:2.0;stroke:rgb(115,115,115);stroke-linecap:round;fill:none;" />
<path d="M2387.344,1879.269 A965.000,965.000 40.000 0,1 2342.425,1970.686 L2482.102,2048.727 A1125.000,1125.000 0.000 0,0 2534.469,1942.153 Z" style="stroke-width:2.0;stroke:rgb(115,115,115);stroke-linecap:round;fill:rgb(153,0,204);" />
<text x="2542.3" y="2094.6" font-size="195.0px" font-family="CMUBright-Bold" style="text-anchor:start;fill:rgb(0,0,0);" transform="rotate(26.2,2542.3,2094.6)" >34</text>
<path d="M2387.344,1879.269 A965.000,965.000 40.000 0,1 2342.425,1970.686 L2482.102,2048.727 A1125.000,1125.000 0.000 0,0 2534.469,1942.153 Z" style="stroke-width:2.0;stroke:rgb(115,115,115);stroke-linecap:round;fill:none;" />
<path d="M2305.363,2031.616 A965.000,965.000 40.000 0,1 2244.843,2113.542 L2368.340,2215.270 A1125.000,1125.000 0.000 0,0 2438.895,2119.759 Z" style="stroke-width:2.0;stroke:rgb(115,115,115);stroke-linecap:round;fill:rgb(153,0,204);" />
<text x="2419.4" y="2271.1" font-size="195.0px" font-family="CMUBright-Bold" style="text-anchor:start;fill:rgb(0,0,0);" transform="rotate(36.5,2419.4,2271.1)" >35</text>
<path d="M2305.363,2031.616 A965.000,965.000 40.000 0,1 2244.843,2113.542 L2368.340,2215.270 A1125.000,1125.000 0.000 0,0 2438.895,2119.759 Z" style="stroke-width:2.0;stroke:rgb(115,115,115);stroke-linecap:round;fill:none;" />
<path d="M2197.497,2166.875 A965.000,965.000 40.000 0,1 2123.321,2236.679 L2226.669,2358.823 A1125.000,1125.000 0.000 0,0 2313.144,2277.445 Z" style="stroke-width:2.0;stroke:rgb(115,115,115);stroke-linecap:round;fill:rgb(253,208,162);" />
<text x="2267.0" y="2422.9" font-size="195.0px" font-family="CMUBright-Bold" style="text-anchor:start;fill:rgb(0,0,0);" transform="rotate(46.7,2267.0,2422.9)" >3</text>
<path d="M2197.497,2166.875 A965.000,965.000 40.000 0,1 2123.321,2236.679 L2226.669,2358.823 A1125.000,1125.000 0.000 0,0 2313.144,2277.445 Z" style="stroke-width:2.0;stroke:rgb(115,115,115);stroke-linecap:round;fill:none;" />
<path d="M2067.213,2280.701 A965.000,965.000 40.000 0,1 1981.764,2336.139 L2061.642,2474.773 A1125.000,1125.000 0.000 0,0 2161.258,2410.144 Z" style="stroke-width:2.0;stroke:rgb(115,115,115);stroke-linecap:round;fill:rgb(253,208,162);" />
<text x="2089.8" y="2545.0" font-size="195.0px" font-family="CMUBright-Bold" style="text-anchor:start;fill:rgb(0,0,0);" transform="rotate(57.0,2089.8,2545.0)" >31</text>
<path d="M2067.213,2280.701 A965.000,965.000 40.000 0,1 1981.764,2336.139 L2061.642,2474.773 A1125.000,1125.000 0.000 0,0 2161.258,2410.144 Z" style="stroke-width:2.0;stroke:rgb(115,115,115);stroke-linecap:round;fill:none;" />
<path d="M1918.698,2369.435 A965.000,965.000 40.000 0,1 1824.724,2408.724 L1878.564,2559.393 A1125.000,1125.000 0.000 0,0 1988.119,2513.590 Z" style="stroke-width:2.0;stroke:rgb(115,115,115);stroke-linecap:round;fill:rgb(253,208,162);" />
<text x="1893.8" y="2633.6" font-size="195.0px" font-family="CMUBright-Bold" style="text-anchor:start;fill:rgb(0,0,0);" transform="rotate(67.3,1893.8,2633.6)" >32</text>
<path d="M1918.698,2369.435 A965.000,965.000 40.000 0,1 1824.724,2408.724 L1878.564,2559.393 A1125.000,1125.000 0.000 0,0 1988.119,2513.590 Z" style="stroke-width:2.0;stroke:rgb(115,115,115);stroke-linecap:round;fill:none;" />
<path d="M1756.726,2430.224 A965.000,965.000 40.000 0,1 1657.246,2452.102 L1683.318,2609.964 A1125.000,1125.000 0.000 0,0 1799.291,2584.458 Z" style="stroke-width:2.0;stroke:rgb(115,115,115);stroke-linecap:round;fill:rgb(253,141,60);" />
<text x="1688.0" y="2685.2" font-size="195.0px" font-family="CMUBright-Bold" style="text-anchor:start;fill:rgb(0,0,0);" transform="rotate(77.6,1688.0,2685.2)" >7</text>
<path d="M1756.726,2430.224 A965.000,965.000 40.000 0,1 1657.246,2452.102 L1683.318,2609.964 A1125.000,1125.000 0.000 0,0 1799.291,2584.458 Z" style="stroke-width:2.0;stroke:rgb(115,115,115);stroke-linecap:round;fill:none;" />
<path d="M1586.502,2461.115 A965.000,965.000 40.000 0,1 1484.715,2464.879 L1482.181,2624.859 A1125.000,1125.000 0.000 0,0 1600.844,2620.471 Z" style="stroke-width:2.0;stroke:rgb(115,115,115);stroke-linecap:round;fill:rgb(253,141,60);" />
<text x="1472.4" y="2699.7" font-size="195.0px" font-family="CMUBright-Bold" style="text-anchor:start;fill:rgb(0,0,0);" transform="rotate(87.9,1472.4,2699.7)" >12</text>
<path d="M1586.502,2461.115 A965.000,965.000 40.000 0,1 1484.715,2464.879 L1482.181,2624.859 A1125.000,1125.000 0.000 0,0 1600.844,2620.471 Z" style="stroke-width:2.0;stroke:rgb(115,115,115);stroke-linecap:round;fill:none;" />
<path d="M1413.498,2461.115 A965.000,965.000 40.000 0,1 1312.675,2446.644 L1281.616,2603.600 A1125.000,1125.000 0.000 0,0 1399.156,2620.471 Z" style="stroke-width:2.0;stroke:rgb(115,115,115);stroke-linecap:round;fill:rgb(253,141,60);" />
<text x="1403.0" y="2696.1" font-size="195.0px" font-family="CMUBright-Bold" style="text-anchor:end;fill:rgb(0,0,0);" transform="rotate(-81.8,1403.0,2696.1)" >16</text>
<path d="M1413.498,2461.115 A965.000,965.000 40.000 0,1 1312.675,2446.644 L1281.616,2603.600 A1125.000,1125.000 0.000 0,0 1399.156,2620.471 Z" style="stroke-width:2.0;stroke:rgb(115,115,115);stroke-linecap:round;fill:none;" />
<path d="M1243.274,2430.224 A965.000,965.000 40.000 0,1 1146.656,2397.983 L1088.070,2546.871 A1125.000,1125.000 0.000 0,0 1200.709,2584.458 Z" style="stroke-width:2.0;stroke:rgb(115,115,115);stroke-linecap:round;fill:rgb(253,141,60);" />
<text x="1190.1" y="2659.3" font-size="195.0px" font-family="CMUBright-Bold" style="text-anchor:end;fill:rgb(0,0,0);" transform="rotate(-71.5,1190.1,2659.3)" >17</text>
<path d="M1243.274,2430.224 A965.000,965.000 40.000 0,1 1146.656,2397.983 L1088.070,2546.871 A1125.000,1125.000 0.000 0,0 1200.709,2584.458 Z" style="stroke-width:2.0;stroke:rgb(115,115,115);stroke-linecap:round;fill:none;" />
<path d="M1081.302,2369.435 A965.000,965.000 40.000 0,1 991.993,2320.460 L907.764,2456.494 A1125.000,1125.000 0.000 0,0 1011.881,2513.590 Z" style="stroke-width:2.0;stroke:rgb(115,115,115);stroke-linecap:round;fill:rgb(253,141,60);" />
<text x="988.9" y="2585.7" font-size="195.0px" font-family="CMUBright-Bold" style="text-anchor:end;fill:rgb(0,0,0);" transform="rotate(-61.3,988.9,2585.7)" >20</text>
<path d="M1081.302,2369.435 A965.000,965.000 40.000 0,1 991.993,2320.460 L907.764,2456.494 A1125.000,1125.000 0.000 0,0 1011.881,2513.590 Z" style="stroke-width:2.0;stroke:rgb(115,115,115);stroke-linecap:round;fill:none;" />
<path d="M932.787,2280.701 A965.000,965.000 40.000 0,1 853.658,2216.566 L746.493,2335.375 A1125.000,1125.000 0.000 0,0 838.742,2410.144 Z" style="stroke-width:2.0;stroke:rgb(115,115,115);stroke-linecap:round;fill:rgb(253,141,60);" />
<text x="801.7" y="2475.9" font-size="195.0px" font-family="CMUBright-Bold" style="text-anchor:end;fill:rgb(0,0,0);" transform="rotate(-51.0,801.7,2475.9)" >21</text>
<path d="M932.787,2280.701 A965.000,965.000 40.000 0,1 853.658,2216.566 L746.493,2335.375 A1125.000,1125.000 0.000 0,0 838.742,2410.144 Z" style="stroke-width:2.0;stroke:rgb(115,115,115);stroke-linecap:round;fill:none;" />
<path d="M802.503,2166.875 A965.000,965.000 40.000 0,1 736.097,2089.642 L609.440,2187.406 A1125.000,1125.000 0.000 0,0 686.856,2277.445 Z" style="stroke-width:2.0;stroke:rgb(115,115,115);stroke-linecap:round;fill:rgb(253,141,60);" />
<text x="638.6" y="2335.5" font-size="195.0px" font-family="CMUBright-Bold" style="text-anchor:end;fill:rgb(0,0,0);" transform="rotate(-40.7,638.6,2335.5)" >22</text>
<path d="M802.503,2166.875 A965.000,965.000 40.000 0,1 736.097,2089.642 L609.440,2187.406 A1125.000,1125.000 0.000 0,0 686.856,2277.445 Z" style="stroke-width:2.0;stroke:rgb(115,115,115);stroke-linecap:round;fill:none;" />
<path d="M694.637,2031.616 A965.000,965.000 40.000 0,1 643.089,1943.766 L501.010,2017.344 A1125.000,1125.000 0.000 0,0 561.105,2119.759 Z" style="stroke-width:2.0;stroke:rgb(115,115,115);stroke-linecap:round;fill:rgb(253,141,60);" />
<text x="504.4" y="2169.9" font-size="195.0px" font-family="CMUBright-Bold" style="text-anchor:end;fill:rgb(0,0,0);" transform="rotate(-30.4,504.4,2169.9)" >23</text>
<path d="M694.637,2031.616 A965.000,965.000 40.000 0,1 643.089,1943.766 L501.010,2017.344 A1125.000,1125.000 0.000 0,0 561.105,2119.759 Z" style="stroke-width:2.0;stroke:rgb(115,115,115);stroke-linecap:round;fill:none;" />
<path d="M612.656,1879.269 A965.000,965.000 40.000 0,1 577.622,1783.627 L424.689,1830.653 A1125.000,1125.000 0.000 0,0 465.531,1942.153 Z" style="stroke-width:2.0;stroke:rgb(115,115,115);stroke-linecap:round;fill:rgb(253,141,60);" />
<text x="400.0" y="1979.6" font-size="195.0px" font-family="CMUBright-Bold" style="text-anchor:end;fill:rgb(0,0,0);" transform="rotate(-20.1,400.0,1979.6)" >24</text>
<path d="M612.656,1879.269 A965.000,965.000 40.000 0,1 577.622,1783.627 L424.689,1830.653 A1125.000,1125.000 0.000 0,0 465.531,1942.153 Z" style="stroke-width:2.0;stroke:rgb(115,115,115);stroke-linecap:round;fill:none;" />
<path d="M559.195,1714.733 A965.000,965.000 40.000 0,1 541.802,1614.372 L382.929,1633.336 A1125.000,1125.000 0.000 0,0 403.206,1750.336 Z" style="stroke-width:2.0;stroke:rgb(115,115,115);stroke-linecap:round;fill:rgb(253,141,60);" />
<text x="332.5" y="1777.4" font-size="195.0px" font-family="CMUBright-Bold" style="text-anchor:end;fill:rgb(0,0,0);" transform="rotate(-9.8,332.5,1777.4)" >25</text>
<path d="M559.195,1714.733 A965.000,965.000 40.000 0,1 541.802,1614.372 L382.929,1633.336 A1125.000,1125.000 0.000 0,0 403.206,1750.336 Z" style="stroke-width:2.0;stroke:rgb(115,115,115);stroke-linecap:round;fill:none;" />
<path d="M535.972,1543.295 A965.000,965.000 40.000 0,1 536.778,1441.441 L377.073,1431.732 A1125.000,1125.000 0.000 0,0 376.133,1550.473 Z" style="stroke-width:2.0;stroke:rgb(115,115,115);stroke-linecap:round;fill:rgb(253,141,60);" />
<text x="301.7" y="1563.5" font-size="195.0px" font-family="CMUBright-Bold" style="text-anchor:end;fill:rgb(0,0,0);" transform="rotate(0.5,301.7,1563.5)" >27</text>
<path d="M535.972,1543.295 A965.000,965.000 40.000 0,1 536.778,1441.441 L377.073,1431.732 A1125.000,1125.000 0.000 0,0 376.133,1550.473 Z" style="stroke-width:2.0;stroke:rgb(115,115,115);stroke-linecap:round;fill:none;" />
<path d="M543.733,1370.465 A965.000,965.000 40.000 0,1 562.714,1270.393 L407.309,1232.323 A1125.000,1125.000 0.000 0,0 385.182,1348.988 Z" style="stroke-width:2.0;stroke:rgb(115,115,115);stroke-linecap:round;fill:rgb(253,141,60);" />
<text x="309.5" y="1349.5" font-size="195.0px" font-family="CMUBright-Bold" style="text-anchor:end;fill:rgb(0,0,0);" transform="rotate(10.7,309.5,1349.5)" >29</text>
<path d="M543.733,1370.465 A965.000,965.000 40.000 0,1 562.714,1270.393 L407.309,1232.323 A1125.000,1125.000 0.000 0,0 385.182,1348.988 Z" style="stroke-width:2.0;stroke:rgb(115,115,115);stroke-linecap:round;fill:none;" />
<path d="M582.230,1201.799 A965.000,965.000 40.000 0,1 618.774,1106.724 L472.664,1041.517 A1125.000,1125.000 0.000 0,0 430.061,1152.356 Z" style="stroke-width:2.0;stroke:rgb(115,115,115);stroke-linecap:round;fill:rgb(66,146,198);" />
<text x="356.1" y="1137.4" font-size="195.0px" font-family="CMUBright-Bold" style="text-anchor:end;fill:rgb(0,0,0);" transform="rotate(21.0,356.1,1137.4)" >2</text>
<path d="M582.230,1201.799 A965.000,965.000 40.000 0,1 618.774,1106.724 L472.664,1041.517 A1125.000,1125.000 0.000 0,0 430.061,1152.356 Z" style="stroke-width:2.0;stroke:rgb(115,115,115);stroke-linecap:round;fill:none;" />
<path d="M650.225,1042.717 A965.000,965.000 40.000 0,1 703.158,955.695 L571.039,865.447 A1125.000,1125.000 0.000 0,0 509.330,966.898 Z" style="stroke-width:2.0;stroke:rgb(115,115,115);stroke-linecap:round;fill:rgb(66,146,198);" />
<text x="439.2" y="939.0" font-size="195.0px" font-family="CMUBright-Bold" style="text-anchor:end;fill:rgb(0,0,0);" transform="rotate(31.3,439.2,939.0)" >11</text>
<path d="M650.225,1042.717 A965.000,965.000 40.000 0,1 703.158,955.695 L571.039,865.447 A1125.000,1125.000 0.000 0,0 509.330,966.898 Z" style="stroke-width:2.0;stroke:rgb(115,115,115);stroke-linecap:round;fill:none;" />
<path d="M745.533,898.332 A965.000,965.000 40.000 0,1 813.153,822.160 L699.272,709.772 A1125.000,1125.000 0.000 0,0 620.440,798.574 Z" style="stroke-width:2.0;stroke:rgb(115,115,115);stroke-linecap:round;fill:rgb(66,146,198);" />
<text x="556.4" y="758.6" font-size="195.0px" font-family="CMUBright-Bold" style="text-anchor:end;fill:rgb(0,0,0);" transform="rotate(41.6,556.4,758.6)" >14</text>
<path d="M745.533,898.332 A965.000,965.000 40.000 0,1 813.153,822.160 L699.272,709.772 A1125.000,1125.000 0.000 0,0 620.440,798.574 Z" style="stroke-width:2.0;stroke:rgb(115,115,115);stroke-linecap:round;fill:none;" />
<path d="M865.089,773.286 A965.000,965.000 40.000 0,1 945.224,710.412 L853.241,579.496 A1125.000,1125.000 0.000 0,0 759.819,652.795 Z" style="stroke-width:2.0;stroke:rgb(115,115,115);stroke-linecap:round;fill:rgb(66,146,198);" />
<text x="702.5" y="603.4" font-size="195.0px" font-family="CMUBright-Bold" style="text-anchor:end;fill:rgb(0,0,0);" transform="rotate(51.9,702.5,603.4)" >15</text>
<path d="M865.089,773.286 A965.000,965.000 40.000 0,1 945.224,710.412 L853.241,579.496 A1125.000,1125.000 0.000 0,0 759.819,652.795 Z" style="stroke-width:2.0;stroke:rgb(115,115,115);stroke-linecap:round;fill:none;" />
<path d="M1005.052,671.597 A965.000,965.000 40.000 0,1 1095.126,624.042 L1027.997,478.806 A1125.000,1125.000 0.000 0,0 922.988,534.245 Z" style="stroke-width:2.0;stroke:rgb(115,115,115);stroke-linecap:round;fill:rgb(66,146,198);" />
<text x="875.4" y="475.4" font-size="195.0px" font-family="CMUBright-Bold" style="text-anchor:end;fill:rgb(0,0,0);" transform="rotate(62.2,875.4,475.4)" >26</text>
<path d="M1005.052,671.597 A965.000,965.000 40.000 0,1 1095.126,624.042 L1027.997,478.806 A1125.000,1125.000 0.000 0,0 922.988,534.245 Z" style="stroke-width:2.0;stroke:rgb(115,115,115);stroke-linecap:round;fill:none;" />
<path d="M1160.923,596.533 A965.000,965.000 40.000 0,1 1258.041,565.826 L1217.923,410.937 A1125.000,1125.000 0.000 0,0 1104.703,446.736 Z" style="stroke-width:2.0;stroke:rgb(115,115,115);stroke-linecap:round;fill:rgb(66,146,198);" />
<text x="1068.4" y="380.3" font-size="195.0px" font-family="CMUBright-Bold" style="text-anchor:end;fill:rgb(0,0,0);" transform="rotate(72.5,1068.4,380.3)" >30</text>
<path d="M1160.923,596.533 A965.000,965.000 40.000 0,1 1258.041,565.826 L1217.923,410.937 A1125.000,1125.000 0.000 0,0 1104.703,446.736 Z" style="stroke-width:2.0;stroke:rgb(115,115,115);stroke-linecap:round;fill:none;" />
<path d="M1327.693,550.508 A965.000,965.000 40.000 0,1 1428.732,537.635 L1416.916,378.072 A1125.000,1125.000 0.000 0,0 1299.123,393.079 Z" style="stroke-width:2.0;stroke:rgb(115,115,115);stroke-linecap:round;fill:rgb(66,146,198);" />
<text x="1275.3" y="321.2" font-size="195.0px" font-family="CMUBright-Bold" style="text-anchor:end;fill:rgb(0,0,0);" transform="rotate(82.7,1275.3,321.2)" >33</text>
<path d="M1327.693,550.508 A965.000,965.000 40.000 0,1 1428.732,537.635 L1416.916,378.072 A1125.000,1125.000 0.000 0,0 1299.123,393.079 Z" style="stroke-width:2.0;stroke:rgb(115,115,115);stroke-linecap:round;fill:none;" />
</g>
<g id="track_1">
<path d="M 1548.4,584.5 L 1546.1,630.0 1544.1,675.7 1542.3,721.6 1540.8,767.7 1539.5,813.9 1538.6,860.3 1538.0,906.8 1537.6,953.5 1537.6,1000.3 1538.0,1047.1 1538.6,1094.1 1539.6,1141.2 1541.0,1188.3 1542.7,1235.4 1544.8,1282.6 1547.2,1329.9 1550.0,1377.1 1553.1,1424.4 1556.6,1471.6 1560.5,1518.8 1564.7,1566.0 1569.3,1613.1 1574.3,1660.2 1579.6,1707.2 1585.2,1754.1 1591.2,1800.9 1597.6,1847.6 1604.3,1894.2 1611.3,1940.6 1618.6,1986.9 1626.2,2033.1 1634.1,2079.1 1642.3,2124.9 1650.8,2170.5 1659.6,2215.9 1668.6,2261.1 1677.8,2306.1 1687.2,2350.9 1696.9,2395.4  " style="stroke-opacity: 1.000000; stroke-width: 5.0; stroke: rgb(251,106,74); fill: none"  />
<path d="M 1548.4,584.5 L 1545.9,630.0 1543.1,675.6 1540.0,721.5 1536.6,767.4 1533.0,813.5 1529.0,859.8 1524.8,906.1 1520.2,952.6 1515.2,999.1 1510.0,1045.7 1504.4,1092.3 1498.4,1139.0 1492.1,1185.7 1485.4,1232.4 1478.4,1279.1 1471.0,1325.8 1463.3,1372.5 1455.1,1419.2 1446.7,1465.8 1437.9,1512.3 1428.7,1558.8 1419.1,1605.2 1409.2,1651.4 1399.0,1697.6 1388.4,1743.7 1377.5,1789.6 1366.3,1835.4 1354.8,1881.0 1342.9,1926.4 1330.8,1971.7 1318.3,2016.8 1305.6,2061.7 1292.6,2106.4 1279.4,2150.9 1265.9,2195.1 1252.2,2239.1 1238.2,2282.9 1224.1,2326.4 1209.8,2369.6  " style="stroke-opacity: 1.000000; stroke-width: 5.0; stroke: rgb(251,106,74); fill: none"  />
<path d="M 1696.9,2395.4 L 1689.5,2360.1 1682.7,2324.8 1676.7,2289.8 1671.5,2255.1 1667.3,2221.0 1664.1,2187.7 1662.0,2155.3 1661.1,2124.0 1661.4,2093.9 1662.9,2065.2 1665.8,2037.9 1670.0,2012.3 1675.5,1988.4 1682.5,1966.2 1690.9,1946.0 1700.7,1927.7 1712.0,1911.4 1724.7,1897.1 1738.7,1884.9 1754.2,1874.9 1771.1,1867.0 1789.2,1861.2 1808.7,1857.6 1829.5,1856.1 1851.4,1856.7 1874.4,1859.3 1898.6,1864.0 1923.7,1870.6 1949.7,1879.1 1976.6,1889.4 2004.2,1901.4 2032.4,1915.0 2061.1,1930.1 2090.2,1946.6 2119.6,1964.4 2149.2,1983.2 2178.8,2003.0 2208.2,2023.6 2237.4,2044.7  " style="stroke-opacity: 1.000000; stroke-width: 5.0; stroke: rgb(251,106,74); fill: none"  />
<path d="M 2245.9,967.0 L 2208.1,994.1 2170.2,1021.3 2132.4,1048.6 2094.6,1076.0 2056.7,1103.6 2018.9,1131.2 1981.1,1159.0 1943.3,1186.8 1905.6,1214.8 1867.8,1242.9 1830.2,1271.1 1792.5,1299.5 1754.9,1327.9 1717.4,1356.4 1679.9,1385.1 1642.5,1413.8 1605.1,1442.7 1567.8,1471.6 1530.6,1500.7 1493.4,1529.8 1456.3,1559.1 1419.3,1588.4 1382.4,1617.9 1345.6,1647.4 1308.8,1677.0 1272.2,1706.6 1235.6,1736.4 1199.2,1766.2 1162.8,1796.1 1126.5,1826.1 1090.4,1856.1 1054.3,1886.1 1018.3,1916.2 982.5,1946.4 946.7,1976.6 911.1,2006.8 875.6,2037.1 840.2,2067.4 804.9,2097.7  " style="stroke-opacity: 1.000000; stroke-width: 5.0; stroke: rgb(251,106,74); fill: none"  />
<path d="M 2245.9,967.0 L 2209.5,992.8 2172.7,1018.3 2135.4,1043.7 2097.6,1068.8 2059.4,1093.7 2020.8,1118.2 1981.7,1142.5 1942.2,1166.4 1902.3,1189.9 1862.0,1213.0 1821.3,1235.7 1780.2,1257.9 1738.8,1279.7 1697.1,1301.1 1655.0,1321.9 1612.6,1342.2 1569.9,1362.0 1526.9,1381.3 1483.7,1400.0 1440.3,1418.2 1396.6,1435.8 1352.7,1452.8 1308.6,1469.3 1264.4,1485.2 1220.0,1500.5 1175.5,1515.3 1130.9,1529.4 1086.2,1543.0 1041.5,1556.0 996.7,1568.5 951.9,1580.4 907.2,1591.7 862.5,1602.5 817.8,1612.8 773.3,1622.5 728.9,1631.7 684.6,1640.5 640.6,1648.7 596.7,1656.5  " style="stroke-opacity: 1.000000; stroke-width: 5.0; stroke: rgb(251,106,74); fill: none"  />
<path d="M 1533.9,2416.1 L 1532.0,2371.6 1529.8,2326.8 1527.0,2281.8 1523.8,2236.6 1520.2,2191.1 1516.0,2145.5 1511.3,2099.8 1506.1,2053.9 1500.3,2007.9 1494.0,1961.9 1487.1,1915.8 1479.6,1869.7 1471.6,1823.6 1462.9,1777.5 1453.7,1731.5 1443.9,1685.5 1433.5,1639.7 1422.5,1593.9 1410.9,1548.2 1398.7,1502.7 1386.0,1457.4 1372.6,1412.2 1358.8,1367.3 1344.3,1322.5 1329.3,1278.0 1313.8,1233.8 1297.8,1189.8 1281.2,1146.2 1264.2,1102.8 1246.7,1059.7 1228.7,1017.0 1210.4,974.7 1191.6,932.7 1172.4,891.1 1152.9,849.9 1133.1,809.1 1113.0,768.7 1092.6,728.8 1072.0,689.3  " style="stroke-opacity: 1.000000; stroke-width: 5.0; stroke: rgb(251,106,74); fill: none"  />
<path d="M 2385.6,1263.1 L 2341.6,1274.8 2297.3,1286.2 2252.8,1297.5 2208.0,1308.5 2163.1,1319.3 2117.9,1329.8 2072.5,1340.0 2026.9,1350.0 1981.1,1359.7 1935.2,1369.1 1889.1,1378.2 1842.9,1386.9 1796.5,1395.3 1750.0,1403.4 1703.4,1411.2 1656.7,1418.6 1609.9,1425.7 1563.0,1432.4 1516.1,1438.7 1469.1,1444.7 1422.1,1450.3 1375.0,1455.6 1327.9,1460.5 1280.8,1465.0 1233.8,1469.2 1186.7,1473.0 1139.7,1476.5 1092.8,1479.6 1045.9,1482.4 999.1,1484.8 952.3,1486.9 905.7,1488.7 859.2,1490.1 812.8,1491.3 766.6,1492.1 720.5,1492.7 674.6,1493.0 628.8,1493.0 583.3,1492.7  " style="stroke-opacity: 1.000000; stroke-width: 5.0; stroke: rgb(251,106,74); fill: none"  />
<path d="M 1369.8,2407.5 L 1376.0,2367.2 1383.1,2326.7 1391.2,2286.1 1400.4,2245.4 1410.6,2204.8 1421.9,2164.4 1434.3,2124.1 1447.9,2084.2 1462.7,2044.7 1478.6,2005.6 1495.8,1967.1 1514.1,1929.1 1533.7,1891.8 1554.4,1855.2 1576.4,1819.3 1599.6,1784.3 1624.0,1750.1 1649.6,1716.8 1676.3,1684.5 1704.1,1653.2 1733.0,1622.8 1763.1,1593.5 1794.1,1565.2 1826.1,1538.0 1859.1,1512.0 1893.0,1487.0 1927.7,1463.1 1963.3,1440.4 1999.5,1418.8 2036.4,1398.4 2073.9,1379.1 2112.0,1360.8 2150.4,1343.7 2189.2,1327.7 2228.3,1312.7 2267.6,1298.8 2307.0,1286.0 2346.4,1274.1 2385.6,1263.1  " style="stroke-opacity: 1.000000; stroke-width: 5.0; stroke: rgb(251,106,74); fill: none"  />
<path d="M 1209.8,2369.6 L 1222.4,2333.4 1235.9,2297.4 1250.5,2261.6 1266.0,2226.4 1282.6,2191.7 1300.2,2157.8 1318.9,2124.8 1338.6,2092.8 1359.4,2061.9 1381.2,2032.3 1404.0,2004.0 1427.9,1977.1 1452.7,1951.8 1478.6,1928.0 1505.4,1906.0 1533.2,1885.6 1561.9,1867.0 1591.4,1850.2 1621.8,1835.3 1653.1,1822.3 1685.1,1811.1 1717.8,1801.8 1751.1,1794.5 1785.1,1789.0 1819.7,1785.4 1854.8,1783.7 1890.3,1783.8 1926.1,1785.7 1962.3,1789.3 1998.7,1794.6 2035.3,1801.5 2071.9,1809.9 2108.5,1819.8 2145.0,1831.1 2181.3,1843.7 2217.4,1857.4 2253.0,1872.1 2288.2,1887.8 2322.8,1904.3  " style="stroke-opacity: 1.000000; stroke-width: 5.0; stroke: rgb(251,106,74); fill: none"  />
<path d="M 1059.2,2303.8 L 1078.9,2267.1 1098.1,2229.7 1116.6,2191.6 1134.5,2152.8 1151.6,2113.4 1167.9,2073.5 1183.3,2033.1 1197.8,1992.1 1211.3,1950.7 1223.7,1908.9 1235.1,1866.7 1245.4,1824.2 1254.4,1781.3 1262.3,1738.2 1269.0,1694.9 1274.4,1651.4 1278.6,1607.8 1281.5,1564.0 1283.2,1520.2 1283.5,1476.4 1282.6,1432.5 1280.4,1388.7 1276.9,1345.0 1272.1,1301.4 1266.1,1258.0 1258.9,1214.8 1250.5,1171.8 1241.0,1129.2 1230.3,1086.8 1218.5,1044.8 1205.6,1003.2 1191.8,962.0 1177.0,921.3 1161.4,881.1 1144.9,841.5 1127.6,802.4 1109.7,764.0 1091.1,726.3 1072.0,689.3  " style="stroke-opacity: 1.000000; stroke-width: 5.0; stroke: rgb(251,106,74); fill: none"  />
<path d="M 922.8,2212.2 L 948.1,2180.3 972.9,2147.5 997.2,2113.9 1020.8,2079.6 1043.7,2044.5 1065.7,2008.7 1086.7,1972.3 1106.8,1935.2 1125.7,1897.5 1143.6,1859.3 1160.2,1820.5 1175.6,1781.2 1189.7,1741.5 1202.4,1701.4 1213.8,1660.9 1223.7,1620.1 1232.2,1579.0 1239.3,1537.6 1244.9,1496.1 1248.9,1454.3 1251.5,1412.5 1252.7,1370.5 1252.3,1328.5 1250.5,1286.6 1247.2,1244.7 1242.5,1202.8 1236.4,1161.1 1228.9,1119.6 1220.1,1078.4 1210.0,1037.4 1198.7,996.7 1186.3,956.5 1172.7,916.6 1158.0,877.3 1142.4,838.4 1126.0,800.1 1108.7,762.5 1090.6,725.5 1072.0,689.3  " style="stroke-opacity: 1.000000; stroke-width: 5.0; stroke: rgb(251,106,74); fill: none"  />
<path d="M 804.9,2097.7 L 837.0,2069.7 868.9,2040.9 900.5,2011.3 931.9,1980.9 962.9,1949.8 993.5,1918.0 1023.6,1885.4 1053.1,1852.1 1082.1,1818.0 1110.4,1783.3 1138.1,1747.9 1165.0,1711.8 1191.2,1675.0 1216.5,1637.6 1241.1,1599.6 1264.7,1561.0 1287.5,1521.8 1309.4,1482.1 1330.4,1441.9 1350.4,1401.2 1369.4,1360.0 1387.5,1318.5 1404.5,1276.5 1420.6,1234.2 1435.7,1191.5 1449.8,1148.6 1462.9,1105.4 1475.1,1062.0 1486.2,1018.5 1496.4,974.8 1505.7,931.1 1514.0,887.4 1521.4,843.6 1527.9,800.0 1533.6,756.4 1538.4,713.1 1542.5,669.9 1545.8,627.1 1548.4,584.5  " style="stroke-opacity: 1.000000; stroke-width: 5.0; stroke: rgb(251,106,74); fill: none"  />
<path d="M 804.9,2097.7 L 836.7,2070.8 869.4,2044.3 902.8,2018.3 937.0,1992.8 972.0,1967.9 1007.7,1943.6 1044.1,1920.2 1081.1,1897.5 1118.8,1875.8 1157.2,1854.9 1196.1,1835.1 1235.6,1816.2 1275.6,1798.5 1316.1,1781.8 1357.1,1766.3 1398.6,1752.0 1440.4,1738.9 1482.6,1727.0 1525.1,1716.3 1568.0,1706.9 1611.0,1698.7 1654.3,1691.8 1697.8,1686.2 1741.4,1681.8 1785.1,1678.7 1828.9,1676.8 1872.7,1676.1 1916.4,1676.7 1960.1,1678.3 2003.6,1681.2 2047.0,1685.1 2090.2,1690.1 2133.0,1696.2 2175.6,1703.2 2217.8,1711.1 2259.5,1719.9 2300.8,1729.5 2341.6,1739.9 2381.8,1750.9  " style="stroke-opacity: 1.000000; stroke-width: 5.0; stroke: rgb(251,106,74); fill: none"  />
<path d="M 596.7,1656.5 L 640.6,1648.7 684.6,1640.5 728.9,1631.7 773.3,1622.5 817.8,1612.8 862.5,1602.5 907.2,1591.7 951.9,1580.4 996.7,1568.5 1041.5,1556.0 1086.2,1543.0 1130.9,1529.4 1175.5,1515.3 1220.0,1500.5 1264.4,1485.2 1308.6,1469.3 1352.7,1452.8 1396.6,1435.8 1440.3,1418.2 1483.7,1400.0 1526.9,1381.3 1569.9,1362.0 1612.6,1342.2 1655.0,1321.9 1697.1,1301.1 1738.8,1279.7 1780.2,1257.9 1821.3,1235.7 1862.0,1213.0 1902.3,1189.9 1942.2,1166.4 1981.7,1142.5 2020.8,1118.2 2059.4,1093.7 2097.6,1068.8 2135.4,1043.7 2172.7,1018.3 2209.5,992.8 2245.9,967.0  " style="stroke-opacity: 1.000000; stroke-width: 5.0; stroke: rgb(251,106,74); fill: none"  />
<path d="M 596.7,1656.5 L 640.6,1649.1 684.9,1642.1 729.5,1635.4 774.5,1629.2 819.7,1623.4 865.2,1618.0 910.9,1613.1 956.8,1608.7 1003.0,1604.9 1049.4,1601.5 1095.9,1598.7 1142.5,1596.5 1189.3,1594.8 1236.1,1593.7 1283.1,1593.2 1330.1,1593.3 1377.1,1594.0 1424.2,1595.3 1471.3,1597.2 1518.3,1599.6 1565.3,1602.7 1612.3,1606.4 1659.1,1610.7 1705.9,1615.6 1752.5,1621.0 1799.0,1627.1 1845.3,1633.6 1891.5,1640.8 1937.4,1648.5 1983.2,1656.7 2028.7,1665.4 2073.9,1674.6 2118.9,1684.3 2163.5,1694.4 2207.9,1704.9 2251.9,1715.9 2295.6,1727.2 2338.8,1738.9 2381.8,1750.9  " style="stroke-opacity: 1.000000; stroke-width: 5.0; stroke: rgb(251,106,74); fill: none"  />
<path d="M 1072.0,689.3 L 1091.1,726.3 1109.7,764.0 1127.6,802.4 1144.9,841.5 1161.4,881.1 1177.0,921.3 1191.8,962.0 1205.6,1003.2 1218.5,1044.8 1230.3,1086.8 1241.0,1129.2 1250.5,1171.8 1258.9,1214.8 1266.1,1258.0 1272.1,1301.4 1276.9,1345.0 1280.4,1388.7 1282.6,1432.5 1283.5,1476.4 1283.2,1520.2 1281.5,1564.0 1278.6,1607.8 1274.4,1651.4 1269.0,1694.9 1262.3,1738.2 1254.4,1781.3 1245.4,1824.2 1235.1,1866.7 1223.7,1908.9 1211.3,1950.7 1197.8,1992.1 1183.3,2033.1 1167.9,2073.5 1151.6,2113.4 1134.5,2152.8 1116.6,2191.6 1098.1,2229.7 1078.9,2267.1 1059.2,2303.8  " style="stroke-opacity: 1.000000; stroke-width: 5.0; stroke: rgb(251,106,74); fill: none"  />
<path d="M 583.3,1492.7 L 628.8,1493.2 674.5,1494.0 720.5,1495.0 766.5,1496.3 812.8,1497.8 859.1,1499.7 905.6,1501.9 952.2,1504.4 998.9,1507.3 1045.7,1510.4 1092.5,1513.9 1139.4,1517.8 1186.4,1522.0 1233.3,1526.6 1280.3,1531.5 1327.3,1536.8 1374.3,1542.4 1421.3,1548.4 1468.2,1554.8 1515.1,1561.5 1561.9,1568.6 1608.7,1576.1 1655.4,1583.9 1701.9,1592.0 1748.4,1600.5 1794.8,1609.3 1841.0,1618.5 1887.1,1628.0 1933.1,1637.8 1978.8,1647.9 2024.4,1658.3 2069.9,1669.0 2115.1,1680.0 2160.1,1691.2 2204.9,1702.7 2249.5,1714.4 2293.8,1726.4 2337.9,1738.5 2381.8,1750.9  " style="stroke-opacity: 1.000000; stroke-width: 5.0; stroke: rgb(251,106,74); fill: none"  />
<path d="M 2381.8,1750.9 L 2343.3,1740.4 2304.2,1730.8 2264.7,1722.0 2224.8,1714.3 2184.6,1707.7 2144.2,1702.2 2103.6,1698.0 2063.0,1695.1 2022.4,1693.5 1981.8,1693.4 1941.4,1694.7 1901.2,1697.4 1861.2,1701.7 1821.6,1707.5 1782.4,1714.9 1743.6,1723.9 1705.3,1734.4 1667.5,1746.6 1630.3,1760.3 1593.7,1775.6 1557.9,1792.4 1522.7,1810.8 1488.3,1830.6 1454.6,1851.9 1421.8,1874.7 1389.8,1898.8 1358.7,1924.2 1328.5,1950.9 1299.2,1978.8 1270.8,2007.7 1243.4,2037.8 1216.9,2068.7 1191.4,2100.6 1166.9,2133.2 1143.4,2166.4 1120.9,2200.3 1099.3,2234.5 1078.8,2269.1 1059.2,2303.8  " style="stroke-opacity: 1.000000; stroke-width: 5.0; stroke: rgb(251,106,74); fill: none"  />
<path d="M 2381.8,1750.9 L 2338.8,1738.9 2295.6,1727.2 2251.9,1715.9 2207.9,1704.9 2163.5,1694.4 2118.9,1684.3 2073.9,1674.6 2028.7,1665.4 1983.2,1656.7 1937.4,1648.5 1891.5,1640.8 1845.3,1633.6 1799.0,1627.1 1752.5,1621.0 1705.9,1615.6 1659.1,1610.7 1612.3,1606.4 1565.3,1602.7 1518.3,1599.6 1471.3,1597.2 1424.2,1595.3 1377.1,1594.0 1330.1,1593.3 1283.1,1593.2 1236.1,1593.7 1189.3,1594.8 1142.5,1596.5 1095.9,1598.7 1049.4,1601.5 1003.0,1604.9 956.8,1608.7 910.9,1613.1 865.2,1618.0 819.7,1623.4 774.5,1629.2 729.5,1635.4 684.9,1642.1 640.6,1649.1 596.7,1656.5  " style="stroke-opacity: 1.000000; stroke-width: 5.0; stroke: rgb(251,106,74); fill: none"  />
<path d="M 2381.8,1750.9 L 2337.9,1738.5 2293.8,1726.4 2249.5,1714.4 2204.9,1702.7 2160.1,1691.2 2115.1,1680.0 2069.9,1669.0 2024.4,1658.3 1978.8,1647.9 1933.1,1637.8 1887.1,1628.0 1841.0,1618.5 1794.8,1609.3 1748.4,1600.5 1701.9,1592.0 1655.4,1583.9 1608.7,1576.1 1561.9,1568.6 1515.1,1561.5 1468.2,1554.8 1421.3,1548.4 1374.3,1542.4 1327.3,1536.8 1280.3,1531.5 1233.3,1526.6 1186.4,1522.0 1139.4,1517.8 1092.5,1513.9 1045.7,1510.4 998.9,1507.3 952.2,1504.4 905.6,1501.9 859.1,1499.7 812.8,1497.8 766.5,1496.3 720.5,1495.0 674.5,1494.0 628.8,1493.2 583.3,1492.7  " style="stroke-opacity: 1.000000; stroke-width: 5.0; stroke: rgb(251,106,74); fill: none"  />
<path d="M 2322.8,1904.3 L 2288.2,1887.8 2253.0,1872.1 2217.4,1857.4 2181.3,1843.7 2145.0,1831.1 2108.5,1819.8 2071.9,1809.9 2035.3,1801.5 1998.7,1794.6 1962.3,1789.3 1926.1,1785.7 1890.3,1783.8 1854.8,1783.7 1819.7,1785.4 1785.1,1789.0 1751.1,1794.5 1717.8,1801.8 1685.1,1811.1 1653.1,1822.3 1621.8,1835.3 1591.4,1850.2 1561.9,1867.0 1533.2,1885.6 1505.4,1906.0 1478.6,1928.0 1452.7,1951.8 1427.9,1977.1 1404.0,2004.0 1381.2,2032.3 1359.4,2061.9 1338.6,2092.8 1318.9,2124.8 1300.2,2157.8 1282.6,2191.7 1266.0,2226.4 1250.5,2261.6 1235.9,2297.4 1222.4,2333.4 1209.8,2369.6  " style="stroke-opacity: 1.000000; stroke-width: 5.0; stroke: rgb(251,106,74); fill: none"  />
<path d="M 2322.8,1904.3 L 2283.6,1885.3 2243.8,1866.7 2203.5,1848.5 2162.6,1830.7 2121.3,1813.4 2079.5,1796.7 2037.2,1780.5 1994.5,1764.9 1951.4,1749.9 1907.9,1735.6 1864.1,1722.0 1819.9,1709.1 1775.4,1696.9 1730.6,1685.5 1685.6,1674.9 1640.3,1665.0 1594.8,1655.9 1549.2,1647.7 1503.3,1640.3 1457.4,1633.7 1411.3,1627.9 1365.1,1623.0 1318.9,1618.9 1272.7,1615.6 1226.5,1613.1 1180.3,1611.5 1134.2,1610.7 1088.2,1610.6 1042.3,1611.4 996.5,1612.9 950.9,1615.1 905.6,1618.1 860.5,1621.7 815.6,1626.0 771.1,1631.0 726.9,1636.6 683.1,1642.7 639.7,1649.4 596.7,1656.5  " style="stroke-opacity: 1.000000; stroke-width: 5.0; stroke: rgb(251,106,74); fill: none"  />
<path d="M 2237.4,2044.7 L 2208.2,2023.6 2178.8,2003.0 2149.2,1983.2 2119.6,1964.4 2090.2,1946.6 2061.1,1930.1 2032.4,1915.0 2004.2,1901.4 1976.6,1889.4 1949.7,1879.1 1923.7,1870.6 1898.6,1864.0 1874.4,1859.3 1851.4,1856.7 1829.5,1856.1 1808.7,1857.6 1789.2,1861.2 1771.1,1867.0 1754.2,1874.9 1738.7,1884.9 1724.7,1897.1 1712.0,1911.4 1700.7,1927.7 1690.9,1946.0 1682.5,1966.2 1675.5,1988.4 1670.0,2012.3 1665.8,2037.9 1662.9,2065.2 1661.4,2093.9 1661.1,2124.0 1662.0,2155.3 1664.1,2187.7 1667.3,2221.0 1671.5,2255.1 1676.7,2289.8 1682.7,2324.8 1689.5,2360.1 1696.9,2395.4  " style="stroke-opacity: 1.000000; stroke-width: 5.0; stroke: rgb(251,106,74); fill: none"  />
</g>
<g id="track_0">
<path d="M 1548.4,584.5 L 1546.8,621.0 1546.0,657.4 1546.1,693.6 1547.1,729.3 1549.0,764.5 1552.0,798.9 1556.1,832.3 1561.2,864.7 1567.6,895.7 1575.1,925.4 1583.8,953.7 1593.8,980.2 1605.0,1005.1 1617.5,1028.2 1631.3,1049.4 1646.3,1068.6 1662.5,1085.8 1680.0,1101.0 1698.7,1114.0 1718.6,1124.9 1739.7,1133.7 1761.9,1140.3 1785.1,1144.8 1809.4,1147.1 1834.6,1147.3 1860.8,1145.4 1887.8,1141.5 1915.6,1135.6 1944.1,1127.8 1973.2,1118.2 2002.8,1106.8 2032.8,1093.8 2063.2,1079.2 2093.8,1063.3 2124.5,1046.0 2155.2,1027.6 2185.7,1008.2 2216.0,987.9 2245.9,967.0  " style="stroke-opacity: 1.000000; stroke-width: 5.0; stroke: rgb(107,174,214); fill: none"  />
<path d="M 1548.4,584.5 L 1546.7,624.4 1546.0,664.6 1546.3,705.0 1547.7,745.7 1550.1,786.3 1553.8,826.9 1558.7,867.4 1564.9,907.7 1572.4,947.7 1581.3,987.2 1591.6,1026.4 1603.2,1065.0 1616.3,1102.9 1630.8,1140.3 1646.7,1176.9 1664.1,1212.7 1682.9,1247.7 1703.1,1281.8 1724.8,1315.0 1747.8,1347.3 1772.2,1378.5 1797.9,1408.7 1824.9,1437.9 1853.2,1465.9 1882.7,1492.9 1913.3,1518.7 1945.0,1543.3 1977.7,1566.9 2011.4,1589.2 2046.0,1610.4 2081.4,1630.5 2117.5,1649.4 2154.2,1667.2 2191.4,1683.8 2229.1,1699.4 2267.1,1713.8 2305.3,1727.2 2343.5,1739.5 2381.8,1750.9  " style="stroke-opacity: 1.000000; stroke-width: 5.0; stroke: rgb(107,174,214); fill: none"  />
<path d="M 1548.4,584.5 L 1546.7,625.2 1545.8,666.4 1545.9,707.8 1547.0,749.4 1549.1,791.2 1552.4,833.1 1556.8,875.0 1562.3,916.8 1569.1,958.4 1577.2,999.9 1586.5,1041.0 1597.1,1081.8 1609.1,1122.2 1622.4,1162.1 1637.0,1201.6 1652.9,1240.4 1670.2,1278.7 1688.8,1316.3 1708.7,1353.2 1730.0,1389.4 1752.5,1424.8 1776.2,1459.4 1801.2,1493.1 1827.3,1526.0 1854.6,1558.0 1883.0,1589.0 1912.5,1619.2 1942.9,1648.4 1974.3,1676.6 2006.5,1703.8 2039.5,1730.1 2073.3,1755.3 2107.7,1779.6 2142.7,1802.8 2178.1,1825.1 2214.0,1846.3 2250.1,1866.6 2286.4,1885.9 2322.8,1904.3  " style="stroke-opacity: 1.000000; stroke-width: 5.0; stroke: rgb(107,174,214); fill: none"  />
<path d="M 1711.1,607.9 L 1702.5,646.0 1694.9,684.6 1688.2,723.5 1682.7,762.7 1678.3,802.1 1675.1,841.5 1673.3,880.8 1672.8,920.0 1673.8,959.0 1676.3,997.6 1680.3,1035.9 1685.8,1073.7 1693.0,1111.0 1701.8,1147.7 1712.3,1183.7 1724.4,1218.9 1738.1,1253.4 1753.5,1287.1 1770.6,1319.8 1789.3,1351.7 1809.6,1382.5 1831.4,1412.4 1854.8,1441.2 1879.7,1469.0 1906.0,1495.7 1933.7,1521.2 1962.8,1545.7 1993.1,1569.0 2024.5,1591.2 2057.1,1612.2 2090.6,1632.1 2125.1,1650.8 2160.3,1668.4 2196.2,1684.8 2232.7,1700.2 2269.7,1714.4 2306.9,1727.6 2344.3,1739.7 2381.8,1750.9  " style="stroke-opacity: 1.000000; stroke-width: 5.0; stroke: rgb(107,174,214); fill: none"  />
<path d="M 1867.0,659.9 L 1852.9,692.3 1839.2,724.4 1825.8,756.2 1812.9,787.4 1800.6,817.8 1788.9,847.1 1778.1,875.3 1768.1,902.1 1759.0,927.5 1751.0,951.1 1744.0,973.1 1738.1,993.1 1733.4,1011.2 1729.9,1027.1 1727.6,1040.9 1726.5,1052.5 1726.8,1061.8 1728.4,1068.8 1731.2,1073.5 1735.4,1075.7 1740.8,1075.6 1747.5,1073.2 1755.5,1068.4 1764.7,1061.3 1775.2,1052.0 1786.7,1040.4 1799.4,1026.7 1813.1,1011.0 1827.9,993.3 1843.5,973.8 1860.0,952.5 1877.2,929.7 1895.2,905.4 1913.7,879.8 1932.7,853.1 1952.0,825.5 1971.6,797.1 1991.3,768.2 2011.1,738.9  " style="stroke-opacity: 1.000000; stroke-width: 5.0; stroke: rgb(107,174,214); fill: none"  />
<path d="M 1867.0,659.9 L 1852.8,693.0 1839.3,726.3 1826.6,759.5 1814.9,792.6 1804.1,825.2 1794.5,857.2 1786.2,888.6 1779.2,919.2 1773.6,948.7 1769.5,977.2 1767.0,1004.5 1766.2,1030.4 1767.0,1055.0 1769.6,1078.1 1773.9,1099.6 1779.9,1119.4 1787.8,1137.6 1797.5,1154.1 1808.9,1168.7 1822.2,1181.6 1837.1,1192.6 1853.9,1201.8 1872.3,1209.1 1892.3,1214.6 1913.9,1218.3 1937.1,1220.2 1961.6,1220.3 1987.6,1218.7 2014.7,1215.4 2043.1,1210.5 2072.5,1204.1 2102.8,1196.2 2133.9,1187.0 2165.7,1176.4 2198.0,1164.7 2230.7,1152.0 2263.5,1138.3 2296.4,1123.9 2329.1,1108.8  " style="stroke-opacity: 1.000000; stroke-width: 5.0; stroke: rgb(107,174,214); fill: none"  />
<path d="M 1867.0,659.9 L 1852.7,693.5 1839.2,727.3 1826.5,761.2 1814.9,795.0 1804.3,828.6 1795.0,861.9 1787.1,894.6 1780.6,926.7 1775.6,958.0 1772.2,988.5 1770.4,1017.9 1770.4,1046.3 1772.2,1073.6 1775.8,1099.6 1781.2,1124.2 1788.5,1147.5 1797.7,1169.3 1808.7,1189.7 1821.7,1208.5 1836.5,1225.7 1853.1,1241.3 1871.5,1255.2 1891.8,1267.6 1913.7,1278.3 1937.2,1287.3 1962.4,1294.8 1989.1,1300.6 2017.1,1304.9 2046.6,1307.6 2077.2,1308.8 2108.9,1308.6 2141.6,1306.9 2175.2,1304.0 2209.4,1299.8 2244.2,1294.4 2279.4,1287.9 2314.8,1280.5 2350.3,1272.2 2385.6,1263.1  " style="stroke-opacity: 1.000000; stroke-width: 5.0; stroke: rgb(107,174,214); fill: none"  />
<path d="M 1867.0,659.9 L 1852.3,694.5 1838.5,729.7 1825.6,765.1 1813.8,800.8 1803.2,836.5 1793.9,872.2 1786.0,907.8 1779.6,943.2 1774.7,978.2 1771.5,1012.8 1770.1,1046.9 1770.4,1080.4 1772.5,1113.2 1776.4,1145.2 1782.2,1176.4 1790.0,1206.7 1799.7,1236.1 1811.2,1264.5 1824.7,1291.8 1840.1,1318.1 1857.4,1343.2 1876.5,1367.1 1897.5,1389.9 1920.2,1411.4 1944.6,1431.8 1970.6,1450.8 1998.2,1468.7 2027.3,1485.2 2057.7,1500.6 2089.5,1514.7 2122.4,1527.5 2156.4,1539.2 2191.4,1549.6 2227.1,1558.9 2263.5,1567.1 2300.4,1574.2 2337.6,1580.2 2375.0,1585.3 2412.4,1589.4  " style="stroke-opacity: 1.000000; stroke-width: 5.0; stroke: rgb(107,174,214); fill: none"  />
<path d="M 1867.0,659.9 L 1852.1,695.2 1838.0,731.0 1824.8,767.3 1812.8,803.9 1801.8,840.8 1792.2,877.8 1784.0,914.8 1777.2,951.7 1771.9,988.6 1768.3,1025.2 1766.3,1061.5 1766.0,1097.4 1767.5,1132.9 1770.8,1167.8 1775.9,1202.2 1782.9,1235.9 1791.8,1268.9 1802.5,1301.2 1815.1,1332.6 1829.5,1363.2 1845.8,1392.9 1863.9,1421.7 1883.7,1449.5 1905.3,1476.4 1928.6,1502.2 1953.5,1527.0 1979.9,1550.7 2007.8,1573.3 2037.1,1594.8 2067.6,1615.3 2099.4,1634.6 2132.3,1652.9 2166.1,1670.1 2200.7,1686.2 2236.1,1701.2 2272.1,1715.1 2308.4,1728.0 2345.0,1740.0 2381.8,1750.9  " style="stroke-opacity: 1.000000; stroke-width: 5.0; stroke: rgb(107,174,214); fill: none"  />
<path d="M 2011.1,738.9 L 1991.3,768.2 1971.6,797.1 1952.0,825.5 1932.7,853.1 1913.7,879.8 1895.2,905.4 1877.2,929.7 1860.0,952.5 1843.5,973.8 1827.9,993.3 1813.1,1011.0 1799.4,1026.7 1786.7,1040.4 1775.2,1052.0 1764.7,1061.3 1755.5,1068.4 1747.5,1073.2 1740.8,1075.6 1735.4,1075.7 1731.2,1073.5 1728.4,1068.8 1726.8,1061.8 1726.5,1052.5 1727.6,1040.9 1729.9,1027.1 1733.4,1011.2 1738.1,993.1 1744.0,973.1 1751.0,951.1 1759.0,927.5 1768.1,902.1 1778.1,875.3 1788.9,847.1 1800.6,817.8 1812.9,787.4 1825.8,756.2 1839.2,724.4 1852.9,692.3 1867.0,659.9  " style="stroke-opacity: 1.000000; stroke-width: 5.0; stroke: rgb(107,174,214); fill: none"  />
<path d="M 2011.1,738.9 L 1991.4,768.7 1972.2,798.6 1953.8,828.4 1936.1,858.0 1919.5,887.2 1904.1,915.9 1889.8,944.0 1877.0,971.3 1865.7,997.6 1855.9,1022.9 1847.8,1047.1 1841.5,1070.0 1836.9,1091.6 1834.2,1111.8 1833.5,1130.6 1834.7,1147.8 1837.8,1163.4 1843.0,1177.4 1850.2,1189.7 1859.3,1200.3 1870.4,1209.2 1883.5,1216.4 1898.4,1221.9 1915.3,1225.7 1933.9,1227.7 1954.3,1228.1 1976.3,1226.9 2000.0,1224.0 2025.1,1219.6 2051.5,1213.8 2079.3,1206.5 2108.2,1197.9 2138.0,1188.1 2168.7,1177.1 2200.1,1165.0 2232.1,1152.0 2264.3,1138.3 2296.7,1123.8 2329.1,1108.8  " style="stroke-opacity: 1.000000; stroke-width: 5.0; stroke: rgb(107,174,214); fill: none"  />
<path d="M 2011.1,738.9 L 1990.1,771.0 1969.8,803.7 1950.4,837.1 1932.0,871.0 1914.7,905.3 1898.6,939.9 1883.9,974.9 1870.6,1010.0 1858.9,1045.3 1848.7,1080.7 1840.3,1116.1 1833.6,1151.4 1828.8,1186.5 1825.8,1221.5 1824.7,1256.2 1825.5,1290.7 1828.3,1324.7 1833.1,1358.4 1839.9,1391.6 1848.6,1424.3 1859.3,1456.4 1872.0,1488.0 1886.6,1518.9 1903.0,1549.1 1921.3,1578.7 1941.4,1607.5 1963.1,1635.5 1986.5,1662.8 2011.5,1689.2 2037.9,1714.8 2065.7,1739.5 2094.8,1763.3 2125.0,1786.3 2156.2,1808.3 2188.4,1829.4 2221.2,1849.5 2254.7,1868.7 2288.6,1887.0 2322.8,1904.3  " style="stroke-opacity: 1.000000; stroke-width: 5.0; stroke: rgb(107,174,214); fill: none"  />
<path d="M 1696.9,2395.4 L 1689.3,2360.9 1681.5,2326.8 1673.6,2293.2 1665.7,2260.4 1657.9,2228.6 1650.0,2198.0 1642.2,2168.9 1634.5,2141.3 1627.0,2115.5 1619.6,2091.6 1612.3,2069.7 1605.3,2050.0 1598.5,2032.7 1592.0,2017.7 1585.7,2005.2 1579.7,1995.2 1574.1,1987.8 1568.7,1983.1 1563.7,1981.0 1559.0,1981.6 1554.6,1984.9 1550.6,1990.8 1547.0,1999.4 1543.7,2010.5 1540.7,2024.2 1538.2,2040.4 1536.0,2058.9 1534.1,2079.7 1532.6,2102.6 1531.4,2127.6 1530.6,2154.5 1530.0,2183.1 1529.8,2213.3 1529.9,2244.9 1530.2,2277.7 1530.8,2311.4 1531.6,2345.9 1532.7,2380.9 1533.9,2416.1  " style="stroke-opacity: 1.000000; stroke-width: 5.0; stroke: rgb(107,174,214); fill: none"  />
<path d="M 1696.9,2395.4 L 1687.9,2356.5 1677.9,2317.6 1666.9,2278.6 1654.7,2239.8 1641.5,2201.3 1627.2,2163.1 1611.7,2125.4 1595.0,2088.2 1577.1,2051.7 1558.0,2015.9 1537.8,1980.9 1516.3,1946.8 1493.6,1913.7 1469.6,1881.5 1444.5,1850.5 1418.3,1820.6 1390.8,1791.8 1362.2,1764.3 1332.5,1738.1 1301.7,1713.1 1269.9,1689.5 1237.1,1667.3 1203.3,1646.4 1168.6,1626.8 1133.0,1608.7 1096.6,1592.0 1059.5,1576.6 1021.7,1562.6 983.3,1550.0 944.3,1538.8 904.8,1528.9 865.0,1520.2 824.9,1512.9 784.6,1506.7 744.2,1501.8 703.7,1498.0 663.3,1495.2 623.2,1493.5 583.3,1492.7  " style="stroke-opacity: 1.000000; stroke-width: 5.0; stroke: rgb(107,174,214); fill: none"  />
<path d="M 2138.8,842.4 L 2114.0,867.7 2089.1,892.6 2064.3,916.9 2039.7,940.3 2015.4,962.8 1991.6,984.2 1968.4,1004.3 1946.0,1023.0 1924.3,1040.1 1903.6,1055.5 1883.8,1069.1 1865.2,1080.9 1847.7,1090.7 1831.5,1098.5 1816.6,1104.2 1803.0,1107.8 1790.8,1109.1 1780.0,1108.3 1770.7,1105.3 1762.9,1100.0 1756.6,1092.6 1751.7,1082.9 1748.4,1071.1 1746.6,1057.2 1746.2,1041.2 1747.2,1023.2 1749.7,1003.4 1753.6,981.7 1758.7,958.2 1765.2,933.2 1772.8,906.7 1781.6,878.8 1791.4,849.8 1802.2,819.7 1813.8,788.7 1826.3,757.0 1839.3,724.9 1852.9,692.4 1867.0,659.9  " style="stroke-opacity: 1.000000; stroke-width: 5.0; stroke: rgb(107,174,214); fill: none"  />
<path d="M 2138.8,842.4 L 2113.6,868.8 2089.1,895.7 2065.3,923.0 2042.5,950.6 2020.8,978.4 2000.4,1006.2 1981.5,1034.1 1964.1,1061.8 1948.4,1089.4 1934.6,1116.7 1922.6,1143.7 1912.6,1170.3 1904.7,1196.4 1898.9,1222.0 1895.3,1247.0 1894.0,1271.4 1894.9,1295.0 1898.1,1317.9 1903.6,1340.1 1911.4,1361.4 1921.5,1381.8 1933.9,1401.4 1948.4,1420.1 1965.2,1437.8 1984.1,1454.5 2005.0,1470.3 2027.9,1485.2 2052.7,1499.0 2079.3,1511.9 2107.6,1523.8 2137.3,1534.7 2168.5,1544.7 2201.0,1553.7 2234.5,1561.8 2269.0,1569.0 2304.2,1575.3 2340.0,1580.8 2376.1,1585.5 2412.4,1589.4  " style="stroke-opacity: 1.000000; stroke-width: 5.0; stroke: rgb(107,174,214); fill: none"  />
<path d="M 2138.8,842.4 L 2112.4,870.2 2086.6,898.8 2061.6,928.2 2037.4,958.2 2014.2,988.9 1992.2,1020.1 1971.5,1051.9 1952.1,1084.1 1934.3,1116.7 1918.0,1149.7 1903.4,1183.0 1890.5,1216.5 1879.4,1250.3 1870.3,1284.1 1863.0,1318.1 1857.7,1352.1 1854.4,1386.2 1853.1,1420.1 1853.8,1454.0 1856.6,1487.7 1861.4,1521.3 1868.2,1554.6 1877.0,1587.6 1887.8,1620.3 1900.5,1652.6 1915.1,1684.6 1931.5,1716.0 1949.6,1747.0 1969.5,1777.5 1990.9,1807.4 2013.9,1836.7 2038.2,1865.3 2063.9,1893.3 2090.7,1920.5 2118.5,1947.0 2147.2,1972.7 2176.7,1997.6 2206.8,2021.6 2237.4,2044.7  " style="stroke-opacity: 1.000000; stroke-width: 5.0; stroke: rgb(107,174,214); fill: none"  />
<path d="M 2245.9,967.0 L 2216.0,987.9 2185.7,1008.2 2155.2,1027.6 2124.5,1046.0 2093.8,1063.3 2063.2,1079.2 2032.8,1093.8 2002.8,1106.8 1973.2,1118.2 1944.1,1127.8 1915.6,1135.6 1887.8,1141.5 1860.8,1145.4 1834.6,1147.3 1809.4,1147.1 1785.1,1144.8 1761.9,1140.3 1739.7,1133.7 1718.6,1124.9 1698.7,1114.0 1680.0,1101.0 1662.5,1085.8 1646.3,1068.6 1631.3,1049.4 1617.5,1028.2 1605.0,1005.1 1593.8,980.2 1583.8,953.7 1575.1,925.4 1567.6,895.7 1561.2,864.7 1556.1,832.3 1552.0,798.9 1549.0,764.5 1547.1,729.3 1546.1,693.6 1546.0,657.4 1546.8,621.0 1548.4,584.5  " style="stroke-opacity: 1.000000; stroke-width: 5.0; stroke: rgb(107,174,214); fill: none"  />
<path d="M 2245.9,967.0 L 2217.3,987.6 2188.9,1008.2 2161.1,1028.6 2134.1,1048.7 2107.9,1068.5 2082.9,1087.7 2059.1,1106.4 2036.8,1124.3 2016.0,1141.4 1997.0,1157.6 1979.7,1172.8 1964.4,1187.0 1951.1,1200.0 1939.9,1211.9 1930.8,1222.6 1924.0,1232.1 1919.4,1240.2 1917.2,1247.0 1917.3,1252.4 1919.7,1256.5 1924.4,1259.2 1931.4,1260.6 1940.7,1260.6 1952.3,1259.2 1966.0,1256.5 1981.9,1252.5 1999.8,1247.3 2019.6,1240.8 2041.3,1233.2 2064.8,1224.4 2089.8,1214.7 2116.4,1203.9 2144.2,1192.2 2173.2,1179.8 2203.2,1166.6 2234.0,1152.8 2265.4,1138.5 2297.2,1123.8 2329.1,1108.8  " style="stroke-opacity: 1.000000; stroke-width: 5.0; stroke: rgb(107,174,214); fill: none"  />
<path d="M 2245.9,967.0 L 2217.2,987.8 2188.9,1008.6 2161.1,1029.5 2134.2,1050.3 2108.3,1071.0 2083.6,1091.3 2060.3,1111.2 2038.5,1130.6 2018.3,1149.4 2000.0,1167.6 1983.5,1185.1 1969.1,1201.7 1956.8,1217.5 1946.6,1232.4 1938.8,1246.3 1933.2,1259.2 1930.0,1271.1 1929.2,1281.8 1930.8,1291.5 1934.9,1300.0 1941.3,1307.4 1950.1,1313.6 1961.3,1318.7 1974.8,1322.6 1990.5,1325.4 2008.4,1327.0 2028.5,1327.6 2050.5,1327.0 2074.4,1325.4 2100.1,1322.8 2127.5,1319.2 2156.4,1314.7 2186.6,1309.4 2217.9,1303.2 2250.3,1296.3 2283.5,1288.8 2317.2,1280.7 2351.4,1272.1 2385.6,1263.1  " style="stroke-opacity: 1.000000; stroke-width: 5.0; stroke: rgb(107,174,214); fill: none"  />
<path d="M 2245.9,967.0 L 2216.5,988.5 2187.5,1010.6 2159.2,1033.2 2131.9,1056.3 2105.6,1079.8 2080.6,1103.5 2057.0,1127.5 2034.9,1151.7 2014.6,1176.1 1996.0,1200.5 1979.4,1224.9 1964.8,1249.3 1952.4,1273.6 1942.1,1297.7 1934.1,1321.7 1928.5,1345.4 1925.1,1368.8 1924.2,1392.0 1925.7,1414.7 1929.5,1437.1 1935.8,1459.0 1944.5,1480.5 1955.5,1501.4 1968.8,1521.8 1984.4,1541.7 2002.2,1561.0 2022.1,1579.7 2044.0,1597.7 2067.9,1615.1 2093.5,1631.9 2120.9,1648.0 2149.8,1663.3 2180.1,1678.0 2211.7,1692.0 2244.3,1705.2 2277.9,1717.7 2312.1,1729.5 2346.8,1740.6 2381.8,1750.9  " style="stroke-opacity: 1.000000; stroke-width: 5.0; stroke: rgb(107,174,214); fill: none"  />
<path d="M 2245.9,967.0 L 2216.0,988.9 2186.7,1011.4 2158.0,1034.7 2130.2,1058.5 2103.4,1082.9 2077.8,1107.7 2053.6,1133.1 2030.9,1158.8 2009.8,1184.8 1990.5,1211.1 1973.0,1237.7 1957.4,1264.4 1943.9,1291.3 1932.5,1318.3 1923.3,1345.3 1916.3,1372.4 1911.5,1399.4 1909.1,1426.3 1908.9,1453.1 1911.1,1479.7 1915.6,1506.1 1922.4,1532.2 1931.5,1558.1 1942.8,1583.6 1956.3,1608.8 1972.0,1633.5 1989.7,1657.9 2009.4,1681.7 2031.0,1705.1 2054.3,1727.9 2079.4,1750.2 2106.0,1771.8 2134.0,1792.9 2163.3,1813.2 2193.7,1832.9 2225.0,1851.9 2257.1,1870.1 2289.8,1887.6 2322.8,1904.3  " style="stroke-opacity: 1.000000; stroke-width: 5.0; stroke: rgb(107,174,214); fill: none"  />
<path d="M 2329.1,1108.8 L 2296.4,1123.9 2263.5,1138.3 2230.7,1152.0 2198.0,1164.7 2165.7,1176.4 2133.9,1187.0 2102.8,1196.2 2072.5,1204.1 2043.1,1210.5 2014.7,1215.4 1987.6,1218.7 1961.6,1220.3 1937.1,1220.2 1913.9,1218.3 1892.3,1214.6 1872.3,1209.1 1853.9,1201.8 1837.1,1192.6 1822.2,1181.6 1808.9,1168.7 1797.5,1154.1 1787.8,1137.6 1779.9,1119.4 1773.9,1099.6 1769.6,1078.1 1767.0,1055.0 1766.2,1030.4 1767.0,1004.5 1769.5,977.2 1773.6,948.7 1779.2,919.2 1786.2,888.6 1794.5,857.2 1804.1,825.2 1814.9,792.6 1826.6,759.5 1839.3,726.3 1852.8,693.0 1867.0,659.9  " style="stroke-opacity: 1.000000; stroke-width: 5.0; stroke: rgb(107,174,214); fill: none"  />
<path d="M 2329.1,1108.8 L 2296.7,1123.8 2264.3,1138.3 2232.1,1152.0 2200.1,1165.0 2168.7,1177.1 2138.0,1188.1 2108.2,1197.9 2079.3,1206.5 2051.5,1213.8 2025.1,1219.6 2000.0,1224.0 1976.3,1226.9 1954.3,1228.1 1933.9,1227.7 1915.3,1225.7 1898.4,1221.9 1883.5,1216.4 1870.4,1209.2 1859.3,1200.3 1850.2,1189.7 1843.0,1177.4 1837.8,1163.4 1834.7,1147.8 1833.5,1130.6 1834.2,1111.8 1836.9,1091.6 1841.5,1070.0 1847.8,1047.1 1855.9,1022.9 1865.7,997.6 1877.0,971.3 1889.8,944.0 1904.1,915.9 1919.5,887.2 1936.1,858.0 1953.8,828.4 1972.2,798.6 1991.4,768.7 2011.1,738.9  " style="stroke-opacity: 1.000000; stroke-width: 5.0; stroke: rgb(107,174,214); fill: none"  />
<path d="M 2329.1,1108.8 L 2297.2,1123.8 2265.4,1138.5 2234.0,1152.8 2203.2,1166.6 2173.2,1179.8 2144.2,1192.2 2116.4,1203.9 2089.8,1214.7 2064.8,1224.4 2041.3,1233.2 2019.6,1240.8 1999.8,1247.3 1981.9,1252.5 1966.0,1256.5 1952.3,1259.2 1940.7,1260.6 1931.4,1260.6 1924.4,1259.2 1919.7,1256.5 1917.3,1252.4 1917.2,1247.0 1919.4,1240.2 1924.0,1232.1 1930.8,1222.6 1939.9,1211.9 1951.1,1200.0 1964.4,1187.0 1979.7,1172.8 1997.0,1157.6 2016.0,1141.4 2036.8,1124.3 2059.1,1106.4 2082.9,1087.7 2107.9,1068.5 2134.1,1048.7 2161.1,1028.6 2188.9,1008.2 2217.3,987.6 2245.9,967.0  " style="stroke-opacity: 1.000000; stroke-width: 5.0; stroke: rgb(107,174,214); fill: none"  />
<path d="M 2329.1,1108.8 L 2297.2,1123.9 2265.7,1139.1 2234.7,1154.2 2204.5,1169.2 2175.2,1184.0 2147.1,1198.4 2120.4,1212.5 2095.3,1226.2 2071.8,1239.3 2050.1,1251.8 2030.4,1263.7 2012.8,1274.9 1997.4,1285.4 1984.2,1295.1 1973.4,1304.0 1965.0,1312.1 1959.1,1319.2 1955.7,1325.5 1954.8,1330.9 1956.4,1335.4 1960.5,1338.9 1967.2,1341.5 1976.4,1343.1 1988.0,1343.8 2002.0,1343.6 2018.3,1342.5 2036.9,1340.6 2057.6,1337.8 2080.3,1334.1 2104.9,1329.7 2131.3,1324.6 2159.3,1318.7 2188.8,1312.2 2219.6,1305.1 2251.5,1297.5 2284.2,1289.4 2317.6,1280.9 2351.5,1272.1 2385.6,1263.1  " style="stroke-opacity: 1.000000; stroke-width: 5.0; stroke: rgb(107,174,214); fill: none"  />
<path d="M 2329.1,1108.8 L 2296.9,1124.2 2265.2,1140.0 2234.0,1156.2 2203.7,1172.6 2174.4,1189.1 2146.4,1205.9 2119.8,1222.6 2094.8,1239.5 2071.6,1256.3 2050.2,1273.0 2030.9,1289.6 2013.7,1306.0 1998.7,1322.2 1986.0,1338.2 1975.8,1353.9 1968.0,1369.3 1962.7,1384.3 1959.9,1399.0 1959.7,1413.2 1962.1,1427.0 1967.1,1440.4 1974.6,1453.2 1984.7,1465.6 1997.2,1477.5 2012.1,1488.8 2029.4,1499.6 2049.0,1509.8 2070.7,1519.5 2094.5,1528.6 2120.3,1537.2 2147.8,1545.2 2177.0,1552.6 2207.7,1559.5 2239.7,1565.8 2272.8,1571.5 2306.9,1576.8 2341.7,1581.5 2376.9,1585.7 2412.4,1589.4  " style="stroke-opacity: 1.000000; stroke-width: 5.0; stroke: rgb(107,174,214); fill: none"  />
<path d="M 2329.1,1108.8 L 2296.6,1124.4 2264.6,1140.6 2233.2,1157.3 2202.6,1174.4 2173.0,1191.9 2144.7,1209.7 2117.7,1227.9 2092.4,1246.3 2068.7,1264.9 2046.9,1283.6 2027.1,1302.5 2009.4,1321.5 1993.9,1340.6 1980.6,1359.6 1969.7,1378.6 1961.2,1397.6 1955.2,1416.5 1951.6,1435.2 1950.6,1453.8 1952.1,1472.2 1956.1,1490.3 1962.7,1508.3 1971.7,1525.9 1983.2,1543.2 1997.1,1560.2 2013.2,1576.8 2031.7,1593.1 2052.3,1608.9 2074.9,1624.4 2099.4,1639.3 2125.8,1653.8 2153.8,1667.8 2183.4,1681.3 2214.2,1694.3 2246.2,1706.8 2279.2,1718.7 2312.9,1730.0 2347.2,1740.7 2381.8,1750.9  " style="stroke-opacity: 1.000000; stroke-width: 5.0; stroke: rgb(107,174,214); fill: none"  />
<path d="M 2329.1,1108.8 L 2296.3,1124.7 2263.8,1141.2 2232.0,1158.5 2200.9,1176.3 2170.9,1194.6 2142.0,1213.6 2114.5,1233.0 2088.5,1252.8 2064.1,1273.2 2041.5,1293.9 2020.8,1314.9 2002.1,1336.3 1985.6,1358.0 1971.1,1379.9 1959.0,1402.1 1949.2,1424.4 1941.7,1446.9 1936.7,1469.4 1934.1,1492.1 1933.9,1514.8 1936.1,1537.5 1940.8,1560.1 1947.9,1582.7 1957.4,1605.2 1969.2,1627.5 1983.2,1649.7 1999.5,1671.6 2017.8,1693.3 2038.2,1714.7 2060.5,1735.8 2084.5,1756.4 2110.2,1776.7 2137.4,1796.6 2166.0,1815.9 2195.7,1834.8 2226.5,1853.1 2258.0,1870.8 2290.2,1887.9 2322.8,1904.3  " style="stroke-opacity: 1.000000; stroke-width: 5.0; stroke: rgb(107,174,214); fill: none"  />
<path d="M 2329.1,1108.8 L 2295.8,1125.0 2262.9,1141.9 2230.5,1159.6 2198.9,1178.1 2168.2,1197.3 2138.6,1217.2 2110.2,1237.8 2083.3,1259.0 2057.9,1280.9 2034.2,1303.3 2012.2,1326.4 1992.1,1349.9 1974.0,1373.9 1958.0,1398.5 1944.1,1423.4 1932.4,1448.8 1922.9,1474.5 1915.7,1500.5 1910.8,1526.8 1908.2,1553.4 1907.9,1580.2 1909.9,1607.1 1914.2,1634.2 1920.8,1661.3 1929.6,1688.5 1940.6,1715.7 1953.6,1742.8 1968.7,1769.8 1985.8,1796.6 2004.7,1823.2 2025.4,1849.6 2047.7,1875.7 2071.5,1901.4 2096.7,1926.6 2123.1,1951.4 2150.5,1975.7 2178.8,1999.4 2207.9,2022.4 2237.4,2044.7  " style="stroke-opacity: 1.000000; stroke-width: 5.0; stroke: rgb(107,174,214); fill: none"  />
<path d="M 1533.9,2416.1 L 1532.7,2380.9 1531.6,2345.9 1530.8,2311.4 1530.2,2277.7 1529.9,2244.9 1529.8,2213.3 1530.0,2183.1 1530.6,2154.5 1531.4,2127.6 1532.6,2102.6 1534.1,2079.7 1536.0,2058.9 1538.2,2040.4 1540.7,2024.2 1543.7,2010.5 1547.0,1999.4 1550.6,1990.8 1554.6,1984.9 1559.0,1981.6 1563.7,1981.0 1568.7,1983.1 1574.1,1987.8 1579.7,1995.2 1585.7,2005.2 1592.0,2017.7 1598.5,2032.7 1605.3,2050.0 1612.3,2069.7 1619.6,2091.6 1627.0,2115.5 1634.5,2141.3 1642.2,2168.9 1650.0,2198.0 1657.9,2228.6 1665.7,2260.4 1673.6,2293.2 1681.5,2326.8 1689.3,2360.9 1696.9,2395.4  " style="stroke-opacity: 1.000000; stroke-width: 5.0; stroke: rgb(107,174,214); fill: none"  />
<path d="M 1533.9,2416.1 L 1532.5,2380.9 1530.9,2345.9 1529.2,2311.5 1527.3,2277.8 1525.2,2245.1 1523.0,2213.6 1520.5,2183.5 1517.9,2155.0 1515.0,2128.2 1512.0,2103.4 1508.8,2080.6 1505.4,2060.0 1501.8,2041.7 1498.1,2025.8 1494.2,2012.3 1490.0,2001.5 1485.8,1993.2 1481.3,1987.6 1476.8,1984.6 1472.0,1984.4 1467.2,1986.8 1462.2,1991.9 1457.0,1999.7 1451.8,2010.1 1446.5,2023.1 1441.1,2038.5 1435.6,2056.3 1430.0,2076.4 1424.5,2098.8 1418.8,2123.2 1413.2,2149.5 1407.6,2177.5 1402.0,2207.2 1396.4,2238.3 1390.9,2270.6 1385.4,2303.9 1380.1,2337.9 1374.8,2372.6 1369.8,2407.5  " style="stroke-opacity: 1.000000; stroke-width: 5.0; stroke: rgb(107,174,214); fill: none"  />
<path d="M 1533.9,2416.1 L 1532.3,2380.5 1530.3,2345.1 1527.7,2310.1 1524.5,2275.8 1520.8,2242.3 1516.4,2210.0 1511.4,2179.0 1505.8,2149.4 1499.5,2121.4 1492.5,2095.2 1484.8,2070.9 1476.5,2048.6 1467.5,2028.4 1457.7,2010.5 1447.3,1994.9 1436.3,1981.7 1424.5,1970.9 1412.1,1962.6 1399.1,1956.9 1385.5,1953.6 1371.2,1952.9 1356.5,1954.8 1341.1,1959.2 1325.3,1966.0 1309.0,1975.3 1292.3,1987.0 1275.2,2000.9 1257.7,2017.1 1240.0,2035.4 1222.0,2055.7 1203.8,2077.9 1185.5,2101.9 1167.2,2127.4 1148.8,2154.3 1130.5,2182.5 1112.3,2211.8 1094.3,2241.9 1076.6,2272.7 1059.2,2303.8  " style="stroke-opacity: 1.000000; stroke-width: 5.0; stroke: rgb(107,174,214); fill: none"  />
<path d="M 1533.9,2416.1 L 1532.2,2380.1 1530.0,2344.3 1527.0,2308.9 1523.3,2274.0 1518.8,2239.9 1513.5,2206.9 1507.4,2175.0 1500.5,2144.4 1492.7,2115.4 1484.0,2088.0 1474.4,2062.3 1463.9,2038.6 1452.5,2016.8 1440.2,1997.1 1427.0,1979.6 1412.9,1964.3 1397.9,1951.4 1382.1,1940.7 1365.4,1932.5 1347.9,1926.7 1329.6,1923.2 1310.6,1922.2 1290.8,1923.6 1270.4,1927.3 1249.3,1933.4 1227.6,1941.7 1205.4,1952.3 1182.8,1965.0 1159.7,1979.7 1136.3,1996.4 1112.6,2015.0 1088.7,2035.3 1064.7,2057.1 1040.6,2080.4 1016.6,2104.9 992.7,2130.6 969.0,2157.1 945.7,2184.4 922.8,2212.2  " style="stroke-opacity: 1.000000; stroke-width: 5.0; stroke: rgb(107,174,214); fill: none"  />
<path d="M 1533.9,2416.1 L 1531.9,2376.3 1529.1,2336.2 1525.1,2295.9 1520.2,2255.6 1514.0,2215.3 1506.7,2175.2 1498.2,2135.3 1488.4,2095.7 1477.4,2056.6 1465.0,2018.0 1451.3,1979.9 1436.2,1942.5 1419.8,1905.9 1402.0,1870.0 1382.8,1835.0 1362.3,1800.8 1340.5,1767.7 1317.2,1735.5 1292.7,1704.4 1266.9,1674.3 1239.8,1645.4 1211.5,1617.6 1181.9,1591.0 1151.3,1565.6 1119.5,1541.4 1086.7,1518.5 1052.9,1496.7 1018.2,1476.2 982.6,1457.0 946.3,1438.9 909.3,1422.1 871.6,1406.5 833.5,1392.1 794.9,1378.9 756.0,1366.8 716.9,1355.8 677.6,1345.9 638.4,1337.0 599.3,1329.2  " style="stroke-opacity: 1.000000; stroke-width: 5.0; stroke: rgb(107,174,214); fill: none"  />
<path d="M 2385.6,1263.1 L 2349.8,1272.3 2313.7,1280.6 2277.5,1288.0 2241.4,1294.3 2205.6,1299.5 2170.1,1303.4 2135.2,1306.0 2100.9,1307.2 2067.4,1306.9 2034.8,1305.1 2003.2,1301.7 1972.6,1296.7 1943.3,1290.0 1915.2,1281.7 1888.5,1271.6 1863.2,1259.8 1839.3,1246.3 1817.0,1231.1 1796.2,1214.2 1777.1,1195.6 1759.6,1175.3 1743.7,1153.5 1729.5,1130.0 1717.0,1105.0 1706.2,1078.6 1697.0,1050.8 1689.5,1021.7 1683.6,991.3 1679.3,959.8 1676.5,927.2 1675.3,893.7 1675.5,859.4 1677.1,824.4 1679.9,788.9 1684.1,752.9 1689.3,716.7 1695.7,680.3 1702.9,644.0 1711.1,607.9  " style="stroke-opacity: 1.000000; stroke-width: 5.0; stroke: rgb(107,174,214); fill: none"  />
<path d="M 2385.6,1263.1 L 2350.3,1272.2 2314.8,1280.5 2279.4,1287.9 2244.2,1294.4 2209.4,1299.8 2175.2,1304.0 2141.6,1306.9 2108.9,1308.6 2077.2,1308.8 2046.6,1307.6 2017.1,1304.9 1989.1,1300.6 1962.4,1294.8 1937.2,1287.3 1913.7,1278.3 1891.8,1267.6 1871.5,1255.2 1853.1,1241.3 1836.5,1225.7 1821.7,1208.5 1808.7,1189.7 1797.7,1169.3 1788.5,1147.5 1781.2,1124.2 1775.8,1099.6 1772.2,1073.6 1770.4,1046.3 1770.4,1017.9 1772.2,988.5 1775.6,958.0 1780.6,926.7 1787.1,894.6 1795.0,861.9 1804.3,828.6 1814.9,795.0 1826.5,761.2 1839.2,727.3 1852.7,693.5 1867.0,659.9  " style="stroke-opacity: 1.000000; stroke-width: 5.0; stroke: rgb(107,174,214); fill: none"  />
<path d="M 2385.6,1263.1 L 2350.7,1272.1 2315.8,1280.5 2281.1,1288.1 2246.7,1294.8 2212.8,1300.5 2179.6,1305.2 2147.4,1308.7 2116.1,1311.1 2086.1,1312.1 2057.3,1311.9 2030.0,1310.3 2004.2,1307.2 1980.0,1302.7 1957.6,1296.7 1937.0,1289.3 1918.2,1280.3 1901.4,1269.8 1886.6,1257.8 1873.8,1244.2 1863.1,1229.2 1854.5,1212.7 1847.9,1194.8 1843.4,1175.5 1841.0,1154.9 1840.6,1133.0 1842.2,1109.8 1845.7,1085.5 1851.2,1060.1 1858.5,1033.7 1867.6,1006.4 1878.4,978.3 1890.7,949.5 1904.5,920.2 1919.7,890.3 1936.1,860.1 1953.6,829.8 1972.0,799.3 1991.3,769.0 2011.1,738.9  " style="stroke-opacity: 1.000000; stroke-width: 5.0; stroke: rgb(107,174,214); fill: none"  />
<path d="M 2385.6,1263.1 L 2351.4,1272.1 2317.2,1280.7 2283.5,1288.8 2250.3,1296.3 2217.9,1303.2 2186.6,1309.4 2156.4,1314.7 2127.5,1319.2 2100.1,1322.8 2074.4,1325.4 2050.5,1327.0 2028.5,1327.6 2008.4,1327.0 1990.5,1325.4 1974.8,1322.6 1961.3,1318.7 1950.1,1313.6 1941.3,1307.4 1934.9,1300.0 1930.8,1291.5 1929.2,1281.8 1930.0,1271.1 1933.2,1259.2 1938.8,1246.3 1946.6,1232.4 1956.8,1217.5 1969.1,1201.7 1983.5,1185.1 2000.0,1167.6 2018.3,1149.4 2038.5,1130.6 2060.3,1111.2 2083.6,1091.3 2108.3,1071.0 2134.2,1050.3 2161.1,1029.5 2188.9,1008.6 2217.2,987.8 2245.9,967.0  " style="stroke-opacity: 1.000000; stroke-width: 5.0; stroke: rgb(107,174,214); fill: none"  />
<path d="M 2385.6,1263.1 L 2351.5,1272.1 2317.6,1280.9 2284.2,1289.4 2251.5,1297.5 2219.6,1305.1 2188.8,1312.2 2159.3,1318.7 2131.3,1324.6 2104.9,1329.7 2080.3,1334.1 2057.6,1337.8 2036.9,1340.6 2018.3,1342.5 2002.0,1343.6 1988.0,1343.8 1976.4,1343.1 1967.2,1341.5 1960.5,1338.9 1956.4,1335.4 1954.8,1330.9 1955.7,1325.5 1959.1,1319.2 1965.0,1312.1 1973.4,1304.0 1984.2,1295.1 1997.4,1285.4 2012.8,1274.9 2030.4,1263.7 2050.1,1251.8 2071.8,1239.3 2095.3,1226.2 2120.4,1212.5 2147.1,1198.4 2175.2,1184.0 2204.5,1169.2 2234.7,1154.2 2265.7,1139.1 2297.2,1123.9 2329.1,1108.8  " style="stroke-opacity: 1.000000; stroke-width: 5.0; stroke: rgb(107,174,214); fill: none"  />
<path d="M 2385.6,1263.1 L 2351.4,1272.4 2317.6,1282.0 2284.3,1291.8 2251.8,1301.9 2220.3,1312.1 2190.0,1322.4 2161.2,1332.9 2134.0,1343.4 2108.5,1353.9 2084.9,1364.5 2063.3,1375.1 2044.0,1385.6 2026.9,1396.0 2012.2,1406.4 1999.9,1416.7 1990.2,1426.8 1983.1,1436.8 1978.5,1446.6 1976.6,1456.2 1977.4,1465.6 1980.8,1474.7 1986.9,1483.7 1995.6,1492.3 2006.8,1500.7 2020.6,1508.9 2036.8,1516.7 2055.4,1524.2 2076.2,1531.5 2099.1,1538.4 2124.1,1545.0 2151.0,1551.2 2179.6,1557.2 2209.8,1562.8 2241.3,1568.0 2274.0,1573.0 2307.7,1577.6 2342.2,1581.8 2377.1,1585.8 2412.4,1589.4  " style="stroke-opacity: 1.000000; stroke-width: 5.0; stroke: rgb(107,174,214); fill: none"  />
<path d="M 2385.6,1263.1 L 2351.2,1272.6 2317.1,1282.5 2283.6,1292.8 2250.9,1303.5 2219.1,1314.6 2188.6,1326.0 2159.4,1337.8 2131.8,1349.9 2105.9,1362.2 2081.9,1374.9 2059.9,1387.7 2040.0,1400.8 2022.4,1414.1 2007.1,1427.6 1994.2,1441.2 1983.8,1455.0 1975.9,1468.8 1970.6,1482.7 1967.8,1496.7 1967.7,1510.7 1970.2,1524.7 1975.3,1538.7 1983.0,1552.7 1993.2,1566.6 2005.9,1580.4 2021.0,1594.1 2038.4,1607.7 2058.1,1621.1 2079.9,1634.3 2103.7,1647.3 2129.3,1660.1 2156.7,1672.6 2185.7,1684.9 2216.1,1696.8 2247.6,1708.4 2280.2,1719.6 2313.6,1730.5 2347.5,1740.9 2381.8,1750.9  " style="stroke-opacity: 1.000000; stroke-width: 5.0; stroke: rgb(107,174,214); fill: none"  />
<path d="M 1369.8,2407.5 L 1374.8,2372.6 1380.1,2337.9 1385.4,2303.9 1390.9,2270.6 1396.4,2238.3 1402.0,2207.2 1407.6,2177.5 1413.2,2149.5 1418.8,2123.2 1424.5,2098.8 1430.0,2076.4 1435.6,2056.3 1441.1,2038.5 1446.5,2023.1 1451.8,2010.1 1457.0,1999.7 1462.2,1991.9 1467.2,1986.8 1472.0,1984.4 1476.8,1984.6 1481.3,1987.6 1485.8,1993.2 1490.0,2001.5 1494.2,2012.3 1498.1,2025.8 1501.8,2041.7 1505.4,2060.0 1508.8,2080.6 1512.0,2103.4 1515.0,2128.2 1517.9,2155.0 1520.5,2183.5 1523.0,2213.6 1525.2,2245.1 1527.3,2277.8 1529.2,2311.5 1530.9,2345.9 1532.5,2380.9 1533.9,2416.1  " style="stroke-opacity: 1.000000; stroke-width: 5.0; stroke: rgb(107,174,214); fill: none"  />
<path d="M 1369.8,2407.5 L 1374.6,2372.4 1379.1,2337.5 1383.2,2303.0 1386.7,2269.2 1389.7,2236.2 1392.1,2204.3 1393.8,2173.7 1394.9,2144.5 1395.2,2116.9 1394.7,2091.1 1393.5,2067.1 1391.4,2045.2 1388.5,2025.4 1384.7,2007.8 1380.1,1992.5 1374.6,1979.5 1368.3,1969.0 1361.1,1961.0 1353.0,1955.5 1344.0,1952.5 1334.2,1952.1 1323.7,1954.1 1312.3,1958.7 1300.1,1965.8 1287.2,1975.2 1273.7,1987.0 1259.4,2001.1 1244.6,2017.4 1229.2,2035.8 1213.4,2056.2 1197.0,2078.5 1180.3,2102.4 1163.3,2128.0 1146.1,2154.9 1128.7,2183.1 1111.2,2212.2 1093.7,2242.2 1076.4,2272.8 1059.2,2303.8  " style="stroke-opacity: 1.000000; stroke-width: 5.0; stroke: rgb(107,174,214); fill: none"  />
<path d="M 1369.8,2407.5 L 1374.6,2372.1 1378.9,2336.9 1382.6,2302.0 1385.6,2267.7 1387.9,2234.1 1389.4,2201.5 1390.0,2170.1 1389.7,2140.0 1388.5,2111.3 1386.4,2084.3 1383.2,2059.0 1378.9,2035.6 1373.6,2014.1 1367.3,1994.8 1359.8,1977.5 1351.3,1962.6 1341.7,1949.9 1330.9,1939.5 1319.2,1931.5 1306.3,1925.9 1292.4,1922.7 1277.6,1921.9 1261.7,1923.4 1244.9,1927.3 1227.2,1933.6 1208.7,1942.1 1189.4,1952.8 1169.3,1965.6 1148.6,1980.4 1127.3,1997.2 1105.4,2015.8 1083.1,2036.0 1060.5,2057.9 1037.6,2081.1 1014.5,2105.6 991.4,2131.1 968.3,2157.5 945.4,2184.6 922.8,2212.2  " style="stroke-opacity: 1.000000; stroke-width: 5.0; stroke: rgb(107,174,214); fill: none"  />
<path d="M 1369.8,2407.5 L 1374.7,2370.2 1378.6,2332.6 1381.6,2295.0 1383.5,2257.5 1384.2,2220.2 1383.7,2183.3 1381.9,2146.9 1378.6,2111.1 1374.0,2076.1 1367.9,2041.9 1360.2,2008.6 1351.0,1976.4 1340.3,1945.4 1327.9,1915.6 1314.0,1887.0 1298.5,1859.9 1281.4,1834.1 1262.6,1809.8 1242.4,1787.1 1220.5,1765.9 1197.2,1746.3 1172.4,1728.3 1146.2,1711.9 1118.5,1697.1 1089.6,1684.0 1059.4,1672.6 1028.1,1662.7 995.6,1654.5 962.2,1647.8 927.8,1642.7 892.7,1639.1 856.8,1636.9 820.3,1636.1 783.4,1636.6 746.2,1638.4 708.7,1641.4 671.2,1645.5 633.9,1650.6 596.7,1656.5  " style="stroke-opacity: 1.000000; stroke-width: 5.0; stroke: rgb(107,174,214); fill: none"  />
<path d="M 1209.8,2369.6 L 1221.2,2336.1 1232.8,2302.9 1244.6,2270.2 1256.6,2238.4 1268.7,2207.6 1280.9,2178.0 1293.0,2149.8 1305.2,2123.3 1317.3,2098.5 1329.3,2075.6 1341.1,2054.7 1352.8,2036.0 1364.3,2019.6 1375.5,2005.6 1386.5,1994.0 1397.2,1984.9 1407.6,1978.3 1417.6,1974.4 1427.3,1973.1 1436.7,1974.4 1445.6,1978.4 1454.2,1985.0 1462.3,1994.2 1470.0,2005.9 1477.3,2020.2 1484.1,2036.8 1490.5,2055.8 1496.4,2077.0 1501.9,2100.4 1507.0,2125.7 1511.6,2152.9 1515.8,2181.8 1519.6,2212.3 1522.9,2244.1 1525.9,2277.0 1528.4,2310.9 1530.6,2345.6 1532.4,2380.7 1533.9,2416.1  " style="stroke-opacity: 1.000000; stroke-width: 5.0; stroke: rgb(107,174,214); fill: none"  />
<path d="M 1209.8,2369.6 L 1221.1,2336.2 1232.4,2303.1 1243.7,2270.5 1255.0,2238.7 1266.2,2207.9 1277.3,2178.3 1288.1,2150.1 1298.6,2123.5 1308.9,2098.6 1318.8,2075.7 1328.2,2054.7 1337.3,2035.9 1345.9,2019.3 1354.0,2005.1 1361.5,1993.3 1368.5,1984.0 1374.9,1977.3 1380.8,1973.1 1386.0,1971.6 1390.6,1972.7 1394.6,1976.4 1397.9,1982.7 1400.7,1991.6 1402.8,2003.1 1404.2,2017.0 1405.1,2033.3 1405.3,2052.0 1405.0,2072.9 1404.1,2095.8 1402.6,2120.8 1400.6,2147.7 1398.1,2176.2 1395.2,2206.2 1391.8,2237.6 1388.0,2270.2 1383.8,2303.6 1379.4,2337.8 1374.7,2372.5 1369.8,2407.5  " style="stroke-opacity: 1.000000; stroke-width: 5.0; stroke: rgb(107,174,214); fill: none"  />
<path d="M 1209.8,2369.6 L 1221.1,2334.4 1231.6,2298.9 1241.2,2263.2 1249.7,2227.6 1257.0,2192.1 1263.1,2157.0 1267.8,2122.3 1271.1,2088.1 1272.8,2054.7 1273.0,2022.0 1271.6,1990.2 1268.4,1959.4 1263.5,1929.7 1256.9,1901.2 1248.5,1873.9 1238.2,1847.9 1226.2,1823.3 1212.4,1800.1 1196.7,1778.3 1179.3,1758.1 1160.2,1739.4 1139.3,1722.2 1116.8,1706.6 1092.6,1692.6 1066.9,1680.2 1039.7,1669.4 1011.0,1660.1 981.1,1652.4 949.9,1646.2 917.6,1641.4 884.2,1638.2 850.0,1636.3 814.9,1635.7 779.3,1636.5 743.1,1638.4 706.6,1641.5 669.9,1645.6 633.2,1650.6 596.7,1656.5  " style="stroke-opacity: 1.000000; stroke-width: 5.0; stroke: rgb(107,174,214); fill: none"  />
<path d="M 1209.8,2369.6 L 1221.5,2333.1 1232.3,2296.2 1242.2,2258.9 1250.9,2221.3 1258.5,2183.6 1264.7,2145.9 1269.6,2108.3 1273.1,2070.9 1275.0,2033.7 1275.4,1997.0 1274.1,1960.6 1271.2,1924.8 1266.5,1889.6 1260.1,1855.1 1251.9,1821.4 1241.9,1788.4 1230.1,1756.3 1216.6,1725.1 1201.2,1694.9 1184.1,1665.8 1165.2,1637.6 1144.6,1610.6 1122.3,1584.6 1098.4,1559.9 1073.0,1536.2 1046.0,1513.8 1017.5,1492.6 987.7,1472.5 956.6,1453.7 924.3,1436.1 890.9,1419.6 856.6,1404.4 821.4,1390.3 785.4,1377.4 748.8,1365.6 711.8,1355.0 674.4,1345.3 636.9,1336.8 599.3,1329.2  " style="stroke-opacity: 1.000000; stroke-width: 5.0; stroke: rgb(107,174,214); fill: none"  />
<path d="M 2413.7,1425.1 L 2378.1,1427.7 2342.7,1429.9 2307.6,1431.5 2273.2,1432.4 2239.6,1432.6 2207.0,1432.1 2175.5,1430.9 2145.5,1428.8 2116.9,1425.8 2090.1,1422.0 2065.0,1417.3 2041.9,1411.7 2020.8,1405.1 2001.9,1397.5 1985.2,1389.1 1970.7,1379.6 1958.6,1369.2 1948.9,1357.9 1941.7,1345.7 1936.9,1332.5 1934.5,1318.5 1934.6,1303.6 1937.1,1287.8 1942.0,1271.3 1949.3,1254.0 1958.9,1236.0 1970.8,1217.4 1984.8,1198.2 2000.8,1178.4 2018.9,1158.1 2038.8,1137.4 2060.3,1116.4 2083.5,1095.2 2108.1,1073.7 2133.9,1052.2 2160.8,1030.6 2188.6,1009.2 2217.0,988.0 2245.9,967.0  " style="stroke-opacity: 1.000000; stroke-width: 5.0; stroke: rgb(107,174,214); fill: none"  />
<path d="M 2412.4,1589.4 L 2375.0,1585.3 2337.6,1580.2 2300.4,1574.2 2263.5,1567.1 2227.1,1558.9 2191.4,1549.6 2156.4,1539.2 2122.4,1527.5 2089.5,1514.7 2057.7,1500.6 2027.3,1485.2 1998.2,1468.7 1970.6,1450.8 1944.6,1431.8 1920.2,1411.4 1897.5,1389.9 1876.5,1367.1 1857.4,1343.2 1840.1,1318.1 1824.7,1291.8 1811.2,1264.5 1799.7,1236.1 1790.0,1206.7 1782.2,1176.4 1776.4,1145.2 1772.5,1113.2 1770.4,1080.4 1770.1,1046.9 1771.5,1012.8 1774.7,978.2 1779.6,943.2 1786.0,907.8 1793.9,872.2 1803.2,836.5 1813.8,800.8 1825.6,765.1 1838.5,729.7 1852.3,694.5 1867.0,659.9  " style="stroke-opacity: 1.000000; stroke-width: 5.0; stroke: rgb(107,174,214); fill: none"  />
<path d="M 2412.4,1589.4 L 2375.6,1585.4 2338.9,1580.5 2302.4,1574.7 2266.4,1568.0 2231.1,1560.2 2196.5,1551.4 2162.9,1541.6 2130.4,1530.6 2099.1,1518.6 2069.2,1505.5 2040.8,1491.2 2013.9,1475.7 1988.8,1459.2 1965.5,1441.5 1944.0,1422.7 1924.4,1402.8 1906.8,1381.7 1891.3,1359.6 1877.8,1336.5 1866.4,1312.4 1857.1,1287.2 1849.9,1261.2 1844.9,1234.3 1842.0,1206.5 1841.1,1177.9 1842.3,1148.7 1845.5,1118.7 1850.6,1088.2 1857.7,1057.2 1866.5,1025.8 1877.1,994.0 1889.4,961.9 1903.1,929.7 1918.3,897.5 1934.8,865.2 1952.5,833.1 1971.2,801.3 1990.8,769.9 2011.1,738.9  " style="stroke-opacity: 1.000000; stroke-width: 5.0; stroke: rgb(107,174,214); fill: none"  />
<path d="M 2412.4,1589.4 L 2376.1,1585.5 2340.0,1580.8 2304.2,1575.3 2269.0,1569.0 2234.5,1561.8 2201.0,1553.7 2168.5,1544.7 2137.3,1534.7 2107.6,1523.8 2079.3,1511.9 2052.7,1499.0 2027.9,1485.2 2005.0,1470.3 1984.1,1454.5 1965.2,1437.8 1948.4,1420.1 1933.9,1401.4 1921.5,1381.8 1911.4,1361.4 1903.6,1340.1 1898.1,1317.9 1894.9,1295.0 1894.0,1271.4 1895.3,1247.0 1898.9,1222.0 1904.7,1196.4 1912.6,1170.3 1922.6,1143.7 1934.6,1116.7 1948.4,1089.4 1964.1,1061.8 1981.5,1034.1 2000.4,1006.2 2020.8,978.4 2042.5,950.6 2065.3,923.0 2089.1,895.7 2113.6,868.8 2138.8,842.4  " style="stroke-opacity: 1.000000; stroke-width: 5.0; stroke: rgb(107,174,214); fill: none"  />
<path d="M 2412.4,1589.4 L 2376.9,1585.7 2341.7,1581.5 2306.9,1576.8 2272.8,1571.5 2239.7,1565.8 2207.7,1559.5 2177.0,1552.6 2147.8,1545.2 2120.3,1537.2 2094.5,1528.6 2070.7,1519.5 2049.0,1509.8 2029.4,1499.6 2012.1,1488.8 1997.2,1477.5 1984.7,1465.6 1974.6,1453.2 1967.1,1440.4 1962.1,1427.0 1959.7,1413.2 1959.9,1399.0 1962.7,1384.3 1968.0,1369.3 1975.8,1353.9 1986.0,1338.2 1998.7,1322.2 2013.7,1306.0 2030.9,1289.6 2050.2,1273.0 2071.6,1256.3 2094.8,1239.5 2119.8,1222.6 2146.4,1205.9 2174.4,1189.1 2203.7,1172.6 2234.0,1156.2 2265.2,1140.0 2296.9,1124.2 2329.1,1108.8  " style="stroke-opacity: 1.000000; stroke-width: 5.0; stroke: rgb(107,174,214); fill: none"  />
<path d="M 2412.4,1589.4 L 2377.1,1585.8 2342.2,1581.8 2307.7,1577.6 2274.0,1573.0 2241.3,1568.0 2209.8,1562.8 2179.6,1557.2 2151.0,1551.2 2124.1,1545.0 2099.1,1538.4 2076.2,1531.5 2055.4,1524.2 2036.8,1516.7 2020.6,1508.9 2006.8,1500.7 1995.6,1492.3 1986.9,1483.7 1980.8,1474.7 1977.4,1465.6 1976.6,1456.2 1978.5,1446.6 1983.1,1436.8 1990.2,1426.8 1999.9,1416.7 2012.2,1406.4 2026.9,1396.0 2044.0,1385.6 2063.3,1375.1 2084.9,1364.5 2108.5,1353.9 2134.0,1343.4 2161.2,1332.9 2190.0,1322.4 2220.3,1312.1 2251.8,1301.9 2284.3,1291.8 2317.6,1282.0 2351.4,1272.4 2385.6,1263.1  " style="stroke-opacity: 1.000000; stroke-width: 5.0; stroke: rgb(107,174,214); fill: none"  />
<path d="M 2412.4,1589.4 L 2377.3,1586.0 2342.4,1582.9 2308.0,1580.0 2274.4,1577.3 2241.7,1575.0 2210.2,1573.0 2180.1,1571.4 2151.5,1570.2 2124.6,1569.4 2099.5,1569.1 2076.5,1569.2 2055.7,1569.8 2037.0,1570.9 2020.8,1572.5 2006.9,1574.6 1995.6,1577.2 1986.8,1580.3 1980.6,1583.9 1977.1,1588.1 1976.2,1592.7 1978.0,1597.9 1982.4,1603.5 1989.4,1609.6 1999.0,1616.2 2011.1,1623.2 2025.7,1630.7 2042.6,1638.5 2061.8,1646.7 2083.2,1655.2 2106.6,1664.1 2131.9,1673.2 2159.0,1682.5 2187.6,1692.1 2217.7,1701.8 2248.9,1711.6 2281.2,1721.4 2314.3,1731.3 2347.9,1741.1 2381.8,1750.9  " style="stroke-opacity: 1.000000; stroke-width: 5.0; stroke: rgb(107,174,214); fill: none"  />
<path d="M 2412.4,1589.4 L 2377.1,1586.1 2342.0,1583.2 2307.4,1580.7 2273.5,1578.7 2240.4,1577.2 2208.4,1576.2 2177.8,1575.8 2148.6,1576.1 2121.0,1577.0 2095.2,1578.7 2071.3,1581.0 2049.5,1584.0 2029.8,1587.8 2012.4,1592.4 1997.3,1597.7 1984.7,1603.7 1974.5,1610.5 1966.8,1618.1 1961.6,1626.4 1959.1,1635.5 1959.1,1645.3 1961.6,1655.8 1966.7,1667.0 1974.3,1678.8 1984.3,1691.2 1996.7,1704.3 2011.4,1717.8 2028.4,1731.9 2047.5,1746.5 2068.5,1761.4 2091.5,1776.7 2116.2,1792.3 2142.5,1808.2 2170.1,1824.2 2199.0,1840.3 2229.0,1856.4 2259.7,1872.5 2291.1,1888.5 2322.8,1904.3  " style="stroke-opacity: 1.000000; stroke-width: 5.0; stroke: rgb(107,174,214); fill: none"  />
<path d="M 1059.2,2303.8 L 1076.6,2272.7 1094.3,2241.9 1112.3,2211.8 1130.5,2182.5 1148.8,2154.3 1167.2,2127.4 1185.5,2101.9 1203.8,2077.9 1222.0,2055.7 1240.0,2035.4 1257.7,2017.1 1275.2,2000.9 1292.3,1987.0 1309.0,1975.3 1325.3,1966.0 1341.1,1959.2 1356.5,1954.8 1371.2,1952.9 1385.5,1953.6 1399.1,1956.9 1412.1,1962.6 1424.5,1970.9 1436.3,1981.7 1447.3,1994.9 1457.7,2010.5 1467.5,2028.4 1476.5,2048.6 1484.8,2070.9 1492.5,2095.2 1499.5,2121.4 1505.8,2149.4 1511.4,2179.0 1516.4,2210.0 1520.8,2242.3 1524.5,2275.8 1527.7,2310.1 1530.3,2345.1 1532.3,2380.5 1533.9,2416.1  " style="stroke-opacity: 1.000000; stroke-width: 5.0; stroke: rgb(107,174,214); fill: none"  />
<path d="M 1059.2,2303.8 L 1076.4,2272.8 1093.7,2242.2 1111.2,2212.2 1128.7,2183.1 1146.1,2154.9 1163.3,2128.0 1180.3,2102.4 1197.0,2078.5 1213.4,2056.2 1229.2,2035.8 1244.6,2017.4 1259.4,2001.1 1273.7,1987.0 1287.2,1975.2 1300.1,1965.8 1312.3,1958.7 1323.7,1954.1 1334.2,1952.1 1344.0,1952.5 1353.0,1955.5 1361.1,1961.0 1368.3,1969.0 1374.6,1979.5 1380.1,1992.5 1384.7,2007.8 1388.5,2025.4 1391.4,2045.2 1393.5,2067.1 1394.7,2091.1 1395.2,2116.9 1394.9,2144.5 1393.8,2173.7 1392.1,2204.3 1389.7,2236.2 1386.7,2269.2 1383.2,2303.0 1379.1,2337.5 1374.6,2372.4 1369.8,2407.5  " style="stroke-opacity: 1.000000; stroke-width: 5.0; stroke: rgb(107,174,214); fill: none"  />
<path d="M 1059.2,2303.8 L 1076.1,2272.9 1092.7,2242.0 1108.9,2211.6 1124.5,2181.7 1139.5,2152.6 1153.7,2124.4 1167.0,2097.3 1179.4,2071.4 1190.7,2047.0 1200.8,2024.1 1209.8,2002.9 1217.4,1983.5 1223.7,1966.0 1228.7,1950.4 1232.2,1936.8 1234.3,1925.4 1234.8,1916.1 1233.9,1909.0 1231.5,1904.1 1227.6,1901.5 1222.1,1901.1 1215.2,1902.9 1206.8,1906.9 1197.0,1913.2 1185.8,1921.6 1173.2,1932.0 1159.4,1944.5 1144.3,1959.0 1128.0,1975.3 1110.7,1993.3 1092.4,2013.0 1073.2,2034.2 1053.1,2056.8 1032.4,2080.6 1011.1,2105.5 989.3,2131.3 967.3,2157.8 945.0,2184.9 922.8,2212.2  " style="stroke-opacity: 1.000000; stroke-width: 5.0; stroke: rgb(107,174,214); fill: none"  />
<path d="M 922.8,2212.2 L 945.7,2184.4 969.0,2157.1 992.7,2130.6 1016.6,2104.9 1040.6,2080.4 1064.7,2057.1 1088.7,2035.3 1112.6,2015.0 1136.3,1996.4 1159.7,1979.7 1182.8,1965.0 1205.4,1952.3 1227.6,1941.7 1249.3,1933.4 1270.4,1927.3 1290.8,1923.6 1310.6,1922.2 1329.6,1923.2 1347.9,1926.7 1365.4,1932.5 1382.1,1940.7 1397.9,1951.4 1412.9,1964.3 1427.0,1979.6 1440.2,1997.1 1452.5,2016.8 1463.9,2038.6 1474.4,2062.3 1484.0,2088.0 1492.7,2115.4 1500.5,2144.4 1507.4,2175.0 1513.5,2206.9 1518.8,2239.9 1523.3,2274.0 1527.0,2308.9 1530.0,2344.3 1532.2,2380.1 1533.9,2416.1  " style="stroke-opacity: 1.000000; stroke-width: 5.0; stroke: rgb(107,174,214); fill: none"  />
<path d="M 922.8,2212.2 L 945.4,2184.6 968.3,2157.5 991.4,2131.1 1014.5,2105.6 1037.6,2081.1 1060.5,2057.9 1083.1,2036.0 1105.4,2015.8 1127.3,1997.2 1148.6,1980.4 1169.3,1965.6 1189.4,1952.8 1208.7,1942.1 1227.2,1933.6 1244.9,1927.3 1261.7,1923.4 1277.6,1921.9 1292.4,1922.7 1306.3,1925.9 1319.2,1931.5 1330.9,1939.5 1341.7,1949.9 1351.3,1962.6 1359.8,1977.5 1367.3,1994.8 1373.6,2014.1 1378.9,2035.6 1383.2,2059.0 1386.4,2084.3 1388.5,2111.3 1389.7,2140.0 1390.0,2170.1 1389.4,2201.5 1387.9,2234.1 1385.6,2267.7 1382.6,2302.0 1378.9,2336.9 1374.6,2372.1 1369.8,2407.5  " style="stroke-opacity: 1.000000; stroke-width: 5.0; stroke: rgb(107,174,214); fill: none"  />
<path d="M 922.8,2212.2 L 945.0,2184.9 967.3,2157.8 989.3,2131.3 1011.1,2105.5 1032.4,2080.6 1053.1,2056.8 1073.2,2034.2 1092.4,2013.0 1110.7,1993.3 1128.0,1975.3 1144.3,1959.0 1159.4,1944.5 1173.2,1932.0 1185.8,1921.6 1197.0,1913.2 1206.8,1906.9 1215.2,1902.9 1222.1,1901.1 1227.6,1901.5 1231.5,1904.1 1233.9,1909.0 1234.8,1916.1 1234.3,1925.4 1232.2,1936.8 1228.7,1950.4 1223.7,1966.0 1217.4,1983.5 1209.8,2002.9 1200.8,2024.1 1190.7,2047.0 1179.4,2071.4 1167.0,2097.3 1153.7,2124.4 1139.5,2152.6 1124.5,2181.7 1108.9,2211.6 1092.7,2242.0 1076.1,2272.9 1059.2,2303.8  " style="stroke-opacity: 1.000000; stroke-width: 5.0; stroke: rgb(107,174,214); fill: none"  />
<path d="M 596.7,1656.5 L 635.3,1650.3 674.3,1645.0 713.5,1640.8 753.0,1637.6 792.5,1635.6 832.0,1634.8 871.4,1635.4 910.6,1637.3 949.4,1640.6 987.9,1645.4 1025.8,1651.8 1063.2,1659.6 1100.0,1669.1 1136.1,1680.1 1171.4,1692.7 1205.8,1706.9 1239.4,1722.7 1272.1,1740.1 1303.7,1759.2 1334.4,1779.7 1364.0,1801.9 1392.4,1825.5 1419.8,1850.6 1446.0,1877.1 1471.0,1905.0 1494.9,1934.2 1517.5,1964.7 1539.0,1996.3 1559.2,2029.1 1578.2,2062.9 1596.0,2097.5 1612.6,2133.1 1628.0,2169.3 1642.2,2206.2 1655.3,2243.5 1667.3,2281.2 1678.2,2319.2 1688.1,2357.3 1696.9,2395.4  " style="stroke-opacity: 1.000000; stroke-width: 5.0; stroke: rgb(107,174,214); fill: none"  />
<path d="M 596.7,1656.5 L 633.9,1650.6 671.2,1645.5 708.7,1641.4 746.2,1638.4 783.4,1636.6 820.3,1636.1 856.8,1636.9 892.7,1639.1 927.8,1642.7 962.2,1647.8 995.6,1654.5 1028.1,1662.7 1059.4,1672.6 1089.6,1684.0 1118.5,1697.1 1146.2,1711.9 1172.4,1728.3 1197.2,1746.3 1220.5,1765.9 1242.4,1787.1 1262.6,1809.8 1281.4,1834.1 1298.5,1859.9 1314.0,1887.0 1327.9,1915.6 1340.3,1945.4 1351.0,1976.4 1360.2,2008.6 1367.9,2041.9 1374.0,2076.1 1378.6,2111.1 1381.9,2146.9 1383.7,2183.3 1384.2,2220.2 1383.5,2257.5 1381.6,2295.0 1378.6,2332.6 1374.7,2370.2 1369.8,2407.5  " style="stroke-opacity: 1.000000; stroke-width: 5.0; stroke: rgb(107,174,214); fill: none"  />
<path d="M 2381.8,1750.9 L 2343.5,1739.5 2305.3,1727.2 2267.1,1713.8 2229.1,1699.4 2191.4,1683.8 2154.2,1667.2 2117.5,1649.4 2081.4,1630.5 2046.0,1610.4 2011.4,1589.2 1977.7,1566.9 1945.0,1543.3 1913.3,1518.7 1882.7,1492.9 1853.2,1465.9 1824.9,1437.9 1797.9,1408.7 1772.2,1378.5 1747.8,1347.3 1724.8,1315.0 1703.1,1281.8 1682.9,1247.7 1664.1,1212.7 1646.7,1176.9 1630.8,1140.3 1616.3,1102.9 1603.2,1065.0 1591.6,1026.4 1581.3,987.2 1572.4,947.7 1564.9,907.7 1558.7,867.4 1553.8,826.9 1550.1,786.3 1547.7,745.7 1546.3,705.0 1546.0,664.6 1546.7,624.4 1548.4,584.5  " style="stroke-opacity: 1.000000; stroke-width: 5.0; stroke: rgb(107,174,214); fill: none"  />
<path d="M 2381.8,1750.9 L 2346.8,1740.6 2312.1,1729.5 2277.9,1717.7 2244.3,1705.2 2211.7,1692.0 2180.1,1678.0 2149.8,1663.3 2120.9,1648.0 2093.5,1631.9 2067.9,1615.1 2044.0,1597.7 2022.1,1579.7 2002.2,1561.0 1984.4,1541.7 1968.8,1521.8 1955.5,1501.4 1944.5,1480.5 1935.8,1459.0 1929.5,1437.1 1925.7,1414.7 1924.2,1392.0 1925.1,1368.8 1928.5,1345.4 1934.1,1321.7 1942.1,1297.7 1952.4,1273.6 1964.8,1249.3 1979.4,1224.9 1996.0,1200.5 2014.6,1176.1 2034.9,1151.7 2057.0,1127.5 2080.6,1103.5 2105.6,1079.8 2131.9,1056.3 2159.2,1033.2 2187.5,1010.6 2216.5,988.5 2245.9,967.0  " style="stroke-opacity: 1.000000; stroke-width: 5.0; stroke: rgb(107,174,214); fill: none"  />
<path d="M 2381.8,1750.9 L 2347.2,1740.7 2312.9,1730.0 2279.2,1718.7 2246.2,1706.8 2214.2,1694.3 2183.4,1681.3 2153.8,1667.8 2125.8,1653.8 2099.4,1639.3 2074.9,1624.4 2052.3,1608.9 2031.7,1593.1 2013.2,1576.8 1997.1,1560.2 1983.2,1543.2 1971.7,1525.9 1962.7,1508.3 1956.1,1490.3 1952.1,1472.2 1950.6,1453.8 1951.6,1435.2 1955.2,1416.5 1961.2,1397.6 1969.7,1378.6 1980.6,1359.6 1993.9,1340.6 2009.4,1321.5 2027.1,1302.5 2046.9,1283.6 2068.7,1264.9 2092.4,1246.3 2117.7,1227.9 2144.7,1209.7 2173.0,1191.9 2202.6,1174.4 2233.2,1157.3 2264.6,1140.6 2296.6,1124.4 2329.1,1108.8  " style="stroke-opacity: 1.000000; stroke-width: 5.0; stroke: rgb(107,174,214); fill: none"  />
<path d="M 2381.8,1750.9 L 2347.5,1740.9 2313.6,1730.5 2280.2,1719.6 2247.6,1708.4 2216.1,1696.8 2185.7,1684.9 2156.7,1672.6 2129.3,1660.1 2103.7,1647.3 2079.9,1634.3 2058.1,1621.1 2038.4,1607.7 2021.0,1594.1 2005.9,1580.4 1993.2,1566.6 1983.0,1552.7 1975.3,1538.7 1970.2,1524.7 1967.7,1510.7 1967.8,1496.7 1970.6,1482.7 1975.9,1468.8 1983.8,1455.0 1994.2,1441.2 2007.1,1427.6 2022.4,1414.1 2040.0,1400.8 2059.9,1387.7 2081.9,1374.9 2105.9,1362.2 2131.8,1349.9 2159.4,1337.8 2188.6,1326.0 2219.1,1314.6 2250.9,1303.5 2283.6,1292.8 2317.1,1282.5 2351.2,1272.6 2385.6,1263.1  " style="stroke-opacity: 1.000000; stroke-width: 5.0; stroke: rgb(107,174,214); fill: none"  />
<path d="M 2381.8,1750.9 L 2347.9,1741.1 2314.3,1731.3 2281.2,1721.4 2248.9,1711.6 2217.7,1701.8 2187.6,1692.1 2159.0,1682.5 2131.9,1673.2 2106.6,1664.1 2083.2,1655.2 2061.8,1646.7 2042.6,1638.5 2025.7,1630.7 2011.1,1623.2 1999.0,1616.2 1989.4,1609.6 1982.4,1603.5 1978.0,1597.9 1976.2,1592.7 1977.1,1588.1 1980.6,1583.9 1986.8,1580.3 1995.6,1577.2 2006.9,1574.6 2020.8,1572.5 2037.0,1570.9 2055.7,1569.8 2076.5,1569.2 2099.5,1569.1 2124.6,1569.4 2151.5,1570.2 2180.1,1571.4 2210.2,1573.0 2241.7,1575.0 2274.4,1577.3 2308.0,1580.0 2342.4,1582.9 2377.3,1586.0 2412.4,1589.4  " style="stroke-opacity: 1.000000; stroke-width: 5.0; stroke: rgb(107,174,214); fill: none"  />
<path d="M 599.3,1329.2 L 638.4,1337.0 677.6,1345.9 716.9,1355.8 756.0,1366.8 794.9,1378.9 833.5,1392.1 871.6,1406.5 909.3,1422.1 946.3,1438.9 982.6,1457.0 1018.2,1476.2 1052.9,1496.7 1086.7,1518.5 1119.5,1541.4 1151.3,1565.6 1181.9,1591.0 1211.5,1617.6 1239.8,1645.4 1266.9,1674.3 1292.7,1704.4 1317.2,1735.5 1340.5,1767.7 1362.3,1800.8 1382.8,1835.0 1402.0,1870.0 1419.8,1905.9 1436.2,1942.5 1451.3,1979.9 1465.0,2018.0 1477.4,2056.6 1488.4,2095.7 1498.2,2135.3 1506.7,2175.2 1514.0,2215.3 1520.2,2255.6 1525.1,2295.9 1529.1,2336.2 1531.9,2376.3 1533.9,2416.1  " style="stroke-opacity: 1.000000; stroke-width: 5.0; stroke: rgb(107,174,214); fill: none"  />
<path d="M 599.3,1329.2 L 636.9,1336.8 674.4,1345.3 711.8,1355.0 748.8,1365.6 785.4,1377.4 821.4,1390.3 856.6,1404.4 890.9,1419.6 924.3,1436.1 956.6,1453.7 987.7,1472.5 1017.5,1492.6 1046.0,1513.8 1073.0,1536.2 1098.4,1559.9 1122.3,1584.6 1144.6,1610.6 1165.2,1637.6 1184.1,1665.8 1201.2,1694.9 1216.6,1725.1 1230.1,1756.3 1241.9,1788.4 1251.9,1821.4 1260.1,1855.1 1266.5,1889.6 1271.2,1924.8 1274.1,1960.6 1275.4,1997.0 1275.0,2033.7 1273.1,2070.9 1269.6,2108.3 1264.7,2145.9 1258.5,2183.6 1250.9,2221.3 1242.2,2258.9 1232.3,2296.2 1221.5,2333.1 1209.8,2369.6  " style="stroke-opacity: 1.000000; stroke-width: 5.0; stroke: rgb(107,174,214); fill: none"  />
<path d="M 2322.8,1904.3 L 2286.4,1885.9 2250.1,1866.6 2214.0,1846.3 2178.1,1825.1 2142.7,1802.8 2107.7,1779.6 2073.3,1755.3 2039.5,1730.1 2006.5,1703.8 1974.3,1676.6 1942.9,1648.4 1912.5,1619.2 1883.0,1589.0 1854.6,1558.0 1827.3,1526.0 1801.2,1493.1 1776.2,1459.4 1752.5,1424.8 1730.0,1389.4 1708.7,1353.2 1688.8,1316.3 1670.2,1278.7 1652.9,1240.4 1637.0,1201.6 1622.4,1162.1 1609.1,1122.2 1597.1,1081.8 1586.5,1041.0 1577.2,999.9 1569.1,958.4 1562.3,916.8 1556.8,875.0 1552.4,833.1 1549.1,791.2 1547.0,749.4 1545.9,707.8 1545.8,666.4 1546.7,625.2 1548.4,584.5  " style="stroke-opacity: 1.000000; stroke-width: 5.0; stroke: rgb(107,174,214); fill: none"  />
<path d="M 2322.8,1904.3 L 2289.8,1887.6 2257.1,1870.1 2225.0,1851.9 2193.7,1832.9 2163.3,1813.2 2134.0,1792.9 2106.0,1771.8 2079.4,1750.2 2054.3,1727.9 2031.0,1705.1 2009.4,1681.7 1989.7,1657.9 1972.0,1633.5 1956.3,1608.8 1942.8,1583.6 1931.5,1558.1 1922.4,1532.2 1915.6,1506.1 1911.1,1479.7 1908.9,1453.1 1909.1,1426.3 1911.5,1399.4 1916.3,1372.4 1923.3,1345.3 1932.5,1318.3 1943.9,1291.3 1957.4,1264.4 1973.0,1237.7 1990.5,1211.1 2009.8,1184.8 2030.9,1158.8 2053.6,1133.1 2077.8,1107.7 2103.4,1082.9 2130.2,1058.5 2158.0,1034.7 2186.7,1011.4 2216.0,988.9 2245.9,967.0  " style="stroke-opacity: 1.000000; stroke-width: 5.0; stroke: rgb(107,174,214); fill: none"  />
<path d="M 2322.8,1904.3 L 2290.6,1888.1 2258.8,1871.4 2227.6,1854.3 2197.3,1836.7 2168.0,1818.7 2140.0,1800.4 2113.4,1781.9 2088.3,1763.1 2064.9,1744.1 2043.4,1725.0 2023.9,1705.8 2006.5,1686.5 1991.3,1667.3 1978.3,1648.0 1967.7,1628.8 1959.5,1609.7 1953.8,1590.7 1950.5,1571.9 1949.8,1553.3 1951.6,1535.0 1955.9,1516.9 1962.8,1499.1 1972.1,1481.6 1983.8,1464.4 1997.9,1447.7 2014.4,1431.3 2033.1,1415.3 2053.9,1399.8 2076.8,1384.8 2101.6,1370.2 2128.2,1356.1 2156.4,1342.5 2186.1,1329.5 2217.2,1317.0 2249.4,1305.1 2282.6,1293.7 2316.5,1282.9 2350.9,1272.7 2385.6,1263.1  " style="stroke-opacity: 1.000000; stroke-width: 5.0; stroke: rgb(107,174,214); fill: none"  />
<path d="M 2237.4,2044.7 L 2206.8,2021.6 2176.7,1997.6 2147.2,1972.7 2118.5,1947.0 2090.7,1920.5 2063.9,1893.3 2038.2,1865.3 2013.9,1836.7 1990.9,1807.4 1969.5,1777.5 1949.6,1747.0 1931.5,1716.0 1915.1,1684.6 1900.5,1652.6 1887.8,1620.3 1877.0,1587.6 1868.2,1554.6 1861.4,1521.3 1856.6,1487.7 1853.8,1454.0 1853.1,1420.1 1854.4,1386.2 1857.7,1352.1 1863.0,1318.1 1870.3,1284.1 1879.4,1250.3 1890.5,1216.5 1903.4,1183.0 1918.0,1149.7 1934.3,1116.7 1952.1,1084.1 1971.5,1051.9 1992.2,1020.1 2014.2,988.9 2037.4,958.2 2061.6,928.2 2086.6,898.8 2112.4,870.2 2138.8,842.4  " style="stroke-opacity: 1.000000; stroke-width: 5.0; stroke: rgb(107,174,214); fill: none"  />
<path d="M 2237.4,2044.7 L 2208.8,2023.3 2180.7,2001.6 2153.3,1979.8 2126.8,1957.8 2101.3,1935.9 2077.0,1914.0 2054.2,1892.4 2032.9,1871.0 2013.4,1850.1 1995.7,1829.5 1979.9,1809.5 1966.2,1790.0 1954.7,1771.2 1945.4,1753.1 1938.4,1735.7 1933.7,1719.1 1931.4,1703.3 1931.6,1688.4 1934.1,1674.4 1939.2,1661.3 1946.6,1649.2 1956.5,1638.0 1968.8,1627.8 1983.4,1618.6 2000.2,1610.4 2019.3,1603.2 2040.5,1596.9 2063.7,1591.6 2088.8,1587.3 2115.7,1583.9 2144.3,1581.4 2174.3,1579.8 2205.8,1579.0 2238.4,1579.1 2272.0,1579.8 2306.5,1581.3 2341.5,1583.4 2376.9,1586.2 2412.4,1589.4  " style="stroke-opacity: 1.000000; stroke-width: 5.0; stroke: rgb(107,174,214); fill: none"  />
</g>
<defs>
<pattern id="hline-sparse" width="10" height="10" patternTransform="rotate(0 0 0)" patternUnits="userSpaceOnUse"><line x1="0" y1="0" x2="10" y2="0" style="stroke:black;stroke-width:2" /></pattern>
<pattern id="checker" width="10" height="10" patternTransform="rotate(45 0 0)" patternUnits="userSpaceOnUse"><line x1="0" y1="0" x2="10" y2="0" style="stroke:black;stroke-width:2" /><line x1="0" y1="0" x2="0" y2="10" style="stroke:black;stroke-width:2" /></pattern>
<pattern id="vline" width="10" height="10" patternTransform="rotate(0 0 0)" patternUnits="userSpaceOnUse"><line x1="0" y1="0" x2="0" y2="10" style="stroke:black;stroke-width:5" /></pattern>
<pattern id="hline" width="10" height="10" patternTransform="rotate(0 0 0)" patternUnits="userSpaceOnUse"><line x1="0" y1="0" x2="10" y2="0" style="stroke:black;stroke-width:5" /></pattern>
<pattern id="vline-sparse" width="10" height="10" patternTransform="rotate(0 0 0)" patternUnits="userSpaceOnUse"><line x1="0" y1="0" x2="0" y2="10" style="stroke:black;stroke-width:2" /></pattern>
<pattern id="checker" width="10" height="10" patternTransform="rotate(45 0 0)" patternUnits="userSpaceOnUse"><line x1="0" y1="0" x2="10" y2="0" style="stroke:black;stroke-width:5" /><line x1="0" y1="0" x2="0" y2="10" style="stroke:black;stroke-width:4" /></pattern>
</defs>
</svg>
