<?xml version="1.0" encoding="utf-8" standalone="no"?>
<!DOCTYPE svg PUBLIC "-//W3C//DTD SVG 1.1//EN" "http://www.w3.org/Graphics/SVG/1.1/DTD/svg11.dtd">
<svg width="3000px" height="3000px" version="1.1" xmlns="http://www.w3.org/2000/svg" xmlns:xlink="http://www.w3.org/1999/xlink">
<g id="bg">
<rect x="0" y="0" width="3000px" height="3000px" style="fill:rgb(255,255,255);"/>
</g>
<g id="ideograms">
<path d="M1500.000,535.000 A965.000,965.000 40.000 0,1 1601.714,540.376 L1618.579,381.267 A1125.000,1125.000 0.000 0,0 1500.000,375.000 Z" style="stroke-width:2.0;stroke:rgb(115,115,115);stroke-linecap:round;fill:rgb(153,0,204);" />
<text x="1635.1" y="307.6" font-size="195.0px" font-family="CMUBright-Bold" style="text-anchor:start;fill:rgb(0,0,0);" transform="rotate(273.0,1635.1,307.6)" >1</text>
<path d="M1500.000,535.000 A965.000,965.000 40.000 0,1 1601.714,540.376 L1618.579,381.267 A1125.000,1125.000 0.000 0,0 1500.000,375.000 Z" style="stroke-width:2.0;stroke:rgb(115,115,115);stroke-linecap:round;fill:none;" />
<path d="M1672.307,550.508 A965.000,965.000 40.000 0,1 1771.427,573.959 L1816.431,420.418 A1125.000,1125.000 0.000 0,0 1700.877,393.079 Z" style="stroke-width:2.0;stroke:rgb(115,115,115);stroke-linecap:round;fill:rgb(153,0,204);" />
<text x="1843.9" y="350.3" font-size="195.0px" font-family="CMUBright-Bold" style="text-anchor:start;fill:rgb(0,0,0);" transform="rotate(283.3,1843.9,350.3)" >4</text>
<path d="M1672.307,550.508 A965.000,965.000 40.000 0,1 1771.427,573.959 L1816.431,420.418 A1125.000,1125.000 0.000 0,0 1700.877,393.079 Z" style="stroke-width:2.0;stroke:rgb(115,115,115);stroke-linecap:round;fill:none;" />
<path d="M1839.077,596.533 A965.000,965.000 40.000 0,1 1932.417,637.306 L2004.113,494.269 A1125.000,1125.000 0.000 0,0 1895.297,446.736 Z" style="stroke-width:2.0;stroke:rgb(115,115,115);stroke-linecap:round;fill:rgb(153,0,204);" />
<text x="2045.4" y="431.1" font-size="195.0px" font-family="CMUBright-Bold" style="text-anchor:start;fill:rgb(0,0,0);" transform="rotate(293.6,2045.4,431.1)" >5</text>
<path d="M1839.077,596.533 A965.000,965.000 40.000 0,1 1932.417,637.306 L2004.113,494.269 A1125.000,1125.000 0.000 0,0 1895.297,446.736 Z" style="stroke-width:2.0;stroke:rgb(115,115,115);stroke-linecap:round;fill:none;" />
<path d="M1994.948,671.597 A965.000,965.000 40.000 0,1 2079.507,728.381 L2175.592,600.444 A1125.000,1125.000 0.000 0,0 2077.012,534.245 Z" style="stroke-width:2.0;stroke:rgb(115,115,115);stroke-linecap:round;fill:rgb(153,0,204);" />
<text x="2229.1" y="546.9" font-size="195.0px" font-family="CMUBright-Bold" style="text-anchor:start;fill:rgb(0,0,0);" transform="rotate(303.9,2229.1,546.9)" >6</text>
<path d="M1994.948,671.597 A965.000,965.000 40.000 0,1 2079.507,728.381 L2175.592,600.444 A1125.000,1125.000 0.000 0,0 2077.012,534.245 Z" style="stroke-width:2.0;stroke:rgb(115,115,115);stroke-linecap:round;fill:none;" />
<path d="M2134.911,773.286 A965.000,965.000 40.000 0,1 2207.972,844.256 L2325.356,735.532 A1125.000,1125.000 0.000 0,0 2240.181,652.795 Z" style="stroke-width:2.0;stroke:rgb(115,115,115);stroke-linecap:round;fill:rgb(153,0,204);" />
<text x="2387.6" y="692.4" font-size="195.0px" font-family="CMUBright-Bold" style="text-anchor:start;fill:rgb(0,0,0);" transform="rotate(314.2,2387.6,692.4)" >8</text>
<path d="M2134.911,773.286 A965.000,965.000 40.000 0,1 2207.972,844.256 L2325.356,735.532 A1125.000,1125.000 0.000 0,0 2240.181,652.795 Z" style="stroke-width:2.0;stroke:rgb(115,115,115);stroke-linecap:round;fill:none;" />
<path d="M2254.467,898.332 A965.000,965.000 40.000 0,1 2313.683,981.207 L2448.594,895.190 A1125.000,1125.000 0.000 0,0 2379.560,798.574 Z" style="stroke-width:2.0;stroke:rgb(115,115,115);stroke-linecap:round;fill:rgb(153,0,204);" />
<text x="2517.5" y="863.9" font-size="195.0px" font-family="CMUBright-Bold" style="text-anchor:start;fill:rgb(0,0,0);" transform="rotate(324.5,2517.5,863.9)" >9</text>
<path d="M2254.467,898.332 A965.000,965.000 40.000 0,1 2313.683,981.207 L2448.594,895.190 A1125.000,1125.000 0.000 0,0 2379.560,798.574 Z" style="stroke-width:2.0;stroke:rgb(115,115,115);stroke-linecap:round;fill:none;" />
<path d="M2349.775,1042.717 A965.000,965.000 40.000 0,1 2393.240,1134.833 L2541.342,1074.288 A1125.000,1125.000 0.000 0,0 2490.670,966.898 Z" style="stroke-width:2.0;stroke:rgb(115,115,115);stroke-linecap:round;fill:rgb(153,0,204);" />
<text x="2614.7" y="1055.8" font-size="195.0px" font-family="CMUBright-Bold" style="text-anchor:start;fill:rgb(0,0,0);" transform="rotate(334.7,2614.7,1055.8)" >10</text>
<path d="M2349.775,1042.717 A965.000,965.000 40.000 0,1 2393.240,1134.833 L2541.342,1074.288 A1125.000,1125.000 0.000 0,0 2490.670,966.898 Z" style="stroke-width:2.0;stroke:rgb(115,115,115);stroke-linecap:round;fill:none;" />
<path d="M2417.770,1201.799 A965.000,965.000 40.000 0,1 2444.089,1300.196 L2600.621,1267.068 A1125.000,1125.000 0.000 0,0 2569.939,1152.356 Z" style="stroke-width:2.0;stroke:rgb(115,115,115);stroke-linecap:round;fill:rgb(153,0,204);" />
<text x="2676.2" y="1262.0" font-size="195.0px" font-family="CMUBright-Bold" style="text-anchor:start;fill:rgb(0,0,0);" transform="rotate(345.0,2676.2,1262.0)" >13</text>
<path d="M2417.770,1201.799 A965.000,965.000 40.000 0,1 2444.089,1300.196 L2600.621,1267.068 A1125.000,1125.000 0.000 0,0 2569.939,1152.356 Z" style="stroke-width:2.0;stroke:rgb(115,115,115);stroke-linecap:round;fill:none;" />
<path d="M2456.267,1370.465 A965.000,965.000 40.000 0,1 2464.593,1471.980 L2624.526,1467.335 A1125.000,1125.000 0.000 0,0 2614.818,1348.988 Z" style="stroke-width:2.0;stroke:rgb(115,115,115);stroke-linecap:round;fill:rgb(153,0,204);" />
<text x="2699.8" y="1475.8" font-size="195.0px" font-family="CMUBright-Bold" style="text-anchor:start;fill:rgb(0,0,0);" transform="rotate(355.3,2699.8,1475.8)" >16</text>
<path d="M2456.267,1370.465 A965.000,965.000 40.000 0,1 2464.593,1471.980 L2624.526,1467.335 A1125.000,1125.000 0.000 0,0 2614.818,1348.988 Z" style="stroke-width:2.0;stroke:rgb(115,115,115);stroke-linecap:round;fill:none;" />
<path d="M2464.028,1543.295 A965.000,965.000 40.000 0,1 2454.095,1644.665 L2612.287,1668.651 A1125.000,1125.000 0.000 0,0 2623.867,1550.473 Z" style="stroke-width:2.0;stroke:rgb(115,115,115);stroke-linecap:round;fill:rgb(153,0,204);" />
<text x="2685.0" y="1689.4" font-size="195.0px" font-family="CMUBright-Bold" style="text-anchor:start;fill:rgb(0,0,0);" transform="rotate(5.6,2685.0,1689.4)" >17</text>
<path d="M2464.028,1543.295 A965.000,965.000 40.000 0,1 2454.095,1644.665 L2612.287,1668.651 A1125.000,1125.000 0.000 0,0 2623.867,1550.473 Z" style="stroke-width:2.0;stroke:rgb(115,115,115);stroke-linecap:round;fill:none;" />
<path d="M2440.805,1714.733 A965.000,965.000 40.000 0,1 2412.931,1812.701 L2564.298,1864.548 A1125.000,1125.000 0.000 0,0 2596.794,1750.336 Z" style="stroke-width:2.0;stroke:rgb(115,115,115);stroke-linecap:round;fill:rgb(153,0,204);" />
<text x="2631.8" y="1898.9" font-size="195.0px" font-family="CMUBright-Bold" style="text-anchor:start;fill:rgb(0,0,0);" transform="rotate(15.9,2631.8,1898.9)" >18</text>
<path d="M2440.805,1714.733 A965.000,965.000 40.000 0,1 2412.931,1812.701 L2564.298,1864.548 A1125.000,1125.000 0.000 0,0 2596.794,1750.336 Z" style="stroke-width:2.0;stroke:rgb(115,115,115);stroke-linecap:round;fill:none;" />
<path d="M2387.344,1879.269 A965.000,965.000 40.000 0,1 2342.425,1970.686 L2482.102,2048.727 A1125.000,1125.000 0.000 0,0 2534.469,1942.153 Z" style="stroke-width:2.0;stroke:rgb(115,115,115);stroke-linecap:round;fill:rgb(153,0,204);" />
<text x="2542.3" y="2094.6" font-size="195.0px" font-family="CMUBright-Bold" style="text-anchor:start;fill:rgb(0,0,0);" transform="rotate(26.2,2542.3,2094.6)" >19</text>
<path d="M2387.344,1879.269 A965.000,965.000 40.000 0,1 2342.425,1970.686 L2482.102,2048.727 A1125.000,1125.000 0.000 0,0 2534.469,1942.153 Z" style="stroke-width:2.0;stroke:rgb(115,115,115);stroke-linecap:round;fill:none;" />
<path d="M2305.363,2031.616 A965.000,965.000 40.000 0,1 2244.843,2113.542 L2368.340,2215.270 A1125.000,1125.000 0.000 0,0 2438.895,2119.759 Z" style="stroke-width:2.0;stroke:rgb(115,115,115);stroke-linecap:round;fill:rgb(153,0,204);" />
<text x="2419.4" y="2271.1" font-size="195.0px" font-family="CMUBright-Bold" style="text-anchor:start;fill:rgb(0,0,0);" transform="rotate(36.5,2419.4,2271.1)" >20</text>
<path d="M2305.363,2031.616 A965.000,965.000 40.000 0,1 2244.843,2113.542 L2368.340,2215.270 A1125.000,1125.000 0.000 0,0 2438.895,2119.759 Z" style="stroke-width:2.0;stroke:rgb(115,115,115);stroke-linecap:round;fill:none;" />
<path d="M2197.497,2166.875 A965.000,965.000 40.000 0,1 2123.321,2236.679 L2226.669,2358.823 A1125.000,1125.000 0.000 0,0 2313.144,2277.445 Z" style="stroke-width:2.0;stroke:rgb(115,115,115);stroke-linecap:round;fill:rgb(153,0,204);" />
<text x="2268.5" y="2421.6" font-size="195.0px" font-family="CMUBright-Bold" style="text-anchor:start;fill:rgb(0,0,0);" transform="rotate(46.7,2268.5,2421.6)" >21</text>
<path d="M2197.497,2166.875 A965.000,965.000 40.000 0,1 2123.321,2236.679 L2226.669,2358.823 A1125.000,1125.000 0.000 0,0 2313.144,2277.445 Z" style="stroke-width:2.0;stroke:rgb(115,115,115);stroke-linecap:round;fill:none;" />
<path d="M2067.213,2280.701 A965.000,965.000 40.000 0,1 1981.764,2336.139 L2061.642,2474.773 A1125.000,1125.000 0.000 0,0 2161.258,2410.144 Z" style="stroke-width:2.0;stroke:rgb(115,115,115);stroke-linecap:round;fill:rgb(153,0,204);" />
<text x="2089.8" y="2545.0" font-size="195.0px" font-family="CMUBright-Bold" style="text-anchor:start;fill:rgb(0,0,0);" transform="rotate(57.0,2089.8,2545.0)" >26</text>
<path d="M2067.213,2280.701 A965.000,965.000 40.000 0,1 1981.764,2336.139 L2061.642,2474.773 A1125.000,1125.000 0.000 0,0 2161.258,2410.144 Z" style="stroke-width:2.0;stroke:rgb(115,115,115);stroke-linecap:round;fill:none;" />
<path d="M1918.698,2369.435 A965.000,965.000 40.000 0,1 1824.724,2408.724 L1878.564,2559.393 A1125.000,1125.000 0.000 0,0 1988.119,2513.590 Z" style="stroke-width:2.0;stroke:rgb(115,115,115);stroke-linecap:round;fill:rgb(153,0,204);" />
<text x="1893.8" y="2633.6" font-size="195.0px" font-family="CMUBright-Bold" style="text-anchor:start;fill:rgb(0,0,0);" transform="rotate(67.3,1893.8,2633.6)" >28</text>
<path d="M1918.698,2369.435 A965.000,965.000 40.000 0,1 1824.724,2408.724 L1878.564,2559.393 A1125.000,1125.000 0.000 0,0 1988.119,2513.590 Z" style="stroke-width:2.0;stroke:rgb(115,115,115);stroke-linecap:round;fill:none;" />
<path d="M1756.726,2430.224 A965.000,965.000 40.000 0,1 1657.246,2452.102 L1683.318,2609.964 A1125.000,1125.000 0.000 0,0 1799.291,2584.458 Z" style="stroke-width:2.0;stroke:rgb(115,115,115);stroke-linecap:round;fill:rgb(153,0,204);" />
<text x="1685.0" y="2685.6" font-size="195.0px" font-family="CMUBright-Bold" style="text-anchor:start;fill:rgb(0,0,0);" transform="rotate(77.6,1685.0,2685.6)" >34</text>
<path d="M1756.726,2430.224 A965.000,965.000 40.000 0,1 1657.246,2452.102 L1683.318,2609.964 A1125.000,1125.000 0.000 0,0 1799.291,2584.458 Z" style="stroke-width:2.0;stroke:rgb(115,115,115);stroke-linecap:round;fill:none;" />
<path d="M1586.502,2461.115 A965.000,965.000 40.000 0,1 1484.715,2464.879 L1482.181,2624.859 A1125.000,1125.000 0.000 0,0 1600.844,2620.471 Z" style="stroke-width:2.0;stroke:rgb(115,115,115);stroke-linecap:round;fill:rgb(253,208,162);" />
<text x="1470.4" y="2699.6" font-size="195.0px" font-family="CMUBright-Bold" style="text-anchor:start;fill:rgb(0,0,0);" transform="rotate(87.9,1470.4,2699.6)" >3</text>
<path d="M1586.502,2461.115 A965.000,965.000 40.000 0,1 1484.715,2464.879 L1482.181,2624.859 A1125.000,1125.000 0.000 0,0 1600.844,2620.471 Z" style="stroke-width:2.0;stroke:rgb(115,115,115);stroke-linecap:round;fill:none;" />
<path d="M1413.498,2461.115 A965.000,965.000 40.000 0,1 1312.675,2446.644 L1281.616,2603.600 A1125.000,1125.000 0.000 0,0 1399.156,2620.471 Z" style="stroke-width:2.0;stroke:rgb(115,115,115);stroke-linecap:round;fill:rgb(253,208,162);" />
<text x="1403.0" y="2696.1" font-size="195.0px" font-family="CMUBright-Bold" style="text-anchor:end;fill:rgb(0,0,0);" transform="rotate(-81.8,1403.0,2696.1)" >15</text>
<path d="M1413.498,2461.115 A965.000,965.000 40.000 0,1 1312.675,2446.644 L1281.616,2603.600 A1125.000,1125.000 0.000 0,0 1399.156,2620.471 Z" style="stroke-width:2.0;stroke:rgb(115,115,115);stroke-linecap:round;fill:none;" />
<path d="M1243.274,2430.224 A965.000,965.000 40.000 0,1 1146.656,2397.983 L1088.070,2546.871 A1125.000,1125.000 0.000 0,0 1200.709,2584.458 Z" style="stroke-width:2.0;stroke:rgb(115,115,115);stroke-linecap:round;fill:rgb(253,208,162);" />
<text x="1191.0" y="2659.5" font-size="195.0px" font-family="CMUBright-Bold" style="text-anchor:end;fill:rgb(0,0,0);" transform="rotate(-71.5,1191.0,2659.5)" >31</text>
<path d="M1243.274,2430.224 A965.000,965.000 40.000 0,1 1146.656,2397.983 L1088.070,2546.871 A1125.000,1125.000 0.000 0,0 1200.709,2584.458 Z" style="stroke-width:2.0;stroke:rgb(115,115,115);stroke-linecap:round;fill:none;" />
<path d="M1081.302,2369.435 A965.000,965.000 40.000 0,1 991.993,2320.460 L907.764,2456.494 A1125.000,1125.000 0.000 0,0 1011.881,2513.590 Z" style="stroke-width:2.0;stroke:rgb(115,115,115);stroke-linecap:round;fill:rgb(253,208,162);" />
<text x="988.9" y="2585.7" font-size="195.0px" font-family="CMUBright-Bold" style="text-anchor:end;fill:rgb(0,0,0);" transform="rotate(-61.3,988.9,2585.7)" >33</text>
<path d="M1081.302,2369.435 A965.000,965.000 40.000 0,1 991.993,2320.460 L907.764,2456.494 A1125.000,1125.000 0.000 0,0 1011.881,2513.590 Z" style="stroke-width:2.0;stroke:rgb(115,115,115);stroke-linecap:round;fill:none;" />
<path d="M932.787,2280.701 A965.000,965.000 40.000 0,1 853.658,2216.566 L746.493,2335.375 A1125.000,1125.000 0.000 0,0 838.742,2410.144 Z" style="stroke-width:2.0;stroke:rgb(115,115,115);stroke-linecap:round;fill:rgb(253,141,60);" />
<text x="801.7" y="2475.9" font-size="195.0px" font-family="CMUBright-Bold" style="text-anchor:end;fill:rgb(0,0,0);" transform="rotate(-51.0,801.7,2475.9)" >2</text>
<path d="M932.787,2280.701 A965.000,965.000 40.000 0,1 853.658,2216.566 L746.493,2335.375 A1125.000,1125.000 0.000 0,0 838.742,2410.144 Z" style="stroke-width:2.0;stroke:rgb(115,115,115);stroke-linecap:round;fill:none;" />
<path d="M802.503,2166.875 A965.000,965.000 40.000 0,1 736.097,2089.642 L609.440,2187.406 A1125.000,1125.000 0.000 0,0 686.856,2277.445 Z" style="stroke-width:2.0;stroke:rgb(115,115,115);stroke-linecap:round;fill:rgb(253,141,60);" />
<text x="637.9" y="2334.8" font-size="195.0px" font-family="CMUBright-Bold" style="text-anchor:end;fill:rgb(0,0,0);" transform="rotate(-40.7,637.9,2334.8)" >7</text>
<path d="M802.503,2166.875 A965.000,965.000 40.000 0,1 736.097,2089.642 L609.440,2187.406 A1125.000,1125.000 0.000 0,0 686.856,2277.445 Z" style="stroke-width:2.0;stroke:rgb(115,115,115);stroke-linecap:round;fill:none;" />
<path d="M694.637,2031.616 A965.000,965.000 40.000 0,1 643.089,1943.766 L501.010,2017.344 A1125.000,1125.000 0.000 0,0 561.105,2119.759 Z" style="stroke-width:2.0;stroke:rgb(115,115,115);stroke-linecap:round;fill:rgb(253,141,60);" />
<text x="503.3" y="2168.3" font-size="195.0px" font-family="CMUBright-Bold" style="text-anchor:end;fill:rgb(0,0,0);" transform="rotate(-30.4,503.3,2168.3)" >12</text>
<path d="M694.637,2031.616 A965.000,965.000 40.000 0,1 643.089,1943.766 L501.010,2017.344 A1125.000,1125.000 0.000 0,0 561.105,2119.759 Z" style="stroke-width:2.0;stroke:rgb(115,115,115);stroke-linecap:round;fill:none;" />
<path d="M612.656,1879.269 A965.000,965.000 40.000 0,1 577.622,1783.627 L424.689,1830.653 A1125.000,1125.000 0.000 0,0 465.531,1942.153 Z" style="stroke-width:2.0;stroke:rgb(115,115,115);stroke-linecap:round;fill:rgb(253,141,60);" />
<text x="400.0" y="1979.6" font-size="195.0px" font-family="CMUBright-Bold" style="text-anchor:end;fill:rgb(0,0,0);" transform="rotate(-20.1,400.0,1979.6)" >22</text>
<path d="M612.656,1879.269 A965.000,965.000 40.000 0,1 577.622,1783.627 L424.689,1830.653 A1125.000,1125.000 0.000 0,0 465.531,1942.153 Z" style="stroke-width:2.0;stroke:rgb(115,115,115);stroke-linecap:round;fill:none;" />
<path d="M559.195,1714.733 A965.000,965.000 40.000 0,1 541.802,1614.372 L382.929,1633.336 A1125.000,1125.000 0.000 0,0 403.206,1750.336 Z" style="stroke-width:2.0;stroke:rgb(115,115,115);stroke-linecap:round;fill:rgb(253,141,60);" />
<text x="332.5" y="1777.4" font-size="195.0px" font-family="CMUBright-Bold" style="text-anchor:end;fill:rgb(0,0,0);" transform="rotate(-9.8,332.5,1777.4)" >23</text>
<path d="M559.195,1714.733 A965.000,965.000 40.000 0,1 541.802,1614.372 L382.929,1633.336 A1125.000,1125.000 0.000 0,0 403.206,1750.336 Z" style="stroke-width:2.0;stroke:rgb(115,115,115);stroke-linecap:round;fill:none;" />
<path d="M535.972,1543.295 A965.000,965.000 40.000 0,1 536.778,1441.441 L377.073,1431.732 A1125.000,1125.000 0.000 0,0 376.133,1550.473 Z" style="stroke-width:2.0;stroke:rgb(115,115,115);stroke-linecap:round;fill:rgb(253,141,60);" />
<text x="301.6" y="1562.5" font-size="195.0px" font-family="CMUBright-Bold" style="text-anchor:end;fill:rgb(0,0,0);" transform="rotate(0.5,301.6,1562.5)" >24</text>
<path d="M535.972,1543.295 A965.000,965.000 40.000 0,1 536.778,1441.441 L377.073,1431.732 A1125.000,1125.000 0.000 0,0 376.133,1550.473 Z" style="stroke-width:2.0;stroke:rgb(115,115,115);stroke-linecap:round;fill:none;" />
<path d="M543.733,1370.465 A965.000,965.000 40.000 0,1 562.714,1270.393 L407.309,1232.323 A1125.000,1125.000 0.000 0,0 385.182,1348.988 Z" style="stroke-width:2.0;stroke:rgb(115,115,115);stroke-linecap:round;fill:rgb(253,141,60);" />
<text x="309.5" y="1349.5" font-size="195.0px" font-family="CMUBright-Bold" style="text-anchor:end;fill:rgb(0,0,0);" transform="rotate(10.7,309.5,1349.5)" >25</text>
<path d="M543.733,1370.465 A965.000,965.000 40.000 0,1 562.714,1270.393 L407.309,1232.323 A1125.000,1125.000 0.000 0,0 385.182,1348.988 Z" style="stroke-width:2.0;stroke:rgb(115,115,115);stroke-linecap:round;fill:none;" />
<path d="M582.230,1201.799 A965.000,965.000 40.000 0,1 618.774,1106.724 L472.664,1041.517 A1125.000,1125.000 0.000 0,0 430.061,1152.356 Z" style="stroke-width:2.0;stroke:rgb(115,115,115);stroke-linecap:round;fill:rgb(253,141,60);" />
<text x="355.8" y="1138.4" font-size="195.0px" font-family="CMUBright-Bold" style="text-anchor:end;fill:rgb(0,0,0);" transform="rotate(21.0,355.8,1138.4)" >27</text>
<path d="M582.230,1201.799 A965.000,965.000 40.000 0,1 618.774,1106.724 L472.664,1041.517 A1125.000,1125.000 0.000 0,0 430.061,1152.356 Z" style="stroke-width:2.0;stroke:rgb(115,115,115);stroke-linecap:round;fill:none;" />
<path d="M650.225,1042.717 A965.000,965.000 40.000 0,1 703.158,955.695 L571.039,865.447 A1125.000,1125.000 0.000 0,0 509.330,966.898 Z" style="stroke-width:2.0;stroke:rgb(115,115,115);stroke-linecap:round;fill:rgb(253,141,60);" />
<text x="438.3" y="940.7" font-size="195.0px" font-family="CMUBright-Bold" style="text-anchor:end;fill:rgb(0,0,0);" transform="rotate(31.3,438.3,940.7)" >29</text>
<path d="M650.225,1042.717 A965.000,965.000 40.000 0,1 703.158,955.695 L571.039,865.447 A1125.000,1125.000 0.000 0,0 509.330,966.898 Z" style="stroke-width:2.0;stroke:rgb(115,115,115);stroke-linecap:round;fill:none;" />
<path d="M745.533,898.332 A965.000,965.000 40.000 0,1 813.153,822.160 L699.272,709.772 A1125.000,1125.000 0.000 0,0 620.440,798.574 Z" style="stroke-width:2.0;stroke:rgb(115,115,115);stroke-linecap:round;fill:rgb(253,141,60);" />
<text x="555.2" y="760.2" font-size="195.0px" font-family="CMUBright-Bold" style="text-anchor:end;fill:rgb(0,0,0);" transform="rotate(41.6,555.2,760.2)" >32</text>
<path d="M745.533,898.332 A965.000,965.000 40.000 0,1 813.153,822.160 L699.272,709.772 A1125.000,1125.000 0.000 0,0 620.440,798.574 Z" style="stroke-width:2.0;stroke:rgb(115,115,115);stroke-linecap:round;fill:none;" />
<path d="M865.089,773.286 A965.000,965.000 40.000 0,1 945.224,710.412 L853.241,579.496 A1125.000,1125.000 0.000 0,0 759.819,652.795 Z" style="stroke-width:2.0;stroke:rgb(115,115,115);stroke-linecap:round;fill:rgb(253,141,60);" />
<text x="702.5" y="603.4" font-size="195.0px" font-family="CMUBright-Bold" style="text-anchor:end;fill:rgb(0,0,0);" transform="rotate(51.9,702.5,603.4)" >35</text>
<path d="M865.089,773.286 A965.000,965.000 40.000 0,1 945.224,710.412 L853.241,579.496 A1125.000,1125.000 0.000 0,0 759.819,652.795 Z" style="stroke-width:2.0;stroke:rgb(115,115,115);stroke-linecap:round;fill:none;" />
<path d="M1005.052,671.597 A965.000,965.000 40.000 0,1 1095.126,624.042 L1027.997,478.806 A1125.000,1125.000 0.000 0,0 922.988,534.245 Z" style="stroke-width:2.0;stroke:rgb(115,115,115);stroke-linecap:round;fill:rgb(66,146,198);" />
<text x="877.1" y="474.3" font-size="195.0px" font-family="CMUBright-Bold" style="text-anchor:end;fill:rgb(0,0,0);" transform="rotate(62.2,877.1,474.3)" >11</text>
<path d="M1005.052,671.597 A965.000,965.000 40.000 0,1 1095.126,624.042 L1027.997,478.806 A1125.000,1125.000 0.000 0,0 922.988,534.245 Z" style="stroke-width:2.0;stroke:rgb(115,115,115);stroke-linecap:round;fill:none;" />
<path d="M1160.923,596.533 A965.000,965.000 40.000 0,1 1258.041,565.826 L1217.923,410.937 A1125.000,1125.000 0.000 0,0 1104.703,446.736 Z" style="stroke-width:2.0;stroke:rgb(115,115,115);stroke-linecap:round;fill:rgb(66,146,198);" />
<text x="1070.3" y="379.6" font-size="195.0px" font-family="CMUBright-Bold" style="text-anchor:end;fill:rgb(0,0,0);" transform="rotate(72.5,1070.3,379.6)" >14</text>
<path d="M1160.923,596.533 A965.000,965.000 40.000 0,1 1258.041,565.826 L1217.923,410.937 A1125.000,1125.000 0.000 0,0 1104.703,446.736 Z" style="stroke-width:2.0;stroke:rgb(115,115,115);stroke-linecap:round;fill:none;" />
<path d="M1327.693,550.508 A965.000,965.000 40.000 0,1 1428.732,537.635 L1416.916,378.072 A1125.000,1125.000 0.000 0,0 1299.123,393.079 Z" style="stroke-width:2.0;stroke:rgb(115,115,115);stroke-linecap:round;fill:rgb(66,146,198);" />
<text x="1275.3" y="321.2" font-size="195.0px" font-family="CMUBright-Bold" style="text-anchor:end;fill:rgb(0,0,0);" transform="rotate(82.7,1275.3,321.2)" >30</text>
<path d="M1327.693,550.508 A965.000,965.000 40.000 0,1 1428.732,537.635 L1416.916,378.072 A1125.000,1125.000 0.000 0,0 1299.123,393.079 Z" style="stroke-width:2.0;stroke:rgb(115,115,115);stroke-linecap:round;fill:none;" />
</g>
<g id="track_1">
<path d="M 1548.4,584.5 L 1546.2,620.5 1543.3,656.3 1539.8,691.7 1535.5,726.5 1530.5,760.4 1524.7,793.4 1518.1,825.2 1510.7,855.7 1502.4,884.6 1493.3,911.9 1483.3,937.4 1472.5,960.9 1460.7,982.5 1448.1,1002.0 1434.6,1019.3 1420.3,1034.3 1405.1,1047.1 1389.1,1057.4 1372.3,1065.4 1354.7,1071.0 1336.3,1074.1 1317.3,1074.8 1297.5,1073.2 1277.2,1069.1 1256.2,1062.7 1234.7,1054.0 1212.6,1043.1 1190.2,1030.0 1167.3,1014.9 1144.2,997.9 1120.8,978.9 1097.2,958.3 1073.6,936.1 1049.9,912.4 1026.2,887.5 1002.7,861.5 979.5,834.6 956.6,806.9 934.1,778.8  " style="stroke-opacity: 1.000000; stroke-width: 5.0; stroke: rgb(251,106,74); fill: none"  />
<path d="M 1711.1,607.9 L 1701.1,648.3 1690.3,689.0 1678.5,729.7 1665.8,770.4 1652.2,811.1 1637.5,851.7 1621.9,892.1 1605.2,932.2 1587.5,972.0 1568.7,1011.3 1548.9,1050.3 1528.0,1088.7 1506.1,1126.6 1483.1,1163.9 1459.0,1200.5 1433.9,1236.5 1407.8,1271.7 1380.7,1306.1 1352.5,1339.8 1323.4,1372.6 1293.4,1404.5 1262.4,1435.5 1230.5,1465.6 1197.8,1494.8 1164.3,1523.0 1130.0,1550.3 1095.0,1576.6 1059.3,1601.9 1022.9,1626.2 986.0,1649.5 948.6,1671.8 910.8,1693.1 872.6,1713.4 834.0,1732.7 795.2,1751.1 756.3,1768.6 717.2,1785.0 678.2,1800.6 639.2,1815.3  " style="stroke-opacity: 1.000000; stroke-width: 5.0; stroke: rgb(251,106,74); fill: none"  />
<path d="M 2011.1,738.9 L 1985.6,776.7 1959.8,814.4 1933.6,852.2 1907.2,889.9 1880.4,927.6 1853.3,965.3 1825.9,1002.9 1798.1,1040.4 1770.0,1077.8 1741.6,1115.1 1712.9,1152.2 1683.8,1189.3 1654.4,1226.1 1624.7,1262.8 1594.7,1299.3 1564.4,1335.6 1533.8,1371.7 1503.0,1407.6 1471.8,1443.3 1440.3,1478.7 1408.6,1513.9 1376.6,1548.8 1344.4,1583.5 1312.0,1617.9 1279.3,1652.0 1246.3,1685.8 1213.2,1719.3 1179.9,1752.6 1146.4,1785.5 1112.8,1818.1 1079.0,1850.5 1045.0,1882.5 1010.9,1914.2 976.8,1945.6 942.5,1976.6 908.1,2007.4 873.7,2037.8 839.3,2067.9 804.9,2097.7  " style="stroke-opacity: 1.000000; stroke-width: 5.0; stroke: rgb(251,106,74); fill: none"  />
<path d="M 804.9,2097.7 L 837.0,2069.7 868.9,2040.9 900.5,2011.3 931.9,1980.9 962.9,1949.8 993.5,1918.0 1023.6,1885.4 1053.1,1852.1 1082.1,1818.0 1110.4,1783.3 1138.1,1747.9 1165.0,1711.8 1191.2,1675.0 1216.5,1637.6 1241.1,1599.6 1264.7,1561.0 1287.5,1521.8 1309.4,1482.1 1330.4,1441.9 1350.4,1401.2 1369.4,1360.0 1387.5,1318.5 1404.5,1276.5 1420.6,1234.2 1435.7,1191.5 1449.8,1148.6 1462.9,1105.4 1475.1,1062.0 1486.2,1018.5 1496.4,974.8 1505.7,931.1 1514.0,887.4 1521.4,843.6 1527.9,800.0 1533.6,756.4 1538.4,713.1 1542.5,669.9 1545.8,627.1 1548.4,584.5  " style="stroke-opacity: 1.000000; stroke-width: 5.0; stroke: rgb(251,106,74); fill: none"  />
<path d="M 804.9,2097.7 L 839.3,2067.9 873.7,2037.8 908.1,2007.4 942.5,1976.6 976.8,1945.6 1010.9,1914.2 1045.0,1882.5 1079.0,1850.5 1112.8,1818.1 1146.4,1785.5 1179.9,1752.6 1213.2,1719.3 1246.3,1685.8 1279.3,1652.0 1312.0,1617.9 1344.4,1583.5 1376.6,1548.8 1408.6,1513.9 1440.3,1478.7 1471.8,1443.3 1503.0,1407.6 1533.8,1371.7 1564.4,1335.6 1594.7,1299.3 1624.7,1262.8 1654.4,1226.1 1683.8,1189.3 1712.9,1152.2 1741.6,1115.1 1770.0,1077.8 1798.1,1040.4 1825.9,1002.9 1853.3,965.3 1880.4,927.6 1907.2,889.9 1933.6,852.2 1959.8,814.4 1985.6,776.7 2011.1,738.9  " style="stroke-opacity: 1.000000; stroke-width: 5.0; stroke: rgb(251,106,74); fill: none"  />
<path d="M 804.9,2097.7 L 837.4,2070.2 870.6,2042.9 904.6,2016.0 939.3,1989.6 974.7,1963.6 1010.8,1938.1 1047.5,1913.3 1084.9,1889.0 1122.9,1865.5 1161.5,1842.7 1200.7,1820.7 1240.4,1799.5 1280.7,1779.1 1321.5,1759.6 1362.7,1741.1 1404.4,1723.5 1446.6,1706.8 1489.1,1691.1 1532.0,1676.4 1575.2,1662.8 1618.8,1650.1 1662.6,1638.5 1706.7,1627.9 1750.9,1618.3 1795.4,1609.8 1839.9,1602.3 1884.6,1595.8 1929.3,1590.3 1974.0,1585.8 2018.7,1582.3 2063.3,1579.7 2107.8,1578.0 2152.2,1577.2 2196.3,1577.3 2240.2,1578.3 2283.8,1580.0 2327.1,1582.4 2370.0,1585.6 2412.4,1589.4  " style="stroke-opacity: 1.000000; stroke-width: 5.0; stroke: rgb(251,106,74); fill: none"  />
<path d="M 804.9,2097.7 L 833.2,2073.9 862.1,2050.7 891.5,2028.4 921.2,2007.0 951.3,1986.8 981.5,1967.9 1011.9,1950.4 1042.2,1934.4 1072.5,1920.2 1102.7,1907.6 1132.7,1897.0 1162.4,1888.2 1191.7,1881.5 1220.6,1876.9 1249.1,1874.3 1277.0,1874.0 1304.3,1875.8 1331.1,1879.8 1357.1,1886.0 1382.4,1894.5 1407.0,1905.1 1430.8,1918.0 1453.7,1932.9 1475.8,1950.0 1497.1,1969.1 1517.4,1990.2 1536.8,2013.2 1555.3,2038.0 1572.9,2064.5 1589.5,2092.7 1605.1,2122.3 1619.8,2153.3 1633.6,2185.5 1646.4,2218.8 1658.3,2253.0 1669.3,2287.9 1679.4,2323.4 1688.6,2359.3 1696.9,2395.4  " style="stroke-opacity: 1.000000; stroke-width: 5.0; stroke: rgb(251,106,74); fill: none"  />
<path d="M 2245.9,967.0 L 2208.1,994.1 2170.2,1021.3 2132.4,1048.6 2094.6,1076.0 2056.7,1103.6 2018.9,1131.2 1981.1,1159.0 1943.3,1186.8 1905.6,1214.8 1867.8,1242.9 1830.2,1271.1 1792.5,1299.5 1754.9,1327.9 1717.4,1356.4 1679.9,1385.1 1642.5,1413.8 1605.1,1442.7 1567.8,1471.6 1530.6,1500.7 1493.4,1529.8 1456.3,1559.1 1419.3,1588.4 1382.4,1617.9 1345.6,1647.4 1308.8,1677.0 1272.2,1706.6 1235.6,1736.4 1199.2,1766.2 1162.8,1796.1 1126.5,1826.1 1090.4,1856.1 1054.3,1886.1 1018.3,1916.2 982.5,1946.4 946.7,1976.6 911.1,2006.8 875.6,2037.1 840.2,2067.4 804.9,2097.7  " style="stroke-opacity: 1.000000; stroke-width: 5.0; stroke: rgb(251,106,74); fill: none"  />
<path d="M 2245.9,967.0 L 2208.0,994.1 2170.0,1021.0 2132.0,1048.0 2093.8,1074.9 2055.4,1101.8 2017.0,1128.6 1978.5,1155.4 1939.9,1182.1 1901.2,1208.7 1862.4,1235.3 1823.5,1261.8 1784.5,1288.3 1745.4,1314.6 1706.3,1340.9 1667.0,1367.1 1627.7,1393.2 1588.3,1419.2 1548.8,1445.1 1509.2,1470.9 1469.6,1496.6 1429.9,1522.2 1390.2,1547.7 1350.4,1573.1 1310.5,1598.3 1270.6,1623.5 1230.7,1648.6 1190.7,1673.5 1150.7,1698.3 1110.6,1723.1 1070.5,1747.7 1030.4,1772.2 990.3,1796.5 950.1,1820.8 910.0,1844.9 869.8,1869.0 829.7,1892.9 789.5,1916.7 749.4,1940.4 709.3,1964.0  " style="stroke-opacity: 1.000000; stroke-width: 5.0; stroke: rgb(251,106,74); fill: none"  />
<path d="M 2245.9,967.0 L 2211.8,990.9 2176.9,1014.4 2141.3,1037.3 2104.9,1059.7 2067.8,1081.4 2030.1,1102.3 1991.8,1122.4 1952.8,1141.6 1913.3,1159.9 1873.3,1177.2 1832.7,1193.5 1791.7,1208.7 1750.2,1222.8 1708.4,1235.8 1666.2,1247.5 1623.6,1258.1 1580.8,1267.4 1537.7,1275.5 1494.4,1282.3 1450.9,1287.8 1407.2,1292.1 1363.5,1295.1 1319.7,1296.8 1275.8,1297.3 1232.0,1296.5 1188.3,1294.4 1144.6,1291.2 1101.1,1286.7 1057.7,1281.1 1014.6,1274.4 971.8,1266.6 929.3,1257.7 887.1,1247.9 845.3,1237.1 804.0,1225.4 763.2,1212.9 723.0,1199.6 683.3,1185.7 644.3,1171.1  " style="stroke-opacity: 1.000000; stroke-width: 5.0; stroke: rgb(251,106,74); fill: none"  />
<path d="M 709.3,1964.0 L 749.4,1940.4 789.5,1916.7 829.7,1892.9 869.8,1869.0 910.0,1844.9 950.1,1820.8 990.3,1796.5 1030.4,1772.2 1070.5,1747.7 1110.6,1723.1 1150.7,1698.3 1190.7,1673.5 1230.7,1648.6 1270.6,1623.5 1310.5,1598.3 1350.4,1573.1 1390.2,1547.7 1429.9,1522.2 1469.6,1496.6 1509.2,1470.9 1548.8,1445.1 1588.3,1419.2 1627.7,1393.2 1667.0,1367.1 1706.3,1340.9 1745.4,1314.6 1784.5,1288.3 1823.5,1261.8 1862.4,1235.3 1901.2,1208.7 1939.9,1182.1 1978.5,1155.4 2017.0,1128.6 2055.4,1101.8 2093.8,1074.9 2132.0,1048.0 2170.0,1021.0 2208.0,994.1 2245.9,967.0  " style="stroke-opacity: 1.000000; stroke-width: 5.0; stroke: rgb(251,106,74); fill: none"  />
<path d="M 709.3,1964.0 L 747.8,1941.6 786.8,1919.4 826.3,1897.5 866.1,1875.9 906.4,1854.5 947.1,1833.5 988.2,1812.9 1029.7,1792.7 1071.5,1772.8 1113.8,1753.4 1156.3,1734.4 1199.2,1716.0 1242.4,1698.0 1285.9,1680.5 1329.7,1663.5 1373.7,1647.1 1418.0,1631.2 1462.5,1615.8 1507.2,1601.1 1552.2,1586.9 1597.3,1573.2 1642.5,1560.2 1687.9,1547.7 1733.4,1535.9 1778.9,1524.6 1824.6,1513.9 1870.3,1503.8 1916.0,1494.3 1961.7,1485.3 2007.4,1476.9 2053.1,1469.1 2098.7,1461.8 2144.1,1455.1 2189.5,1448.8 2234.7,1443.1 2279.8,1437.9 2324.7,1433.2 2369.3,1428.9 2413.7,1425.1  " style="stroke-opacity: 1.000000; stroke-width: 5.0; stroke: rgb(251,106,74); fill: none"  />
<path d="M 709.3,1964.0 L 747.0,1942.1 785.3,1920.6 824.2,1899.5 863.6,1878.8 903.6,1858.5 944.0,1838.7 985.0,1819.4 1026.4,1800.7 1068.3,1782.6 1110.6,1765.1 1153.3,1748.3 1196.4,1732.2 1239.9,1716.7 1283.7,1702.0 1327.8,1688.1 1372.2,1674.9 1416.9,1662.5 1461.9,1650.9 1507.0,1640.1 1552.4,1630.2 1597.9,1621.0 1643.6,1612.7 1689.4,1605.2 1735.2,1598.5 1781.1,1592.6 1827.1,1587.6 1873.0,1583.4 1918.9,1579.9 1964.7,1577.3 2010.5,1575.4 2056.1,1574.2 2101.5,1573.8 2146.8,1574.2 2191.8,1575.2 2236.6,1576.8 2281.1,1579.1 2325.2,1582.0 2369.0,1585.4 2412.4,1589.4  " style="stroke-opacity: 1.000000; stroke-width: 5.0; stroke: rgb(251,106,74); fill: none"  />
<path d="M 709.3,1964.0 L 744.7,1943.7 780.8,1924.0 817.6,1905.1 855.1,1886.9 893.2,1869.6 931.9,1853.2 971.1,1837.8 1010.8,1823.5 1050.9,1810.4 1091.4,1798.5 1132.2,1787.9 1173.3,1778.6 1214.7,1770.6 1256.3,1764.0 1298.0,1758.9 1339.8,1755.1 1381.8,1752.9 1423.7,1752.1 1465.6,1752.8 1507.5,1755.1 1549.3,1758.8 1590.9,1764.0 1632.4,1770.6 1673.6,1778.7 1714.6,1788.2 1755.2,1799.2 1795.5,1811.5 1835.4,1825.1 1874.9,1839.9 1913.9,1856.0 1952.4,1873.3 1990.4,1891.7 2027.7,1911.1 2064.4,1931.4 2100.5,1952.7 2135.9,1974.7 2170.5,1997.5 2204.3,2020.8 2237.4,2044.7  " style="stroke-opacity: 1.000000; stroke-width: 5.0; stroke: rgb(251,106,74); fill: none"  />
<path d="M 709.3,1964.0 L 743.9,1944.2 779.3,1925.0 815.4,1906.7 852.1,1889.2 889.3,1872.7 927.1,1857.3 965.3,1843.1 1003.9,1830.0 1042.8,1818.3 1082.1,1808.0 1121.5,1799.1 1161.1,1791.7 1200.9,1785.8 1240.7,1781.5 1280.5,1778.9 1320.4,1777.8 1360.1,1778.4 1399.7,1780.7 1439.1,1784.7 1478.3,1790.3 1517.3,1797.6 1555.9,1806.5 1594.2,1817.1 1632.2,1829.3 1669.6,1843.1 1706.6,1858.4 1743.1,1875.2 1779.1,1893.5 1814.4,1913.1 1849.2,1934.1 1883.2,1956.3 1916.6,1979.6 1949.3,2004.0 1981.2,2029.4 2012.3,2055.7 2042.6,2082.8 2072.0,2110.6 2100.6,2138.9 2128.3,2167.6  " style="stroke-opacity: 1.000000; stroke-width: 5.0; stroke: rgb(251,106,74); fill: none"  />
<path d="M 709.3,1964.0 L 742.6,1945.0 776.5,1926.7 811.0,1909.4 845.9,1893.0 881.2,1877.9 916.8,1863.9 952.6,1851.3 988.5,1840.2 1024.4,1830.6 1060.3,1822.6 1096.1,1816.4 1131.8,1811.8 1167.2,1809.1 1202.2,1808.3 1237.0,1809.3 1271.3,1812.2 1305.1,1817.1 1338.4,1823.9 1371.1,1832.7 1403.2,1843.4 1434.7,1856.0 1465.4,1870.6 1495.4,1887.0 1524.6,1905.3 1553.0,1925.3 1580.5,1947.1 1607.2,1970.5 1633.0,1995.5 1657.8,2022.0 1681.7,2050.0 1704.7,2079.2 1726.8,2109.7 1747.8,2141.2 1767.9,2173.7 1787.0,2207.1 1805.1,2241.1 1822.3,2275.7 1838.4,2310.6 1853.6,2345.8  " style="stroke-opacity: 1.000000; stroke-width: 5.0; stroke: rgb(251,106,74); fill: none"  />
<path d="M 709.3,1964.0 L 742.0,1945.3 775.2,1927.4 808.9,1910.4 842.9,1894.5 877.1,1879.7 911.5,1866.2 945.9,1854.2 980.3,1843.6 1014.5,1834.6 1048.4,1827.4 1082.1,1821.9 1115.4,1818.2 1148.2,1816.4 1180.5,1816.5 1212.1,1818.6 1243.2,1822.7 1273.5,1828.8 1303.0,1837.0 1331.8,1847.1 1359.7,1859.3 1386.6,1873.5 1412.7,1889.6 1437.8,1907.7 1461.9,1927.7 1484.9,1949.5 1507.0,1973.1 1527.9,1998.4 1547.8,2025.3 1566.7,2053.7 1584.4,2083.6 1601.1,2114.8 1616.7,2147.2 1631.2,2180.6 1644.7,2215.0 1657.1,2250.1 1668.5,2285.9 1679.0,2322.2 1688.4,2358.7 1696.9,2395.4  " style="stroke-opacity: 1.000000; stroke-width: 5.0; stroke: rgb(251,106,74); fill: none"  />
<path d="M 2385.6,1263.1 L 2342.5,1274.4 2299.1,1285.4 2255.2,1296.1 2211.0,1306.3 2166.5,1316.2 2121.7,1325.6 2076.6,1334.5 2031.2,1343.0 1985.6,1351.0 1939.7,1358.5 1893.7,1365.4 1847.4,1371.8 1801.0,1377.7 1754.4,1383.0 1707.7,1387.7 1660.9,1391.8 1613.9,1395.4 1566.9,1398.3 1519.9,1400.7 1472.8,1402.4 1425.7,1403.5 1378.7,1404.1 1331.6,1404.0 1284.6,1403.3 1237.7,1402.1 1190.8,1400.3 1144.1,1397.8 1097.5,1394.9 1051.0,1391.3 1004.7,1387.3 958.6,1382.7 912.8,1377.6 867.1,1372.0 821.7,1365.9 776.6,1359.4 731.8,1352.4 687.3,1345.0 643.1,1337.3 599.3,1329.2  " style="stroke-opacity: 1.000000; stroke-width: 5.0; stroke: rgb(251,106,74); fill: none"  />
<path d="M 2413.7,1425.1 L 2369.3,1428.9 2324.7,1433.2 2279.8,1437.9 2234.7,1443.1 2189.5,1448.8 2144.1,1455.1 2098.7,1461.8 2053.1,1469.1 2007.4,1476.9 1961.7,1485.3 1916.0,1494.3 1870.3,1503.8 1824.6,1513.9 1778.9,1524.6 1733.4,1535.9 1687.9,1547.7 1642.5,1560.2 1597.3,1573.2 1552.2,1586.9 1507.2,1601.1 1462.5,1615.8 1418.0,1631.2 1373.7,1647.1 1329.7,1663.5 1285.9,1680.5 1242.4,1698.0 1199.2,1716.0 1156.3,1734.4 1113.8,1753.4 1071.5,1772.8 1029.7,1792.7 988.2,1812.9 947.1,1833.5 906.4,1854.5 866.1,1875.9 826.3,1897.5 786.8,1919.4 747.8,1941.6 709.3,1964.0  " style="stroke-opacity: 1.000000; stroke-width: 5.0; stroke: rgb(251,106,74); fill: none"  />
<path d="M 2412.4,1589.4 L 2369.0,1585.4 2325.2,1582.0 2281.1,1579.1 2236.6,1576.8 2191.8,1575.2 2146.8,1574.2 2101.5,1573.8 2056.1,1574.2 2010.5,1575.4 1964.7,1577.3 1918.9,1579.9 1873.0,1583.4 1827.1,1587.6 1781.1,1592.6 1735.2,1598.5 1689.4,1605.2 1643.6,1612.7 1597.9,1621.0 1552.4,1630.2 1507.0,1640.1 1461.9,1650.9 1416.9,1662.5 1372.2,1674.9 1327.8,1688.1 1283.7,1702.0 1239.9,1716.7 1196.4,1732.2 1153.3,1748.3 1110.6,1765.1 1068.3,1782.6 1026.4,1800.7 985.0,1819.4 944.0,1838.7 903.6,1858.5 863.6,1878.8 824.2,1899.5 785.3,1920.6 747.0,1942.1 709.3,1964.0  " style="stroke-opacity: 1.000000; stroke-width: 5.0; stroke: rgb(251,106,74); fill: none"  />
<path d="M 2412.4,1589.4 L 2366.1,1584.8 2319.7,1580.2 2273.3,1575.4 2226.8,1570.5 2180.3,1565.6 2133.7,1560.5 2087.1,1555.3 2040.5,1550.0 1993.8,1544.6 1947.1,1539.1 1900.3,1533.5 1853.6,1527.7 1806.8,1521.9 1760.0,1515.9 1713.2,1509.8 1666.5,1503.5 1619.7,1497.2 1572.9,1490.7 1526.1,1484.1 1479.4,1477.4 1432.7,1470.6 1385.9,1463.7 1339.3,1456.6 1292.6,1449.4 1246.0,1442.1 1199.4,1434.7 1152.9,1427.2 1106.4,1419.5 1060.0,1411.8 1013.6,1403.9 967.3,1396.0 921.0,1387.9 874.9,1379.8 828.7,1371.6 782.7,1363.2 736.7,1354.8 690.8,1346.4 645.0,1337.8 599.3,1329.2  " style="stroke-opacity: 1.000000; stroke-width: 5.0; stroke: rgb(251,106,74); fill: none"  />
<path d="M 2412.4,1589.4 L 2367.1,1584.8 2321.6,1580.0 2276.0,1574.9 2230.2,1569.5 2184.3,1563.8 2138.3,1557.7 2092.2,1551.4 2046.0,1544.7 1999.7,1537.7 1953.4,1530.3 1907.1,1522.6 1860.7,1514.6 1814.4,1506.2 1768.0,1497.4 1721.6,1488.3 1675.3,1478.8 1629.0,1469.0 1582.8,1458.8 1536.6,1448.3 1490.5,1437.4 1444.5,1426.1 1398.6,1414.5 1352.8,1402.5 1307.1,1390.3 1261.6,1377.6 1216.2,1364.7 1171.0,1351.4 1125.9,1337.8 1081.0,1323.9 1036.3,1309.8 991.9,1295.3 947.6,1280.6 903.5,1265.6 859.7,1250.4 816.1,1234.9 772.7,1219.2 729.7,1203.4 686.8,1187.3 644.3,1171.1  " style="stroke-opacity: 1.000000; stroke-width: 5.0; stroke: rgb(251,106,74); fill: none"  />
<path d="M 2237.4,2044.7 L 2204.3,2020.8 2170.5,1997.5 2135.9,1974.7 2100.5,1952.7 2064.4,1931.4 2027.7,1911.1 1990.4,1891.7 1952.4,1873.3 1913.9,1856.0 1874.9,1839.9 1835.4,1825.1 1795.5,1811.5 1755.2,1799.2 1714.6,1788.2 1673.6,1778.7 1632.4,1770.6 1590.9,1764.0 1549.3,1758.8 1507.5,1755.1 1465.6,1752.8 1423.7,1752.1 1381.8,1752.9 1339.8,1755.1 1298.0,1758.9 1256.3,1764.0 1214.7,1770.6 1173.3,1778.6 1132.2,1787.9 1091.4,1798.5 1050.9,1810.4 1010.8,1823.5 971.1,1837.8 931.9,1853.2 893.2,1869.6 855.1,1886.9 817.6,1905.1 780.8,1924.0 744.7,1943.7 709.3,1964.0  " style="stroke-opacity: 1.000000; stroke-width: 5.0; stroke: rgb(251,106,74); fill: none"  />
<path d="M 2128.3,2167.6 L 2100.6,2138.9 2072.0,2110.6 2042.6,2082.8 2012.3,2055.7 1981.2,2029.4 1949.3,2004.0 1916.6,1979.6 1883.2,1956.3 1849.2,1934.1 1814.4,1913.1 1779.1,1893.5 1743.1,1875.2 1706.6,1858.4 1669.6,1843.1 1632.2,1829.3 1594.2,1817.1 1555.9,1806.5 1517.3,1797.6 1478.3,1790.3 1439.1,1784.7 1399.7,1780.7 1360.1,1778.4 1320.4,1777.8 1280.5,1778.9 1240.7,1781.5 1200.9,1785.8 1161.1,1791.7 1121.5,1799.1 1082.1,1808.0 1042.8,1818.3 1003.9,1830.0 965.3,1843.1 927.1,1857.3 889.3,1872.7 852.1,1889.2 815.4,1906.7 779.3,1925.0 743.9,1944.2 709.3,1964.0  " style="stroke-opacity: 1.000000; stroke-width: 5.0; stroke: rgb(251,106,74); fill: none"  />
<path d="M 599.3,1329.2 L 637.0,1335.9 675.1,1341.6 713.4,1346.4 751.8,1350.0 790.1,1352.4 828.3,1353.6 866.3,1353.4 903.8,1351.8 940.9,1348.7 977.4,1344.1 1013.2,1338.0 1048.3,1330.3 1082.5,1320.9 1115.9,1309.9 1148.2,1297.3 1179.6,1282.9 1209.8,1267.0 1238.8,1249.3 1266.7,1230.1 1293.3,1209.2 1318.7,1186.7 1342.7,1162.7 1365.4,1137.1 1386.8,1110.1 1406.8,1081.7 1425.4,1051.9 1442.6,1020.9 1458.5,988.6 1472.9,955.3 1486.1,920.9 1497.9,885.7 1508.4,849.6 1517.6,812.8 1525.6,775.4 1532.3,737.6 1537.9,699.4 1542.4,661.1 1545.9,622.8 1548.4,584.5  " style="stroke-opacity: 1.000000; stroke-width: 5.0; stroke: rgb(251,106,74); fill: none"  />
<path d="M 599.3,1329.2 L 637.8,1336.0 676.7,1341.9 715.9,1346.8 755.3,1350.6 794.8,1353.2 834.3,1354.6 873.6,1354.7 912.8,1353.4 951.7,1350.7 990.2,1346.5 1028.3,1340.7 1065.8,1333.5 1102.7,1324.6 1139.0,1314.2 1174.4,1302.1 1209.1,1288.5 1243.0,1273.2 1275.9,1256.3 1307.9,1237.8 1338.8,1217.7 1368.8,1196.0 1397.6,1172.8 1425.4,1148.2 1452.0,1122.1 1477.5,1094.6 1501.8,1065.7 1524.9,1035.6 1546.8,1004.3 1567.5,971.9 1587.1,938.5 1605.4,904.1 1622.6,868.8 1638.6,832.8 1653.4,796.2 1667.1,759.0 1679.7,721.5 1691.2,683.7 1701.6,645.8 1711.1,607.9  " style="stroke-opacity: 1.000000; stroke-width: 5.0; stroke: rgb(251,106,74); fill: none"  />
<path d="M 599.3,1329.2 L 641.2,1336.8 683.6,1343.8 726.5,1350.1 769.8,1355.7 813.4,1360.6 857.4,1364.6 901.6,1367.8 946.1,1370.1 990.8,1371.6 1035.6,1372.0 1080.6,1371.6 1125.6,1370.1 1170.6,1367.6 1215.7,1364.2 1260.7,1359.6 1305.6,1354.1 1350.5,1347.5 1395.1,1339.8 1439.6,1331.1 1483.9,1321.4 1528.0,1310.6 1571.8,1298.8 1615.2,1286.0 1658.3,1272.2 1701.1,1257.4 1743.5,1241.7 1785.4,1225.0 1826.9,1207.4 1867.9,1189.0 1908.3,1169.8 1948.3,1149.7 1987.7,1129.0 2026.5,1107.5 2064.7,1085.4 2102.3,1062.7 2139.2,1039.4 2175.5,1015.7 2211.1,991.5 2245.9,967.0  " style="stroke-opacity: 1.000000; stroke-width: 5.0; stroke: rgb(251,106,74); fill: none"  />
<path d="M 599.3,1329.2 L 645.0,1337.8 690.8,1346.4 736.7,1354.8 782.7,1363.2 828.7,1371.6 874.9,1379.8 921.0,1387.9 967.3,1396.0 1013.6,1403.9 1060.0,1411.8 1106.4,1419.5 1152.9,1427.2 1199.4,1434.7 1246.0,1442.1 1292.6,1449.4 1339.3,1456.6 1385.9,1463.7 1432.7,1470.6 1479.4,1477.4 1526.1,1484.1 1572.9,1490.7 1619.7,1497.2 1666.5,1503.5 1713.2,1509.8 1760.0,1515.9 1806.8,1521.9 1853.6,1527.7 1900.3,1533.5 1947.1,1539.1 1993.8,1544.6 2040.5,1550.0 2087.1,1555.3 2133.7,1560.5 2180.3,1565.6 2226.8,1570.5 2273.3,1575.4 2319.7,1580.2 2366.1,1584.8 2412.4,1589.4  " style="stroke-opacity: 1.000000; stroke-width: 5.0; stroke: rgb(251,106,74); fill: none"  />
<path d="M 644.3,1171.1 L 683.3,1185.7 723.0,1199.6 763.2,1212.9 804.0,1225.4 845.3,1237.1 887.1,1247.9 929.3,1257.7 971.8,1266.6 1014.6,1274.4 1057.7,1281.1 1101.1,1286.7 1144.6,1291.2 1188.3,1294.4 1232.0,1296.5 1275.8,1297.3 1319.7,1296.8 1363.5,1295.1 1407.2,1292.1 1450.9,1287.8 1494.4,1282.3 1537.7,1275.5 1580.8,1267.4 1623.6,1258.1 1666.2,1247.5 1708.4,1235.8 1750.2,1222.8 1791.7,1208.7 1832.7,1193.5 1873.3,1177.2 1913.3,1159.9 1952.8,1141.6 1991.8,1122.4 2030.1,1102.3 2067.8,1081.4 2104.9,1059.7 2141.3,1037.3 2176.9,1014.4 2211.8,990.9 2245.9,967.0  " style="stroke-opacity: 1.000000; stroke-width: 5.0; stroke: rgb(251,106,74); fill: none"  />
<path d="M 644.3,1171.1 L 683.9,1186.7 723.7,1203.1 763.5,1220.3 803.2,1238.3 842.9,1257.1 882.4,1276.8 921.7,1297.4 960.7,1318.8 999.4,1341.1 1037.8,1364.3 1075.8,1388.4 1113.3,1413.3 1150.3,1439.1 1186.7,1465.8 1222.6,1493.3 1257.9,1521.7 1292.6,1550.9 1326.5,1581.0 1359.8,1611.8 1392.3,1643.4 1424.1,1675.7 1455.1,1708.8 1485.3,1742.6 1514.7,1777.0 1543.3,1812.1 1571.0,1847.8 1597.9,1884.0 1623.9,1920.8 1649.0,1958.1 1673.3,1995.7 1696.8,2033.8 1719.3,2072.2 1741.0,2110.9 1761.9,2149.8 1781.9,2188.9 1801.0,2228.1 1819.3,2267.4 1836.9,2306.6 1853.6,2345.8  " style="stroke-opacity: 1.000000; stroke-width: 5.0; stroke: rgb(251,106,74); fill: none"  />
<path d="M 1853.6,2345.8 L 1838.4,2310.6 1822.3,2275.7 1805.1,2241.1 1787.0,2207.1 1767.9,2173.7 1747.8,2141.2 1726.8,2109.7 1704.7,2079.2 1681.7,2050.0 1657.8,2022.0 1633.0,1995.5 1607.2,1970.5 1580.5,1947.1 1553.0,1925.3 1524.6,1905.3 1495.4,1887.0 1465.4,1870.6 1434.7,1856.0 1403.2,1843.4 1371.1,1832.7 1338.4,1823.9 1305.1,1817.1 1271.3,1812.2 1237.0,1809.3 1202.2,1808.3 1167.2,1809.1 1131.8,1811.8 1096.1,1816.4 1060.3,1822.6 1024.4,1830.6 988.5,1840.2 952.6,1851.3 916.8,1863.9 881.2,1877.9 845.9,1893.0 811.0,1909.4 776.5,1926.7 742.6,1945.0 709.3,1964.0  " style="stroke-opacity: 1.000000; stroke-width: 5.0; stroke: rgb(251,106,74); fill: none"  />
<path d="M 716.8,1023.6 L 754.9,1046.6 793.6,1069.3 832.6,1091.9 872.2,1114.1 912.1,1136.1 952.5,1157.7 993.2,1179.0 1034.4,1199.9 1075.9,1220.4 1117.8,1240.5 1160.1,1260.1 1202.7,1279.3 1245.6,1298.0 1288.8,1316.2 1332.3,1333.8 1376.1,1351.0 1420.1,1367.6 1464.4,1383.6 1508.8,1399.1 1553.5,1414.0 1598.4,1428.3 1643.4,1442.1 1688.6,1455.3 1733.9,1467.8 1779.3,1479.8 1824.8,1491.3 1870.3,1502.1 1915.8,1512.3 1961.4,1522.0 2007.0,1531.1 2052.5,1539.7 2098.0,1547.7 2143.4,1555.1 2188.6,1562.1 2233.8,1568.5 2278.7,1574.4 2323.5,1579.9 2368.1,1584.9 2412.4,1589.4  " style="stroke-opacity: 1.000000; stroke-width: 5.0; stroke: rgb(251,106,74); fill: none"  />
<path d="M 716.8,1023.6 L 753.0,1046.0 789.2,1069.2 825.2,1093.2 861.1,1118.1 896.8,1143.7 932.1,1170.1 967.1,1197.4 1001.7,1225.4 1035.9,1254.3 1069.5,1284.0 1102.5,1314.4 1135.0,1345.7 1166.8,1377.7 1197.9,1410.4 1228.3,1443.9 1257.9,1478.2 1286.8,1513.1 1314.9,1548.7 1342.1,1585.0 1368.5,1621.9 1393.9,1659.4 1418.5,1697.4 1442.2,1736.1 1465.0,1775.2 1486.8,1814.8 1507.7,1854.9 1527.7,1895.4 1546.8,1936.2 1564.9,1977.3 1582.0,2018.7 1598.3,2060.4 1613.6,2102.2 1628.1,2144.1 1641.6,2186.1 1654.3,2228.2 1666.2,2270.2 1677.2,2312.1 1687.4,2353.8 1696.9,2395.4  " style="stroke-opacity: 1.000000; stroke-width: 5.0; stroke: rgb(251,106,74); fill: none"  />
<path d="M 1696.9,2395.4 L 1688.4,2358.7 1679.0,2322.2 1668.5,2285.9 1657.1,2250.1 1644.7,2215.0 1631.2,2180.6 1616.7,2147.2 1601.1,2114.8 1584.4,2083.6 1566.7,2053.7 1547.8,2025.3 1527.9,1998.4 1507.0,1973.1 1484.9,1949.5 1461.9,1927.7 1437.8,1907.7 1412.7,1889.6 1386.6,1873.5 1359.7,1859.3 1331.8,1847.1 1303.0,1837.0 1273.5,1828.8 1243.2,1822.7 1212.1,1818.6 1180.5,1816.5 1148.2,1816.4 1115.4,1818.2 1082.1,1821.9 1048.4,1827.4 1014.5,1834.6 980.3,1843.6 945.9,1854.2 911.5,1866.2 877.1,1879.7 842.9,1894.5 808.9,1910.4 775.2,1927.4 742.0,1945.3 709.3,1964.0  " style="stroke-opacity: 1.000000; stroke-width: 5.0; stroke: rgb(251,106,74); fill: none"  />
<path d="M 1696.9,2395.4 L 1687.4,2353.8 1677.2,2312.1 1666.2,2270.2 1654.3,2228.2 1641.6,2186.1 1628.1,2144.1 1613.6,2102.2 1598.3,2060.4 1582.0,2018.7 1564.9,1977.3 1546.8,1936.2 1527.7,1895.4 1507.7,1854.9 1486.8,1814.8 1465.0,1775.2 1442.2,1736.1 1418.5,1697.4 1393.9,1659.4 1368.5,1621.9 1342.1,1585.0 1314.9,1548.7 1286.8,1513.1 1257.9,1478.2 1228.3,1443.9 1197.9,1410.4 1166.8,1377.7 1135.0,1345.7 1102.5,1314.4 1069.5,1284.0 1035.9,1254.3 1001.7,1225.4 967.1,1197.4 932.1,1170.1 896.8,1143.7 861.1,1118.1 825.2,1093.2 789.2,1069.2 753.0,1046.0 716.8,1023.6  " style="stroke-opacity: 1.000000; stroke-width: 5.0; stroke: rgb(251,106,74); fill: none"  />
<path d="M 934.1,778.8 L 956.6,806.9 979.5,834.6 1002.7,861.5 1026.2,887.5 1049.9,912.4 1073.6,936.1 1097.2,958.3 1120.8,978.9 1144.2,997.9 1167.3,1014.9 1190.2,1030.0 1212.6,1043.1 1234.7,1054.0 1256.2,1062.7 1277.2,1069.1 1297.5,1073.2 1317.3,1074.8 1336.3,1074.1 1354.7,1071.0 1372.3,1065.4 1389.1,1057.4 1405.1,1047.1 1420.3,1034.3 1434.6,1019.3 1448.1,1002.0 1460.7,982.5 1472.5,960.9 1483.3,937.4 1493.3,911.9 1502.4,884.6 1510.7,855.7 1518.1,825.2 1524.7,793.4 1530.5,760.4 1535.5,726.5 1539.8,691.7 1543.3,656.3 1546.2,620.5 1548.4,584.5  " style="stroke-opacity: 1.000000; stroke-width: 5.0; stroke: rgb(251,106,74); fill: none"  />
</g>
<g id="track_0">
<path d="M 1548.4,584.5 L 1546.7,619.9 1545.3,655.1 1544.4,689.8 1543.9,723.8 1543.9,756.9 1544.3,788.8 1545.4,819.5 1546.9,848.7 1549.1,876.2 1551.9,901.9 1555.3,925.6 1559.3,947.3 1564.0,966.8 1569.3,984.0 1575.2,998.8 1581.9,1011.2 1589.1,1021.0 1597.1,1028.4 1605.6,1033.1 1614.8,1035.3 1624.6,1034.9 1634.9,1031.9 1645.9,1026.3 1657.3,1018.2 1669.3,1007.6 1681.8,994.6 1694.7,979.3 1708.0,961.7 1721.6,942.0 1735.6,920.3 1749.9,896.7 1764.4,871.3 1779.0,844.4 1793.8,816.0 1808.6,786.4 1823.4,755.8 1838.1,724.3 1852.6,692.3 1867.0,659.9  " style="stroke-opacity: 1.000000; stroke-width: 5.0; stroke: rgb(107,174,214); fill: none"  />
<path d="M 1548.4,584.5 L 1546.8,621.0 1546.0,657.4 1546.1,693.6 1547.1,729.3 1549.0,764.5 1552.0,798.9 1556.1,832.3 1561.2,864.7 1567.6,895.7 1575.1,925.4 1583.8,953.7 1593.8,980.2 1605.0,1005.1 1617.5,1028.2 1631.3,1049.4 1646.3,1068.6 1662.5,1085.8 1680.0,1101.0 1698.7,1114.0 1718.6,1124.9 1739.7,1133.7 1761.9,1140.3 1785.1,1144.8 1809.4,1147.1 1834.6,1147.3 1860.8,1145.4 1887.8,1141.5 1915.6,1135.6 1944.1,1127.8 1973.2,1118.2 2002.8,1106.8 2032.8,1093.8 2063.2,1079.2 2093.8,1063.3 2124.5,1046.0 2155.2,1027.6 2185.7,1008.2 2216.0,987.9 2245.9,967.0  " style="stroke-opacity: 1.000000; stroke-width: 5.0; stroke: rgb(107,174,214); fill: none"  />
<path d="M 1548.4,584.5 L 1546.8,621.5 1546.2,658.5 1546.4,695.4 1547.7,732.0 1550.1,768.2 1553.6,803.7 1558.3,838.4 1564.2,872.2 1571.4,904.9 1579.9,936.4 1589.8,966.7 1601.0,995.5 1613.6,1022.8 1627.6,1048.6 1643.0,1072.6 1659.8,1095.0 1677.9,1115.5 1697.4,1134.2 1718.3,1151.0 1740.4,1165.9 1763.9,1178.8 1788.6,1189.8 1814.4,1198.8 1841.5,1205.9 1869.6,1211.0 1898.7,1214.3 1928.8,1215.6 1959.7,1215.1 1991.4,1212.7 2023.8,1208.7 2056.8,1203.0 2090.4,1195.7 2124.3,1186.9 2158.5,1176.7 2192.8,1165.2 2227.2,1152.6 2261.4,1138.8 2295.5,1124.2 2329.1,1108.8  " style="stroke-opacity: 1.000000; stroke-width: 5.0; stroke: rgb(107,174,214); fill: none"  />
<path d="M 1548.4,584.5 L 1546.8,622.1 1546.2,659.8 1546.6,697.6 1548.1,735.1 1550.7,772.3 1554.6,809.0 1559.7,845.1 1566.1,880.5 1573.9,915.0 1583.0,948.5 1593.6,980.9 1605.7,1012.1 1619.2,1042.1 1634.1,1070.7 1650.5,1097.9 1668.5,1123.5 1687.8,1147.6 1708.6,1170.1 1730.9,1191.0 1754.5,1210.1 1779.5,1227.6 1805.8,1243.3 1833.4,1257.3 1862.3,1269.5 1892.2,1279.9 1923.3,1288.6 1955.4,1295.6 1988.5,1300.9 2022.4,1304.6 2057.1,1306.6 2092.4,1307.1 2128.3,1306.0 2164.7,1303.5 2201.4,1299.7 2238.4,1294.6 2275.4,1288.2 2312.4,1280.8 2349.2,1272.4 2385.6,1263.1  " style="stroke-opacity: 1.000000; stroke-width: 5.0; stroke: rgb(107,174,214); fill: none"  />
<path d="M 1548.4,584.5 L 1546.8,623.6 1546.2,662.9 1546.6,702.4 1548.1,742.0 1550.8,781.5 1554.7,820.8 1559.9,859.8 1566.5,898.5 1574.4,936.6 1583.7,974.2 1594.5,1011.2 1606.7,1047.4 1620.5,1082.8 1635.7,1117.3 1652.4,1150.8 1670.6,1183.4 1690.3,1214.9 1711.4,1245.2 1734.1,1274.4 1758.1,1302.4 1783.6,1329.1 1810.4,1354.6 1838.6,1378.8 1868.1,1401.7 1898.7,1423.2 1930.6,1443.5 1963.5,1462.3 1997.5,1479.9 2032.4,1496.0 2068.1,1510.9 2104.7,1524.5 2141.9,1536.7 2179.8,1547.7 2218.0,1557.5 2256.7,1566.1 2295.6,1573.5 2334.6,1579.9 2373.6,1585.1 2412.4,1589.4  " style="stroke-opacity: 1.000000; stroke-width: 5.0; stroke: rgb(107,174,214); fill: none"  />
<path d="M 1548.4,584.5 L 1546.7,624.4 1546.0,664.6 1546.3,705.0 1547.7,745.7 1550.1,786.3 1553.8,826.9 1558.7,867.4 1564.9,907.7 1572.4,947.7 1581.3,987.2 1591.6,1026.4 1603.2,1065.0 1616.3,1102.9 1630.8,1140.3 1646.7,1176.9 1664.1,1212.7 1682.9,1247.7 1703.1,1281.8 1724.8,1315.0 1747.8,1347.3 1772.2,1378.5 1797.9,1408.7 1824.9,1437.9 1853.2,1465.9 1882.7,1492.9 1913.3,1518.7 1945.0,1543.3 1977.7,1566.9 2011.4,1589.2 2046.0,1610.4 2081.4,1630.5 2117.5,1649.4 2154.2,1667.2 2191.4,1683.8 2229.1,1699.4 2267.1,1713.8 2305.3,1727.2 2343.5,1739.5 2381.8,1750.9  " style="stroke-opacity: 1.000000; stroke-width: 5.0; stroke: rgb(107,174,214); fill: none"  />
<path d="M 1548.4,584.5 L 1546.1,630.0 1544.1,675.7 1542.3,721.6 1540.8,767.7 1539.5,813.9 1538.6,860.3 1538.0,906.8 1537.6,953.5 1537.6,1000.3 1538.0,1047.1 1538.6,1094.1 1539.6,1141.2 1541.0,1188.3 1542.7,1235.4 1544.8,1282.6 1547.2,1329.9 1550.0,1377.1 1553.1,1424.4 1556.6,1471.6 1560.5,1518.8 1564.7,1566.0 1569.3,1613.1 1574.3,1660.2 1579.6,1707.2 1585.2,1754.1 1591.2,1800.9 1597.6,1847.6 1604.3,1894.2 1611.3,1940.6 1618.6,1986.9 1626.2,2033.1 1634.1,2079.1 1642.3,2124.9 1650.8,2170.5 1659.6,2215.9 1668.6,2261.1 1677.8,2306.1 1687.2,2350.9 1696.9,2395.4  " style="stroke-opacity: 1.000000; stroke-width: 5.0; stroke: rgb(107,174,214); fill: none"  />
<path d="M 1711.1,607.9 L 1702.9,642.2 1694.6,676.2 1686.2,709.6 1677.8,742.3 1669.4,774.0 1661.0,804.4 1652.8,833.5 1644.7,860.9 1636.7,886.6 1628.9,910.4 1621.3,932.1 1614.0,951.7 1607.0,969.0 1600.2,983.8 1593.7,996.3 1587.6,1006.1 1581.8,1013.4 1576.3,1018.1 1571.3,1020.1 1566.6,1019.4 1562.3,1016.1 1558.4,1010.1 1554.9,1001.4 1551.8,990.2 1549.0,976.5 1546.7,960.3 1544.8,941.8 1543.3,920.9 1542.1,898.0 1541.3,872.9 1540.9,846.0 1540.9,817.4 1541.1,787.2 1541.7,755.7 1542.5,722.9 1543.6,689.2 1545.0,654.7 1546.6,619.7 1548.4,584.5  " style="stroke-opacity: 1.000000; stroke-width: 5.0; stroke: rgb(107,174,214); fill: none"  />
<path d="M 1711.1,607.9 L 1703.1,642.4 1695.5,676.7 1688.3,710.7 1681.8,744.1 1675.8,776.6 1670.6,808.2 1666.1,838.5 1662.5,867.5 1659.7,895.0 1657.8,920.7 1656.9,944.7 1657.0,966.8 1658.1,986.8 1660.3,1004.6 1663.5,1020.3 1667.8,1033.6 1673.2,1044.7 1679.7,1053.3 1687.3,1059.5 1695.9,1063.3 1705.6,1064.6 1716.3,1063.5 1728.1,1060.0 1740.8,1054.0 1754.5,1045.8 1769.1,1035.2 1784.5,1022.4 1800.7,1007.5 1817.7,990.6 1835.4,971.7 1853.6,951.0 1872.4,928.6 1891.6,904.7 1911.2,879.5 1931.0,853.0 1951.1,825.5 1971.2,797.2 1991.2,768.2 2011.1,738.9  " style="stroke-opacity: 1.000000; stroke-width: 5.0; stroke: rgb(107,174,214); fill: none"  />
<path d="M 1867.0,659.9 L 1852.8,692.2 1838.5,724.2 1824.3,755.6 1810.2,786.2 1796.3,815.9 1782.6,844.4 1769.3,871.5 1756.4,897.0 1744.0,920.9 1732.1,942.9 1720.8,962.9 1710.1,980.9 1700.1,996.6 1690.7,1010.0 1682.2,1021.1 1674.4,1029.7 1667.4,1035.9 1661.2,1039.5 1655.8,1040.5 1651.3,1039.0 1647.7,1035.0 1644.9,1028.4 1643.0,1019.3 1641.9,1007.7 1641.7,993.7 1642.3,977.3 1643.8,958.7 1646.0,938.0 1649.0,915.2 1652.6,890.4 1657.0,863.9 1662.1,835.7 1667.7,806.0 1673.9,775.1 1680.6,743.0 1687.7,710.0 1695.2,676.3 1703.0,642.2 1711.1,607.9  " style="stroke-opacity: 1.000000; stroke-width: 5.0; stroke: rgb(107,174,214); fill: none"  />
<path d="M 1867.0,659.9 L 1852.9,692.4 1839.3,724.9 1826.3,757.0 1813.8,788.7 1802.2,819.7 1791.4,849.8 1781.6,878.8 1772.8,906.7 1765.2,933.2 1758.7,958.2 1753.6,981.7 1749.7,1003.4 1747.2,1023.2 1746.2,1041.2 1746.6,1057.2 1748.4,1071.1 1751.7,1082.9 1756.6,1092.6 1762.9,1100.0 1770.7,1105.3 1780.0,1108.3 1790.8,1109.1 1803.0,1107.8 1816.6,1104.2 1831.5,1098.5 1847.7,1090.7 1865.2,1080.9 1883.8,1069.1 1903.6,1055.5 1924.3,1040.1 1946.0,1023.0 1968.4,1004.3 1991.6,984.2 2015.4,962.8 2039.7,940.3 2064.3,916.9 2089.1,892.6 2114.0,867.7 2138.8,842.4  " style="stroke-opacity: 1.000000; stroke-width: 5.0; stroke: rgb(107,174,214); fill: none"  />
<path d="M 1867.0,659.9 L 1852.8,693.0 1839.3,726.3 1826.6,759.5 1814.9,792.6 1804.1,825.2 1794.5,857.2 1786.2,888.6 1779.2,919.2 1773.6,948.7 1769.5,977.2 1767.0,1004.5 1766.2,1030.4 1767.0,1055.0 1769.6,1078.1 1773.9,1099.6 1779.9,1119.4 1787.8,1137.6 1797.5,1154.1 1808.9,1168.7 1822.2,1181.6 1837.1,1192.6 1853.9,1201.8 1872.3,1209.1 1892.3,1214.6 1913.9,1218.3 1937.1,1220.2 1961.6,1220.3 1987.6,1218.7 2014.7,1215.4 2043.1,1210.5 2072.5,1204.1 2102.8,1196.2 2133.9,1187.0 2165.7,1176.4 2198.0,1164.7 2230.7,1152.0 2263.5,1138.3 2296.4,1123.9 2329.1,1108.8  " style="stroke-opacity: 1.000000; stroke-width: 5.0; stroke: rgb(107,174,214); fill: none"  />
<path d="M 1867.0,659.9 L 1852.7,693.5 1839.2,727.3 1826.5,761.2 1814.9,795.0 1804.3,828.6 1795.0,861.9 1787.1,894.6 1780.6,926.7 1775.6,958.0 1772.2,988.5 1770.4,1017.9 1770.4,1046.3 1772.2,1073.6 1775.8,1099.6 1781.2,1124.2 1788.5,1147.5 1797.7,1169.3 1808.7,1189.7 1821.7,1208.5 1836.5,1225.7 1853.1,1241.3 1871.5,1255.2 1891.8,1267.6 1913.7,1278.3 1937.2,1287.3 1962.4,1294.8 1989.1,1300.6 2017.1,1304.9 2046.6,1307.6 2077.2,1308.8 2108.9,1308.6 2141.6,1306.9 2175.2,1304.0 2209.4,1299.8 2244.2,1294.4 2279.4,1287.9 2314.8,1280.5 2350.3,1272.2 2385.6,1263.1  " style="stroke-opacity: 1.000000; stroke-width: 5.0; stroke: rgb(107,174,214); fill: none"  />
<path d="M 1867.0,659.9 L 1851.8,695.9 1837.3,732.5 1823.8,769.6 1811.4,807.2 1800.0,845.1 1789.9,883.3 1781.0,921.7 1773.6,960.2 1767.6,998.7 1763.1,1037.2 1760.2,1075.6 1759.0,1113.8 1759.4,1151.7 1761.5,1189.4 1765.3,1226.6 1771.0,1263.5 1778.3,1299.9 1787.5,1335.8 1798.4,1371.0 1811.1,1405.7 1825.6,1439.7 1841.7,1473.0 1859.6,1505.5 1879.1,1537.3 1900.3,1568.2 1923.0,1598.4 1947.2,1627.6 1972.8,1655.9 1999.8,1683.4 2028.1,1709.8 2057.5,1735.4 2088.1,1760.0 2119.6,1783.6 2152.0,1806.2 2185.2,1827.8 2219.0,1848.4 2253.3,1868.0 2287.9,1886.6 2322.8,1904.3  " style="stroke-opacity: 1.000000; stroke-width: 5.0; stroke: rgb(107,174,214); fill: none"  />
<path d="M 1867.0,659.9 L 1850.7,698.2 1834.9,737.2 1819.9,776.9 1805.5,817.1 1792.0,857.8 1779.4,899.0 1767.6,940.7 1756.9,982.8 1747.1,1025.2 1738.5,1068.0 1731.0,1111.0 1724.6,1154.3 1719.4,1197.8 1715.4,1241.4 1712.6,1285.2 1711.1,1329.0 1710.8,1372.8 1711.8,1416.6 1714.1,1460.4 1717.7,1504.1 1722.6,1547.7 1728.7,1591.1 1736.1,1634.4 1744.8,1677.3 1754.6,1720.0 1765.7,1762.4 1777.9,1804.5 1791.2,1846.1 1805.7,1887.4 1821.2,1928.2 1837.7,1968.4 1855.2,2008.2 1873.5,2047.4 1892.8,2086.0 1912.7,2124.0 1933.4,2161.4 1954.7,2198.0 1976.6,2233.9 1999.0,2269.1  " style="stroke-opacity: 1.000000; stroke-width: 5.0; stroke: rgb(107,174,214); fill: none"  />
<path d="M 1867.0,659.9 L 1850.2,699.1 1834.0,738.9 1818.3,779.3 1803.2,820.2 1788.7,861.7 1775.0,903.6 1762.0,946.0 1749.9,988.9 1738.5,1032.1 1728.1,1075.7 1718.5,1119.6 1710.0,1163.9 1702.3,1208.3 1695.7,1253.0 1690.1,1297.9 1685.5,1343.0 1682.0,1388.1 1679.5,1433.4 1678.1,1478.7 1677.7,1524.1 1678.4,1569.4 1680.2,1614.7 1683.0,1660.0 1686.9,1705.1 1691.8,1750.0 1697.7,1794.8 1704.6,1839.4 1712.5,1883.8 1721.3,1927.8 1731.1,1971.6 1741.7,2015.0 1753.2,2058.0 1765.5,2100.7 1778.6,2142.8 1792.4,2184.5 1806.8,2225.7 1821.9,2266.3 1837.5,2306.4 1853.6,2345.8  " style="stroke-opacity: 1.000000; stroke-width: 5.0; stroke: rgb(107,174,214); fill: none"  />
<path d="M 804.9,2097.7 L 831.6,2074.6 857.9,2051.6 883.8,2028.8 908.9,2006.3 933.2,1984.3 956.4,1962.9 978.4,1942.2 999.0,1922.3 1018.2,1903.4 1035.7,1885.6 1051.5,1868.9 1065.5,1853.4 1077.6,1839.2 1087.7,1826.3 1095.8,1814.9 1101.7,1804.9 1105.5,1796.4 1107.2,1789.4 1106.6,1784.0 1103.9,1780.1 1098.9,1777.8 1091.8,1777.1 1082.5,1778.0 1071.1,1780.4 1057.7,1784.3 1042.3,1789.7 1024.9,1796.5 1005.7,1804.7 984.8,1814.3 962.2,1825.1 938.1,1837.1 912.7,1850.2 886.0,1864.3 858.2,1879.3 829.5,1895.1 800.1,1911.6 770.1,1928.7 739.8,1946.2 709.3,1964.0  " style="stroke-opacity: 1.000000; stroke-width: 5.0; stroke: rgb(107,174,214); fill: none"  />
<path d="M 804.9,2097.7 L 832.3,2073.6 859.1,2049.0 885.3,2024.0 910.4,1998.5 934.5,1972.8 957.3,1946.9 978.7,1920.9 998.5,1894.8 1016.6,1868.7 1032.8,1842.8 1047.2,1817.0 1059.5,1791.4 1069.7,1766.1 1077.8,1741.1 1083.6,1716.5 1087.1,1692.4 1088.3,1668.7 1087.2,1645.6 1083.7,1623.1 1077.8,1601.2 1069.6,1579.9 1059.1,1559.3 1046.2,1539.4 1031.1,1520.3 1013.8,1501.9 994.4,1484.3 972.9,1467.4 949.4,1451.4 924.1,1436.2 897.0,1421.8 868.3,1408.3 838.2,1395.6 806.7,1383.7 774.0,1372.6 740.3,1362.4 705.8,1352.9 670.6,1344.2 635.1,1336.3 599.3,1329.2  " style="stroke-opacity: 1.000000; stroke-width: 5.0; stroke: rgb(107,174,214); fill: none"  />
<path d="M 2138.8,842.4 L 2114.0,867.7 2089.1,892.6 2064.3,916.9 2039.7,940.3 2015.4,962.8 1991.6,984.2 1968.4,1004.3 1946.0,1023.0 1924.3,1040.1 1903.6,1055.5 1883.8,1069.1 1865.2,1080.9 1847.7,1090.7 1831.5,1098.5 1816.6,1104.2 1803.0,1107.8 1790.8,1109.1 1780.0,1108.3 1770.7,1105.3 1762.9,1100.0 1756.6,1092.6 1751.7,1082.9 1748.4,1071.1 1746.6,1057.2 1746.2,1041.2 1747.2,1023.2 1749.7,1003.4 1753.6,981.7 1758.7,958.2 1765.2,933.2 1772.8,906.7 1781.6,878.8 1791.4,849.8 1802.2,819.7 1813.8,788.7 1826.3,757.0 1839.3,724.9 1852.9,692.4 1867.0,659.9  " style="stroke-opacity: 1.000000; stroke-width: 5.0; stroke: rgb(107,174,214); fill: none"  />
<path d="M 2138.8,842.4 L 2112.9,869.7 2087.6,897.7 2063.1,926.4 2039.5,955.6 2017.0,985.4 1995.7,1015.5 1975.8,1046.1 1957.4,1076.9 1940.6,1108.0 1925.4,1139.3 1912.1,1170.7 1900.6,1202.1 1891.0,1233.6 1883.5,1264.9 1878.0,1296.2 1874.5,1327.3 1873.3,1358.2 1874.1,1388.9 1877.2,1419.2 1882.4,1449.2 1889.7,1478.8 1899.2,1507.9 1910.8,1536.6 1924.5,1564.7 1940.2,1592.3 1957.9,1619.3 1977.4,1645.7 1998.8,1671.5 2022.0,1696.5 2046.8,1720.9 2073.1,1744.5 2100.8,1767.3 2129.8,1789.4 2160.0,1810.7 2191.2,1831.1 2223.3,1850.7 2256.0,1869.4 2289.2,1887.3 2322.8,1904.3  " style="stroke-opacity: 1.000000; stroke-width: 5.0; stroke: rgb(107,174,214); fill: none"  />
<path d="M 2245.9,967.0 L 2216.0,987.9 2185.7,1008.2 2155.2,1027.6 2124.5,1046.0 2093.8,1063.3 2063.2,1079.2 2032.8,1093.8 2002.8,1106.8 1973.2,1118.2 1944.1,1127.8 1915.6,1135.6 1887.8,1141.5 1860.8,1145.4 1834.6,1147.3 1809.4,1147.1 1785.1,1144.8 1761.9,1140.3 1739.7,1133.7 1718.6,1124.9 1698.7,1114.0 1680.0,1101.0 1662.5,1085.8 1646.3,1068.6 1631.3,1049.4 1617.5,1028.2 1605.0,1005.1 1593.8,980.2 1583.8,953.7 1575.1,925.4 1567.6,895.7 1561.2,864.7 1556.1,832.3 1552.0,798.9 1549.0,764.5 1547.1,729.3 1546.1,693.6 1546.0,657.4 1546.8,621.0 1548.4,584.5  " style="stroke-opacity: 1.000000; stroke-width: 5.0; stroke: rgb(107,174,214); fill: none"  />
<path d="M 2245.9,967.0 L 2216.8,988.2 2188.1,1009.9 2160.2,1031.9 2133.1,1054.2 2107.2,1076.7 2082.5,1099.3 2059.2,1121.9 2037.6,1144.6 2017.6,1167.1 1999.5,1189.4 1983.4,1211.6 1969.3,1233.4 1957.5,1254.9 1947.8,1276.0 1940.5,1296.7 1935.5,1316.9 1932.9,1336.5 1932.8,1355.6 1935.1,1374.1 1939.9,1391.9 1947.1,1409.0 1956.7,1425.5 1968.8,1441.2 1983.1,1456.2 1999.8,1470.5 2018.7,1484.0 2039.7,1496.7 2062.8,1508.6 2087.9,1519.7 2114.7,1530.1 2143.2,1539.6 2173.3,1548.4 2204.8,1556.4 2237.4,1563.7 2271.2,1570.2 2305.7,1576.0 2340.9,1581.1 2376.6,1585.6 2412.4,1589.4  " style="stroke-opacity: 1.000000; stroke-width: 5.0; stroke: rgb(107,174,214); fill: none"  />
<path d="M 2245.9,967.0 L 2216.5,988.5 2187.5,1010.6 2159.2,1033.2 2131.9,1056.3 2105.6,1079.8 2080.6,1103.5 2057.0,1127.5 2034.9,1151.7 2014.6,1176.1 1996.0,1200.5 1979.4,1224.9 1964.8,1249.3 1952.4,1273.6 1942.1,1297.7 1934.1,1321.7 1928.5,1345.4 1925.1,1368.8 1924.2,1392.0 1925.7,1414.7 1929.5,1437.1 1935.8,1459.0 1944.5,1480.5 1955.5,1501.4 1968.8,1521.8 1984.4,1541.7 2002.2,1561.0 2022.1,1579.7 2044.0,1597.7 2067.9,1615.1 2093.5,1631.9 2120.9,1648.0 2149.8,1663.3 2180.1,1678.0 2211.7,1692.0 2244.3,1705.2 2277.9,1717.7 2312.1,1729.5 2346.8,1740.6 2381.8,1750.9  " style="stroke-opacity: 1.000000; stroke-width: 5.0; stroke: rgb(107,174,214); fill: none"  />
<path d="M 2245.9,967.0 L 2215.6,989.3 2185.7,1012.3 2156.4,1036.1 2128.0,1060.7 2100.6,1085.9 2074.3,1111.8 2049.2,1138.3 2025.6,1165.4 2003.5,1193.0 1983.0,1221.1 1964.2,1249.5 1947.3,1278.4 1932.3,1307.7 1919.3,1337.2 1908.3,1367.0 1899.4,1397.0 1892.6,1427.2 1888.0,1457.5 1885.5,1487.8 1885.3,1518.3 1887.3,1548.7 1891.4,1579.1 1897.7,1609.3 1906.1,1639.5 1916.6,1669.4 1929.2,1699.2 1943.7,1728.6 1960.2,1757.8 1978.5,1786.6 1998.5,1814.9 2020.2,1842.9 2043.4,1870.3 2068.0,1897.2 2093.9,1923.5 2121.0,1949.2 2149.0,1974.2 2177.9,1998.5 2207.4,2022.0 2237.4,2044.7  " style="stroke-opacity: 1.000000; stroke-width: 5.0; stroke: rgb(107,174,214); fill: none"  />
<path d="M 2245.9,967.0 L 2213.0,991.1 2180.3,1016.0 2148.0,1041.9 2116.1,1068.8 2084.8,1096.5 2054.0,1125.1 2024.0,1154.7 1994.8,1185.1 1966.5,1216.4 1939.2,1248.5 1912.8,1281.4 1887.5,1315.2 1863.4,1349.7 1840.4,1385.0 1818.7,1421.0 1798.3,1457.7 1779.1,1495.1 1761.3,1533.1 1744.9,1571.7 1729.9,1610.8 1716.2,1650.5 1704.0,1690.6 1693.2,1731.2 1683.8,1772.1 1675.8,1813.4 1669.2,1855.0 1664.0,1896.8 1660.1,1938.8 1657.6,1980.9 1656.5,2023.1 1656.5,2065.3 1657.8,2107.4 1660.3,2149.4 1664.0,2191.3 1668.7,2232.9 1674.4,2274.2 1681.0,2315.0 1688.6,2355.5 1696.9,2395.4  " style="stroke-opacity: 1.000000; stroke-width: 5.0; stroke: rgb(107,174,214); fill: none"  />
<path d="M 2329.1,1108.8 L 2295.5,1124.2 2261.4,1138.8 2227.2,1152.6 2192.8,1165.2 2158.5,1176.7 2124.3,1186.9 2090.4,1195.7 2056.8,1203.0 2023.8,1208.7 1991.4,1212.7 1959.7,1215.1 1928.8,1215.6 1898.7,1214.3 1869.6,1211.0 1841.5,1205.9 1814.4,1198.8 1788.6,1189.8 1763.9,1178.8 1740.4,1165.9 1718.3,1151.0 1697.4,1134.2 1677.9,1115.5 1659.8,1095.0 1643.0,1072.6 1627.6,1048.6 1613.6,1022.8 1601.0,995.5 1589.8,966.7 1579.9,936.4 1571.4,904.9 1564.2,872.2 1558.3,838.4 1553.6,803.7 1550.1,768.2 1547.7,732.0 1546.4,695.4 1546.2,658.5 1546.8,621.5 1548.4,584.5  " style="stroke-opacity: 1.000000; stroke-width: 5.0; stroke: rgb(107,174,214); fill: none"  />
<path d="M 2329.1,1108.8 L 2296.4,1123.9 2263.5,1138.3 2230.7,1152.0 2198.0,1164.7 2165.7,1176.4 2133.9,1187.0 2102.8,1196.2 2072.5,1204.1 2043.1,1210.5 2014.7,1215.4 1987.6,1218.7 1961.6,1220.3 1937.1,1220.2 1913.9,1218.3 1892.3,1214.6 1872.3,1209.1 1853.9,1201.8 1837.1,1192.6 1822.2,1181.6 1808.9,1168.7 1797.5,1154.1 1787.8,1137.6 1779.9,1119.4 1773.9,1099.6 1769.6,1078.1 1767.0,1055.0 1766.2,1030.4 1767.0,1004.5 1769.5,977.2 1773.6,948.7 1779.2,919.2 1786.2,888.6 1794.5,857.2 1804.1,825.2 1814.9,792.6 1826.6,759.5 1839.3,726.3 1852.8,693.0 1867.0,659.9  " style="stroke-opacity: 1.000000; stroke-width: 5.0; stroke: rgb(107,174,214); fill: none"  />
<path d="M 2329.1,1108.8 L 2297.0,1123.8 2264.9,1138.3 2233.2,1152.3 2201.9,1165.6 2171.3,1178.2 2141.5,1189.8 2112.7,1200.5 2085.1,1210.1 2058.9,1218.5 2034.0,1225.6 2010.8,1231.5 1989.2,1236.0 1969.4,1239.0 1951.5,1240.6 1935.5,1240.7 1921.5,1239.2 1909.6,1236.2 1899.8,1231.7 1892.2,1225.6 1886.7,1217.9 1883.4,1208.7 1882.3,1198.0 1883.3,1185.7 1886.4,1172.1 1891.7,1157.0 1899.0,1140.5 1908.3,1122.8 1919.5,1103.8 1932.6,1083.7 1947.4,1062.5 1963.9,1040.4 1981.9,1017.4 2001.3,993.6 2022.0,969.2 2043.8,944.3 2066.5,919.0 2090.1,893.5 2114.2,867.9 2138.8,842.4  " style="stroke-opacity: 1.000000; stroke-width: 5.0; stroke: rgb(107,174,214); fill: none"  />
<path d="M 2329.1,1108.8 L 2297.2,1123.9 2265.7,1139.1 2234.7,1154.2 2204.5,1169.2 2175.2,1184.0 2147.1,1198.4 2120.4,1212.5 2095.3,1226.2 2071.8,1239.3 2050.1,1251.8 2030.4,1263.7 2012.8,1274.9 1997.4,1285.4 1984.2,1295.1 1973.4,1304.0 1965.0,1312.1 1959.1,1319.2 1955.7,1325.5 1954.8,1330.9 1956.4,1335.4 1960.5,1338.9 1967.2,1341.5 1976.4,1343.1 1988.0,1343.8 2002.0,1343.6 2018.3,1342.5 2036.9,1340.6 2057.6,1337.8 2080.3,1334.1 2104.9,1329.7 2131.3,1324.6 2159.3,1318.7 2188.8,1312.2 2219.6,1305.1 2251.5,1297.5 2284.2,1289.4 2317.6,1280.9 2351.5,1272.1 2385.6,1263.1  " style="stroke-opacity: 1.000000; stroke-width: 5.0; stroke: rgb(107,174,214); fill: none"  />
<path d="M 2329.1,1108.8 L 2297.1,1124.1 2265.5,1139.5 2234.5,1155.1 2204.3,1170.8 2175.2,1186.5 2147.3,1202.1 2120.7,1217.5 2095.8,1232.7 2072.6,1247.6 2051.3,1262.2 2032.0,1276.5 2014.8,1290.3 1999.9,1303.6 1987.2,1316.5 1977.0,1328.8 1969.3,1340.5 1964.0,1351.5 1961.3,1362.0 1961.2,1371.8 1963.6,1380.9 1968.6,1389.3 1976.2,1397.0 1986.3,1404.0 1998.8,1410.2 2013.8,1415.8 2031.2,1420.6 2050.8,1424.7 2072.5,1428.1 2096.4,1430.8 2122.1,1432.8 2149.7,1434.2 2178.9,1434.9 2209.6,1435.0 2241.5,1434.6 2274.6,1433.6 2308.6,1432.1 2343.3,1430.2 2378.4,1427.8 2413.7,1425.1  " style="stroke-opacity: 1.000000; stroke-width: 5.0; stroke: rgb(107,174,214); fill: none"  />
<path d="M 2329.1,1108.8 L 2296.3,1124.7 2263.8,1141.2 2232.0,1158.5 2200.9,1176.3 2170.9,1194.6 2142.0,1213.6 2114.5,1233.0 2088.5,1252.8 2064.1,1273.2 2041.5,1293.9 2020.8,1314.9 2002.1,1336.3 1985.6,1358.0 1971.1,1379.9 1959.0,1402.1 1949.2,1424.4 1941.7,1446.9 1936.7,1469.4 1934.1,1492.1 1933.9,1514.8 1936.1,1537.5 1940.8,1560.1 1947.9,1582.7 1957.4,1605.2 1969.2,1627.5 1983.2,1649.7 1999.5,1671.6 2017.8,1693.3 2038.2,1714.7 2060.5,1735.8 2084.5,1756.4 2110.2,1776.7 2137.4,1796.6 2166.0,1815.9 2195.7,1834.8 2226.5,1853.1 2258.0,1870.8 2290.2,1887.9 2322.8,1904.3  " style="stroke-opacity: 1.000000; stroke-width: 5.0; stroke: rgb(107,174,214); fill: none"  />
<path d="M 2329.1,1108.8 L 2293.2,1126.2 2257.5,1144.6 2222.0,1164.1 2186.9,1184.5 2152.2,1206.0 2118.2,1228.5 2084.9,1252.0 2052.3,1276.5 2020.7,1302.1 1990.1,1328.6 1960.5,1356.2 1932.0,1384.7 1904.7,1414.2 1878.7,1444.7 1854.0,1476.1 1830.7,1508.4 1808.8,1541.5 1788.4,1575.5 1769.4,1610.3 1751.9,1645.9 1736.0,1682.1 1721.6,1719.1 1708.7,1756.7 1697.4,1794.9 1687.6,1833.6 1679.4,1872.8 1672.7,1912.4 1667.5,1952.4 1663.8,1992.7 1661.5,2033.2 1660.6,2073.8 1661.0,2114.5 1662.8,2155.3 1665.8,2196.0 1669.9,2236.5 1675.2,2276.8 1681.5,2316.8 1688.8,2356.3 1696.9,2395.4  " style="stroke-opacity: 1.000000; stroke-width: 5.0; stroke: rgb(107,174,214); fill: none"  />
<path d="M 709.3,1964.0 L 739.8,1946.2 770.1,1928.7 800.1,1911.6 829.5,1895.1 858.2,1879.3 886.0,1864.3 912.7,1850.2 938.1,1837.1 962.2,1825.1 984.8,1814.3 1005.7,1804.7 1024.9,1796.5 1042.3,1789.7 1057.7,1784.3 1071.1,1780.4 1082.5,1778.0 1091.8,1777.1 1098.9,1777.8 1103.9,1780.1 1106.6,1784.0 1107.2,1789.4 1105.5,1796.4 1101.7,1804.9 1095.8,1814.9 1087.7,1826.3 1077.6,1839.2 1065.5,1853.4 1051.5,1868.9 1035.7,1885.6 1018.2,1903.4 999.0,1922.3 978.4,1942.2 956.4,1962.9 933.2,1984.3 908.9,2006.3 883.8,2028.8 857.9,2051.6 831.6,2074.6 804.9,2097.7  " style="stroke-opacity: 1.000000; stroke-width: 5.0; stroke: rgb(107,174,214); fill: none"  />
<path d="M 709.3,1964.0 L 740.2,1945.5 770.7,1926.5 800.5,1907.0 829.5,1887.3 857.3,1867.2 883.9,1846.9 909.1,1826.4 932.7,1805.8 954.6,1785.2 974.7,1764.5 992.7,1743.9 1008.7,1723.4 1022.4,1703.1 1033.9,1682.9 1043.1,1663.0 1049.8,1643.3 1054.2,1624.0 1056.0,1605.0 1055.4,1586.4 1052.2,1568.2 1046.6,1550.5 1038.4,1533.3 1027.9,1516.5 1014.9,1500.3 999.6,1484.6 981.9,1469.5 962.1,1454.9 940.2,1441.0 916.3,1427.7 890.5,1415.0 862.9,1402.9 833.8,1391.4 803.1,1380.6 771.2,1370.5 738.2,1361.0 704.3,1352.1 669.7,1343.8 634.6,1336.2 599.3,1329.2  " style="stroke-opacity: 1.000000; stroke-width: 5.0; stroke: rgb(107,174,214); fill: none"  />
<path d="M 2385.6,1263.1 L 2350.3,1272.2 2314.8,1280.5 2279.4,1287.9 2244.2,1294.4 2209.4,1299.8 2175.2,1304.0 2141.6,1306.9 2108.9,1308.6 2077.2,1308.8 2046.6,1307.6 2017.1,1304.9 1989.1,1300.6 1962.4,1294.8 1937.2,1287.3 1913.7,1278.3 1891.8,1267.6 1871.5,1255.2 1853.1,1241.3 1836.5,1225.7 1821.7,1208.5 1808.7,1189.7 1797.7,1169.3 1788.5,1147.5 1781.2,1124.2 1775.8,1099.6 1772.2,1073.6 1770.4,1046.3 1770.4,1017.9 1772.2,988.5 1775.6,958.0 1780.6,926.7 1787.1,894.6 1795.0,861.9 1804.3,828.6 1814.9,795.0 1826.5,761.2 1839.2,727.3 1852.7,693.5 1867.0,659.9  " style="stroke-opacity: 1.000000; stroke-width: 5.0; stroke: rgb(107,174,214); fill: none"  />
<path d="M 2385.6,1263.1 L 2351.5,1272.1 2317.6,1280.9 2284.2,1289.4 2251.5,1297.5 2219.6,1305.1 2188.8,1312.2 2159.3,1318.7 2131.3,1324.6 2104.9,1329.7 2080.3,1334.1 2057.6,1337.8 2036.9,1340.6 2018.3,1342.5 2002.0,1343.6 1988.0,1343.8 1976.4,1343.1 1967.2,1341.5 1960.5,1338.9 1956.4,1335.4 1954.8,1330.9 1955.7,1325.5 1959.1,1319.2 1965.0,1312.1 1973.4,1304.0 1984.2,1295.1 1997.4,1285.4 2012.8,1274.9 2030.4,1263.7 2050.1,1251.8 2071.8,1239.3 2095.3,1226.2 2120.4,1212.5 2147.1,1198.4 2175.2,1184.0 2204.5,1169.2 2234.7,1154.2 2265.7,1139.1 2297.2,1123.9 2329.1,1108.8  " style="stroke-opacity: 1.000000; stroke-width: 5.0; stroke: rgb(107,174,214); fill: none"  />
<path d="M 2385.6,1263.1 L 2348.7,1273.5 2311.9,1284.8 2275.4,1297.1 2239.2,1310.5 2203.6,1325.0 2168.7,1340.5 2134.6,1357.1 2101.5,1374.9 2069.4,1393.7 2038.5,1413.7 2008.9,1434.8 1980.6,1456.9 1953.8,1480.2 1928.6,1504.6 1904.9,1530.0 1882.9,1556.5 1862.6,1584.0 1844.0,1612.5 1827.3,1642.0 1812.4,1672.3 1799.3,1703.6 1788.1,1735.7 1778.7,1768.6 1771.2,1802.2 1765.5,1836.4 1761.7,1871.3 1759.6,1906.8 1759.3,1942.7 1760.7,1979.0 1763.8,2015.7 1768.5,2052.6 1774.7,2089.7 1782.3,2126.8 1791.4,2163.9 1801.7,2200.9 1813.2,2237.7 1825.7,2274.2 1839.3,2310.3 1853.6,2345.8  " style="stroke-opacity: 1.000000; stroke-width: 5.0; stroke: rgb(107,174,214); fill: none"  />
<path d="M 2385.6,1263.1 L 2348.0,1273.7 2310.4,1285.2 2273.0,1297.8 2235.8,1311.5 2199.1,1326.2 2162.9,1342.1 2127.4,1359.1 2092.6,1377.3 2058.8,1396.7 2025.9,1417.2 1994.1,1438.8 1963.4,1461.6 1934.0,1485.6 1905.9,1510.8 1879.2,1537.0 1853.8,1564.4 1830.0,1592.8 1807.7,1622.4 1786.9,1652.9 1767.7,1684.4 1750.1,1716.9 1734.2,1750.3 1719.9,1784.6 1707.2,1819.7 1696.2,1855.5 1686.8,1892.0 1679.1,1929.2 1672.9,1966.9 1668.3,2005.1 1665.2,2043.7 1663.6,2082.7 1663.4,2121.9 1664.6,2161.2 1667.2,2200.7 1671.0,2240.1 1675.9,2279.4 1681.9,2318.4 1689.0,2357.1 1696.9,2395.4  " style="stroke-opacity: 1.000000; stroke-width: 5.0; stroke: rgb(107,174,214); fill: none"  />
<path d="M 2413.7,1425.1 L 2378.5,1428.0 2343.7,1431.1 2309.3,1434.4 2275.8,1437.8 2243.2,1441.4 2211.8,1445.1 2181.9,1448.9 2153.5,1452.8 2126.9,1456.8 2102.3,1460.9 2079.6,1465.2 2059.2,1469.5 2041.1,1473.9 2025.3,1478.3 2012.1,1482.9 2001.4,1487.4 1993.3,1492.1 1987.9,1496.8 1985.2,1501.5 1985.1,1506.2 1987.8,1511.0 1993.1,1515.7 2001.1,1520.5 2011.8,1525.3 2024.9,1530.0 2040.6,1534.7 2058.6,1539.4 2079.0,1544.0 2101.6,1548.6 2126.2,1553.1 2152.7,1557.6 2181.0,1561.9 2210.9,1566.2 2242.2,1570.4 2274.7,1574.5 2308.2,1578.4 2342.5,1582.2 2377.3,1585.9 2412.4,1589.4  " style="stroke-opacity: 1.000000; stroke-width: 5.0; stroke: rgb(107,174,214); fill: none"  />
<path d="M 2413.7,1425.1 L 2378.1,1428.2 2342.8,1431.9 2308.0,1436.0 2273.9,1440.7 2240.7,1445.9 2208.6,1451.8 2177.8,1458.1 2148.5,1465.1 2120.8,1472.6 2094.9,1480.8 2071.0,1489.5 2049.1,1498.9 2029.3,1508.8 2011.9,1519.3 1996.8,1530.4 1984.1,1542.1 1973.8,1554.3 1966.1,1567.0 1960.9,1580.3 1958.3,1594.1 1958.3,1608.3 1960.8,1623.0 1965.8,1638.1 1973.4,1653.6 1983.4,1669.5 1995.8,1685.6 2010.5,1702.1 2027.5,1718.8 2046.6,1735.7 2067.7,1752.8 2090.6,1769.9 2115.4,1787.1 2141.7,1804.3 2169.4,1821.5 2198.4,1838.5 2228.5,1855.4 2259.4,1872.0 2290.9,1888.3 2322.8,1904.3  " style="stroke-opacity: 1.000000; stroke-width: 5.0; stroke: rgb(107,174,214); fill: none"  />
<path d="M 2413.7,1425.1 L 2377.8,1428.3 2342.1,1432.2 2306.8,1436.8 2272.2,1442.0 2238.4,1448.0 2205.6,1454.8 2174.0,1462.3 2143.8,1470.6 2115.1,1479.7 2088.1,1489.6 2062.9,1500.3 2039.6,1511.9 2018.4,1524.2 1999.3,1537.4 1982.4,1551.4 1967.8,1566.2 1955.5,1581.7 1945.6,1598.0 1938.1,1615.1 1933.1,1632.8 1930.4,1651.2 1930.3,1670.3 1932.5,1690.0 1937.2,1710.2 1944.2,1731.0 1953.5,1752.3 1965.1,1774.0 1978.8,1796.0 1994.5,1818.4 2012.3,1841.1 2031.9,1863.9 2053.2,1886.9 2076.1,1909.9 2100.4,1932.9 2126.0,1955.8 2152.7,1978.5 2180.3,2001.0 2208.6,2023.1 2237.4,2044.7  " style="stroke-opacity: 1.000000; stroke-width: 5.0; stroke: rgb(107,174,214); fill: none"  />
<path d="M 2413.7,1425.1 L 2377.4,1428.4 2341.2,1432.5 2305.3,1437.4 2270.0,1443.2 2235.4,1449.8 2201.7,1457.4 2169.2,1465.9 2137.8,1475.4 2107.9,1485.8 2079.4,1497.3 2052.7,1509.7 2027.6,1523.2 2004.5,1537.6 1983.3,1553.1 1964.2,1569.6 1947.1,1587.0 1932.2,1605.5 1919.6,1624.8 1909.2,1645.1 1901.0,1666.3 1895.2,1688.3 1891.6,1711.2 1890.3,1734.8 1891.3,1759.2 1894.5,1784.3 1899.8,1809.9 1907.3,1836.2 1916.9,1862.9 1928.4,1890.1 1941.9,1917.7 1957.1,1945.5 1974.1,1973.5 1992.6,2001.6 2012.5,2029.8 2033.7,2057.9 2056.1,2085.9 2079.4,2113.5 2103.5,2140.8 2128.3,2167.6  " style="stroke-opacity: 1.000000; stroke-width: 5.0; stroke: rgb(107,174,214); fill: none"  />
<path d="M 2413.7,1425.1 L 2375.5,1428.6 2337.3,1433.2 2299.1,1438.8 2261.2,1445.6 2223.6,1453.4 2186.4,1462.5 2149.9,1472.7 2114.1,1484.3 2079.2,1497.1 2045.2,1511.2 2012.3,1526.7 1980.6,1543.5 1950.1,1561.6 1920.8,1581.1 1893.0,1601.9 1866.6,1624.0 1841.8,1647.4 1818.4,1672.1 1796.7,1698.1 1776.6,1725.4 1758.1,1753.8 1741.4,1783.3 1726.3,1814.0 1712.9,1845.7 1701.2,1878.4 1691.1,1912.1 1682.8,1946.6 1676.1,1981.9 1671.0,2017.9 1667.5,2054.5 1665.5,2091.6 1665.0,2129.2 1665.9,2167.1 1668.1,2205.3 1671.7,2243.5 1676.4,2281.8 1682.3,2320.0 1689.1,2357.8 1696.9,2395.4  " style="stroke-opacity: 1.000000; stroke-width: 5.0; stroke: rgb(107,174,214); fill: none"  />
<path d="M 2412.4,1589.4 L 2373.6,1585.1 2334.6,1579.9 2295.6,1573.5 2256.7,1566.1 2218.0,1557.5 2179.8,1547.7 2141.9,1536.7 2104.7,1524.5 2068.1,1510.9 2032.4,1496.0 1997.5,1479.9 1963.5,1462.3 1930.6,1443.5 1898.7,1423.2 1868.1,1401.7 1838.6,1378.8 1810.4,1354.6 1783.6,1329.1 1758.1,1302.4 1734.1,1274.4 1711.4,1245.2 1690.3,1214.9 1670.6,1183.4 1652.4,1150.8 1635.7,1117.3 1620.5,1082.8 1606.7,1047.4 1594.5,1011.2 1583.7,974.2 1574.4,936.6 1566.5,898.5 1559.9,859.8 1554.7,820.8 1550.8,781.5 1548.1,742.0 1546.6,702.4 1546.2,662.9 1546.8,623.6 1548.4,584.5  " style="stroke-opacity: 1.000000; stroke-width: 5.0; stroke: rgb(107,174,214); fill: none"  />
<path d="M 2412.4,1589.4 L 2376.6,1585.6 2340.9,1581.1 2305.7,1576.0 2271.2,1570.2 2237.4,1563.7 2204.8,1556.4 2173.3,1548.4 2143.2,1539.6 2114.7,1530.1 2087.9,1519.7 2062.8,1508.6 2039.7,1496.7 2018.7,1484.0 1999.8,1470.5 1983.1,1456.2 1968.8,1441.2 1956.7,1425.5 1947.1,1409.0 1939.9,1391.9 1935.1,1374.1 1932.8,1355.6 1932.9,1336.5 1935.5,1316.9 1940.5,1296.7 1947.8,1276.0 1957.5,1254.9 1969.3,1233.4 1983.4,1211.6 1999.5,1189.4 2017.6,1167.1 2037.6,1144.6 2059.2,1121.9 2082.5,1099.3 2107.2,1076.7 2133.1,1054.2 2160.2,1031.9 2188.1,1009.9 2216.8,988.2 2245.9,967.0  " style="stroke-opacity: 1.000000; stroke-width: 5.0; stroke: rgb(107,174,214); fill: none"  />
<path d="M 2412.4,1589.4 L 2376.9,1585.7 2341.7,1581.5 2306.9,1576.8 2272.8,1571.5 2239.7,1565.8 2207.7,1559.5 2177.0,1552.6 2147.8,1545.2 2120.3,1537.2 2094.5,1528.6 2070.7,1519.5 2049.0,1509.8 2029.4,1499.6 2012.1,1488.8 1997.2,1477.5 1984.7,1465.6 1974.6,1453.2 1967.1,1440.4 1962.1,1427.0 1959.7,1413.2 1959.9,1399.0 1962.7,1384.3 1968.0,1369.3 1975.8,1353.9 1986.0,1338.2 1998.7,1322.2 2013.7,1306.0 2030.9,1289.6 2050.2,1273.0 2071.6,1256.3 2094.8,1239.5 2119.8,1222.6 2146.4,1205.9 2174.4,1189.1 2203.7,1172.6 2234.0,1156.2 2265.2,1140.0 2296.9,1124.2 2329.1,1108.8  " style="stroke-opacity: 1.000000; stroke-width: 5.0; stroke: rgb(107,174,214); fill: none"  />
<path d="M 2412.4,1589.4 L 2377.3,1585.9 2342.5,1582.2 2308.2,1578.4 2274.7,1574.5 2242.2,1570.4 2210.9,1566.2 2181.0,1561.9 2152.7,1557.6 2126.2,1553.1 2101.6,1548.6 2079.0,1544.0 2058.6,1539.4 2040.6,1534.7 2024.9,1530.0 2011.8,1525.3 2001.1,1520.5 1993.1,1515.7 1987.8,1511.0 1985.1,1506.2 1985.2,1501.5 1987.9,1496.8 1993.3,1492.1 2001.4,1487.4 2012.1,1482.9 2025.3,1478.3 2041.1,1473.9 2059.2,1469.5 2079.6,1465.2 2102.3,1460.9 2126.9,1456.8 2153.5,1452.8 2181.9,1448.9 2211.8,1445.1 2243.2,1441.4 2275.8,1437.8 2309.3,1434.4 2343.7,1431.1 2378.5,1428.0 2413.7,1425.1  " style="stroke-opacity: 1.000000; stroke-width: 5.0; stroke: rgb(107,174,214); fill: none"  />
<path d="M 2412.4,1589.4 L 2376.9,1586.2 2341.5,1583.4 2306.5,1581.3 2272.0,1579.8 2238.4,1579.1 2205.8,1579.0 2174.3,1579.8 2144.3,1581.4 2115.7,1583.9 2088.8,1587.3 2063.7,1591.6 2040.5,1596.9 2019.3,1603.2 2000.2,1610.4 1983.4,1618.6 1968.8,1627.8 1956.5,1638.0 1946.6,1649.2 1939.2,1661.3 1934.1,1674.4 1931.6,1688.4 1931.4,1703.3 1933.7,1719.1 1938.4,1735.7 1945.4,1753.1 1954.7,1771.2 1966.2,1790.0 1979.9,1809.5 1995.7,1829.5 2013.4,1850.1 2032.9,1871.0 2054.2,1892.4 2077.0,1914.0 2101.3,1935.9 2126.8,1957.8 2153.3,1979.8 2180.7,2001.6 2208.8,2023.3 2237.4,2044.7  " style="stroke-opacity: 1.000000; stroke-width: 5.0; stroke: rgb(107,174,214); fill: none"  />
<path d="M 2412.4,1589.4 L 2376.5,1586.2 2340.7,1583.7 2305.2,1581.8 2270.1,1580.8 2235.8,1580.7 2202.3,1581.5 2169.9,1583.2 2138.7,1586.0 2108.8,1589.8 2080.5,1594.8 2053.8,1600.8 2028.8,1608.0 2005.7,1616.4 1984.6,1626.0 1965.5,1636.7 1948.4,1648.6 1933.6,1661.7 1920.9,1676.0 1910.5,1691.4 1902.4,1708.0 1896.5,1725.7 1893.0,1744.4 1891.7,1764.2 1892.6,1784.9 1895.8,1806.6 1901.2,1829.2 1908.7,1852.6 1918.2,1876.8 1929.7,1901.6 1943.1,1927.1 1958.3,1953.0 1975.2,1979.4 1993.6,2006.2 2013.4,2033.1 2034.5,2060.2 2056.8,2087.4 2079.9,2114.4 2103.8,2141.2 2128.3,2167.6  " style="stroke-opacity: 1.000000; stroke-width: 5.0; stroke: rgb(107,174,214); fill: none"  />
<path d="M 2412.4,1589.4 L 2374.9,1586.2 2337.2,1583.9 2299.5,1582.6 2262.0,1582.4 2224.7,1583.3 2187.8,1585.5 2151.6,1589.0 2115.9,1593.8 2081.1,1600.0 2047.2,1607.7 2014.4,1616.8 1982.6,1627.4 1952.1,1639.6 1922.9,1653.2 1895.0,1668.4 1868.5,1685.2 1843.6,1703.4 1820.2,1723.2 1798.3,1744.5 1778.1,1767.3 1759.6,1791.5 1742.7,1817.0 1727.5,1844.0 1714.1,1872.2 1702.3,1901.7 1692.2,1932.4 1683.7,1964.1 1677.0,1996.9 1671.8,2030.6 1668.2,2065.2 1666.2,2100.5 1665.6,2136.4 1666.4,2172.9 1668.6,2209.7 1672.1,2246.8 1676.8,2284.1 1682.5,2321.4 1689.3,2358.5 1696.9,2395.4  " style="stroke-opacity: 1.000000; stroke-width: 5.0; stroke: rgb(107,174,214); fill: none"  />
<path d="M 2381.8,1750.9 L 2346.8,1740.6 2312.1,1729.5 2277.9,1717.7 2244.3,1705.2 2211.7,1692.0 2180.1,1678.0 2149.8,1663.3 2120.9,1648.0 2093.5,1631.9 2067.9,1615.1 2044.0,1597.7 2022.1,1579.7 2002.2,1561.0 1984.4,1541.7 1968.8,1521.8 1955.5,1501.4 1944.5,1480.5 1935.8,1459.0 1929.5,1437.1 1925.7,1414.7 1924.2,1392.0 1925.1,1368.8 1928.5,1345.4 1934.1,1321.7 1942.1,1297.7 1952.4,1273.6 1964.8,1249.3 1979.4,1224.9 1996.0,1200.5 2014.6,1176.1 2034.9,1151.7 2057.0,1127.5 2080.6,1103.5 2105.6,1079.8 2131.9,1056.3 2159.2,1033.2 2187.5,1010.6 2216.5,988.5 2245.9,967.0  " style="stroke-opacity: 1.000000; stroke-width: 5.0; stroke: rgb(107,174,214); fill: none"  />
<path d="M 2322.8,1904.3 L 2287.9,1886.6 2253.3,1868.0 2219.0,1848.4 2185.2,1827.8 2152.0,1806.2 2119.6,1783.6 2088.1,1760.0 2057.5,1735.4 2028.1,1709.8 1999.8,1683.4 1972.8,1655.9 1947.2,1627.6 1923.0,1598.4 1900.3,1568.2 1879.1,1537.3 1859.6,1505.5 1841.7,1473.0 1825.6,1439.7 1811.1,1405.7 1798.4,1371.0 1787.5,1335.8 1778.3,1299.9 1771.0,1263.5 1765.3,1226.6 1761.5,1189.4 1759.4,1151.7 1759.0,1113.8 1760.2,1075.6 1763.1,1037.2 1767.6,998.7 1773.6,960.2 1781.0,921.7 1789.9,883.3 1800.0,845.1 1811.4,807.2 1823.8,769.6 1837.3,732.5 1851.8,695.9 1867.0,659.9  " style="stroke-opacity: 1.000000; stroke-width: 5.0; stroke: rgb(107,174,214); fill: none"  />
<path d="M 2322.8,1904.3 L 2290.2,1887.9 2258.0,1870.8 2226.5,1853.1 2195.7,1834.8 2166.0,1815.9 2137.4,1796.6 2110.2,1776.7 2084.5,1756.4 2060.5,1735.8 2038.2,1714.7 2017.8,1693.3 1999.5,1671.6 1983.2,1649.7 1969.2,1627.5 1957.4,1605.2 1947.9,1582.7 1940.8,1560.1 1936.1,1537.5 1933.9,1514.8 1934.1,1492.1 1936.7,1469.4 1941.7,1446.9 1949.2,1424.4 1959.0,1402.1 1971.1,1379.9 1985.6,1358.0 2002.1,1336.3 2020.8,1314.9 2041.5,1293.9 2064.1,1273.2 2088.5,1252.8 2114.5,1233.0 2142.0,1213.6 2170.9,1194.6 2200.9,1176.3 2232.0,1158.5 2263.8,1141.2 2296.3,1124.7 2329.1,1108.8  " style="stroke-opacity: 1.000000; stroke-width: 5.0; stroke: rgb(107,174,214); fill: none"  />
<path d="M 2322.8,1904.3 L 2290.9,1888.3 2259.4,1872.0 2228.5,1855.4 2198.4,1838.5 2169.4,1821.5 2141.7,1804.3 2115.4,1787.1 2090.6,1769.9 2067.7,1752.8 2046.6,1735.7 2027.5,1718.8 2010.5,1702.1 1995.8,1685.6 1983.4,1669.5 1973.4,1653.6 1965.8,1638.1 1960.8,1623.0 1958.3,1608.3 1958.3,1594.1 1960.9,1580.3 1966.1,1567.0 1973.8,1554.3 1984.1,1542.1 1996.8,1530.4 2011.9,1519.3 2029.3,1508.8 2049.1,1498.9 2071.0,1489.5 2094.9,1480.8 2120.8,1472.6 2148.5,1465.1 2177.8,1458.1 2208.6,1451.8 2240.7,1445.9 2273.9,1440.7 2308.0,1436.0 2342.8,1431.9 2378.1,1428.2 2413.7,1425.1  " style="stroke-opacity: 1.000000; stroke-width: 5.0; stroke: rgb(107,174,214); fill: none"  />
<path d="M 2237.4,2044.7 L 2208.6,2023.1 2180.3,2001.0 2152.7,1978.5 2126.0,1955.8 2100.4,1932.9 2076.1,1909.9 2053.2,1886.9 2031.9,1863.9 2012.3,1841.1 1994.5,1818.4 1978.8,1796.0 1965.1,1774.0 1953.5,1752.3 1944.2,1731.0 1937.2,1710.2 1932.5,1690.0 1930.3,1670.3 1930.4,1651.2 1933.1,1632.8 1938.1,1615.1 1945.6,1598.0 1955.5,1581.7 1967.8,1566.2 1982.4,1551.4 1999.3,1537.4 2018.4,1524.2 2039.6,1511.9 2062.9,1500.3 2088.1,1489.6 2115.1,1479.7 2143.8,1470.6 2174.0,1462.3 2205.6,1454.8 2238.4,1448.0 2272.2,1442.0 2306.8,1436.8 2342.1,1432.2 2377.8,1428.3 2413.7,1425.1  " style="stroke-opacity: 1.000000; stroke-width: 5.0; stroke: rgb(107,174,214); fill: none"  />
<path d="M 2237.4,2044.7 L 2208.8,2023.3 2180.7,2001.6 2153.3,1979.8 2126.8,1957.8 2101.3,1935.9 2077.0,1914.0 2054.2,1892.4 2032.9,1871.0 2013.4,1850.1 1995.7,1829.5 1979.9,1809.5 1966.2,1790.0 1954.7,1771.2 1945.4,1753.1 1938.4,1735.7 1933.7,1719.1 1931.4,1703.3 1931.6,1688.4 1934.1,1674.4 1939.2,1661.3 1946.6,1649.2 1956.5,1638.0 1968.8,1627.8 1983.4,1618.6 2000.2,1610.4 2019.3,1603.2 2040.5,1596.9 2063.7,1591.6 2088.8,1587.3 2115.7,1583.9 2144.3,1581.4 2174.3,1579.8 2205.8,1579.0 2238.4,1579.1 2272.0,1579.8 2306.5,1581.3 2341.5,1583.4 2376.9,1586.2 2412.4,1589.4  " style="stroke-opacity: 1.000000; stroke-width: 5.0; stroke: rgb(107,174,214); fill: none"  />
<path d="M 2237.4,2044.7 L 2209.0,2023.8 2180.7,2003.2 2152.6,1983.1 2125.1,1963.6 2098.3,1944.8 2072.2,1927.0 2047.2,1910.1 2023.2,1894.4 2000.5,1880.0 1979.2,1866.8 1959.4,1855.1 1941.2,1844.9 1924.7,1836.3 1909.9,1829.3 1896.9,1824.0 1885.9,1820.4 1876.7,1818.6 1869.6,1818.6 1864.4,1820.3 1861.3,1823.9 1860.1,1829.2 1861.0,1836.3 1863.9,1845.2 1868.8,1855.7 1875.6,1868.0 1884.3,1881.8 1894.8,1897.2 1907.1,1914.1 1921.0,1932.4 1936.6,1952.0 1953.7,1972.8 1972.1,1994.7 1991.8,2017.6 2012.6,2041.3 2034.4,2065.8 2057.1,2090.8 2080.4,2116.2 2104.2,2141.9 2128.3,2167.6  " style="stroke-opacity: 1.000000; stroke-width: 5.0; stroke: rgb(107,174,214); fill: none"  />
<path d="M 2237.4,2044.7 L 2208.5,2023.7 2179.6,2003.2 2150.6,1983.4 2121.8,1964.5 2093.3,1946.6 2065.3,1929.9 2038.0,1914.4 2011.3,1900.3 1985.5,1887.8 1960.7,1876.9 1936.9,1867.8 1914.2,1860.4 1892.9,1854.9 1872.8,1851.3 1854.1,1849.7 1836.9,1850.1 1821.1,1852.6 1806.9,1857.1 1794.3,1863.7 1783.3,1872.4 1773.9,1883.1 1766.1,1895.8 1759.9,1910.5 1755.4,1927.1 1752.5,1945.7 1751.2,1966.0 1751.5,1988.1 1753.3,2011.8 1756.5,2037.1 1761.2,2063.8 1767.2,2091.9 1774.5,2121.1 1783.0,2151.4 1792.6,2182.6 1803.2,2214.5 1814.8,2246.9 1827.1,2279.8 1840.1,2312.8 1853.6,2345.8  " style="stroke-opacity: 1.000000; stroke-width: 5.0; stroke: rgb(107,174,214); fill: none"  />
<path d="M 2237.4,2044.7 L 2208.2,2023.6 2178.8,2003.0 2149.2,1983.2 2119.6,1964.4 2090.2,1946.6 2061.1,1930.1 2032.4,1915.0 2004.2,1901.4 1976.6,1889.4 1949.7,1879.1 1923.7,1870.6 1898.6,1864.0 1874.4,1859.3 1851.4,1856.7 1829.5,1856.1 1808.7,1857.6 1789.2,1861.2 1771.1,1867.0 1754.2,1874.9 1738.7,1884.9 1724.7,1897.1 1712.0,1911.4 1700.7,1927.7 1690.9,1946.0 1682.5,1966.2 1675.5,1988.4 1670.0,2012.3 1665.8,2037.9 1662.9,2065.2 1661.4,2093.9 1661.1,2124.0 1662.0,2155.3 1664.1,2187.7 1667.3,2221.0 1671.5,2255.1 1676.7,2289.8 1682.7,2324.8 1689.5,2360.1 1696.9,2395.4  " style="stroke-opacity: 1.000000; stroke-width: 5.0; stroke: rgb(107,174,214); fill: none"  />
<path d="M 2128.3,2167.6 L 2103.5,2140.8 2079.4,2113.5 2056.1,2085.9 2033.7,2057.9 2012.5,2029.8 1992.6,2001.6 1974.1,1973.5 1957.1,1945.5 1941.9,1917.7 1928.4,1890.1 1916.9,1862.9 1907.3,1836.2 1899.8,1809.9 1894.5,1784.3 1891.3,1759.2 1890.3,1734.8 1891.6,1711.2 1895.2,1688.3 1901.0,1666.3 1909.2,1645.1 1919.6,1624.8 1932.2,1605.5 1947.1,1587.0 1964.2,1569.6 1983.3,1553.1 2004.5,1537.6 2027.6,1523.2 2052.7,1509.7 2079.4,1497.3 2107.9,1485.8 2137.8,1475.4 2169.2,1465.9 2201.7,1457.4 2235.4,1449.8 2270.0,1443.2 2305.3,1437.4 2341.2,1432.5 2377.4,1428.4 2413.7,1425.1  " style="stroke-opacity: 1.000000; stroke-width: 5.0; stroke: rgb(107,174,214); fill: none"  />
<path d="M 2128.3,2167.6 L 2103.8,2141.2 2079.9,2114.4 2056.8,2087.4 2034.5,2060.2 2013.4,2033.1 1993.6,2006.2 1975.2,1979.4 1958.3,1953.0 1943.1,1927.1 1929.7,1901.6 1918.2,1876.8 1908.7,1852.6 1901.2,1829.2 1895.8,1806.6 1892.6,1784.9 1891.7,1764.2 1893.0,1744.4 1896.5,1725.7 1902.4,1708.0 1910.5,1691.4 1920.9,1676.0 1933.6,1661.7 1948.4,1648.6 1965.5,1636.7 1984.6,1626.0 2005.7,1616.4 2028.8,1608.0 2053.8,1600.8 2080.5,1594.8 2108.8,1589.8 2138.7,1586.0 2169.9,1583.2 2202.3,1581.5 2235.8,1580.7 2270.1,1580.8 2305.2,1581.8 2340.7,1583.7 2376.5,1586.2 2412.4,1589.4  " style="stroke-opacity: 1.000000; stroke-width: 5.0; stroke: rgb(107,174,214); fill: none"  />
<path d="M 2128.3,2167.6 L 2104.2,2141.9 2080.4,2116.2 2057.1,2090.8 2034.4,2065.8 2012.6,2041.3 1991.8,2017.6 1972.1,1994.7 1953.7,1972.8 1936.6,1952.0 1921.0,1932.4 1907.1,1914.1 1894.8,1897.2 1884.3,1881.8 1875.6,1868.0 1868.8,1855.7 1863.9,1845.2 1861.0,1836.3 1860.1,1829.2 1861.3,1823.9 1864.4,1820.3 1869.6,1818.6 1876.7,1818.6 1885.9,1820.4 1896.9,1824.0 1909.9,1829.3 1924.7,1836.3 1941.2,1844.9 1959.4,1855.1 1979.2,1866.8 2000.5,1880.0 2023.2,1894.4 2047.2,1910.1 2072.2,1927.0 2098.3,1944.8 2125.1,1963.6 2152.6,1983.1 2180.7,2003.2 2209.0,2023.8 2237.4,2044.7  " style="stroke-opacity: 1.000000; stroke-width: 5.0; stroke: rgb(107,174,214); fill: none"  />
<path d="M 2128.3,2167.6 L 2103.6,2141.8 2078.8,2116.5 2053.8,2091.8 2028.9,2068.1 2004.1,2045.4 1979.5,2023.9 1955.3,2003.8 1931.6,1985.2 1908.4,1968.3 1885.9,1953.1 1864.2,1939.9 1843.2,1928.6 1823.2,1919.3 1804.1,1912.2 1786.0,1907.3 1768.9,1904.7 1753.0,1904.3 1738.2,1906.2 1724.6,1910.4 1712.2,1917.0 1701.1,1925.8 1691.1,1936.9 1682.5,1950.3 1675.1,1965.9 1668.9,1983.6 1664.0,2003.4 1660.3,2025.2 1657.8,2048.8 1656.5,2074.3 1656.3,2101.4 1657.2,2130.1 1659.2,2160.1 1662.1,2191.4 1666.0,2223.8 1670.8,2257.1 1676.3,2291.1 1682.6,2325.6 1689.5,2360.5 1696.9,2395.4  " style="stroke-opacity: 1.000000; stroke-width: 5.0; stroke: rgb(107,174,214); fill: none"  />
<path d="M 583.3,1492.7 L 619.7,1492.7 656.2,1491.8 692.3,1490.1 728.0,1487.6 763.0,1484.0 797.3,1479.5 830.5,1474.0 862.5,1467.3 893.3,1459.6 922.7,1450.8 950.4,1440.8 976.6,1429.6 1000.9,1417.3 1023.4,1403.8 1044.0,1389.1 1062.5,1373.2 1079.0,1356.2 1093.3,1338.1 1105.5,1318.8 1115.5,1298.4 1123.3,1277.0 1128.9,1254.5 1132.3,1231.1 1133.5,1206.8 1132.6,1181.5 1129.6,1155.5 1124.4,1128.7 1117.3,1101.2 1108.3,1073.1 1097.3,1044.4 1084.6,1015.3 1070.3,985.9 1054.4,956.2 1037.1,926.4 1018.4,896.5 998.7,866.7 977.9,837.0 956.3,807.7 934.1,778.8  " style="stroke-opacity: 1.000000; stroke-width: 5.0; stroke: rgb(107,174,214); fill: none"  />
<path d="M 599.3,1329.2 L 635.1,1336.3 670.6,1344.2 705.8,1352.9 740.3,1362.4 774.0,1372.6 806.7,1383.7 838.2,1395.6 868.3,1408.3 897.0,1421.8 924.1,1436.2 949.4,1451.4 972.9,1467.4 994.4,1484.3 1013.8,1501.9 1031.1,1520.3 1046.2,1539.4 1059.1,1559.3 1069.6,1579.9 1077.8,1601.2 1083.7,1623.1 1087.2,1645.6 1088.3,1668.7 1087.1,1692.4 1083.6,1716.5 1077.8,1741.1 1069.7,1766.1 1059.5,1791.4 1047.2,1817.0 1032.8,1842.8 1016.6,1868.7 998.5,1894.8 978.7,1920.9 957.3,1946.9 934.5,1972.8 910.4,1998.5 885.3,2024.0 859.1,2049.0 832.3,2073.6 804.9,2097.7  " style="stroke-opacity: 1.000000; stroke-width: 5.0; stroke: rgb(107,174,214); fill: none"  />
<path d="M 599.3,1329.2 L 634.6,1336.2 669.7,1343.8 704.3,1352.1 738.2,1361.0 771.2,1370.5 803.1,1380.6 833.8,1391.4 862.9,1402.9 890.5,1415.0 916.3,1427.7 940.2,1441.0 962.1,1454.9 981.9,1469.5 999.6,1484.6 1014.9,1500.3 1027.9,1516.5 1038.4,1533.3 1046.6,1550.5 1052.2,1568.2 1055.4,1586.4 1056.0,1605.0 1054.2,1624.0 1049.8,1643.3 1043.1,1663.0 1033.9,1682.9 1022.4,1703.1 1008.7,1723.4 992.7,1743.9 974.7,1764.5 954.6,1785.2 932.7,1805.8 909.1,1826.4 883.9,1846.9 857.3,1867.2 829.5,1887.3 800.5,1907.0 770.7,1926.5 740.2,1945.5 709.3,1964.0  " style="stroke-opacity: 1.000000; stroke-width: 5.0; stroke: rgb(107,174,214); fill: none"  />
<path d="M 599.3,1329.2 L 633.9,1335.8 668.3,1342.6 702.1,1349.5 735.1,1356.4 767.1,1363.4 797.9,1370.3 827.3,1377.3 855.1,1384.2 881.1,1391.0 905.2,1397.7 927.3,1404.3 947.1,1410.7 964.7,1417.0 979.9,1423.1 992.6,1429.0 1002.7,1434.7 1010.3,1440.1 1015.1,1445.4 1017.4,1450.3 1016.9,1455.0 1013.8,1459.5 1007.9,1463.7 999.5,1467.6 988.4,1471.2 974.8,1474.5 958.8,1477.5 940.3,1480.3 919.6,1482.7 896.7,1484.9 871.7,1486.8 844.9,1488.5 816.3,1489.8 786.1,1490.9 754.5,1491.8 721.8,1492.4 688.0,1492.8 653.5,1493.0 618.5,1492.9 583.3,1492.7  " style="stroke-opacity: 1.000000; stroke-width: 5.0; stroke: rgb(107,174,214); fill: none"  />
<path d="M 1853.6,2345.8 L 1840.1,2312.8 1827.1,2279.8 1814.8,2246.9 1803.2,2214.5 1792.6,2182.6 1783.0,2151.4 1774.5,2121.1 1767.2,2091.9 1761.2,2063.8 1756.5,2037.1 1753.3,2011.8 1751.5,1988.1 1751.2,1966.0 1752.5,1945.7 1755.4,1927.1 1759.9,1910.5 1766.1,1895.8 1773.9,1883.1 1783.3,1872.4 1794.3,1863.7 1806.9,1857.1 1821.1,1852.6 1836.9,1850.1 1854.1,1849.7 1872.8,1851.3 1892.9,1854.9 1914.2,1860.4 1936.9,1867.8 1960.7,1876.9 1985.5,1887.8 2011.3,1900.3 2038.0,1914.4 2065.3,1929.9 2093.3,1946.6 2121.8,1964.5 2150.6,1983.4 2179.6,2003.2 2208.5,2023.7 2237.4,2044.7  " style="stroke-opacity: 1.000000; stroke-width: 5.0; stroke: rgb(107,174,214); fill: none"  />
<path d="M 1696.9,2395.4 L 1687.2,2350.9 1677.8,2306.1 1668.6,2261.1 1659.6,2215.9 1650.8,2170.5 1642.3,2124.9 1634.1,2079.1 1626.2,2033.1 1618.6,1986.9 1611.3,1940.6 1604.3,1894.2 1597.6,1847.6 1591.2,1800.9 1585.2,1754.1 1579.6,1707.2 1574.3,1660.2 1569.3,1613.1 1564.7,1566.0 1560.5,1518.8 1556.6,1471.6 1553.1,1424.4 1550.0,1377.1 1547.2,1329.9 1544.8,1282.6 1542.7,1235.4 1541.0,1188.3 1539.6,1141.2 1538.6,1094.1 1538.0,1047.1 1537.6,1000.3 1537.6,953.5 1538.0,906.8 1538.6,860.3 1539.5,813.9 1540.8,767.7 1542.3,721.6 1544.1,675.7 1546.1,630.0 1548.4,584.5  " style="stroke-opacity: 1.000000; stroke-width: 5.0; stroke: rgb(107,174,214); fill: none"  />
<path d="M 1696.9,2395.4 L 1688.3,2354.6 1680.5,2313.3 1673.4,2271.5 1667.1,2229.3 1661.8,2186.7 1657.4,2143.8 1654.0,2100.6 1651.6,2057.2 1650.3,2013.7 1650.1,1970.1 1651.1,1926.4 1653.2,1882.7 1656.5,1839.0 1661.1,1795.5 1666.8,1752.0 1673.9,1708.8 1682.1,1665.7 1691.6,1622.9 1702.4,1580.4 1714.4,1538.2 1727.6,1496.4 1742.1,1455.0 1757.7,1414.0 1774.5,1373.6 1792.5,1333.6 1811.6,1294.1 1831.7,1255.3 1852.9,1217.0 1875.1,1179.3 1898.2,1142.3 1922.2,1106.0 1947.1,1070.4 1972.7,1035.5 1999.0,1001.3 2026.0,968.0 2053.6,935.4 2081.6,903.5 2110.0,872.6 2138.8,842.4  " style="stroke-opacity: 1.000000; stroke-width: 5.0; stroke: rgb(107,174,214); fill: none"  />
<path d="M 1696.9,2395.4 L 1688.6,2355.5 1681.0,2315.0 1674.4,2274.2 1668.7,2232.9 1664.0,2191.3 1660.3,2149.4 1657.8,2107.4 1656.5,2065.3 1656.5,2023.1 1657.6,1980.9 1660.1,1938.8 1664.0,1896.8 1669.2,1855.0 1675.8,1813.4 1683.8,1772.1 1693.2,1731.2 1704.0,1690.6 1716.2,1650.5 1729.9,1610.8 1744.9,1571.7 1761.3,1533.1 1779.1,1495.1 1798.3,1457.7 1818.7,1421.0 1840.4,1385.0 1863.4,1349.7 1887.5,1315.2 1912.8,1281.4 1939.2,1248.5 1966.5,1216.4 1994.8,1185.1 2024.0,1154.7 2054.0,1125.1 2084.8,1096.5 2116.1,1068.8 2148.0,1041.9 2180.3,1016.0 2213.0,991.1 2245.9,967.0  " style="stroke-opacity: 1.000000; stroke-width: 5.0; stroke: rgb(107,174,214); fill: none"  />
<path d="M 1696.9,2395.4 L 1688.8,2356.3 1681.5,2316.8 1675.2,2276.8 1669.9,2236.5 1665.8,2196.0 1662.8,2155.3 1661.0,2114.5 1660.6,2073.8 1661.5,2033.2 1663.8,1992.7 1667.5,1952.4 1672.7,1912.4 1679.4,1872.8 1687.6,1833.6 1697.4,1794.9 1708.7,1756.7 1721.6,1719.1 1736.0,1682.1 1751.9,1645.9 1769.4,1610.3 1788.4,1575.5 1808.8,1541.5 1830.7,1508.4 1854.0,1476.1 1878.7,1444.7 1904.7,1414.2 1932.0,1384.7 1960.5,1356.2 1990.1,1328.6 2020.7,1302.1 2052.3,1276.5 2084.9,1252.0 2118.2,1228.5 2152.2,1206.0 2186.9,1184.5 2222.0,1164.1 2257.5,1144.6 2293.2,1126.2 2329.1,1108.8  " style="stroke-opacity: 1.000000; stroke-width: 5.0; stroke: rgb(107,174,214); fill: none"  />
<path d="M 1696.9,2395.4 L 1689.1,2357.8 1682.3,2320.0 1676.4,2281.8 1671.7,2243.5 1668.1,2205.3 1665.9,2167.1 1665.0,2129.2 1665.5,2091.6 1667.5,2054.5 1671.0,2017.9 1676.1,1981.9 1682.8,1946.6 1691.1,1912.1 1701.2,1878.4 1712.9,1845.7 1726.3,1814.0 1741.4,1783.3 1758.1,1753.8 1776.6,1725.4 1796.7,1698.1 1818.4,1672.1 1841.8,1647.4 1866.6,1624.0 1893.0,1601.9 1920.8,1581.1 1950.1,1561.6 1980.6,1543.5 2012.3,1526.7 2045.2,1511.2 2079.2,1497.1 2114.1,1484.3 2149.9,1472.7 2186.4,1462.5 2223.6,1453.4 2261.2,1445.6 2299.1,1438.8 2337.3,1433.2 2375.5,1428.6 2413.7,1425.1  " style="stroke-opacity: 1.000000; stroke-width: 5.0; stroke: rgb(107,174,214); fill: none"  />
<path d="M 1696.9,2395.4 L 1689.3,2358.5 1682.5,2321.4 1676.8,2284.1 1672.1,2246.8 1668.6,2209.7 1666.4,2172.9 1665.6,2136.4 1666.2,2100.5 1668.2,2065.2 1671.8,2030.6 1677.0,1996.9 1683.7,1964.1 1692.2,1932.4 1702.3,1901.7 1714.1,1872.2 1727.5,1844.0 1742.7,1817.0 1759.6,1791.5 1778.1,1767.3 1798.3,1744.5 1820.2,1723.2 1843.6,1703.4 1868.5,1685.2 1895.0,1668.4 1922.9,1653.2 1952.1,1639.6 1982.6,1627.4 2014.4,1616.8 2047.2,1607.7 2081.1,1600.0 2115.9,1593.8 2151.6,1589.0 2187.8,1585.5 2224.7,1583.3 2262.0,1582.4 2299.5,1582.6 2337.2,1583.9 2374.9,1586.2 2412.4,1589.4  " style="stroke-opacity: 1.000000; stroke-width: 5.0; stroke: rgb(107,174,214); fill: none"  />
<path d="M 1696.9,2395.4 L 1689.4,2359.1 1682.7,2322.7 1676.9,2286.2 1672.2,2249.9 1668.7,2213.9 1666.3,2178.3 1665.3,2143.3 1665.6,2109.0 1667.4,2075.5 1670.7,2043.0 1675.5,2011.6 1681.9,1981.3 1689.9,1952.3 1699.5,1924.6 1710.7,1898.3 1723.6,1873.6 1738.2,1850.4 1754.4,1828.7 1772.2,1808.8 1791.7,1790.5 1812.7,1773.9 1835.3,1759.0 1859.3,1745.9 1884.8,1734.5 1911.7,1724.9 1939.9,1717.0 1969.4,1710.8 2000.0,1706.2 2031.6,1703.3 2064.3,1702.0 2097.8,1702.3 2132.1,1704.0 2166.9,1707.2 2202.3,1711.7 2238.1,1717.4 2274.1,1724.3 2310.1,1732.3 2346.1,1741.2 2381.8,1750.9  " style="stroke-opacity: 1.000000; stroke-width: 5.0; stroke: rgb(107,174,214); fill: none"  />
</g>
<defs>
<pattern id="checker" width="10" height="10" patternTransform="rotate(45 0 0)" patternUnits="userSpaceOnUse"><line x1="0" y1="0" x2="10" y2="0" style="stroke:black;stroke-width:5" /><line x1="0" y1="0" x2="0" y2="10" style="stroke:black;stroke-width:4" /></pattern>
<pattern id="checker" width="10" height="10" patternTransform="rotate(45 0 0)" patternUnits="userSpaceOnUse"><line x1="0" y1="0" x2="10" y2="0" style="stroke:black;stroke-width:2" /><line x1="0" y1="0" x2="0" y2="10" style="stroke:black;stroke-width:2" /></pattern>
<pattern id="vline" width="10" height="10" patternTransform="rotate(0 0 0)" patternUnits="userSpaceOnUse"><line x1="0" y1="0" x2="0" y2="10" style="stroke:black;stroke-width:5" /></pattern>
<pattern id="hline-sparse" width="10" height="10" patternTransform="rotate(0 0 0)" patternUnits="userSpaceOnUse"><line x1="0" y1="0" x2="10" y2="0" style="stroke:black;stroke-width:2" /></pattern>
<pattern id="vline-sparse" width="10" height="10" patternTransform="rotate(0 0 0)" patternUnits="userSpaceOnUse"><line x1="0" y1="0" x2="0" y2="10" style="stroke:black;stroke-width:2" /></pattern>
<pattern id="hline" width="10" height="10" patternTransform="rotate(0 0 0)" patternUnits="userSpaceOnUse"><line x1="0" y1="0" x2="10" y2="0" style="stroke:black;stroke-width:5" /></pattern>
</defs>
</svg>
