<?xml version="1.0" encoding="utf-8" standalone="no"?>
<!DOCTYPE svg PUBLIC "-//W3C//DTD SVG 1.1//EN" "http://www.w3.org/Graphics/SVG/1.1/DTD/svg11.dtd">
<svg width="3000px" height="3000px" version="1.1" xmlns="http://www.w3.org/2000/svg" xmlns:xlink="http://www.w3.org/1999/xlink">
<g id="bg">
<rect x="0" y="0" width="3000px" height="3000px" style="fill:rgb(255,255,255);"/>
</g>
<g id="ideograms">
<path d="M1500.000,535.000 A965.000,965.000 40.000 0,1 1601.714,540.376 L1618.579,381.267 A1125.000,1125.000 0.000 0,0 1500.000,375.000 Z" style="stroke-width:2.0;stroke:rgb(115,115,115);stroke-linecap:round;fill:rgb(153,0,204);" />
<text x="1635.1" y="307.6" font-size="195.0px" font-family="CMUBright-Bold" style="text-anchor:start;fill:rgb(0,0,0);" transform="rotate(273.0,1635.1,307.6)" >1</text>
<path d="M1500.000,535.000 A965.000,965.000 40.000 0,1 1601.714,540.376 L1618.579,381.267 A1125.000,1125.000 0.000 0,0 1500.000,375.000 Z" style="stroke-width:2.0;stroke:rgb(115,115,115);stroke-linecap:round;fill:none;" />
<path d="M1672.307,550.508 A965.000,965.000 40.000 0,1 1771.427,573.959 L1816.431,420.418 A1125.000,1125.000 0.000 0,0 1700.877,393.079 Z" style="stroke-width:2.0;stroke:rgb(115,115,115);stroke-linecap:round;fill:rgb(153,0,204);" />
<text x="1843.9" y="350.3" font-size="195.0px" font-family="CMUBright-Bold" style="text-anchor:start;fill:rgb(0,0,0);" transform="rotate(283.3,1843.9,350.3)" >4</text>
<path d="M1672.307,550.508 A965.000,965.000 40.000 0,1 1771.427,573.959 L1816.431,420.418 A1125.000,1125.000 0.000 0,0 1700.877,393.079 Z" style="stroke-width:2.0;stroke:rgb(115,115,115);stroke-linecap:round;fill:none;" />
<path d="M1839.077,596.533 A965.000,965.000 40.000 0,1 1932.417,637.306 L2004.113,494.269 A1125.000,1125.000 0.000 0,0 1895.297,446.736 Z" style="stroke-width:2.0;stroke:rgb(115,115,115);stroke-linecap:round;fill:rgb(153,0,204);" />
<text x="2045.4" y="431.1" font-size="195.0px" font-family="CMUBright-Bold" style="text-anchor:start;fill:rgb(0,0,0);" transform="rotate(293.6,2045.4,431.1)" >5</text>
<path d="M1839.077,596.533 A965.000,965.000 40.000 0,1 1932.417,637.306 L2004.113,494.269 A1125.000,1125.000 0.000 0,0 1895.297,446.736 Z" style="stroke-width:2.0;stroke:rgb(115,115,115);stroke-linecap:round;fill:none;" />
<path d="M1994.948,671.597 A965.000,965.000 40.000 0,1 2079.507,728.381 L2175.592,600.444 A1125.000,1125.000 0.000 0,0 2077.012,534.245 Z" style="stroke-width:2.0;stroke:rgb(115,115,115);stroke-linecap:round;fill:rgb(153,0,204);" />
<text x="2229.1" y="546.9" font-size="195.0px" font-family="CMUBright-Bold" style="text-anchor:start;fill:rgb(0,0,0);" transform="rotate(303.9,2229.1,546.9)" >6</text>
<path d="M1994.948,671.597 A965.000,965.000 40.000 0,1 2079.507,728.381 L2175.592,600.444 A1125.000,1125.000 0.000 0,0 2077.012,534.245 Z" style="stroke-width:2.0;stroke:rgb(115,115,115);stroke-linecap:round;fill:none;" />
<path d="M2134.911,773.286 A965.000,965.000 40.000 0,1 2207.972,844.256 L2325.356,735.532 A1125.000,1125.000 0.000 0,0 2240.181,652.795 Z" style="stroke-width:2.0;stroke:rgb(115,115,115);stroke-linecap:round;fill:rgb(153,0,204);" />
<text x="2387.6" y="692.4" font-size="195.0px" font-family="CMUBright-Bold" style="text-anchor:start;fill:rgb(0,0,0);" transform="rotate(314.2,2387.6,692.4)" >8</text>
<path d="M2134.911,773.286 A965.000,965.000 40.000 0,1 2207.972,844.256 L2325.356,735.532 A1125.000,1125.000 0.000 0,0 2240.181,652.795 Z" style="stroke-width:2.0;stroke:rgb(115,115,115);stroke-linecap:round;fill:none;" />
<path d="M2254.467,898.332 A965.000,965.000 40.000 0,1 2313.683,981.207 L2448.594,895.190 A1125.000,1125.000 0.000 0,0 2379.560,798.574 Z" style="stroke-width:2.0;stroke:rgb(115,115,115);stroke-linecap:round;fill:rgb(153,0,204);" />
<text x="2517.5" y="863.9" font-size="195.0px" font-family="CMUBright-Bold" style="text-anchor:start;fill:rgb(0,0,0);" transform="rotate(324.5,2517.5,863.9)" >9</text>
<path d="M2254.467,898.332 A965.000,965.000 40.000 0,1 2313.683,981.207 L2448.594,895.190 A1125.000,1125.000 0.000 0,0 2379.560,798.574 Z" style="stroke-width:2.0;stroke:rgb(115,115,115);stroke-linecap:round;fill:none;" />
<path d="M2349.775,1042.717 A965.000,965.000 40.000 0,1 2393.240,1134.833 L2541.342,1074.288 A1125.000,1125.000 0.000 0,0 2490.670,966.898 Z" style="stroke-width:2.0;stroke:rgb(115,115,115);stroke-linecap:round;fill:rgb(153,0,204);" />
<text x="2614.7" y="1055.8" font-size="195.0px" font-family="CMUBright-Bold" style="text-anchor:start;fill:rgb(0,0,0);" transform="rotate(334.7,2614.7,1055.8)" >10</text>
<path d="M2349.775,1042.717 A965.000,965.000 40.000 0,1 2393.240,1134.833 L2541.342,1074.288 A1125.000,1125.000 0.000 0,0 2490.670,966.898 Z" style="stroke-width:2.0;stroke:rgb(115,115,115);stroke-linecap:round;fill:none;" />
<path d="M2417.770,1201.799 A965.000,965.000 40.000 0,1 2444.089,1300.196 L2600.621,1267.068 A1125.000,1125.000 0.000 0,0 2569.939,1152.356 Z" style="stroke-width:2.0;stroke:rgb(115,115,115);stroke-linecap:round;fill:rgb(153,0,204);" />
<text x="2676.2" y="1262.0" font-size="195.0px" font-family="CMUBright-Bold" style="text-anchor:start;fill:rgb(0,0,0);" transform="rotate(345.0,2676.2,1262.0)" >13</text>
<path d="M2417.770,1201.799 A965.000,965.000 40.000 0,1 2444.089,1300.196 L2600.621,1267.068 A1125.000,1125.000 0.000 0,0 2569.939,1152.356 Z" style="stroke-width:2.0;stroke:rgb(115,115,115);stroke-linecap:round;fill:none;" />
<path d="M2456.267,1370.465 A965.000,965.000 40.000 0,1 2464.593,1471.980 L2624.526,1467.335 A1125.000,1125.000 0.000 0,0 2614.818,1348.988 Z" style="stroke-width:2.0;stroke:rgb(115,115,115);stroke-linecap:round;fill:rgb(153,0,204);" />
<text x="2699.8" y="1475.8" font-size="195.0px" font-family="CMUBright-Bold" style="text-anchor:start;fill:rgb(0,0,0);" transform="rotate(355.3,2699.8,1475.8)" >18</text>
<path d="M2456.267,1370.465 A965.000,965.000 40.000 0,1 2464.593,1471.980 L2624.526,1467.335 A1125.000,1125.000 0.000 0,0 2614.818,1348.988 Z" style="stroke-width:2.0;stroke:rgb(115,115,115);stroke-linecap:round;fill:none;" />
<path d="M2464.028,1543.295 A965.000,965.000 40.000 0,1 2454.095,1644.665 L2612.287,1668.651 A1125.000,1125.000 0.000 0,0 2623.867,1550.473 Z" style="stroke-width:2.0;stroke:rgb(115,115,115);stroke-linecap:round;fill:rgb(153,0,204);" />
<text x="2684.8" y="1690.4" font-size="195.0px" font-family="CMUBright-Bold" style="text-anchor:start;fill:rgb(0,0,0);" transform="rotate(5.6,2684.8,1690.4)" >19</text>
<path d="M2464.028,1543.295 A965.000,965.000 40.000 0,1 2454.095,1644.665 L2612.287,1668.651 A1125.000,1125.000 0.000 0,0 2623.867,1550.473 Z" style="stroke-width:2.0;stroke:rgb(115,115,115);stroke-linecap:round;fill:none;" />
<path d="M2440.805,1714.733 A965.000,965.000 40.000 0,1 2412.931,1812.701 L2564.298,1864.548 A1125.000,1125.000 0.000 0,0 2596.794,1750.336 Z" style="stroke-width:2.0;stroke:rgb(115,115,115);stroke-linecap:round;fill:rgb(153,0,204);" />
<text x="2631.8" y="1898.9" font-size="195.0px" font-family="CMUBright-Bold" style="text-anchor:start;fill:rgb(0,0,0);" transform="rotate(15.9,2631.8,1898.9)" >20</text>
<path d="M2440.805,1714.733 A965.000,965.000 40.000 0,1 2412.931,1812.701 L2564.298,1864.548 A1125.000,1125.000 0.000 0,0 2596.794,1750.336 Z" style="stroke-width:2.0;stroke:rgb(115,115,115);stroke-linecap:round;fill:none;" />
<path d="M2387.344,1879.269 A965.000,965.000 40.000 0,1 2342.425,1970.686 L2482.102,2048.727 A1125.000,1125.000 0.000 0,0 2534.469,1942.153 Z" style="stroke-width:2.0;stroke:rgb(115,115,115);stroke-linecap:round;fill:rgb(153,0,204);" />
<text x="2543.3" y="2092.8" font-size="195.0px" font-family="CMUBright-Bold" style="text-anchor:start;fill:rgb(0,0,0);" transform="rotate(26.2,2543.3,2092.8)" >21</text>
<path d="M2387.344,1879.269 A965.000,965.000 40.000 0,1 2342.425,1970.686 L2482.102,2048.727 A1125.000,1125.000 0.000 0,0 2534.469,1942.153 Z" style="stroke-width:2.0;stroke:rgb(115,115,115);stroke-linecap:round;fill:none;" />
<path d="M2305.363,2031.616 A965.000,965.000 40.000 0,1 2244.843,2113.542 L2368.340,2215.270 A1125.000,1125.000 0.000 0,0 2438.895,2119.759 Z" style="stroke-width:2.0;stroke:rgb(115,115,115);stroke-linecap:round;fill:rgb(153,0,204);" />
<text x="2420.7" y="2269.6" font-size="195.0px" font-family="CMUBright-Bold" style="text-anchor:start;fill:rgb(0,0,0);" transform="rotate(36.5,2420.7,2269.6)" >22</text>
<path d="M2305.363,2031.616 A965.000,965.000 40.000 0,1 2244.843,2113.542 L2368.340,2215.270 A1125.000,1125.000 0.000 0,0 2438.895,2119.759 Z" style="stroke-width:2.0;stroke:rgb(115,115,115);stroke-linecap:round;fill:none;" />
<path d="M2197.497,2166.875 A965.000,965.000 40.000 0,1 2123.321,2236.679 L2226.669,2358.823 A1125.000,1125.000 0.000 0,0 2313.144,2277.445 Z" style="stroke-width:2.0;stroke:rgb(115,115,115);stroke-linecap:round;fill:rgb(153,0,204);" />
<text x="2267.0" y="2422.9" font-size="195.0px" font-family="CMUBright-Bold" style="text-anchor:start;fill:rgb(0,0,0);" transform="rotate(46.7,2267.0,2422.9)" >26</text>
<path d="M2197.497,2166.875 A965.000,965.000 40.000 0,1 2123.321,2236.679 L2226.669,2358.823 A1125.000,1125.000 0.000 0,0 2313.144,2277.445 Z" style="stroke-width:2.0;stroke:rgb(115,115,115);stroke-linecap:round;fill:none;" />
<path d="M2067.213,2280.701 A965.000,965.000 40.000 0,1 1981.764,2336.139 L2061.642,2474.773 A1125.000,1125.000 0.000 0,0 2161.258,2410.144 Z" style="stroke-width:2.0;stroke:rgb(115,115,115);stroke-linecap:round;fill:rgb(153,0,204);" />
<text x="2089.8" y="2545.0" font-size="195.0px" font-family="CMUBright-Bold" style="text-anchor:start;fill:rgb(0,0,0);" transform="rotate(57.0,2089.8,2545.0)" >28</text>
<path d="M2067.213,2280.701 A965.000,965.000 40.000 0,1 1981.764,2336.139 L2061.642,2474.773 A1125.000,1125.000 0.000 0,0 2161.258,2410.144 Z" style="stroke-width:2.0;stroke:rgb(115,115,115);stroke-linecap:round;fill:none;" />
<path d="M1918.698,2369.435 A965.000,965.000 40.000 0,1 1824.724,2408.724 L1878.564,2559.393 A1125.000,1125.000 0.000 0,0 1988.119,2513.590 Z" style="stroke-width:2.0;stroke:rgb(115,115,115);stroke-linecap:round;fill:rgb(153,0,204);" />
<text x="1893.8" y="2633.6" font-size="195.0px" font-family="CMUBright-Bold" style="text-anchor:start;fill:rgb(0,0,0);" transform="rotate(67.3,1893.8,2633.6)" >35</text>
<path d="M1918.698,2369.435 A965.000,965.000 40.000 0,1 1824.724,2408.724 L1878.564,2559.393 A1125.000,1125.000 0.000 0,0 1988.119,2513.590 Z" style="stroke-width:2.0;stroke:rgb(115,115,115);stroke-linecap:round;fill:none;" />
<path d="M1756.726,2430.224 A965.000,965.000 40.000 0,1 1657.246,2452.102 L1683.318,2609.964 A1125.000,1125.000 0.000 0,0 1799.291,2584.458 Z" style="stroke-width:2.0;stroke:rgb(115,115,115);stroke-linecap:round;fill:rgb(253,208,162);" />
<text x="1687.0" y="2685.3" font-size="195.0px" font-family="CMUBright-Bold" style="text-anchor:start;fill:rgb(0,0,0);" transform="rotate(77.6,1687.0,2685.3)" >2</text>
<path d="M1756.726,2430.224 A965.000,965.000 40.000 0,1 1657.246,2452.102 L1683.318,2609.964 A1125.000,1125.000 0.000 0,0 1799.291,2584.458 Z" style="stroke-width:2.0;stroke:rgb(115,115,115);stroke-linecap:round;fill:none;" />
<path d="M1586.502,2461.115 A965.000,965.000 40.000 0,1 1484.715,2464.879 L1482.181,2624.859 A1125.000,1125.000 0.000 0,0 1600.844,2620.471 Z" style="stroke-width:2.0;stroke:rgb(115,115,115);stroke-linecap:round;fill:rgb(253,208,162);" />
<text x="1470.4" y="2699.6" font-size="195.0px" font-family="CMUBright-Bold" style="text-anchor:start;fill:rgb(0,0,0);" transform="rotate(87.9,1470.4,2699.6)" >31</text>
<path d="M1586.502,2461.115 A965.000,965.000 40.000 0,1 1484.715,2464.879 L1482.181,2624.859 A1125.000,1125.000 0.000 0,0 1600.844,2620.471 Z" style="stroke-width:2.0;stroke:rgb(115,115,115);stroke-linecap:round;fill:none;" />
<path d="M1413.498,2461.115 A965.000,965.000 40.000 0,1 1312.675,2446.644 L1281.616,2603.600 A1125.000,1125.000 0.000 0,0 1399.156,2620.471 Z" style="stroke-width:2.0;stroke:rgb(115,115,115);stroke-linecap:round;fill:rgb(253,208,162);" />
<text x="1403.0" y="2696.1" font-size="195.0px" font-family="CMUBright-Bold" style="text-anchor:end;fill:rgb(0,0,0);" transform="rotate(-81.8,1403.0,2696.1)" >32</text>
<path d="M1413.498,2461.115 A965.000,965.000 40.000 0,1 1312.675,2446.644 L1281.616,2603.600 A1125.000,1125.000 0.000 0,0 1399.156,2620.471 Z" style="stroke-width:2.0;stroke:rgb(115,115,115);stroke-linecap:round;fill:none;" />
<path d="M1243.274,2430.224 A965.000,965.000 40.000 0,1 1146.656,2397.983 L1088.070,2546.871 A1125.000,1125.000 0.000 0,0 1200.709,2584.458 Z" style="stroke-width:2.0;stroke:rgb(115,115,115);stroke-linecap:round;fill:rgb(253,141,60);" />
<text x="1188.1" y="2658.8" font-size="195.0px" font-family="CMUBright-Bold" style="text-anchor:end;fill:rgb(0,0,0);" transform="rotate(-71.5,1188.1,2658.8)" >7</text>
<path d="M1243.274,2430.224 A965.000,965.000 40.000 0,1 1146.656,2397.983 L1088.070,2546.871 A1125.000,1125.000 0.000 0,0 1200.709,2584.458 Z" style="stroke-width:2.0;stroke:rgb(115,115,115);stroke-linecap:round;fill:none;" />
<path d="M1081.302,2369.435 A965.000,965.000 40.000 0,1 991.993,2320.460 L907.764,2456.494 A1125.000,1125.000 0.000 0,0 1011.881,2513.590 Z" style="stroke-width:2.0;stroke:rgb(115,115,115);stroke-linecap:round;fill:rgb(253,141,60);" />
<text x="987.1" y="2584.9" font-size="195.0px" font-family="CMUBright-Bold" style="text-anchor:end;fill:rgb(0,0,0);" transform="rotate(-61.3,987.1,2584.9)" >12</text>
<path d="M1081.302,2369.435 A965.000,965.000 40.000 0,1 991.993,2320.460 L907.764,2456.494 A1125.000,1125.000 0.000 0,0 1011.881,2513.590 Z" style="stroke-width:2.0;stroke:rgb(115,115,115);stroke-linecap:round;fill:none;" />
<path d="M932.787,2280.701 A965.000,965.000 40.000 0,1 853.658,2216.566 L746.493,2335.375 A1125.000,1125.000 0.000 0,0 838.742,2410.144 Z" style="stroke-width:2.0;stroke:rgb(115,115,115);stroke-linecap:round;fill:rgb(253,141,60);" />
<text x="803.3" y="2477.0" font-size="195.0px" font-family="CMUBright-Bold" style="text-anchor:end;fill:rgb(0,0,0);" transform="rotate(-51.0,803.3,2477.0)" >16</text>
<path d="M932.787,2280.701 A965.000,965.000 40.000 0,1 853.658,2216.566 L746.493,2335.375 A1125.000,1125.000 0.000 0,0 838.742,2410.144 Z" style="stroke-width:2.0;stroke:rgb(115,115,115);stroke-linecap:round;fill:none;" />
<path d="M802.503,2166.875 A965.000,965.000 40.000 0,1 736.097,2089.642 L609.440,2187.406 A1125.000,1125.000 0.000 0,0 686.856,2277.445 Z" style="stroke-width:2.0;stroke:rgb(115,115,115);stroke-linecap:round;fill:rgb(253,141,60);" />
<text x="639.3" y="2336.2" font-size="195.0px" font-family="CMUBright-Bold" style="text-anchor:end;fill:rgb(0,0,0);" transform="rotate(-40.7,639.3,2336.2)" >17</text>
<path d="M802.503,2166.875 A965.000,965.000 40.000 0,1 736.097,2089.642 L609.440,2187.406 A1125.000,1125.000 0.000 0,0 686.856,2277.445 Z" style="stroke-width:2.0;stroke:rgb(115,115,115);stroke-linecap:round;fill:none;" />
<path d="M694.637,2031.616 A965.000,965.000 40.000 0,1 643.089,1943.766 L501.010,2017.344 A1125.000,1125.000 0.000 0,0 561.105,2119.759 Z" style="stroke-width:2.0;stroke:rgb(115,115,115);stroke-linecap:round;fill:rgb(253,141,60);" />
<text x="504.4" y="2169.9" font-size="195.0px" font-family="CMUBright-Bold" style="text-anchor:end;fill:rgb(0,0,0);" transform="rotate(-30.4,504.4,2169.9)" >23</text>
<path d="M694.637,2031.616 A965.000,965.000 40.000 0,1 643.089,1943.766 L501.010,2017.344 A1125.000,1125.000 0.000 0,0 561.105,2119.759 Z" style="stroke-width:2.0;stroke:rgb(115,115,115);stroke-linecap:round;fill:none;" />
<path d="M612.656,1879.269 A965.000,965.000 40.000 0,1 577.622,1783.627 L424.689,1830.653 A1125.000,1125.000 0.000 0,0 465.531,1942.153 Z" style="stroke-width:2.0;stroke:rgb(115,115,115);stroke-linecap:round;fill:rgb(253,141,60);" />
<text x="400.0" y="1979.6" font-size="195.0px" font-family="CMUBright-Bold" style="text-anchor:end;fill:rgb(0,0,0);" transform="rotate(-20.1,400.0,1979.6)" >24</text>
<path d="M612.656,1879.269 A965.000,965.000 40.000 0,1 577.622,1783.627 L424.689,1830.653 A1125.000,1125.000 0.000 0,0 465.531,1942.153 Z" style="stroke-width:2.0;stroke:rgb(115,115,115);stroke-linecap:round;fill:none;" />
<path d="M559.195,1714.733 A965.000,965.000 40.000 0,1 541.802,1614.372 L382.929,1633.336 A1125.000,1125.000 0.000 0,0 403.206,1750.336 Z" style="stroke-width:2.0;stroke:rgb(115,115,115);stroke-linecap:round;fill:rgb(253,141,60);" />
<text x="332.5" y="1777.4" font-size="195.0px" font-family="CMUBright-Bold" style="text-anchor:end;fill:rgb(0,0,0);" transform="rotate(-9.8,332.5,1777.4)" >25</text>
<path d="M559.195,1714.733 A965.000,965.000 40.000 0,1 541.802,1614.372 L382.929,1633.336 A1125.000,1125.000 0.000 0,0 403.206,1750.336 Z" style="stroke-width:2.0;stroke:rgb(115,115,115);stroke-linecap:round;fill:none;" />
<path d="M535.972,1543.295 A965.000,965.000 40.000 0,1 536.778,1441.441 L377.073,1431.732 A1125.000,1125.000 0.000 0,0 376.133,1550.473 Z" style="stroke-width:2.0;stroke:rgb(115,115,115);stroke-linecap:round;fill:rgb(253,141,60);" />
<text x="301.7" y="1563.5" font-size="195.0px" font-family="CMUBright-Bold" style="text-anchor:end;fill:rgb(0,0,0);" transform="rotate(0.5,301.7,1563.5)" >27</text>
<path d="M535.972,1543.295 A965.000,965.000 40.000 0,1 536.778,1441.441 L377.073,1431.732 A1125.000,1125.000 0.000 0,0 376.133,1550.473 Z" style="stroke-width:2.0;stroke:rgb(115,115,115);stroke-linecap:round;fill:none;" />
<path d="M543.733,1370.465 A965.000,965.000 40.000 0,1 562.714,1270.393 L407.309,1232.323 A1125.000,1125.000 0.000 0,0 385.182,1348.988 Z" style="stroke-width:2.0;stroke:rgb(115,115,115);stroke-linecap:round;fill:rgb(253,141,60);" />
<text x="309.5" y="1349.5" font-size="195.0px" font-family="CMUBright-Bold" style="text-anchor:end;fill:rgb(0,0,0);" transform="rotate(10.7,309.5,1349.5)" >29</text>
<path d="M543.733,1370.465 A965.000,965.000 40.000 0,1 562.714,1270.393 L407.309,1232.323 A1125.000,1125.000 0.000 0,0 385.182,1348.988 Z" style="stroke-width:2.0;stroke:rgb(115,115,115);stroke-linecap:round;fill:none;" />
<path d="M582.230,1201.799 A965.000,965.000 40.000 0,1 618.774,1106.724 L472.664,1041.517 A1125.000,1125.000 0.000 0,0 430.061,1152.356 Z" style="stroke-width:2.0;stroke:rgb(115,115,115);stroke-linecap:round;fill:rgb(253,141,60);" />
<text x="355.5" y="1139.3" font-size="195.0px" font-family="CMUBright-Bold" style="text-anchor:end;fill:rgb(0,0,0);" transform="rotate(21.0,355.5,1139.3)" >34</text>
<path d="M582.230,1201.799 A965.000,965.000 40.000 0,1 618.774,1106.724 L472.664,1041.517 A1125.000,1125.000 0.000 0,0 430.061,1152.356 Z" style="stroke-width:2.0;stroke:rgb(115,115,115);stroke-linecap:round;fill:none;" />
<path d="M650.225,1042.717 A965.000,965.000 40.000 0,1 703.158,955.695 L571.039,865.447 A1125.000,1125.000 0.000 0,0 509.330,966.898 Z" style="stroke-width:2.0;stroke:rgb(115,115,115);stroke-linecap:round;fill:rgb(66,146,198);" />
<text x="438.3" y="940.7" font-size="195.0px" font-family="CMUBright-Bold" style="text-anchor:end;fill:rgb(0,0,0);" transform="rotate(31.3,438.3,940.7)" >3</text>
<path d="M650.225,1042.717 A965.000,965.000 40.000 0,1 703.158,955.695 L571.039,865.447 A1125.000,1125.000 0.000 0,0 509.330,966.898 Z" style="stroke-width:2.0;stroke:rgb(115,115,115);stroke-linecap:round;fill:none;" />
<path d="M745.533,898.332 A965.000,965.000 40.000 0,1 813.153,822.160 L699.272,709.772 A1125.000,1125.000 0.000 0,0 620.440,798.574 Z" style="stroke-width:2.0;stroke:rgb(115,115,115);stroke-linecap:round;fill:rgb(66,146,198);" />
<text x="556.4" y="758.6" font-size="195.0px" font-family="CMUBright-Bold" style="text-anchor:end;fill:rgb(0,0,0);" transform="rotate(41.6,556.4,758.6)" >11</text>
<path d="M745.533,898.332 A965.000,965.000 40.000 0,1 813.153,822.160 L699.272,709.772 A1125.000,1125.000 0.000 0,0 620.440,798.574 Z" style="stroke-width:2.0;stroke:rgb(115,115,115);stroke-linecap:round;fill:none;" />
<path d="M865.089,773.286 A965.000,965.000 40.000 0,1 945.224,710.412 L853.241,579.496 A1125.000,1125.000 0.000 0,0 759.819,652.795 Z" style="stroke-width:2.0;stroke:rgb(115,115,115);stroke-linecap:round;fill:rgb(66,146,198);" />
<text x="704.0" y="602.0" font-size="195.0px" font-family="CMUBright-Bold" style="text-anchor:end;fill:rgb(0,0,0);" transform="rotate(51.9,704.0,602.0)" >14</text>
<path d="M865.089,773.286 A965.000,965.000 40.000 0,1 945.224,710.412 L853.241,579.496 A1125.000,1125.000 0.000 0,0 759.819,652.795 Z" style="stroke-width:2.0;stroke:rgb(115,115,115);stroke-linecap:round;fill:none;" />
<path d="M1005.052,671.597 A965.000,965.000 40.000 0,1 1095.126,624.042 L1027.997,478.806 A1125.000,1125.000 0.000 0,0 922.988,534.245 Z" style="stroke-width:2.0;stroke:rgb(115,115,115);stroke-linecap:round;fill:rgb(66,146,198);" />
<text x="875.4" y="475.4" font-size="195.0px" font-family="CMUBright-Bold" style="text-anchor:end;fill:rgb(0,0,0);" transform="rotate(62.2,875.4,475.4)" >15</text>
<path d="M1005.052,671.597 A965.000,965.000 40.000 0,1 1095.126,624.042 L1027.997,478.806 A1125.000,1125.000 0.000 0,0 922.988,534.245 Z" style="stroke-width:2.0;stroke:rgb(115,115,115);stroke-linecap:round;fill:none;" />
<path d="M1160.923,596.533 A965.000,965.000 40.000 0,1 1258.041,565.826 L1217.923,410.937 A1125.000,1125.000 0.000 0,0 1104.703,446.736 Z" style="stroke-width:2.0;stroke:rgb(115,115,115);stroke-linecap:round;fill:rgb(66,146,198);" />
<text x="1068.4" y="380.3" font-size="195.0px" font-family="CMUBright-Bold" style="text-anchor:end;fill:rgb(0,0,0);" transform="rotate(72.5,1068.4,380.3)" >30</text>
<path d="M1160.923,596.533 A965.000,965.000 40.000 0,1 1258.041,565.826 L1217.923,410.937 A1125.000,1125.000 0.000 0,0 1104.703,446.736 Z" style="stroke-width:2.0;stroke:rgb(115,115,115);stroke-linecap:round;fill:none;" />
<path d="M1327.693,550.508 A965.000,965.000 40.000 0,1 1428.732,537.635 L1416.916,378.072 A1125.000,1125.000 0.000 0,0 1299.123,393.079 Z" style="stroke-width:2.0;stroke:rgb(115,115,115);stroke-linecap:round;fill:rgb(66,146,198);" />
<text x="1275.3" y="321.2" font-size="195.0px" font-family="CMUBright-Bold" style="text-anchor:end;fill:rgb(0,0,0);" transform="rotate(82.7,1275.3,321.2)" >33</text>
<path d="M1327.693,550.508 A965.000,965.000 40.000 0,1 1428.732,537.635 L1416.916,378.072 A1125.000,1125.000 0.000 0,0 1299.123,393.079 Z" style="stroke-width:2.0;stroke:rgb(115,115,115);stroke-linecap:round;fill:none;" />
</g>
<g id="track_1">
<path d="M 1548.4,584.5 L 1545.9,630.0 1543.1,675.6 1540.0,721.5 1536.6,767.4 1533.0,813.5 1529.0,859.8 1524.8,906.1 1520.2,952.6 1515.2,999.1 1510.0,1045.7 1504.4,1092.3 1498.4,1139.0 1492.1,1185.7 1485.4,1232.4 1478.4,1279.1 1471.0,1325.8 1463.3,1372.5 1455.1,1419.2 1446.7,1465.8 1437.9,1512.3 1428.7,1558.8 1419.1,1605.2 1409.2,1651.4 1399.0,1697.6 1388.4,1743.7 1377.5,1789.6 1366.3,1835.4 1354.8,1881.0 1342.9,1926.4 1330.8,1971.7 1318.3,2016.8 1305.6,2061.7 1292.6,2106.4 1279.4,2150.9 1265.9,2195.1 1252.2,2239.1 1238.2,2282.9 1224.1,2326.4 1209.8,2369.6  " style="stroke-opacity: 1.000000; stroke-width: 5.0; stroke: rgb(251,106,74); fill: none"  />
<path d="M 1548.4,584.5 L 1545.8,629.0 1542.8,673.7 1539.4,718.7 1535.5,763.9 1531.1,809.3 1526.2,854.8 1520.8,900.5 1514.8,946.3 1508.3,992.1 1501.3,1038.1 1493.7,1084.0 1485.5,1130.0 1476.7,1176.0 1467.3,1221.9 1457.4,1267.8 1446.8,1313.6 1435.7,1359.3 1424.0,1404.9 1411.7,1450.4 1398.8,1495.7 1385.3,1540.8 1371.3,1585.8 1356.7,1630.5 1341.5,1675.0 1325.8,1719.2 1309.6,1763.2 1292.9,1806.9 1275.6,1850.3 1257.9,1893.4 1239.7,1936.2 1221.1,1978.6 1202.1,2020.7 1182.7,2062.3 1162.8,2103.6 1142.7,2144.5 1122.2,2185.0 1101.5,2225.1 1080.4,2264.7 1059.2,2303.8  " style="stroke-opacity: 1.000000; stroke-width: 5.0; stroke: rgb(251,106,74); fill: none"  />
<path d="M 1548.4,584.5 L 1545.8,627.1 1542.5,669.9 1538.4,713.1 1533.6,756.4 1527.9,800.0 1521.4,843.6 1514.0,887.4 1505.7,931.1 1496.4,974.8 1486.2,1018.5 1475.1,1062.0 1462.9,1105.4 1449.8,1148.6 1435.7,1191.5 1420.6,1234.2 1404.5,1276.5 1387.5,1318.5 1369.4,1360.0 1350.4,1401.2 1330.4,1441.9 1309.4,1482.1 1287.5,1521.8 1264.7,1561.0 1241.1,1599.6 1216.5,1637.6 1191.2,1675.0 1165.0,1711.8 1138.1,1747.9 1110.4,1783.3 1082.1,1818.0 1053.1,1852.1 1023.6,1885.4 993.5,1918.0 962.9,1949.8 931.9,1980.9 900.5,2011.3 868.9,2040.9 837.0,2069.7 804.9,2097.7  " style="stroke-opacity: 1.000000; stroke-width: 5.0; stroke: rgb(251,106,74); fill: none"  />
<path d="M 1548.4,584.5 L 1545.8,624.3 1542.3,664.4 1537.8,704.6 1532.1,744.8 1525.4,785.0 1517.4,825.0 1508.3,864.8 1497.9,904.2 1486.2,943.1 1473.2,981.5 1458.9,1019.4 1443.2,1056.5 1426.2,1092.9 1407.9,1128.5 1388.2,1163.2 1367.1,1197.0 1344.7,1229.9 1321.0,1261.7 1296.0,1292.4 1269.7,1322.0 1242.1,1350.5 1213.4,1377.8 1183.4,1404.0 1152.3,1428.9 1120.2,1452.6 1087.0,1475.0 1052.9,1496.2 1017.9,1516.1 982.0,1534.8 945.4,1552.3 908.1,1568.5 870.2,1583.5 831.8,1597.3 793.1,1609.9 754.0,1621.4 714.7,1631.8 675.3,1641.0 635.9,1649.3 596.7,1656.5  " style="stroke-opacity: 1.000000; stroke-width: 5.0; stroke: rgb(251,106,74); fill: none"  />
<path d="M 1548.4,584.5 L 1546.0,622.1 1542.6,659.7 1538.2,697.1 1532.8,734.3 1526.3,771.0 1518.6,807.1 1509.7,842.5 1499.6,877.0 1488.2,910.4 1475.6,942.8 1461.6,973.9 1446.4,1003.7 1429.8,1032.1 1411.9,1058.9 1392.7,1084.2 1372.2,1107.9 1350.4,1129.8 1327.3,1150.0 1303.0,1168.4 1277.5,1184.9 1250.8,1199.6 1222.9,1212.5 1194.0,1223.5 1164.1,1232.6 1133.1,1239.8 1101.3,1245.2 1068.7,1248.7 1035.2,1250.5 1001.1,1250.6 966.4,1249.0 931.2,1245.7 895.6,1240.9 859.7,1234.6 823.6,1226.9 787.4,1217.9 751.2,1207.7 715.2,1196.4 679.6,1184.2 644.3,1171.1  " style="stroke-opacity: 1.000000; stroke-width: 5.0; stroke: rgb(251,106,74); fill: none"  />
<path d="M 716.8,1023.6 L 748.2,1043.2 779.1,1063.5 809.5,1084.5 839.0,1106.2 867.5,1128.6 894.8,1151.5 920.8,1174.9 945.4,1198.9 968.3,1223.3 989.6,1248.1 1009.0,1273.3 1026.4,1298.9 1041.9,1324.7 1055.3,1350.8 1066.5,1377.0 1075.4,1403.5 1082.2,1430.0 1086.6,1456.7 1088.7,1483.4 1088.5,1510.1 1086.0,1536.7 1081.1,1563.3 1074.0,1589.8 1064.6,1616.1 1052.9,1642.2 1039.2,1668.0 1023.3,1693.6 1005.4,1718.9 985.6,1743.8 964.0,1768.2 940.7,1792.3 915.7,1815.8 889.4,1838.9 861.7,1861.4 832.8,1883.2 803.0,1904.5 772.3,1925.0 741.0,1944.9 709.3,1964.0  " style="stroke-opacity: 1.000000; stroke-width: 5.0; stroke: rgb(251,106,74); fill: none"  />
<path d="M 2011.1,738.9 L 1985.8,776.8 1960.6,815.0 1935.5,853.5 1910.6,892.2 1885.9,931.3 1861.3,970.6 1836.8,1010.3 1812.6,1050.1 1788.6,1090.3 1764.9,1130.7 1741.4,1171.4 1718.1,1212.3 1695.1,1253.4 1672.4,1294.8 1649.9,1336.4 1627.8,1378.2 1605.9,1420.1 1584.4,1462.3 1563.2,1504.7 1542.3,1547.2 1521.7,1589.8 1501.5,1632.7 1481.6,1675.6 1462.1,1718.7 1442.9,1761.8 1424.0,1805.1 1405.5,1848.4 1387.3,1891.9 1369.5,1935.3 1352.0,1978.8 1334.9,2022.4 1318.1,2065.9 1301.7,2109.4 1285.6,2152.9 1269.8,2196.4 1254.3,2239.8 1239.2,2283.2 1224.3,2326.5 1209.8,2369.6  " style="stroke-opacity: 1.000000; stroke-width: 5.0; stroke: rgb(251,106,74); fill: none"  />
<path d="M 1209.8,2369.6 L 1224.1,2326.4 1238.2,2282.9 1252.2,2239.1 1265.9,2195.1 1279.4,2150.9 1292.6,2106.4 1305.6,2061.7 1318.3,2016.8 1330.8,1971.7 1342.9,1926.4 1354.8,1881.0 1366.3,1835.4 1377.5,1789.6 1388.4,1743.7 1399.0,1697.6 1409.2,1651.4 1419.1,1605.2 1428.7,1558.8 1437.9,1512.3 1446.7,1465.8 1455.1,1419.2 1463.3,1372.5 1471.0,1325.8 1478.4,1279.1 1485.4,1232.4 1492.1,1185.7 1498.4,1139.0 1504.4,1092.3 1510.0,1045.7 1515.2,999.1 1520.2,952.6 1524.8,906.1 1529.0,859.8 1533.0,813.5 1536.6,767.4 1540.0,721.5 1543.1,675.6 1545.9,630.0 1548.4,584.5  " style="stroke-opacity: 1.000000; stroke-width: 5.0; stroke: rgb(251,106,74); fill: none"  />
<path d="M 1209.8,2369.6 L 1224.3,2326.5 1239.2,2283.2 1254.3,2239.8 1269.8,2196.4 1285.6,2152.9 1301.7,2109.4 1318.1,2065.9 1334.9,2022.4 1352.0,1978.8 1369.5,1935.3 1387.3,1891.9 1405.5,1848.4 1424.0,1805.1 1442.9,1761.8 1462.1,1718.7 1481.6,1675.6 1501.5,1632.7 1521.7,1589.8 1542.3,1547.2 1563.2,1504.7 1584.4,1462.3 1605.9,1420.1 1627.8,1378.2 1649.9,1336.4 1672.4,1294.8 1695.1,1253.4 1718.1,1212.3 1741.4,1171.4 1764.9,1130.7 1788.6,1090.3 1812.6,1050.1 1836.8,1010.3 1861.3,970.6 1885.9,931.3 1910.6,892.2 1935.5,853.5 1960.6,815.0 1985.8,776.8 2011.1,738.9  " style="stroke-opacity: 1.000000; stroke-width: 5.0; stroke: rgb(251,106,74); fill: none"  />
<path d="M 1209.8,2369.6 L 1222.1,2334.1 1235.4,2298.7 1249.6,2263.8 1264.7,2229.4 1280.7,2195.7 1297.8,2163.0 1315.7,2131.3 1334.7,2100.7 1354.5,2071.5 1375.3,2043.6 1397.1,2017.3 1419.7,1992.7 1443.2,1969.7 1467.6,1948.6 1492.8,1929.3 1518.9,1912.0 1545.8,1896.7 1573.4,1883.3 1601.7,1872.1 1630.7,1862.9 1660.4,1855.8 1690.6,1850.9 1721.4,1848.0 1752.7,1847.2 1784.4,1848.4 1816.5,1851.7 1849.0,1856.9 1881.7,1864.1 1914.5,1873.1 1947.6,1884.0 1980.6,1896.5 2013.7,1910.6 2046.6,1926.2 2079.4,1943.2 2111.9,1961.5 2144.0,1981.0 2175.7,2001.4 2206.9,2022.7 2237.4,2044.7  " style="stroke-opacity: 1.000000; stroke-width: 5.0; stroke: rgb(251,106,74); fill: none"  />
<path d="M 2245.9,967.0 L 2208.1,994.1 2170.2,1021.3 2132.4,1048.6 2094.6,1076.0 2056.7,1103.6 2018.9,1131.2 1981.1,1159.0 1943.3,1186.8 1905.6,1214.8 1867.8,1242.9 1830.2,1271.1 1792.5,1299.5 1754.9,1327.9 1717.4,1356.4 1679.9,1385.1 1642.5,1413.8 1605.1,1442.7 1567.8,1471.6 1530.6,1500.7 1493.4,1529.8 1456.3,1559.1 1419.3,1588.4 1382.4,1617.9 1345.6,1647.4 1308.8,1677.0 1272.2,1706.6 1235.6,1736.4 1199.2,1766.2 1162.8,1796.1 1126.5,1826.1 1090.4,1856.1 1054.3,1886.1 1018.3,1916.2 982.5,1946.4 946.7,1976.6 911.1,2006.8 875.6,2037.1 840.2,2067.4 804.9,2097.7  " style="stroke-opacity: 1.000000; stroke-width: 5.0; stroke: rgb(251,106,74); fill: none"  />
<path d="M 2245.9,967.0 L 2209.5,992.8 2172.7,1018.3 2135.4,1043.7 2097.6,1068.8 2059.4,1093.7 2020.8,1118.2 1981.7,1142.5 1942.2,1166.4 1902.3,1189.9 1862.0,1213.0 1821.3,1235.7 1780.2,1257.9 1738.8,1279.7 1697.1,1301.1 1655.0,1321.9 1612.6,1342.2 1569.9,1362.0 1526.9,1381.3 1483.7,1400.0 1440.3,1418.2 1396.6,1435.8 1352.7,1452.8 1308.6,1469.3 1264.4,1485.2 1220.0,1500.5 1175.5,1515.3 1130.9,1529.4 1086.2,1543.0 1041.5,1556.0 996.7,1568.5 951.9,1580.4 907.2,1591.7 862.5,1602.5 817.8,1612.8 773.3,1622.5 728.9,1631.7 684.6,1640.5 640.6,1648.7 596.7,1656.5  " style="stroke-opacity: 1.000000; stroke-width: 5.0; stroke: rgb(251,106,74); fill: none"  />
<path d="M 2245.9,967.0 L 2211.8,990.9 2176.9,1014.4 2141.3,1037.3 2104.9,1059.7 2067.8,1081.4 2030.1,1102.3 1991.8,1122.4 1952.8,1141.6 1913.3,1159.9 1873.3,1177.2 1832.7,1193.5 1791.7,1208.7 1750.2,1222.8 1708.4,1235.8 1666.2,1247.5 1623.6,1258.1 1580.8,1267.4 1537.7,1275.5 1494.4,1282.3 1450.9,1287.8 1407.2,1292.1 1363.5,1295.1 1319.7,1296.8 1275.8,1297.3 1232.0,1296.5 1188.3,1294.4 1144.6,1291.2 1101.1,1286.7 1057.7,1281.1 1014.6,1274.4 971.8,1266.6 929.3,1257.7 887.1,1247.9 845.3,1237.1 804.0,1225.4 763.2,1212.9 723.0,1199.6 683.3,1185.7 644.3,1171.1  " style="stroke-opacity: 1.000000; stroke-width: 5.0; stroke: rgb(251,106,74); fill: none"  />
<path d="M 2329.1,1108.8 L 2287.9,1128.1 2246.3,1147.3 2204.5,1166.3 2162.5,1185.1 2120.1,1203.8 2077.5,1222.2 2034.7,1240.4 1991.6,1258.3 1948.3,1276.0 1904.8,1293.5 1861.1,1310.6 1817.2,1327.5 1773.0,1344.1 1728.7,1360.4 1684.3,1376.3 1639.6,1391.9 1594.8,1407.2 1549.9,1422.2 1504.9,1436.8 1459.7,1451.1 1414.4,1465.0 1369.1,1478.6 1323.6,1491.8 1278.1,1504.7 1232.6,1517.2 1187.0,1529.4 1141.3,1541.2 1095.7,1552.6 1050.0,1563.7 1004.4,1574.5 958.8,1584.9 913.2,1595.0 867.7,1604.7 822.3,1614.1 776.9,1623.2 731.7,1632.0 686.6,1640.5 641.6,1648.6 596.7,1656.5  " style="stroke-opacity: 1.000000; stroke-width: 5.0; stroke: rgb(251,106,74); fill: none"  />
<path d="M 1059.2,2303.8 L 1078.8,2269.1 1099.3,2234.5 1120.9,2200.3 1143.4,2166.4 1166.9,2133.2 1191.4,2100.6 1216.9,2068.7 1243.4,2037.8 1270.8,2007.7 1299.2,1978.8 1328.5,1950.9 1358.7,1924.2 1389.8,1898.8 1421.8,1874.7 1454.6,1851.9 1488.3,1830.6 1522.7,1810.8 1557.9,1792.4 1593.7,1775.6 1630.3,1760.3 1667.5,1746.6 1705.3,1734.4 1743.6,1723.9 1782.4,1714.9 1821.6,1707.5 1861.2,1701.7 1901.2,1697.4 1941.4,1694.7 1981.8,1693.4 2022.4,1693.5 2063.0,1695.1 2103.6,1698.0 2144.2,1702.2 2184.6,1707.7 2224.8,1714.3 2264.7,1722.0 2304.2,1730.8 2343.3,1740.4 2381.8,1750.9  " style="stroke-opacity: 1.000000; stroke-width: 5.0; stroke: rgb(251,106,74); fill: none"  />
<path d="M 1059.2,2303.8 L 1078.4,2269.8 1098.6,2236.0 1119.7,2202.6 1141.8,2169.8 1164.9,2137.6 1188.9,2106.3 1213.9,2075.8 1239.8,2046.4 1266.7,2018.1 1294.4,1991.1 1323.0,1965.3 1352.5,1941.0 1382.8,1918.1 1413.9,1896.8 1445.7,1877.1 1478.3,1859.0 1511.7,1842.6 1545.6,1827.9 1580.3,1815.0 1615.4,1803.9 1651.2,1794.6 1687.4,1787.0 1724.1,1781.3 1761.2,1777.3 1798.6,1775.2 1836.3,1774.7 1874.2,1776.0 1912.3,1779.0 1950.6,1783.6 1988.8,1789.8 2027.0,1797.5 2065.1,1806.7 2103.1,1817.2 2140.8,1829.1 2178.1,1842.1 2215.1,1856.3 2251.6,1871.4 2287.5,1887.5 2322.8,1904.3  " style="stroke-opacity: 1.000000; stroke-width: 5.0; stroke: rgb(251,106,74); fill: none"  />
<path d="M 1059.2,2303.8 L 1077.4,2271.6 1096.3,2239.7 1115.9,2208.5 1136.3,2178.0 1157.3,2148.6 1179.0,2120.2 1201.3,2093.2 1224.1,2067.6 1247.4,2043.6 1271.3,2021.2 1295.6,2000.7 1320.3,1982.1 1345.4,1965.5 1370.9,1951.0 1396.6,1938.6 1422.6,1928.5 1448.9,1920.6 1475.3,1914.9 1501.9,1911.6 1528.5,1910.6 1555.3,1912.0 1582.1,1915.6 1608.8,1921.6 1635.5,1929.8 1662.1,1940.2 1688.5,1952.8 1714.8,1967.5 1740.8,1984.3 1766.6,2002.9 1792.0,2023.4 1817.1,2045.7 1841.7,2069.5 1865.9,2094.8 1889.6,2121.5 1912.8,2149.3 1935.3,2178.2 1957.3,2207.9 1978.5,2238.3 1999.0,2269.1  " style="stroke-opacity: 1.000000; stroke-width: 5.0; stroke: rgb(251,106,74); fill: none"  />
<path d="M 922.8,2212.2 L 948.7,2180.8 975.7,2149.7 1003.5,2119.0 1032.2,2088.8 1061.8,2059.2 1092.2,2030.3 1123.5,2002.1 1155.7,1974.8 1188.6,1948.4 1222.3,1923.1 1256.8,1898.8 1292.0,1875.6 1328.0,1853.6 1364.6,1832.8 1401.8,1813.3 1439.7,1795.2 1478.2,1778.3 1517.2,1762.9 1556.7,1748.8 1596.7,1736.2 1637.1,1724.9 1677.9,1715.2 1719.0,1706.8 1760.5,1699.9 1802.2,1694.5 1844.1,1690.4 1886.1,1687.8 1928.2,1686.5 1970.4,1686.5 2012.6,1687.9 2054.7,1690.5 2096.7,1694.4 2138.5,1699.4 2180.1,1705.6 2221.3,1712.8 2262.1,1721.0 2302.6,1730.2 2342.4,1740.1 2381.8,1750.9  " style="stroke-opacity: 1.000000; stroke-width: 5.0; stroke: rgb(251,106,74); fill: none"  />
<path d="M 922.8,2212.2 L 948.2,2181.5 974.6,2151.2 1001.9,2121.3 1030.1,2092.1 1059.2,2063.5 1089.2,2035.8 1119.9,2009.1 1151.5,1983.3 1183.8,1958.7 1216.9,1935.2 1250.7,1913.0 1285.2,1892.2 1320.4,1872.7 1356.2,1854.7 1392.5,1838.2 1429.4,1823.2 1466.8,1809.8 1504.7,1798.0 1543.0,1787.9 1581.7,1779.4 1620.8,1772.5 1660.1,1767.3 1699.7,1763.8 1739.4,1761.9 1779.4,1761.6 1819.4,1763.0 1859.5,1765.9 1899.5,1770.3 1939.5,1776.3 1979.4,1783.7 2019.1,1792.5 2058.6,1802.6 2097.7,1814.0 2136.5,1826.6 2174.9,1840.3 2212.8,1855.0 2250.1,1870.6 2286.8,1887.1 2322.8,1904.3  " style="stroke-opacity: 1.000000; stroke-width: 5.0; stroke: rgb(251,106,74); fill: none"  />
<path d="M 922.8,2212.2 L 946.8,2183.3 971.6,2154.8 997.2,2127.1 1023.4,2100.2 1050.3,2074.3 1077.7,2049.7 1105.7,2026.3 1134.1,2004.3 1163.0,1983.9 1192.3,1965.2 1221.8,1948.2 1251.7,1933.0 1281.8,1919.8 1312.0,1908.6 1342.4,1899.4 1372.9,1892.4 1403.5,1887.4 1434.0,1884.7 1464.5,1884.1 1494.9,1885.7 1525.1,1889.5 1555.2,1895.5 1585.0,1903.6 1614.6,1913.8 1643.8,1926.1 1672.8,1940.5 1701.3,1956.8 1729.4,1975.0 1757.0,1995.0 1784.1,2016.7 1810.7,2040.1 1836.7,2064.9 1862.0,2091.1 1886.7,2118.5 1910.7,2147.1 1933.9,2176.6 1956.4,2206.9 1978.1,2237.8 1999.0,2269.1  " style="stroke-opacity: 1.000000; stroke-width: 5.0; stroke: rgb(251,106,74); fill: none"  />
<path d="M 804.9,2097.7 L 837.0,2069.7 868.9,2040.9 900.5,2011.3 931.9,1980.9 962.9,1949.8 993.5,1918.0 1023.6,1885.4 1053.1,1852.1 1082.1,1818.0 1110.4,1783.3 1138.1,1747.9 1165.0,1711.8 1191.2,1675.0 1216.5,1637.6 1241.1,1599.6 1264.7,1561.0 1287.5,1521.8 1309.4,1482.1 1330.4,1441.9 1350.4,1401.2 1369.4,1360.0 1387.5,1318.5 1404.5,1276.5 1420.6,1234.2 1435.7,1191.5 1449.8,1148.6 1462.9,1105.4 1475.1,1062.0 1486.2,1018.5 1496.4,974.8 1505.7,931.1 1514.0,887.4 1521.4,843.6 1527.9,800.0 1533.6,756.4 1538.4,713.1 1542.5,669.9 1545.8,627.1 1548.4,584.5  " style="stroke-opacity: 1.000000; stroke-width: 5.0; stroke: rgb(251,106,74); fill: none"  />
<path d="M 804.9,2097.7 L 836.0,2071.4 868.1,2045.6 900.9,2020.4 934.6,1995.8 969.0,1972.0 1004.1,1948.9 1039.9,1926.8 1076.4,1905.7 1113.5,1885.6 1151.2,1866.7 1189.5,1848.9 1228.3,1832.4 1267.6,1817.2 1307.3,1803.3 1347.5,1790.8 1388.0,1779.6 1428.8,1769.9 1470.0,1761.7 1511.3,1754.9 1552.9,1749.6 1594.7,1745.8 1636.6,1743.5 1678.6,1742.6 1720.6,1743.2 1762.6,1745.3 1804.5,1748.8 1846.4,1753.7 1888.1,1759.9 1929.6,1767.5 1970.8,1776.4 2011.8,1786.5 2052.4,1797.8 2092.6,1810.3 2132.4,1823.7 2171.7,1838.2 2210.4,1853.6 2248.6,1869.8 2286.0,1886.7 2322.8,1904.3  " style="stroke-opacity: 1.000000; stroke-width: 5.0; stroke: rgb(251,106,74); fill: none"  />
<path d="M 2381.8,1750.9 L 2343.3,1740.4 2304.2,1730.8 2264.7,1722.0 2224.8,1714.3 2184.6,1707.7 2144.2,1702.2 2103.6,1698.0 2063.0,1695.1 2022.4,1693.5 1981.8,1693.4 1941.4,1694.7 1901.2,1697.4 1861.2,1701.7 1821.6,1707.5 1782.4,1714.9 1743.6,1723.9 1705.3,1734.4 1667.5,1746.6 1630.3,1760.3 1593.7,1775.6 1557.9,1792.4 1522.7,1810.8 1488.3,1830.6 1454.6,1851.9 1421.8,1874.7 1389.8,1898.8 1358.7,1924.2 1328.5,1950.9 1299.2,1978.8 1270.8,2007.7 1243.4,2037.8 1216.9,2068.7 1191.4,2100.6 1166.9,2133.2 1143.4,2166.4 1120.9,2200.3 1099.3,2234.5 1078.8,2269.1 1059.2,2303.8  " style="stroke-opacity: 1.000000; stroke-width: 5.0; stroke: rgb(251,106,74); fill: none"  />
<path d="M 2381.8,1750.9 L 2342.4,1740.1 2302.6,1730.2 2262.1,1721.0 2221.3,1712.8 2180.1,1705.6 2138.5,1699.4 2096.7,1694.4 2054.7,1690.5 2012.6,1687.9 1970.4,1686.5 1928.2,1686.5 1886.1,1687.8 1844.1,1690.4 1802.2,1694.5 1760.5,1699.9 1719.0,1706.8 1677.9,1715.2 1637.1,1724.9 1596.7,1736.2 1556.7,1748.8 1517.2,1762.9 1478.2,1778.3 1439.7,1795.2 1401.8,1813.3 1364.6,1832.8 1328.0,1853.6 1292.0,1875.6 1256.8,1898.8 1222.3,1923.1 1188.6,1948.4 1155.7,1974.8 1123.5,2002.1 1092.2,2030.3 1061.8,2059.2 1032.2,2088.8 1003.5,2119.0 975.7,2149.7 948.7,2180.8 922.8,2212.2  " style="stroke-opacity: 1.000000; stroke-width: 5.0; stroke: rgb(251,106,74); fill: none"  />
<path d="M 2381.8,1750.9 L 2341.6,1739.9 2300.8,1729.5 2259.5,1719.9 2217.8,1711.1 2175.6,1703.2 2133.0,1696.2 2090.2,1690.1 2047.0,1685.1 2003.6,1681.2 1960.1,1678.3 1916.4,1676.7 1872.7,1676.1 1828.9,1676.8 1785.1,1678.7 1741.4,1681.8 1697.8,1686.2 1654.3,1691.8 1611.0,1698.7 1568.0,1706.9 1525.1,1716.3 1482.6,1727.0 1440.4,1738.9 1398.6,1752.0 1357.1,1766.3 1316.1,1781.8 1275.6,1798.5 1235.6,1816.2 1196.1,1835.1 1157.2,1854.9 1118.8,1875.8 1081.1,1897.5 1044.1,1920.2 1007.7,1943.6 972.0,1967.9 937.0,1992.8 902.8,2018.3 869.4,2044.3 836.7,2070.8 804.9,2097.7  " style="stroke-opacity: 1.000000; stroke-width: 5.0; stroke: rgb(251,106,74); fill: none"  />
<path d="M 2381.8,1750.9 L 2337.0,1738.2 2292.1,1725.6 2247.2,1713.0 2202.2,1700.5 2157.1,1688.1 2111.9,1675.8 2066.6,1663.5 2021.2,1651.3 1975.8,1639.3 1930.3,1627.3 1884.8,1615.4 1839.2,1603.7 1793.5,1592.0 1747.8,1580.4 1702.0,1569.0 1656.2,1557.6 1610.3,1546.4 1564.4,1535.3 1518.5,1524.3 1472.6,1513.5 1426.6,1502.7 1380.6,1492.1 1334.5,1481.5 1288.5,1471.2 1242.4,1460.9 1196.4,1450.7 1150.3,1440.7 1104.3,1430.8 1058.2,1421.0 1012.2,1411.3 966.2,1401.7 920.2,1392.3 874.3,1382.9 828.3,1373.7 782.4,1364.6 736.6,1355.6 690.8,1346.7 645.0,1337.9 599.3,1329.2  " style="stroke-opacity: 1.000000; stroke-width: 5.0; stroke: rgb(251,106,74); fill: none"  />
<path d="M 2322.8,1904.3 L 2287.5,1887.5 2251.6,1871.4 2215.1,1856.3 2178.1,1842.1 2140.8,1829.1 2103.1,1817.2 2065.1,1806.7 2027.0,1797.5 1988.8,1789.8 1950.6,1783.6 1912.3,1779.0 1874.2,1776.0 1836.3,1774.7 1798.6,1775.2 1761.2,1777.3 1724.1,1781.3 1687.4,1787.0 1651.2,1794.6 1615.4,1803.9 1580.3,1815.0 1545.6,1827.9 1511.7,1842.6 1478.3,1859.0 1445.7,1877.1 1413.9,1896.8 1382.8,1918.1 1352.5,1941.0 1323.0,1965.3 1294.4,1991.1 1266.7,2018.1 1239.8,2046.4 1213.9,2075.8 1188.9,2106.3 1164.9,2137.6 1141.8,2169.8 1119.7,2202.6 1098.6,2236.0 1078.4,2269.8 1059.2,2303.8  " style="stroke-opacity: 1.000000; stroke-width: 5.0; stroke: rgb(251,106,74); fill: none"  />
<path d="M 2322.8,1904.3 L 2286.8,1887.1 2250.1,1870.6 2212.8,1855.0 2174.9,1840.3 2136.5,1826.6 2097.7,1814.0 2058.6,1802.6 2019.1,1792.5 1979.4,1783.7 1939.5,1776.3 1899.5,1770.3 1859.5,1765.9 1819.4,1763.0 1779.4,1761.6 1739.4,1761.9 1699.7,1763.8 1660.1,1767.3 1620.8,1772.5 1581.7,1779.4 1543.0,1787.9 1504.7,1798.0 1466.8,1809.8 1429.4,1823.2 1392.5,1838.2 1356.2,1854.7 1320.4,1872.7 1285.2,1892.2 1250.7,1913.0 1216.9,1935.2 1183.8,1958.7 1151.5,1983.3 1119.9,2009.1 1089.2,2035.8 1059.2,2063.5 1030.1,2092.1 1001.9,2121.3 974.6,2151.2 948.2,2181.5 922.8,2212.2  " style="stroke-opacity: 1.000000; stroke-width: 5.0; stroke: rgb(251,106,74); fill: none"  />
<path d="M 2322.8,1904.3 L 2286.0,1886.7 2248.6,1869.8 2210.4,1853.6 2171.7,1838.2 2132.4,1823.7 2092.6,1810.3 2052.4,1797.8 2011.8,1786.5 1970.8,1776.4 1929.6,1767.5 1888.1,1759.9 1846.4,1753.7 1804.5,1748.8 1762.6,1745.3 1720.6,1743.2 1678.6,1742.6 1636.6,1743.5 1594.7,1745.8 1552.9,1749.6 1511.3,1754.9 1470.0,1761.7 1428.8,1769.9 1388.0,1779.6 1347.5,1790.8 1307.3,1803.3 1267.6,1817.2 1228.3,1832.4 1189.5,1848.9 1151.2,1866.7 1113.5,1885.6 1076.4,1905.7 1039.9,1926.8 1004.1,1948.9 969.0,1972.0 934.6,1995.8 900.9,2020.4 868.1,2045.6 836.0,2071.4 804.9,2097.7  " style="stroke-opacity: 1.000000; stroke-width: 5.0; stroke: rgb(251,106,74); fill: none"  />
<path d="M 709.3,1964.0 L 741.0,1944.9 772.3,1925.0 803.0,1904.5 832.8,1883.2 861.7,1861.4 889.4,1838.9 915.7,1815.8 940.7,1792.3 964.0,1768.2 985.6,1743.8 1005.4,1718.9 1023.3,1693.6 1039.2,1668.0 1052.9,1642.2 1064.6,1616.1 1074.0,1589.8 1081.1,1563.3 1086.0,1536.7 1088.5,1510.1 1088.7,1483.4 1086.6,1456.7 1082.2,1430.0 1075.4,1403.5 1066.5,1377.0 1055.3,1350.8 1041.9,1324.7 1026.4,1298.9 1009.0,1273.3 989.6,1248.1 968.3,1223.3 945.4,1198.9 920.8,1174.9 894.8,1151.5 867.5,1128.6 839.0,1106.2 809.5,1084.5 779.1,1063.5 748.2,1043.2 716.8,1023.6  " style="stroke-opacity: 1.000000; stroke-width: 5.0; stroke: rgb(251,106,74); fill: none"  />
<path d="M 596.7,1656.5 L 635.9,1649.3 675.3,1641.0 714.7,1631.8 754.0,1621.4 793.1,1609.9 831.8,1597.3 870.2,1583.5 908.1,1568.5 945.4,1552.3 982.0,1534.8 1017.9,1516.1 1052.9,1496.2 1087.0,1475.0 1120.2,1452.6 1152.3,1428.9 1183.4,1404.0 1213.4,1377.8 1242.1,1350.5 1269.7,1322.0 1296.0,1292.4 1321.0,1261.7 1344.7,1229.9 1367.1,1197.0 1388.2,1163.2 1407.9,1128.5 1426.2,1092.9 1443.2,1056.5 1458.9,1019.4 1473.2,981.5 1486.2,943.1 1497.9,904.2 1508.3,864.8 1517.4,825.0 1525.4,785.0 1532.1,744.8 1537.8,704.6 1542.3,664.4 1545.8,624.3 1548.4,584.5  " style="stroke-opacity: 1.000000; stroke-width: 5.0; stroke: rgb(251,106,74); fill: none"  />
<path d="M 596.7,1656.5 L 640.6,1648.7 684.6,1640.5 728.9,1631.7 773.3,1622.5 817.8,1612.8 862.5,1602.5 907.2,1591.7 951.9,1580.4 996.7,1568.5 1041.5,1556.0 1086.2,1543.0 1130.9,1529.4 1175.5,1515.3 1220.0,1500.5 1264.4,1485.2 1308.6,1469.3 1352.7,1452.8 1396.6,1435.8 1440.3,1418.2 1483.7,1400.0 1526.9,1381.3 1569.9,1362.0 1612.6,1342.2 1655.0,1321.9 1697.1,1301.1 1738.8,1279.7 1780.2,1257.9 1821.3,1235.7 1862.0,1213.0 1902.3,1189.9 1942.2,1166.4 1981.7,1142.5 2020.8,1118.2 2059.4,1093.7 2097.6,1068.8 2135.4,1043.7 2172.7,1018.3 2209.5,992.8 2245.9,967.0  " style="stroke-opacity: 1.000000; stroke-width: 5.0; stroke: rgb(251,106,74); fill: none"  />
<path d="M 596.7,1656.5 L 641.6,1648.6 686.6,1640.5 731.7,1632.0 776.9,1623.2 822.3,1614.1 867.7,1604.7 913.2,1595.0 958.8,1584.9 1004.4,1574.5 1050.0,1563.7 1095.7,1552.6 1141.3,1541.2 1187.0,1529.4 1232.6,1517.2 1278.1,1504.7 1323.6,1491.8 1369.1,1478.6 1414.4,1465.0 1459.7,1451.1 1504.9,1436.8 1549.9,1422.2 1594.8,1407.2 1639.6,1391.9 1684.3,1376.3 1728.7,1360.4 1773.0,1344.1 1817.2,1327.5 1861.1,1310.6 1904.8,1293.5 1948.3,1276.0 1991.6,1258.3 2034.7,1240.4 2077.5,1222.2 2120.1,1203.8 2162.5,1185.1 2204.5,1166.3 2246.3,1147.3 2287.9,1128.1 2329.1,1108.8  " style="stroke-opacity: 1.000000; stroke-width: 5.0; stroke: rgb(251,106,74); fill: none"  />
<path d="M 1999.0,2269.1 L 1978.5,2238.3 1957.3,2207.9 1935.3,2178.2 1912.8,2149.3 1889.6,2121.5 1865.9,2094.8 1841.7,2069.5 1817.1,2045.7 1792.0,2023.4 1766.6,2002.9 1740.8,1984.3 1714.8,1967.5 1688.5,1952.8 1662.1,1940.2 1635.5,1929.8 1608.8,1921.6 1582.1,1915.6 1555.3,1912.0 1528.5,1910.6 1501.9,1911.6 1475.3,1914.9 1448.9,1920.6 1422.6,1928.5 1396.6,1938.6 1370.9,1951.0 1345.4,1965.5 1320.3,1982.1 1295.6,2000.7 1271.3,2021.2 1247.4,2043.6 1224.1,2067.6 1201.3,2093.2 1179.0,2120.2 1157.3,2148.6 1136.3,2178.0 1115.9,2208.5 1096.3,2239.7 1077.4,2271.6 1059.2,2303.8  " style="stroke-opacity: 1.000000; stroke-width: 5.0; stroke: rgb(251,106,74); fill: none"  />
<path d="M 1999.0,2269.1 L 1976.0,2234.3 1952.1,2199.7 1927.3,2165.3 1901.7,2131.2 1875.1,2097.5 1847.7,2064.2 1819.3,2031.5 1790.1,1999.3 1760.1,1967.8 1729.2,1937.0 1697.4,1907.0 1664.8,1877.8 1631.4,1849.6 1597.2,1822.2 1562.2,1795.8 1526.5,1770.4 1490.0,1746.0 1452.9,1722.7 1415.0,1700.5 1376.6,1679.4 1337.6,1659.5 1297.9,1640.7 1257.8,1623.0 1217.2,1606.6 1176.1,1591.3 1134.6,1577.1 1092.8,1564.2 1050.7,1552.4 1008.3,1541.7 965.7,1532.2 923.0,1523.8 880.2,1516.5 837.3,1510.2 794.5,1504.9 751.8,1500.7 709.3,1497.4 667.0,1495.0 624.9,1493.5 583.3,1492.7  " style="stroke-opacity: 1.000000; stroke-width: 5.0; stroke: rgb(251,106,74); fill: none"  />
<path d="M 644.3,1171.1 L 679.6,1184.2 715.2,1196.4 751.2,1207.7 787.4,1217.9 823.6,1226.9 859.7,1234.6 895.6,1240.9 931.2,1245.7 966.4,1249.0 1001.1,1250.6 1035.2,1250.5 1068.7,1248.7 1101.3,1245.2 1133.1,1239.8 1164.1,1232.6 1194.0,1223.5 1222.9,1212.5 1250.8,1199.6 1277.5,1184.9 1303.0,1168.4 1327.3,1150.0 1350.4,1129.8 1372.2,1107.9 1392.7,1084.2 1411.9,1058.9 1429.8,1032.1 1446.4,1003.7 1461.6,973.9 1475.6,942.8 1488.2,910.4 1499.6,877.0 1509.7,842.5 1518.6,807.1 1526.3,771.0 1532.8,734.3 1538.2,697.1 1542.6,659.7 1546.0,622.1 1548.4,584.5  " style="stroke-opacity: 1.000000; stroke-width: 5.0; stroke: rgb(251,106,74); fill: none"  />
<path d="M 644.3,1171.1 L 683.3,1185.7 723.0,1199.6 763.2,1212.9 804.0,1225.4 845.3,1237.1 887.1,1247.9 929.3,1257.7 971.8,1266.6 1014.6,1274.4 1057.7,1281.1 1101.1,1286.7 1144.6,1291.2 1188.3,1294.4 1232.0,1296.5 1275.8,1297.3 1319.7,1296.8 1363.5,1295.1 1407.2,1292.1 1450.9,1287.8 1494.4,1282.3 1537.7,1275.5 1580.8,1267.4 1623.6,1258.1 1666.2,1247.5 1708.4,1235.8 1750.2,1222.8 1791.7,1208.7 1832.7,1193.5 1873.3,1177.2 1913.3,1159.9 1952.8,1141.6 1991.8,1122.4 2030.1,1102.3 2067.8,1081.4 2104.9,1059.7 2141.3,1037.3 2176.9,1014.4 2211.8,990.9 2245.9,967.0  " style="stroke-opacity: 1.000000; stroke-width: 5.0; stroke: rgb(251,106,74); fill: none"  />
<path d="M 644.3,1171.1 L 685.9,1186.9 728.0,1202.4 770.5,1217.6 813.3,1232.4 856.6,1246.9 900.1,1261.0 944.1,1274.7 988.3,1287.9 1032.8,1300.6 1077.6,1312.9 1122.7,1324.7 1168.0,1335.9 1213.6,1346.7 1259.4,1356.8 1305.3,1366.4 1351.4,1375.5 1397.7,1383.9 1444.1,1391.8 1490.7,1399.1 1537.3,1405.8 1584.0,1411.9 1630.8,1417.4 1677.6,1422.3 1724.4,1426.6 1771.2,1430.3 1818.0,1433.4 1864.7,1435.9 1911.4,1437.9 1957.9,1439.3 2004.4,1440.1 2050.7,1440.4 2096.9,1440.1 2142.9,1439.4 2188.6,1438.1 2234.2,1436.4 2279.5,1434.2 2324.5,1431.6 2369.3,1428.5 2413.7,1425.1  " style="stroke-opacity: 1.000000; stroke-width: 5.0; stroke: rgb(251,106,74); fill: none"  />
</g>
<g id="track_0">
<path d="M 1548.4,584.5 L 1546.6,619.7 1545.0,654.7 1543.6,689.2 1542.5,722.9 1541.7,755.7 1541.1,787.2 1540.9,817.4 1540.9,846.0 1541.3,872.9 1542.1,898.0 1543.3,920.9 1544.8,941.8 1546.7,960.3 1549.0,976.5 1551.8,990.2 1554.9,1001.4 1558.4,1010.1 1562.3,1016.1 1566.6,1019.4 1571.3,1020.1 1576.3,1018.1 1581.8,1013.4 1587.6,1006.1 1593.7,996.3 1600.2,983.8 1607.0,969.0 1614.0,951.7 1621.3,932.1 1628.9,910.4 1636.7,886.6 1644.7,860.9 1652.8,833.5 1661.0,804.4 1669.4,774.0 1677.8,742.3 1686.2,709.6 1694.6,676.2 1702.9,642.2 1711.1,607.9  " style="stroke-opacity: 1.000000; stroke-width: 5.0; stroke: rgb(107,174,214); fill: none"  />
<path d="M 1548.4,584.5 L 1546.8,621.0 1546.0,657.4 1546.1,693.6 1547.1,729.3 1549.0,764.5 1552.0,798.9 1556.1,832.3 1561.2,864.7 1567.6,895.7 1575.1,925.4 1583.8,953.7 1593.8,980.2 1605.0,1005.1 1617.5,1028.2 1631.3,1049.4 1646.3,1068.6 1662.5,1085.8 1680.0,1101.0 1698.7,1114.0 1718.6,1124.9 1739.7,1133.7 1761.9,1140.3 1785.1,1144.8 1809.4,1147.1 1834.6,1147.3 1860.8,1145.4 1887.8,1141.5 1915.6,1135.6 1944.1,1127.8 1973.2,1118.2 2002.8,1106.8 2032.8,1093.8 2063.2,1079.2 2093.8,1063.3 2124.5,1046.0 2155.2,1027.6 2185.7,1008.2 2216.0,987.9 2245.9,967.0  " style="stroke-opacity: 1.000000; stroke-width: 5.0; stroke: rgb(107,174,214); fill: none"  />
<path d="M 1548.4,584.5 L 1546.8,621.5 1546.2,658.5 1546.4,695.4 1547.7,732.0 1550.1,768.2 1553.6,803.7 1558.3,838.4 1564.2,872.2 1571.4,904.9 1579.9,936.4 1589.8,966.7 1601.0,995.5 1613.6,1022.8 1627.6,1048.6 1643.0,1072.6 1659.8,1095.0 1677.9,1115.5 1697.4,1134.2 1718.3,1151.0 1740.4,1165.9 1763.9,1178.8 1788.6,1189.8 1814.4,1198.8 1841.5,1205.9 1869.6,1211.0 1898.7,1214.3 1928.8,1215.6 1959.7,1215.1 1991.4,1212.7 2023.8,1208.7 2056.8,1203.0 2090.4,1195.7 2124.3,1186.9 2158.5,1176.7 2192.8,1165.2 2227.2,1152.6 2261.4,1138.8 2295.5,1124.2 2329.1,1108.8  " style="stroke-opacity: 1.000000; stroke-width: 5.0; stroke: rgb(107,174,214); fill: none"  />
<path d="M 1548.4,584.5 L 1546.5,627.1 1545.2,670.1 1544.7,713.4 1545.0,757.0 1546.0,800.9 1547.9,845.0 1550.7,889.3 1554.3,933.7 1558.9,978.2 1564.5,1022.6 1571.0,1067.1 1578.5,1111.5 1586.9,1155.8 1596.4,1200.0 1607.0,1244.0 1618.5,1287.8 1631.1,1331.3 1644.6,1374.6 1659.2,1417.5 1674.8,1460.1 1691.4,1502.3 1709.0,1544.1 1727.5,1585.5 1747.0,1626.3 1767.4,1666.7 1788.7,1706.6 1810.8,1745.9 1833.8,1784.6 1857.5,1822.8 1882.1,1860.3 1907.3,1897.2 1933.1,1933.5 1959.6,1969.1 1986.7,2003.9 2014.2,2038.1 2042.2,2071.6 2070.6,2104.4 2099.3,2136.4 2128.3,2167.6  " style="stroke-opacity: 1.000000; stroke-width: 5.0; stroke: rgb(107,174,214); fill: none"  />
<path d="M 1548.4,584.5 L 1546.4,628.0 1544.9,671.9 1544.0,716.2 1543.7,760.7 1544.0,805.5 1545.1,850.5 1546.8,895.8 1549.2,941.2 1552.4,986.7 1556.3,1032.3 1561.0,1078.0 1566.5,1123.7 1572.8,1169.3 1579.9,1215.0 1587.8,1260.6 1596.6,1306.1 1606.1,1351.5 1616.5,1396.8 1627.7,1441.8 1639.7,1486.7 1652.5,1531.3 1666.1,1575.7 1680.5,1619.8 1695.6,1663.6 1711.5,1707.0 1728.2,1750.1 1745.5,1792.9 1763.6,1835.2 1782.3,1877.1 1801.7,1918.6 1821.6,1959.6 1842.2,2000.2 1863.3,2040.2 1884.9,2079.8 1906.9,2118.8 1929.4,2157.2 1952.3,2195.1 1975.5,2232.4 1999.0,2269.1  " style="stroke-opacity: 1.000000; stroke-width: 5.0; stroke: rgb(107,174,214); fill: none"  />
<path d="M 1711.1,607.9 L 1702.9,642.2 1694.6,676.2 1686.2,709.6 1677.8,742.3 1669.4,774.0 1661.0,804.4 1652.8,833.5 1644.7,860.9 1636.7,886.6 1628.9,910.4 1621.3,932.1 1614.0,951.7 1607.0,969.0 1600.2,983.8 1593.7,996.3 1587.6,1006.1 1581.8,1013.4 1576.3,1018.1 1571.3,1020.1 1566.6,1019.4 1562.3,1016.1 1558.4,1010.1 1554.9,1001.4 1551.8,990.2 1549.0,976.5 1546.7,960.3 1544.8,941.8 1543.3,920.9 1542.1,898.0 1541.3,872.9 1540.9,846.0 1540.9,817.4 1541.1,787.2 1541.7,755.7 1542.5,722.9 1543.6,689.2 1545.0,654.7 1546.6,619.7 1548.4,584.5  " style="stroke-opacity: 1.000000; stroke-width: 5.0; stroke: rgb(107,174,214); fill: none"  />
<path d="M 1711.1,607.9 L 1703.1,643.0 1695.7,678.2 1689.2,713.1 1683.5,747.7 1678.7,781.7 1675.0,815.0 1672.4,847.4 1671.0,878.7 1670.8,908.7 1671.8,937.5 1674.3,964.8 1678.1,990.5 1683.3,1014.5 1689.9,1036.7 1698.0,1057.1 1707.5,1075.6 1718.5,1092.1 1730.9,1106.5 1744.8,1118.9 1760.1,1129.2 1776.8,1137.4 1794.9,1143.4 1814.4,1147.3 1835.1,1149.2 1857.0,1148.9 1880.1,1146.6 1904.3,1142.4 1929.5,1136.2 1955.7,1128.1 1982.7,1118.2 2010.5,1106.6 2038.9,1093.5 2067.8,1078.8 2097.2,1062.8 2126.9,1045.5 2156.8,1027.1 2186.7,1007.8 2216.4,987.7 2245.9,967.0  " style="stroke-opacity: 1.000000; stroke-width: 5.0; stroke: rgb(107,174,214); fill: none"  />
<path d="M 1711.1,607.9 L 1703.0,643.4 1695.8,679.1 1689.3,714.8 1683.9,750.1 1679.6,785.1 1676.3,819.4 1674.4,853.1 1673.7,885.8 1674.4,917.5 1676.5,948.1 1680.0,977.4 1685.1,1005.4 1691.7,1031.8 1699.9,1056.8 1709.6,1080.1 1720.9,1101.7 1733.9,1121.5 1748.4,1139.5 1764.4,1155.7 1782.1,1170.0 1801.2,1182.4 1821.9,1192.8 1844.0,1201.4 1867.4,1208.0 1892.2,1212.7 1918.3,1215.5 1945.6,1216.5 1974.0,1215.7 2003.4,1213.1 2033.8,1208.8 2064.9,1202.9 2096.8,1195.5 2129.3,1186.6 2162.3,1176.3 2195.5,1164.8 2229.0,1152.2 2262.5,1138.5 2296.0,1124.0 2329.1,1108.8  " style="stroke-opacity: 1.000000; stroke-width: 5.0; stroke: rgb(107,174,214); fill: none"  />
<path d="M 1711.1,607.9 L 1701.9,648.5 1693.3,689.7 1685.6,731.4 1678.7,773.5 1672.6,816.0 1667.6,858.8 1663.5,901.9 1660.4,945.2 1658.4,988.7 1657.5,1032.4 1657.8,1076.1 1659.2,1119.8 1661.9,1163.5 1665.7,1207.1 1670.8,1250.7 1677.1,1294.0 1684.7,1337.2 1693.6,1380.2 1703.6,1422.8 1715.0,1465.2 1727.5,1507.2 1741.3,1548.8 1756.3,1590.0 1772.5,1630.8 1789.8,1671.0 1808.3,1710.8 1827.8,1750.0 1848.4,1788.6 1870.0,1826.6 1892.5,1863.9 1915.9,1900.6 1940.2,1936.6 1965.3,1971.9 1991.1,2006.5 2017.5,2040.3 2044.5,2073.3 2072.1,2105.6 2100.0,2137.0 2128.3,2167.6  " style="stroke-opacity: 1.000000; stroke-width: 5.0; stroke: rgb(107,174,214); fill: none"  />
<path d="M 1867.0,659.9 L 1852.6,692.3 1838.1,724.3 1823.4,755.8 1808.6,786.4 1793.8,816.0 1779.0,844.4 1764.4,871.3 1749.9,896.7 1735.6,920.3 1721.6,942.0 1708.0,961.7 1694.7,979.3 1681.8,994.6 1669.3,1007.6 1657.3,1018.2 1645.9,1026.3 1634.9,1031.9 1624.6,1034.9 1614.8,1035.3 1605.6,1033.1 1597.1,1028.4 1589.1,1021.0 1581.9,1011.2 1575.2,998.8 1569.3,984.0 1564.0,966.8 1559.3,947.3 1555.3,925.6 1551.9,901.9 1549.1,876.2 1546.9,848.7 1545.4,819.5 1544.3,788.8 1543.9,756.9 1543.9,723.8 1544.4,689.8 1545.3,655.1 1546.7,619.9 1548.4,584.5  " style="stroke-opacity: 1.000000; stroke-width: 5.0; stroke: rgb(107,174,214); fill: none"  />
<path d="M 1867.0,659.9 L 1852.8,692.2 1838.5,724.2 1824.3,755.6 1810.2,786.2 1796.3,815.9 1782.6,844.4 1769.3,871.5 1756.4,897.0 1744.0,920.9 1732.1,942.9 1720.8,962.9 1710.1,980.9 1700.1,996.6 1690.7,1010.0 1682.2,1021.1 1674.4,1029.7 1667.4,1035.9 1661.2,1039.5 1655.8,1040.5 1651.3,1039.0 1647.7,1035.0 1644.9,1028.4 1643.0,1019.3 1641.9,1007.7 1641.7,993.7 1642.3,977.3 1643.8,958.7 1646.0,938.0 1649.0,915.2 1652.6,890.4 1657.0,863.9 1662.1,835.7 1667.7,806.0 1673.9,775.1 1680.6,743.0 1687.7,710.0 1695.2,676.3 1703.0,642.2 1711.1,607.9  " style="stroke-opacity: 1.000000; stroke-width: 5.0; stroke: rgb(107,174,214); fill: none"  />
<path d="M 1867.0,659.9 L 1852.9,692.4 1839.3,724.9 1826.3,757.0 1813.8,788.7 1802.2,819.7 1791.4,849.8 1781.6,878.8 1772.8,906.7 1765.2,933.2 1758.7,958.2 1753.6,981.7 1749.7,1003.4 1747.2,1023.2 1746.2,1041.2 1746.6,1057.2 1748.4,1071.1 1751.7,1082.9 1756.6,1092.6 1762.9,1100.0 1770.7,1105.3 1780.0,1108.3 1790.8,1109.1 1803.0,1107.8 1816.6,1104.2 1831.5,1098.5 1847.7,1090.7 1865.2,1080.9 1883.8,1069.1 1903.6,1055.5 1924.3,1040.1 1946.0,1023.0 1968.4,1004.3 1991.6,984.2 2015.4,962.8 2039.7,940.3 2064.3,916.9 2089.1,892.6 2114.0,867.7 2138.8,842.4  " style="stroke-opacity: 1.000000; stroke-width: 5.0; stroke: rgb(107,174,214); fill: none"  />
<path d="M 1867.0,659.9 L 1852.8,693.0 1839.3,726.3 1826.6,759.5 1814.9,792.6 1804.1,825.2 1794.5,857.2 1786.2,888.6 1779.2,919.2 1773.6,948.7 1769.5,977.2 1767.0,1004.5 1766.2,1030.4 1767.0,1055.0 1769.6,1078.1 1773.9,1099.6 1779.9,1119.4 1787.8,1137.6 1797.5,1154.1 1808.9,1168.7 1822.2,1181.6 1837.1,1192.6 1853.9,1201.8 1872.3,1209.1 1892.3,1214.6 1913.9,1218.3 1937.1,1220.2 1961.6,1220.3 1987.6,1218.7 2014.7,1215.4 2043.1,1210.5 2072.5,1204.1 2102.8,1196.2 2133.9,1187.0 2165.7,1176.4 2198.0,1164.7 2230.7,1152.0 2263.5,1138.3 2296.4,1123.9 2329.1,1108.8  " style="stroke-opacity: 1.000000; stroke-width: 5.0; stroke: rgb(107,174,214); fill: none"  />
<path d="M 1867.0,659.9 L 1850.7,698.2 1834.9,737.2 1819.9,776.9 1805.5,817.1 1792.0,857.8 1779.4,899.0 1767.6,940.7 1756.9,982.8 1747.1,1025.2 1738.5,1068.0 1731.0,1111.0 1724.6,1154.3 1719.4,1197.8 1715.4,1241.4 1712.6,1285.2 1711.1,1329.0 1710.8,1372.8 1711.8,1416.6 1714.1,1460.4 1717.7,1504.1 1722.6,1547.7 1728.7,1591.1 1736.1,1634.4 1744.8,1677.3 1754.6,1720.0 1765.7,1762.4 1777.9,1804.5 1791.2,1846.1 1805.7,1887.4 1821.2,1928.2 1837.7,1968.4 1855.2,2008.2 1873.5,2047.4 1892.8,2086.0 1912.7,2124.0 1933.4,2161.4 1954.7,2198.0 1976.6,2233.9 1999.0,2269.1  " style="stroke-opacity: 1.000000; stroke-width: 5.0; stroke: rgb(107,174,214); fill: none"  />
<path d="M 1209.8,2369.6 L 1220.9,2335.3 1231.4,2301.0 1241.0,2266.8 1249.8,2232.8 1257.6,2199.4 1264.3,2166.6 1269.8,2134.6 1274.0,2103.5 1276.9,2073.6 1278.4,2044.9 1278.5,2017.5 1277.0,1991.5 1274.0,1967.1 1269.4,1944.4 1263.1,1923.4 1255.3,1904.1 1245.8,1886.7 1234.7,1871.2 1222.0,1857.6 1207.7,1846.0 1191.8,1836.4 1174.3,1828.7 1155.3,1823.1 1134.8,1819.4 1113.0,1817.7 1089.8,1817.9 1065.3,1820.0 1039.6,1823.9 1012.8,1829.6 985.0,1837.0 956.3,1846.0 926.8,1856.6 896.7,1868.6 866.0,1881.9 834.9,1896.5 803.5,1912.1 772.0,1928.6 740.5,1946.0 709.3,1964.0  " style="stroke-opacity: 1.000000; stroke-width: 5.0; stroke: rgb(107,174,214); fill: none"  />
<path d="M 1209.8,2369.6 L 1221.0,2334.9 1231.5,2300.0 1241.0,2265.1 1249.6,2230.4 1257.1,2195.9 1263.4,2162.0 1268.3,2128.7 1272.0,2096.2 1274.1,2064.5 1274.8,2033.9 1273.8,2004.4 1271.3,1976.1 1267.1,1949.1 1261.2,1923.5 1253.6,1899.5 1244.2,1876.9 1233.1,1856.0 1220.3,1836.8 1205.8,1819.2 1189.5,1803.4 1171.5,1789.3 1151.9,1777.1 1130.7,1766.6 1107.9,1757.9 1083.6,1751.0 1057.9,1745.8 1030.8,1742.4 1002.4,1740.7 972.9,1740.6 942.3,1742.2 910.7,1745.3 878.3,1749.8 845.1,1755.8 811.4,1763.0 777.2,1771.5 742.7,1781.1 708.1,1791.7 673.5,1803.1 639.2,1815.3  " style="stroke-opacity: 1.000000; stroke-width: 5.0; stroke: rgb(107,174,214); fill: none"  />
<path d="M 1209.8,2369.6 L 1221.7,2332.4 1232.8,2294.7 1242.9,2256.5 1252.0,2217.9 1259.9,2179.1 1266.6,2140.2 1271.9,2101.2 1275.9,2062.2 1278.4,2023.3 1279.4,1984.5 1278.9,1946.1 1276.7,1907.9 1272.9,1870.1 1267.4,1832.8 1260.2,1796.0 1251.3,1759.8 1240.7,1724.3 1228.4,1689.4 1214.3,1655.2 1198.6,1621.8 1181.2,1589.2 1162.1,1557.5 1141.3,1526.7 1119.1,1496.8 1095.2,1467.9 1069.9,1440.0 1043.2,1413.0 1015.1,1387.1 985.8,1362.2 955.2,1338.3 923.6,1315.5 891.0,1293.8 857.4,1273.1 823.1,1253.5 788.2,1235.0 752.7,1217.5 716.8,1201.0 680.6,1185.5 644.3,1171.1  " style="stroke-opacity: 1.000000; stroke-width: 5.0; stroke: rgb(107,174,214); fill: none"  />
<path d="M 2138.8,842.4 L 2114.2,867.9 2090.1,893.5 2066.5,919.0 2043.8,944.3 2022.0,969.2 2001.3,993.6 1981.9,1017.4 1963.9,1040.4 1947.4,1062.5 1932.6,1083.7 1919.5,1103.8 1908.3,1122.8 1899.0,1140.5 1891.7,1157.0 1886.4,1172.1 1883.3,1185.7 1882.3,1198.0 1883.4,1208.7 1886.7,1217.9 1892.2,1225.6 1899.8,1231.7 1909.6,1236.2 1921.5,1239.2 1935.5,1240.7 1951.5,1240.6 1969.4,1239.0 1989.2,1236.0 2010.8,1231.5 2034.0,1225.6 2058.9,1218.5 2085.1,1210.1 2112.7,1200.5 2141.5,1189.8 2171.3,1178.2 2201.9,1165.6 2233.2,1152.3 2264.9,1138.3 2297.0,1123.8 2329.1,1108.8  " style="stroke-opacity: 1.000000; stroke-width: 5.0; stroke: rgb(107,174,214); fill: none"  />
<path d="M 2138.8,842.4 L 2113.6,868.8 2089.1,895.7 2065.3,923.0 2042.5,950.6 2020.8,978.4 2000.4,1006.2 1981.5,1034.1 1964.1,1061.8 1948.4,1089.4 1934.6,1116.7 1922.6,1143.7 1912.6,1170.3 1904.7,1196.4 1898.9,1222.0 1895.3,1247.0 1894.0,1271.4 1894.9,1295.0 1898.1,1317.9 1903.6,1340.1 1911.4,1361.4 1921.5,1381.8 1933.9,1401.4 1948.4,1420.1 1965.2,1437.8 1984.1,1454.5 2005.0,1470.3 2027.9,1485.2 2052.7,1499.0 2079.3,1511.9 2107.6,1523.8 2137.3,1534.7 2168.5,1544.7 2201.0,1553.7 2234.5,1561.8 2269.0,1569.0 2304.2,1575.3 2340.0,1580.8 2376.1,1585.5 2412.4,1589.4  " style="stroke-opacity: 1.000000; stroke-width: 5.0; stroke: rgb(107,174,214); fill: none"  />
<path d="M 2245.9,967.0 L 2216.0,987.9 2185.7,1008.2 2155.2,1027.6 2124.5,1046.0 2093.8,1063.3 2063.2,1079.2 2032.8,1093.8 2002.8,1106.8 1973.2,1118.2 1944.1,1127.8 1915.6,1135.6 1887.8,1141.5 1860.8,1145.4 1834.6,1147.3 1809.4,1147.1 1785.1,1144.8 1761.9,1140.3 1739.7,1133.7 1718.6,1124.9 1698.7,1114.0 1680.0,1101.0 1662.5,1085.8 1646.3,1068.6 1631.3,1049.4 1617.5,1028.2 1605.0,1005.1 1593.8,980.2 1583.8,953.7 1575.1,925.4 1567.6,895.7 1561.2,864.7 1556.1,832.3 1552.0,798.9 1549.0,764.5 1547.1,729.3 1546.1,693.6 1546.0,657.4 1546.8,621.0 1548.4,584.5  " style="stroke-opacity: 1.000000; stroke-width: 5.0; stroke: rgb(107,174,214); fill: none"  />
<path d="M 2245.9,967.0 L 2217.3,987.6 2188.9,1008.2 2161.1,1028.6 2134.1,1048.7 2107.9,1068.5 2082.9,1087.7 2059.1,1106.4 2036.8,1124.3 2016.0,1141.4 1997.0,1157.6 1979.7,1172.8 1964.4,1187.0 1951.1,1200.0 1939.9,1211.9 1930.8,1222.6 1924.0,1232.1 1919.4,1240.2 1917.2,1247.0 1917.3,1252.4 1919.7,1256.5 1924.4,1259.2 1931.4,1260.6 1940.7,1260.6 1952.3,1259.2 1966.0,1256.5 1981.9,1252.5 1999.8,1247.3 2019.6,1240.8 2041.3,1233.2 2064.8,1224.4 2089.8,1214.7 2116.4,1203.9 2144.2,1192.2 2173.2,1179.8 2203.2,1166.6 2234.0,1152.8 2265.4,1138.5 2297.2,1123.8 2329.1,1108.8  " style="stroke-opacity: 1.000000; stroke-width: 5.0; stroke: rgb(107,174,214); fill: none"  />
<path d="M 2329.1,1108.8 L 2296.0,1124.0 2262.5,1138.5 2229.0,1152.2 2195.5,1164.8 2162.3,1176.3 2129.3,1186.6 2096.8,1195.5 2064.9,1202.9 2033.8,1208.8 2003.4,1213.1 1974.0,1215.7 1945.6,1216.5 1918.3,1215.5 1892.2,1212.7 1867.4,1208.0 1844.0,1201.4 1821.9,1192.8 1801.2,1182.4 1782.1,1170.0 1764.4,1155.7 1748.4,1139.5 1733.9,1121.5 1720.9,1101.7 1709.6,1080.1 1699.9,1056.8 1691.7,1031.8 1685.1,1005.4 1680.0,977.4 1676.5,948.1 1674.4,917.5 1673.7,885.8 1674.4,853.1 1676.3,819.4 1679.6,785.1 1683.9,750.1 1689.3,714.8 1695.8,679.1 1703.0,643.4 1711.1,607.9  " style="stroke-opacity: 1.000000; stroke-width: 5.0; stroke: rgb(107,174,214); fill: none"  />
<path d="M 2329.1,1108.8 L 2296.4,1123.9 2263.5,1138.3 2230.7,1152.0 2198.0,1164.7 2165.7,1176.4 2133.9,1187.0 2102.8,1196.2 2072.5,1204.1 2043.1,1210.5 2014.7,1215.4 1987.6,1218.7 1961.6,1220.3 1937.1,1220.2 1913.9,1218.3 1892.3,1214.6 1872.3,1209.1 1853.9,1201.8 1837.1,1192.6 1822.2,1181.6 1808.9,1168.7 1797.5,1154.1 1787.8,1137.6 1779.9,1119.4 1773.9,1099.6 1769.6,1078.1 1767.0,1055.0 1766.2,1030.4 1767.0,1004.5 1769.5,977.2 1773.6,948.7 1779.2,919.2 1786.2,888.6 1794.5,857.2 1804.1,825.2 1814.9,792.6 1826.6,759.5 1839.3,726.3 1852.8,693.0 1867.0,659.9  " style="stroke-opacity: 1.000000; stroke-width: 5.0; stroke: rgb(107,174,214); fill: none"  />
<path d="M 2329.1,1108.8 L 2297.0,1123.8 2264.9,1138.3 2233.2,1152.3 2201.9,1165.6 2171.3,1178.2 2141.5,1189.8 2112.7,1200.5 2085.1,1210.1 2058.9,1218.5 2034.0,1225.6 2010.8,1231.5 1989.2,1236.0 1969.4,1239.0 1951.5,1240.6 1935.5,1240.7 1921.5,1239.2 1909.6,1236.2 1899.8,1231.7 1892.2,1225.6 1886.7,1217.9 1883.4,1208.7 1882.3,1198.0 1883.3,1185.7 1886.4,1172.1 1891.7,1157.0 1899.0,1140.5 1908.3,1122.8 1919.5,1103.8 1932.6,1083.7 1947.4,1062.5 1963.9,1040.4 1981.9,1017.4 2001.3,993.6 2022.0,969.2 2043.8,944.3 2066.5,919.0 2090.1,893.5 2114.2,867.9 2138.8,842.4  " style="stroke-opacity: 1.000000; stroke-width: 5.0; stroke: rgb(107,174,214); fill: none"  />
<path d="M 2329.1,1108.8 L 2296.9,1124.2 2265.2,1140.0 2234.0,1156.2 2203.7,1172.6 2174.4,1189.1 2146.4,1205.9 2119.8,1222.6 2094.8,1239.5 2071.6,1256.3 2050.2,1273.0 2030.9,1289.6 2013.7,1306.0 1998.7,1322.2 1986.0,1338.2 1975.8,1353.9 1968.0,1369.3 1962.7,1384.3 1959.9,1399.0 1959.7,1413.2 1962.1,1427.0 1967.1,1440.4 1974.6,1453.2 1984.7,1465.6 1997.2,1477.5 2012.1,1488.8 2029.4,1499.6 2049.0,1509.8 2070.7,1519.5 2094.5,1528.6 2120.3,1537.2 2147.8,1545.2 2177.0,1552.6 2207.7,1559.5 2239.7,1565.8 2272.8,1571.5 2306.9,1576.8 2341.7,1581.5 2376.9,1585.7 2412.4,1589.4  " style="stroke-opacity: 1.000000; stroke-width: 5.0; stroke: rgb(107,174,214); fill: none"  />
<path d="M 2329.1,1108.8 L 2294.0,1125.9 2259.0,1144.0 2224.4,1163.0 2190.3,1183.1 2156.8,1204.2 2124.0,1226.3 2092.1,1249.4 2061.2,1273.5 2031.3,1298.5 2002.7,1324.6 1975.2,1351.6 1949.1,1379.5 1924.5,1408.4 1901.3,1438.1 1879.7,1468.7 1859.6,1500.2 1841.3,1532.4 1824.6,1565.5 1809.6,1599.2 1796.3,1633.7 1784.8,1668.8 1775.1,1704.5 1767.2,1740.8 1761.0,1777.5 1756.5,1814.7 1753.8,1852.4 1752.8,1890.3 1753.5,1928.5 1755.8,1966.9 1759.6,2005.5 1765.0,2044.1 1771.8,2082.7 1780.1,2121.2 1789.6,2159.6 1800.4,2197.7 1812.2,2235.4 1825.1,2272.8 1839.0,2309.6 1853.6,2345.8  " style="stroke-opacity: 1.000000; stroke-width: 5.0; stroke: rgb(107,174,214); fill: none"  />
<path d="M 1059.2,2303.8 L 1076.1,2272.9 1092.7,2242.0 1108.9,2211.6 1124.5,2181.7 1139.5,2152.6 1153.7,2124.4 1167.0,2097.3 1179.4,2071.4 1190.7,2047.0 1200.8,2024.1 1209.8,2002.9 1217.4,1983.5 1223.7,1966.0 1228.7,1950.4 1232.2,1936.8 1234.3,1925.4 1234.8,1916.1 1233.9,1909.0 1231.5,1904.1 1227.6,1901.5 1222.1,1901.1 1215.2,1902.9 1206.8,1906.9 1197.0,1913.2 1185.8,1921.6 1173.2,1932.0 1159.4,1944.5 1144.3,1959.0 1128.0,1975.3 1110.7,1993.3 1092.4,2013.0 1073.2,2034.2 1053.1,2056.8 1032.4,2080.6 1011.1,2105.5 989.3,2131.3 967.3,2157.8 945.0,2184.9 922.8,2212.2  " style="stroke-opacity: 1.000000; stroke-width: 5.0; stroke: rgb(107,174,214); fill: none"  />
<path d="M 1059.2,2303.8 L 1076.1,2272.7 1092.6,2241.6 1108.5,2210.7 1123.7,2180.3 1138.1,2150.5 1151.5,2121.5 1163.9,2093.4 1175.1,2066.5 1185.1,2040.7 1193.7,2016.4 1201.0,1993.5 1206.8,1972.3 1211.0,1952.7 1213.7,1934.9 1214.7,1918.9 1214.1,1904.9 1211.9,1892.8 1207.9,1882.8 1202.3,1874.8 1195.0,1868.9 1186.0,1865.0 1175.3,1863.2 1163.1,1863.5 1149.2,1865.8 1133.8,1870.2 1117.0,1876.5 1098.7,1884.7 1079.1,1894.7 1058.2,1906.5 1036.2,1920.0 1013.1,1935.1 989.0,1951.7 964.1,1969.6 938.5,1988.8 912.4,2009.0 885.7,2030.2 858.8,2052.2 831.8,2074.7 804.9,2097.7  " style="stroke-opacity: 1.000000; stroke-width: 5.0; stroke: rgb(107,174,214); fill: none"  />
<path d="M 1059.2,2303.8 L 1077.2,2270.0 1094.5,2235.6 1110.8,2200.6 1126.1,2165.2 1140.3,2129.5 1153.2,2093.5 1164.7,2057.4 1174.8,2021.2 1183.3,1985.0 1190.3,1948.9 1195.5,1912.9 1199.0,1877.1 1200.7,1841.7 1200.5,1806.6 1198.5,1771.9 1194.6,1737.7 1188.7,1704.0 1180.9,1670.9 1171.2,1638.5 1159.6,1606.7 1146.0,1575.6 1130.6,1545.3 1113.3,1515.9 1094.2,1487.2 1073.3,1459.4 1050.8,1432.5 1026.6,1406.5 1000.8,1381.5 973.6,1357.4 945.0,1334.3 915.1,1312.2 884.0,1291.0 851.8,1270.9 818.8,1251.8 784.9,1233.7 750.3,1216.5 715.3,1200.4 679.9,1185.3 644.3,1171.1  " style="stroke-opacity: 1.000000; stroke-width: 5.0; stroke: rgb(107,174,214); fill: none"  />
<path d="M 2385.6,1263.1 L 2351.5,1272.1 2317.6,1280.9 2284.2,1289.4 2251.5,1297.5 2219.6,1305.1 2188.8,1312.2 2159.3,1318.7 2131.3,1324.6 2104.9,1329.7 2080.3,1334.1 2057.6,1337.8 2036.9,1340.6 2018.3,1342.5 2002.0,1343.6 1988.0,1343.8 1976.4,1343.1 1967.2,1341.5 1960.5,1338.9 1956.4,1335.4 1954.8,1330.9 1955.7,1325.5 1959.1,1319.2 1965.0,1312.1 1973.4,1304.0 1984.2,1295.1 1997.4,1285.4 2012.8,1274.9 2030.4,1263.7 2050.1,1251.8 2071.8,1239.3 2095.3,1226.2 2120.4,1212.5 2147.1,1198.4 2175.2,1184.0 2204.5,1169.2 2234.7,1154.2 2265.7,1139.1 2297.2,1123.9 2329.1,1108.8  " style="stroke-opacity: 1.000000; stroke-width: 5.0; stroke: rgb(107,174,214); fill: none"  />
<path d="M 2385.6,1263.1 L 2349.4,1273.3 2313.3,1284.3 2277.6,1296.4 2242.3,1309.4 2207.8,1323.4 2174.0,1338.4 2141.3,1354.4 2109.6,1371.4 2079.2,1389.5 2050.2,1408.5 2022.6,1428.6 1996.6,1449.7 1972.3,1471.8 1949.7,1494.9 1929.0,1518.9 1910.1,1543.9 1893.2,1569.7 1878.2,1596.5 1865.2,1624.1 1854.3,1652.5 1845.5,1681.7 1838.6,1711.5 1833.9,1742.1 1831.2,1773.3 1830.5,1805.0 1831.8,1837.3 1835.1,1870.0 1840.3,1903.0 1847.3,1936.4 1856.1,1970.0 1866.6,2003.8 1878.7,2037.6 1892.3,2071.5 1907.3,2105.2 1923.6,2138.8 1941.0,2172.0 1959.5,2204.9 1978.9,2237.3 1999.0,2269.1  " style="stroke-opacity: 1.000000; stroke-width: 5.0; stroke: rgb(107,174,214); fill: none"  />
<path d="M 922.8,2212.2 L 945.0,2184.9 967.3,2157.8 989.3,2131.3 1011.1,2105.5 1032.4,2080.6 1053.1,2056.8 1073.2,2034.2 1092.4,2013.0 1110.7,1993.3 1128.0,1975.3 1144.3,1959.0 1159.4,1944.5 1173.2,1932.0 1185.8,1921.6 1197.0,1913.2 1206.8,1906.9 1215.2,1902.9 1222.1,1901.1 1227.6,1901.5 1231.5,1904.1 1233.9,1909.0 1234.8,1916.1 1234.3,1925.4 1232.2,1936.8 1228.7,1950.4 1223.7,1966.0 1217.4,1983.5 1209.8,2002.9 1200.8,2024.1 1190.7,2047.0 1179.4,2071.4 1167.0,2097.3 1153.7,2124.4 1139.5,2152.6 1124.5,2181.7 1108.9,2211.6 1092.7,2242.0 1076.1,2272.9 1059.2,2303.8  " style="stroke-opacity: 1.000000; stroke-width: 5.0; stroke: rgb(107,174,214); fill: none"  />
<path d="M 922.8,2212.2 L 944.9,2184.7 966.7,2157.4 988.1,2130.3 1008.8,2103.7 1028.8,2077.7 1047.8,2052.5 1065.7,2028.2 1082.5,2005.0 1098.0,1983.0 1112.0,1962.3 1124.6,1943.0 1135.6,1925.3 1145.0,1909.1 1152.6,1894.7 1158.5,1882.0 1162.6,1871.1 1164.8,1862.0 1165.2,1854.9 1163.6,1849.7 1160.3,1846.4 1155.0,1845.0 1147.8,1845.6 1138.9,1848.1 1128.1,1852.4 1115.6,1858.7 1101.3,1866.7 1085.5,1876.6 1068.1,1888.1 1049.2,1901.2 1028.9,1915.9 1007.3,1932.0 984.6,1949.4 960.9,1968.1 936.2,1987.8 910.8,2008.5 884.8,2030.0 858.4,2052.1 831.7,2074.8 804.9,2097.7  " style="stroke-opacity: 1.000000; stroke-width: 5.0; stroke: rgb(107,174,214); fill: none"  />
<path d="M 922.8,2212.2 L 946.1,2182.7 968.8,2152.5 990.6,2121.8 1011.5,2090.6 1031.2,2058.9 1049.7,2026.9 1066.8,1994.7 1082.4,1962.4 1096.4,1929.9 1108.6,1897.4 1119.1,1864.9 1127.8,1832.6 1134.5,1800.4 1139.2,1768.5 1141.8,1736.8 1142.4,1705.6 1140.9,1674.7 1137.3,1644.2 1131.6,1614.3 1123.7,1584.9 1113.8,1556.1 1101.7,1527.9 1087.6,1500.4 1071.4,1473.6 1053.3,1447.5 1033.3,1422.2 1011.4,1397.7 987.8,1373.9 962.5,1351.1 935.6,1329.0 907.3,1307.9 877.6,1287.6 846.8,1268.2 814.8,1249.8 781.9,1232.2 748.2,1215.5 713.9,1199.8 679.2,1185.0 644.3,1171.1  " style="stroke-opacity: 1.000000; stroke-width: 5.0; stroke: rgb(107,174,214); fill: none"  />
<path d="M 804.9,2097.7 L 832.1,2074.6 859.5,2052.0 886.9,2030.2 914.2,2009.2 941.3,1989.2 967.9,1970.4 994.1,1953.0 1019.7,1937.0 1044.5,1922.6 1068.4,1909.9 1091.5,1899.0 1113.5,1890.0 1134.4,1882.9 1154.2,1877.9 1172.7,1874.9 1189.9,1874.1 1205.8,1875.4 1220.3,1878.8 1233.4,1884.5 1245.0,1892.3 1255.2,1902.2 1263.9,1914.4 1271.1,1928.6 1276.8,1944.8 1281.1,1963.1 1283.9,1983.3 1285.2,2005.3 1285.2,2029.1 1283.9,2054.6 1281.2,2081.6 1277.2,2110.0 1272.1,2139.7 1265.9,2170.5 1258.6,2202.3 1250.4,2234.9 1241.3,2268.1 1231.4,2301.8 1220.9,2335.7 1209.8,2369.6  " style="stroke-opacity: 1.000000; stroke-width: 5.0; stroke: rgb(107,174,214); fill: none"  />
<path d="M 804.9,2097.7 L 831.8,2074.7 858.8,2052.2 885.7,2030.2 912.4,2009.0 938.5,1988.8 964.1,1969.6 989.0,1951.7 1013.1,1935.1 1036.2,1920.0 1058.2,1906.5 1079.1,1894.7 1098.7,1884.7 1117.0,1876.5 1133.8,1870.2 1149.2,1865.8 1163.1,1863.5 1175.3,1863.2 1186.0,1865.0 1195.0,1868.9 1202.3,1874.8 1207.9,1882.8 1211.9,1892.8 1214.1,1904.9 1214.7,1918.9 1213.7,1934.9 1211.0,1952.7 1206.8,1972.3 1201.0,1993.5 1193.7,2016.4 1185.1,2040.7 1175.1,2066.5 1163.9,2093.4 1151.5,2121.5 1138.1,2150.5 1123.7,2180.3 1108.5,2210.7 1092.6,2241.6 1076.1,2272.7 1059.2,2303.8  " style="stroke-opacity: 1.000000; stroke-width: 5.0; stroke: rgb(107,174,214); fill: none"  />
<path d="M 804.9,2097.7 L 831.7,2074.8 858.4,2052.1 884.8,2030.0 910.8,2008.5 936.2,1987.8 960.9,1968.1 984.6,1949.4 1007.3,1932.0 1028.9,1915.9 1049.2,1901.2 1068.1,1888.1 1085.5,1876.6 1101.3,1866.7 1115.6,1858.7 1128.1,1852.4 1138.9,1848.1 1147.8,1845.6 1155.0,1845.0 1160.3,1846.4 1163.6,1849.7 1165.2,1854.9 1164.8,1862.0 1162.6,1871.1 1158.5,1882.0 1152.6,1894.7 1145.0,1909.1 1135.6,1925.3 1124.6,1943.0 1112.0,1962.3 1098.0,1983.0 1082.5,2005.0 1065.7,2028.2 1047.8,2052.5 1028.8,2077.7 1008.8,2103.7 988.1,2130.3 966.7,2157.4 944.9,2184.7 922.8,2212.2  " style="stroke-opacity: 1.000000; stroke-width: 5.0; stroke: rgb(107,174,214); fill: none"  />
<path d="M 804.9,2097.7 L 831.8,2074.2 858.2,2050.5 883.9,2026.7 908.8,2002.8 932.6,1979.1 955.1,1955.5 976.3,1932.3 995.9,1909.4 1013.9,1887.0 1030.0,1865.2 1044.2,1844.1 1056.5,1823.7 1066.6,1804.0 1074.5,1785.3 1080.2,1767.4 1083.7,1750.5 1084.8,1734.6 1083.5,1719.7 1079.9,1706.0 1073.9,1693.3 1065.6,1681.7 1054.9,1671.3 1042.0,1662.1 1026.7,1654.0 1009.3,1647.0 989.8,1641.2 968.2,1636.6 944.6,1633.0 919.3,1630.6 892.2,1629.2 863.5,1628.8 833.4,1629.4 802.0,1631.0 769.4,1633.4 736.0,1636.6 701.8,1640.7 667.0,1645.4 631.9,1650.7 596.7,1656.5  " style="stroke-opacity: 1.000000; stroke-width: 5.0; stroke: rgb(107,174,214); fill: none"  />
<path d="M 804.9,2097.7 L 832.7,2073.2 859.9,2048.1 886.4,2022.4 912.0,1996.2 936.4,1969.5 959.7,1942.5 981.5,1915.1 1001.8,1887.5 1020.5,1859.6 1037.4,1831.7 1052.5,1803.7 1065.5,1775.6 1076.6,1747.6 1085.5,1719.7 1092.3,1692.0 1096.8,1664.4 1099.1,1637.1 1099.2,1610.1 1096.9,1583.4 1092.3,1557.1 1085.5,1531.2 1076.4,1505.8 1065.0,1480.8 1051.5,1456.4 1035.8,1432.6 1017.9,1409.3 998.1,1386.7 976.4,1364.7 952.8,1343.3 927.5,1322.7 900.5,1302.8 872.1,1283.6 842.3,1265.1 811.3,1247.5 779.3,1230.6 746.4,1214.5 712.8,1199.2 678.7,1184.7 644.3,1171.1  " style="stroke-opacity: 1.000000; stroke-width: 5.0; stroke: rgb(107,174,214); fill: none"  />
<path d="M 2413.7,1425.1 L 2378.1,1427.7 2342.7,1429.9 2307.6,1431.5 2273.2,1432.4 2239.6,1432.6 2207.0,1432.1 2175.5,1430.9 2145.5,1428.8 2116.9,1425.8 2090.1,1422.0 2065.0,1417.3 2041.9,1411.7 2020.8,1405.1 2001.9,1397.5 1985.2,1389.1 1970.7,1379.6 1958.6,1369.2 1948.9,1357.9 1941.7,1345.7 1936.9,1332.5 1934.5,1318.5 1934.6,1303.6 1937.1,1287.8 1942.0,1271.3 1949.3,1254.0 1958.9,1236.0 1970.8,1217.4 1984.8,1198.2 2000.8,1178.4 2018.9,1158.1 2038.8,1137.4 2060.3,1116.4 2083.5,1095.2 2108.1,1073.7 2133.9,1052.2 2160.8,1030.6 2188.6,1009.2 2217.0,988.0 2245.9,967.0  " style="stroke-opacity: 1.000000; stroke-width: 5.0; stroke: rgb(107,174,214); fill: none"  />
<path d="M 2412.4,1589.4 L 2375.0,1585.3 2337.6,1580.2 2300.4,1574.2 2263.5,1567.1 2227.1,1558.9 2191.4,1549.6 2156.4,1539.2 2122.4,1527.5 2089.5,1514.7 2057.7,1500.6 2027.3,1485.2 1998.2,1468.7 1970.6,1450.8 1944.6,1431.8 1920.2,1411.4 1897.5,1389.9 1876.5,1367.1 1857.4,1343.2 1840.1,1318.1 1824.7,1291.8 1811.2,1264.5 1799.7,1236.1 1790.0,1206.7 1782.2,1176.4 1776.4,1145.2 1772.5,1113.2 1770.4,1080.4 1770.1,1046.9 1771.5,1012.8 1774.7,978.2 1779.6,943.2 1786.0,907.8 1793.9,872.2 1803.2,836.5 1813.8,800.8 1825.6,765.1 1838.5,729.7 1852.3,694.5 1867.0,659.9  " style="stroke-opacity: 1.000000; stroke-width: 5.0; stroke: rgb(107,174,214); fill: none"  />
<path d="M 2412.4,1589.4 L 2376.1,1585.5 2340.0,1580.8 2304.2,1575.3 2269.0,1569.0 2234.5,1561.8 2201.0,1553.7 2168.5,1544.7 2137.3,1534.7 2107.6,1523.8 2079.3,1511.9 2052.7,1499.0 2027.9,1485.2 2005.0,1470.3 1984.1,1454.5 1965.2,1437.8 1948.4,1420.1 1933.9,1401.4 1921.5,1381.8 1911.4,1361.4 1903.6,1340.1 1898.1,1317.9 1894.9,1295.0 1894.0,1271.4 1895.3,1247.0 1898.9,1222.0 1904.7,1196.4 1912.6,1170.3 1922.6,1143.7 1934.6,1116.7 1948.4,1089.4 1964.1,1061.8 1981.5,1034.1 2000.4,1006.2 2020.8,978.4 2042.5,950.6 2065.3,923.0 2089.1,895.7 2113.6,868.8 2138.8,842.4  " style="stroke-opacity: 1.000000; stroke-width: 5.0; stroke: rgb(107,174,214); fill: none"  />
<path d="M 2412.4,1589.4 L 2376.9,1585.7 2341.7,1581.5 2306.9,1576.8 2272.8,1571.5 2239.7,1565.8 2207.7,1559.5 2177.0,1552.6 2147.8,1545.2 2120.3,1537.2 2094.5,1528.6 2070.7,1519.5 2049.0,1509.8 2029.4,1499.6 2012.1,1488.8 1997.2,1477.5 1984.7,1465.6 1974.6,1453.2 1967.1,1440.4 1962.1,1427.0 1959.7,1413.2 1959.9,1399.0 1962.7,1384.3 1968.0,1369.3 1975.8,1353.9 1986.0,1338.2 1998.7,1322.2 2013.7,1306.0 2030.9,1289.6 2050.2,1273.0 2071.6,1256.3 2094.8,1239.5 2119.8,1222.6 2146.4,1205.9 2174.4,1189.1 2203.7,1172.6 2234.0,1156.2 2265.2,1140.0 2296.9,1124.2 2329.1,1108.8  " style="stroke-opacity: 1.000000; stroke-width: 5.0; stroke: rgb(107,174,214); fill: none"  />
<path d="M 2381.8,1750.9 L 2347.8,1741.3 2314.1,1732.0 2280.8,1723.0 2248.1,1714.4 2216.4,1706.3 2185.8,1698.7 2156.4,1691.7 2128.4,1685.4 2102.1,1679.8 2077.6,1675.0 2054.9,1671.0 2034.3,1667.9 2015.8,1665.6 1999.5,1664.3 1985.5,1663.9 1973.8,1664.4 1964.7,1665.9 1957.9,1668.4 1953.7,1671.9 1952.0,1676.3 1952.8,1681.7 1956.2,1688.0 1962.0,1695.3 1970.3,1703.5 1980.9,1712.5 1993.9,1722.4 2009.2,1733.2 2026.6,1744.7 2046.1,1756.9 2067.6,1769.8 2090.9,1783.2 2115.8,1797.3 2142.3,1811.8 2170.1,1826.7 2199.1,1841.9 2229.1,1857.4 2259.9,1873.0 2291.2,1888.7 2322.8,1904.3  " style="stroke-opacity: 1.000000; stroke-width: 5.0; stroke: rgb(107,174,214); fill: none"  />
<path d="M 2322.8,1904.3 L 2291.2,1888.7 2259.9,1873.0 2229.1,1857.4 2199.1,1841.9 2170.1,1826.7 2142.3,1811.8 2115.8,1797.3 2090.9,1783.2 2067.6,1769.8 2046.1,1756.9 2026.6,1744.7 2009.2,1733.2 1993.9,1722.4 1980.9,1712.5 1970.3,1703.5 1962.0,1695.3 1956.2,1688.0 1952.8,1681.7 1952.0,1676.3 1953.7,1671.9 1957.9,1668.4 1964.7,1665.9 1973.8,1664.4 1985.5,1663.9 1999.5,1664.3 2015.8,1665.6 2034.3,1667.9 2054.9,1671.0 2077.6,1675.0 2102.1,1679.8 2128.4,1685.4 2156.4,1691.7 2185.8,1698.7 2216.4,1706.3 2248.1,1714.4 2280.8,1723.0 2314.1,1732.0 2347.8,1741.3 2381.8,1750.9  " style="stroke-opacity: 1.000000; stroke-width: 5.0; stroke: rgb(107,174,214); fill: none"  />
<path d="M 709.3,1964.0 L 740.5,1946.0 772.0,1928.6 803.5,1912.1 834.9,1896.5 866.0,1881.9 896.7,1868.6 926.8,1856.6 956.3,1846.0 985.0,1837.0 1012.8,1829.6 1039.6,1823.9 1065.3,1820.0 1089.8,1817.9 1113.0,1817.7 1134.8,1819.4 1155.3,1823.1 1174.3,1828.7 1191.8,1836.4 1207.7,1846.0 1222.0,1857.6 1234.7,1871.2 1245.8,1886.7 1255.3,1904.1 1263.1,1923.4 1269.4,1944.4 1274.0,1967.1 1277.0,1991.5 1278.5,2017.5 1278.4,2044.9 1276.9,2073.6 1274.0,2103.5 1269.8,2134.6 1264.3,2166.6 1257.6,2199.4 1249.8,2232.8 1241.0,2266.8 1231.4,2301.0 1220.9,2335.3 1209.8,2369.6  " style="stroke-opacity: 1.000000; stroke-width: 5.0; stroke: rgb(107,174,214); fill: none"  />
<path d="M 709.3,1964.0 L 739.7,1946.0 769.8,1928.1 799.3,1910.2 828.0,1892.6 855.8,1875.3 882.5,1858.4 907.8,1841.9 931.7,1826.1 953.9,1810.9 974.3,1796.5 992.9,1782.9 1009.4,1770.1 1023.9,1758.3 1036.1,1747.5 1046.1,1737.6 1053.7,1728.9 1059.0,1721.2 1061.8,1714.6 1062.2,1709.2 1060.2,1704.9 1055.8,1701.8 1048.9,1699.8 1039.6,1699.0 1028.0,1699.3 1014.0,1700.7 997.9,1703.3 979.6,1706.9 959.2,1711.6 936.9,1717.2 912.8,1723.8 887.0,1731.3 859.6,1739.7 830.8,1748.8 800.8,1758.6 769.7,1769.0 737.8,1780.0 705.3,1791.5 672.3,1803.3 639.2,1815.3  " style="stroke-opacity: 1.000000; stroke-width: 5.0; stroke: rgb(107,174,214); fill: none"  />
<path d="M 639.2,1815.3 L 672.3,1803.3 705.3,1791.5 737.8,1780.0 769.7,1769.0 800.8,1758.6 830.8,1748.8 859.6,1739.7 887.0,1731.3 912.8,1723.8 936.9,1717.2 959.2,1711.6 979.6,1706.9 997.9,1703.3 1014.0,1700.7 1028.0,1699.3 1039.6,1699.0 1048.9,1699.8 1055.8,1701.8 1060.2,1704.9 1062.2,1709.2 1061.8,1714.6 1059.0,1721.2 1053.7,1728.9 1046.1,1737.6 1036.1,1747.5 1023.9,1758.3 1009.4,1770.1 992.9,1782.9 974.3,1796.5 953.9,1810.9 931.7,1826.1 907.8,1841.9 882.5,1858.4 855.8,1875.3 828.0,1892.6 799.3,1910.2 769.8,1928.1 739.7,1946.0 709.3,1964.0  " style="stroke-opacity: 1.000000; stroke-width: 5.0; stroke: rgb(107,174,214); fill: none"  />
<path d="M 596.7,1656.5 L 633.2,1650.6 669.9,1645.6 706.6,1641.5 743.1,1638.4 779.3,1636.5 814.9,1635.7 850.0,1636.3 884.2,1638.2 917.6,1641.4 949.9,1646.2 981.1,1652.4 1011.0,1660.1 1039.7,1669.4 1066.9,1680.2 1092.6,1692.6 1116.8,1706.6 1139.3,1722.2 1160.2,1739.4 1179.3,1758.1 1196.7,1778.3 1212.4,1800.1 1226.2,1823.3 1238.2,1847.9 1248.5,1873.9 1256.9,1901.2 1263.5,1929.7 1268.4,1959.4 1271.6,1990.2 1273.0,2022.0 1272.8,2054.7 1271.1,2088.1 1267.8,2122.3 1263.1,2157.0 1257.0,2192.1 1249.7,2227.6 1241.2,2263.2 1231.6,2298.9 1221.1,2334.4 1209.8,2369.6  " style="stroke-opacity: 1.000000; stroke-width: 5.0; stroke: rgb(107,174,214); fill: none"  />
<path d="M 596.7,1656.5 L 632.7,1650.7 668.8,1645.6 704.7,1641.4 740.4,1638.1 775.5,1635.8 810.0,1634.7 843.7,1634.8 876.4,1636.1 908.0,1638.7 938.4,1642.7 967.4,1648.0 995.0,1654.7 1021.1,1662.9 1045.5,1672.6 1068.1,1683.7 1089.0,1696.4 1108.0,1710.5 1125.1,1726.0 1140.3,1743.1 1153.5,1761.5 1164.7,1781.4 1173.9,1802.6 1181.0,1825.2 1186.2,1849.0 1189.4,1874.1 1190.7,1900.3 1190.0,1927.6 1187.4,1955.9 1183.1,1985.1 1177.0,2015.1 1169.2,2045.9 1159.8,2077.2 1149.0,2109.1 1136.7,2141.4 1123.2,2173.9 1108.6,2206.6 1092.9,2239.2 1076.4,2271.7 1059.2,2303.8  " style="stroke-opacity: 1.000000; stroke-width: 5.0; stroke: rgb(107,174,214); fill: none"  />
<path d="M 596.7,1656.5 L 631.8,1650.2 666.7,1643.4 701.0,1636.2 734.6,1628.4 767.2,1620.2 798.6,1611.6 828.7,1602.5 857.3,1592.9 884.2,1582.9 909.2,1572.5 932.3,1561.6 953.2,1550.4 972.0,1538.7 988.4,1526.7 1002.5,1514.3 1014.1,1501.5 1023.2,1488.4 1029.8,1475.0 1033.7,1461.4 1035.1,1447.4 1033.9,1433.2 1030.0,1418.8 1023.7,1404.2 1014.7,1389.4 1003.4,1374.5 989.5,1359.5 973.4,1344.5 955.0,1329.4 934.5,1314.2 912.0,1299.1 887.5,1284.1 861.4,1269.2 833.6,1254.4 804.4,1239.8 774.0,1225.4 742.6,1211.3 710.3,1197.5 677.5,1184.1 644.3,1171.1  " style="stroke-opacity: 1.000000; stroke-width: 5.0; stroke: rgb(107,174,214); fill: none"  />
<path d="M 2128.3,2167.6 L 2102.8,2139.9 2078.0,2111.5 2053.9,2082.5 2030.8,2052.9 2008.8,2022.8 1988.0,1992.3 1968.6,1961.4 1950.6,1930.3 1934.3,1898.9 1919.6,1867.4 1906.8,1835.8 1895.8,1804.2 1886.7,1772.6 1879.7,1741.1 1874.7,1709.7 1871.8,1678.6 1871.0,1647.7 1872.3,1617.0 1875.8,1586.8 1881.5,1556.9 1889.3,1527.4 1899.3,1498.4 1911.3,1469.9 1925.5,1442.0 1941.6,1414.7 1959.7,1387.9 1979.7,1361.9 2001.5,1336.5 2025.0,1311.8 2050.2,1287.8 2076.9,1264.6 2105.0,1242.2 2134.3,1220.6 2164.9,1199.8 2196.4,1179.9 2228.7,1160.8 2261.7,1142.6 2295.3,1125.2 2329.1,1108.8  " style="stroke-opacity: 1.000000; stroke-width: 5.0; stroke: rgb(107,174,214); fill: none"  />
<path d="M 1999.0,2269.1 L 1975.5,2232.4 1952.3,2195.1 1929.4,2157.2 1906.9,2118.8 1884.9,2079.8 1863.3,2040.2 1842.2,2000.2 1821.6,1959.6 1801.7,1918.6 1782.3,1877.1 1763.6,1835.2 1745.5,1792.9 1728.2,1750.1 1711.5,1707.0 1695.6,1663.6 1680.5,1619.8 1666.1,1575.7 1652.5,1531.3 1639.7,1486.7 1627.7,1441.8 1616.5,1396.8 1606.1,1351.5 1596.6,1306.1 1587.8,1260.6 1579.9,1215.0 1572.8,1169.3 1566.5,1123.7 1561.0,1078.0 1556.3,1032.3 1552.4,986.7 1549.2,941.2 1546.8,895.8 1545.1,850.5 1544.0,805.5 1543.7,760.7 1544.0,716.2 1544.9,671.9 1546.4,628.0 1548.4,584.5  " style="stroke-opacity: 1.000000; stroke-width: 5.0; stroke: rgb(107,174,214); fill: none"  />
<path d="M 1999.0,2269.1 L 1976.6,2233.9 1954.7,2198.0 1933.4,2161.4 1912.7,2124.0 1892.8,2086.0 1873.5,2047.4 1855.2,2008.2 1837.7,1968.4 1821.2,1928.2 1805.7,1887.4 1791.2,1846.1 1777.9,1804.5 1765.7,1762.4 1754.6,1720.0 1744.8,1677.3 1736.1,1634.4 1728.7,1591.1 1722.6,1547.7 1717.7,1504.1 1714.1,1460.4 1711.8,1416.6 1710.8,1372.8 1711.1,1329.0 1712.6,1285.2 1715.4,1241.4 1719.4,1197.8 1724.6,1154.3 1731.0,1111.0 1738.5,1068.0 1747.1,1025.2 1756.9,982.8 1767.6,940.7 1779.4,899.0 1792.0,857.8 1805.5,817.1 1819.9,776.9 1834.9,737.2 1850.7,698.2 1867.0,659.9  " style="stroke-opacity: 1.000000; stroke-width: 5.0; stroke: rgb(107,174,214); fill: none"  />
<path d="M 1999.0,2269.1 L 1978.9,2237.3 1959.5,2204.9 1941.0,2172.0 1923.6,2138.8 1907.3,2105.2 1892.3,2071.5 1878.7,2037.6 1866.6,2003.8 1856.1,1970.0 1847.3,1936.4 1840.3,1903.0 1835.1,1870.0 1831.8,1837.3 1830.5,1805.0 1831.2,1773.3 1833.9,1742.1 1838.6,1711.5 1845.5,1681.7 1854.3,1652.5 1865.2,1624.1 1878.2,1596.5 1893.2,1569.7 1910.1,1543.9 1929.0,1518.9 1949.7,1494.9 1972.3,1471.8 1996.6,1449.7 2022.6,1428.6 2050.2,1408.5 2079.2,1389.5 2109.6,1371.4 2141.3,1354.4 2174.0,1338.4 2207.8,1323.4 2242.3,1309.4 2277.6,1296.4 2313.3,1284.3 2349.4,1273.3 2385.6,1263.1  " style="stroke-opacity: 1.000000; stroke-width: 5.0; stroke: rgb(107,174,214); fill: none"  />
<path d="M 599.3,1329.2 L 634.0,1335.7 668.4,1341.9 702.4,1347.9 735.6,1353.5 768.0,1358.8 799.2,1363.6 829.1,1367.9 857.5,1371.7 884.2,1374.9 909.1,1377.4 932.0,1379.4 952.8,1380.7 971.5,1381.3 987.8,1381.1 1001.8,1380.3 1013.3,1378.7 1022.3,1376.4 1028.8,1373.3 1032.7,1369.5 1034.0,1364.9 1032.7,1359.7 1028.8,1353.6 1022.4,1346.9 1013.4,1339.5 1002.0,1331.4 988.1,1322.7 972.0,1313.4 953.6,1303.5 933.1,1293.1 910.5,1282.2 886.1,1270.9 860.0,1259.1 832.4,1247.1 803.3,1234.7 773.0,1222.1 741.8,1209.4 709.8,1196.6 677.2,1183.8 644.3,1171.1  " style="stroke-opacity: 1.000000; stroke-width: 5.0; stroke: rgb(107,174,214); fill: none"  />
<path d="M 644.3,1171.1 L 679.9,1185.3 715.3,1200.4 750.3,1216.5 784.9,1233.7 818.8,1251.8 851.8,1270.9 884.0,1291.0 915.1,1312.2 945.0,1334.3 973.6,1357.4 1000.8,1381.5 1026.6,1406.5 1050.8,1432.5 1073.3,1459.4 1094.2,1487.2 1113.3,1515.9 1130.6,1545.3 1146.0,1575.6 1159.6,1606.7 1171.2,1638.5 1180.9,1670.9 1188.7,1704.0 1194.6,1737.7 1198.5,1771.9 1200.5,1806.6 1200.7,1841.7 1199.0,1877.1 1195.5,1912.9 1190.3,1948.9 1183.3,1985.0 1174.8,2021.2 1164.7,2057.4 1153.2,2093.5 1140.3,2129.5 1126.1,2165.2 1110.8,2200.6 1094.5,2235.6 1077.2,2270.0 1059.2,2303.8  " style="stroke-opacity: 1.000000; stroke-width: 5.0; stroke: rgb(107,174,214); fill: none"  />
<path d="M 644.3,1171.1 L 679.2,1185.0 713.9,1199.8 748.2,1215.5 781.9,1232.2 814.8,1249.8 846.8,1268.2 877.6,1287.6 907.3,1307.9 935.6,1329.0 962.5,1351.1 987.8,1373.9 1011.4,1397.7 1033.3,1422.2 1053.3,1447.5 1071.4,1473.6 1087.6,1500.4 1101.7,1527.9 1113.8,1556.1 1123.7,1584.9 1131.6,1614.3 1137.3,1644.2 1140.9,1674.7 1142.4,1705.6 1141.8,1736.8 1139.2,1768.5 1134.5,1800.4 1127.8,1832.6 1119.1,1864.9 1108.6,1897.4 1096.4,1929.9 1082.4,1962.4 1066.8,1994.7 1049.7,2026.9 1031.2,2058.9 1011.5,2090.6 990.6,2121.8 968.8,2152.5 946.1,2182.7 922.8,2212.2  " style="stroke-opacity: 1.000000; stroke-width: 5.0; stroke: rgb(107,174,214); fill: none"  />
<path d="M 644.3,1171.1 L 678.7,1184.7 712.8,1199.2 746.4,1214.5 779.3,1230.6 811.3,1247.5 842.3,1265.1 872.1,1283.6 900.5,1302.8 927.5,1322.7 952.8,1343.3 976.4,1364.7 998.1,1386.7 1017.9,1409.3 1035.8,1432.6 1051.5,1456.4 1065.0,1480.8 1076.4,1505.8 1085.5,1531.2 1092.3,1557.1 1096.9,1583.4 1099.2,1610.1 1099.1,1637.1 1096.8,1664.4 1092.3,1692.0 1085.5,1719.7 1076.6,1747.6 1065.5,1775.6 1052.5,1803.7 1037.4,1831.7 1020.5,1859.6 1001.8,1887.5 981.5,1915.1 959.7,1942.5 936.4,1969.5 912.0,1996.2 886.4,2022.4 859.9,2048.1 832.7,2073.2 804.9,2097.7  " style="stroke-opacity: 1.000000; stroke-width: 5.0; stroke: rgb(107,174,214); fill: none"  />
<path d="M 644.3,1171.1 L 677.5,1184.1 710.3,1197.5 742.6,1211.3 774.0,1225.4 804.4,1239.8 833.6,1254.4 861.4,1269.2 887.5,1284.1 912.0,1299.1 934.5,1314.2 955.0,1329.4 973.4,1344.5 989.5,1359.5 1003.4,1374.5 1014.7,1389.4 1023.7,1404.2 1030.0,1418.8 1033.9,1433.2 1035.1,1447.4 1033.7,1461.4 1029.8,1475.0 1023.2,1488.4 1014.1,1501.5 1002.5,1514.3 988.4,1526.7 972.0,1538.7 953.2,1550.4 932.3,1561.6 909.2,1572.5 884.2,1582.9 857.3,1592.9 828.7,1602.5 798.6,1611.6 767.2,1620.2 734.6,1628.4 701.0,1636.2 666.7,1643.4 631.8,1650.2 596.7,1656.5  " style="stroke-opacity: 1.000000; stroke-width: 5.0; stroke: rgb(107,174,214); fill: none"  />
<path d="M 644.3,1171.1 L 677.2,1183.8 709.8,1196.6 741.8,1209.4 773.0,1222.1 803.3,1234.7 832.4,1247.1 860.0,1259.1 886.1,1270.9 910.5,1282.2 933.1,1293.1 953.6,1303.5 972.0,1313.4 988.1,1322.7 1002.0,1331.4 1013.4,1339.5 1022.4,1346.9 1028.8,1353.6 1032.7,1359.7 1034.0,1364.9 1032.7,1369.5 1028.8,1373.3 1022.3,1376.4 1013.3,1378.7 1001.8,1380.3 987.8,1381.1 971.5,1381.3 952.8,1380.7 932.0,1379.4 909.1,1377.4 884.2,1374.9 857.5,1371.7 829.1,1367.9 799.2,1363.6 768.0,1358.8 735.6,1353.5 702.4,1347.9 668.4,1341.9 634.0,1335.7 599.3,1329.2  " style="stroke-opacity: 1.000000; stroke-width: 5.0; stroke: rgb(107,174,214); fill: none"  />
<path d="M 1853.6,2345.8 L 1838.3,2308.0 1823.7,2269.6 1809.8,2230.6 1796.8,2191.0 1784.8,2150.9 1773.7,2110.4 1763.8,2069.5 1754.9,2028.2 1747.3,1986.7 1741.0,1945.0 1735.9,1903.1 1732.2,1861.1 1729.8,1819.1 1728.9,1777.0 1729.4,1734.9 1731.3,1693.0 1734.7,1651.1 1739.6,1609.4 1745.9,1568.0 1753.8,1526.8 1763.0,1485.9 1773.8,1445.3 1785.9,1405.1 1799.5,1365.4 1814.4,1326.1 1830.7,1287.3 1848.3,1249.0 1867.1,1211.3 1887.2,1174.1 1908.4,1137.6 1930.7,1101.8 1954.0,1066.7 1978.2,1032.2 2003.3,998.6 2029.2,965.7 2055.8,933.6 2083.0,902.3 2110.7,871.9 2138.8,842.4  " style="stroke-opacity: 1.000000; stroke-width: 5.0; stroke: rgb(107,174,214); fill: none"  />
<path d="M 1853.6,2345.8 L 1839.7,2311.5 1826.6,2276.9 1814.5,2242.0 1803.3,2207.1 1793.4,2172.3 1784.8,2137.7 1777.5,2103.4 1771.7,2069.6 1767.5,2036.4 1764.9,2003.8 1764.0,1972.0 1764.9,1941.1 1767.6,1911.1 1772.1,1882.2 1778.5,1854.3 1786.7,1827.6 1796.9,1802.2 1809.0,1778.0 1823.0,1755.2 1838.8,1733.7 1856.6,1713.6 1876.1,1695.0 1897.4,1677.8 1920.5,1662.0 1945.2,1647.7 1971.6,1634.9 1999.5,1623.6 2028.8,1613.6 2059.4,1605.1 2091.3,1598.0 2124.3,1592.3 2158.3,1587.9 2193.2,1584.8 2228.8,1582.9 2265.0,1582.1 2301.7,1582.5 2338.6,1583.9 2375.5,1586.2 2412.4,1589.4  " style="stroke-opacity: 1.000000; stroke-width: 5.0; stroke: rgb(107,174,214); fill: none"  />
<path d="M 1853.6,2345.8 L 1840.0,2312.5 1827.0,2279.0 1814.9,2245.5 1803.6,2212.3 1793.4,2179.6 1784.3,2147.3 1776.4,2115.8 1769.9,2085.2 1764.8,2055.5 1761.2,2027.0 1759.2,1999.7 1758.7,1973.7 1759.9,1949.2 1762.8,1926.2 1767.5,1904.7 1773.9,1884.9 1782.0,1866.9 1792.0,1850.6 1803.6,1836.1 1817.1,1823.5 1832.2,1812.7 1849.1,1803.8 1867.6,1796.7 1887.7,1791.5 1909.4,1788.2 1932.6,1786.7 1957.1,1787.0 1983.0,1789.0 2010.2,1792.7 2038.4,1798.0 2067.7,1804.9 2097.9,1813.3 2128.9,1823.0 2160.5,1834.1 2192.6,1846.3 2225.1,1859.5 2257.7,1873.7 2290.3,1888.7 2322.8,1904.3  " style="stroke-opacity: 1.000000; stroke-width: 5.0; stroke: rgb(107,174,214); fill: none"  />
</g>
<defs>
<pattern id="hline" width="10" height="10" patternTransform="rotate(0 0 0)" patternUnits="userSpaceOnUse"><line x1="0" y1="0" x2="10" y2="0" style="stroke:black;stroke-width:5" /></pattern>
<pattern id="vline-sparse" width="10" height="10" patternTransform="rotate(0 0 0)" patternUnits="userSpaceOnUse"><line x1="0" y1="0" x2="0" y2="10" style="stroke:black;stroke-width:2" /></pattern>
<pattern id="vline" width="10" height="10" patternTransform="rotate(0 0 0)" patternUnits="userSpaceOnUse"><line x1="0" y1="0" x2="0" y2="10" style="stroke:black;stroke-width:5" /></pattern>
<pattern id="checker" width="10" height="10" patternTransform="rotate(45 0 0)" patternUnits="userSpaceOnUse"><line x1="0" y1="0" x2="10" y2="0" style="stroke:black;stroke-width:2" /><line x1="0" y1="0" x2="0" y2="10" style="stroke:black;stroke-width:2" /></pattern>
<pattern id="checker" width="10" height="10" patternTransform="rotate(45 0 0)" patternUnits="userSpaceOnUse"><line x1="0" y1="0" x2="10" y2="0" style="stroke:black;stroke-width:5" /><line x1="0" y1="0" x2="0" y2="10" style="stroke:black;stroke-width:4" /></pattern>
<pattern id="hline-sparse" width="10" height="10" patternTransform="rotate(0 0 0)" patternUnits="userSpaceOnUse"><line x1="0" y1="0" x2="10" y2="0" style="stroke:black;stroke-width:2" /></pattern>
</defs>
</svg>
