<?xml version="1.0" encoding="utf-8" standalone="no"?>
<!DOCTYPE svg PUBLIC "-//W3C//DTD SVG 1.1//EN" "http://www.w3.org/Graphics/SVG/1.1/DTD/svg11.dtd">
<svg width="3000px" height="3000px" version="1.1" xmlns="http://www.w3.org/2000/svg" xmlns:xlink="http://www.w3.org/1999/xlink">
<g id="bg">
<rect x="0" y="0" width="3000px" height="3000px" style="fill:rgb(255,255,255);"/>
</g>
<g id="ideograms">
<path d="M1500.000,535.000 A965.000,965.000 40.000 0,1 1601.714,540.376 L1618.579,381.267 A1125.000,1125.000 0.000 0,0 1500.000,375.000 Z" style="stroke-width:2.0;stroke:rgb(115,115,115);stroke-linecap:round;fill:rgb(153,0,204);" />
<text x="1635.1" y="307.6" font-size="195.0px" font-family="CMUBright-Bold" style="text-anchor:start;fill:rgb(0,0,0);" transform="rotate(273.0,1635.1,307.6)" >1</text>
<path d="M1500.000,535.000 A965.000,965.000 40.000 0,1 1601.714,540.376 L1618.579,381.267 A1125.000,1125.000 0.000 0,0 1500.000,375.000 Z" style="stroke-width:2.0;stroke:rgb(115,115,115);stroke-linecap:round;fill:none;" />
<path d="M1672.307,550.508 A965.000,965.000 40.000 0,1 1771.427,573.959 L1816.431,420.418 A1125.000,1125.000 0.000 0,0 1700.877,393.079 Z" style="stroke-width:2.0;stroke:rgb(115,115,115);stroke-linecap:round;fill:rgb(153,0,204);" />
<text x="1843.9" y="350.3" font-size="195.0px" font-family="CMUBright-Bold" style="text-anchor:start;fill:rgb(0,0,0);" transform="rotate(283.3,1843.9,350.3)" >4</text>
<path d="M1672.307,550.508 A965.000,965.000 40.000 0,1 1771.427,573.959 L1816.431,420.418 A1125.000,1125.000 0.000 0,0 1700.877,393.079 Z" style="stroke-width:2.0;stroke:rgb(115,115,115);stroke-linecap:round;fill:none;" />
<path d="M1839.077,596.533 A965.000,965.000 40.000 0,1 1932.417,637.306 L2004.113,494.269 A1125.000,1125.000 0.000 0,0 1895.297,446.736 Z" style="stroke-width:2.0;stroke:rgb(115,115,115);stroke-linecap:round;fill:rgb(153,0,204);" />
<text x="2045.4" y="431.1" font-size="195.0px" font-family="CMUBright-Bold" style="text-anchor:start;fill:rgb(0,0,0);" transform="rotate(293.6,2045.4,431.1)" >5</text>
<path d="M1839.077,596.533 A965.000,965.000 40.000 0,1 1932.417,637.306 L2004.113,494.269 A1125.000,1125.000 0.000 0,0 1895.297,446.736 Z" style="stroke-width:2.0;stroke:rgb(115,115,115);stroke-linecap:round;fill:none;" />
<path d="M1994.948,671.597 A965.000,965.000 40.000 0,1 2079.507,728.381 L2175.592,600.444 A1125.000,1125.000 0.000 0,0 2077.012,534.245 Z" style="stroke-width:2.0;stroke:rgb(115,115,115);stroke-linecap:round;fill:rgb(153,0,204);" />
<text x="2229.1" y="546.9" font-size="195.0px" font-family="CMUBright-Bold" style="text-anchor:start;fill:rgb(0,0,0);" transform="rotate(303.9,2229.1,546.9)" >6</text>
<path d="M1994.948,671.597 A965.000,965.000 40.000 0,1 2079.507,728.381 L2175.592,600.444 A1125.000,1125.000 0.000 0,0 2077.012,534.245 Z" style="stroke-width:2.0;stroke:rgb(115,115,115);stroke-linecap:round;fill:none;" />
<path d="M2134.911,773.286 A965.000,965.000 40.000 0,1 2207.972,844.256 L2325.356,735.532 A1125.000,1125.000 0.000 0,0 2240.181,652.795 Z" style="stroke-width:2.0;stroke:rgb(115,115,115);stroke-linecap:round;fill:rgb(153,0,204);" />
<text x="2387.6" y="692.4" font-size="195.0px" font-family="CMUBright-Bold" style="text-anchor:start;fill:rgb(0,0,0);" transform="rotate(314.2,2387.6,692.4)" >8</text>
<path d="M2134.911,773.286 A965.000,965.000 40.000 0,1 2207.972,844.256 L2325.356,735.532 A1125.000,1125.000 0.000 0,0 2240.181,652.795 Z" style="stroke-width:2.0;stroke:rgb(115,115,115);stroke-linecap:round;fill:none;" />
<path d="M2254.467,898.332 A965.000,965.000 40.000 0,1 2313.683,981.207 L2448.594,895.190 A1125.000,1125.000 0.000 0,0 2379.560,798.574 Z" style="stroke-width:2.0;stroke:rgb(115,115,115);stroke-linecap:round;fill:rgb(153,0,204);" />
<text x="2517.5" y="863.9" font-size="195.0px" font-family="CMUBright-Bold" style="text-anchor:start;fill:rgb(0,0,0);" transform="rotate(324.5,2517.5,863.9)" >10</text>
<path d="M2254.467,898.332 A965.000,965.000 40.000 0,1 2313.683,981.207 L2448.594,895.190 A1125.000,1125.000 0.000 0,0 2379.560,798.574 Z" style="stroke-width:2.0;stroke:rgb(115,115,115);stroke-linecap:round;fill:none;" />
<path d="M2349.775,1042.717 A965.000,965.000 40.000 0,1 2393.240,1134.833 L2541.342,1074.288 A1125.000,1125.000 0.000 0,0 2490.670,966.898 Z" style="stroke-width:2.0;stroke:rgb(115,115,115);stroke-linecap:round;fill:rgb(153,0,204);" />
<text x="2614.7" y="1055.8" font-size="195.0px" font-family="CMUBright-Bold" style="text-anchor:start;fill:rgb(0,0,0);" transform="rotate(334.7,2614.7,1055.8)" >13</text>
<path d="M2349.775,1042.717 A965.000,965.000 40.000 0,1 2393.240,1134.833 L2541.342,1074.288 A1125.000,1125.000 0.000 0,0 2490.670,966.898 Z" style="stroke-width:2.0;stroke:rgb(115,115,115);stroke-linecap:round;fill:none;" />
<path d="M2417.770,1201.799 A965.000,965.000 40.000 0,1 2444.089,1300.196 L2600.621,1267.068 A1125.000,1125.000 0.000 0,0 2569.939,1152.356 Z" style="stroke-width:2.0;stroke:rgb(115,115,115);stroke-linecap:round;fill:rgb(153,0,204);" />
<text x="2676.2" y="1262.0" font-size="195.0px" font-family="CMUBright-Bold" style="text-anchor:start;fill:rgb(0,0,0);" transform="rotate(345.0,2676.2,1262.0)" >19</text>
<path d="M2417.770,1201.799 A965.000,965.000 40.000 0,1 2444.089,1300.196 L2600.621,1267.068 A1125.000,1125.000 0.000 0,0 2569.939,1152.356 Z" style="stroke-width:2.0;stroke:rgb(115,115,115);stroke-linecap:round;fill:none;" />
<path d="M2456.267,1370.465 A965.000,965.000 40.000 0,1 2464.593,1471.980 L2624.526,1467.335 A1125.000,1125.000 0.000 0,0 2614.818,1348.988 Z" style="stroke-width:2.0;stroke:rgb(115,115,115);stroke-linecap:round;fill:rgb(153,0,204);" />
<text x="2699.8" y="1475.8" font-size="195.0px" font-family="CMUBright-Bold" style="text-anchor:start;fill:rgb(0,0,0);" transform="rotate(355.3,2699.8,1475.8)" >20</text>
<path d="M2456.267,1370.465 A965.000,965.000 40.000 0,1 2464.593,1471.980 L2624.526,1467.335 A1125.000,1125.000 0.000 0,0 2614.818,1348.988 Z" style="stroke-width:2.0;stroke:rgb(115,115,115);stroke-linecap:round;fill:none;" />
<path d="M2464.028,1543.295 A965.000,965.000 40.000 0,1 2454.095,1644.665 L2612.287,1668.651 A1125.000,1125.000 0.000 0,0 2623.867,1550.473 Z" style="stroke-width:2.0;stroke:rgb(115,115,115);stroke-linecap:round;fill:rgb(153,0,204);" />
<text x="2685.1" y="1688.4" font-size="195.0px" font-family="CMUBright-Bold" style="text-anchor:start;fill:rgb(0,0,0);" transform="rotate(5.6,2685.1,1688.4)" >21</text>
<path d="M2464.028,1543.295 A965.000,965.000 40.000 0,1 2454.095,1644.665 L2612.287,1668.651 A1125.000,1125.000 0.000 0,0 2623.867,1550.473 Z" style="stroke-width:2.0;stroke:rgb(115,115,115);stroke-linecap:round;fill:none;" />
<path d="M2440.805,1714.733 A965.000,965.000 40.000 0,1 2412.931,1812.701 L2564.298,1864.548 A1125.000,1125.000 0.000 0,0 2596.794,1750.336 Z" style="stroke-width:2.0;stroke:rgb(115,115,115);stroke-linecap:round;fill:rgb(153,0,204);" />
<text x="2632.4" y="1897.0" font-size="195.0px" font-family="CMUBright-Bold" style="text-anchor:start;fill:rgb(0,0,0);" transform="rotate(15.9,2632.4,1897.0)" >22</text>
<path d="M2440.805,1714.733 A965.000,965.000 40.000 0,1 2412.931,1812.701 L2564.298,1864.548 A1125.000,1125.000 0.000 0,0 2596.794,1750.336 Z" style="stroke-width:2.0;stroke:rgb(115,115,115);stroke-linecap:round;fill:none;" />
<path d="M2387.344,1879.269 A965.000,965.000 40.000 0,1 2342.425,1970.686 L2482.102,2048.727 A1125.000,1125.000 0.000 0,0 2534.469,1942.153 Z" style="stroke-width:2.0;stroke:rgb(115,115,115);stroke-linecap:round;fill:rgb(153,0,204);" />
<text x="2542.3" y="2094.6" font-size="195.0px" font-family="CMUBright-Bold" style="text-anchor:start;fill:rgb(0,0,0);" transform="rotate(26.2,2542.3,2094.6)" >28</text>
<path d="M2387.344,1879.269 A965.000,965.000 40.000 0,1 2342.425,1970.686 L2482.102,2048.727 A1125.000,1125.000 0.000 0,0 2534.469,1942.153 Z" style="stroke-width:2.0;stroke:rgb(115,115,115);stroke-linecap:round;fill:none;" />
<path d="M2305.363,2031.616 A965.000,965.000 40.000 0,1 2244.843,2113.542 L2368.340,2215.270 A1125.000,1125.000 0.000 0,0 2438.895,2119.759 Z" style="stroke-width:2.0;stroke:rgb(115,115,115);stroke-linecap:round;fill:rgb(153,0,204);" />
<text x="2419.4" y="2271.1" font-size="195.0px" font-family="CMUBright-Bold" style="text-anchor:start;fill:rgb(0,0,0);" transform="rotate(36.5,2419.4,2271.1)" >34</text>
<path d="M2305.363,2031.616 A965.000,965.000 40.000 0,1 2244.843,2113.542 L2368.340,2215.270 A1125.000,1125.000 0.000 0,0 2438.895,2119.759 Z" style="stroke-width:2.0;stroke:rgb(115,115,115);stroke-linecap:round;fill:none;" />
<path d="M2197.497,2166.875 A965.000,965.000 40.000 0,1 2123.321,2236.679 L2226.669,2358.823 A1125.000,1125.000 0.000 0,0 2313.144,2277.445 Z" style="stroke-width:2.0;stroke:rgb(115,115,115);stroke-linecap:round;fill:rgb(253,208,162);" />
<text x="2268.5" y="2421.6" font-size="195.0px" font-family="CMUBright-Bold" style="text-anchor:start;fill:rgb(0,0,0);" transform="rotate(46.7,2268.5,2421.6)" >2</text>
<path d="M2197.497,2166.875 A965.000,965.000 40.000 0,1 2123.321,2236.679 L2226.669,2358.823 A1125.000,1125.000 0.000 0,0 2313.144,2277.445 Z" style="stroke-width:2.0;stroke:rgb(115,115,115);stroke-linecap:round;fill:none;" />
<path d="M2067.213,2280.701 A965.000,965.000 40.000 0,1 1981.764,2336.139 L2061.642,2474.773 A1125.000,1125.000 0.000 0,0 2161.258,2410.144 Z" style="stroke-width:2.0;stroke:rgb(115,115,115);stroke-linecap:round;fill:rgb(253,208,162);" />
<text x="2089.8" y="2545.0" font-size="195.0px" font-family="CMUBright-Bold" style="text-anchor:start;fill:rgb(0,0,0);" transform="rotate(57.0,2089.8,2545.0)" >3</text>
<path d="M2067.213,2280.701 A965.000,965.000 40.000 0,1 1981.764,2336.139 L2061.642,2474.773 A1125.000,1125.000 0.000 0,0 2161.258,2410.144 Z" style="stroke-width:2.0;stroke:rgb(115,115,115);stroke-linecap:round;fill:none;" />
<path d="M1918.698,2369.435 A965.000,965.000 40.000 0,1 1824.724,2408.724 L1878.564,2559.393 A1125.000,1125.000 0.000 0,0 1988.119,2513.590 Z" style="stroke-width:2.0;stroke:rgb(115,115,115);stroke-linecap:round;fill:rgb(253,208,162);" />
<text x="1893.8" y="2633.6" font-size="195.0px" font-family="CMUBright-Bold" style="text-anchor:start;fill:rgb(0,0,0);" transform="rotate(67.3,1893.8,2633.6)" >15</text>
<path d="M1918.698,2369.435 A965.000,965.000 40.000 0,1 1824.724,2408.724 L1878.564,2559.393 A1125.000,1125.000 0.000 0,0 1988.119,2513.590 Z" style="stroke-width:2.0;stroke:rgb(115,115,115);stroke-linecap:round;fill:none;" />
<path d="M1756.726,2430.224 A965.000,965.000 40.000 0,1 1657.246,2452.102 L1683.318,2609.964 A1125.000,1125.000 0.000 0,0 1799.291,2584.458 Z" style="stroke-width:2.0;stroke:rgb(115,115,115);stroke-linecap:round;fill:rgb(253,208,162);" />
<text x="1685.0" y="2685.6" font-size="195.0px" font-family="CMUBright-Bold" style="text-anchor:start;fill:rgb(0,0,0);" transform="rotate(77.6,1685.0,2685.6)" >31</text>
<path d="M1756.726,2430.224 A965.000,965.000 40.000 0,1 1657.246,2452.102 L1683.318,2609.964 A1125.000,1125.000 0.000 0,0 1799.291,2584.458 Z" style="stroke-width:2.0;stroke:rgb(115,115,115);stroke-linecap:round;fill:none;" />
<path d="M1586.502,2461.115 A965.000,965.000 40.000 0,1 1484.715,2464.879 L1482.181,2624.859 A1125.000,1125.000 0.000 0,0 1600.844,2620.471 Z" style="stroke-width:2.0;stroke:rgb(115,115,115);stroke-linecap:round;fill:rgb(253,208,162);" />
<text x="1470.4" y="2699.6" font-size="195.0px" font-family="CMUBright-Bold" style="text-anchor:start;fill:rgb(0,0,0);" transform="rotate(87.9,1470.4,2699.6)" >32</text>
<path d="M1586.502,2461.115 A965.000,965.000 40.000 0,1 1484.715,2464.879 L1482.181,2624.859 A1125.000,1125.000 0.000 0,0 1600.844,2620.471 Z" style="stroke-width:2.0;stroke:rgb(115,115,115);stroke-linecap:round;fill:none;" />
<path d="M1413.498,2461.115 A965.000,965.000 40.000 0,1 1312.675,2446.644 L1281.616,2603.600 A1125.000,1125.000 0.000 0,0 1399.156,2620.471 Z" style="stroke-width:2.0;stroke:rgb(115,115,115);stroke-linecap:round;fill:rgb(253,141,60);" />
<text x="1400.0" y="2695.8" font-size="195.0px" font-family="CMUBright-Bold" style="text-anchor:end;fill:rgb(0,0,0);" transform="rotate(-81.8,1400.0,2695.8)" >7</text>
<path d="M1413.498,2461.115 A965.000,965.000 40.000 0,1 1312.675,2446.644 L1281.616,2603.600 A1125.000,1125.000 0.000 0,0 1399.156,2620.471 Z" style="stroke-width:2.0;stroke:rgb(115,115,115);stroke-linecap:round;fill:none;" />
<path d="M1243.274,2430.224 A965.000,965.000 40.000 0,1 1146.656,2397.983 L1088.070,2546.871 A1125.000,1125.000 0.000 0,0 1200.709,2584.458 Z" style="stroke-width:2.0;stroke:rgb(115,115,115);stroke-linecap:round;fill:rgb(253,141,60);" />
<text x="1191.0" y="2659.5" font-size="195.0px" font-family="CMUBright-Bold" style="text-anchor:end;fill:rgb(0,0,0);" transform="rotate(-71.5,1191.0,2659.5)" >9</text>
<path d="M1243.274,2430.224 A965.000,965.000 40.000 0,1 1146.656,2397.983 L1088.070,2546.871 A1125.000,1125.000 0.000 0,0 1200.709,2584.458 Z" style="stroke-width:2.0;stroke:rgb(115,115,115);stroke-linecap:round;fill:none;" />
<path d="M1081.302,2369.435 A965.000,965.000 40.000 0,1 991.993,2320.460 L907.764,2456.494 A1125.000,1125.000 0.000 0,0 1011.881,2513.590 Z" style="stroke-width:2.0;stroke:rgb(115,115,115);stroke-linecap:round;fill:rgb(253,141,60);" />
<text x="987.1" y="2584.9" font-size="195.0px" font-family="CMUBright-Bold" style="text-anchor:end;fill:rgb(0,0,0);" transform="rotate(-61.3,987.1,2584.9)" >12</text>
<path d="M1081.302,2369.435 A965.000,965.000 40.000 0,1 991.993,2320.460 L907.764,2456.494 A1125.000,1125.000 0.000 0,0 1011.881,2513.590 Z" style="stroke-width:2.0;stroke:rgb(115,115,115);stroke-linecap:round;fill:none;" />
<path d="M932.787,2280.701 A965.000,965.000 40.000 0,1 853.658,2216.566 L746.493,2335.375 A1125.000,1125.000 0.000 0,0 838.742,2410.144 Z" style="stroke-width:2.0;stroke:rgb(115,115,115);stroke-linecap:round;fill:rgb(253,141,60);" />
<text x="803.3" y="2477.0" font-size="195.0px" font-family="CMUBright-Bold" style="text-anchor:end;fill:rgb(0,0,0);" transform="rotate(-51.0,803.3,2477.0)" >16</text>
<path d="M932.787,2280.701 A965.000,965.000 40.000 0,1 853.658,2216.566 L746.493,2335.375 A1125.000,1125.000 0.000 0,0 838.742,2410.144 Z" style="stroke-width:2.0;stroke:rgb(115,115,115);stroke-linecap:round;fill:none;" />
<path d="M802.503,2166.875 A965.000,965.000 40.000 0,1 736.097,2089.642 L609.440,2187.406 A1125.000,1125.000 0.000 0,0 686.856,2277.445 Z" style="stroke-width:2.0;stroke:rgb(115,115,115);stroke-linecap:round;fill:rgb(253,141,60);" />
<text x="639.3" y="2336.2" font-size="195.0px" font-family="CMUBright-Bold" style="text-anchor:end;fill:rgb(0,0,0);" transform="rotate(-40.7,639.3,2336.2)" >17</text>
<path d="M802.503,2166.875 A965.000,965.000 40.000 0,1 736.097,2089.642 L609.440,2187.406 A1125.000,1125.000 0.000 0,0 686.856,2277.445 Z" style="stroke-width:2.0;stroke:rgb(115,115,115);stroke-linecap:round;fill:none;" />
<path d="M694.637,2031.616 A965.000,965.000 40.000 0,1 643.089,1943.766 L501.010,2017.344 A1125.000,1125.000 0.000 0,0 561.105,2119.759 Z" style="stroke-width:2.0;stroke:rgb(115,115,115);stroke-linecap:round;fill:rgb(253,141,60);" />
<text x="504.4" y="2169.9" font-size="195.0px" font-family="CMUBright-Bold" style="text-anchor:end;fill:rgb(0,0,0);" transform="rotate(-30.4,504.4,2169.9)" >18</text>
<path d="M694.637,2031.616 A965.000,965.000 40.000 0,1 643.089,1943.766 L501.010,2017.344 A1125.000,1125.000 0.000 0,0 561.105,2119.759 Z" style="stroke-width:2.0;stroke:rgb(115,115,115);stroke-linecap:round;fill:none;" />
<path d="M612.656,1879.269 A965.000,965.000 40.000 0,1 577.622,1783.627 L424.689,1830.653 A1125.000,1125.000 0.000 0,0 465.531,1942.153 Z" style="stroke-width:2.0;stroke:rgb(115,115,115);stroke-linecap:round;fill:rgb(253,141,60);" />
<text x="400.8" y="1981.4" font-size="195.0px" font-family="CMUBright-Bold" style="text-anchor:end;fill:rgb(0,0,0);" transform="rotate(-20.1,400.8,1981.4)" >23</text>
<path d="M612.656,1879.269 A965.000,965.000 40.000 0,1 577.622,1783.627 L424.689,1830.653 A1125.000,1125.000 0.000 0,0 465.531,1942.153 Z" style="stroke-width:2.0;stroke:rgb(115,115,115);stroke-linecap:round;fill:none;" />
<path d="M559.195,1714.733 A965.000,965.000 40.000 0,1 541.802,1614.372 L382.929,1633.336 A1125.000,1125.000 0.000 0,0 403.206,1750.336 Z" style="stroke-width:2.0;stroke:rgb(115,115,115);stroke-linecap:round;fill:rgb(253,141,60);" />
<text x="332.0" y="1775.4" font-size="195.0px" font-family="CMUBright-Bold" style="text-anchor:end;fill:rgb(0,0,0);" transform="rotate(-9.8,332.0,1775.4)" >24</text>
<path d="M559.195,1714.733 A965.000,965.000 40.000 0,1 541.802,1614.372 L382.929,1633.336 A1125.000,1125.000 0.000 0,0 403.206,1750.336 Z" style="stroke-width:2.0;stroke:rgb(115,115,115);stroke-linecap:round;fill:none;" />
<path d="M535.972,1543.295 A965.000,965.000 40.000 0,1 536.778,1441.441 L377.073,1431.732 A1125.000,1125.000 0.000 0,0 376.133,1550.473 Z" style="stroke-width:2.0;stroke:rgb(115,115,115);stroke-linecap:round;fill:rgb(253,141,60);" />
<text x="301.7" y="1564.5" font-size="195.0px" font-family="CMUBright-Bold" style="text-anchor:end;fill:rgb(0,0,0);" transform="rotate(0.5,301.7,1564.5)" >25</text>
<path d="M535.972,1543.295 A965.000,965.000 40.000 0,1 536.778,1441.441 L377.073,1431.732 A1125.000,1125.000 0.000 0,0 376.133,1550.473 Z" style="stroke-width:2.0;stroke:rgb(115,115,115);stroke-linecap:round;fill:none;" />
<path d="M543.733,1370.465 A965.000,965.000 40.000 0,1 562.714,1270.393 L407.309,1232.323 A1125.000,1125.000 0.000 0,0 385.182,1348.988 Z" style="stroke-width:2.0;stroke:rgb(115,115,115);stroke-linecap:round;fill:rgb(253,141,60);" />
<text x="309.5" y="1349.5" font-size="195.0px" font-family="CMUBright-Bold" style="text-anchor:end;fill:rgb(0,0,0);" transform="rotate(10.7,309.5,1349.5)" >26</text>
<path d="M543.733,1370.465 A965.000,965.000 40.000 0,1 562.714,1270.393 L407.309,1232.323 A1125.000,1125.000 0.000 0,0 385.182,1348.988 Z" style="stroke-width:2.0;stroke:rgb(115,115,115);stroke-linecap:round;fill:none;" />
<path d="M582.230,1201.799 A965.000,965.000 40.000 0,1 618.774,1106.724 L472.664,1041.517 A1125.000,1125.000 0.000 0,0 430.061,1152.356 Z" style="stroke-width:2.0;stroke:rgb(115,115,115);stroke-linecap:round;fill:rgb(253,141,60);" />
<text x="355.8" y="1138.4" font-size="195.0px" font-family="CMUBright-Bold" style="text-anchor:end;fill:rgb(0,0,0);" transform="rotate(21.0,355.8,1138.4)" >27</text>
<path d="M582.230,1201.799 A965.000,965.000 40.000 0,1 618.774,1106.724 L472.664,1041.517 A1125.000,1125.000 0.000 0,0 430.061,1152.356 Z" style="stroke-width:2.0;stroke:rgb(115,115,115);stroke-linecap:round;fill:none;" />
<path d="M650.225,1042.717 A965.000,965.000 40.000 0,1 703.158,955.695 L571.039,865.447 A1125.000,1125.000 0.000 0,0 509.330,966.898 Z" style="stroke-width:2.0;stroke:rgb(115,115,115);stroke-linecap:round;fill:rgb(253,141,60);" />
<text x="438.3" y="940.7" font-size="195.0px" font-family="CMUBright-Bold" style="text-anchor:end;fill:rgb(0,0,0);" transform="rotate(31.3,438.3,940.7)" >29</text>
<path d="M650.225,1042.717 A965.000,965.000 40.000 0,1 703.158,955.695 L571.039,865.447 A1125.000,1125.000 0.000 0,0 509.330,966.898 Z" style="stroke-width:2.0;stroke:rgb(115,115,115);stroke-linecap:round;fill:none;" />
<path d="M745.533,898.332 A965.000,965.000 40.000 0,1 813.153,822.160 L699.272,709.772 A1125.000,1125.000 0.000 0,0 620.440,798.574 Z" style="stroke-width:2.0;stroke:rgb(115,115,115);stroke-linecap:round;fill:rgb(253,141,60);" />
<text x="555.2" y="760.2" font-size="195.0px" font-family="CMUBright-Bold" style="text-anchor:end;fill:rgb(0,0,0);" transform="rotate(41.6,555.2,760.2)" >35</text>
<path d="M745.533,898.332 A965.000,965.000 40.000 0,1 813.153,822.160 L699.272,709.772 A1125.000,1125.000 0.000 0,0 620.440,798.574 Z" style="stroke-width:2.0;stroke:rgb(115,115,115);stroke-linecap:round;fill:none;" />
<path d="M865.089,773.286 A965.000,965.000 40.000 0,1 945.224,710.412 L853.241,579.496 A1125.000,1125.000 0.000 0,0 759.819,652.795 Z" style="stroke-width:2.0;stroke:rgb(115,115,115);stroke-linecap:round;fill:rgb(66,146,198);" />
<text x="704.0" y="602.0" font-size="195.0px" font-family="CMUBright-Bold" style="text-anchor:end;fill:rgb(0,0,0);" transform="rotate(51.9,704.0,602.0)" >11</text>
<path d="M865.089,773.286 A965.000,965.000 40.000 0,1 945.224,710.412 L853.241,579.496 A1125.000,1125.000 0.000 0,0 759.819,652.795 Z" style="stroke-width:2.0;stroke:rgb(115,115,115);stroke-linecap:round;fill:none;" />
<path d="M1005.052,671.597 A965.000,965.000 40.000 0,1 1095.126,624.042 L1027.997,478.806 A1125.000,1125.000 0.000 0,0 922.988,534.245 Z" style="stroke-width:2.0;stroke:rgb(115,115,115);stroke-linecap:round;fill:rgb(66,146,198);" />
<text x="877.1" y="474.3" font-size="195.0px" font-family="CMUBright-Bold" style="text-anchor:end;fill:rgb(0,0,0);" transform="rotate(62.2,877.1,474.3)" >14</text>
<path d="M1005.052,671.597 A965.000,965.000 40.000 0,1 1095.126,624.042 L1027.997,478.806 A1125.000,1125.000 0.000 0,0 922.988,534.245 Z" style="stroke-width:2.0;stroke:rgb(115,115,115);stroke-linecap:round;fill:none;" />
<path d="M1160.923,596.533 A965.000,965.000 40.000 0,1 1258.041,565.826 L1217.923,410.937 A1125.000,1125.000 0.000 0,0 1104.703,446.736 Z" style="stroke-width:2.0;stroke:rgb(115,115,115);stroke-linecap:round;fill:rgb(66,146,198);" />
<text x="1068.4" y="380.3" font-size="195.0px" font-family="CMUBright-Bold" style="text-anchor:end;fill:rgb(0,0,0);" transform="rotate(72.5,1068.4,380.3)" >30</text>
<path d="M1160.923,596.533 A965.000,965.000 40.000 0,1 1258.041,565.826 L1217.923,410.937 A1125.000,1125.000 0.000 0,0 1104.703,446.736 Z" style="stroke-width:2.0;stroke:rgb(115,115,115);stroke-linecap:round;fill:none;" />
<path d="M1327.693,550.508 A965.000,965.000 40.000 0,1 1428.732,537.635 L1416.916,378.072 A1125.000,1125.000 0.000 0,0 1299.123,393.079 Z" style="stroke-width:2.0;stroke:rgb(115,115,115);stroke-linecap:round;fill:rgb(66,146,198);" />
<text x="1275.3" y="321.2" font-size="195.0px" font-family="CMUBright-Bold" style="text-anchor:end;fill:rgb(0,0,0);" transform="rotate(82.7,1275.3,321.2)" >33</text>
<path d="M1327.693,550.508 A965.000,965.000 40.000 0,1 1428.732,537.635 L1416.916,378.072 A1125.000,1125.000 0.000 0,0 1299.123,393.079 Z" style="stroke-width:2.0;stroke:rgb(115,115,115);stroke-linecap:round;fill:none;" />
</g>
<g id="track_1">
<path d="M 1548.4,584.5 L 1545.9,630.0 1543.1,675.6 1540.0,721.5 1536.6,767.4 1533.0,813.5 1529.0,859.8 1524.8,906.1 1520.2,952.6 1515.2,999.1 1510.0,1045.7 1504.4,1092.3 1498.4,1139.0 1492.1,1185.7 1485.4,1232.4 1478.4,1279.1 1471.0,1325.8 1463.3,1372.5 1455.1,1419.2 1446.7,1465.8 1437.9,1512.3 1428.7,1558.8 1419.1,1605.2 1409.2,1651.4 1399.0,1697.6 1388.4,1743.7 1377.5,1789.6 1366.3,1835.4 1354.8,1881.0 1342.9,1926.4 1330.8,1971.7 1318.3,2016.8 1305.6,2061.7 1292.6,2106.4 1279.4,2150.9 1265.9,2195.1 1252.2,2239.1 1238.2,2282.9 1224.1,2326.4 1209.8,2369.6  " style="stroke-opacity: 1.000000; stroke-width: 5.0; stroke: rgb(251,106,74); fill: none"  />
<path d="M 1548.4,584.5 L 1545.8,627.1 1542.5,669.9 1538.4,713.1 1533.6,756.4 1527.9,800.0 1521.4,843.6 1514.0,887.4 1505.7,931.1 1496.4,974.8 1486.2,1018.5 1475.1,1062.0 1462.9,1105.4 1449.8,1148.6 1435.7,1191.5 1420.6,1234.2 1404.5,1276.5 1387.5,1318.5 1369.4,1360.0 1350.4,1401.2 1330.4,1441.9 1309.4,1482.1 1287.5,1521.8 1264.7,1561.0 1241.1,1599.6 1216.5,1637.6 1191.2,1675.0 1165.0,1711.8 1138.1,1747.9 1110.4,1783.3 1082.1,1818.0 1053.1,1852.1 1023.6,1885.4 993.5,1918.0 962.9,1949.8 931.9,1980.9 900.5,2011.3 868.9,2040.9 837.0,2069.7 804.9,2097.7  " style="stroke-opacity: 1.000000; stroke-width: 5.0; stroke: rgb(251,106,74); fill: none"  />
<path d="M 1867.0,659.9 L 1851.5,694.2 1835.1,728.2 1817.9,761.7 1799.8,794.6 1780.7,826.7 1760.8,857.8 1740.1,887.8 1718.5,916.5 1696.1,943.9 1672.9,969.7 1648.9,994.0 1624.2,1016.5 1598.7,1037.2 1572.5,1056.1 1545.6,1073.0 1518.1,1088.0 1490.0,1100.8 1461.3,1111.6 1432.1,1120.3 1402.4,1126.8 1372.2,1131.2 1341.6,1133.5 1310.7,1133.6 1279.5,1131.6 1248.0,1127.5 1216.3,1121.3 1184.4,1113.2 1152.5,1103.1 1120.6,1091.2 1088.7,1077.5 1056.8,1062.1 1025.2,1045.0 993.8,1026.5 962.7,1006.6 932.0,985.5 901.7,963.2 872.0,940.0 842.8,916.0 814.4,891.4  " style="stroke-opacity: 1.000000; stroke-width: 5.0; stroke: rgb(251,106,74); fill: none"  />
<path d="M 2011.1,738.9 L 1986.4,776.0 1961.9,813.6 1937.7,851.6 1913.6,890.1 1889.9,929.0 1866.5,968.4 1843.4,1008.1 1820.7,1048.3 1798.3,1088.9 1776.4,1129.9 1754.9,1171.2 1733.8,1212.9 1713.2,1254.9 1693.1,1297.3 1673.5,1339.9 1654.5,1382.9 1635.9,1426.1 1617.9,1469.6 1600.4,1513.4 1583.5,1557.3 1567.2,1601.5 1551.4,1645.9 1536.2,1690.4 1521.6,1735.1 1507.6,1779.9 1494.2,1824.8 1481.3,1869.8 1469.0,1914.9 1457.3,1960.0 1446.2,2005.1 1435.6,2050.2 1425.5,2095.2 1416.1,2140.2 1407.1,2185.1 1398.6,2229.9 1390.7,2274.6 1383.3,2319.1 1376.3,2363.4 1369.8,2407.5  " style="stroke-opacity: 1.000000; stroke-width: 5.0; stroke: rgb(251,106,74); fill: none"  />
<path d="M 1369.8,2407.5 L 1376.3,2363.4 1383.3,2319.1 1390.7,2274.6 1398.6,2229.9 1407.1,2185.1 1416.1,2140.2 1425.5,2095.2 1435.6,2050.2 1446.2,2005.1 1457.3,1960.0 1469.0,1914.9 1481.3,1869.8 1494.2,1824.8 1507.6,1779.9 1521.6,1735.1 1536.2,1690.4 1551.4,1645.9 1567.2,1601.5 1583.5,1557.3 1600.4,1513.4 1617.9,1469.6 1635.9,1426.1 1654.5,1382.9 1673.5,1339.9 1693.1,1297.3 1713.2,1254.9 1733.8,1212.9 1754.9,1171.2 1776.4,1129.9 1798.3,1088.9 1820.7,1048.3 1843.4,1008.1 1866.5,968.4 1889.9,929.0 1913.6,890.1 1937.7,851.6 1961.9,813.6 1986.4,776.0 2011.1,738.9  " style="stroke-opacity: 1.000000; stroke-width: 5.0; stroke: rgb(251,106,74); fill: none"  />
<path d="M 1209.8,2369.6 L 1224.1,2326.4 1238.2,2282.9 1252.2,2239.1 1265.9,2195.1 1279.4,2150.9 1292.6,2106.4 1305.6,2061.7 1318.3,2016.8 1330.8,1971.7 1342.9,1926.4 1354.8,1881.0 1366.3,1835.4 1377.5,1789.6 1388.4,1743.7 1399.0,1697.6 1409.2,1651.4 1419.1,1605.2 1428.7,1558.8 1437.9,1512.3 1446.7,1465.8 1455.1,1419.2 1463.3,1372.5 1471.0,1325.8 1478.4,1279.1 1485.4,1232.4 1492.1,1185.7 1498.4,1139.0 1504.4,1092.3 1510.0,1045.7 1515.2,999.1 1520.2,952.6 1524.8,906.1 1529.0,859.8 1533.0,813.5 1536.6,767.4 1540.0,721.5 1543.1,675.6 1545.9,630.0 1548.4,584.5  " style="stroke-opacity: 1.000000; stroke-width: 5.0; stroke: rgb(251,106,74); fill: none"  />
<path d="M 1209.8,2369.6 L 1222.4,2333.4 1235.9,2297.4 1250.5,2261.6 1266.0,2226.4 1282.6,2191.7 1300.2,2157.8 1318.9,2124.8 1338.6,2092.8 1359.4,2061.9 1381.2,2032.3 1404.0,2004.0 1427.9,1977.1 1452.7,1951.8 1478.6,1928.0 1505.4,1906.0 1533.2,1885.6 1561.9,1867.0 1591.4,1850.2 1621.8,1835.3 1653.1,1822.3 1685.1,1811.1 1717.8,1801.8 1751.1,1794.5 1785.1,1789.0 1819.7,1785.4 1854.8,1783.7 1890.3,1783.8 1926.1,1785.7 1962.3,1789.3 1998.7,1794.6 2035.3,1801.5 2071.9,1809.9 2108.5,1819.8 2145.0,1831.1 2181.3,1843.7 2217.4,1857.4 2253.0,1872.1 2288.2,1887.8 2322.8,1904.3  " style="stroke-opacity: 1.000000; stroke-width: 5.0; stroke: rgb(251,106,74); fill: none"  />
<path d="M 1209.8,2369.6 L 1222.1,2334.1 1235.4,2298.7 1249.6,2263.8 1264.7,2229.4 1280.7,2195.7 1297.8,2163.0 1315.7,2131.3 1334.7,2100.7 1354.5,2071.5 1375.3,2043.6 1397.1,2017.3 1419.7,1992.7 1443.2,1969.7 1467.6,1948.6 1492.8,1929.3 1518.9,1912.0 1545.8,1896.7 1573.4,1883.3 1601.7,1872.1 1630.7,1862.9 1660.4,1855.8 1690.6,1850.9 1721.4,1848.0 1752.7,1847.2 1784.4,1848.4 1816.5,1851.7 1849.0,1856.9 1881.7,1864.1 1914.5,1873.1 1947.6,1884.0 1980.6,1896.5 2013.7,1910.6 2046.6,1926.2 2079.4,1943.2 2111.9,1961.5 2144.0,1981.0 2175.7,2001.4 2206.9,2022.7 2237.4,2044.7  " style="stroke-opacity: 1.000000; stroke-width: 5.0; stroke: rgb(251,106,74); fill: none"  />
<path d="M 2245.9,967.0 L 2210.3,992.1 2174.1,1017.0 2137.3,1041.5 2099.9,1065.7 2061.9,1089.5 2023.4,1112.9 1984.3,1135.7 1944.7,1158.1 1904.7,1179.8 1864.1,1201.0 1823.1,1221.6 1781.6,1241.6 1739.7,1260.8 1697.3,1279.4 1654.6,1297.2 1611.6,1314.3 1568.2,1330.7 1524.4,1346.3 1480.4,1361.1 1436.1,1375.1 1391.6,1388.3 1346.9,1400.7 1302.0,1412.2 1256.9,1423.0 1211.7,1432.9 1166.4,1442.1 1121.0,1450.4 1075.6,1458.0 1030.2,1464.7 984.8,1470.7 939.5,1475.9 894.3,1480.4 849.2,1484.1 804.2,1487.2 759.5,1489.5 715.0,1491.2 670.8,1492.3 626.8,1492.8 583.3,1492.7  " style="stroke-opacity: 1.000000; stroke-width: 5.0; stroke: rgb(251,106,74); fill: none"  />
<path d="M 2245.9,967.0 L 2211.1,991.5 2175.5,1015.7 2139.2,1039.4 2102.3,1062.7 2064.7,1085.4 2026.5,1107.5 1987.7,1129.0 1948.3,1149.7 1908.3,1169.8 1867.9,1189.0 1826.9,1207.4 1785.4,1225.0 1743.5,1241.7 1701.1,1257.4 1658.3,1272.2 1615.2,1286.0 1571.8,1298.8 1528.0,1310.6 1483.9,1321.4 1439.6,1331.1 1395.1,1339.8 1350.5,1347.5 1305.6,1354.1 1260.7,1359.6 1215.7,1364.2 1170.6,1367.6 1125.6,1370.1 1080.6,1371.6 1035.6,1372.0 990.8,1371.6 946.1,1370.1 901.6,1367.8 857.4,1364.6 813.4,1360.6 769.8,1355.7 726.5,1350.1 683.6,1343.8 641.2,1336.8 599.3,1329.2  " style="stroke-opacity: 1.000000; stroke-width: 5.0; stroke: rgb(251,106,74); fill: none"  />
<path d="M 1059.2,2303.8 L 1081.0,2263.8 1102.6,2223.6 1124.2,2183.0 1145.5,2142.1 1166.7,2101.0 1187.7,2059.6 1208.4,2018.0 1229.0,1976.1 1249.2,1933.9 1269.3,1891.5 1289.1,1848.9 1308.6,1806.1 1327.8,1763.1 1346.7,1719.8 1365.4,1676.4 1383.7,1632.8 1401.7,1589.0 1419.3,1545.1 1436.7,1501.0 1453.6,1456.8 1470.3,1412.5 1486.6,1368.0 1502.6,1323.5 1518.2,1278.8 1533.4,1234.1 1548.3,1189.3 1562.9,1144.5 1577.1,1099.6 1590.9,1054.7 1604.4,1009.8 1617.6,965.0 1630.4,920.1 1642.9,875.2 1655.0,830.5 1666.9,785.7 1678.4,741.1 1689.6,696.6 1700.5,652.2 1711.1,607.9  " style="stroke-opacity: 1.000000; stroke-width: 5.0; stroke: rgb(251,106,74); fill: none"  />
<path d="M 1059.2,2303.8 L 1079.6,2267.5 1100.8,2231.2 1123.0,2195.1 1146.1,2159.2 1170.0,2123.6 1195.0,2088.4 1220.8,2053.6 1247.5,2019.4 1275.2,1985.7 1303.7,1952.8 1333.2,1920.5 1363.6,1889.0 1394.8,1858.3 1426.9,1828.5 1459.8,1799.6 1493.6,1771.6 1528.1,1744.6 1563.5,1718.6 1599.5,1693.7 1636.3,1669.8 1673.8,1647.0 1711.9,1625.4 1750.6,1604.8 1789.9,1585.4 1829.8,1567.1 1870.1,1550.0 1910.8,1533.9 1952.0,1519.1 1993.4,1505.3 2035.2,1492.7 2077.2,1481.1 2119.3,1470.6 2161.6,1461.2 2203.9,1452.8 2246.2,1445.4 2288.4,1439.0 2330.4,1433.5 2372.2,1428.8 2413.7,1425.1  " style="stroke-opacity: 1.000000; stroke-width: 5.0; stroke: rgb(251,106,74); fill: none"  />
<path d="M 1059.2,2303.8 L 1079.2,2268.3 1100.1,2232.9 1122.0,2197.7 1144.8,2162.9 1168.7,2128.5 1193.5,2094.6 1219.2,2061.3 1246.0,2028.7 1273.7,1996.8 1302.3,1965.9 1331.9,1935.8 1362.4,1906.7 1393.9,1878.6 1426.2,1851.7 1459.3,1825.8 1493.4,1801.2 1528.2,1777.7 1563.8,1755.6 1600.2,1734.7 1637.3,1715.1 1675.0,1696.9 1713.4,1680.0 1752.4,1664.4 1792.0,1650.2 1832.0,1637.4 1872.5,1625.9 1913.4,1615.8 1954.7,1607.0 1996.2,1599.5 2037.9,1593.4 2079.8,1588.4 2121.8,1584.7 2163.9,1582.2 2205.8,1580.9 2247.7,1580.6 2289.4,1581.4 2330.8,1583.2 2371.8,1585.9 2412.4,1589.4  " style="stroke-opacity: 1.000000; stroke-width: 5.0; stroke: rgb(251,106,74); fill: none"  />
<path d="M 1059.2,2303.8 L 1078.4,2269.8 1098.6,2236.0 1119.7,2202.6 1141.8,2169.8 1164.9,2137.6 1188.9,2106.3 1213.9,2075.8 1239.8,2046.4 1266.7,2018.1 1294.4,1991.1 1323.0,1965.3 1352.5,1941.0 1382.8,1918.1 1413.9,1896.8 1445.7,1877.1 1478.3,1859.0 1511.7,1842.6 1545.6,1827.9 1580.3,1815.0 1615.4,1803.9 1651.2,1794.6 1687.4,1787.0 1724.1,1781.3 1761.2,1777.3 1798.6,1775.2 1836.3,1774.7 1874.2,1776.0 1912.3,1779.0 1950.6,1783.6 1988.8,1789.8 2027.0,1797.5 2065.1,1806.7 2103.1,1817.2 2140.8,1829.1 2178.1,1842.1 2215.1,1856.3 2251.6,1871.4 2287.5,1887.5 2322.8,1904.3  " style="stroke-opacity: 1.000000; stroke-width: 5.0; stroke: rgb(251,106,74); fill: none"  />
<path d="M 1059.2,2303.8 L 1078.0,2270.5 1097.8,2237.4 1118.5,2204.8 1140.1,2172.9 1162.6,2141.8 1186.0,2111.5 1210.2,2082.4 1235.4,2054.4 1261.3,2027.7 1288.0,2002.5 1315.6,1978.7 1343.8,1956.6 1372.8,1936.1 1402.5,1917.3 1432.8,1900.4 1463.8,1885.3 1495.3,1872.2 1527.4,1860.9 1560.0,1851.7 1593.1,1844.4 1626.5,1839.1 1660.4,1835.9 1694.5,1834.6 1729.0,1835.3 1763.6,1837.9 1798.4,1842.5 1833.3,1848.9 1868.3,1857.2 1903.2,1867.2 1938.1,1878.9 1972.8,1892.2 2007.4,1907.1 2041.6,1923.4 2075.5,1941.0 2109.0,1959.8 2142.0,1979.7 2174.5,2000.6 2206.3,2022.3 2237.4,2044.7  " style="stroke-opacity: 1.000000; stroke-width: 5.0; stroke: rgb(251,106,74); fill: none"  />
<path d="M 2329.1,1108.8 L 2288.9,1128.0 2248.6,1147.7 2208.3,1167.9 2167.9,1188.6 2127.6,1209.8 2087.3,1231.6 2047.1,1253.9 2006.9,1276.7 1966.9,1300.1 1927.1,1324.0 1887.4,1348.5 1848.0,1373.4 1808.8,1399.0 1769.8,1425.0 1731.1,1451.6 1692.7,1478.7 1654.6,1506.3 1616.8,1534.4 1579.4,1563.0 1542.3,1592.1 1505.6,1621.6 1469.3,1651.6 1433.4,1682.1 1398.0,1712.9 1363.0,1744.2 1328.4,1775.9 1294.3,1807.9 1260.6,1840.3 1227.4,1873.0 1194.7,1906.0 1162.5,1939.2 1130.8,1972.8 1099.6,2006.5 1068.8,2040.5 1038.6,2074.6 1008.9,2108.9 979.7,2143.3 951.0,2177.7 922.8,2212.2  " style="stroke-opacity: 1.000000; stroke-width: 5.0; stroke: rgb(251,106,74); fill: none"  />
<path d="M 2329.1,1108.8 L 2288.7,1127.6 2247.9,1146.2 2206.7,1164.5 2165.0,1182.5 2123.0,1200.1 2080.6,1217.4 2037.8,1234.2 1994.6,1250.7 1951.2,1266.7 1907.4,1282.2 1863.3,1297.3 1818.9,1311.9 1774.3,1325.9 1729.4,1339.4 1684.3,1352.4 1639.0,1364.9 1593.4,1376.7 1547.7,1388.0 1501.8,1398.7 1455.8,1408.8 1409.7,1418.4 1363.5,1427.3 1317.2,1435.6 1270.8,1443.4 1224.4,1450.5 1178.0,1457.1 1131.6,1463.0 1085.2,1468.4 1038.8,1473.3 992.6,1477.5 946.4,1481.2 900.3,1484.4 854.4,1487.0 808.7,1489.1 763.1,1490.8 717.8,1491.9 672.7,1492.6 627.8,1492.9 583.3,1492.7  " style="stroke-opacity: 1.000000; stroke-width: 5.0; stroke: rgb(251,106,74); fill: none"  />
<path d="M 2329.1,1108.8 L 2290.4,1126.7 2251.1,1144.1 2211.2,1160.9 2170.7,1177.2 2129.7,1192.9 2088.1,1207.8 2046.1,1222.0 2003.6,1235.4 1960.7,1248.0 1917.5,1259.7 1873.8,1270.5 1829.9,1280.4 1785.7,1289.3 1741.2,1297.2 1696.5,1304.1 1651.6,1310.0 1606.5,1314.9 1561.4,1318.7 1516.1,1321.4 1470.8,1323.1 1425.4,1323.7 1380.1,1323.2 1334.8,1321.7 1289.6,1319.2 1244.5,1315.6 1199.5,1311.0 1154.8,1305.3 1110.2,1298.7 1065.9,1291.2 1021.9,1282.7 978.2,1273.3 934.9,1263.1 891.9,1252.0 849.4,1240.2 807.3,1227.6 765.7,1214.4 724.7,1200.5 684.2,1186.1 644.3,1171.1  " style="stroke-opacity: 1.000000; stroke-width: 5.0; stroke: rgb(251,106,74); fill: none"  />
<path d="M 922.8,2212.2 L 951.0,2177.7 979.7,2143.3 1008.9,2108.9 1038.6,2074.6 1068.8,2040.5 1099.6,2006.5 1130.8,1972.8 1162.5,1939.2 1194.7,1906.0 1227.4,1873.0 1260.6,1840.3 1294.3,1807.9 1328.4,1775.9 1363.0,1744.2 1398.0,1712.9 1433.4,1682.1 1469.3,1651.6 1505.6,1621.6 1542.3,1592.1 1579.4,1563.0 1616.8,1534.4 1654.6,1506.3 1692.7,1478.7 1731.1,1451.6 1769.8,1425.0 1808.8,1399.0 1848.0,1373.4 1887.4,1348.5 1927.1,1324.0 1966.9,1300.1 2006.9,1276.7 2047.1,1253.9 2087.3,1231.6 2127.6,1209.8 2167.9,1188.6 2208.3,1167.9 2248.6,1147.7 2288.9,1128.0 2329.1,1108.8  " style="stroke-opacity: 1.000000; stroke-width: 5.0; stroke: rgb(251,106,74); fill: none"  />
<path d="M 922.8,2212.2 L 950.4,2178.5 978.7,2144.9 1007.7,2111.5 1037.3,2078.2 1067.5,2045.2 1098.5,2012.4 1130.0,1980.0 1162.3,1947.9 1195.1,1916.3 1228.6,1885.0 1262.6,1854.3 1297.3,1824.0 1332.6,1794.3 1368.5,1765.2 1404.9,1736.6 1441.8,1708.6 1479.3,1681.3 1517.3,1654.7 1555.8,1628.7 1594.8,1603.4 1634.2,1578.9 1674.0,1555.0 1714.2,1531.9 1754.8,1509.6 1795.7,1487.9 1837.0,1467.1 1878.5,1447.0 1920.3,1427.6 1962.2,1409.0 2004.4,1391.2 2046.7,1374.1 2089.1,1357.8 2131.6,1342.2 2174.1,1327.3 2216.6,1313.1 2259.0,1299.6 2301.4,1286.8 2343.6,1274.6 2385.6,1263.1  " style="stroke-opacity: 1.000000; stroke-width: 5.0; stroke: rgb(251,106,74); fill: none"  />
<path d="M 922.8,2212.2 L 949.8,2179.3 977.7,2146.6 1006.3,2114.1 1035.8,2081.8 1065.9,2049.9 1096.9,2018.4 1128.6,1987.4 1161.0,1956.9 1194.2,1927.0 1228.1,1897.6 1262.7,1869.0 1298.1,1841.0 1334.0,1813.8 1370.7,1787.4 1408.0,1761.7 1445.9,1736.9 1484.3,1713.0 1523.4,1690.0 1563.0,1667.9 1603.1,1646.7 1643.7,1626.5 1684.7,1607.2 1726.2,1588.9 1768.0,1571.6 1810.2,1555.3 1852.7,1540.0 1895.5,1525.6 1938.5,1512.2 1981.7,1499.8 2025.0,1488.3 2068.5,1477.8 2112.0,1468.2 2155.5,1459.6 2198.9,1451.8 2242.3,1444.8 2285.5,1438.7 2328.5,1433.4 2371.3,1428.9 2413.7,1425.1  " style="stroke-opacity: 1.000000; stroke-width: 5.0; stroke: rgb(251,106,74); fill: none"  />
<path d="M 922.8,2212.2 L 949.3,2180.1 976.7,2148.2 1004.9,2116.6 1034.1,2085.4 1064.0,2054.6 1094.8,2024.4 1126.4,1994.8 1158.8,1965.9 1192.1,1937.8 1226.1,1910.4 1260.8,1884.0 1296.3,1858.4 1332.5,1833.8 1369.4,1810.1 1407.0,1787.6 1445.2,1766.1 1484.0,1745.7 1523.4,1726.4 1563.3,1708.4 1603.8,1691.4 1644.7,1675.7 1686.1,1661.2 1727.9,1647.9 1770.0,1635.8 1812.5,1624.9 1855.2,1615.2 1898.2,1606.8 1941.3,1599.5 1984.6,1593.3 2027.9,1588.3 2071.3,1584.5 2114.6,1581.7 2157.9,1580.0 2201.0,1579.3 2243.9,1579.5 2286.6,1580.7 2328.9,1582.8 2370.9,1585.7 2412.4,1589.4  " style="stroke-opacity: 1.000000; stroke-width: 5.0; stroke: rgb(251,106,74); fill: none"  />
<path d="M 804.9,2097.7 L 837.0,2069.7 868.9,2040.9 900.5,2011.3 931.9,1980.9 962.9,1949.8 993.5,1918.0 1023.6,1885.4 1053.1,1852.1 1082.1,1818.0 1110.4,1783.3 1138.1,1747.9 1165.0,1711.8 1191.2,1675.0 1216.5,1637.6 1241.1,1599.6 1264.7,1561.0 1287.5,1521.8 1309.4,1482.1 1330.4,1441.9 1350.4,1401.2 1369.4,1360.0 1387.5,1318.5 1404.5,1276.5 1420.6,1234.2 1435.7,1191.5 1449.8,1148.6 1462.9,1105.4 1475.1,1062.0 1486.2,1018.5 1496.4,974.8 1505.7,931.1 1514.0,887.4 1521.4,843.6 1527.9,800.0 1533.6,756.4 1538.4,713.1 1542.5,669.9 1545.8,627.1 1548.4,584.5  " style="stroke-opacity: 1.000000; stroke-width: 5.0; stroke: rgb(251,106,74); fill: none"  />
<path d="M 804.9,2097.7 L 837.7,2069.1 870.5,2039.8 903.1,2009.9 935.5,1979.3 967.6,1948.1 999.4,1916.2 1030.9,1883.7 1062.1,1850.6 1092.8,1816.9 1123.0,1782.5 1152.8,1747.5 1182.0,1712.0 1210.7,1675.9 1238.8,1639.2 1266.3,1601.9 1293.1,1564.2 1319.3,1525.9 1344.9,1487.2 1369.7,1447.9 1393.8,1408.3 1417.3,1368.2 1439.9,1327.7 1461.9,1286.8 1483.0,1245.6 1503.5,1204.0 1523.1,1162.2 1542.0,1120.1 1560.1,1077.8 1577.5,1035.3 1594.1,992.7 1609.9,949.9 1625.1,907.0 1639.4,864.1 1653.1,821.2 1666.0,778.3 1678.3,735.5 1689.8,692.8 1700.8,650.2 1711.1,607.9  " style="stroke-opacity: 1.000000; stroke-width: 5.0; stroke: rgb(251,106,74); fill: none"  />
<path d="M 804.9,2097.7 L 838.1,2069.5 871.9,2041.5 906.4,2013.7 941.5,1986.3 977.2,1959.2 1013.4,1932.5 1050.3,1906.2 1087.7,1880.4 1125.7,1855.1 1164.2,1830.4 1203.2,1806.2 1242.7,1782.6 1282.8,1759.7 1323.2,1737.4 1364.2,1715.8 1405.5,1694.9 1447.3,1674.7 1489.4,1655.3 1532.0,1636.6 1574.8,1618.7 1617.9,1601.6 1661.4,1585.2 1705.1,1569.7 1749.0,1554.9 1793.1,1540.9 1837.4,1527.8 1881.9,1515.4 1926.4,1503.8 1971.0,1493.0 2015.7,1483.0 2060.4,1473.8 2105.0,1465.3 2149.6,1457.5 2194.1,1450.4 2238.5,1444.1 2282.6,1438.4 2326.6,1433.3 2370.3,1428.9 2413.7,1425.1  " style="stroke-opacity: 1.000000; stroke-width: 5.0; stroke: rgb(251,106,74); fill: none"  />
<path d="M 804.9,2097.7 L 835.4,2072.0 866.8,2046.9 899.0,2022.4 932.0,1998.7 965.7,1975.8 1000.1,1953.9 1035.1,1933.0 1070.8,1913.3 1107.0,1894.8 1143.8,1877.7 1181.0,1861.9 1218.7,1847.5 1256.7,1834.6 1295.1,1823.3 1333.9,1813.6 1372.8,1805.4 1412.1,1798.9 1451.4,1794.1 1490.9,1790.9 1530.5,1789.5 1570.2,1789.7 1609.8,1791.6 1649.4,1795.2 1688.8,1800.4 1728.2,1807.3 1767.3,1815.8 1806.2,1825.8 1844.9,1837.3 1883.1,1850.3 1921.1,1864.7 1958.6,1880.5 1995.6,1897.5 2032.1,1915.7 2068.0,1935.0 2103.3,1955.3 2137.9,1976.6 2171.9,1998.6 2205.0,2021.4 2237.4,2044.7  " style="stroke-opacity: 1.000000; stroke-width: 5.0; stroke: rgb(251,106,74); fill: none"  />
<path d="M 2385.6,1263.1 L 2343.6,1274.6 2301.4,1286.8 2259.0,1299.6 2216.6,1313.1 2174.1,1327.3 2131.6,1342.2 2089.1,1357.8 2046.7,1374.1 2004.4,1391.2 1962.2,1409.0 1920.3,1427.6 1878.5,1447.0 1837.0,1467.1 1795.7,1487.9 1754.8,1509.6 1714.2,1531.9 1674.0,1555.0 1634.2,1578.9 1594.8,1603.4 1555.8,1628.7 1517.3,1654.7 1479.3,1681.3 1441.8,1708.6 1404.9,1736.6 1368.5,1765.2 1332.6,1794.3 1297.3,1824.0 1262.6,1854.3 1228.6,1885.0 1195.1,1916.3 1162.3,1947.9 1130.0,1980.0 1098.5,2012.4 1067.5,2045.2 1037.3,2078.2 1007.7,2111.5 978.7,2144.9 950.4,2178.5 922.8,2212.2  " style="stroke-opacity: 1.000000; stroke-width: 5.0; stroke: rgb(251,106,74); fill: none"  />
<path d="M 2413.7,1425.1 L 2372.2,1428.8 2330.4,1433.5 2288.4,1439.0 2246.2,1445.4 2203.9,1452.8 2161.6,1461.2 2119.3,1470.6 2077.2,1481.1 2035.2,1492.7 1993.4,1505.3 1952.0,1519.1 1910.8,1533.9 1870.1,1550.0 1829.8,1567.1 1789.9,1585.4 1750.6,1604.8 1711.9,1625.4 1673.8,1647.0 1636.3,1669.8 1599.5,1693.7 1563.5,1718.6 1528.1,1744.6 1493.6,1771.6 1459.8,1799.6 1426.9,1828.5 1394.8,1858.3 1363.6,1889.0 1333.2,1920.5 1303.7,1952.8 1275.2,1985.7 1247.5,2019.4 1220.8,2053.6 1195.0,2088.4 1170.0,2123.6 1146.1,2159.2 1123.0,2195.1 1100.8,2231.2 1079.6,2267.5 1059.2,2303.8  " style="stroke-opacity: 1.000000; stroke-width: 5.0; stroke: rgb(251,106,74); fill: none"  />
<path d="M 2413.7,1425.1 L 2371.3,1428.9 2328.5,1433.4 2285.5,1438.7 2242.3,1444.8 2198.9,1451.8 2155.5,1459.6 2112.0,1468.2 2068.5,1477.8 2025.0,1488.3 1981.7,1499.8 1938.5,1512.2 1895.5,1525.6 1852.7,1540.0 1810.2,1555.3 1768.0,1571.6 1726.2,1588.9 1684.7,1607.2 1643.7,1626.5 1603.1,1646.7 1563.0,1667.9 1523.4,1690.0 1484.3,1713.0 1445.9,1736.9 1408.0,1761.7 1370.7,1787.4 1334.0,1813.8 1298.1,1841.0 1262.7,1869.0 1228.1,1897.6 1194.2,1927.0 1161.0,1956.9 1128.6,1987.4 1096.9,2018.4 1065.9,2049.9 1035.8,2081.8 1006.3,2114.1 977.7,2146.6 949.8,2179.3 922.8,2212.2  " style="stroke-opacity: 1.000000; stroke-width: 5.0; stroke: rgb(251,106,74); fill: none"  />
<path d="M 2413.7,1425.1 L 2370.3,1428.9 2326.6,1433.3 2282.6,1438.4 2238.5,1444.1 2194.1,1450.4 2149.6,1457.5 2105.0,1465.3 2060.4,1473.8 2015.7,1483.0 1971.0,1493.0 1926.4,1503.8 1881.9,1515.4 1837.4,1527.8 1793.1,1540.9 1749.0,1554.9 1705.1,1569.7 1661.4,1585.2 1617.9,1601.6 1574.8,1618.7 1532.0,1636.6 1489.4,1655.3 1447.3,1674.7 1405.5,1694.9 1364.2,1715.8 1323.2,1737.4 1282.8,1759.7 1242.7,1782.6 1203.2,1806.2 1164.2,1830.4 1125.7,1855.1 1087.7,1880.4 1050.3,1906.2 1013.4,1932.5 977.2,1959.2 941.5,1986.3 906.4,2013.7 871.9,2041.5 838.1,2069.5 804.9,2097.7  " style="stroke-opacity: 1.000000; stroke-width: 5.0; stroke: rgb(251,106,74); fill: none"  />
<path d="M 2413.7,1425.1 L 2369.3,1428.5 2324.5,1431.6 2279.5,1434.2 2234.2,1436.4 2188.6,1438.1 2142.9,1439.4 2096.9,1440.1 2050.7,1440.4 2004.4,1440.1 1957.9,1439.3 1911.4,1437.9 1864.7,1435.9 1818.0,1433.4 1771.2,1430.3 1724.4,1426.6 1677.6,1422.3 1630.8,1417.4 1584.0,1411.9 1537.3,1405.8 1490.7,1399.1 1444.1,1391.8 1397.7,1383.9 1351.4,1375.5 1305.3,1366.4 1259.4,1356.8 1213.6,1346.7 1168.0,1335.9 1122.7,1324.7 1077.6,1312.9 1032.8,1300.6 988.3,1287.9 944.1,1274.7 900.1,1261.0 856.6,1246.9 813.3,1232.4 770.5,1217.6 728.0,1202.4 685.9,1186.9 644.3,1171.1  " style="stroke-opacity: 1.000000; stroke-width: 5.0; stroke: rgb(251,106,74); fill: none"  />
<path d="M 2412.4,1589.4 L 2371.8,1585.9 2330.8,1583.2 2289.4,1581.4 2247.7,1580.6 2205.8,1580.9 2163.9,1582.2 2121.8,1584.7 2079.8,1588.4 2037.9,1593.4 1996.2,1599.5 1954.7,1607.0 1913.4,1615.8 1872.5,1625.9 1832.0,1637.4 1792.0,1650.2 1752.4,1664.4 1713.4,1680.0 1675.0,1696.9 1637.3,1715.1 1600.2,1734.7 1563.8,1755.6 1528.2,1777.7 1493.4,1801.2 1459.3,1825.8 1426.2,1851.7 1393.9,1878.6 1362.4,1906.7 1331.9,1935.8 1302.3,1965.9 1273.7,1996.8 1246.0,2028.7 1219.2,2061.3 1193.5,2094.6 1168.7,2128.5 1144.8,2162.9 1122.0,2197.7 1100.1,2232.9 1079.2,2268.3 1059.2,2303.8  " style="stroke-opacity: 1.000000; stroke-width: 5.0; stroke: rgb(251,106,74); fill: none"  />
<path d="M 2412.4,1589.4 L 2370.9,1585.7 2328.9,1582.8 2286.6,1580.7 2243.9,1579.5 2201.0,1579.3 2157.9,1580.0 2114.6,1581.7 2071.3,1584.5 2027.9,1588.3 1984.6,1593.3 1941.3,1599.5 1898.2,1606.8 1855.2,1615.2 1812.5,1624.9 1770.0,1635.8 1727.9,1647.9 1686.1,1661.2 1644.7,1675.7 1603.8,1691.4 1563.3,1708.4 1523.4,1726.4 1484.0,1745.7 1445.2,1766.1 1407.0,1787.6 1369.4,1810.1 1332.5,1833.8 1296.3,1858.4 1260.8,1884.0 1226.1,1910.4 1192.1,1937.8 1158.8,1965.9 1126.4,1994.8 1094.8,2024.4 1064.0,2054.6 1034.1,2085.4 1004.9,2116.6 976.7,2148.2 949.3,2180.1 922.8,2212.2  " style="stroke-opacity: 1.000000; stroke-width: 5.0; stroke: rgb(251,106,74); fill: none"  />
<path d="M 2412.4,1589.4 L 2369.0,1584.9 2325.4,1579.8 2281.6,1574.0 2237.5,1567.6 2193.2,1560.6 2148.9,1552.8 2104.4,1544.3 2059.9,1535.1 2015.4,1525.1 1970.9,1514.4 1926.4,1502.9 1882.1,1490.6 1837.8,1477.6 1793.8,1463.7 1749.8,1449.0 1706.2,1433.6 1662.7,1417.3 1619.5,1400.3 1576.7,1382.5 1534.1,1363.9 1491.9,1344.6 1450.1,1324.5 1408.6,1303.6 1367.6,1282.1 1327.0,1259.8 1286.9,1236.9 1247.2,1213.3 1208.1,1189.1 1169.4,1164.3 1131.3,1139.0 1093.8,1113.1 1056.8,1086.7 1020.3,1059.8 984.5,1032.6 949.2,1004.9 914.6,976.9 880.6,948.6 847.2,920.1 814.4,891.4  " style="stroke-opacity: 1.000000; stroke-width: 5.0; stroke: rgb(251,106,74); fill: none"  />
<path d="M 583.3,1492.7 L 627.8,1493.3 672.7,1494.3 717.7,1495.7 763.1,1497.5 808.6,1499.9 854.3,1502.8 900.2,1506.1 946.2,1510.0 992.3,1514.4 1038.5,1519.4 1084.7,1525.0 1131.0,1531.1 1177.3,1537.8 1223.6,1545.1 1269.9,1553.0 1316.2,1561.5 1362.3,1570.5 1408.4,1580.2 1454.4,1590.5 1500.2,1601.3 1545.9,1612.7 1591.5,1624.8 1636.8,1637.3 1681.9,1650.5 1726.8,1664.2 1771.5,1678.4 1815.9,1693.2 1860.1,1708.4 1903.9,1724.2 1947.4,1740.4 1990.6,1757.1 2033.5,1774.3 2076.0,1791.8 2118.2,1809.7 2159.9,1828.0 2201.3,1846.7 2242.2,1865.6 2282.7,1884.8 2322.8,1904.3  " style="stroke-opacity: 1.000000; stroke-width: 5.0; stroke: rgb(251,106,74); fill: none"  />
<path d="M 599.3,1329.2 L 637.0,1335.9 675.1,1341.6 713.4,1346.4 751.8,1350.0 790.1,1352.4 828.3,1353.6 866.3,1353.4 903.8,1351.8 940.9,1348.7 977.4,1344.1 1013.2,1338.0 1048.3,1330.3 1082.5,1320.9 1115.9,1309.9 1148.2,1297.3 1179.6,1282.9 1209.8,1267.0 1238.8,1249.3 1266.7,1230.1 1293.3,1209.2 1318.7,1186.7 1342.7,1162.7 1365.4,1137.1 1386.8,1110.1 1406.8,1081.7 1425.4,1051.9 1442.6,1020.9 1458.5,988.6 1472.9,955.3 1486.1,920.9 1497.9,885.7 1508.4,849.6 1517.6,812.8 1525.6,775.4 1532.3,737.6 1537.9,699.4 1542.4,661.1 1545.9,622.8 1548.4,584.5  " style="stroke-opacity: 1.000000; stroke-width: 5.0; stroke: rgb(251,106,74); fill: none"  />
<path d="M 599.3,1329.2 L 641.2,1336.8 683.6,1343.8 726.5,1350.1 769.8,1355.7 813.4,1360.6 857.4,1364.6 901.6,1367.8 946.1,1370.1 990.8,1371.6 1035.6,1372.0 1080.6,1371.6 1125.6,1370.1 1170.6,1367.6 1215.7,1364.2 1260.7,1359.6 1305.6,1354.1 1350.5,1347.5 1395.1,1339.8 1439.6,1331.1 1483.9,1321.4 1528.0,1310.6 1571.8,1298.8 1615.2,1286.0 1658.3,1272.2 1701.1,1257.4 1743.5,1241.7 1785.4,1225.0 1826.9,1207.4 1867.9,1189.0 1908.3,1169.8 1948.3,1149.7 1987.7,1129.0 2026.5,1107.5 2064.7,1085.4 2102.3,1062.7 2139.2,1039.4 2175.5,1015.7 2211.1,991.5 2245.9,967.0  " style="stroke-opacity: 1.000000; stroke-width: 5.0; stroke: rgb(251,106,74); fill: none"  />
<path d="M 644.3,1171.1 L 684.2,1186.1 724.7,1200.5 765.7,1214.4 807.3,1227.6 849.4,1240.2 891.9,1252.0 934.9,1263.1 978.2,1273.3 1021.9,1282.7 1065.9,1291.2 1110.2,1298.7 1154.8,1305.3 1199.5,1311.0 1244.5,1315.6 1289.6,1319.2 1334.8,1321.7 1380.1,1323.2 1425.4,1323.7 1470.8,1323.1 1516.1,1321.4 1561.4,1318.7 1606.5,1314.9 1651.6,1310.0 1696.5,1304.1 1741.2,1297.2 1785.7,1289.3 1829.9,1280.4 1873.8,1270.5 1917.5,1259.7 1960.7,1248.0 2003.6,1235.4 2046.1,1222.0 2088.1,1207.8 2129.7,1192.9 2170.7,1177.2 2211.2,1160.9 2251.1,1144.1 2290.4,1126.7 2329.1,1108.8  " style="stroke-opacity: 1.000000; stroke-width: 5.0; stroke: rgb(251,106,74); fill: none"  />
<path d="M 644.3,1171.1 L 687.7,1187.8 731.1,1204.7 774.6,1221.6 818.1,1238.7 861.7,1255.8 905.2,1273.1 948.8,1290.5 992.3,1308.0 1035.9,1325.6 1079.5,1343.4 1123.0,1361.2 1166.5,1379.2 1210.1,1397.3 1253.6,1415.5 1297.0,1433.8 1340.5,1452.3 1383.9,1470.9 1427.3,1489.5 1470.6,1508.3 1513.9,1527.2 1557.1,1546.3 1600.3,1565.4 1643.4,1584.6 1686.4,1603.9 1729.4,1623.4 1772.4,1642.9 1815.2,1662.6 1858.0,1682.3 1900.7,1702.1 1943.3,1722.0 1985.8,1742.0 2028.3,1762.0 2070.6,1782.2 2112.9,1802.4 2155.1,1822.7 2197.2,1843.0 2239.1,1863.4 2281.0,1883.8 2322.8,1904.3  " style="stroke-opacity: 1.000000; stroke-width: 5.0; stroke: rgb(251,106,74); fill: none"  />
<path d="M 2322.8,1904.3 L 2287.5,1887.5 2251.6,1871.4 2215.1,1856.3 2178.1,1842.1 2140.8,1829.1 2103.1,1817.2 2065.1,1806.7 2027.0,1797.5 1988.8,1789.8 1950.6,1783.6 1912.3,1779.0 1874.2,1776.0 1836.3,1774.7 1798.6,1775.2 1761.2,1777.3 1724.1,1781.3 1687.4,1787.0 1651.2,1794.6 1615.4,1803.9 1580.3,1815.0 1545.6,1827.9 1511.7,1842.6 1478.3,1859.0 1445.7,1877.1 1413.9,1896.8 1382.8,1918.1 1352.5,1941.0 1323.0,1965.3 1294.4,1991.1 1266.7,2018.1 1239.8,2046.4 1213.9,2075.8 1188.9,2106.3 1164.9,2137.6 1141.8,2169.8 1119.7,2202.6 1098.6,2236.0 1078.4,2269.8 1059.2,2303.8  " style="stroke-opacity: 1.000000; stroke-width: 5.0; stroke: rgb(251,106,74); fill: none"  />
<path d="M 2322.8,1904.3 L 2286.8,1887.1 2250.1,1870.6 2212.8,1855.0 2174.9,1840.3 2136.5,1826.6 2097.7,1814.0 2058.6,1802.6 2019.1,1792.5 1979.4,1783.7 1939.5,1776.3 1899.5,1770.3 1859.5,1765.9 1819.4,1763.0 1779.4,1761.6 1739.4,1761.9 1699.7,1763.8 1660.1,1767.3 1620.8,1772.5 1581.7,1779.4 1543.0,1787.9 1504.7,1798.0 1466.8,1809.8 1429.4,1823.2 1392.5,1838.2 1356.2,1854.7 1320.4,1872.7 1285.2,1892.2 1250.7,1913.0 1216.9,1935.2 1183.8,1958.7 1151.5,1983.3 1119.9,2009.1 1089.2,2035.8 1059.2,2063.5 1030.1,2092.1 1001.9,2121.3 974.6,2151.2 948.2,2181.5 922.8,2212.2  " style="stroke-opacity: 1.000000; stroke-width: 5.0; stroke: rgb(251,106,74); fill: none"  />
<path d="M 2322.8,1904.3 L 2282.7,1884.8 2242.2,1865.6 2201.3,1846.7 2159.9,1828.0 2118.2,1809.7 2076.0,1791.8 2033.5,1774.3 1990.6,1757.1 1947.4,1740.4 1903.9,1724.2 1860.1,1708.4 1815.9,1693.2 1771.5,1678.4 1726.8,1664.2 1681.9,1650.5 1636.8,1637.3 1591.5,1624.8 1545.9,1612.7 1500.2,1601.3 1454.4,1590.5 1408.4,1580.2 1362.3,1570.5 1316.2,1561.5 1269.9,1553.0 1223.6,1545.1 1177.3,1537.8 1131.0,1531.1 1084.7,1525.0 1038.5,1519.4 992.3,1514.4 946.2,1510.0 900.2,1506.1 854.3,1502.8 808.6,1499.9 763.1,1497.5 717.7,1495.7 672.7,1494.3 627.8,1493.3 583.3,1492.7  " style="stroke-opacity: 1.000000; stroke-width: 5.0; stroke: rgb(251,106,74); fill: none"  />
<path d="M 2322.8,1904.3 L 2281.0,1883.8 2239.1,1863.4 2197.2,1843.0 2155.1,1822.7 2112.9,1802.4 2070.6,1782.2 2028.3,1762.0 1985.8,1742.0 1943.3,1722.0 1900.7,1702.1 1858.0,1682.3 1815.2,1662.6 1772.4,1642.9 1729.4,1623.4 1686.4,1603.9 1643.4,1584.6 1600.3,1565.4 1557.1,1546.3 1513.9,1527.2 1470.6,1508.3 1427.3,1489.5 1383.9,1470.9 1340.5,1452.3 1297.0,1433.8 1253.6,1415.5 1210.1,1397.3 1166.5,1379.2 1123.0,1361.2 1079.5,1343.4 1035.9,1325.6 992.3,1308.0 948.8,1290.5 905.2,1273.1 861.7,1255.8 818.1,1238.7 774.6,1221.6 731.1,1204.7 687.7,1187.8 644.3,1171.1  " style="stroke-opacity: 1.000000; stroke-width: 5.0; stroke: rgb(251,106,74); fill: none"  />
<path d="M 2237.4,2044.7 L 2205.0,2021.4 2171.9,1998.6 2137.9,1976.6 2103.3,1955.3 2068.0,1935.0 2032.1,1915.7 1995.6,1897.5 1958.6,1880.5 1921.1,1864.7 1883.1,1850.3 1844.9,1837.3 1806.2,1825.8 1767.3,1815.8 1728.2,1807.3 1688.8,1800.4 1649.4,1795.2 1609.8,1791.6 1570.2,1789.7 1530.5,1789.5 1490.9,1790.9 1451.4,1794.1 1412.1,1798.9 1372.8,1805.4 1333.9,1813.6 1295.1,1823.3 1256.7,1834.6 1218.7,1847.5 1181.0,1861.9 1143.8,1877.7 1107.0,1894.8 1070.8,1913.3 1035.1,1933.0 1000.1,1953.9 965.7,1975.8 932.0,1998.7 899.0,2022.4 866.8,2046.9 835.4,2072.0 804.9,2097.7  " style="stroke-opacity: 1.000000; stroke-width: 5.0; stroke: rgb(251,106,74); fill: none"  />
<path d="M 814.4,891.4 L 847.2,920.1 880.6,948.6 914.6,976.9 949.2,1004.9 984.5,1032.6 1020.3,1059.8 1056.8,1086.7 1093.8,1113.1 1131.3,1139.0 1169.4,1164.3 1208.1,1189.1 1247.2,1213.3 1286.9,1236.9 1327.0,1259.8 1367.6,1282.1 1408.6,1303.6 1450.1,1324.5 1491.9,1344.6 1534.1,1363.9 1576.7,1382.5 1619.5,1400.3 1662.7,1417.3 1706.2,1433.6 1749.8,1449.0 1793.8,1463.7 1837.8,1477.6 1882.1,1490.6 1926.4,1502.9 1970.9,1514.4 2015.4,1525.1 2059.9,1535.1 2104.4,1544.3 2148.9,1552.8 2193.2,1560.6 2237.5,1567.6 2281.6,1574.0 2325.4,1579.8 2369.0,1584.9 2412.4,1589.4  " style="stroke-opacity: 1.000000; stroke-width: 5.0; stroke: rgb(251,106,74); fill: none"  />
</g>
<g id="track_0">
<path d="M 1548.4,584.5 L 1546.6,619.7 1545.0,654.7 1543.6,689.2 1542.5,722.9 1541.7,755.7 1541.1,787.2 1540.9,817.4 1540.9,846.0 1541.3,872.9 1542.1,898.0 1543.3,920.9 1544.8,941.8 1546.7,960.3 1549.0,976.5 1551.8,990.2 1554.9,1001.4 1558.4,1010.1 1562.3,1016.1 1566.6,1019.4 1571.3,1020.1 1576.3,1018.1 1581.8,1013.4 1587.6,1006.1 1593.7,996.3 1600.2,983.8 1607.0,969.0 1614.0,951.7 1621.3,932.1 1628.9,910.4 1636.7,886.6 1644.7,860.9 1652.8,833.5 1661.0,804.4 1669.4,774.0 1677.8,742.3 1686.2,709.6 1694.6,676.2 1702.9,642.2 1711.1,607.9  " style="stroke-opacity: 1.000000; stroke-width: 5.0; stroke: rgb(107,174,214); fill: none"  />
<path d="M 1548.4,584.5 L 1546.8,621.0 1546.0,657.4 1546.1,693.6 1547.1,729.3 1549.0,764.5 1552.0,798.9 1556.1,832.3 1561.2,864.7 1567.6,895.7 1575.1,925.4 1583.8,953.7 1593.8,980.2 1605.0,1005.1 1617.5,1028.2 1631.3,1049.4 1646.3,1068.6 1662.5,1085.8 1680.0,1101.0 1698.7,1114.0 1718.6,1124.9 1739.7,1133.7 1761.9,1140.3 1785.1,1144.8 1809.4,1147.1 1834.6,1147.3 1860.8,1145.4 1887.8,1141.5 1915.6,1135.6 1944.1,1127.8 1973.2,1118.2 2002.8,1106.8 2032.8,1093.8 2063.2,1079.2 2093.8,1063.3 2124.5,1046.0 2155.2,1027.6 2185.7,1008.2 2216.0,987.9 2245.9,967.0  " style="stroke-opacity: 1.000000; stroke-width: 5.0; stroke: rgb(107,174,214); fill: none"  />
<path d="M 1548.4,584.5 L 1546.6,626.1 1545.5,668.2 1545.4,710.6 1546.1,753.2 1547.7,796.1 1550.4,839.2 1554.0,882.3 1558.8,925.5 1564.6,968.7 1571.5,1011.7 1579.6,1054.7 1588.8,1097.5 1599.2,1140.0 1610.8,1182.2 1623.5,1224.2 1637.5,1265.7 1652.7,1306.8 1669.0,1347.5 1686.6,1387.7 1705.3,1427.4 1725.2,1466.5 1746.2,1505.0 1768.3,1542.8 1791.5,1580.0 1815.7,1616.5 1840.9,1652.3 1867.2,1687.4 1894.3,1721.7 1922.3,1755.3 1951.2,1788.0 1980.8,1819.9 2011.1,1851.0 2042.1,1881.3 2073.6,1910.7 2105.7,1939.2 2138.2,1966.9 2171.0,1993.7 2204.1,2019.6 2237.4,2044.7  " style="stroke-opacity: 1.000000; stroke-width: 5.0; stroke: rgb(107,174,214); fill: none"  />
<path d="M 1867.0,659.9 L 1852.6,692.3 1838.1,724.3 1823.4,755.8 1808.6,786.4 1793.8,816.0 1779.0,844.4 1764.4,871.3 1749.9,896.7 1735.6,920.3 1721.6,942.0 1708.0,961.7 1694.7,979.3 1681.8,994.6 1669.3,1007.6 1657.3,1018.2 1645.9,1026.3 1634.9,1031.9 1624.6,1034.9 1614.8,1035.3 1605.6,1033.1 1597.1,1028.4 1589.1,1021.0 1581.9,1011.2 1575.2,998.8 1569.3,984.0 1564.0,966.8 1559.3,947.3 1555.3,925.6 1551.9,901.9 1549.1,876.2 1546.9,848.7 1545.4,819.5 1544.3,788.8 1543.9,756.9 1543.9,723.8 1544.4,689.8 1545.3,655.1 1546.7,619.9 1548.4,584.5  " style="stroke-opacity: 1.000000; stroke-width: 5.0; stroke: rgb(107,174,214); fill: none"  />
<path d="M 1867.0,659.9 L 1852.9,692.7 1839.4,725.5 1826.5,758.1 1814.5,790.4 1803.4,822.2 1793.3,853.2 1784.3,883.3 1776.5,912.4 1770.1,940.4 1765.0,967.0 1761.3,992.2 1759.2,1015.9 1758.6,1038.0 1759.6,1058.4 1762.2,1077.0 1766.4,1093.7 1772.3,1108.5 1779.9,1121.3 1789.1,1132.2 1800.0,1141.0 1812.5,1147.8 1826.7,1152.5 1842.4,1155.2 1859.6,1155.9 1878.3,1154.6 1898.4,1151.4 1919.9,1146.2 1942.6,1139.2 1966.6,1130.4 1991.6,1119.9 2017.6,1107.8 2044.5,1094.2 2072.1,1079.2 2100.3,1062.9 2129.1,1045.4 2158.2,1026.9 2187.4,1007.6 2216.7,987.6 2245.9,967.0  " style="stroke-opacity: 1.000000; stroke-width: 5.0; stroke: rgb(107,174,214); fill: none"  />
<path d="M 1867.0,659.9 L 1852.8,693.0 1839.3,726.3 1826.6,759.5 1814.9,792.6 1804.1,825.2 1794.5,857.2 1786.2,888.6 1779.2,919.2 1773.6,948.7 1769.5,977.2 1767.0,1004.5 1766.2,1030.4 1767.0,1055.0 1769.6,1078.1 1773.9,1099.6 1779.9,1119.4 1787.8,1137.6 1797.5,1154.1 1808.9,1168.7 1822.2,1181.6 1837.1,1192.6 1853.9,1201.8 1872.3,1209.1 1892.3,1214.6 1913.9,1218.3 1937.1,1220.2 1961.6,1220.3 1987.6,1218.7 2014.7,1215.4 2043.1,1210.5 2072.5,1204.1 2102.8,1196.2 2133.9,1187.0 2165.7,1176.4 2198.0,1164.7 2230.7,1152.0 2263.5,1138.3 2296.4,1123.9 2329.1,1108.8  " style="stroke-opacity: 1.000000; stroke-width: 5.0; stroke: rgb(107,174,214); fill: none"  />
<path d="M 1867.0,659.9 L 1852.7,693.5 1839.2,727.3 1826.5,761.2 1814.9,795.0 1804.3,828.6 1795.0,861.9 1787.1,894.6 1780.6,926.7 1775.6,958.0 1772.2,988.5 1770.4,1017.9 1770.4,1046.3 1772.2,1073.6 1775.8,1099.6 1781.2,1124.2 1788.5,1147.5 1797.7,1169.3 1808.7,1189.7 1821.7,1208.5 1836.5,1225.7 1853.1,1241.3 1871.5,1255.2 1891.8,1267.6 1913.7,1278.3 1937.2,1287.3 1962.4,1294.8 1989.1,1300.6 2017.1,1304.9 2046.6,1307.6 2077.2,1308.8 2108.9,1308.6 2141.6,1306.9 2175.2,1304.0 2209.4,1299.8 2244.2,1294.4 2279.4,1287.9 2314.8,1280.5 2350.3,1272.2 2385.6,1263.1  " style="stroke-opacity: 1.000000; stroke-width: 5.0; stroke: rgb(107,174,214); fill: none"  />
<path d="M 2011.1,738.9 L 1991.3,768.2 1971.6,797.1 1952.0,825.5 1932.7,853.1 1913.7,879.8 1895.2,905.4 1877.2,929.7 1860.0,952.5 1843.5,973.8 1827.9,993.3 1813.1,1011.0 1799.4,1026.7 1786.7,1040.4 1775.2,1052.0 1764.7,1061.3 1755.5,1068.4 1747.5,1073.2 1740.8,1075.6 1735.4,1075.7 1731.2,1073.5 1728.4,1068.8 1726.8,1061.8 1726.5,1052.5 1727.6,1040.9 1729.9,1027.1 1733.4,1011.2 1738.1,993.1 1744.0,973.1 1751.0,951.1 1759.0,927.5 1768.1,902.1 1778.1,875.3 1788.9,847.1 1800.6,817.8 1812.9,787.4 1825.8,756.2 1839.2,724.4 1852.9,692.3 1867.0,659.9  " style="stroke-opacity: 1.000000; stroke-width: 5.0; stroke: rgb(107,174,214); fill: none"  />
<path d="M 1369.8,2407.5 L 1374.6,2372.4 1379.1,2337.5 1383.2,2303.0 1386.7,2269.2 1389.7,2236.2 1392.1,2204.3 1393.8,2173.7 1394.9,2144.5 1395.2,2116.9 1394.7,2091.1 1393.5,2067.1 1391.4,2045.2 1388.5,2025.4 1384.7,2007.8 1380.1,1992.5 1374.6,1979.5 1368.3,1969.0 1361.1,1961.0 1353.0,1955.5 1344.0,1952.5 1334.2,1952.1 1323.7,1954.1 1312.3,1958.7 1300.1,1965.8 1287.2,1975.2 1273.7,1987.0 1259.4,2001.1 1244.6,2017.4 1229.2,2035.8 1213.4,2056.2 1197.0,2078.5 1180.3,2102.4 1163.3,2128.0 1146.1,2154.9 1128.7,2183.1 1111.2,2212.2 1093.7,2242.2 1076.4,2272.8 1059.2,2303.8  " style="stroke-opacity: 1.000000; stroke-width: 5.0; stroke: rgb(107,174,214); fill: none"  />
<path d="M 2138.8,842.4 L 2114.2,867.8 2090.0,893.1 2066.3,918.1 2043.3,942.8 2021.1,966.9 1999.9,990.3 1979.9,1012.8 1961.1,1034.5 1943.7,1055.0 1927.8,1074.3 1913.6,1092.4 1901.0,1109.1 1890.3,1124.3 1881.4,1138.0 1874.4,1150.2 1869.3,1160.7 1866.3,1169.5 1865.3,1176.5 1866.3,1181.9 1869.4,1185.5 1874.6,1187.3 1881.7,1187.4 1890.9,1185.7 1902.0,1182.3 1915.0,1177.2 1929.9,1170.5 1946.6,1162.1 1965.0,1152.2 1985.0,1140.8 2006.5,1128.0 2029.4,1113.9 2053.6,1098.6 2078.9,1082.1 2105.2,1064.7 2132.4,1046.4 2160.2,1027.3 2188.5,1007.6 2217.2,987.5 2245.9,967.0  " style="stroke-opacity: 1.000000; stroke-width: 5.0; stroke: rgb(107,174,214); fill: none"  />
<path d="M 2138.8,842.4 L 2114.1,868.2 2089.9,894.1 2066.4,920.2 2043.8,946.2 2022.2,972.0 2001.9,997.5 1982.9,1022.5 1965.4,1047.1 1949.5,1071.0 1935.4,1094.1 1923.1,1116.5 1912.7,1137.9 1904.4,1158.3 1898.2,1177.8 1894.1,1196.1 1892.2,1213.2 1892.5,1229.1 1895.1,1243.8 1899.9,1257.2 1907.0,1269.3 1916.4,1280.0 1927.9,1289.5 1941.7,1297.5 1957.6,1304.2 1975.5,1309.6 1995.5,1313.6 2017.4,1316.3 2041.2,1317.7 2066.7,1317.9 2093.8,1316.9 2122.4,1314.7 2152.3,1311.4 2183.5,1307.0 2215.7,1301.7 2248.7,1295.4 2282.4,1288.4 2316.6,1280.5 2351.1,1272.1 2385.6,1263.1  " style="stroke-opacity: 1.000000; stroke-width: 5.0; stroke: rgb(107,174,214); fill: none"  />
<path d="M 1209.8,2369.6 L 1220.9,2336.1 1231.7,2302.8 1242.2,2270.0 1252.3,2237.8 1261.8,2206.4 1270.8,2176.2 1279.0,2147.1 1286.6,2119.5 1293.3,2093.5 1299.2,2069.1 1304.2,2046.7 1308.3,2026.2 1311.4,2007.8 1313.5,1991.6 1314.5,1977.6 1314.5,1966.0 1313.4,1956.7 1311.2,1949.9 1308.0,1945.6 1303.6,1943.7 1298.2,1944.2 1291.7,1947.3 1284.2,1952.8 1275.6,1960.7 1266.1,1970.9 1255.6,1983.4 1244.2,1998.2 1232.0,2015.1 1218.9,2034.0 1205.1,2054.9 1190.5,2077.5 1175.4,2101.8 1159.7,2127.7 1143.6,2154.8 1127.1,2183.1 1110.3,2212.3 1093.3,2242.4 1076.2,2272.9 1059.2,2303.8  " style="stroke-opacity: 1.000000; stroke-width: 5.0; stroke: rgb(107,174,214); fill: none"  />
<path d="M 1209.8,2369.6 L 1221.3,2333.8 1231.9,2297.6 1241.6,2261.1 1250.1,2224.5 1257.5,2188.0 1263.6,2151.6 1268.2,2115.4 1271.5,2079.6 1273.1,2044.3 1273.2,2009.6 1271.6,1975.5 1268.4,1942.2 1263.3,1909.7 1256.5,1878.2 1247.9,1847.6 1237.5,1818.1 1225.2,1789.7 1211.1,1762.5 1195.2,1736.5 1177.6,1711.7 1158.1,1688.2 1136.9,1666.1 1114.0,1645.3 1089.5,1625.9 1063.3,1607.8 1035.7,1591.1 1006.6,1575.9 976.2,1562.0 944.4,1549.4 911.6,1538.2 877.6,1528.4 842.7,1519.8 807.0,1512.5 770.6,1506.5 733.6,1501.6 696.2,1497.8 658.6,1495.2 620.9,1493.5 583.3,1492.7  " style="stroke-opacity: 1.000000; stroke-width: 5.0; stroke: rgb(107,174,214); fill: none"  />
<path d="M 2245.9,967.0 L 2216.7,987.6 2187.4,1007.6 2158.2,1026.9 2129.1,1045.4 2100.3,1062.9 2072.1,1079.2 2044.5,1094.2 2017.6,1107.8 1991.6,1119.9 1966.6,1130.4 1942.6,1139.2 1919.9,1146.2 1898.4,1151.4 1878.3,1154.6 1859.6,1155.9 1842.4,1155.2 1826.7,1152.5 1812.5,1147.8 1800.0,1141.0 1789.1,1132.2 1779.9,1121.3 1772.3,1108.5 1766.4,1093.7 1762.2,1077.0 1759.6,1058.4 1758.6,1038.0 1759.2,1015.9 1761.3,992.2 1765.0,967.0 1770.1,940.4 1776.5,912.4 1784.3,883.3 1793.3,853.2 1803.4,822.2 1814.5,790.4 1826.5,758.1 1839.4,725.5 1852.9,692.7 1867.0,659.9  " style="stroke-opacity: 1.000000; stroke-width: 5.0; stroke: rgb(107,174,214); fill: none"  />
<path d="M 2245.9,967.0 L 2217.2,987.5 2188.5,1007.6 2160.2,1027.3 2132.4,1046.4 2105.2,1064.7 2078.9,1082.1 2053.6,1098.6 2029.4,1113.9 2006.5,1128.0 1985.0,1140.8 1965.0,1152.2 1946.6,1162.1 1929.9,1170.5 1915.0,1177.2 1902.0,1182.3 1890.9,1185.7 1881.7,1187.4 1874.6,1187.3 1869.4,1185.5 1866.3,1181.9 1865.3,1176.5 1866.3,1169.5 1869.3,1160.7 1874.4,1150.2 1881.4,1138.0 1890.3,1124.3 1901.0,1109.1 1913.6,1092.4 1927.8,1074.3 1943.7,1055.0 1961.1,1034.5 1979.9,1012.8 1999.9,990.3 2021.1,966.9 2043.3,942.8 2066.3,918.1 2090.0,893.1 2114.2,867.8 2138.8,842.4  " style="stroke-opacity: 1.000000; stroke-width: 5.0; stroke: rgb(107,174,214); fill: none"  />
<path d="M 2245.9,967.0 L 2217.3,987.6 2188.9,1008.2 2161.1,1028.6 2134.1,1048.7 2107.9,1068.5 2082.9,1087.7 2059.1,1106.4 2036.8,1124.3 2016.0,1141.4 1997.0,1157.6 1979.7,1172.8 1964.4,1187.0 1951.1,1200.0 1939.9,1211.9 1930.8,1222.6 1924.0,1232.1 1919.4,1240.2 1917.2,1247.0 1917.3,1252.4 1919.7,1256.5 1924.4,1259.2 1931.4,1260.6 1940.7,1260.6 1952.3,1259.2 1966.0,1256.5 1981.9,1252.5 1999.8,1247.3 2019.6,1240.8 2041.3,1233.2 2064.8,1224.4 2089.8,1214.7 2116.4,1203.9 2144.2,1192.2 2173.2,1179.8 2203.2,1166.6 2234.0,1152.8 2265.4,1138.5 2297.2,1123.8 2329.1,1108.8  " style="stroke-opacity: 1.000000; stroke-width: 5.0; stroke: rgb(107,174,214); fill: none"  />
<path d="M 2245.9,967.0 L 2217.2,987.8 2188.9,1008.6 2161.1,1029.5 2134.2,1050.3 2108.3,1071.0 2083.6,1091.3 2060.3,1111.2 2038.5,1130.6 2018.3,1149.4 2000.0,1167.6 1983.5,1185.1 1969.1,1201.7 1956.8,1217.5 1946.6,1232.4 1938.8,1246.3 1933.2,1259.2 1930.0,1271.1 1929.2,1281.8 1930.8,1291.5 1934.9,1300.0 1941.3,1307.4 1950.1,1313.6 1961.3,1318.7 1974.8,1322.6 1990.5,1325.4 2008.4,1327.0 2028.5,1327.6 2050.5,1327.0 2074.4,1325.4 2100.1,1322.8 2127.5,1319.2 2156.4,1314.7 2186.6,1309.4 2217.9,1303.2 2250.3,1296.3 2283.5,1288.8 2317.2,1280.7 2351.4,1272.1 2385.6,1263.1  " style="stroke-opacity: 1.000000; stroke-width: 5.0; stroke: rgb(107,174,214); fill: none"  />
<path d="M 1059.2,2303.8 L 1076.2,2272.9 1093.3,2242.4 1110.3,2212.3 1127.1,2183.1 1143.6,2154.8 1159.7,2127.7 1175.4,2101.8 1190.5,2077.5 1205.1,2054.9 1218.9,2034.0 1232.0,2015.1 1244.2,1998.2 1255.6,1983.4 1266.1,1970.9 1275.6,1960.7 1284.2,1952.8 1291.7,1947.3 1298.2,1944.2 1303.6,1943.7 1308.0,1945.6 1311.2,1949.9 1313.4,1956.7 1314.5,1966.0 1314.5,1977.6 1313.5,1991.6 1311.4,2007.8 1308.3,2026.2 1304.2,2046.7 1299.2,2069.1 1293.3,2093.5 1286.6,2119.5 1279.0,2147.1 1270.8,2176.2 1261.8,2206.4 1252.3,2237.8 1242.2,2270.0 1231.7,2302.8 1220.9,2336.1 1209.8,2369.6  " style="stroke-opacity: 1.000000; stroke-width: 5.0; stroke: rgb(107,174,214); fill: none"  />
<path d="M 1059.2,2303.8 L 1076.1,2272.9 1092.7,2242.0 1108.9,2211.6 1124.5,2181.7 1139.5,2152.6 1153.7,2124.4 1167.0,2097.3 1179.4,2071.4 1190.7,2047.0 1200.8,2024.1 1209.8,2002.9 1217.4,1983.5 1223.7,1966.0 1228.7,1950.4 1232.2,1936.8 1234.3,1925.4 1234.8,1916.1 1233.9,1909.0 1231.5,1904.1 1227.6,1901.5 1222.1,1901.1 1215.2,1902.9 1206.8,1906.9 1197.0,1913.2 1185.8,1921.6 1173.2,1932.0 1159.4,1944.5 1144.3,1959.0 1128.0,1975.3 1110.7,1993.3 1092.4,2013.0 1073.2,2034.2 1053.1,2056.8 1032.4,2080.6 1011.1,2105.5 989.3,2131.3 967.3,2157.8 945.0,2184.9 922.8,2212.2  " style="stroke-opacity: 1.000000; stroke-width: 5.0; stroke: rgb(107,174,214); fill: none"  />
<path d="M 1059.2,2303.8 L 1076.1,2272.7 1092.6,2241.6 1108.5,2210.7 1123.7,2180.3 1138.1,2150.5 1151.5,2121.5 1163.9,2093.4 1175.1,2066.5 1185.1,2040.7 1193.7,2016.4 1201.0,1993.5 1206.8,1972.3 1211.0,1952.7 1213.7,1934.9 1214.7,1918.9 1214.1,1904.9 1211.9,1892.8 1207.9,1882.8 1202.3,1874.8 1195.0,1868.9 1186.0,1865.0 1175.3,1863.2 1163.1,1863.5 1149.2,1865.8 1133.8,1870.2 1117.0,1876.5 1098.7,1884.7 1079.1,1894.7 1058.2,1906.5 1036.2,1920.0 1013.1,1935.1 989.0,1951.7 964.1,1969.6 938.5,1988.8 912.4,2009.0 885.7,2030.2 858.8,2052.2 831.8,2074.7 804.9,2097.7  " style="stroke-opacity: 1.000000; stroke-width: 5.0; stroke: rgb(107,174,214); fill: none"  />
<path d="M 1059.2,2303.8 L 1076.6,2271.2 1093.3,2238.1 1109.1,2204.7 1123.8,2171.2 1137.4,2137.6 1149.6,2104.1 1160.4,2070.8 1169.8,2037.8 1177.5,2005.2 1183.5,1973.1 1187.7,1941.5 1190.1,1910.7 1190.6,1880.6 1189.2,1851.4 1185.7,1823.0 1180.3,1795.6 1172.9,1769.2 1163.4,1743.9 1151.9,1719.7 1138.4,1696.7 1122.9,1674.9 1105.4,1654.3 1086.0,1634.9 1064.8,1616.8 1041.7,1600.0 1016.8,1584.5 990.3,1570.2 962.2,1557.3 932.6,1545.6 901.7,1535.2 869.4,1526.0 836.1,1518.0 801.7,1511.2 766.5,1505.6 730.6,1501.0 694.1,1497.5 657.3,1495.0 620.3,1493.4 583.3,1492.7  " style="stroke-opacity: 1.000000; stroke-width: 5.0; stroke: rgb(107,174,214); fill: none"  />
<path d="M 1059.2,2303.8 L 1077.2,2270.0 1094.5,2235.6 1110.8,2200.6 1126.1,2165.2 1140.3,2129.5 1153.2,2093.5 1164.7,2057.4 1174.8,2021.2 1183.3,1985.0 1190.3,1948.9 1195.5,1912.9 1199.0,1877.1 1200.7,1841.7 1200.5,1806.6 1198.5,1771.9 1194.6,1737.7 1188.7,1704.0 1180.9,1670.9 1171.2,1638.5 1159.6,1606.7 1146.0,1575.6 1130.6,1545.3 1113.3,1515.9 1094.2,1487.2 1073.3,1459.4 1050.8,1432.5 1026.6,1406.5 1000.8,1381.5 973.6,1357.4 945.0,1334.3 915.1,1312.2 884.0,1291.0 851.8,1270.9 818.8,1251.8 784.9,1233.7 750.3,1216.5 715.3,1200.4 679.9,1185.3 644.3,1171.1  " style="stroke-opacity: 1.000000; stroke-width: 5.0; stroke: rgb(107,174,214); fill: none"  />
<path d="M 2329.1,1108.8 L 2296.4,1123.9 2263.5,1138.3 2230.7,1152.0 2198.0,1164.7 2165.7,1176.4 2133.9,1187.0 2102.8,1196.2 2072.5,1204.1 2043.1,1210.5 2014.7,1215.4 1987.6,1218.7 1961.6,1220.3 1937.1,1220.2 1913.9,1218.3 1892.3,1214.6 1872.3,1209.1 1853.9,1201.8 1837.1,1192.6 1822.2,1181.6 1808.9,1168.7 1797.5,1154.1 1787.8,1137.6 1779.9,1119.4 1773.9,1099.6 1769.6,1078.1 1767.0,1055.0 1766.2,1030.4 1767.0,1004.5 1769.5,977.2 1773.6,948.7 1779.2,919.2 1786.2,888.6 1794.5,857.2 1804.1,825.2 1814.9,792.6 1826.6,759.5 1839.3,726.3 1852.8,693.0 1867.0,659.9  " style="stroke-opacity: 1.000000; stroke-width: 5.0; stroke: rgb(107,174,214); fill: none"  />
<path d="M 2329.1,1108.8 L 2296.7,1123.8 2264.3,1138.3 2232.1,1152.0 2200.1,1165.0 2168.7,1177.1 2138.0,1188.1 2108.2,1197.9 2079.3,1206.5 2051.5,1213.8 2025.1,1219.6 2000.0,1224.0 1976.3,1226.9 1954.3,1228.1 1933.9,1227.7 1915.3,1225.7 1898.4,1221.9 1883.5,1216.4 1870.4,1209.2 1859.3,1200.3 1850.2,1189.7 1843.0,1177.4 1837.8,1163.4 1834.7,1147.8 1833.5,1130.6 1834.2,1111.8 1836.9,1091.6 1841.5,1070.0 1847.8,1047.1 1855.9,1022.9 1865.7,997.6 1877.0,971.3 1889.8,944.0 1904.1,915.9 1919.5,887.2 1936.1,858.0 1953.8,828.4 1972.2,798.6 1991.4,768.7 2011.1,738.9  " style="stroke-opacity: 1.000000; stroke-width: 5.0; stroke: rgb(107,174,214); fill: none"  />
<path d="M 2329.1,1108.8 L 2296.9,1124.2 2265.2,1140.0 2234.0,1156.2 2203.7,1172.6 2174.4,1189.1 2146.4,1205.9 2119.8,1222.6 2094.8,1239.5 2071.6,1256.3 2050.2,1273.0 2030.9,1289.6 2013.7,1306.0 1998.7,1322.2 1986.0,1338.2 1975.8,1353.9 1968.0,1369.3 1962.7,1384.3 1959.9,1399.0 1959.7,1413.2 1962.1,1427.0 1967.1,1440.4 1974.6,1453.2 1984.7,1465.6 1997.2,1477.5 2012.1,1488.8 2029.4,1499.6 2049.0,1509.8 2070.7,1519.5 2094.5,1528.6 2120.3,1537.2 2147.8,1545.2 2177.0,1552.6 2207.7,1559.5 2239.7,1565.8 2272.8,1571.5 2306.9,1576.8 2341.7,1581.5 2376.9,1585.7 2412.4,1589.4  " style="stroke-opacity: 1.000000; stroke-width: 5.0; stroke: rgb(107,174,214); fill: none"  />
<path d="M 2329.1,1108.8 L 2296.3,1124.7 2263.8,1141.2 2232.0,1158.5 2200.9,1176.3 2170.9,1194.6 2142.0,1213.6 2114.5,1233.0 2088.5,1252.8 2064.1,1273.2 2041.5,1293.9 2020.8,1314.9 2002.1,1336.3 1985.6,1358.0 1971.1,1379.9 1959.0,1402.1 1949.2,1424.4 1941.7,1446.9 1936.7,1469.4 1934.1,1492.1 1933.9,1514.8 1936.1,1537.5 1940.8,1560.1 1947.9,1582.7 1957.4,1605.2 1969.2,1627.5 1983.2,1649.7 1999.5,1671.6 2017.8,1693.3 2038.2,1714.7 2060.5,1735.8 2084.5,1756.4 2110.2,1776.7 2137.4,1796.6 2166.0,1815.9 2195.7,1834.8 2226.5,1853.1 2258.0,1870.8 2290.2,1887.9 2322.8,1904.3  " style="stroke-opacity: 1.000000; stroke-width: 5.0; stroke: rgb(107,174,214); fill: none"  />
<path d="M 922.8,2212.2 L 945.0,2184.9 967.3,2157.8 989.3,2131.3 1011.1,2105.5 1032.4,2080.6 1053.1,2056.8 1073.2,2034.2 1092.4,2013.0 1110.7,1993.3 1128.0,1975.3 1144.3,1959.0 1159.4,1944.5 1173.2,1932.0 1185.8,1921.6 1197.0,1913.2 1206.8,1906.9 1215.2,1902.9 1222.1,1901.1 1227.6,1901.5 1231.5,1904.1 1233.9,1909.0 1234.8,1916.1 1234.3,1925.4 1232.2,1936.8 1228.7,1950.4 1223.7,1966.0 1217.4,1983.5 1209.8,2002.9 1200.8,2024.1 1190.7,2047.0 1179.4,2071.4 1167.0,2097.3 1153.7,2124.4 1139.5,2152.6 1124.5,2181.7 1108.9,2211.6 1092.7,2242.0 1076.1,2272.9 1059.2,2303.8  " style="stroke-opacity: 1.000000; stroke-width: 5.0; stroke: rgb(107,174,214); fill: none"  />
<path d="M 922.8,2212.2 L 944.9,2184.7 966.7,2157.4 988.1,2130.3 1008.8,2103.7 1028.8,2077.7 1047.8,2052.5 1065.7,2028.2 1082.5,2005.0 1098.0,1983.0 1112.0,1962.3 1124.6,1943.0 1135.6,1925.3 1145.0,1909.1 1152.6,1894.7 1158.5,1882.0 1162.6,1871.1 1164.8,1862.0 1165.2,1854.9 1163.6,1849.7 1160.3,1846.4 1155.0,1845.0 1147.8,1845.6 1138.9,1848.1 1128.1,1852.4 1115.6,1858.7 1101.3,1866.7 1085.5,1876.6 1068.1,1888.1 1049.2,1901.2 1028.9,1915.9 1007.3,1932.0 984.6,1949.4 960.9,1968.1 936.2,1987.8 910.8,2008.5 884.8,2030.0 858.4,2052.1 831.7,2074.8 804.9,2097.7  " style="stroke-opacity: 1.000000; stroke-width: 5.0; stroke: rgb(107,174,214); fill: none"  />
<path d="M 804.9,2097.7 L 832.4,2074.4 860.2,2051.8 888.3,2029.8 916.3,2008.9 944.4,1989.0 972.2,1970.4 999.7,1953.2 1026.9,1937.5 1053.5,1923.5 1079.5,1911.3 1104.8,1900.9 1129.4,1892.4 1153.1,1886.0 1175.9,1881.7 1197.7,1879.4 1218.5,1879.4 1238.2,1881.6 1256.8,1886.0 1274.2,1892.6 1290.3,1901.5 1305.3,1912.6 1319.0,1925.9 1331.4,1941.3 1342.5,1958.9 1352.4,1978.4 1361.0,2000.0 1368.3,2023.5 1374.4,2048.7 1379.3,2075.7 1382.9,2104.2 1385.4,2134.2 1386.8,2165.5 1387.1,2197.9 1386.4,2231.4 1384.7,2265.7 1382.1,2300.7 1378.7,2336.1 1374.6,2371.7 1369.8,2407.5  " style="stroke-opacity: 1.000000; stroke-width: 5.0; stroke: rgb(107,174,214); fill: none"  />
<path d="M 804.9,2097.7 L 832.1,2074.6 859.5,2052.0 886.9,2030.2 914.2,2009.2 941.3,1989.2 967.9,1970.4 994.1,1953.0 1019.7,1937.0 1044.5,1922.6 1068.4,1909.9 1091.5,1899.0 1113.5,1890.0 1134.4,1882.9 1154.2,1877.9 1172.7,1874.9 1189.9,1874.1 1205.8,1875.4 1220.3,1878.8 1233.4,1884.5 1245.0,1892.3 1255.2,1902.2 1263.9,1914.4 1271.1,1928.6 1276.8,1944.8 1281.1,1963.1 1283.9,1983.3 1285.2,2005.3 1285.2,2029.1 1283.9,2054.6 1281.2,2081.6 1277.2,2110.0 1272.1,2139.7 1265.9,2170.5 1258.6,2202.3 1250.4,2234.9 1241.3,2268.1 1231.4,2301.8 1220.9,2335.7 1209.8,2369.6  " style="stroke-opacity: 1.000000; stroke-width: 5.0; stroke: rgb(107,174,214); fill: none"  />
<path d="M 804.9,2097.7 L 831.8,2074.7 858.8,2052.2 885.7,2030.2 912.4,2009.0 938.5,1988.8 964.1,1969.6 989.0,1951.7 1013.1,1935.1 1036.2,1920.0 1058.2,1906.5 1079.1,1894.7 1098.7,1884.7 1117.0,1876.5 1133.8,1870.2 1149.2,1865.8 1163.1,1863.5 1175.3,1863.2 1186.0,1865.0 1195.0,1868.9 1202.3,1874.8 1207.9,1882.8 1211.9,1892.8 1214.1,1904.9 1214.7,1918.9 1213.7,1934.9 1211.0,1952.7 1206.8,1972.3 1201.0,1993.5 1193.7,2016.4 1185.1,2040.7 1175.1,2066.5 1163.9,2093.4 1151.5,2121.5 1138.1,2150.5 1123.7,2180.3 1108.5,2210.7 1092.6,2241.6 1076.1,2272.7 1059.2,2303.8  " style="stroke-opacity: 1.000000; stroke-width: 5.0; stroke: rgb(107,174,214); fill: none"  />
<path d="M 804.9,2097.7 L 832.7,2073.2 859.9,2048.1 886.4,2022.4 912.0,1996.2 936.4,1969.5 959.7,1942.5 981.5,1915.1 1001.8,1887.5 1020.5,1859.6 1037.4,1831.7 1052.5,1803.7 1065.5,1775.6 1076.6,1747.6 1085.5,1719.7 1092.3,1692.0 1096.8,1664.4 1099.1,1637.1 1099.2,1610.1 1096.9,1583.4 1092.3,1557.1 1085.5,1531.2 1076.4,1505.8 1065.0,1480.8 1051.5,1456.4 1035.8,1432.6 1017.9,1409.3 998.1,1386.7 976.4,1364.7 952.8,1343.3 927.5,1322.7 900.5,1302.8 872.1,1283.6 842.3,1265.1 811.3,1247.5 779.3,1230.6 746.4,1214.5 712.8,1199.2 678.7,1184.7 644.3,1171.1  " style="stroke-opacity: 1.000000; stroke-width: 5.0; stroke: rgb(107,174,214); fill: none"  />
<path d="M 709.3,1964.0 L 740.5,1946.0 772.0,1928.6 803.5,1912.1 834.9,1896.5 866.0,1881.9 896.7,1868.6 926.8,1856.6 956.3,1846.0 985.0,1837.0 1012.8,1829.6 1039.6,1823.9 1065.3,1820.0 1089.8,1817.9 1113.0,1817.7 1134.8,1819.4 1155.3,1823.1 1174.3,1828.7 1191.8,1836.4 1207.7,1846.0 1222.0,1857.6 1234.7,1871.2 1245.8,1886.7 1255.3,1904.1 1263.1,1923.4 1269.4,1944.4 1274.0,1967.1 1277.0,1991.5 1278.5,2017.5 1278.4,2044.9 1276.9,2073.6 1274.0,2103.5 1269.8,2134.6 1264.3,2166.6 1257.6,2199.4 1249.8,2232.8 1241.0,2266.8 1231.4,2301.0 1220.9,2335.3 1209.8,2369.6  " style="stroke-opacity: 1.000000; stroke-width: 5.0; stroke: rgb(107,174,214); fill: none"  />
<path d="M 2385.6,1263.1 L 2350.3,1272.2 2314.8,1280.5 2279.4,1287.9 2244.2,1294.4 2209.4,1299.8 2175.2,1304.0 2141.6,1306.9 2108.9,1308.6 2077.2,1308.8 2046.6,1307.6 2017.1,1304.9 1989.1,1300.6 1962.4,1294.8 1937.2,1287.3 1913.7,1278.3 1891.8,1267.6 1871.5,1255.2 1853.1,1241.3 1836.5,1225.7 1821.7,1208.5 1808.7,1189.7 1797.7,1169.3 1788.5,1147.5 1781.2,1124.2 1775.8,1099.6 1772.2,1073.6 1770.4,1046.3 1770.4,1017.9 1772.2,988.5 1775.6,958.0 1780.6,926.7 1787.1,894.6 1795.0,861.9 1804.3,828.6 1814.9,795.0 1826.5,761.2 1839.2,727.3 1852.7,693.5 1867.0,659.9  " style="stroke-opacity: 1.000000; stroke-width: 5.0; stroke: rgb(107,174,214); fill: none"  />
<path d="M 2385.6,1263.1 L 2351.1,1272.1 2316.6,1280.5 2282.4,1288.4 2248.7,1295.4 2215.7,1301.7 2183.5,1307.0 2152.3,1311.4 2122.4,1314.7 2093.8,1316.9 2066.7,1317.9 2041.2,1317.7 2017.4,1316.3 1995.5,1313.6 1975.5,1309.6 1957.6,1304.2 1941.7,1297.5 1927.9,1289.5 1916.4,1280.0 1907.0,1269.3 1899.9,1257.2 1895.1,1243.8 1892.5,1229.1 1892.2,1213.2 1894.1,1196.1 1898.2,1177.8 1904.4,1158.3 1912.7,1137.9 1923.1,1116.5 1935.4,1094.1 1949.5,1071.0 1965.4,1047.1 1982.9,1022.5 2001.9,997.5 2022.2,972.0 2043.8,946.2 2066.4,920.2 2089.9,894.1 2114.1,868.2 2138.8,842.4  " style="stroke-opacity: 1.000000; stroke-width: 5.0; stroke: rgb(107,174,214); fill: none"  />
<path d="M 2385.6,1263.1 L 2351.4,1272.1 2317.2,1280.7 2283.5,1288.8 2250.3,1296.3 2217.9,1303.2 2186.6,1309.4 2156.4,1314.7 2127.5,1319.2 2100.1,1322.8 2074.4,1325.4 2050.5,1327.0 2028.5,1327.6 2008.4,1327.0 1990.5,1325.4 1974.8,1322.6 1961.3,1318.7 1950.1,1313.6 1941.3,1307.4 1934.9,1300.0 1930.8,1291.5 1929.2,1281.8 1930.0,1271.1 1933.2,1259.2 1938.8,1246.3 1946.6,1232.4 1956.8,1217.5 1969.1,1201.7 1983.5,1185.1 2000.0,1167.6 2018.3,1149.4 2038.5,1130.6 2060.3,1111.2 2083.6,1091.3 2108.3,1071.0 2134.2,1050.3 2161.1,1029.5 2188.9,1008.6 2217.2,987.8 2245.9,967.0  " style="stroke-opacity: 1.000000; stroke-width: 5.0; stroke: rgb(107,174,214); fill: none"  />
<path d="M 2413.7,1425.1 L 2378.5,1428.0 2343.7,1431.1 2309.3,1434.4 2275.8,1437.8 2243.2,1441.4 2211.8,1445.1 2181.9,1448.9 2153.5,1452.8 2126.9,1456.8 2102.3,1460.9 2079.6,1465.2 2059.2,1469.5 2041.1,1473.9 2025.3,1478.3 2012.1,1482.9 2001.4,1487.4 1993.3,1492.1 1987.9,1496.8 1985.2,1501.5 1985.1,1506.2 1987.8,1511.0 1993.1,1515.7 2001.1,1520.5 2011.8,1525.3 2024.9,1530.0 2040.6,1534.7 2058.6,1539.4 2079.0,1544.0 2101.6,1548.6 2126.2,1553.1 2152.7,1557.6 2181.0,1561.9 2210.9,1566.2 2242.2,1570.4 2274.7,1574.5 2308.2,1578.4 2342.5,1582.2 2377.3,1585.9 2412.4,1589.4  " style="stroke-opacity: 1.000000; stroke-width: 5.0; stroke: rgb(107,174,214); fill: none"  />
<path d="M 2413.7,1425.1 L 2377.8,1428.3 2342.1,1432.2 2306.8,1436.8 2272.2,1442.0 2238.4,1448.0 2205.6,1454.8 2174.0,1462.3 2143.8,1470.6 2115.1,1479.7 2088.1,1489.6 2062.9,1500.3 2039.6,1511.9 2018.4,1524.2 1999.3,1537.4 1982.4,1551.4 1967.8,1566.2 1955.5,1581.7 1945.6,1598.0 1938.1,1615.1 1933.1,1632.8 1930.4,1651.2 1930.3,1670.3 1932.5,1690.0 1937.2,1710.2 1944.2,1731.0 1953.5,1752.3 1965.1,1774.0 1978.8,1796.0 1994.5,1818.4 2012.3,1841.1 2031.9,1863.9 2053.2,1886.9 2076.1,1909.9 2100.4,1932.9 2126.0,1955.8 2152.7,1978.5 2180.3,2001.0 2208.6,2023.1 2237.4,2044.7  " style="stroke-opacity: 1.000000; stroke-width: 5.0; stroke: rgb(107,174,214); fill: none"  />
<path d="M 2412.4,1589.4 L 2376.1,1585.5 2340.0,1580.8 2304.2,1575.3 2269.0,1569.0 2234.5,1561.8 2201.0,1553.7 2168.5,1544.7 2137.3,1534.7 2107.6,1523.8 2079.3,1511.9 2052.7,1499.0 2027.9,1485.2 2005.0,1470.3 1984.1,1454.5 1965.2,1437.8 1948.4,1420.1 1933.9,1401.4 1921.5,1381.8 1911.4,1361.4 1903.6,1340.1 1898.1,1317.9 1894.9,1295.0 1894.0,1271.4 1895.3,1247.0 1898.9,1222.0 1904.7,1196.4 1912.6,1170.3 1922.6,1143.7 1934.6,1116.7 1948.4,1089.4 1964.1,1061.8 1981.5,1034.1 2000.4,1006.2 2020.8,978.4 2042.5,950.6 2065.3,923.0 2089.1,895.7 2113.6,868.8 2138.8,842.4  " style="stroke-opacity: 1.000000; stroke-width: 5.0; stroke: rgb(107,174,214); fill: none"  />
<path d="M 2412.4,1589.4 L 2376.9,1585.7 2341.7,1581.5 2306.9,1576.8 2272.8,1571.5 2239.7,1565.8 2207.7,1559.5 2177.0,1552.6 2147.8,1545.2 2120.3,1537.2 2094.5,1528.6 2070.7,1519.5 2049.0,1509.8 2029.4,1499.6 2012.1,1488.8 1997.2,1477.5 1984.7,1465.6 1974.6,1453.2 1967.1,1440.4 1962.1,1427.0 1959.7,1413.2 1959.9,1399.0 1962.7,1384.3 1968.0,1369.3 1975.8,1353.9 1986.0,1338.2 1998.7,1322.2 2013.7,1306.0 2030.9,1289.6 2050.2,1273.0 2071.6,1256.3 2094.8,1239.5 2119.8,1222.6 2146.4,1205.9 2174.4,1189.1 2203.7,1172.6 2234.0,1156.2 2265.2,1140.0 2296.9,1124.2 2329.1,1108.8  " style="stroke-opacity: 1.000000; stroke-width: 5.0; stroke: rgb(107,174,214); fill: none"  />
<path d="M 2412.4,1589.4 L 2377.3,1585.9 2342.5,1582.2 2308.2,1578.4 2274.7,1574.5 2242.2,1570.4 2210.9,1566.2 2181.0,1561.9 2152.7,1557.6 2126.2,1553.1 2101.6,1548.6 2079.0,1544.0 2058.6,1539.4 2040.6,1534.7 2024.9,1530.0 2011.8,1525.3 2001.1,1520.5 1993.1,1515.7 1987.8,1511.0 1985.1,1506.2 1985.2,1501.5 1987.9,1496.8 1993.3,1492.1 2001.4,1487.4 2012.1,1482.9 2025.3,1478.3 2041.1,1473.9 2059.2,1469.5 2079.6,1465.2 2102.3,1460.9 2126.9,1456.8 2153.5,1452.8 2181.9,1448.9 2211.8,1445.1 2243.2,1441.4 2275.8,1437.8 2309.3,1434.4 2343.7,1431.1 2378.5,1428.0 2413.7,1425.1  " style="stroke-opacity: 1.000000; stroke-width: 5.0; stroke: rgb(107,174,214); fill: none"  />
<path d="M 2412.4,1589.4 L 2376.9,1586.2 2341.5,1583.4 2306.5,1581.3 2272.0,1579.8 2238.4,1579.1 2205.8,1579.0 2174.3,1579.8 2144.3,1581.4 2115.7,1583.9 2088.8,1587.3 2063.7,1591.6 2040.5,1596.9 2019.3,1603.2 2000.2,1610.4 1983.4,1618.6 1968.8,1627.8 1956.5,1638.0 1946.6,1649.2 1939.2,1661.3 1934.1,1674.4 1931.6,1688.4 1931.4,1703.3 1933.7,1719.1 1938.4,1735.7 1945.4,1753.1 1954.7,1771.2 1966.2,1790.0 1979.9,1809.5 1995.7,1829.5 2013.4,1850.1 2032.9,1871.0 2054.2,1892.4 2077.0,1914.0 2101.3,1935.9 2126.8,1957.8 2153.3,1979.8 2180.7,2001.6 2208.8,2023.3 2237.4,2044.7  " style="stroke-opacity: 1.000000; stroke-width: 5.0; stroke: rgb(107,174,214); fill: none"  />
<path d="M 583.3,1492.7 L 620.9,1493.5 658.6,1495.2 696.2,1497.8 733.6,1501.6 770.6,1506.5 807.0,1512.5 842.7,1519.8 877.6,1528.4 911.6,1538.2 944.4,1549.4 976.2,1562.0 1006.6,1575.9 1035.7,1591.1 1063.3,1607.8 1089.5,1625.9 1114.0,1645.3 1136.9,1666.1 1158.1,1688.2 1177.6,1711.7 1195.2,1736.5 1211.1,1762.5 1225.2,1789.7 1237.5,1818.1 1247.9,1847.6 1256.5,1878.2 1263.3,1909.7 1268.4,1942.2 1271.6,1975.5 1273.2,2009.6 1273.1,2044.3 1271.5,2079.6 1268.2,2115.4 1263.6,2151.6 1257.5,2188.0 1250.1,2224.5 1241.6,2261.1 1231.9,2297.6 1221.3,2333.8 1209.8,2369.6  " style="stroke-opacity: 1.000000; stroke-width: 5.0; stroke: rgb(107,174,214); fill: none"  />
<path d="M 599.3,1329.2 L 636.9,1336.8 674.4,1345.3 711.8,1355.0 748.8,1365.6 785.4,1377.4 821.4,1390.3 856.6,1404.4 890.9,1419.6 924.3,1436.1 956.6,1453.7 987.7,1472.5 1017.5,1492.6 1046.0,1513.8 1073.0,1536.2 1098.4,1559.9 1122.3,1584.6 1144.6,1610.6 1165.2,1637.6 1184.1,1665.8 1201.2,1694.9 1216.6,1725.1 1230.1,1756.3 1241.9,1788.4 1251.9,1821.4 1260.1,1855.1 1266.5,1889.6 1271.2,1924.8 1274.1,1960.6 1275.4,1997.0 1275.0,2033.7 1273.1,2070.9 1269.6,2108.3 1264.7,2145.9 1258.5,2183.6 1250.9,2221.3 1242.2,2258.9 1232.3,2296.2 1221.5,2333.1 1209.8,2369.6  " style="stroke-opacity: 1.000000; stroke-width: 5.0; stroke: rgb(107,174,214); fill: none"  />
<path d="M 644.3,1171.1 L 681.3,1185.8 718.4,1201.5 755.2,1218.3 791.7,1236.1 827.8,1254.9 863.4,1274.8 898.4,1295.8 932.7,1317.9 966.1,1341.1 998.6,1365.3 1030.2,1390.6 1060.7,1416.9 1090.0,1444.4 1118.2,1472.8 1145.2,1502.3 1170.8,1532.8 1195.1,1564.2 1218.0,1596.6 1239.5,1629.9 1259.5,1664.1 1278.1,1699.1 1295.2,1734.9 1310.8,1771.4 1324.9,1808.7 1337.5,1846.5 1348.6,1885.0 1358.2,1924.0 1366.4,1963.5 1373.1,2003.4 1378.3,2043.6 1382.2,2084.1 1384.8,2124.8 1386.1,2165.5 1386.1,2206.3 1384.9,2247.0 1382.6,2287.6 1379.3,2327.9 1375.0,2367.9 1369.8,2407.5  " style="stroke-opacity: 1.000000; stroke-width: 5.0; stroke: rgb(107,174,214); fill: none"  />
<path d="M 644.3,1171.1 L 680.6,1185.5 716.8,1201.0 752.7,1217.5 788.2,1235.0 823.1,1253.5 857.4,1273.1 891.0,1293.8 923.6,1315.5 955.2,1338.3 985.8,1362.2 1015.1,1387.1 1043.2,1413.0 1069.9,1440.0 1095.2,1467.9 1119.1,1496.8 1141.3,1526.7 1162.1,1557.5 1181.2,1589.2 1198.6,1621.8 1214.3,1655.2 1228.4,1689.4 1240.7,1724.3 1251.3,1759.8 1260.2,1796.0 1267.4,1832.8 1272.9,1870.1 1276.7,1907.9 1278.9,1946.1 1279.4,1984.5 1278.4,2023.3 1275.9,2062.2 1271.9,2101.2 1266.6,2140.2 1259.9,2179.1 1252.0,2217.9 1242.9,2256.5 1232.8,2294.7 1221.7,2332.4 1209.8,2369.6  " style="stroke-opacity: 1.000000; stroke-width: 5.0; stroke: rgb(107,174,214); fill: none"  />
<path d="M 644.3,1171.1 L 679.9,1185.3 715.3,1200.4 750.3,1216.5 784.9,1233.7 818.8,1251.8 851.8,1270.9 884.0,1291.0 915.1,1312.2 945.0,1334.3 973.6,1357.4 1000.8,1381.5 1026.6,1406.5 1050.8,1432.5 1073.3,1459.4 1094.2,1487.2 1113.3,1515.9 1130.6,1545.3 1146.0,1575.6 1159.6,1606.7 1171.2,1638.5 1180.9,1670.9 1188.7,1704.0 1194.6,1737.7 1198.5,1771.9 1200.5,1806.6 1200.7,1841.7 1199.0,1877.1 1195.5,1912.9 1190.3,1948.9 1183.3,1985.0 1174.8,2021.2 1164.7,2057.4 1153.2,2093.5 1140.3,2129.5 1126.1,2165.2 1110.8,2200.6 1094.5,2235.6 1077.2,2270.0 1059.2,2303.8  " style="stroke-opacity: 1.000000; stroke-width: 5.0; stroke: rgb(107,174,214); fill: none"  />
<path d="M 2322.8,1904.3 L 2290.2,1887.9 2258.0,1870.8 2226.5,1853.1 2195.7,1834.8 2166.0,1815.9 2137.4,1796.6 2110.2,1776.7 2084.5,1756.4 2060.5,1735.8 2038.2,1714.7 2017.8,1693.3 1999.5,1671.6 1983.2,1649.7 1969.2,1627.5 1957.4,1605.2 1947.9,1582.7 1940.8,1560.1 1936.1,1537.5 1933.9,1514.8 1934.1,1492.1 1936.7,1469.4 1941.7,1446.9 1949.2,1424.4 1959.0,1402.1 1971.1,1379.9 1985.6,1358.0 2002.1,1336.3 2020.8,1314.9 2041.5,1293.9 2064.1,1273.2 2088.5,1252.8 2114.5,1233.0 2142.0,1213.6 2170.9,1194.6 2200.9,1176.3 2232.0,1158.5 2263.8,1141.2 2296.3,1124.7 2329.1,1108.8  " style="stroke-opacity: 1.000000; stroke-width: 5.0; stroke: rgb(107,174,214); fill: none"  />
<path d="M 2322.8,1904.3 L 2290.9,1888.3 2259.4,1872.0 2228.5,1855.4 2198.4,1838.5 2169.4,1821.5 2141.7,1804.3 2115.4,1787.1 2090.6,1769.9 2067.7,1752.8 2046.6,1735.7 2027.5,1718.8 2010.5,1702.1 1995.8,1685.6 1983.4,1669.5 1973.4,1653.6 1965.8,1638.1 1960.8,1623.0 1958.3,1608.3 1958.3,1594.1 1960.9,1580.3 1966.1,1567.0 1973.8,1554.3 1984.1,1542.1 1996.8,1530.4 2011.9,1519.3 2029.3,1508.8 2049.1,1498.9 2071.0,1489.5 2094.9,1480.8 2120.8,1472.6 2148.5,1465.1 2177.8,1458.1 2208.6,1451.8 2240.7,1445.9 2273.9,1440.7 2308.0,1436.0 2342.8,1431.9 2378.1,1428.2 2413.7,1425.1  " style="stroke-opacity: 1.000000; stroke-width: 5.0; stroke: rgb(107,174,214); fill: none"  />
<path d="M 716.8,1023.6 L 749.9,1044.3 782.7,1065.9 815.1,1088.6 846.9,1112.1 878.0,1136.6 908.3,1162.0 937.6,1188.4 965.8,1215.6 992.8,1243.7 1018.6,1272.6 1043.1,1302.3 1066.1,1332.8 1087.5,1364.1 1107.5,1396.2 1125.7,1428.9 1142.3,1462.3 1157.2,1496.3 1170.3,1530.9 1181.7,1566.0 1191.2,1601.7 1198.9,1637.8 1204.9,1674.4 1208.9,1711.3 1211.2,1748.5 1211.7,1786.0 1210.4,1823.6 1207.5,1861.5 1202.8,1899.4 1196.5,1937.4 1188.5,1975.3 1179.1,2013.1 1168.3,2050.8 1156.0,2088.2 1142.5,2125.4 1127.8,2162.1 1112.0,2198.4 1095.2,2234.2 1077.6,2269.3 1059.2,2303.8  " style="stroke-opacity: 1.000000; stroke-width: 5.0; stroke: rgb(107,174,214); fill: none"  />
<path d="M 2237.4,2044.7 L 2204.1,2019.6 2171.0,1993.7 2138.2,1966.9 2105.7,1939.2 2073.6,1910.7 2042.1,1881.3 2011.1,1851.0 1980.8,1819.9 1951.2,1788.0 1922.3,1755.3 1894.3,1721.7 1867.2,1687.4 1840.9,1652.3 1815.7,1616.5 1791.5,1580.0 1768.3,1542.8 1746.2,1505.0 1725.2,1466.5 1705.3,1427.4 1686.6,1387.7 1669.0,1347.5 1652.7,1306.8 1637.5,1265.7 1623.5,1224.2 1610.8,1182.2 1599.2,1140.0 1588.8,1097.5 1579.6,1054.7 1571.5,1011.7 1564.6,968.7 1558.8,925.5 1554.0,882.3 1550.4,839.2 1547.7,796.1 1546.1,753.2 1545.4,710.6 1545.5,668.2 1546.6,626.1 1548.4,584.5  " style="stroke-opacity: 1.000000; stroke-width: 5.0; stroke: rgb(107,174,214); fill: none"  />
<path d="M 2237.4,2044.7 L 2208.6,2023.1 2180.3,2001.0 2152.7,1978.5 2126.0,1955.8 2100.4,1932.9 2076.1,1909.9 2053.2,1886.9 2031.9,1863.9 2012.3,1841.1 1994.5,1818.4 1978.8,1796.0 1965.1,1774.0 1953.5,1752.3 1944.2,1731.0 1937.2,1710.2 1932.5,1690.0 1930.3,1670.3 1930.4,1651.2 1933.1,1632.8 1938.1,1615.1 1945.6,1598.0 1955.5,1581.7 1967.8,1566.2 1982.4,1551.4 1999.3,1537.4 2018.4,1524.2 2039.6,1511.9 2062.9,1500.3 2088.1,1489.6 2115.1,1479.7 2143.8,1470.6 2174.0,1462.3 2205.6,1454.8 2238.4,1448.0 2272.2,1442.0 2306.8,1436.8 2342.1,1432.2 2377.8,1428.3 2413.7,1425.1  " style="stroke-opacity: 1.000000; stroke-width: 5.0; stroke: rgb(107,174,214); fill: none"  />
<path d="M 2237.4,2044.7 L 2208.8,2023.3 2180.7,2001.6 2153.3,1979.8 2126.8,1957.8 2101.3,1935.9 2077.0,1914.0 2054.2,1892.4 2032.9,1871.0 2013.4,1850.1 1995.7,1829.5 1979.9,1809.5 1966.2,1790.0 1954.7,1771.2 1945.4,1753.1 1938.4,1735.7 1933.7,1719.1 1931.4,1703.3 1931.6,1688.4 1934.1,1674.4 1939.2,1661.3 1946.6,1649.2 1956.5,1638.0 1968.8,1627.8 1983.4,1618.6 2000.2,1610.4 2019.3,1603.2 2040.5,1596.9 2063.7,1591.6 2088.8,1587.3 2115.7,1583.9 2144.3,1581.4 2174.3,1579.8 2205.8,1579.0 2238.4,1579.1 2272.0,1579.8 2306.5,1581.3 2341.5,1583.4 2376.9,1586.2 2412.4,1589.4  " style="stroke-opacity: 1.000000; stroke-width: 5.0; stroke: rgb(107,174,214); fill: none"  />
</g>
<defs>
<pattern id="vline" width="10" height="10" patternTransform="rotate(0 0 0)" patternUnits="userSpaceOnUse"><line x1="0" y1="0" x2="0" y2="10" style="stroke:black;stroke-width:5" /></pattern>
<pattern id="checker" width="10" height="10" patternTransform="rotate(45 0 0)" patternUnits="userSpaceOnUse"><line x1="0" y1="0" x2="10" y2="0" style="stroke:black;stroke-width:2" /><line x1="0" y1="0" x2="0" y2="10" style="stroke:black;stroke-width:2" /></pattern>
<pattern id="vline-sparse" width="10" height="10" patternTransform="rotate(0 0 0)" patternUnits="userSpaceOnUse"><line x1="0" y1="0" x2="0" y2="10" style="stroke:black;stroke-width:2" /></pattern>
<pattern id="hline-sparse" width="10" height="10" patternTransform="rotate(0 0 0)" patternUnits="userSpaceOnUse"><line x1="0" y1="0" x2="10" y2="0" style="stroke:black;stroke-width:2" /></pattern>
<pattern id="hline" width="10" height="10" patternTransform="rotate(0 0 0)" patternUnits="userSpaceOnUse"><line x1="0" y1="0" x2="10" y2="0" style="stroke:black;stroke-width:5" /></pattern>
<pattern id="checker" width="10" height="10" patternTransform="rotate(45 0 0)" patternUnits="userSpaceOnUse"><line x1="0" y1="0" x2="10" y2="0" style="stroke:black;stroke-width:5" /><line x1="0" y1="0" x2="0" y2="10" style="stroke:black;stroke-width:4" /></pattern>
</defs>
</svg>
