<?xml version="1.0" encoding="utf-8" standalone="no"?>
<!DOCTYPE svg PUBLIC "-//W3C//DTD SVG 1.1//EN" "http://www.w3.org/Graphics/SVG/1.1/DTD/svg11.dtd">
<svg width="3000px" height="3000px" version="1.1" xmlns="http://www.w3.org/2000/svg" xmlns:xlink="http://www.w3.org/1999/xlink">
<g id="bg">
<rect x="0" y="0" width="3000px" height="3000px" style="fill:rgb(255,255,255);"/>
</g>
<g id="ideograms">
<path d="M1500.000,535.000 A965.000,965.000 40.000 0,1 1601.714,540.376 L1618.579,381.267 A1125.000,1125.000 0.000 0,0 1500.000,375.000 Z" style="stroke-width:2.0;stroke:rgb(115,115,115);stroke-linecap:round;fill:rgb(153,0,204);" />
<text x="1635.1" y="307.6" font-size="195.0px" font-family="CMUBright-Bold" style="text-anchor:start;fill:rgb(0,0,0);" transform="rotate(273.0,1635.1,307.6)" >1</text>
<path d="M1500.000,535.000 A965.000,965.000 40.000 0,1 1601.714,540.376 L1618.579,381.267 A1125.000,1125.000 0.000 0,0 1500.000,375.000 Z" style="stroke-width:2.0;stroke:rgb(115,115,115);stroke-linecap:round;fill:none;" />
<path d="M1672.307,550.508 A965.000,965.000 40.000 0,1 1771.427,573.959 L1816.431,420.418 A1125.000,1125.000 0.000 0,0 1700.877,393.079 Z" style="stroke-width:2.0;stroke:rgb(115,115,115);stroke-linecap:round;fill:rgb(153,0,204);" />
<text x="1845.8" y="350.9" font-size="195.0px" font-family="CMUBright-Bold" style="text-anchor:start;fill:rgb(0,0,0);" transform="rotate(283.3,1845.8,350.9)" >5</text>
<path d="M1672.307,550.508 A965.000,965.000 40.000 0,1 1771.427,573.959 L1816.431,420.418 A1125.000,1125.000 0.000 0,0 1700.877,393.079 Z" style="stroke-width:2.0;stroke:rgb(115,115,115);stroke-linecap:round;fill:none;" />
<path d="M1839.077,596.533 A965.000,965.000 40.000 0,1 1932.417,637.306 L2004.113,494.269 A1125.000,1125.000 0.000 0,0 1895.297,446.736 Z" style="stroke-width:2.0;stroke:rgb(115,115,115);stroke-linecap:round;fill:rgb(153,0,204);" />
<text x="2047.2" y="432.0" font-size="195.0px" font-family="CMUBright-Bold" style="text-anchor:start;fill:rgb(0,0,0);" transform="rotate(293.6,2047.2,432.0)" >8</text>
<path d="M1839.077,596.533 A965.000,965.000 40.000 0,1 1932.417,637.306 L2004.113,494.269 A1125.000,1125.000 0.000 0,0 1895.297,446.736 Z" style="stroke-width:2.0;stroke:rgb(115,115,115);stroke-linecap:round;fill:none;" />
<path d="M1994.948,671.597 A965.000,965.000 40.000 0,1 2079.507,728.381 L2175.592,600.444 A1125.000,1125.000 0.000 0,0 2077.012,534.245 Z" style="stroke-width:2.0;stroke:rgb(115,115,115);stroke-linecap:round;fill:rgb(153,0,204);" />
<text x="2229.1" y="546.9" font-size="195.0px" font-family="CMUBright-Bold" style="text-anchor:start;fill:rgb(0,0,0);" transform="rotate(303.9,2229.1,546.9)" >10</text>
<path d="M1994.948,671.597 A965.000,965.000 40.000 0,1 2079.507,728.381 L2175.592,600.444 A1125.000,1125.000 0.000 0,0 2077.012,534.245 Z" style="stroke-width:2.0;stroke:rgb(115,115,115);stroke-linecap:round;fill:none;" />
<path d="M2134.911,773.286 A965.000,965.000 40.000 0,1 2207.972,844.256 L2325.356,735.532 A1125.000,1125.000 0.000 0,0 2240.181,652.795 Z" style="stroke-width:2.0;stroke:rgb(115,115,115);stroke-linecap:round;fill:rgb(153,0,204);" />
<text x="2387.6" y="692.4" font-size="195.0px" font-family="CMUBright-Bold" style="text-anchor:start;fill:rgb(0,0,0);" transform="rotate(314.2,2387.6,692.4)" >13</text>
<path d="M2134.911,773.286 A965.000,965.000 40.000 0,1 2207.972,844.256 L2325.356,735.532 A1125.000,1125.000 0.000 0,0 2240.181,652.795 Z" style="stroke-width:2.0;stroke:rgb(115,115,115);stroke-linecap:round;fill:none;" />
<path d="M2254.467,898.332 A965.000,965.000 40.000 0,1 2313.683,981.207 L2448.594,895.190 A1125.000,1125.000 0.000 0,0 2379.560,798.574 Z" style="stroke-width:2.0;stroke:rgb(115,115,115);stroke-linecap:round;fill:rgb(153,0,204);" />
<text x="2517.5" y="863.9" font-size="195.0px" font-family="CMUBright-Bold" style="text-anchor:start;fill:rgb(0,0,0);" transform="rotate(324.5,2517.5,863.9)" >16</text>
<path d="M2254.467,898.332 A965.000,965.000 40.000 0,1 2313.683,981.207 L2448.594,895.190 A1125.000,1125.000 0.000 0,0 2379.560,798.574 Z" style="stroke-width:2.0;stroke:rgb(115,115,115);stroke-linecap:round;fill:none;" />
<path d="M2349.775,1042.717 A965.000,965.000 40.000 0,1 2393.240,1134.833 L2541.342,1074.288 A1125.000,1125.000 0.000 0,0 2490.670,966.898 Z" style="stroke-width:2.0;stroke:rgb(115,115,115);stroke-linecap:round;fill:rgb(153,0,204);" />
<text x="2614.4" y="1054.8" font-size="195.0px" font-family="CMUBright-Bold" style="text-anchor:start;fill:rgb(0,0,0);" transform="rotate(334.7,2614.4,1054.8)" >17</text>
<path d="M2349.775,1042.717 A965.000,965.000 40.000 0,1 2393.240,1134.833 L2541.342,1074.288 A1125.000,1125.000 0.000 0,0 2490.670,966.898 Z" style="stroke-width:2.0;stroke:rgb(115,115,115);stroke-linecap:round;fill:none;" />
<path d="M2417.770,1201.799 A965.000,965.000 40.000 0,1 2444.089,1300.196 L2600.621,1267.068 A1125.000,1125.000 0.000 0,0 2569.939,1152.356 Z" style="stroke-width:2.0;stroke:rgb(115,115,115);stroke-linecap:round;fill:rgb(153,0,204);" />
<text x="2676.2" y="1262.0" font-size="195.0px" font-family="CMUBright-Bold" style="text-anchor:start;fill:rgb(0,0,0);" transform="rotate(345.0,2676.2,1262.0)" >19</text>
<path d="M2417.770,1201.799 A965.000,965.000 40.000 0,1 2444.089,1300.196 L2600.621,1267.068 A1125.000,1125.000 0.000 0,0 2569.939,1152.356 Z" style="stroke-width:2.0;stroke:rgb(115,115,115);stroke-linecap:round;fill:none;" />
<path d="M2456.267,1370.465 A965.000,965.000 40.000 0,1 2464.593,1471.980 L2624.526,1467.335 A1125.000,1125.000 0.000 0,0 2614.818,1348.988 Z" style="stroke-width:2.0;stroke:rgb(115,115,115);stroke-linecap:round;fill:rgb(153,0,204);" />
<text x="2699.8" y="1475.8" font-size="195.0px" font-family="CMUBright-Bold" style="text-anchor:start;fill:rgb(0,0,0);" transform="rotate(355.3,2699.8,1475.8)" >20</text>
<path d="M2456.267,1370.465 A965.000,965.000 40.000 0,1 2464.593,1471.980 L2624.526,1467.335 A1125.000,1125.000 0.000 0,0 2614.818,1348.988 Z" style="stroke-width:2.0;stroke:rgb(115,115,115);stroke-linecap:round;fill:none;" />
<path d="M2464.028,1543.295 A965.000,965.000 40.000 0,1 2454.095,1644.665 L2612.287,1668.651 A1125.000,1125.000 0.000 0,0 2623.867,1550.473 Z" style="stroke-width:2.0;stroke:rgb(115,115,115);stroke-linecap:round;fill:rgb(153,0,204);" />
<text x="2685.1" y="1688.4" font-size="195.0px" font-family="CMUBright-Bold" style="text-anchor:start;fill:rgb(0,0,0);" transform="rotate(5.6,2685.1,1688.4)" >21</text>
<path d="M2464.028,1543.295 A965.000,965.000 40.000 0,1 2454.095,1644.665 L2612.287,1668.651 A1125.000,1125.000 0.000 0,0 2623.867,1550.473 Z" style="stroke-width:2.0;stroke:rgb(115,115,115);stroke-linecap:round;fill:none;" />
<path d="M2440.805,1714.733 A965.000,965.000 40.000 0,1 2412.931,1812.701 L2564.298,1864.548 A1125.000,1125.000 0.000 0,0 2596.794,1750.336 Z" style="stroke-width:2.0;stroke:rgb(115,115,115);stroke-linecap:round;fill:rgb(153,0,204);" />
<text x="2631.8" y="1898.9" font-size="195.0px" font-family="CMUBright-Bold" style="text-anchor:start;fill:rgb(0,0,0);" transform="rotate(15.9,2631.8,1898.9)" >25</text>
<path d="M2440.805,1714.733 A965.000,965.000 40.000 0,1 2412.931,1812.701 L2564.298,1864.548 A1125.000,1125.000 0.000 0,0 2596.794,1750.336 Z" style="stroke-width:2.0;stroke:rgb(115,115,115);stroke-linecap:round;fill:none;" />
<path d="M2387.344,1879.269 A965.000,965.000 40.000 0,1 2342.425,1970.686 L2482.102,2048.727 A1125.000,1125.000 0.000 0,0 2534.469,1942.153 Z" style="stroke-width:2.0;stroke:rgb(115,115,115);stroke-linecap:round;fill:rgb(153,0,204);" />
<text x="2542.8" y="2093.7" font-size="195.0px" font-family="CMUBright-Bold" style="text-anchor:start;fill:rgb(0,0,0);" transform="rotate(26.2,2542.8,2093.7)" >27</text>
<path d="M2387.344,1879.269 A965.000,965.000 40.000 0,1 2342.425,1970.686 L2482.102,2048.727 A1125.000,1125.000 0.000 0,0 2534.469,1942.153 Z" style="stroke-width:2.0;stroke:rgb(115,115,115);stroke-linecap:round;fill:none;" />
<path d="M2305.363,2031.616 A965.000,965.000 40.000 0,1 2244.843,2113.542 L2368.340,2215.270 A1125.000,1125.000 0.000 0,0 2438.895,2119.759 Z" style="stroke-width:2.0;stroke:rgb(115,115,115);stroke-linecap:round;fill:rgb(153,0,204);" />
<text x="2419.4" y="2271.1" font-size="195.0px" font-family="CMUBright-Bold" style="text-anchor:start;fill:rgb(0,0,0);" transform="rotate(36.5,2419.4,2271.1)" >28</text>
<path d="M2305.363,2031.616 A965.000,965.000 40.000 0,1 2244.843,2113.542 L2368.340,2215.270 A1125.000,1125.000 0.000 0,0 2438.895,2119.759 Z" style="stroke-width:2.0;stroke:rgb(115,115,115);stroke-linecap:round;fill:none;" />
<path d="M2197.497,2166.875 A965.000,965.000 40.000 0,1 2123.321,2236.679 L2226.669,2358.823 A1125.000,1125.000 0.000 0,0 2313.144,2277.445 Z" style="stroke-width:2.0;stroke:rgb(115,115,115);stroke-linecap:round;fill:rgb(153,0,204);" />
<text x="2267.0" y="2422.9" font-size="195.0px" font-family="CMUBright-Bold" style="text-anchor:start;fill:rgb(0,0,0);" transform="rotate(46.7,2267.0,2422.9)" >34</text>
<path d="M2197.497,2166.875 A965.000,965.000 40.000 0,1 2123.321,2236.679 L2226.669,2358.823 A1125.000,1125.000 0.000 0,0 2313.144,2277.445 Z" style="stroke-width:2.0;stroke:rgb(115,115,115);stroke-linecap:round;fill:none;" />
<path d="M2067.213,2280.701 A965.000,965.000 40.000 0,1 1981.764,2336.139 L2061.642,2474.773 A1125.000,1125.000 0.000 0,0 2161.258,2410.144 Z" style="stroke-width:2.0;stroke:rgb(115,115,115);stroke-linecap:round;fill:rgb(253,208,162);" />
<text x="2091.6" y="2544.0" font-size="195.0px" font-family="CMUBright-Bold" style="text-anchor:start;fill:rgb(0,0,0);" transform="rotate(57.0,2091.6,2544.0)" >2</text>
<path d="M2067.213,2280.701 A965.000,965.000 40.000 0,1 1981.764,2336.139 L2061.642,2474.773 A1125.000,1125.000 0.000 0,0 2161.258,2410.144 Z" style="stroke-width:2.0;stroke:rgb(115,115,115);stroke-linecap:round;fill:none;" />
<path d="M1918.698,2369.435 A965.000,965.000 40.000 0,1 1824.724,2408.724 L1878.564,2559.393 A1125.000,1125.000 0.000 0,0 1988.119,2513.590 Z" style="stroke-width:2.0;stroke:rgb(115,115,115);stroke-linecap:round;fill:rgb(253,208,162);" />
<text x="1895.7" y="2632.9" font-size="195.0px" font-family="CMUBright-Bold" style="text-anchor:start;fill:rgb(0,0,0);" transform="rotate(67.3,1895.7,2632.9)" >22</text>
<path d="M1918.698,2369.435 A965.000,965.000 40.000 0,1 1824.724,2408.724 L1878.564,2559.393 A1125.000,1125.000 0.000 0,0 1988.119,2513.590 Z" style="stroke-width:2.0;stroke:rgb(115,115,115);stroke-linecap:round;fill:none;" />
<path d="M1756.726,2430.224 A965.000,965.000 40.000 0,1 1657.246,2452.102 L1683.318,2609.964 A1125.000,1125.000 0.000 0,0 1799.291,2584.458 Z" style="stroke-width:2.0;stroke:rgb(115,115,115);stroke-linecap:round;fill:rgb(253,208,162);" />
<text x="1687.0" y="2685.3" font-size="195.0px" font-family="CMUBright-Bold" style="text-anchor:start;fill:rgb(0,0,0);" transform="rotate(77.6,1687.0,2685.3)" >24</text>
<path d="M1756.726,2430.224 A965.000,965.000 40.000 0,1 1657.246,2452.102 L1683.318,2609.964 A1125.000,1125.000 0.000 0,0 1799.291,2584.458 Z" style="stroke-width:2.0;stroke:rgb(115,115,115);stroke-linecap:round;fill:none;" />
<path d="M1586.502,2461.115 A965.000,965.000 40.000 0,1 1484.715,2464.879 L1482.181,2624.859 A1125.000,1125.000 0.000 0,0 1600.844,2620.471 Z" style="stroke-width:2.0;stroke:rgb(115,115,115);stroke-linecap:round;fill:rgb(253,208,162);" />
<text x="1470.4" y="2699.6" font-size="195.0px" font-family="CMUBright-Bold" style="text-anchor:start;fill:rgb(0,0,0);" transform="rotate(87.9,1470.4,2699.6)" >31</text>
<path d="M1586.502,2461.115 A965.000,965.000 40.000 0,1 1484.715,2464.879 L1482.181,2624.859 A1125.000,1125.000 0.000 0,0 1600.844,2620.471 Z" style="stroke-width:2.0;stroke:rgb(115,115,115);stroke-linecap:round;fill:none;" />
<path d="M1413.498,2461.115 A965.000,965.000 40.000 0,1 1312.675,2446.644 L1281.616,2603.600 A1125.000,1125.000 0.000 0,0 1399.156,2620.471 Z" style="stroke-width:2.0;stroke:rgb(115,115,115);stroke-linecap:round;fill:rgb(253,208,162);" />
<text x="1403.0" y="2696.1" font-size="195.0px" font-family="CMUBright-Bold" style="text-anchor:end;fill:rgb(0,0,0);" transform="rotate(-81.8,1403.0,2696.1)" >32</text>
<path d="M1413.498,2461.115 A965.000,965.000 40.000 0,1 1312.675,2446.644 L1281.616,2603.600 A1125.000,1125.000 0.000 0,0 1399.156,2620.471 Z" style="stroke-width:2.0;stroke:rgb(115,115,115);stroke-linecap:round;fill:none;" />
<path d="M1243.274,2430.224 A965.000,965.000 40.000 0,1 1146.656,2397.983 L1088.070,2546.871 A1125.000,1125.000 0.000 0,0 1200.709,2584.458 Z" style="stroke-width:2.0;stroke:rgb(115,115,115);stroke-linecap:round;fill:rgb(253,141,60);" />
<text x="1187.2" y="2658.5" font-size="195.0px" font-family="CMUBright-Bold" style="text-anchor:end;fill:rgb(0,0,0);" transform="rotate(-71.5,1187.2,2658.5)" >4</text>
<path d="M1243.274,2430.224 A965.000,965.000 40.000 0,1 1146.656,2397.983 L1088.070,2546.871 A1125.000,1125.000 0.000 0,0 1200.709,2584.458 Z" style="stroke-width:2.0;stroke:rgb(115,115,115);stroke-linecap:round;fill:none;" />
<path d="M1081.302,2369.435 A965.000,965.000 40.000 0,1 991.993,2320.460 L907.764,2456.494 A1125.000,1125.000 0.000 0,0 1011.881,2513.590 Z" style="stroke-width:2.0;stroke:rgb(115,115,115);stroke-linecap:round;fill:rgb(253,141,60);" />
<text x="986.2" y="2584.5" font-size="195.0px" font-family="CMUBright-Bold" style="text-anchor:end;fill:rgb(0,0,0);" transform="rotate(-61.3,986.2,2584.5)" >7</text>
<path d="M1081.302,2369.435 A965.000,965.000 40.000 0,1 991.993,2320.460 L907.764,2456.494 A1125.000,1125.000 0.000 0,0 1011.881,2513.590 Z" style="stroke-width:2.0;stroke:rgb(115,115,115);stroke-linecap:round;fill:none;" />
<path d="M932.787,2280.701 A965.000,965.000 40.000 0,1 853.658,2216.566 L746.493,2335.375 A1125.000,1125.000 0.000 0,0 838.742,2410.144 Z" style="stroke-width:2.0;stroke:rgb(115,115,115);stroke-linecap:round;fill:rgb(253,141,60);" />
<text x="803.3" y="2477.0" font-size="195.0px" font-family="CMUBright-Bold" style="text-anchor:end;fill:rgb(0,0,0);" transform="rotate(-51.0,803.3,2477.0)" >9</text>
<path d="M932.787,2280.701 A965.000,965.000 40.000 0,1 853.658,2216.566 L746.493,2335.375 A1125.000,1125.000 0.000 0,0 838.742,2410.144 Z" style="stroke-width:2.0;stroke:rgb(115,115,115);stroke-linecap:round;fill:none;" />
<path d="M802.503,2166.875 A965.000,965.000 40.000 0,1 736.097,2089.642 L609.440,2187.406 A1125.000,1125.000 0.000 0,0 686.856,2277.445 Z" style="stroke-width:2.0;stroke:rgb(115,115,115);stroke-linecap:round;fill:rgb(253,141,60);" />
<text x="638.6" y="2335.5" font-size="195.0px" font-family="CMUBright-Bold" style="text-anchor:end;fill:rgb(0,0,0);" transform="rotate(-40.7,638.6,2335.5)" >11</text>
<path d="M802.503,2166.875 A965.000,965.000 40.000 0,1 736.097,2089.642 L609.440,2187.406 A1125.000,1125.000 0.000 0,0 686.856,2277.445 Z" style="stroke-width:2.0;stroke:rgb(115,115,115);stroke-linecap:round;fill:none;" />
<path d="M694.637,2031.616 A965.000,965.000 40.000 0,1 643.089,1943.766 L501.010,2017.344 A1125.000,1125.000 0.000 0,0 561.105,2119.759 Z" style="stroke-width:2.0;stroke:rgb(115,115,115);stroke-linecap:round;fill:rgb(253,141,60);" />
<text x="503.3" y="2168.3" font-size="195.0px" font-family="CMUBright-Bold" style="text-anchor:end;fill:rgb(0,0,0);" transform="rotate(-30.4,503.3,2168.3)" >12</text>
<path d="M694.637,2031.616 A965.000,965.000 40.000 0,1 643.089,1943.766 L501.010,2017.344 A1125.000,1125.000 0.000 0,0 561.105,2119.759 Z" style="stroke-width:2.0;stroke:rgb(115,115,115);stroke-linecap:round;fill:none;" />
<path d="M612.656,1879.269 A965.000,965.000 40.000 0,1 577.622,1783.627 L424.689,1830.653 A1125.000,1125.000 0.000 0,0 465.531,1942.153 Z" style="stroke-width:2.0;stroke:rgb(115,115,115);stroke-linecap:round;fill:rgb(253,141,60);" />
<text x="400.8" y="1981.4" font-size="195.0px" font-family="CMUBright-Bold" style="text-anchor:end;fill:rgb(0,0,0);" transform="rotate(-20.1,400.8,1981.4)" >18</text>
<path d="M612.656,1879.269 A965.000,965.000 40.000 0,1 577.622,1783.627 L424.689,1830.653 A1125.000,1125.000 0.000 0,0 465.531,1942.153 Z" style="stroke-width:2.0;stroke:rgb(115,115,115);stroke-linecap:round;fill:none;" />
<path d="M559.195,1714.733 A965.000,965.000 40.000 0,1 541.802,1614.372 L382.929,1633.336 A1125.000,1125.000 0.000 0,0 403.206,1750.336 Z" style="stroke-width:2.0;stroke:rgb(115,115,115);stroke-linecap:round;fill:rgb(253,141,60);" />
<text x="332.5" y="1777.4" font-size="195.0px" font-family="CMUBright-Bold" style="text-anchor:end;fill:rgb(0,0,0);" transform="rotate(-9.8,332.5,1777.4)" >23</text>
<path d="M559.195,1714.733 A965.000,965.000 40.000 0,1 541.802,1614.372 L382.929,1633.336 A1125.000,1125.000 0.000 0,0 403.206,1750.336 Z" style="stroke-width:2.0;stroke:rgb(115,115,115);stroke-linecap:round;fill:none;" />
<path d="M535.972,1543.295 A965.000,965.000 40.000 0,1 536.778,1441.441 L377.073,1431.732 A1125.000,1125.000 0.000 0,0 376.133,1550.473 Z" style="stroke-width:2.0;stroke:rgb(115,115,115);stroke-linecap:round;fill:rgb(253,141,60);" />
<text x="301.7" y="1564.5" font-size="195.0px" font-family="CMUBright-Bold" style="text-anchor:end;fill:rgb(0,0,0);" transform="rotate(0.5,301.7,1564.5)" >26</text>
<path d="M535.972,1543.295 A965.000,965.000 40.000 0,1 536.778,1441.441 L377.073,1431.732 A1125.000,1125.000 0.000 0,0 376.133,1550.473 Z" style="stroke-width:2.0;stroke:rgb(115,115,115);stroke-linecap:round;fill:none;" />
<path d="M543.733,1370.465 A965.000,965.000 40.000 0,1 562.714,1270.393 L407.309,1232.323 A1125.000,1125.000 0.000 0,0 385.182,1348.988 Z" style="stroke-width:2.0;stroke:rgb(115,115,115);stroke-linecap:round;fill:rgb(253,141,60);" />
<text x="309.5" y="1349.5" font-size="195.0px" font-family="CMUBright-Bold" style="text-anchor:end;fill:rgb(0,0,0);" transform="rotate(10.7,309.5,1349.5)" >29</text>
<path d="M543.733,1370.465 A965.000,965.000 40.000 0,1 562.714,1270.393 L407.309,1232.323 A1125.000,1125.000 0.000 0,0 385.182,1348.988 Z" style="stroke-width:2.0;stroke:rgb(115,115,115);stroke-linecap:round;fill:none;" />
<path d="M582.230,1201.799 A965.000,965.000 40.000 0,1 618.774,1106.724 L472.664,1041.517 A1125.000,1125.000 0.000 0,0 430.061,1152.356 Z" style="stroke-width:2.0;stroke:rgb(115,115,115);stroke-linecap:round;fill:rgb(253,141,60);" />
<text x="355.5" y="1139.3" font-size="195.0px" font-family="CMUBright-Bold" style="text-anchor:end;fill:rgb(0,0,0);" transform="rotate(21.0,355.5,1139.3)" >35</text>
<path d="M582.230,1201.799 A965.000,965.000 40.000 0,1 618.774,1106.724 L472.664,1041.517 A1125.000,1125.000 0.000 0,0 430.061,1152.356 Z" style="stroke-width:2.0;stroke:rgb(115,115,115);stroke-linecap:round;fill:none;" />
<path d="M650.225,1042.717 A965.000,965.000 40.000 0,1 703.158,955.695 L571.039,865.447 A1125.000,1125.000 0.000 0,0 509.330,966.898 Z" style="stroke-width:2.0;stroke:rgb(115,115,115);stroke-linecap:round;fill:rgb(66,146,198);" />
<text x="438.3" y="940.7" font-size="195.0px" font-family="CMUBright-Bold" style="text-anchor:end;fill:rgb(0,0,0);" transform="rotate(31.3,438.3,940.7)" >3</text>
<path d="M650.225,1042.717 A965.000,965.000 40.000 0,1 703.158,955.695 L571.039,865.447 A1125.000,1125.000 0.000 0,0 509.330,966.898 Z" style="stroke-width:2.0;stroke:rgb(115,115,115);stroke-linecap:round;fill:none;" />
<path d="M745.533,898.332 A965.000,965.000 40.000 0,1 813.153,822.160 L699.272,709.772 A1125.000,1125.000 0.000 0,0 620.440,798.574 Z" style="stroke-width:2.0;stroke:rgb(115,115,115);stroke-linecap:round;fill:rgb(66,146,198);" />
<text x="555.2" y="760.2" font-size="195.0px" font-family="CMUBright-Bold" style="text-anchor:end;fill:rgb(0,0,0);" transform="rotate(41.6,555.2,760.2)" >6</text>
<path d="M745.533,898.332 A965.000,965.000 40.000 0,1 813.153,822.160 L699.272,709.772 A1125.000,1125.000 0.000 0,0 620.440,798.574 Z" style="stroke-width:2.0;stroke:rgb(115,115,115);stroke-linecap:round;fill:none;" />
<path d="M865.089,773.286 A965.000,965.000 40.000 0,1 945.224,710.412 L853.241,579.496 A1125.000,1125.000 0.000 0,0 759.819,652.795 Z" style="stroke-width:2.0;stroke:rgb(115,115,115);stroke-linecap:round;fill:rgb(66,146,198);" />
<text x="704.0" y="602.0" font-size="195.0px" font-family="CMUBright-Bold" style="text-anchor:end;fill:rgb(0,0,0);" transform="rotate(51.9,704.0,602.0)" >14</text>
<path d="M865.089,773.286 A965.000,965.000 40.000 0,1 945.224,710.412 L853.241,579.496 A1125.000,1125.000 0.000 0,0 759.819,652.795 Z" style="stroke-width:2.0;stroke:rgb(115,115,115);stroke-linecap:round;fill:none;" />
<path d="M1005.052,671.597 A965.000,965.000 40.000 0,1 1095.126,624.042 L1027.997,478.806 A1125.000,1125.000 0.000 0,0 922.988,534.245 Z" style="stroke-width:2.0;stroke:rgb(115,115,115);stroke-linecap:round;fill:rgb(66,146,198);" />
<text x="875.4" y="475.4" font-size="195.0px" font-family="CMUBright-Bold" style="text-anchor:end;fill:rgb(0,0,0);" transform="rotate(62.2,875.4,475.4)" >15</text>
<path d="M1005.052,671.597 A965.000,965.000 40.000 0,1 1095.126,624.042 L1027.997,478.806 A1125.000,1125.000 0.000 0,0 922.988,534.245 Z" style="stroke-width:2.0;stroke:rgb(115,115,115);stroke-linecap:round;fill:none;" />
<path d="M1160.923,596.533 A965.000,965.000 40.000 0,1 1258.041,565.826 L1217.923,410.937 A1125.000,1125.000 0.000 0,0 1104.703,446.736 Z" style="stroke-width:2.0;stroke:rgb(115,115,115);stroke-linecap:round;fill:rgb(66,146,198);" />
<text x="1068.4" y="380.3" font-size="195.0px" font-family="CMUBright-Bold" style="text-anchor:end;fill:rgb(0,0,0);" transform="rotate(72.5,1068.4,380.3)" >30</text>
<path d="M1160.923,596.533 A965.000,965.000 40.000 0,1 1258.041,565.826 L1217.923,410.937 A1125.000,1125.000 0.000 0,0 1104.703,446.736 Z" style="stroke-width:2.0;stroke:rgb(115,115,115);stroke-linecap:round;fill:none;" />
<path d="M1327.693,550.508 A965.000,965.000 40.000 0,1 1428.732,537.635 L1416.916,378.072 A1125.000,1125.000 0.000 0,0 1299.123,393.079 Z" style="stroke-width:2.0;stroke:rgb(115,115,115);stroke-linecap:round;fill:rgb(66,146,198);" />
<text x="1275.3" y="321.2" font-size="195.0px" font-family="CMUBright-Bold" style="text-anchor:end;fill:rgb(0,0,0);" transform="rotate(82.7,1275.3,321.2)" >33</text>
<path d="M1327.693,550.508 A965.000,965.000 40.000 0,1 1428.732,537.635 L1416.916,378.072 A1125.000,1125.000 0.000 0,0 1299.123,393.079 Z" style="stroke-width:2.0;stroke:rgb(115,115,115);stroke-linecap:round;fill:none;" />
</g>
<g id="track_1">
<path d="M 1548.4,584.5 L 1545.8,628.0 1542.7,671.8 1538.9,715.9 1534.5,760.2 1529.4,804.7 1523.6,849.4 1517.2,894.2 1510.0,939.1 1502.0,984.0 1493.3,1029.0 1483.8,1073.9 1473.5,1118.7 1462.4,1163.5 1450.6,1208.2 1437.9,1252.7 1424.4,1297.0 1410.1,1341.2 1395.0,1385.0 1379.2,1428.7 1362.5,1472.0 1345.1,1515.1 1326.9,1557.8 1307.9,1600.1 1288.2,1642.0 1267.8,1683.6 1246.7,1724.7 1225.0,1765.4 1202.5,1805.6 1179.5,1845.3 1155.9,1884.5 1131.7,1923.2 1107.0,1961.3 1081.8,1998.9 1056.2,2036.0 1030.1,2072.4 1003.7,2108.3 977.0,2143.5 950.0,2178.2 922.8,2212.2  " style="stroke-opacity: 1.000000; stroke-width: 5.0; stroke: rgb(251,106,74); fill: none"  />
<path d="M 1209.8,2369.6 L 1224.5,2325.5 1239.1,2281.2 1253.7,2236.9 1268.2,2192.5 1282.6,2148.0 1297.0,2103.4 1311.2,2058.7 1325.4,2013.9 1339.5,1969.1 1353.5,1924.2 1367.4,1879.2 1381.2,1834.2 1394.9,1789.1 1408.5,1743.9 1422.0,1698.7 1435.4,1653.5 1448.7,1608.1 1461.8,1562.8 1474.9,1517.4 1487.8,1472.0 1500.6,1426.5 1513.3,1381.0 1525.9,1335.5 1538.3,1290.0 1550.6,1244.5 1562.8,1198.9 1574.9,1153.4 1586.9,1107.8 1598.8,1062.2 1610.5,1016.7 1622.1,971.2 1633.6,925.6 1645.0,880.1 1656.3,834.7 1667.5,789.2 1678.5,743.8 1689.5,698.5 1700.3,653.1 1711.1,607.9  " style="stroke-opacity: 1.000000; stroke-width: 5.0; stroke: rgb(251,106,74); fill: none"  />
<path d="M 1711.1,607.9 L 1702.2,643.8 1692.4,679.5 1681.7,714.9 1670.2,749.6 1657.8,783.6 1644.4,816.7 1630.2,848.7 1615.0,879.5 1598.9,908.8 1581.8,936.7 1563.8,962.9 1545.0,987.5 1525.2,1010.1 1504.5,1030.9 1483.0,1049.7 1460.6,1066.4 1437.4,1081.0 1413.4,1093.4 1388.7,1103.7 1363.2,1111.8 1337.1,1117.6 1310.3,1121.2 1283.0,1122.6 1255.0,1121.7 1226.6,1118.8 1197.8,1113.7 1168.6,1106.5 1139.0,1097.3 1109.2,1086.1 1079.3,1073.1 1049.2,1058.4 1019.1,1041.9 989.0,1024.0 959.1,1004.6 929.3,983.9 899.9,962.1 870.9,939.3 842.4,915.6 814.4,891.4  " style="stroke-opacity: 1.000000; stroke-width: 5.0; stroke: rgb(251,106,74); fill: none"  />
<path d="M 814.4,891.4 L 843.9,918.2 873.1,945.9 901.7,974.6 929.6,1004.0 956.8,1034.4 983.1,1065.5 1008.5,1097.5 1032.8,1130.2 1056.0,1163.6 1077.9,1197.7 1098.6,1232.5 1117.9,1267.9 1135.7,1303.9 1152.1,1340.4 1167.0,1377.5 1180.3,1415.0 1192.0,1453.0 1202.0,1491.3 1210.5,1530.1 1217.2,1569.1 1222.3,1608.4 1225.8,1647.9 1227.5,1687.6 1227.6,1727.5 1226.1,1767.4 1223.0,1807.3 1218.3,1847.2 1212.0,1887.0 1204.3,1926.7 1195.1,1966.2 1184.5,2005.5 1172.6,2044.4 1159.5,2083.1 1145.2,2121.2 1129.8,2159.0 1113.4,2196.1 1096.1,2232.7 1078.0,2268.6 1059.2,2303.8  " style="stroke-opacity: 1.000000; stroke-width: 5.0; stroke: rgb(251,106,74); fill: none"  />
<path d="M 1059.2,2303.8 L 1081.0,2263.8 1102.6,2223.6 1124.2,2183.0 1145.5,2142.1 1166.7,2101.0 1187.7,2059.6 1208.4,2018.0 1229.0,1976.1 1249.2,1933.9 1269.3,1891.5 1289.1,1848.9 1308.6,1806.1 1327.8,1763.1 1346.7,1719.8 1365.4,1676.4 1383.7,1632.8 1401.7,1589.0 1419.3,1545.1 1436.7,1501.0 1453.6,1456.8 1470.3,1412.5 1486.6,1368.0 1502.6,1323.5 1518.2,1278.8 1533.4,1234.1 1548.3,1189.3 1562.9,1144.5 1577.1,1099.6 1590.9,1054.7 1604.4,1009.8 1617.6,965.0 1630.4,920.1 1642.9,875.2 1655.0,830.5 1666.9,785.7 1678.4,741.1 1689.6,696.6 1700.5,652.2 1711.1,607.9  " style="stroke-opacity: 1.000000; stroke-width: 5.0; stroke: rgb(251,106,74); fill: none"  />
<path d="M 1059.2,2303.8 L 1078.0,2268.6 1096.1,2232.7 1113.4,2196.1 1129.8,2159.0 1145.2,2121.2 1159.5,2083.1 1172.6,2044.4 1184.5,2005.5 1195.1,1966.2 1204.3,1926.7 1212.0,1887.0 1218.3,1847.2 1223.0,1807.3 1226.1,1767.4 1227.6,1727.5 1227.5,1687.6 1225.8,1647.9 1222.3,1608.4 1217.2,1569.1 1210.5,1530.1 1202.0,1491.3 1192.0,1453.0 1180.3,1415.0 1167.0,1377.5 1152.1,1340.4 1135.7,1303.9 1117.9,1267.9 1098.6,1232.5 1077.9,1197.7 1056.0,1163.6 1032.8,1130.2 1008.5,1097.5 983.1,1065.5 956.8,1034.4 929.6,1004.0 901.7,974.6 873.1,945.9 843.9,918.2 814.4,891.4  " style="stroke-opacity: 1.000000; stroke-width: 5.0; stroke: rgb(251,106,74); fill: none"  />
<path d="M 1059.2,2303.8 L 1078.8,2269.1 1099.3,2234.5 1120.9,2200.3 1143.4,2166.4 1166.9,2133.2 1191.4,2100.6 1216.9,2068.7 1243.4,2037.8 1270.8,2007.7 1299.2,1978.8 1328.5,1950.9 1358.7,1924.2 1389.8,1898.8 1421.8,1874.7 1454.6,1851.9 1488.3,1830.6 1522.7,1810.8 1557.9,1792.4 1593.7,1775.6 1630.3,1760.3 1667.5,1746.6 1705.3,1734.4 1743.6,1723.9 1782.4,1714.9 1821.6,1707.5 1861.2,1701.7 1901.2,1697.4 1941.4,1694.7 1981.8,1693.4 2022.4,1693.5 2063.0,1695.1 2103.6,1698.0 2144.2,1702.2 2184.6,1707.7 2224.8,1714.3 2264.7,1722.0 2304.2,1730.8 2343.3,1740.4 2381.8,1750.9  " style="stroke-opacity: 1.000000; stroke-width: 5.0; stroke: rgb(251,106,74); fill: none"  />
<path d="M 922.8,2212.2 L 950.0,2178.2 977.0,2143.5 1003.7,2108.3 1030.1,2072.4 1056.2,2036.0 1081.8,1998.9 1107.0,1961.3 1131.7,1923.2 1155.9,1884.5 1179.5,1845.3 1202.5,1805.6 1225.0,1765.4 1246.7,1724.7 1267.8,1683.6 1288.2,1642.0 1307.9,1600.1 1326.9,1557.8 1345.1,1515.1 1362.5,1472.0 1379.2,1428.7 1395.0,1385.0 1410.1,1341.2 1424.4,1297.0 1437.9,1252.7 1450.6,1208.2 1462.4,1163.5 1473.5,1118.7 1483.8,1073.9 1493.3,1029.0 1502.0,984.0 1510.0,939.1 1517.2,894.2 1523.6,849.4 1529.4,804.7 1534.5,760.2 1538.9,715.9 1542.7,671.8 1545.8,628.0 1548.4,584.5  " style="stroke-opacity: 1.000000; stroke-width: 5.0; stroke: rgb(251,106,74); fill: none"  />
<path d="M 922.8,2212.2 L 951.0,2177.7 979.7,2143.3 1008.9,2108.9 1038.6,2074.6 1068.8,2040.5 1099.6,2006.5 1130.8,1972.8 1162.5,1939.2 1194.7,1906.0 1227.4,1873.0 1260.6,1840.3 1294.3,1807.9 1328.4,1775.9 1363.0,1744.2 1398.0,1712.9 1433.4,1682.1 1469.3,1651.6 1505.6,1621.6 1542.3,1592.1 1579.4,1563.0 1616.8,1534.4 1654.6,1506.3 1692.7,1478.7 1731.1,1451.6 1769.8,1425.0 1808.8,1399.0 1848.0,1373.4 1887.4,1348.5 1927.1,1324.0 1966.9,1300.1 2006.9,1276.7 2047.1,1253.9 2087.3,1231.6 2127.6,1209.8 2167.9,1188.6 2208.3,1167.9 2248.6,1147.7 2288.9,1128.0 2329.1,1108.8  " style="stroke-opacity: 1.000000; stroke-width: 5.0; stroke: rgb(251,106,74); fill: none"  />
<path d="M 922.8,2212.2 L 948.7,2180.8 975.7,2149.7 1003.5,2119.0 1032.2,2088.8 1061.8,2059.2 1092.2,2030.3 1123.5,2002.1 1155.7,1974.8 1188.6,1948.4 1222.3,1923.1 1256.8,1898.8 1292.0,1875.6 1328.0,1853.6 1364.6,1832.8 1401.8,1813.3 1439.7,1795.2 1478.2,1778.3 1517.2,1762.9 1556.7,1748.8 1596.7,1736.2 1637.1,1724.9 1677.9,1715.2 1719.0,1706.8 1760.5,1699.9 1802.2,1694.5 1844.1,1690.4 1886.1,1687.8 1928.2,1686.5 1970.4,1686.5 2012.6,1687.9 2054.7,1690.5 2096.7,1694.4 2138.5,1699.4 2180.1,1705.6 2221.3,1712.8 2262.1,1721.0 2302.6,1730.2 2342.4,1740.1 2381.8,1750.9  " style="stroke-opacity: 1.000000; stroke-width: 5.0; stroke: rgb(251,106,74); fill: none"  />
<path d="M 922.8,2212.2 L 947.7,2182.1 973.6,2152.5 1000.3,2123.4 1028.0,2095.1 1056.4,2067.6 1085.7,2041.0 1115.7,2015.5 1146.4,1991.2 1177.9,1968.2 1210.0,1946.5 1242.8,1926.3 1276.1,1907.6 1310.0,1890.5 1344.4,1875.1 1379.3,1861.3 1414.6,1849.4 1450.3,1839.2 1486.4,1830.8 1522.7,1824.3 1559.3,1819.6 1596.2,1816.8 1633.2,1815.9 1670.3,1816.8 1707.5,1819.5 1744.7,1824.1 1781.8,1830.4 1818.9,1838.4 1855.9,1848.2 1892.7,1859.5 1929.2,1872.4 1965.4,1886.9 2001.3,1902.7 2036.7,1919.8 2071.7,1938.2 2106.2,1957.7 2140.0,1978.3 2173.2,1999.7 2205.7,2021.9 2237.4,2044.7  " style="stroke-opacity: 1.000000; stroke-width: 5.0; stroke: rgb(251,106,74); fill: none"  />
<path d="M 922.8,2212.2 L 947.2,2182.7 972.6,2153.7 998.8,2125.4 1025.7,2097.8 1053.4,2071.2 1081.8,2045.6 1110.9,2021.3 1140.6,1998.3 1170.9,1976.6 1201.7,1956.6 1233.0,1938.1 1264.8,1921.4 1297.0,1906.4 1329.5,1893.2 1362.4,1882.0 1395.6,1872.7 1429.0,1865.4 1462.5,1860.0 1496.3,1856.7 1530.1,1855.5 1563.9,1856.3 1597.8,1859.1 1631.7,1863.9 1665.4,1870.8 1699.0,1879.6 1732.5,1890.3 1765.7,1902.8 1798.6,1917.2 1831.2,1933.3 1863.4,1951.0 1895.2,1970.3 1926.5,1991.1 1957.3,2013.3 1987.5,2036.7 2017.1,2061.2 2046.1,2086.7 2074.3,2113.0 2101.7,2140.0 2128.3,2167.6  " style="stroke-opacity: 1.000000; stroke-width: 5.0; stroke: rgb(251,106,74); fill: none"  />
<path d="M 2011.1,738.9 L 1985.1,777.5 1959.0,816.1 1932.8,854.8 1906.5,893.4 1880.1,932.0 1853.6,970.6 1826.9,1009.2 1800.2,1047.8 1773.3,1086.3 1746.3,1124.9 1719.2,1163.3 1692.0,1201.8 1664.6,1240.2 1637.2,1278.5 1609.7,1316.9 1582.0,1355.1 1554.2,1393.3 1526.4,1431.4 1498.4,1469.5 1470.4,1507.5 1442.2,1545.4 1413.9,1583.2 1385.6,1621.0 1357.2,1658.6 1328.7,1696.2 1300.1,1733.7 1271.4,1771.1 1242.6,1808.4 1213.8,1845.7 1184.9,1882.8 1156.0,1919.8 1127.0,1956.7 1097.9,1993.5 1068.8,2030.3 1039.7,2066.9 1010.5,2103.4 981.3,2139.7 952.0,2176.0 922.8,2212.2  " style="stroke-opacity: 1.000000; stroke-width: 5.0; stroke: rgb(251,106,74); fill: none"  />
<path d="M 2011.1,738.9 L 1988.5,771.8 1964.9,804.4 1940.4,836.5 1914.9,868.2 1888.5,899.2 1861.2,929.5 1832.9,958.9 1803.8,987.4 1773.8,1014.8 1742.9,1041.2 1711.2,1066.3 1678.7,1090.2 1645.5,1112.7 1611.5,1133.8 1576.7,1153.5 1541.3,1171.8 1505.3,1188.4 1468.6,1203.6 1431.3,1217.1 1393.6,1229.1 1355.3,1239.4 1316.6,1248.1 1277.5,1255.2 1238.0,1260.6 1198.3,1264.5 1158.3,1266.7 1118.1,1267.4 1077.8,1266.6 1037.5,1264.2 997.1,1260.4 956.7,1255.2 916.5,1248.7 876.5,1240.8 836.7,1231.8 797.3,1221.6 758.3,1210.3 719.7,1198.1 681.7,1185.0 644.3,1171.1  " style="stroke-opacity: 1.000000; stroke-width: 5.0; stroke: rgb(251,106,74); fill: none"  />
<path d="M 709.3,1964.0 L 748.5,1940.8 787.8,1917.3 827.1,1893.5 866.3,1869.4 905.6,1845.0 944.8,1820.2 984.0,1795.1 1023.1,1769.7 1062.2,1743.9 1101.1,1717.8 1140.0,1691.4 1178.7,1664.6 1217.3,1637.5 1255.7,1610.1 1293.9,1582.4 1332.0,1554.3 1369.9,1526.0 1407.6,1497.3 1445.1,1468.4 1482.4,1439.1 1519.4,1409.6 1556.2,1379.8 1592.7,1349.8 1629.0,1319.5 1665.1,1288.9 1700.8,1258.1 1736.3,1227.1 1771.5,1195.8 1806.4,1164.4 1841.1,1132.8 1875.4,1101.0 1909.4,1069.1 1943.1,1037.0 1976.5,1004.8 2009.6,972.4 2042.4,940.0 2074.8,907.5 2106.9,875.0 2138.8,842.4  " style="stroke-opacity: 1.000000; stroke-width: 5.0; stroke: rgb(251,106,74); fill: none"  />
<path d="M 709.3,1964.0 L 749.4,1940.4 789.5,1916.7 829.7,1892.9 869.8,1869.0 910.0,1844.9 950.1,1820.8 990.3,1796.5 1030.4,1772.2 1070.5,1747.7 1110.6,1723.1 1150.7,1698.3 1190.7,1673.5 1230.7,1648.6 1270.6,1623.5 1310.5,1598.3 1350.4,1573.1 1390.2,1547.7 1429.9,1522.2 1469.6,1496.6 1509.2,1470.9 1548.8,1445.1 1588.3,1419.2 1627.7,1393.2 1667.0,1367.1 1706.3,1340.9 1745.4,1314.6 1784.5,1288.3 1823.5,1261.8 1862.4,1235.3 1901.2,1208.7 1939.9,1182.1 1978.5,1155.4 2017.0,1128.6 2055.4,1101.8 2093.8,1074.9 2132.0,1048.0 2170.0,1021.0 2208.0,994.1 2245.9,967.0  " style="stroke-opacity: 1.000000; stroke-width: 5.0; stroke: rgb(251,106,74); fill: none"  />
<path d="M 709.3,1964.0 L 747.8,1941.6 786.8,1919.4 826.3,1897.5 866.1,1875.9 906.4,1854.5 947.1,1833.5 988.2,1812.9 1029.7,1792.7 1071.5,1772.8 1113.8,1753.4 1156.3,1734.4 1199.2,1716.0 1242.4,1698.0 1285.9,1680.5 1329.7,1663.5 1373.7,1647.1 1418.0,1631.2 1462.5,1615.8 1507.2,1601.1 1552.2,1586.9 1597.3,1573.2 1642.5,1560.2 1687.9,1547.7 1733.4,1535.9 1778.9,1524.6 1824.6,1513.9 1870.3,1503.8 1916.0,1494.3 1961.7,1485.3 2007.4,1476.9 2053.1,1469.1 2098.7,1461.8 2144.1,1455.1 2189.5,1448.8 2234.7,1443.1 2279.8,1437.9 2324.7,1433.2 2369.3,1428.9 2413.7,1425.1  " style="stroke-opacity: 1.000000; stroke-width: 5.0; stroke: rgb(251,106,74); fill: none"  />
<path d="M 709.3,1964.0 L 747.0,1942.1 785.3,1920.6 824.2,1899.5 863.6,1878.8 903.6,1858.5 944.0,1838.7 985.0,1819.4 1026.4,1800.7 1068.3,1782.6 1110.6,1765.1 1153.3,1748.3 1196.4,1732.2 1239.9,1716.7 1283.7,1702.0 1327.8,1688.1 1372.2,1674.9 1416.9,1662.5 1461.9,1650.9 1507.0,1640.1 1552.4,1630.2 1597.9,1621.0 1643.6,1612.7 1689.4,1605.2 1735.2,1598.5 1781.1,1592.6 1827.1,1587.6 1873.0,1583.4 1918.9,1579.9 1964.7,1577.3 2010.5,1575.4 2056.1,1574.2 2101.5,1573.8 2146.8,1574.2 2191.8,1575.2 2236.6,1576.8 2281.1,1579.1 2325.2,1582.0 2369.0,1585.4 2412.4,1589.4  " style="stroke-opacity: 1.000000; stroke-width: 5.0; stroke: rgb(251,106,74); fill: none"  />
<path d="M 709.3,1964.0 L 746.2,1942.7 783.8,1921.8 822.1,1901.4 860.9,1881.6 900.4,1862.3 940.4,1843.7 981.0,1825.8 1022.1,1808.7 1063.7,1792.3 1105.7,1776.8 1148.2,1762.1 1191.1,1748.3 1234.4,1735.5 1278.0,1723.6 1321.9,1712.7 1366.1,1702.8 1410.5,1693.9 1455.1,1686.1 1500.0,1679.3 1545.0,1673.6 1590.1,1668.9 1635.3,1665.3 1680.5,1662.7 1725.8,1661.2 1771.0,1660.8 1816.2,1661.3 1861.3,1662.9 1906.2,1665.5 1951.1,1669.1 1995.7,1673.6 2040.0,1679.0 2084.1,1685.3 2127.9,1692.5 2171.3,1700.4 2214.3,1709.2 2256.9,1718.6 2299.1,1728.8 2340.7,1739.5 2381.8,1750.9  " style="stroke-opacity: 1.000000; stroke-width: 5.0; stroke: rgb(251,106,74); fill: none"  />
<path d="M 709.3,1964.0 L 744.7,1943.7 780.8,1924.0 817.6,1905.1 855.1,1886.9 893.2,1869.6 931.9,1853.2 971.1,1837.8 1010.8,1823.5 1050.9,1810.4 1091.4,1798.5 1132.2,1787.9 1173.3,1778.6 1214.7,1770.6 1256.3,1764.0 1298.0,1758.9 1339.8,1755.1 1381.8,1752.9 1423.7,1752.1 1465.6,1752.8 1507.5,1755.1 1549.3,1758.8 1590.9,1764.0 1632.4,1770.6 1673.6,1778.7 1714.6,1788.2 1755.2,1799.2 1795.5,1811.5 1835.4,1825.1 1874.9,1839.9 1913.9,1856.0 1952.4,1873.3 1990.4,1891.7 2027.7,1911.1 2064.4,1931.4 2100.5,1952.7 2135.9,1974.7 2170.5,1997.5 2204.3,2020.8 2237.4,2044.7  " style="stroke-opacity: 1.000000; stroke-width: 5.0; stroke: rgb(251,106,74); fill: none"  />
<path d="M 709.3,1964.0 L 743.9,1944.2 779.3,1925.0 815.4,1906.7 852.1,1889.2 889.3,1872.7 927.1,1857.3 965.3,1843.1 1003.9,1830.0 1042.8,1818.3 1082.1,1808.0 1121.5,1799.1 1161.1,1791.7 1200.9,1785.8 1240.7,1781.5 1280.5,1778.9 1320.4,1777.8 1360.1,1778.4 1399.7,1780.7 1439.1,1784.7 1478.3,1790.3 1517.3,1797.6 1555.9,1806.5 1594.2,1817.1 1632.2,1829.3 1669.6,1843.1 1706.6,1858.4 1743.1,1875.2 1779.1,1893.5 1814.4,1913.1 1849.2,1934.1 1883.2,1956.3 1916.6,1979.6 1949.3,2004.0 1981.2,2029.4 2012.3,2055.7 2042.6,2082.8 2072.0,2110.6 2100.6,2138.9 2128.3,2167.6  " style="stroke-opacity: 1.000000; stroke-width: 5.0; stroke: rgb(251,106,74); fill: none"  />
<path d="M 2245.9,967.0 L 2208.0,994.1 2170.0,1021.0 2132.0,1048.0 2093.8,1074.9 2055.4,1101.8 2017.0,1128.6 1978.5,1155.4 1939.9,1182.1 1901.2,1208.7 1862.4,1235.3 1823.5,1261.8 1784.5,1288.3 1745.4,1314.6 1706.3,1340.9 1667.0,1367.1 1627.7,1393.2 1588.3,1419.2 1548.8,1445.1 1509.2,1470.9 1469.6,1496.6 1429.9,1522.2 1390.2,1547.7 1350.4,1573.1 1310.5,1598.3 1270.6,1623.5 1230.7,1648.6 1190.7,1673.5 1150.7,1698.3 1110.6,1723.1 1070.5,1747.7 1030.4,1772.2 990.3,1796.5 950.1,1820.8 910.0,1844.9 869.8,1869.0 829.7,1892.9 789.5,1916.7 749.4,1940.4 709.3,1964.0  " style="stroke-opacity: 1.000000; stroke-width: 5.0; stroke: rgb(251,106,74); fill: none"  />
<path d="M 2329.1,1108.8 L 2288.9,1128.0 2248.6,1147.7 2208.3,1167.9 2167.9,1188.6 2127.6,1209.8 2087.3,1231.6 2047.1,1253.9 2006.9,1276.7 1966.9,1300.1 1927.1,1324.0 1887.4,1348.5 1848.0,1373.4 1808.8,1399.0 1769.8,1425.0 1731.1,1451.6 1692.7,1478.7 1654.6,1506.3 1616.8,1534.4 1579.4,1563.0 1542.3,1592.1 1505.6,1621.6 1469.3,1651.6 1433.4,1682.1 1398.0,1712.9 1363.0,1744.2 1328.4,1775.9 1294.3,1807.9 1260.6,1840.3 1227.4,1873.0 1194.7,1906.0 1162.5,1939.2 1130.8,1972.8 1099.6,2006.5 1068.8,2040.5 1038.6,2074.6 1008.9,2108.9 979.7,2143.3 951.0,2177.7 922.8,2212.2  " style="stroke-opacity: 1.000000; stroke-width: 5.0; stroke: rgb(251,106,74); fill: none"  />
<path d="M 2413.7,1425.1 L 2369.3,1428.9 2324.7,1433.2 2279.8,1437.9 2234.7,1443.1 2189.5,1448.8 2144.1,1455.1 2098.7,1461.8 2053.1,1469.1 2007.4,1476.9 1961.7,1485.3 1916.0,1494.3 1870.3,1503.8 1824.6,1513.9 1778.9,1524.6 1733.4,1535.9 1687.9,1547.7 1642.5,1560.2 1597.3,1573.2 1552.2,1586.9 1507.2,1601.1 1462.5,1615.8 1418.0,1631.2 1373.7,1647.1 1329.7,1663.5 1285.9,1680.5 1242.4,1698.0 1199.2,1716.0 1156.3,1734.4 1113.8,1753.4 1071.5,1772.8 1029.7,1792.7 988.2,1812.9 947.1,1833.5 906.4,1854.5 866.1,1875.9 826.3,1897.5 786.8,1919.4 747.8,1941.6 709.3,1964.0  " style="stroke-opacity: 1.000000; stroke-width: 5.0; stroke: rgb(251,106,74); fill: none"  />
<path d="M 2412.4,1589.4 L 2369.0,1585.4 2325.2,1582.0 2281.1,1579.1 2236.6,1576.8 2191.8,1575.2 2146.8,1574.2 2101.5,1573.8 2056.1,1574.2 2010.5,1575.4 1964.7,1577.3 1918.9,1579.9 1873.0,1583.4 1827.1,1587.6 1781.1,1592.6 1735.2,1598.5 1689.4,1605.2 1643.6,1612.7 1597.9,1621.0 1552.4,1630.2 1507.0,1640.1 1461.9,1650.9 1416.9,1662.5 1372.2,1674.9 1327.8,1688.1 1283.7,1702.0 1239.9,1716.7 1196.4,1732.2 1153.3,1748.3 1110.6,1765.1 1068.3,1782.6 1026.4,1800.7 985.0,1819.4 944.0,1838.7 903.6,1858.5 863.6,1878.8 824.2,1899.5 785.3,1920.6 747.0,1942.1 709.3,1964.0  " style="stroke-opacity: 1.000000; stroke-width: 5.0; stroke: rgb(251,106,74); fill: none"  />
<path d="M 2381.8,1750.9 L 2343.3,1740.4 2304.2,1730.8 2264.7,1722.0 2224.8,1714.3 2184.6,1707.7 2144.2,1702.2 2103.6,1698.0 2063.0,1695.1 2022.4,1693.5 1981.8,1693.4 1941.4,1694.7 1901.2,1697.4 1861.2,1701.7 1821.6,1707.5 1782.4,1714.9 1743.6,1723.9 1705.3,1734.4 1667.5,1746.6 1630.3,1760.3 1593.7,1775.6 1557.9,1792.4 1522.7,1810.8 1488.3,1830.6 1454.6,1851.9 1421.8,1874.7 1389.8,1898.8 1358.7,1924.2 1328.5,1950.9 1299.2,1978.8 1270.8,2007.7 1243.4,2037.8 1216.9,2068.7 1191.4,2100.6 1166.9,2133.2 1143.4,2166.4 1120.9,2200.3 1099.3,2234.5 1078.8,2269.1 1059.2,2303.8  " style="stroke-opacity: 1.000000; stroke-width: 5.0; stroke: rgb(251,106,74); fill: none"  />
<path d="M 2381.8,1750.9 L 2342.4,1740.1 2302.6,1730.2 2262.1,1721.0 2221.3,1712.8 2180.1,1705.6 2138.5,1699.4 2096.7,1694.4 2054.7,1690.5 2012.6,1687.9 1970.4,1686.5 1928.2,1686.5 1886.1,1687.8 1844.1,1690.4 1802.2,1694.5 1760.5,1699.9 1719.0,1706.8 1677.9,1715.2 1637.1,1724.9 1596.7,1736.2 1556.7,1748.8 1517.2,1762.9 1478.2,1778.3 1439.7,1795.2 1401.8,1813.3 1364.6,1832.8 1328.0,1853.6 1292.0,1875.6 1256.8,1898.8 1222.3,1923.1 1188.6,1948.4 1155.7,1974.8 1123.5,2002.1 1092.2,2030.3 1061.8,2059.2 1032.2,2088.8 1003.5,2119.0 975.7,2149.7 948.7,2180.8 922.8,2212.2  " style="stroke-opacity: 1.000000; stroke-width: 5.0; stroke: rgb(251,106,74); fill: none"  />
<path d="M 2381.8,1750.9 L 2340.7,1739.5 2299.1,1728.8 2256.9,1718.6 2214.3,1709.2 2171.3,1700.4 2127.9,1692.5 2084.1,1685.3 2040.0,1679.0 1995.7,1673.6 1951.1,1669.1 1906.2,1665.5 1861.3,1662.9 1816.2,1661.3 1771.0,1660.8 1725.8,1661.2 1680.5,1662.7 1635.3,1665.3 1590.1,1668.9 1545.0,1673.6 1500.0,1679.3 1455.1,1686.1 1410.5,1693.9 1366.1,1702.8 1321.9,1712.7 1278.0,1723.6 1234.4,1735.5 1191.1,1748.3 1148.2,1762.1 1105.7,1776.8 1063.7,1792.3 1022.1,1808.7 981.0,1825.8 940.4,1843.7 900.4,1862.3 860.9,1881.6 822.1,1901.4 783.8,1921.8 746.2,1942.7 709.3,1964.0  " style="stroke-opacity: 1.000000; stroke-width: 5.0; stroke: rgb(251,106,74); fill: none"  />
<path d="M 583.3,1492.7 L 624.9,1492.7 667.0,1491.8 709.3,1490.1 751.9,1487.5 794.7,1483.9 837.6,1479.3 880.5,1473.7 923.5,1467.1 966.3,1459.3 1009.0,1450.5 1051.6,1440.5 1093.9,1429.4 1135.9,1417.1 1177.6,1403.6 1218.9,1389.0 1259.8,1373.1 1300.2,1356.1 1340.1,1338.0 1379.5,1318.6 1418.2,1298.2 1456.4,1276.6 1493.9,1253.9 1530.7,1230.1 1566.9,1205.2 1602.3,1179.4 1636.9,1152.6 1670.7,1124.8 1703.8,1096.2 1736.0,1066.7 1767.5,1036.4 1798.0,1005.4 1827.7,973.7 1856.6,941.4 1884.5,908.5 1911.6,875.2 1937.8,841.5 1963.1,807.5 1987.5,773.3 2011.1,738.9  " style="stroke-opacity: 1.000000; stroke-width: 5.0; stroke: rgb(251,106,74); fill: none"  />
<path d="M 2237.4,2044.7 L 2205.7,2021.9 2173.2,1999.7 2140.0,1978.3 2106.2,1957.7 2071.7,1938.2 2036.7,1919.8 2001.3,1902.7 1965.4,1886.9 1929.2,1872.4 1892.7,1859.5 1855.9,1848.2 1818.9,1838.4 1781.8,1830.4 1744.7,1824.1 1707.5,1819.5 1670.3,1816.8 1633.2,1815.9 1596.2,1816.8 1559.3,1819.6 1522.7,1824.3 1486.4,1830.8 1450.3,1839.2 1414.6,1849.4 1379.3,1861.3 1344.4,1875.1 1310.0,1890.5 1276.1,1907.6 1242.8,1926.3 1210.0,1946.5 1177.9,1968.2 1146.4,1991.2 1115.7,2015.5 1085.7,2041.0 1056.4,2067.6 1028.0,2095.1 1000.3,2123.4 973.6,2152.5 947.7,2182.1 922.8,2212.2  " style="stroke-opacity: 1.000000; stroke-width: 5.0; stroke: rgb(251,106,74); fill: none"  />
<path d="M 2237.4,2044.7 L 2204.3,2020.8 2170.5,1997.5 2135.9,1974.7 2100.5,1952.7 2064.4,1931.4 2027.7,1911.1 1990.4,1891.7 1952.4,1873.3 1913.9,1856.0 1874.9,1839.9 1835.4,1825.1 1795.5,1811.5 1755.2,1799.2 1714.6,1788.2 1673.6,1778.7 1632.4,1770.6 1590.9,1764.0 1549.3,1758.8 1507.5,1755.1 1465.6,1752.8 1423.7,1752.1 1381.8,1752.9 1339.8,1755.1 1298.0,1758.9 1256.3,1764.0 1214.7,1770.6 1173.3,1778.6 1132.2,1787.9 1091.4,1798.5 1050.9,1810.4 1010.8,1823.5 971.1,1837.8 931.9,1853.2 893.2,1869.6 855.1,1886.9 817.6,1905.1 780.8,1924.0 744.7,1943.7 709.3,1964.0  " style="stroke-opacity: 1.000000; stroke-width: 5.0; stroke: rgb(251,106,74); fill: none"  />
<path d="M 2128.3,2167.6 L 2101.7,2140.0 2074.3,2113.0 2046.1,2086.7 2017.1,2061.2 1987.5,2036.7 1957.3,2013.3 1926.5,1991.1 1895.2,1970.3 1863.4,1951.0 1831.2,1933.3 1798.6,1917.2 1765.7,1902.8 1732.5,1890.3 1699.0,1879.6 1665.4,1870.8 1631.7,1863.9 1597.8,1859.1 1563.9,1856.3 1530.1,1855.5 1496.3,1856.7 1462.5,1860.0 1429.0,1865.4 1395.6,1872.7 1362.4,1882.0 1329.5,1893.2 1297.0,1906.4 1264.8,1921.4 1233.0,1938.1 1201.7,1956.6 1170.9,1976.6 1140.6,1998.3 1110.9,2021.3 1081.8,2045.6 1053.4,2071.2 1025.7,2097.8 998.8,2125.4 972.6,2153.7 947.2,2182.7 922.8,2212.2  " style="stroke-opacity: 1.000000; stroke-width: 5.0; stroke: rgb(251,106,74); fill: none"  />
<path d="M 2128.3,2167.6 L 2100.6,2138.9 2072.0,2110.6 2042.6,2082.8 2012.3,2055.7 1981.2,2029.4 1949.3,2004.0 1916.6,1979.6 1883.2,1956.3 1849.2,1934.1 1814.4,1913.1 1779.1,1893.5 1743.1,1875.2 1706.6,1858.4 1669.6,1843.1 1632.2,1829.3 1594.2,1817.1 1555.9,1806.5 1517.3,1797.6 1478.3,1790.3 1439.1,1784.7 1399.7,1780.7 1360.1,1778.4 1320.4,1777.8 1280.5,1778.9 1240.7,1781.5 1200.9,1785.8 1161.1,1791.7 1121.5,1799.1 1082.1,1808.0 1042.8,1818.3 1003.9,1830.0 965.3,1843.1 927.1,1857.3 889.3,1872.7 852.1,1889.2 815.4,1906.7 779.3,1925.0 743.9,1944.2 709.3,1964.0  " style="stroke-opacity: 1.000000; stroke-width: 5.0; stroke: rgb(251,106,74); fill: none"  />
<path d="M 644.3,1171.1 L 680.9,1184.7 718.1,1197.4 755.8,1209.2 793.9,1220.0 832.3,1229.7 870.9,1238.1 909.7,1245.2 948.4,1250.9 987.2,1255.2 1025.8,1257.9 1064.3,1259.1 1102.5,1258.6 1140.4,1256.5 1177.9,1252.7 1215.0,1247.2 1251.6,1239.9 1287.6,1230.9 1323.0,1220.2 1357.8,1207.7 1391.8,1193.4 1425.1,1177.5 1457.7,1159.8 1489.4,1140.5 1520.2,1119.6 1550.2,1097.1 1579.3,1073.0 1607.4,1047.5 1634.6,1020.7 1660.8,992.5 1685.9,963.0 1710.1,932.5 1733.3,900.8 1755.5,868.3 1776.6,834.9 1796.7,800.8 1815.8,766.1 1833.9,731.0 1850.9,695.5 1867.0,659.9  " style="stroke-opacity: 1.000000; stroke-width: 5.0; stroke: rgb(251,106,74); fill: none"  />
<path d="M 644.3,1171.1 L 681.7,1185.0 719.7,1198.1 758.3,1210.3 797.3,1221.6 836.7,1231.8 876.5,1240.8 916.5,1248.7 956.7,1255.2 997.1,1260.4 1037.5,1264.2 1077.8,1266.6 1118.1,1267.4 1158.3,1266.7 1198.3,1264.5 1238.0,1260.6 1277.5,1255.2 1316.6,1248.1 1355.3,1239.4 1393.6,1229.1 1431.3,1217.1 1468.6,1203.6 1505.3,1188.4 1541.3,1171.8 1576.7,1153.5 1611.5,1133.8 1645.5,1112.7 1678.7,1090.2 1711.2,1066.3 1742.9,1041.2 1773.8,1014.8 1803.8,987.4 1832.9,958.9 1861.2,929.5 1888.5,899.2 1914.9,868.2 1940.4,836.5 1964.9,804.4 1988.5,771.8 2011.1,738.9  " style="stroke-opacity: 1.000000; stroke-width: 5.0; stroke: rgb(251,106,74); fill: none"  />
</g>
<g id="track_0">
<path d="M 1548.4,584.5 L 1546.8,621.5 1546.2,658.5 1546.4,695.4 1547.7,732.0 1550.1,768.2 1553.6,803.7 1558.3,838.4 1564.2,872.2 1571.4,904.9 1579.9,936.4 1589.8,966.7 1601.0,995.5 1613.6,1022.8 1627.6,1048.6 1643.0,1072.6 1659.8,1095.0 1677.9,1115.5 1697.4,1134.2 1718.3,1151.0 1740.4,1165.9 1763.9,1178.8 1788.6,1189.8 1814.4,1198.8 1841.5,1205.9 1869.6,1211.0 1898.7,1214.3 1928.8,1215.6 1959.7,1215.1 1991.4,1212.7 2023.8,1208.7 2056.8,1203.0 2090.4,1195.7 2124.3,1186.9 2158.5,1176.7 2192.8,1165.2 2227.2,1152.6 2261.4,1138.8 2295.5,1124.2 2329.1,1108.8  " style="stroke-opacity: 1.000000; stroke-width: 5.0; stroke: rgb(107,174,214); fill: none"  />
<path d="M 1548.4,584.5 L 1546.5,627.1 1545.2,670.1 1544.7,713.4 1545.0,757.0 1546.0,800.9 1547.9,845.0 1550.7,889.3 1554.3,933.7 1558.9,978.2 1564.5,1022.6 1571.0,1067.1 1578.5,1111.5 1586.9,1155.8 1596.4,1200.0 1607.0,1244.0 1618.5,1287.8 1631.1,1331.3 1644.6,1374.6 1659.2,1417.5 1674.8,1460.1 1691.4,1502.3 1709.0,1544.1 1727.5,1585.5 1747.0,1626.3 1767.4,1666.7 1788.7,1706.6 1810.8,1745.9 1833.8,1784.6 1857.5,1822.8 1882.1,1860.3 1907.3,1897.2 1933.1,1933.5 1959.6,1969.1 1986.7,2003.9 2014.2,2038.1 2042.2,2071.6 2070.6,2104.4 2099.3,2136.4 2128.3,2167.6  " style="stroke-opacity: 1.000000; stroke-width: 5.0; stroke: rgb(107,174,214); fill: none"  />
<path d="M 1711.1,607.9 L 1703.1,642.4 1695.5,676.7 1688.3,710.7 1681.8,744.1 1675.8,776.6 1670.6,808.2 1666.1,838.5 1662.5,867.5 1659.7,895.0 1657.8,920.7 1656.9,944.7 1657.0,966.8 1658.1,986.8 1660.3,1004.6 1663.5,1020.3 1667.8,1033.6 1673.2,1044.7 1679.7,1053.3 1687.3,1059.5 1695.9,1063.3 1705.6,1064.6 1716.3,1063.5 1728.1,1060.0 1740.8,1054.0 1754.5,1045.8 1769.1,1035.2 1784.5,1022.4 1800.7,1007.5 1817.7,990.6 1835.4,971.7 1853.6,951.0 1872.4,928.6 1891.6,904.7 1911.2,879.5 1931.0,853.0 1951.1,825.5 1971.2,797.2 1991.2,768.2 2011.1,738.9  " style="stroke-opacity: 1.000000; stroke-width: 5.0; stroke: rgb(107,174,214); fill: none"  />
<path d="M 1711.1,607.9 L 1702.9,644.0 1695.7,680.3 1689.3,716.7 1684.1,752.9 1679.9,788.9 1677.1,824.4 1675.5,859.4 1675.3,893.7 1676.5,927.2 1679.3,959.8 1683.6,991.3 1689.5,1021.7 1697.0,1050.8 1706.2,1078.6 1717.0,1105.0 1729.5,1130.0 1743.7,1153.5 1759.6,1175.3 1777.1,1195.6 1796.2,1214.2 1817.0,1231.1 1839.3,1246.3 1863.2,1259.8 1888.5,1271.6 1915.2,1281.7 1943.3,1290.0 1972.6,1296.7 2003.2,1301.7 2034.8,1305.1 2067.4,1306.9 2100.9,1307.2 2135.2,1306.0 2170.1,1303.4 2205.6,1299.5 2241.4,1294.3 2277.5,1288.0 2313.7,1280.6 2349.8,1272.3 2385.6,1263.1  " style="stroke-opacity: 1.000000; stroke-width: 5.0; stroke: rgb(107,174,214); fill: none"  />
<path d="M 1711.1,607.9 L 1702.5,646.0 1694.9,684.6 1688.2,723.5 1682.7,762.7 1678.3,802.1 1675.1,841.5 1673.3,880.8 1672.8,920.0 1673.8,959.0 1676.3,997.6 1680.3,1035.9 1685.8,1073.7 1693.0,1111.0 1701.8,1147.7 1712.3,1183.7 1724.4,1218.9 1738.1,1253.4 1753.5,1287.1 1770.6,1319.8 1789.3,1351.7 1809.6,1382.5 1831.4,1412.4 1854.8,1441.2 1879.7,1469.0 1906.0,1495.7 1933.7,1521.2 1962.8,1545.7 1993.1,1569.0 2024.5,1591.2 2057.1,1612.2 2090.6,1632.1 2125.1,1650.8 2160.3,1668.4 2196.2,1684.8 2232.7,1700.2 2269.7,1714.4 2306.9,1727.6 2344.3,1739.7 2381.8,1750.9  " style="stroke-opacity: 1.000000; stroke-width: 5.0; stroke: rgb(107,174,214); fill: none"  />
<path d="M 1059.2,2303.8 L 1076.1,2272.9 1092.7,2242.0 1108.9,2211.6 1124.5,2181.7 1139.5,2152.6 1153.7,2124.4 1167.0,2097.3 1179.4,2071.4 1190.7,2047.0 1200.8,2024.1 1209.8,2002.9 1217.4,1983.5 1223.7,1966.0 1228.7,1950.4 1232.2,1936.8 1234.3,1925.4 1234.8,1916.1 1233.9,1909.0 1231.5,1904.1 1227.6,1901.5 1222.1,1901.1 1215.2,1902.9 1206.8,1906.9 1197.0,1913.2 1185.8,1921.6 1173.2,1932.0 1159.4,1944.5 1144.3,1959.0 1128.0,1975.3 1110.7,1993.3 1092.4,2013.0 1073.2,2034.2 1053.1,2056.8 1032.4,2080.6 1011.1,2105.5 989.3,2131.3 967.3,2157.8 945.0,2184.9 922.8,2212.2  " style="stroke-opacity: 1.000000; stroke-width: 5.0; stroke: rgb(107,174,214); fill: none"  />
<path d="M 1867.0,659.9 L 1852.9,692.3 1839.2,724.4 1825.8,756.2 1812.9,787.4 1800.6,817.8 1788.9,847.1 1778.1,875.3 1768.1,902.1 1759.0,927.5 1751.0,951.1 1744.0,973.1 1738.1,993.1 1733.4,1011.2 1729.9,1027.1 1727.6,1040.9 1726.5,1052.5 1726.8,1061.8 1728.4,1068.8 1731.2,1073.5 1735.4,1075.7 1740.8,1075.6 1747.5,1073.2 1755.5,1068.4 1764.7,1061.3 1775.2,1052.0 1786.7,1040.4 1799.4,1026.7 1813.1,1011.0 1827.9,993.3 1843.5,973.8 1860.0,952.5 1877.2,929.7 1895.2,905.4 1913.7,879.8 1932.7,853.1 1952.0,825.5 1971.6,797.1 1991.3,768.2 2011.1,738.9  " style="stroke-opacity: 1.000000; stroke-width: 5.0; stroke: rgb(107,174,214); fill: none"  />
<path d="M 1867.0,659.9 L 1852.7,693.5 1839.2,727.3 1826.5,761.2 1814.9,795.0 1804.3,828.6 1795.0,861.9 1787.1,894.6 1780.6,926.7 1775.6,958.0 1772.2,988.5 1770.4,1017.9 1770.4,1046.3 1772.2,1073.6 1775.8,1099.6 1781.2,1124.2 1788.5,1147.5 1797.7,1169.3 1808.7,1189.7 1821.7,1208.5 1836.5,1225.7 1853.1,1241.3 1871.5,1255.2 1891.8,1267.6 1913.7,1278.3 1937.2,1287.3 1962.4,1294.8 1989.1,1300.6 2017.1,1304.9 2046.6,1307.6 2077.2,1308.8 2108.9,1308.6 2141.6,1306.9 2175.2,1304.0 2209.4,1299.8 2244.2,1294.4 2279.4,1287.9 2314.8,1280.5 2350.3,1272.2 2385.6,1263.1  " style="stroke-opacity: 1.000000; stroke-width: 5.0; stroke: rgb(107,174,214); fill: none"  />
<path d="M 922.8,2212.2 L 945.0,2184.9 967.3,2157.8 989.3,2131.3 1011.1,2105.5 1032.4,2080.6 1053.1,2056.8 1073.2,2034.2 1092.4,2013.0 1110.7,1993.3 1128.0,1975.3 1144.3,1959.0 1159.4,1944.5 1173.2,1932.0 1185.8,1921.6 1197.0,1913.2 1206.8,1906.9 1215.2,1902.9 1222.1,1901.1 1227.6,1901.5 1231.5,1904.1 1233.9,1909.0 1234.8,1916.1 1234.3,1925.4 1232.2,1936.8 1228.7,1950.4 1223.7,1966.0 1217.4,1983.5 1209.8,2002.9 1200.8,2024.1 1190.7,2047.0 1179.4,2071.4 1167.0,2097.3 1153.7,2124.4 1139.5,2152.6 1124.5,2181.7 1108.9,2211.6 1092.7,2242.0 1076.1,2272.9 1059.2,2303.8  " style="stroke-opacity: 1.000000; stroke-width: 5.0; stroke: rgb(107,174,214); fill: none"  />
<path d="M 922.8,2212.2 L 944.9,2184.6 966.7,2156.9 987.8,2129.4 1008.2,2102.2 1027.7,2075.4 1046.1,2049.3 1063.3,2023.9 1079.2,1999.3 1093.6,1975.8 1106.5,1953.4 1117.7,1932.2 1127.2,1912.3 1134.8,1893.8 1140.6,1876.8 1144.5,1861.3 1146.4,1847.4 1146.4,1835.1 1144.3,1824.5 1140.2,1815.6 1134.0,1808.5 1125.8,1803.1 1115.7,1799.4 1103.6,1797.5 1089.5,1797.3 1073.6,1798.8 1055.9,1802.0 1036.5,1806.8 1015.4,1813.2 992.7,1821.1 968.6,1830.5 943.2,1841.2 916.6,1853.2 888.9,1866.4 860.3,1880.7 830.9,1895.9 800.9,1912.0 770.6,1928.8 739.9,1946.2 709.3,1964.0  " style="stroke-opacity: 1.000000; stroke-width: 5.0; stroke: rgb(107,174,214); fill: none"  />
<path d="M 922.8,2212.2 L 945.0,2184.3 966.8,2156.3 987.9,2128.2 1008.1,2100.3 1027.2,2072.7 1045.2,2045.5 1061.9,2018.8 1077.1,1992.8 1090.8,1967.6 1102.8,1943.3 1113.0,1919.9 1121.4,1897.7 1127.8,1876.5 1132.3,1856.6 1134.7,1838.0 1135.1,1820.8 1133.3,1805.0 1129.5,1790.6 1123.4,1777.7 1115.3,1766.3 1105.0,1756.4 1092.7,1748.1 1078.3,1741.3 1061.8,1736.0 1043.4,1732.3 1023.2,1730.1 1001.1,1729.3 977.3,1730.0 951.9,1732.2 925.0,1735.6 896.7,1740.4 867.2,1746.4 836.6,1753.5 805.0,1761.7 772.7,1770.9 739.7,1780.9 706.3,1791.8 672.8,1803.3 639.2,1815.3  " style="stroke-opacity: 1.000000; stroke-width: 5.0; stroke: rgb(107,174,214); fill: none"  />
<path d="M 2011.1,738.9 L 1991.2,768.2 1971.2,797.2 1951.1,825.5 1931.0,853.0 1911.2,879.5 1891.6,904.7 1872.4,928.6 1853.6,951.0 1835.4,971.7 1817.7,990.6 1800.7,1007.5 1784.5,1022.4 1769.1,1035.2 1754.5,1045.8 1740.8,1054.0 1728.1,1060.0 1716.3,1063.5 1705.6,1064.6 1695.9,1063.3 1687.3,1059.5 1679.7,1053.3 1673.2,1044.7 1667.8,1033.6 1663.5,1020.3 1660.3,1004.6 1658.1,986.8 1657.0,966.8 1656.9,944.7 1657.8,920.7 1659.7,895.0 1662.5,867.5 1666.1,838.5 1670.6,808.2 1675.8,776.6 1681.8,744.1 1688.3,710.7 1695.5,676.7 1703.1,642.4 1711.1,607.9  " style="stroke-opacity: 1.000000; stroke-width: 5.0; stroke: rgb(107,174,214); fill: none"  />
<path d="M 2011.1,738.9 L 1991.4,768.7 1972.2,798.6 1953.8,828.4 1936.1,858.0 1919.5,887.2 1904.1,915.9 1889.8,944.0 1877.0,971.3 1865.7,997.6 1855.9,1022.9 1847.8,1047.1 1841.5,1070.0 1836.9,1091.6 1834.2,1111.8 1833.5,1130.6 1834.7,1147.8 1837.8,1163.4 1843.0,1177.4 1850.2,1189.7 1859.3,1200.3 1870.4,1209.2 1883.5,1216.4 1898.4,1221.9 1915.3,1225.7 1933.9,1227.7 1954.3,1228.1 1976.3,1226.9 2000.0,1224.0 2025.1,1219.6 2051.5,1213.8 2079.3,1206.5 2108.2,1197.9 2138.0,1188.1 2168.7,1177.1 2200.1,1165.0 2232.1,1152.0 2264.3,1138.3 2296.7,1123.8 2329.1,1108.8  " style="stroke-opacity: 1.000000; stroke-width: 5.0; stroke: rgb(107,174,214); fill: none"  />
<path d="M 2011.1,738.9 L 1991.3,769.0 1972.0,799.3 1953.6,829.8 1936.1,860.1 1919.7,890.3 1904.5,920.2 1890.7,949.5 1878.4,978.3 1867.6,1006.4 1858.5,1033.7 1851.2,1060.1 1845.7,1085.5 1842.2,1109.8 1840.6,1133.0 1841.0,1154.9 1843.4,1175.5 1847.9,1194.8 1854.5,1212.7 1863.1,1229.2 1873.8,1244.2 1886.6,1257.8 1901.4,1269.8 1918.2,1280.3 1937.0,1289.3 1957.6,1296.7 1980.0,1302.7 2004.2,1307.2 2030.0,1310.3 2057.3,1311.9 2086.1,1312.1 2116.1,1311.1 2147.4,1308.7 2179.6,1305.2 2212.8,1300.5 2246.7,1294.8 2281.1,1288.1 2315.8,1280.5 2350.7,1272.1 2385.6,1263.1  " style="stroke-opacity: 1.000000; stroke-width: 5.0; stroke: rgb(107,174,214); fill: none"  />
<path d="M 2011.1,738.9 L 1990.8,769.9 1971.2,801.3 1952.5,833.1 1934.8,865.2 1918.3,897.5 1903.1,929.7 1889.4,961.9 1877.1,994.0 1866.5,1025.8 1857.7,1057.2 1850.6,1088.2 1845.5,1118.7 1842.3,1148.7 1841.1,1177.9 1842.0,1206.5 1844.9,1234.3 1849.9,1261.2 1857.1,1287.2 1866.4,1312.4 1877.8,1336.5 1891.3,1359.6 1906.8,1381.7 1924.4,1402.8 1944.0,1422.7 1965.5,1441.5 1988.8,1459.2 2013.9,1475.7 2040.8,1491.2 2069.2,1505.5 2099.1,1518.6 2130.4,1530.6 2162.9,1541.6 2196.5,1551.4 2231.1,1560.2 2266.4,1568.0 2302.4,1574.7 2338.9,1580.5 2375.6,1585.4 2412.4,1589.4  " style="stroke-opacity: 1.000000; stroke-width: 5.0; stroke: rgb(107,174,214); fill: none"  />
<path d="M 2011.1,738.9 L 1989.2,772.3 1968.0,806.4 1947.5,841.3 1927.8,876.9 1909.1,913.1 1891.4,949.8 1874.9,987.1 1859.5,1024.8 1845.5,1063.0 1832.8,1101.5 1821.5,1140.4 1811.7,1179.5 1803.5,1218.8 1796.8,1258.3 1791.7,1297.9 1788.2,1337.5 1786.4,1377.2 1786.3,1416.9 1787.8,1456.5 1791.1,1496.0 1796.0,1535.3 1802.6,1574.4 1810.8,1613.3 1820.7,1651.9 1832.2,1690.1 1845.2,1728.0 1859.8,1765.5 1875.8,1802.4 1893.3,1838.9 1912.1,1874.9 1932.2,1910.2 1953.4,1945.0 1975.8,1979.0 1999.3,2012.4 2023.6,2045.1 2048.8,2077.0 2074.7,2108.0 2101.3,2138.3 2128.3,2167.6  " style="stroke-opacity: 1.000000; stroke-width: 5.0; stroke: rgb(107,174,214); fill: none"  />
<path d="M 709.3,1964.0 L 740.2,1946.1 771.2,1928.8 802.1,1912.2 832.7,1896.4 862.9,1881.6 892.5,1867.9 921.4,1855.4 949.3,1844.2 976.3,1834.5 1002.2,1826.3 1026.8,1819.7 1050.1,1814.7 1071.9,1811.5 1092.3,1810.1 1111.0,1810.5 1128.1,1812.7 1143.5,1816.8 1157.2,1822.8 1169.0,1830.7 1179.1,1840.4 1187.3,1852.1 1193.7,1865.5 1198.2,1880.8 1201.0,1897.8 1201.9,1916.6 1201.0,1936.9 1198.5,1958.9 1194.2,1982.3 1188.3,2007.1 1180.8,2033.2 1171.9,2060.4 1161.6,2088.7 1149.9,2117.9 1137.1,2147.9 1123.2,2178.5 1108.3,2209.6 1092.5,2241.0 1076.1,2272.4 1059.2,2303.8  " style="stroke-opacity: 1.000000; stroke-width: 5.0; stroke: rgb(107,174,214); fill: none"  />
<path d="M 709.3,1964.0 L 739.9,1946.2 770.6,1928.8 800.9,1912.0 830.9,1895.9 860.3,1880.7 888.9,1866.4 916.6,1853.2 943.2,1841.2 968.6,1830.5 992.7,1821.1 1015.4,1813.2 1036.5,1806.8 1055.9,1802.0 1073.6,1798.8 1089.5,1797.3 1103.6,1797.5 1115.7,1799.4 1125.8,1803.1 1134.0,1808.5 1140.2,1815.6 1144.3,1824.5 1146.4,1835.1 1146.4,1847.4 1144.5,1861.3 1140.6,1876.8 1134.8,1893.8 1127.2,1912.3 1117.7,1932.2 1106.5,1953.4 1093.6,1975.8 1079.2,1999.3 1063.3,2023.9 1046.1,2049.3 1027.7,2075.4 1008.2,2102.2 987.8,2129.4 966.7,2156.9 944.9,2184.6 922.8,2212.2  " style="stroke-opacity: 1.000000; stroke-width: 5.0; stroke: rgb(107,174,214); fill: none"  />
<path d="M 2138.8,842.4 L 2112.4,870.2 2086.6,898.8 2061.6,928.2 2037.4,958.2 2014.2,988.9 1992.2,1020.1 1971.5,1051.9 1952.1,1084.1 1934.3,1116.7 1918.0,1149.7 1903.4,1183.0 1890.5,1216.5 1879.4,1250.3 1870.3,1284.1 1863.0,1318.1 1857.7,1352.1 1854.4,1386.2 1853.1,1420.1 1853.8,1454.0 1856.6,1487.7 1861.4,1521.3 1868.2,1554.6 1877.0,1587.6 1887.8,1620.3 1900.5,1652.6 1915.1,1684.6 1931.5,1716.0 1949.6,1747.0 1969.5,1777.5 1990.9,1807.4 2013.9,1836.7 2038.2,1865.3 2063.9,1893.3 2090.7,1920.5 2118.5,1947.0 2147.2,1972.7 2176.7,1997.6 2206.8,2021.6 2237.4,2044.7  " style="stroke-opacity: 1.000000; stroke-width: 5.0; stroke: rgb(107,174,214); fill: none"  />
<path d="M 2245.9,967.0 L 2217.0,988.0 2188.6,1009.2 2160.8,1030.6 2133.9,1052.2 2108.1,1073.7 2083.5,1095.2 2060.3,1116.4 2038.8,1137.4 2018.9,1158.1 2000.8,1178.4 1984.8,1198.2 1970.8,1217.4 1958.9,1236.0 1949.3,1254.0 1942.0,1271.3 1937.1,1287.8 1934.6,1303.6 1934.5,1318.5 1936.9,1332.5 1941.7,1345.7 1948.9,1357.9 1958.6,1369.2 1970.7,1379.6 1985.2,1389.1 2001.9,1397.5 2020.8,1405.1 2041.9,1411.7 2065.0,1417.3 2090.1,1422.0 2116.9,1425.8 2145.5,1428.8 2175.5,1430.9 2207.0,1432.1 2239.6,1432.6 2273.2,1432.4 2307.6,1431.5 2342.7,1429.9 2378.1,1427.7 2413.7,1425.1  " style="stroke-opacity: 1.000000; stroke-width: 5.0; stroke: rgb(107,174,214); fill: none"  />
<path d="M 2245.9,967.0 L 2216.8,988.2 2188.1,1009.9 2160.2,1031.9 2133.1,1054.2 2107.2,1076.7 2082.5,1099.3 2059.2,1121.9 2037.6,1144.6 2017.6,1167.1 1999.5,1189.4 1983.4,1211.6 1969.3,1233.4 1957.5,1254.9 1947.8,1276.0 1940.5,1296.7 1935.5,1316.9 1932.9,1336.5 1932.8,1355.6 1935.1,1374.1 1939.9,1391.9 1947.1,1409.0 1956.7,1425.5 1968.8,1441.2 1983.1,1456.2 1999.8,1470.5 2018.7,1484.0 2039.7,1496.7 2062.8,1508.6 2087.9,1519.7 2114.7,1530.1 2143.2,1539.6 2173.3,1548.4 2204.8,1556.4 2237.4,1563.7 2271.2,1570.2 2305.7,1576.0 2340.9,1581.1 2376.6,1585.6 2412.4,1589.4  " style="stroke-opacity: 1.000000; stroke-width: 5.0; stroke: rgb(107,174,214); fill: none"  />
<path d="M 2329.1,1108.8 L 2295.5,1124.2 2261.4,1138.8 2227.2,1152.6 2192.8,1165.2 2158.5,1176.7 2124.3,1186.9 2090.4,1195.7 2056.8,1203.0 2023.8,1208.7 1991.4,1212.7 1959.7,1215.1 1928.8,1215.6 1898.7,1214.3 1869.6,1211.0 1841.5,1205.9 1814.4,1198.8 1788.6,1189.8 1763.9,1178.8 1740.4,1165.9 1718.3,1151.0 1697.4,1134.2 1677.9,1115.5 1659.8,1095.0 1643.0,1072.6 1627.6,1048.6 1613.6,1022.8 1601.0,995.5 1589.8,966.7 1579.9,936.4 1571.4,904.9 1564.2,872.2 1558.3,838.4 1553.6,803.7 1550.1,768.2 1547.7,732.0 1546.4,695.4 1546.2,658.5 1546.8,621.5 1548.4,584.5  " style="stroke-opacity: 1.000000; stroke-width: 5.0; stroke: rgb(107,174,214); fill: none"  />
<path d="M 2329.1,1108.8 L 2297.0,1123.8 2264.9,1138.3 2233.2,1152.3 2201.9,1165.6 2171.3,1178.2 2141.5,1189.8 2112.7,1200.5 2085.1,1210.1 2058.9,1218.5 2034.0,1225.6 2010.8,1231.5 1989.2,1236.0 1969.4,1239.0 1951.5,1240.6 1935.5,1240.7 1921.5,1239.2 1909.6,1236.2 1899.8,1231.7 1892.2,1225.6 1886.7,1217.9 1883.4,1208.7 1882.3,1198.0 1883.3,1185.7 1886.4,1172.1 1891.7,1157.0 1899.0,1140.5 1908.3,1122.8 1919.5,1103.8 1932.6,1083.7 1947.4,1062.5 1963.9,1040.4 1981.9,1017.4 2001.3,993.6 2022.0,969.2 2043.8,944.3 2066.5,919.0 2090.1,893.5 2114.2,867.9 2138.8,842.4  " style="stroke-opacity: 1.000000; stroke-width: 5.0; stroke: rgb(107,174,214); fill: none"  />
<path d="M 2329.1,1108.8 L 2295.8,1125.0 2262.9,1141.9 2230.5,1159.6 2198.9,1178.1 2168.2,1197.3 2138.6,1217.2 2110.2,1237.8 2083.3,1259.0 2057.9,1280.9 2034.2,1303.3 2012.2,1326.4 1992.1,1349.9 1974.0,1373.9 1958.0,1398.5 1944.1,1423.4 1932.4,1448.8 1922.9,1474.5 1915.7,1500.5 1910.8,1526.8 1908.2,1553.4 1907.9,1580.2 1909.9,1607.1 1914.2,1634.2 1920.8,1661.3 1929.6,1688.5 1940.6,1715.7 1953.6,1742.8 1968.7,1769.8 1985.8,1796.6 2004.7,1823.2 2025.4,1849.6 2047.7,1875.7 2071.5,1901.4 2096.7,1926.6 2123.1,1951.4 2150.5,1975.7 2178.8,1999.4 2207.9,2022.4 2237.4,2044.7  " style="stroke-opacity: 1.000000; stroke-width: 5.0; stroke: rgb(107,174,214); fill: none"  />
<path d="M 2329.1,1108.8 L 2295.3,1125.2 2261.7,1142.6 2228.7,1160.8 2196.4,1179.9 2164.9,1199.8 2134.3,1220.6 2105.0,1242.2 2076.9,1264.6 2050.2,1287.8 2025.0,1311.8 2001.5,1336.5 1979.7,1361.9 1959.7,1387.9 1941.6,1414.7 1925.5,1442.0 1911.3,1469.9 1899.3,1498.4 1889.3,1527.4 1881.5,1556.9 1875.8,1586.8 1872.3,1617.0 1871.0,1647.7 1871.8,1678.6 1874.7,1709.7 1879.7,1741.1 1886.7,1772.6 1895.8,1804.2 1906.8,1835.8 1919.6,1867.4 1934.3,1898.9 1950.6,1930.3 1968.6,1961.4 1988.0,1992.3 2008.8,2022.8 2030.8,2052.9 2053.9,2082.5 2078.0,2111.5 2102.8,2139.9 2128.3,2167.6  " style="stroke-opacity: 1.000000; stroke-width: 5.0; stroke: rgb(107,174,214); fill: none"  />
<path d="M 639.2,1815.3 L 672.8,1803.3 706.3,1791.8 739.7,1780.9 772.7,1770.9 805.0,1761.7 836.6,1753.5 867.2,1746.4 896.7,1740.4 925.0,1735.6 951.9,1732.2 977.3,1730.0 1001.1,1729.3 1023.2,1730.1 1043.4,1732.3 1061.8,1736.0 1078.3,1741.3 1092.7,1748.1 1105.0,1756.4 1115.3,1766.3 1123.4,1777.7 1129.5,1790.6 1133.3,1805.0 1135.1,1820.8 1134.7,1838.0 1132.3,1856.6 1127.8,1876.5 1121.4,1897.7 1113.0,1919.9 1102.8,1943.3 1090.8,1967.6 1077.1,1992.8 1061.9,2018.8 1045.2,2045.5 1027.2,2072.7 1008.1,2100.3 987.9,2128.2 966.8,2156.3 945.0,2184.3 922.8,2212.2  " style="stroke-opacity: 1.000000; stroke-width: 5.0; stroke: rgb(107,174,214); fill: none"  />
<path d="M 2385.6,1263.1 L 2349.8,1272.3 2313.7,1280.6 2277.5,1288.0 2241.4,1294.3 2205.6,1299.5 2170.1,1303.4 2135.2,1306.0 2100.9,1307.2 2067.4,1306.9 2034.8,1305.1 2003.2,1301.7 1972.6,1296.7 1943.3,1290.0 1915.2,1281.7 1888.5,1271.6 1863.2,1259.8 1839.3,1246.3 1817.0,1231.1 1796.2,1214.2 1777.1,1195.6 1759.6,1175.3 1743.7,1153.5 1729.5,1130.0 1717.0,1105.0 1706.2,1078.6 1697.0,1050.8 1689.5,1021.7 1683.6,991.3 1679.3,959.8 1676.5,927.2 1675.3,893.7 1675.5,859.4 1677.1,824.4 1679.9,788.9 1684.1,752.9 1689.3,716.7 1695.7,680.3 1702.9,644.0 1711.1,607.9  " style="stroke-opacity: 1.000000; stroke-width: 5.0; stroke: rgb(107,174,214); fill: none"  />
<path d="M 2385.6,1263.1 L 2350.3,1272.2 2314.8,1280.5 2279.4,1287.9 2244.2,1294.4 2209.4,1299.8 2175.2,1304.0 2141.6,1306.9 2108.9,1308.6 2077.2,1308.8 2046.6,1307.6 2017.1,1304.9 1989.1,1300.6 1962.4,1294.8 1937.2,1287.3 1913.7,1278.3 1891.8,1267.6 1871.5,1255.2 1853.1,1241.3 1836.5,1225.7 1821.7,1208.5 1808.7,1189.7 1797.7,1169.3 1788.5,1147.5 1781.2,1124.2 1775.8,1099.6 1772.2,1073.6 1770.4,1046.3 1770.4,1017.9 1772.2,988.5 1775.6,958.0 1780.6,926.7 1787.1,894.6 1795.0,861.9 1804.3,828.6 1814.9,795.0 1826.5,761.2 1839.2,727.3 1852.7,693.5 1867.0,659.9  " style="stroke-opacity: 1.000000; stroke-width: 5.0; stroke: rgb(107,174,214); fill: none"  />
<path d="M 2385.6,1263.1 L 2350.7,1272.1 2315.8,1280.5 2281.1,1288.1 2246.7,1294.8 2212.8,1300.5 2179.6,1305.2 2147.4,1308.7 2116.1,1311.1 2086.1,1312.1 2057.3,1311.9 2030.0,1310.3 2004.2,1307.2 1980.0,1302.7 1957.6,1296.7 1937.0,1289.3 1918.2,1280.3 1901.4,1269.8 1886.6,1257.8 1873.8,1244.2 1863.1,1229.2 1854.5,1212.7 1847.9,1194.8 1843.4,1175.5 1841.0,1154.9 1840.6,1133.0 1842.2,1109.8 1845.7,1085.5 1851.2,1060.1 1858.5,1033.7 1867.6,1006.4 1878.4,978.3 1890.7,949.5 1904.5,920.2 1919.7,890.3 1936.1,860.1 1953.6,829.8 1972.0,799.3 1991.3,769.0 2011.1,738.9  " style="stroke-opacity: 1.000000; stroke-width: 5.0; stroke: rgb(107,174,214); fill: none"  />
<path d="M 2413.7,1425.1 L 2378.5,1428.0 2343.7,1431.1 2309.3,1434.4 2275.8,1437.8 2243.2,1441.4 2211.8,1445.1 2181.9,1448.9 2153.5,1452.8 2126.9,1456.8 2102.3,1460.9 2079.6,1465.2 2059.2,1469.5 2041.1,1473.9 2025.3,1478.3 2012.1,1482.9 2001.4,1487.4 1993.3,1492.1 1987.9,1496.8 1985.2,1501.5 1985.1,1506.2 1987.8,1511.0 1993.1,1515.7 2001.1,1520.5 2011.8,1525.3 2024.9,1530.0 2040.6,1534.7 2058.6,1539.4 2079.0,1544.0 2101.6,1548.6 2126.2,1553.1 2152.7,1557.6 2181.0,1561.9 2210.9,1566.2 2242.2,1570.4 2274.7,1574.5 2308.2,1578.4 2342.5,1582.2 2377.3,1585.9 2412.4,1589.4  " style="stroke-opacity: 1.000000; stroke-width: 5.0; stroke: rgb(107,174,214); fill: none"  />
<path d="M 2413.7,1425.1 L 2378.4,1428.1 2343.4,1431.5 2308.9,1435.2 2275.1,1439.3 2242.3,1443.7 2210.7,1448.5 2180.4,1453.6 2151.7,1459.1 2124.8,1464.9 2099.7,1471.1 2076.6,1477.7 2055.7,1484.6 2037.0,1491.8 2020.7,1499.4 2006.8,1507.3 1995.4,1515.5 1986.6,1524.0 1980.4,1532.9 1976.8,1542.0 1975.9,1551.4 1977.6,1561.0 1982.0,1570.9 1989.0,1581.0 1998.6,1591.2 2010.6,1601.7 2025.2,1612.3 2042.1,1623.0 2061.3,1633.8 2082.7,1644.7 2106.1,1655.7 2131.4,1666.7 2158.5,1677.6 2187.2,1688.5 2217.2,1699.3 2248.6,1710.0 2280.9,1720.6 2314.0,1730.9 2347.7,1741.0 2381.8,1750.9  " style="stroke-opacity: 1.000000; stroke-width: 5.0; stroke: rgb(107,174,214); fill: none"  />
<path d="M 2412.4,1589.4 L 2375.6,1585.4 2338.9,1580.5 2302.4,1574.7 2266.4,1568.0 2231.1,1560.2 2196.5,1551.4 2162.9,1541.6 2130.4,1530.6 2099.1,1518.6 2069.2,1505.5 2040.8,1491.2 2013.9,1475.7 1988.8,1459.2 1965.5,1441.5 1944.0,1422.7 1924.4,1402.8 1906.8,1381.7 1891.3,1359.6 1877.8,1336.5 1866.4,1312.4 1857.1,1287.2 1849.9,1261.2 1844.9,1234.3 1842.0,1206.5 1841.1,1177.9 1842.3,1148.7 1845.5,1118.7 1850.6,1088.2 1857.7,1057.2 1866.5,1025.8 1877.1,994.0 1889.4,961.9 1903.1,929.7 1918.3,897.5 1934.8,865.2 1952.5,833.1 1971.2,801.3 1990.8,769.9 2011.1,738.9  " style="stroke-opacity: 1.000000; stroke-width: 5.0; stroke: rgb(107,174,214); fill: none"  />
<path d="M 2412.4,1589.4 L 2376.6,1585.6 2340.9,1581.1 2305.7,1576.0 2271.2,1570.2 2237.4,1563.7 2204.8,1556.4 2173.3,1548.4 2143.2,1539.6 2114.7,1530.1 2087.9,1519.7 2062.8,1508.6 2039.7,1496.7 2018.7,1484.0 1999.8,1470.5 1983.1,1456.2 1968.8,1441.2 1956.7,1425.5 1947.1,1409.0 1939.9,1391.9 1935.1,1374.1 1932.8,1355.6 1932.9,1336.5 1935.5,1316.9 1940.5,1296.7 1947.8,1276.0 1957.5,1254.9 1969.3,1233.4 1983.4,1211.6 1999.5,1189.4 2017.6,1167.1 2037.6,1144.6 2059.2,1121.9 2082.5,1099.3 2107.2,1076.7 2133.1,1054.2 2160.2,1031.9 2188.1,1009.9 2216.8,988.2 2245.9,967.0  " style="stroke-opacity: 1.000000; stroke-width: 5.0; stroke: rgb(107,174,214); fill: none"  />
<path d="M 2412.4,1589.4 L 2377.1,1585.8 2342.2,1581.8 2307.7,1577.6 2274.0,1573.0 2241.3,1568.0 2209.8,1562.8 2179.6,1557.2 2151.0,1551.2 2124.1,1545.0 2099.1,1538.4 2076.2,1531.5 2055.4,1524.2 2036.8,1516.7 2020.6,1508.9 2006.8,1500.7 1995.6,1492.3 1986.9,1483.7 1980.8,1474.7 1977.4,1465.6 1976.6,1456.2 1978.5,1446.6 1983.1,1436.8 1990.2,1426.8 1999.9,1416.7 2012.2,1406.4 2026.9,1396.0 2044.0,1385.6 2063.3,1375.1 2084.9,1364.5 2108.5,1353.9 2134.0,1343.4 2161.2,1332.9 2190.0,1322.4 2220.3,1312.1 2251.8,1301.9 2284.3,1291.8 2317.6,1282.0 2351.4,1272.4 2385.6,1263.1  " style="stroke-opacity: 1.000000; stroke-width: 5.0; stroke: rgb(107,174,214); fill: none"  />
<path d="M 2412.4,1589.4 L 2377.3,1585.9 2342.5,1582.2 2308.2,1578.4 2274.7,1574.5 2242.2,1570.4 2210.9,1566.2 2181.0,1561.9 2152.7,1557.6 2126.2,1553.1 2101.6,1548.6 2079.0,1544.0 2058.6,1539.4 2040.6,1534.7 2024.9,1530.0 2011.8,1525.3 2001.1,1520.5 1993.1,1515.7 1987.8,1511.0 1985.1,1506.2 1985.2,1501.5 1987.9,1496.8 1993.3,1492.1 2001.4,1487.4 2012.1,1482.9 2025.3,1478.3 2041.1,1473.9 2059.2,1469.5 2079.6,1465.2 2102.3,1460.9 2126.9,1456.8 2153.5,1452.8 2181.9,1448.9 2211.8,1445.1 2243.2,1441.4 2275.8,1437.8 2309.3,1434.4 2343.7,1431.1 2378.5,1428.0 2413.7,1425.1  " style="stroke-opacity: 1.000000; stroke-width: 5.0; stroke: rgb(107,174,214); fill: none"  />
<path d="M 2381.8,1750.9 L 2343.5,1739.5 2305.3,1727.2 2267.1,1713.8 2229.1,1699.4 2191.4,1683.8 2154.2,1667.2 2117.5,1649.4 2081.4,1630.5 2046.0,1610.4 2011.4,1589.2 1977.7,1566.9 1945.0,1543.3 1913.3,1518.7 1882.7,1492.9 1853.2,1465.9 1824.9,1437.9 1797.9,1408.7 1772.2,1378.5 1747.8,1347.3 1724.8,1315.0 1703.1,1281.8 1682.9,1247.7 1664.1,1212.7 1646.7,1176.9 1630.8,1140.3 1616.3,1102.9 1603.2,1065.0 1591.6,1026.4 1581.3,987.2 1572.4,947.7 1564.9,907.7 1558.7,867.4 1553.8,826.9 1550.1,786.3 1547.7,745.7 1546.3,705.0 1546.0,664.6 1546.7,624.4 1548.4,584.5  " style="stroke-opacity: 1.000000; stroke-width: 5.0; stroke: rgb(107,174,214); fill: none"  />
<path d="M 2381.8,1750.9 L 2347.6,1741.3 2313.7,1732.2 2280.0,1723.6 2247.0,1715.5 2214.7,1708.1 2183.5,1701.5 2153.3,1695.6 2124.6,1690.7 2097.3,1686.7 2071.6,1683.7 2047.7,1681.7 2025.7,1680.8 2005.6,1681.0 1987.7,1682.4 1971.9,1684.9 1958.4,1688.6 1947.1,1693.5 1938.2,1699.6 1931.6,1706.8 1927.5,1715.3 1925.7,1724.9 1926.4,1735.7 1929.4,1747.6 1934.7,1760.6 1942.4,1774.6 1952.2,1789.7 1964.3,1805.6 1978.5,1822.5 1994.7,1840.2 2012.7,1858.7 2032.6,1877.9 2054.1,1897.6 2077.1,1917.9 2101.5,1938.6 2127.0,1959.6 2153.6,1980.9 2181.0,2002.2 2209.0,2023.5 2237.4,2044.7  " style="stroke-opacity: 1.000000; stroke-width: 5.0; stroke: rgb(107,174,214); fill: none"  />
<path d="M 2381.8,1750.9 L 2347.4,1741.3 2313.0,1732.4 2279.0,1724.0 2245.4,1716.4 2212.4,1709.6 2180.3,1703.8 2149.3,1698.9 2119.4,1695.2 2090.8,1692.5 2063.7,1691.0 2038.2,1690.8 2014.5,1691.9 1992.5,1694.2 1972.5,1697.9 1954.4,1703.0 1938.4,1709.5 1924.5,1717.3 1912.8,1726.5 1903.3,1737.1 1896.0,1749.1 1891.0,1762.4 1888.2,1777.1 1887.6,1793.0 1889.2,1810.2 1893.0,1828.5 1899.0,1848.0 1907.0,1868.6 1917.0,1890.2 1928.9,1912.7 1942.6,1936.1 1958.1,1960.2 1975.2,1985.0 1993.8,2010.4 2013.8,2036.2 2034.9,2062.4 2057.1,2088.7 2080.2,2115.1 2104.0,2141.5 2128.3,2167.6  " style="stroke-opacity: 1.000000; stroke-width: 5.0; stroke: rgb(107,174,214); fill: none"  />
<path d="M 2237.4,2044.7 L 2206.8,2021.6 2176.7,1997.6 2147.2,1972.7 2118.5,1947.0 2090.7,1920.5 2063.9,1893.3 2038.2,1865.3 2013.9,1836.7 1990.9,1807.4 1969.5,1777.5 1949.6,1747.0 1931.5,1716.0 1915.1,1684.6 1900.5,1652.6 1887.8,1620.3 1877.0,1587.6 1868.2,1554.6 1861.4,1521.3 1856.6,1487.7 1853.8,1454.0 1853.1,1420.1 1854.4,1386.2 1857.7,1352.1 1863.0,1318.1 1870.3,1284.1 1879.4,1250.3 1890.5,1216.5 1903.4,1183.0 1918.0,1149.7 1934.3,1116.7 1952.1,1084.1 1971.5,1051.9 1992.2,1020.1 2014.2,988.9 2037.4,958.2 2061.6,928.2 2086.6,898.8 2112.4,870.2 2138.8,842.4  " style="stroke-opacity: 1.000000; stroke-width: 5.0; stroke: rgb(107,174,214); fill: none"  />
<path d="M 2237.4,2044.7 L 2208.6,2023.1 2180.3,2001.0 2152.7,1978.5 2126.0,1955.8 2100.4,1932.9 2076.1,1909.9 2053.2,1886.9 2031.9,1863.9 2012.3,1841.1 1994.5,1818.4 1978.8,1796.0 1965.1,1774.0 1953.5,1752.3 1944.2,1731.0 1937.2,1710.2 1932.5,1690.0 1930.3,1670.3 1930.4,1651.2 1933.1,1632.8 1938.1,1615.1 1945.6,1598.0 1955.5,1581.7 1967.8,1566.2 1982.4,1551.4 1999.3,1537.4 2018.4,1524.2 2039.6,1511.9 2062.9,1500.3 2088.1,1489.6 2115.1,1479.7 2143.8,1470.6 2174.0,1462.3 2205.6,1454.8 2238.4,1448.0 2272.2,1442.0 2306.8,1436.8 2342.1,1432.2 2377.8,1428.3 2413.7,1425.1  " style="stroke-opacity: 1.000000; stroke-width: 5.0; stroke: rgb(107,174,214); fill: none"  />
<path d="M 2237.4,2044.7 L 2208.8,2023.3 2180.7,2001.6 2153.3,1979.8 2126.8,1957.8 2101.3,1935.9 2077.0,1914.0 2054.2,1892.4 2032.9,1871.0 2013.4,1850.1 1995.7,1829.5 1979.9,1809.5 1966.2,1790.0 1954.7,1771.2 1945.4,1753.1 1938.4,1735.7 1933.7,1719.1 1931.4,1703.3 1931.6,1688.4 1934.1,1674.4 1939.2,1661.3 1946.6,1649.2 1956.5,1638.0 1968.8,1627.8 1983.4,1618.6 2000.2,1610.4 2019.3,1603.2 2040.5,1596.9 2063.7,1591.6 2088.8,1587.3 2115.7,1583.9 2144.3,1581.4 2174.3,1579.8 2205.8,1579.0 2238.4,1579.1 2272.0,1579.8 2306.5,1581.3 2341.5,1583.4 2376.9,1586.2 2412.4,1589.4  " style="stroke-opacity: 1.000000; stroke-width: 5.0; stroke: rgb(107,174,214); fill: none"  />
<path d="M 2237.4,2044.7 L 2209.0,2023.5 2181.0,2002.2 2153.6,1980.9 2127.0,1959.6 2101.5,1938.6 2077.1,1917.9 2054.1,1897.6 2032.6,1877.9 2012.7,1858.7 1994.7,1840.2 1978.5,1822.5 1964.3,1805.6 1952.2,1789.7 1942.4,1774.6 1934.7,1760.6 1929.4,1747.6 1926.4,1735.7 1925.7,1724.9 1927.5,1715.3 1931.6,1706.8 1938.2,1699.6 1947.1,1693.5 1958.4,1688.6 1971.9,1684.9 1987.7,1682.4 2005.6,1681.0 2025.7,1680.8 2047.7,1681.7 2071.6,1683.7 2097.3,1686.7 2124.6,1690.7 2153.3,1695.6 2183.5,1701.5 2214.7,1708.1 2247.0,1715.5 2280.0,1723.6 2313.7,1732.2 2347.6,1741.3 2381.8,1750.9  " style="stroke-opacity: 1.000000; stroke-width: 5.0; stroke: rgb(107,174,214); fill: none"  />
<path d="M 2237.4,2044.7 L 2209.1,2023.7 2181.1,2002.7 2153.6,1981.8 2126.8,1961.3 2101.0,1941.1 2076.3,1921.5 2052.8,1902.4 2030.8,1884.2 2010.3,1866.8 1991.5,1850.3 1974.5,1834.8 1959.4,1820.3 1946.3,1807.1 1935.2,1795.0 1926.4,1784.2 1919.7,1774.6 1915.3,1766.4 1913.1,1759.6 1913.3,1754.2 1915.7,1750.1 1920.5,1747.5 1927.6,1746.2 1936.9,1746.4 1948.4,1747.9 1962.1,1750.8 1977.9,1755.1 1995.7,1760.6 2015.5,1767.4 2037.0,1775.4 2060.3,1784.5 2085.2,1794.7 2111.6,1805.8 2139.3,1817.9 2168.1,1830.9 2197.8,1844.5 2228.4,1858.8 2259.6,1873.6 2291.1,1888.8 2322.8,1904.3  " style="stroke-opacity: 1.000000; stroke-width: 5.0; stroke: rgb(107,174,214); fill: none"  />
<path d="M 2128.3,2167.6 L 2099.3,2136.4 2070.6,2104.4 2042.2,2071.6 2014.2,2038.1 1986.7,2003.9 1959.6,1969.1 1933.1,1933.5 1907.3,1897.2 1882.1,1860.3 1857.5,1822.8 1833.8,1784.6 1810.8,1745.9 1788.7,1706.6 1767.4,1666.7 1747.0,1626.3 1727.5,1585.5 1709.0,1544.1 1691.4,1502.3 1674.8,1460.1 1659.2,1417.5 1644.6,1374.6 1631.1,1331.3 1618.5,1287.8 1607.0,1244.0 1596.4,1200.0 1586.9,1155.8 1578.5,1111.5 1571.0,1067.1 1564.5,1022.6 1558.9,978.2 1554.3,933.7 1550.7,889.3 1547.9,845.0 1546.0,800.9 1545.0,757.0 1544.7,713.4 1545.2,670.1 1546.5,627.1 1548.4,584.5  " style="stroke-opacity: 1.000000; stroke-width: 5.0; stroke: rgb(107,174,214); fill: none"  />
<path d="M 2128.3,2167.6 L 2101.3,2138.3 2074.7,2108.0 2048.8,2077.0 2023.6,2045.1 1999.3,2012.4 1975.8,1979.0 1953.4,1945.0 1932.2,1910.2 1912.1,1874.9 1893.3,1838.9 1875.8,1802.4 1859.8,1765.5 1845.2,1728.0 1832.2,1690.1 1820.7,1651.9 1810.8,1613.3 1802.6,1574.4 1796.0,1535.3 1791.1,1496.0 1787.8,1456.5 1786.3,1416.9 1786.4,1377.2 1788.2,1337.5 1791.7,1297.9 1796.8,1258.3 1803.5,1218.8 1811.7,1179.5 1821.5,1140.4 1832.8,1101.5 1845.5,1063.0 1859.5,1024.8 1874.9,987.1 1891.4,949.8 1909.1,913.1 1927.8,876.9 1947.5,841.3 1968.0,806.4 1989.2,772.3 2011.1,738.9  " style="stroke-opacity: 1.000000; stroke-width: 5.0; stroke: rgb(107,174,214); fill: none"  />
<path d="M 2128.3,2167.6 L 2101.8,2138.9 2075.9,2109.2 2050.7,2078.8 2026.3,2047.6 2002.9,2015.7 1980.5,1983.2 1959.3,1950.0 1939.3,1916.3 1920.7,1882.0 1903.5,1847.3 1887.9,1812.1 1873.8,1776.6 1861.4,1740.7 1850.8,1704.5 1841.9,1668.1 1834.7,1631.5 1829.4,1594.8 1826.0,1557.9 1824.4,1521.0 1824.7,1484.1 1826.9,1447.2 1830.9,1410.4 1836.8,1373.8 1844.5,1337.3 1854.0,1301.0 1865.2,1265.1 1878.2,1229.4 1892.8,1194.1 1909.0,1159.1 1926.7,1124.7 1945.8,1090.7 1966.3,1057.3 1988.1,1024.5 2011.0,992.3 2034.9,960.8 2059.8,930.0 2085.5,900.0 2111.9,870.8 2138.8,842.4  " style="stroke-opacity: 1.000000; stroke-width: 5.0; stroke: rgb(107,174,214); fill: none"  />
<path d="M 2128.3,2167.6 L 2102.8,2139.9 2078.0,2111.5 2053.9,2082.5 2030.8,2052.9 2008.8,2022.8 1988.0,1992.3 1968.6,1961.4 1950.6,1930.3 1934.3,1898.9 1919.6,1867.4 1906.8,1835.8 1895.8,1804.2 1886.7,1772.6 1879.7,1741.1 1874.7,1709.7 1871.8,1678.6 1871.0,1647.7 1872.3,1617.0 1875.8,1586.8 1881.5,1556.9 1889.3,1527.4 1899.3,1498.4 1911.3,1469.9 1925.5,1442.0 1941.6,1414.7 1959.7,1387.9 1979.7,1361.9 2001.5,1336.5 2025.0,1311.8 2050.2,1287.8 2076.9,1264.6 2105.0,1242.2 2134.3,1220.6 2164.9,1199.8 2196.4,1179.9 2228.7,1160.8 2261.7,1142.6 2295.3,1125.2 2329.1,1108.8  " style="stroke-opacity: 1.000000; stroke-width: 5.0; stroke: rgb(107,174,214); fill: none"  />
<path d="M 2128.3,2167.6 L 2104.0,2141.5 2080.2,2115.1 2057.1,2088.7 2034.9,2062.4 2013.8,2036.2 1993.8,2010.4 1975.2,1985.0 1958.1,1960.2 1942.6,1936.1 1928.9,1912.7 1917.0,1890.2 1907.0,1868.6 1899.0,1848.0 1893.0,1828.5 1889.2,1810.2 1887.6,1793.0 1888.2,1777.1 1891.0,1762.4 1896.0,1749.1 1903.3,1737.1 1912.8,1726.5 1924.5,1717.3 1938.4,1709.5 1954.4,1703.0 1972.5,1697.9 1992.5,1694.2 2014.5,1691.9 2038.2,1690.8 2063.7,1691.0 2090.8,1692.5 2119.4,1695.2 2149.3,1698.9 2180.3,1703.8 2212.4,1709.6 2245.4,1716.4 2279.0,1724.0 2313.0,1732.4 2347.4,1741.3 2381.8,1750.9  " style="stroke-opacity: 1.000000; stroke-width: 5.0; stroke: rgb(107,174,214); fill: none"  />
<path d="M 2128.3,2167.6 L 2104.2,2141.9 2080.4,2116.2 2057.1,2090.8 2034.4,2065.8 2012.6,2041.3 1991.8,2017.6 1972.1,1994.7 1953.7,1972.8 1936.6,1952.0 1921.0,1932.4 1907.1,1914.1 1894.8,1897.2 1884.3,1881.8 1875.6,1868.0 1868.8,1855.7 1863.9,1845.2 1861.0,1836.3 1860.1,1829.2 1861.3,1823.9 1864.4,1820.3 1869.6,1818.6 1876.7,1818.6 1885.9,1820.4 1896.9,1824.0 1909.9,1829.3 1924.7,1836.3 1941.2,1844.9 1959.4,1855.1 1979.2,1866.8 2000.5,1880.0 2023.2,1894.4 2047.2,1910.1 2072.2,1927.0 2098.3,1944.8 2125.1,1963.6 2152.6,1983.1 2180.7,2003.2 2209.0,2023.8 2237.4,2044.7  " style="stroke-opacity: 1.000000; stroke-width: 5.0; stroke: rgb(107,174,214); fill: none"  />
</g>
<defs>
<pattern id="checker" width="10" height="10" patternTransform="rotate(45 0 0)" patternUnits="userSpaceOnUse"><line x1="0" y1="0" x2="10" y2="0" style="stroke:black;stroke-width:2" /><line x1="0" y1="0" x2="0" y2="10" style="stroke:black;stroke-width:2" /></pattern>
<pattern id="vline-sparse" width="10" height="10" patternTransform="rotate(0 0 0)" patternUnits="userSpaceOnUse"><line x1="0" y1="0" x2="0" y2="10" style="stroke:black;stroke-width:2" /></pattern>
<pattern id="hline-sparse" width="10" height="10" patternTransform="rotate(0 0 0)" patternUnits="userSpaceOnUse"><line x1="0" y1="0" x2="10" y2="0" style="stroke:black;stroke-width:2" /></pattern>
<pattern id="hline" width="10" height="10" patternTransform="rotate(0 0 0)" patternUnits="userSpaceOnUse"><line x1="0" y1="0" x2="10" y2="0" style="stroke:black;stroke-width:5" /></pattern>
<pattern id="checker" width="10" height="10" patternTransform="rotate(45 0 0)" patternUnits="userSpaceOnUse"><line x1="0" y1="0" x2="10" y2="0" style="stroke:black;stroke-width:5" /><line x1="0" y1="0" x2="0" y2="10" style="stroke:black;stroke-width:4" /></pattern>
<pattern id="vline" width="10" height="10" patternTransform="rotate(0 0 0)" patternUnits="userSpaceOnUse"><line x1="0" y1="0" x2="0" y2="10" style="stroke:black;stroke-width:5" /></pattern>
</defs>
</svg>
