<?xml version="1.0" encoding="utf-8" standalone="no"?>
<!DOCTYPE svg PUBLIC "-//W3C//DTD SVG 1.1//EN" "http://www.w3.org/Graphics/SVG/1.1/DTD/svg11.dtd">
<svg width="3000px" height="3000px" version="1.1" xmlns="http://www.w3.org/2000/svg" xmlns:xlink="http://www.w3.org/1999/xlink">
<g id="bg">
<rect x="0" y="0" width="3000px" height="3000px" style="fill:rgb(255,255,255);"/>
</g>
<g id="ideograms">
<path d="M1500.000,535.000 A965.000,965.000 40.000 0,1 1601.714,540.376 L1618.579,381.267 A1125.000,1125.000 0.000 0,0 1500.000,375.000 Z" style="stroke-width:2.0;stroke:rgb(115,115,115);stroke-linecap:round;fill:rgb(153,0,204);" />
<text x="1633.1" y="307.4" font-size="195.0px" font-family="CMUBright-Bold" style="text-anchor:start;fill:rgb(0,0,0);" transform="rotate(273.0,1633.1,307.4)" >4</text>
<path d="M1500.000,535.000 A965.000,965.000 40.000 0,1 1601.714,540.376 L1618.579,381.267 A1125.000,1125.000 0.000 0,0 1500.000,375.000 Z" style="stroke-width:2.0;stroke:rgb(115,115,115);stroke-linecap:round;fill:none;" />
<path d="M1672.307,550.508 A965.000,965.000 40.000 0,1 1771.427,573.959 L1816.431,420.418 A1125.000,1125.000 0.000 0,0 1700.877,393.079 Z" style="stroke-width:2.0;stroke:rgb(115,115,115);stroke-linecap:round;fill:rgb(153,0,204);" />
<text x="1845.8" y="350.9" font-size="195.0px" font-family="CMUBright-Bold" style="text-anchor:start;fill:rgb(0,0,0);" transform="rotate(283.3,1845.8,350.9)" >5</text>
<path d="M1672.307,550.508 A965.000,965.000 40.000 0,1 1771.427,573.959 L1816.431,420.418 A1125.000,1125.000 0.000 0,0 1700.877,393.079 Z" style="stroke-width:2.0;stroke:rgb(115,115,115);stroke-linecap:round;fill:none;" />
<path d="M1839.077,596.533 A965.000,965.000 40.000 0,1 1932.417,637.306 L2004.113,494.269 A1125.000,1125.000 0.000 0,0 1895.297,446.736 Z" style="stroke-width:2.0;stroke:rgb(115,115,115);stroke-linecap:round;fill:rgb(153,0,204);" />
<text x="2047.2" y="432.0" font-size="195.0px" font-family="CMUBright-Bold" style="text-anchor:start;fill:rgb(0,0,0);" transform="rotate(293.6,2047.2,432.0)" >8</text>
<path d="M1839.077,596.533 A965.000,965.000 40.000 0,1 1932.417,637.306 L2004.113,494.269 A1125.000,1125.000 0.000 0,0 1895.297,446.736 Z" style="stroke-width:2.0;stroke:rgb(115,115,115);stroke-linecap:round;fill:none;" />
<path d="M1994.948,671.597 A965.000,965.000 40.000 0,1 2079.507,728.381 L2175.592,600.444 A1125.000,1125.000 0.000 0,0 2077.012,534.245 Z" style="stroke-width:2.0;stroke:rgb(115,115,115);stroke-linecap:round;fill:rgb(153,0,204);" />
<text x="2229.1" y="546.9" font-size="195.0px" font-family="CMUBright-Bold" style="text-anchor:start;fill:rgb(0,0,0);" transform="rotate(303.9,2229.1,546.9)" >10</text>
<path d="M1994.948,671.597 A965.000,965.000 40.000 0,1 2079.507,728.381 L2175.592,600.444 A1125.000,1125.000 0.000 0,0 2077.012,534.245 Z" style="stroke-width:2.0;stroke:rgb(115,115,115);stroke-linecap:round;fill:none;" />
<path d="M2134.911,773.286 A965.000,965.000 40.000 0,1 2207.972,844.256 L2325.356,735.532 A1125.000,1125.000 0.000 0,0 2240.181,652.795 Z" style="stroke-width:2.0;stroke:rgb(115,115,115);stroke-linecap:round;fill:rgb(153,0,204);" />
<text x="2387.6" y="692.4" font-size="195.0px" font-family="CMUBright-Bold" style="text-anchor:start;fill:rgb(0,0,0);" transform="rotate(314.2,2387.6,692.4)" >13</text>
<path d="M2134.911,773.286 A965.000,965.000 40.000 0,1 2207.972,844.256 L2325.356,735.532 A1125.000,1125.000 0.000 0,0 2240.181,652.795 Z" style="stroke-width:2.0;stroke:rgb(115,115,115);stroke-linecap:round;fill:none;" />
<path d="M2254.467,898.332 A965.000,965.000 40.000 0,1 2313.683,981.207 L2448.594,895.190 A1125.000,1125.000 0.000 0,0 2379.560,798.574 Z" style="stroke-width:2.0;stroke:rgb(115,115,115);stroke-linecap:round;fill:rgb(153,0,204);" />
<text x="2517.5" y="863.9" font-size="195.0px" font-family="CMUBright-Bold" style="text-anchor:start;fill:rgb(0,0,0);" transform="rotate(324.5,2517.5,863.9)" >18</text>
<path d="M2254.467,898.332 A965.000,965.000 40.000 0,1 2313.683,981.207 L2448.594,895.190 A1125.000,1125.000 0.000 0,0 2379.560,798.574 Z" style="stroke-width:2.0;stroke:rgb(115,115,115);stroke-linecap:round;fill:none;" />
<path d="M2349.775,1042.717 A965.000,965.000 40.000 0,1 2393.240,1134.833 L2541.342,1074.288 A1125.000,1125.000 0.000 0,0 2490.670,966.898 Z" style="stroke-width:2.0;stroke:rgb(115,115,115);stroke-linecap:round;fill:rgb(153,0,204);" />
<text x="2614.7" y="1055.8" font-size="195.0px" font-family="CMUBright-Bold" style="text-anchor:start;fill:rgb(0,0,0);" transform="rotate(334.7,2614.7,1055.8)" >19</text>
<path d="M2349.775,1042.717 A965.000,965.000 40.000 0,1 2393.240,1134.833 L2541.342,1074.288 A1125.000,1125.000 0.000 0,0 2490.670,966.898 Z" style="stroke-width:2.0;stroke:rgb(115,115,115);stroke-linecap:round;fill:none;" />
<path d="M2417.770,1201.799 A965.000,965.000 40.000 0,1 2444.089,1300.196 L2600.621,1267.068 A1125.000,1125.000 0.000 0,0 2569.939,1152.356 Z" style="stroke-width:2.0;stroke:rgb(115,115,115);stroke-linecap:round;fill:rgb(153,0,204);" />
<text x="2675.8" y="1260.0" font-size="195.0px" font-family="CMUBright-Bold" style="text-anchor:start;fill:rgb(0,0,0);" transform="rotate(345.0,2675.8,1260.0)" >21</text>
<path d="M2417.770,1201.799 A965.000,965.000 40.000 0,1 2444.089,1300.196 L2600.621,1267.068 A1125.000,1125.000 0.000 0,0 2569.939,1152.356 Z" style="stroke-width:2.0;stroke:rgb(115,115,115);stroke-linecap:round;fill:none;" />
<path d="M2456.267,1370.465 A965.000,965.000 40.000 0,1 2464.593,1471.980 L2624.526,1467.335 A1125.000,1125.000 0.000 0,0 2614.818,1348.988 Z" style="stroke-width:2.0;stroke:rgb(115,115,115);stroke-linecap:round;fill:rgb(153,0,204);" />
<text x="2699.8" y="1475.8" font-size="195.0px" font-family="CMUBright-Bold" style="text-anchor:start;fill:rgb(0,0,0);" transform="rotate(355.3,2699.8,1475.8)" >26</text>
<path d="M2456.267,1370.465 A965.000,965.000 40.000 0,1 2464.593,1471.980 L2624.526,1467.335 A1125.000,1125.000 0.000 0,0 2614.818,1348.988 Z" style="stroke-width:2.0;stroke:rgb(115,115,115);stroke-linecap:round;fill:none;" />
<path d="M2464.028,1543.295 A965.000,965.000 40.000 0,1 2454.095,1644.665 L2612.287,1668.651 A1125.000,1125.000 0.000 0,0 2623.867,1550.473 Z" style="stroke-width:2.0;stroke:rgb(115,115,115);stroke-linecap:round;fill:rgb(153,0,204);" />
<text x="2684.8" y="1690.4" font-size="195.0px" font-family="CMUBright-Bold" style="text-anchor:start;fill:rgb(0,0,0);" transform="rotate(5.6,2684.8,1690.4)" >28</text>
<path d="M2464.028,1543.295 A965.000,965.000 40.000 0,1 2454.095,1644.665 L2612.287,1668.651 A1125.000,1125.000 0.000 0,0 2623.867,1550.473 Z" style="stroke-width:2.0;stroke:rgb(115,115,115);stroke-linecap:round;fill:none;" />
<path d="M2440.805,1714.733 A965.000,965.000 40.000 0,1 2412.931,1812.701 L2564.298,1864.548 A1125.000,1125.000 0.000 0,0 2596.794,1750.336 Z" style="stroke-width:2.0;stroke:rgb(115,115,115);stroke-linecap:round;fill:rgb(153,0,204);" />
<text x="2631.8" y="1898.9" font-size="195.0px" font-family="CMUBright-Bold" style="text-anchor:start;fill:rgb(0,0,0);" transform="rotate(15.9,2631.8,1898.9)" >35</text>
<path d="M2440.805,1714.733 A965.000,965.000 40.000 0,1 2412.931,1812.701 L2564.298,1864.548 A1125.000,1125.000 0.000 0,0 2596.794,1750.336 Z" style="stroke-width:2.0;stroke:rgb(115,115,115);stroke-linecap:round;fill:none;" />
<path d="M2387.344,1879.269 A965.000,965.000 40.000 0,1 2342.425,1970.686 L2482.102,2048.727 A1125.000,1125.000 0.000 0,0 2534.469,1942.153 Z" style="stroke-width:2.0;stroke:rgb(115,115,115);stroke-linecap:round;fill:rgb(253,208,162);" />
<text x="2542.3" y="2094.6" font-size="195.0px" font-family="CMUBright-Bold" style="text-anchor:start;fill:rgb(0,0,0);" transform="rotate(26.2,2542.3,2094.6)" >31</text>
<path d="M2387.344,1879.269 A965.000,965.000 40.000 0,1 2342.425,1970.686 L2482.102,2048.727 A1125.000,1125.000 0.000 0,0 2534.469,1942.153 Z" style="stroke-width:2.0;stroke:rgb(115,115,115);stroke-linecap:round;fill:none;" />
<path d="M2305.363,2031.616 A965.000,965.000 40.000 0,1 2244.843,2113.542 L2368.340,2215.270 A1125.000,1125.000 0.000 0,0 2438.895,2119.759 Z" style="stroke-width:2.0;stroke:rgb(115,115,115);stroke-linecap:round;fill:rgb(253,208,162);" />
<text x="2419.4" y="2271.1" font-size="195.0px" font-family="CMUBright-Bold" style="text-anchor:start;fill:rgb(0,0,0);" transform="rotate(36.5,2419.4,2271.1)" >32</text>
<path d="M2305.363,2031.616 A965.000,965.000 40.000 0,1 2244.843,2113.542 L2368.340,2215.270 A1125.000,1125.000 0.000 0,0 2438.895,2119.759 Z" style="stroke-width:2.0;stroke:rgb(115,115,115);stroke-linecap:round;fill:none;" />
<path d="M2197.497,2166.875 A965.000,965.000 40.000 0,1 2123.321,2236.679 L2226.669,2358.823 A1125.000,1125.000 0.000 0,0 2313.144,2277.445 Z" style="stroke-width:2.0;stroke:rgb(115,115,115);stroke-linecap:round;fill:rgb(253,141,60);" />
<text x="2268.5" y="2421.6" font-size="195.0px" font-family="CMUBright-Bold" style="text-anchor:start;fill:rgb(0,0,0);" transform="rotate(46.7,2268.5,2421.6)" >1</text>
<path d="M2197.497,2166.875 A965.000,965.000 40.000 0,1 2123.321,2236.679 L2226.669,2358.823 A1125.000,1125.000 0.000 0,0 2313.144,2277.445 Z" style="stroke-width:2.0;stroke:rgb(115,115,115);stroke-linecap:round;fill:none;" />
<path d="M2067.213,2280.701 A965.000,965.000 40.000 0,1 1981.764,2336.139 L2061.642,2474.773 A1125.000,1125.000 0.000 0,0 2161.258,2410.144 Z" style="stroke-width:2.0;stroke:rgb(115,115,115);stroke-linecap:round;fill:rgb(253,141,60);" />
<text x="2089.8" y="2545.0" font-size="195.0px" font-family="CMUBright-Bold" style="text-anchor:start;fill:rgb(0,0,0);" transform="rotate(57.0,2089.8,2545.0)" >3</text>
<path d="M2067.213,2280.701 A965.000,965.000 40.000 0,1 1981.764,2336.139 L2061.642,2474.773 A1125.000,1125.000 0.000 0,0 2161.258,2410.144 Z" style="stroke-width:2.0;stroke:rgb(115,115,115);stroke-linecap:round;fill:none;" />
<path d="M1918.698,2369.435 A965.000,965.000 40.000 0,1 1824.724,2408.724 L1878.564,2559.393 A1125.000,1125.000 0.000 0,0 1988.119,2513.590 Z" style="stroke-width:2.0;stroke:rgb(115,115,115);stroke-linecap:round;fill:rgb(253,141,60);" />
<text x="1893.8" y="2633.6" font-size="195.0px" font-family="CMUBright-Bold" style="text-anchor:start;fill:rgb(0,0,0);" transform="rotate(67.3,1893.8,2633.6)" >6</text>
<path d="M1918.698,2369.435 A965.000,965.000 40.000 0,1 1824.724,2408.724 L1878.564,2559.393 A1125.000,1125.000 0.000 0,0 1988.119,2513.590 Z" style="stroke-width:2.0;stroke:rgb(115,115,115);stroke-linecap:round;fill:none;" />
<path d="M1756.726,2430.224 A965.000,965.000 40.000 0,1 1657.246,2452.102 L1683.318,2609.964 A1125.000,1125.000 0.000 0,0 1799.291,2584.458 Z" style="stroke-width:2.0;stroke:rgb(115,115,115);stroke-linecap:round;fill:rgb(253,141,60);" />
<text x="1688.0" y="2685.2" font-size="195.0px" font-family="CMUBright-Bold" style="text-anchor:start;fill:rgb(0,0,0);" transform="rotate(77.6,1688.0,2685.2)" >7</text>
<path d="M1756.726,2430.224 A965.000,965.000 40.000 0,1 1657.246,2452.102 L1683.318,2609.964 A1125.000,1125.000 0.000 0,0 1799.291,2584.458 Z" style="stroke-width:2.0;stroke:rgb(115,115,115);stroke-linecap:round;fill:none;" />
<path d="M1586.502,2461.115 A965.000,965.000 40.000 0,1 1484.715,2464.879 L1482.181,2624.859 A1125.000,1125.000 0.000 0,0 1600.844,2620.471 Z" style="stroke-width:2.0;stroke:rgb(115,115,115);stroke-linecap:round;fill:rgb(253,141,60);" />
<text x="1470.4" y="2699.6" font-size="195.0px" font-family="CMUBright-Bold" style="text-anchor:start;fill:rgb(0,0,0);" transform="rotate(87.9,1470.4,2699.6)" >9</text>
<path d="M1586.502,2461.115 A965.000,965.000 40.000 0,1 1484.715,2464.879 L1482.181,2624.859 A1125.000,1125.000 0.000 0,0 1600.844,2620.471 Z" style="stroke-width:2.0;stroke:rgb(115,115,115);stroke-linecap:round;fill:none;" />
<path d="M1413.498,2461.115 A965.000,965.000 40.000 0,1 1312.675,2446.644 L1281.616,2603.600 A1125.000,1125.000 0.000 0,0 1399.156,2620.471 Z" style="stroke-width:2.0;stroke:rgb(115,115,115);stroke-linecap:round;fill:rgb(253,141,60);" />
<text x="1401.0" y="2695.9" font-size="195.0px" font-family="CMUBright-Bold" style="text-anchor:end;fill:rgb(0,0,0);" transform="rotate(-81.8,1401.0,2695.9)" >11</text>
<path d="M1413.498,2461.115 A965.000,965.000 40.000 0,1 1312.675,2446.644 L1281.616,2603.600 A1125.000,1125.000 0.000 0,0 1399.156,2620.471 Z" style="stroke-width:2.0;stroke:rgb(115,115,115);stroke-linecap:round;fill:none;" />
<path d="M1243.274,2430.224 A965.000,965.000 40.000 0,1 1146.656,2397.983 L1088.070,2546.871 A1125.000,1125.000 0.000 0,0 1200.709,2584.458 Z" style="stroke-width:2.0;stroke:rgb(115,115,115);stroke-linecap:round;fill:rgb(253,141,60);" />
<text x="1189.1" y="2659.0" font-size="195.0px" font-family="CMUBright-Bold" style="text-anchor:end;fill:rgb(0,0,0);" transform="rotate(-71.5,1189.1,2659.0)" >12</text>
<path d="M1243.274,2430.224 A965.000,965.000 40.000 0,1 1146.656,2397.983 L1088.070,2546.871 A1125.000,1125.000 0.000 0,0 1200.709,2584.458 Z" style="stroke-width:2.0;stroke:rgb(115,115,115);stroke-linecap:round;fill:none;" />
<path d="M1081.302,2369.435 A965.000,965.000 40.000 0,1 991.993,2320.460 L907.764,2456.494 A1125.000,1125.000 0.000 0,0 1011.881,2513.590 Z" style="stroke-width:2.0;stroke:rgb(115,115,115);stroke-linecap:round;fill:rgb(253,141,60);" />
<text x="988.9" y="2585.7" font-size="195.0px" font-family="CMUBright-Bold" style="text-anchor:end;fill:rgb(0,0,0);" transform="rotate(-61.3,988.9,2585.7)" >16</text>
<path d="M1081.302,2369.435 A965.000,965.000 40.000 0,1 991.993,2320.460 L907.764,2456.494 A1125.000,1125.000 0.000 0,0 1011.881,2513.590 Z" style="stroke-width:2.0;stroke:rgb(115,115,115);stroke-linecap:round;fill:none;" />
<path d="M932.787,2280.701 A965.000,965.000 40.000 0,1 853.658,2216.566 L746.493,2335.375 A1125.000,1125.000 0.000 0,0 838.742,2410.144 Z" style="stroke-width:2.0;stroke:rgb(115,115,115);stroke-linecap:round;fill:rgb(253,141,60);" />
<text x="802.5" y="2476.5" font-size="195.0px" font-family="CMUBright-Bold" style="text-anchor:end;fill:rgb(0,0,0);" transform="rotate(-51.0,802.5,2476.5)" >17</text>
<path d="M932.787,2280.701 A965.000,965.000 40.000 0,1 853.658,2216.566 L746.493,2335.375 A1125.000,1125.000 0.000 0,0 838.742,2410.144 Z" style="stroke-width:2.0;stroke:rgb(115,115,115);stroke-linecap:round;fill:none;" />
<path d="M802.503,2166.875 A965.000,965.000 40.000 0,1 736.097,2089.642 L609.440,2187.406 A1125.000,1125.000 0.000 0,0 686.856,2277.445 Z" style="stroke-width:2.0;stroke:rgb(115,115,115);stroke-linecap:round;fill:rgb(253,141,60);" />
<text x="640.0" y="2336.9" font-size="195.0px" font-family="CMUBright-Bold" style="text-anchor:end;fill:rgb(0,0,0);" transform="rotate(-40.7,640.0,2336.9)" >20</text>
<path d="M802.503,2166.875 A965.000,965.000 40.000 0,1 736.097,2089.642 L609.440,2187.406 A1125.000,1125.000 0.000 0,0 686.856,2277.445 Z" style="stroke-width:2.0;stroke:rgb(115,115,115);stroke-linecap:round;fill:none;" />
<path d="M694.637,2031.616 A965.000,965.000 40.000 0,1 643.089,1943.766 L501.010,2017.344 A1125.000,1125.000 0.000 0,0 561.105,2119.759 Z" style="stroke-width:2.0;stroke:rgb(115,115,115);stroke-linecap:round;fill:rgb(253,141,60);" />
<text x="503.3" y="2168.3" font-size="195.0px" font-family="CMUBright-Bold" style="text-anchor:end;fill:rgb(0,0,0);" transform="rotate(-30.4,503.3,2168.3)" >22</text>
<path d="M694.637,2031.616 A965.000,965.000 40.000 0,1 643.089,1943.766 L501.010,2017.344 A1125.000,1125.000 0.000 0,0 561.105,2119.759 Z" style="stroke-width:2.0;stroke:rgb(115,115,115);stroke-linecap:round;fill:none;" />
<path d="M612.656,1879.269 A965.000,965.000 40.000 0,1 577.622,1783.627 L424.689,1830.653 A1125.000,1125.000 0.000 0,0 465.531,1942.153 Z" style="stroke-width:2.0;stroke:rgb(115,115,115);stroke-linecap:round;fill:rgb(253,141,60);" />
<text x="400.8" y="1981.4" font-size="195.0px" font-family="CMUBright-Bold" style="text-anchor:end;fill:rgb(0,0,0);" transform="rotate(-20.1,400.8,1981.4)" >23</text>
<path d="M612.656,1879.269 A965.000,965.000 40.000 0,1 577.622,1783.627 L424.689,1830.653 A1125.000,1125.000 0.000 0,0 465.531,1942.153 Z" style="stroke-width:2.0;stroke:rgb(115,115,115);stroke-linecap:round;fill:none;" />
<path d="M559.195,1714.733 A965.000,965.000 40.000 0,1 541.802,1614.372 L382.929,1633.336 A1125.000,1125.000 0.000 0,0 403.206,1750.336 Z" style="stroke-width:2.0;stroke:rgb(115,115,115);stroke-linecap:round;fill:rgb(253,141,60);" />
<text x="332.5" y="1777.4" font-size="195.0px" font-family="CMUBright-Bold" style="text-anchor:end;fill:rgb(0,0,0);" transform="rotate(-9.8,332.5,1777.4)" >25</text>
<path d="M559.195,1714.733 A965.000,965.000 40.000 0,1 541.802,1614.372 L382.929,1633.336 A1125.000,1125.000 0.000 0,0 403.206,1750.336 Z" style="stroke-width:2.0;stroke:rgb(115,115,115);stroke-linecap:round;fill:none;" />
<path d="M535.972,1543.295 A965.000,965.000 40.000 0,1 536.778,1441.441 L377.073,1431.732 A1125.000,1125.000 0.000 0,0 376.133,1550.473 Z" style="stroke-width:2.0;stroke:rgb(115,115,115);stroke-linecap:round;fill:rgb(253,141,60);" />
<text x="301.7" y="1563.5" font-size="195.0px" font-family="CMUBright-Bold" style="text-anchor:end;fill:rgb(0,0,0);" transform="rotate(0.5,301.7,1563.5)" >27</text>
<path d="M535.972,1543.295 A965.000,965.000 40.000 0,1 536.778,1441.441 L377.073,1431.732 A1125.000,1125.000 0.000 0,0 376.133,1550.473 Z" style="stroke-width:2.0;stroke:rgb(115,115,115);stroke-linecap:round;fill:none;" />
<path d="M543.733,1370.465 A965.000,965.000 40.000 0,1 562.714,1270.393 L407.309,1232.323 A1125.000,1125.000 0.000 0,0 385.182,1348.988 Z" style="stroke-width:2.0;stroke:rgb(115,115,115);stroke-linecap:round;fill:rgb(253,141,60);" />
<text x="309.5" y="1349.5" font-size="195.0px" font-family="CMUBright-Bold" style="text-anchor:end;fill:rgb(0,0,0);" transform="rotate(10.7,309.5,1349.5)" >29</text>
<path d="M543.733,1370.465 A965.000,965.000 40.000 0,1 562.714,1270.393 L407.309,1232.323 A1125.000,1125.000 0.000 0,0 385.182,1348.988 Z" style="stroke-width:2.0;stroke:rgb(115,115,115);stroke-linecap:round;fill:none;" />
<path d="M582.230,1201.799 A965.000,965.000 40.000 0,1 618.774,1106.724 L472.664,1041.517 A1125.000,1125.000 0.000 0,0 430.061,1152.356 Z" style="stroke-width:2.0;stroke:rgb(115,115,115);stroke-linecap:round;fill:rgb(253,141,60);" />
<text x="355.5" y="1139.3" font-size="195.0px" font-family="CMUBright-Bold" style="text-anchor:end;fill:rgb(0,0,0);" transform="rotate(21.0,355.5,1139.3)" >34</text>
<path d="M582.230,1201.799 A965.000,965.000 40.000 0,1 618.774,1106.724 L472.664,1041.517 A1125.000,1125.000 0.000 0,0 430.061,1152.356 Z" style="stroke-width:2.0;stroke:rgb(115,115,115);stroke-linecap:round;fill:none;" />
<path d="M650.225,1042.717 A965.000,965.000 40.000 0,1 703.158,955.695 L571.039,865.447 A1125.000,1125.000 0.000 0,0 509.330,966.898 Z" style="stroke-width:2.0;stroke:rgb(115,115,115);stroke-linecap:round;fill:rgb(66,146,198);" />
<text x="439.2" y="939.0" font-size="195.0px" font-family="CMUBright-Bold" style="text-anchor:end;fill:rgb(0,0,0);" transform="rotate(31.3,439.2,939.0)" >2</text>
<path d="M650.225,1042.717 A965.000,965.000 40.000 0,1 703.158,955.695 L571.039,865.447 A1125.000,1125.000 0.000 0,0 509.330,966.898 Z" style="stroke-width:2.0;stroke:rgb(115,115,115);stroke-linecap:round;fill:none;" />
<path d="M745.533,898.332 A965.000,965.000 40.000 0,1 813.153,822.160 L699.272,709.772 A1125.000,1125.000 0.000 0,0 620.440,798.574 Z" style="stroke-width:2.0;stroke:rgb(115,115,115);stroke-linecap:round;fill:rgb(66,146,198);" />
<text x="556.4" y="758.6" font-size="195.0px" font-family="CMUBright-Bold" style="text-anchor:end;fill:rgb(0,0,0);" transform="rotate(41.6,556.4,758.6)" >14</text>
<path d="M745.533,898.332 A965.000,965.000 40.000 0,1 813.153,822.160 L699.272,709.772 A1125.000,1125.000 0.000 0,0 620.440,798.574 Z" style="stroke-width:2.0;stroke:rgb(115,115,115);stroke-linecap:round;fill:none;" />
<path d="M865.089,773.286 A965.000,965.000 40.000 0,1 945.224,710.412 L853.241,579.496 A1125.000,1125.000 0.000 0,0 759.819,652.795 Z" style="stroke-width:2.0;stroke:rgb(115,115,115);stroke-linecap:round;fill:rgb(66,146,198);" />
<text x="702.5" y="603.4" font-size="195.0px" font-family="CMUBright-Bold" style="text-anchor:end;fill:rgb(0,0,0);" transform="rotate(51.9,702.5,603.4)" >15</text>
<path d="M865.089,773.286 A965.000,965.000 40.000 0,1 945.224,710.412 L853.241,579.496 A1125.000,1125.000 0.000 0,0 759.819,652.795 Z" style="stroke-width:2.0;stroke:rgb(115,115,115);stroke-linecap:round;fill:none;" />
<path d="M1005.052,671.597 A965.000,965.000 40.000 0,1 1095.126,624.042 L1027.997,478.806 A1125.000,1125.000 0.000 0,0 922.988,534.245 Z" style="stroke-width:2.0;stroke:rgb(115,115,115);stroke-linecap:round;fill:rgb(66,146,198);" />
<text x="877.1" y="474.3" font-size="195.0px" font-family="CMUBright-Bold" style="text-anchor:end;fill:rgb(0,0,0);" transform="rotate(62.2,877.1,474.3)" >24</text>
<path d="M1005.052,671.597 A965.000,965.000 40.000 0,1 1095.126,624.042 L1027.997,478.806 A1125.000,1125.000 0.000 0,0 922.988,534.245 Z" style="stroke-width:2.0;stroke:rgb(115,115,115);stroke-linecap:round;fill:none;" />
<path d="M1160.923,596.533 A965.000,965.000 40.000 0,1 1258.041,565.826 L1217.923,410.937 A1125.000,1125.000 0.000 0,0 1104.703,446.736 Z" style="stroke-width:2.0;stroke:rgb(115,115,115);stroke-linecap:round;fill:rgb(66,146,198);" />
<text x="1068.4" y="380.3" font-size="195.0px" font-family="CMUBright-Bold" style="text-anchor:end;fill:rgb(0,0,0);" transform="rotate(72.5,1068.4,380.3)" >30</text>
<path d="M1160.923,596.533 A965.000,965.000 40.000 0,1 1258.041,565.826 L1217.923,410.937 A1125.000,1125.000 0.000 0,0 1104.703,446.736 Z" style="stroke-width:2.0;stroke:rgb(115,115,115);stroke-linecap:round;fill:none;" />
<path d="M1327.693,550.508 A965.000,965.000 40.000 0,1 1428.732,537.635 L1416.916,378.072 A1125.000,1125.000 0.000 0,0 1299.123,393.079 Z" style="stroke-width:2.0;stroke:rgb(115,115,115);stroke-linecap:round;fill:rgb(66,146,198);" />
<text x="1275.3" y="321.2" font-size="195.0px" font-family="CMUBright-Bold" style="text-anchor:end;fill:rgb(0,0,0);" transform="rotate(82.7,1275.3,321.2)" >33</text>
<path d="M1327.693,550.508 A965.000,965.000 40.000 0,1 1428.732,537.635 L1416.916,378.072 A1125.000,1125.000 0.000 0,0 1299.123,393.079 Z" style="stroke-width:2.0;stroke:rgb(115,115,115);stroke-linecap:round;fill:none;" />
</g>
<g id="track_1">
<path d="M 2128.3,2167.6 L 2099.3,2136.4 2070.6,2104.4 2042.2,2071.6 2014.2,2038.1 1986.7,2003.9 1959.6,1969.1 1933.1,1933.5 1907.3,1897.2 1882.1,1860.3 1857.5,1822.8 1833.8,1784.6 1810.8,1745.9 1788.7,1706.6 1767.4,1666.7 1747.0,1626.3 1727.5,1585.5 1709.0,1544.1 1691.4,1502.3 1674.8,1460.1 1659.2,1417.5 1644.6,1374.6 1631.1,1331.3 1618.5,1287.8 1607.0,1244.0 1596.4,1200.0 1586.9,1155.8 1578.5,1111.5 1571.0,1067.1 1564.5,1022.6 1558.9,978.2 1554.3,933.7 1550.7,889.3 1547.9,845.0 1546.0,800.9 1545.0,757.0 1544.7,713.4 1545.2,670.1 1546.5,627.1 1548.4,584.5  " style="stroke-opacity: 1.000000; stroke-width: 5.0; stroke: rgb(251,106,74); fill: none"  />
<path d="M 2128.3,2167.6 L 2101.3,2138.3 2074.7,2108.0 2048.8,2077.0 2023.6,2045.1 1999.3,2012.4 1975.8,1979.0 1953.4,1945.0 1932.2,1910.2 1912.1,1874.9 1893.3,1838.9 1875.8,1802.4 1859.8,1765.5 1845.2,1728.0 1832.2,1690.1 1820.7,1651.9 1810.8,1613.3 1802.6,1574.4 1796.0,1535.3 1791.1,1496.0 1787.8,1456.5 1786.3,1416.9 1786.4,1377.2 1788.2,1337.5 1791.7,1297.9 1796.8,1258.3 1803.5,1218.8 1811.7,1179.5 1821.5,1140.4 1832.8,1101.5 1845.5,1063.0 1859.5,1024.8 1874.9,987.1 1891.4,949.8 1909.1,913.1 1927.8,876.9 1947.5,841.3 1968.0,806.4 1989.2,772.3 2011.1,738.9  " style="stroke-opacity: 1.000000; stroke-width: 5.0; stroke: rgb(251,106,74); fill: none"  />
<path d="M 2128.3,2167.6 L 2101.8,2138.9 2075.9,2109.2 2050.7,2078.8 2026.3,2047.6 2002.9,2015.7 1980.5,1983.2 1959.3,1950.0 1939.3,1916.3 1920.7,1882.0 1903.5,1847.3 1887.9,1812.1 1873.8,1776.6 1861.4,1740.7 1850.8,1704.5 1841.9,1668.1 1834.7,1631.5 1829.4,1594.8 1826.0,1557.9 1824.4,1521.0 1824.7,1484.1 1826.9,1447.2 1830.9,1410.4 1836.8,1373.8 1844.5,1337.3 1854.0,1301.0 1865.2,1265.1 1878.2,1229.4 1892.8,1194.1 1909.0,1159.1 1926.7,1124.7 1945.8,1090.7 1966.3,1057.3 1988.1,1024.5 2011.0,992.3 2034.9,960.8 2059.8,930.0 2085.5,900.0 2111.9,870.8 2138.8,842.4  " style="stroke-opacity: 1.000000; stroke-width: 5.0; stroke: rgb(251,106,74); fill: none"  />
<path d="M 1548.4,584.5 L 1546.5,627.1 1545.2,670.1 1544.7,713.4 1545.0,757.0 1546.0,800.9 1547.9,845.0 1550.7,889.3 1554.3,933.7 1558.9,978.2 1564.5,1022.6 1571.0,1067.1 1578.5,1111.5 1586.9,1155.8 1596.4,1200.0 1607.0,1244.0 1618.5,1287.8 1631.1,1331.3 1644.6,1374.6 1659.2,1417.5 1674.8,1460.1 1691.4,1502.3 1709.0,1544.1 1727.5,1585.5 1747.0,1626.3 1767.4,1666.7 1788.7,1706.6 1810.8,1745.9 1833.8,1784.6 1857.5,1822.8 1882.1,1860.3 1907.3,1897.2 1933.1,1933.5 1959.6,1969.1 1986.7,2003.9 2014.2,2038.1 2042.2,2071.6 2070.6,2104.4 2099.3,2136.4 2128.3,2167.6  " style="stroke-opacity: 1.000000; stroke-width: 5.0; stroke: rgb(251,106,74); fill: none"  />
<path d="M 1548.4,584.5 L 1546.1,630.0 1544.1,675.7 1542.3,721.6 1540.8,767.7 1539.5,813.9 1538.6,860.3 1538.0,906.8 1537.6,953.5 1537.6,1000.3 1538.0,1047.1 1538.6,1094.1 1539.6,1141.2 1541.0,1188.3 1542.7,1235.4 1544.8,1282.6 1547.2,1329.9 1550.0,1377.1 1553.1,1424.4 1556.6,1471.6 1560.5,1518.8 1564.7,1566.0 1569.3,1613.1 1574.3,1660.2 1579.6,1707.2 1585.2,1754.1 1591.2,1800.9 1597.6,1847.6 1604.3,1894.2 1611.3,1940.6 1618.6,1986.9 1626.2,2033.1 1634.1,2079.1 1642.3,2124.9 1650.8,2170.5 1659.6,2215.9 1668.6,2261.1 1677.8,2306.1 1687.2,2350.9 1696.9,2395.4  " style="stroke-opacity: 1.000000; stroke-width: 5.0; stroke: rgb(251,106,74); fill: none"  />
<path d="M 1711.1,607.9 L 1701.3,650.3 1692.0,693.3 1683.2,736.6 1675.0,780.4 1667.3,824.5 1660.3,869.0 1653.9,913.8 1648.2,958.9 1643.2,1004.3 1638.9,1049.9 1635.4,1095.6 1632.7,1141.6 1630.7,1187.7 1629.5,1233.9 1629.2,1280.1 1629.6,1326.5 1630.9,1372.8 1633.0,1419.2 1636.0,1465.5 1639.8,1511.8 1644.4,1558.0 1649.9,1604.1 1656.2,1650.1 1663.3,1695.9 1671.2,1741.5 1679.8,1786.9 1689.3,1832.0 1699.5,1876.9 1710.4,1921.5 1722.1,1965.8 1734.4,2009.7 1747.4,2053.2 1761.0,2096.4 1775.2,2139.2 1789.9,2181.5 1805.2,2223.3 1820.9,2264.7 1837.1,2305.5 1853.6,2345.8  " style="stroke-opacity: 1.000000; stroke-width: 5.0; stroke: rgb(251,106,74); fill: none"  />
<path d="M 1853.6,2345.8 L 1837.1,2305.5 1820.9,2264.7 1805.2,2223.3 1789.9,2181.5 1775.2,2139.2 1761.0,2096.4 1747.4,2053.2 1734.4,2009.7 1722.1,1965.8 1710.4,1921.5 1699.5,1876.9 1689.3,1832.0 1679.8,1786.9 1671.2,1741.5 1663.3,1695.9 1656.2,1650.1 1649.9,1604.1 1644.4,1558.0 1639.8,1511.8 1636.0,1465.5 1633.0,1419.2 1630.9,1372.8 1629.6,1326.5 1629.2,1280.1 1629.5,1233.9 1630.7,1187.7 1632.7,1141.6 1635.4,1095.6 1638.9,1049.9 1643.2,1004.3 1648.2,958.9 1653.9,913.8 1660.3,869.0 1667.3,824.5 1675.0,780.4 1683.2,736.6 1692.0,693.3 1701.3,650.3 1711.1,607.9  " style="stroke-opacity: 1.000000; stroke-width: 5.0; stroke: rgb(251,106,74); fill: none"  />
<path d="M 1696.9,2395.4 L 1687.2,2350.9 1677.8,2306.1 1668.6,2261.1 1659.6,2215.9 1650.8,2170.5 1642.3,2124.9 1634.1,2079.1 1626.2,2033.1 1618.6,1986.9 1611.3,1940.6 1604.3,1894.2 1597.6,1847.6 1591.2,1800.9 1585.2,1754.1 1579.6,1707.2 1574.3,1660.2 1569.3,1613.1 1564.7,1566.0 1560.5,1518.8 1556.6,1471.6 1553.1,1424.4 1550.0,1377.1 1547.2,1329.9 1544.8,1282.6 1542.7,1235.4 1541.0,1188.3 1539.6,1141.2 1538.6,1094.1 1538.0,1047.1 1537.6,1000.3 1537.6,953.5 1538.0,906.8 1538.6,860.3 1539.5,813.9 1540.8,767.7 1542.3,721.6 1544.1,675.7 1546.1,630.0 1548.4,584.5  " style="stroke-opacity: 1.000000; stroke-width: 5.0; stroke: rgb(251,106,74); fill: none"  />
<path d="M 1533.9,2416.1 L 1532.5,2372.6 1531.8,2328.7 1531.6,2284.4 1532.0,2239.9 1533.0,2195.1 1534.8,2150.1 1537.2,2104.9 1540.4,2059.5 1544.3,2014.1 1548.9,1968.6 1554.4,1923.0 1560.6,1877.4 1567.6,1831.8 1575.4,1786.2 1584.0,1740.7 1593.5,1695.4 1603.7,1650.2 1614.8,1605.1 1626.7,1560.2 1639.4,1515.5 1653.0,1471.1 1667.3,1427.0 1682.3,1383.1 1698.2,1339.5 1714.8,1296.3 1732.1,1253.5 1750.1,1211.0 1768.9,1169.0 1788.3,1127.4 1808.3,1086.2 1828.9,1045.5 1850.1,1005.3 1871.8,965.6 1894.0,926.4 1916.7,887.8 1939.8,849.7 1963.2,812.2 1987.0,775.2 2011.1,738.9  " style="stroke-opacity: 1.000000; stroke-width: 5.0; stroke: rgb(251,106,74); fill: none"  />
<path d="M 1533.9,2416.1 L 1532.7,2374.5 1532.4,2332.4 1532.9,2290.0 1534.2,2247.4 1536.6,2204.5 1539.9,2161.5 1544.2,2118.4 1549.6,2075.3 1556.1,2032.3 1563.7,1989.3 1572.5,1946.5 1582.4,1903.9 1593.5,1861.5 1605.7,1819.5 1619.2,1777.8 1633.8,1736.4 1649.6,1695.5 1666.6,1655.1 1684.8,1615.2 1704.1,1575.9 1724.6,1537.1 1746.2,1498.9 1768.9,1461.4 1792.7,1424.6 1817.5,1388.5 1843.3,1353.1 1870.1,1318.4 1897.8,1284.6 1926.3,1251.5 1955.7,1219.2 1985.8,1187.7 2016.6,1157.1 2048.0,1127.4 2080.1,1098.5 2112.6,1070.4 2145.5,1043.3 2178.7,1017.0 2212.2,991.6 2245.9,967.0  " style="stroke-opacity: 1.000000; stroke-width: 5.0; stroke: rgb(251,106,74); fill: none"  />
<path d="M 1533.9,2416.1 L 1532.9,2377.1 1532.9,2337.7 1533.9,2298.2 1536.1,2258.7 1539.4,2219.3 1543.9,2180.0 1549.8,2141.1 1556.9,2102.5 1565.5,2064.5 1575.4,2027.0 1586.7,1990.3 1599.6,1954.2 1613.8,1919.1 1629.6,1884.8 1646.8,1851.5 1665.5,1819.3 1685.7,1788.1 1707.4,1758.1 1730.5,1729.3 1755.0,1701.7 1780.9,1675.3 1808.1,1650.3 1836.7,1626.5 1866.5,1604.1 1897.5,1583.1 1929.6,1563.4 1962.8,1545.0 1997.1,1528.0 2032.2,1512.4 2068.3,1498.1 2105.0,1485.1 2142.4,1473.4 2180.4,1463.0 2218.9,1453.9 2257.6,1445.9 2296.6,1439.1 2335.7,1433.4 2374.8,1428.7 2413.7,1425.1  " style="stroke-opacity: 1.000000; stroke-width: 5.0; stroke: rgb(251,106,74); fill: none"  />
<path d="M 2011.1,738.9 L 1989.2,772.3 1968.0,806.4 1947.5,841.3 1927.8,876.9 1909.1,913.1 1891.4,949.8 1874.9,987.1 1859.5,1024.8 1845.5,1063.0 1832.8,1101.5 1821.5,1140.4 1811.7,1179.5 1803.5,1218.8 1796.8,1258.3 1791.7,1297.9 1788.2,1337.5 1786.4,1377.2 1786.3,1416.9 1787.8,1456.5 1791.1,1496.0 1796.0,1535.3 1802.6,1574.4 1810.8,1613.3 1820.7,1651.9 1832.2,1690.1 1845.2,1728.0 1859.8,1765.5 1875.8,1802.4 1893.3,1838.9 1912.1,1874.9 1932.2,1910.2 1953.4,1945.0 1975.8,1979.0 1999.3,2012.4 2023.6,2045.1 2048.8,2077.0 2074.7,2108.0 2101.3,2138.3 2128.3,2167.6  " style="stroke-opacity: 1.000000; stroke-width: 5.0; stroke: rgb(251,106,74); fill: none"  />
<path d="M 1209.8,2369.6 L 1224.1,2327.4 1238.9,2285.1 1254.2,2242.6 1269.9,2200.1 1286.2,2157.5 1303.1,2115.0 1320.5,2072.4 1338.4,2029.8 1356.8,1987.3 1375.9,1945.0 1395.4,1902.7 1415.6,1860.5 1436.3,1818.6 1457.5,1776.8 1479.3,1735.2 1501.7,1693.8 1524.6,1652.7 1548.0,1611.9 1571.9,1571.3 1596.4,1531.1 1621.4,1491.2 1646.9,1451.6 1672.9,1412.3 1699.3,1373.5 1726.2,1335.0 1753.6,1296.9 1781.3,1259.2 1809.5,1222.0 1838.0,1185.2 1866.9,1148.8 1896.2,1112.8 1925.7,1077.4 1955.5,1042.3 1985.6,1007.8 2015.9,973.8 2046.4,940.2 2077.1,907.1 2107.9,874.5 2138.8,842.4  " style="stroke-opacity: 1.000000; stroke-width: 5.0; stroke: rgb(251,106,74); fill: none"  />
<path d="M 1209.8,2369.6 L 1222.9,2331.9 1236.9,2294.2 1252.0,2256.7 1268.1,2219.4 1285.3,2182.5 1303.6,2146.0 1323.0,2110.1 1343.5,2074.9 1365.2,2040.5 1387.9,2006.9 1411.8,1974.3 1436.7,1942.6 1462.8,1912.1 1490.0,1882.6 1518.2,1854.4 1547.5,1827.4 1577.8,1801.7 1609.1,1777.4 1641.4,1754.4 1674.7,1732.9 1708.8,1712.7 1743.8,1694.0 1779.6,1676.8 1816.2,1661.1 1853.5,1646.8 1891.4,1634.0 1930.0,1622.6 1969.1,1612.7 2008.6,1604.2 2048.5,1597.1 2088.8,1591.4 2129.3,1587.1 2170.0,1584.0 2210.7,1582.1 2251.5,1581.5 2292.1,1581.9 2332.5,1583.4 2372.6,1586.0 2412.4,1589.4  " style="stroke-opacity: 1.000000; stroke-width: 5.0; stroke: rgb(251,106,74); fill: none"  />
<path d="M 2138.8,842.4 L 2107.9,874.5 2077.1,907.1 2046.4,940.2 2015.9,973.8 1985.6,1007.8 1955.5,1042.3 1925.7,1077.4 1896.2,1112.8 1866.9,1148.8 1838.0,1185.2 1809.5,1222.0 1781.3,1259.2 1753.6,1296.9 1726.2,1335.0 1699.3,1373.5 1672.9,1412.3 1646.9,1451.6 1621.4,1491.2 1596.4,1531.1 1571.9,1571.3 1548.0,1611.9 1524.6,1652.7 1501.7,1693.8 1479.3,1735.2 1457.5,1776.8 1436.3,1818.6 1415.6,1860.5 1395.4,1902.7 1375.9,1945.0 1356.8,1987.3 1338.4,2029.8 1320.5,2072.4 1303.1,2115.0 1286.2,2157.5 1269.9,2200.1 1254.2,2242.6 1238.9,2285.1 1224.1,2327.4 1209.8,2369.6  " style="stroke-opacity: 1.000000; stroke-width: 5.0; stroke: rgb(251,106,74); fill: none"  />
<path d="M 2138.8,842.4 L 2106.4,875.8 2074.0,909.3 2041.6,943.0 2009.3,976.7 1977.0,1010.5 1944.7,1044.5 1912.5,1078.5 1880.3,1112.7 1848.1,1147.0 1816.0,1181.4 1784.0,1215.9 1752.0,1250.4 1720.1,1285.1 1688.2,1319.9 1656.5,1354.8 1624.8,1389.8 1593.2,1424.8 1561.6,1460.0 1530.2,1495.2 1498.8,1530.5 1467.6,1565.9 1436.4,1601.4 1405.3,1637.0 1374.4,1672.6 1343.5,1708.3 1312.7,1744.0 1282.1,1779.8 1251.5,1815.7 1221.1,1851.6 1190.7,1887.5 1160.5,1923.5 1130.4,1959.5 1100.4,1995.6 1070.5,2031.6 1040.7,2067.7 1011.1,2103.8 981.5,2140.0 952.1,2176.1 922.8,2212.2  " style="stroke-opacity: 1.000000; stroke-width: 5.0; stroke: rgb(251,106,74); fill: none"  />
<path d="M 1059.2,2303.8 L 1080.0,2266.6 1101.5,2229.4 1123.9,2192.3 1147.1,2155.4 1171.1,2118.6 1195.9,2082.1 1221.6,2045.9 1248.1,2010.1 1275.4,1974.7 1303.5,1939.8 1332.4,1905.4 1362.2,1871.6 1392.7,1838.4 1424.1,1805.8 1456.2,1774.0 1489.0,1742.8 1522.6,1712.4 1556.9,1682.8 1592.0,1653.9 1627.6,1625.9 1664.0,1598.8 1700.9,1572.5 1738.4,1547.1 1776.5,1522.6 1815.1,1499.0 1854.2,1476.3 1893.7,1454.6 1933.6,1433.7 1973.9,1413.8 2014.5,1394.8 2055.4,1376.7 2096.5,1359.5 2137.7,1343.2 2179.1,1327.7 2220.5,1313.2 2261.9,1299.5 2303.3,1286.6 2344.6,1274.4 2385.6,1263.1  " style="stroke-opacity: 1.000000; stroke-width: 5.0; stroke: rgb(251,106,74); fill: none"  />
<path d="M 1059.2,2303.8 L 1079.2,2268.3 1100.1,2232.9 1122.0,2197.7 1144.8,2162.9 1168.7,2128.5 1193.5,2094.6 1219.2,2061.3 1246.0,2028.7 1273.7,1996.8 1302.3,1965.9 1331.9,1935.8 1362.4,1906.7 1393.9,1878.6 1426.2,1851.7 1459.3,1825.8 1493.4,1801.2 1528.2,1777.7 1563.8,1755.6 1600.2,1734.7 1637.3,1715.1 1675.0,1696.9 1713.4,1680.0 1752.4,1664.4 1792.0,1650.2 1832.0,1637.4 1872.5,1625.9 1913.4,1615.8 1954.7,1607.0 1996.2,1599.5 2037.9,1593.4 2079.8,1588.4 2121.8,1584.7 2163.9,1582.2 2205.8,1580.9 2247.7,1580.6 2289.4,1581.4 2330.8,1583.2 2371.8,1585.9 2412.4,1589.4  " style="stroke-opacity: 1.000000; stroke-width: 5.0; stroke: rgb(251,106,74); fill: none"  />
<path d="M 922.8,2212.2 L 949.3,2180.1 976.7,2148.2 1004.9,2116.6 1034.1,2085.4 1064.0,2054.6 1094.8,2024.4 1126.4,1994.8 1158.8,1965.9 1192.1,1937.8 1226.1,1910.4 1260.8,1884.0 1296.3,1858.4 1332.5,1833.8 1369.4,1810.1 1407.0,1787.6 1445.2,1766.1 1484.0,1745.7 1523.4,1726.4 1563.3,1708.4 1603.8,1691.4 1644.7,1675.7 1686.1,1661.2 1727.9,1647.9 1770.0,1635.8 1812.5,1624.9 1855.2,1615.2 1898.2,1606.8 1941.3,1599.5 1984.6,1593.3 2027.9,1588.3 2071.3,1584.5 2114.6,1581.7 2157.9,1580.0 2201.0,1579.3 2243.9,1579.5 2286.6,1580.7 2328.9,1582.8 2370.9,1585.7 2412.4,1589.4  " style="stroke-opacity: 1.000000; stroke-width: 5.0; stroke: rgb(251,106,74); fill: none"  />
<path d="M 804.9,2097.7 L 838.8,2068.8 873.2,2040.0 908.1,2011.4 943.4,1983.0 979.3,1954.8 1015.6,1926.9 1052.3,1899.3 1089.5,1871.9 1127.1,1844.9 1165.2,1818.3 1203.7,1792.0 1242.6,1766.2 1281.9,1740.8 1321.6,1715.8 1361.6,1691.3 1402.0,1667.2 1442.7,1643.7 1483.8,1620.7 1525.2,1598.1 1566.8,1576.1 1608.8,1554.7 1651.0,1533.8 1693.4,1513.4 1736.0,1493.6 1778.8,1474.4 1821.8,1455.7 1865.0,1437.6 1908.3,1420.1 1951.7,1403.1 1995.1,1386.7 2038.7,1370.8 2082.2,1355.5 2125.8,1340.8 2169.3,1326.5 2212.8,1312.9 2256.2,1299.7 2299.5,1287.0 2342.6,1274.8 2385.6,1263.1  " style="stroke-opacity: 1.000000; stroke-width: 5.0; stroke: rgb(251,106,74); fill: none"  />
<path d="M 2385.6,1263.1 L 2345.5,1274.3 2305.2,1286.3 2264.8,1299.2 2224.4,1313.1 2184.2,1327.9 2144.0,1343.7 2104.1,1360.5 2064.5,1378.3 2025.3,1397.2 1986.4,1417.1 1948.1,1438.1 1910.3,1460.0 1873.0,1483.1 1836.4,1507.1 1800.5,1532.3 1765.3,1558.4 1730.9,1585.5 1697.2,1613.7 1664.4,1642.8 1632.5,1672.8 1601.5,1703.8 1571.4,1735.6 1542.2,1768.4 1514.0,1801.9 1486.7,1836.3 1460.5,1871.3 1435.2,1907.1 1411.0,1943.5 1387.7,1980.5 1365.5,2018.1 1344.3,2056.1 1324.1,2094.6 1304.9,2133.4 1286.7,2172.5 1269.4,2211.8 1253.2,2251.2 1237.8,2290.7 1223.4,2330.2 1209.8,2369.6  " style="stroke-opacity: 1.000000; stroke-width: 5.0; stroke: rgb(251,106,74); fill: none"  />
<path d="M 2385.6,1263.1 L 2344.6,1274.4 2303.3,1286.6 2261.9,1299.5 2220.5,1313.2 2179.1,1327.7 2137.7,1343.2 2096.5,1359.5 2055.4,1376.7 2014.5,1394.8 1973.9,1413.8 1933.6,1433.7 1893.7,1454.6 1854.2,1476.3 1815.1,1499.0 1776.5,1522.6 1738.4,1547.1 1700.9,1572.5 1664.0,1598.8 1627.6,1625.9 1592.0,1653.9 1556.9,1682.8 1522.6,1712.4 1489.0,1742.8 1456.2,1774.0 1424.1,1805.8 1392.7,1838.4 1362.2,1871.6 1332.4,1905.4 1303.5,1939.8 1275.4,1974.7 1248.1,2010.1 1221.6,2045.9 1195.9,2082.1 1171.1,2118.6 1147.1,2155.4 1123.9,2192.3 1101.5,2229.4 1080.0,2266.6 1059.2,2303.8  " style="stroke-opacity: 1.000000; stroke-width: 5.0; stroke: rgb(251,106,74); fill: none"  />
<path d="M 2385.6,1263.1 L 2343.6,1274.6 2301.4,1286.8 2259.0,1299.6 2216.6,1313.1 2174.1,1327.3 2131.6,1342.2 2089.1,1357.8 2046.7,1374.1 2004.4,1391.2 1962.2,1409.0 1920.3,1427.6 1878.5,1447.0 1837.0,1467.1 1795.7,1487.9 1754.8,1509.6 1714.2,1531.9 1674.0,1555.0 1634.2,1578.9 1594.8,1603.4 1555.8,1628.7 1517.3,1654.7 1479.3,1681.3 1441.8,1708.6 1404.9,1736.6 1368.5,1765.2 1332.6,1794.3 1297.3,1824.0 1262.6,1854.3 1228.6,1885.0 1195.1,1916.3 1162.3,1947.9 1130.0,1980.0 1098.5,2012.4 1067.5,2045.2 1037.3,2078.2 1007.7,2111.5 978.7,2144.9 950.4,2178.5 922.8,2212.2  " style="stroke-opacity: 1.000000; stroke-width: 5.0; stroke: rgb(251,106,74); fill: none"  />
<path d="M 2385.6,1263.1 L 2341.6,1274.8 2297.3,1286.2 2252.8,1297.5 2208.0,1308.5 2163.1,1319.3 2117.9,1329.8 2072.5,1340.0 2026.9,1350.0 1981.1,1359.7 1935.2,1369.1 1889.1,1378.2 1842.9,1386.9 1796.5,1395.3 1750.0,1403.4 1703.4,1411.2 1656.7,1418.6 1609.9,1425.7 1563.0,1432.4 1516.1,1438.7 1469.1,1444.7 1422.1,1450.3 1375.0,1455.6 1327.9,1460.5 1280.8,1465.0 1233.8,1469.2 1186.7,1473.0 1139.7,1476.5 1092.8,1479.6 1045.9,1482.4 999.1,1484.8 952.3,1486.9 905.7,1488.7 859.2,1490.1 812.8,1491.3 766.6,1492.1 720.5,1492.7 674.6,1493.0 628.8,1493.0 583.3,1492.7  " style="stroke-opacity: 1.000000; stroke-width: 5.0; stroke: rgb(251,106,74); fill: none"  />
<path d="M 2385.6,1263.1 L 2343.5,1274.1 2300.8,1284.7 2257.7,1294.7 2214.2,1304.2 2170.3,1313.1 2126.0,1321.4 2081.4,1329.1 2036.5,1336.1 1991.4,1342.4 1945.9,1348.0 1900.3,1352.9 1854.4,1357.0 1808.4,1360.3 1762.3,1362.8 1716.0,1364.5 1669.7,1365.4 1623.3,1365.4 1576.9,1364.7 1530.5,1363.0 1484.1,1360.6 1437.8,1357.3 1391.6,1353.2 1345.5,1348.2 1299.5,1342.5 1253.7,1335.9 1208.0,1328.6 1162.6,1320.4 1117.5,1311.5 1072.6,1301.9 1028.0,1291.5 983.7,1280.5 939.8,1268.8 896.3,1256.4 853.1,1243.5 810.4,1230.0 768.1,1216.0 726.3,1201.4 685.0,1186.5 644.3,1171.1  " style="stroke-opacity: 1.000000; stroke-width: 5.0; stroke: rgb(251,106,74); fill: none"  />
<path d="M 596.7,1656.5 L 641.6,1648.9 686.7,1641.4 732.1,1634.2 777.6,1627.3 823.4,1620.6 869.4,1614.2 915.5,1608.0 961.8,1602.2 1008.2,1596.6 1054.8,1591.4 1101.5,1586.5 1148.4,1581.9 1195.3,1577.7 1242.4,1573.8 1289.5,1570.2 1336.7,1567.0 1383.9,1564.2 1431.2,1561.7 1478.5,1559.6 1525.8,1557.8 1573.2,1556.5 1620.5,1555.4 1667.8,1554.8 1715.1,1554.5 1762.4,1554.5 1809.6,1554.9 1856.7,1555.7 1903.7,1556.8 1950.7,1558.3 1997.6,1560.0 2044.3,1562.1 2090.9,1564.5 2137.3,1567.3 2183.6,1570.3 2229.8,1573.6 2275.7,1577.2 2321.5,1581.0 2367.0,1585.1 2412.4,1589.4  " style="stroke-opacity: 1.000000; stroke-width: 5.0; stroke: rgb(251,106,74); fill: none"  />
<path d="M 2413.7,1425.1 L 2374.8,1428.7 2335.7,1433.4 2296.6,1439.1 2257.6,1445.9 2218.9,1453.9 2180.4,1463.0 2142.4,1473.4 2105.0,1485.1 2068.3,1498.1 2032.2,1512.4 1997.1,1528.0 1962.8,1545.0 1929.6,1563.4 1897.5,1583.1 1866.5,1604.1 1836.7,1626.5 1808.1,1650.3 1780.9,1675.3 1755.0,1701.7 1730.5,1729.3 1707.4,1758.1 1685.7,1788.1 1665.5,1819.3 1646.8,1851.5 1629.6,1884.8 1613.8,1919.1 1599.6,1954.2 1586.7,1990.3 1575.4,2027.0 1565.5,2064.5 1556.9,2102.5 1549.8,2141.1 1543.9,2180.0 1539.4,2219.3 1536.1,2258.7 1533.9,2298.2 1532.9,2337.7 1532.9,2377.1 1533.9,2416.1  " style="stroke-opacity: 1.000000; stroke-width: 5.0; stroke: rgb(251,106,74); fill: none"  />
<path d="M 2412.4,1589.4 L 2372.6,1586.0 2332.5,1583.4 2292.1,1581.9 2251.5,1581.5 2210.7,1582.1 2170.0,1584.0 2129.3,1587.1 2088.8,1591.4 2048.5,1597.1 2008.6,1604.2 1969.1,1612.7 1930.0,1622.6 1891.4,1634.0 1853.5,1646.8 1816.2,1661.1 1779.6,1676.8 1743.8,1694.0 1708.8,1712.7 1674.7,1732.9 1641.4,1754.4 1609.1,1777.4 1577.8,1801.7 1547.5,1827.4 1518.2,1854.4 1490.0,1882.6 1462.8,1912.1 1436.7,1942.6 1411.8,1974.3 1387.9,2006.9 1365.2,2040.5 1343.5,2074.9 1323.0,2110.1 1303.6,2146.0 1285.3,2182.5 1268.1,2219.4 1252.0,2256.7 1236.9,2294.2 1222.9,2331.9 1209.8,2369.6  " style="stroke-opacity: 1.000000; stroke-width: 5.0; stroke: rgb(251,106,74); fill: none"  />
<path d="M 2412.4,1589.4 L 2371.8,1585.9 2330.8,1583.2 2289.4,1581.4 2247.7,1580.6 2205.8,1580.9 2163.9,1582.2 2121.8,1584.7 2079.8,1588.4 2037.9,1593.4 1996.2,1599.5 1954.7,1607.0 1913.4,1615.8 1872.5,1625.9 1832.0,1637.4 1792.0,1650.2 1752.4,1664.4 1713.4,1680.0 1675.0,1696.9 1637.3,1715.1 1600.2,1734.7 1563.8,1755.6 1528.2,1777.7 1493.4,1801.2 1459.3,1825.8 1426.2,1851.7 1393.9,1878.6 1362.4,1906.7 1331.9,1935.8 1302.3,1965.9 1273.7,1996.8 1246.0,2028.7 1219.2,2061.3 1193.5,2094.6 1168.7,2128.5 1144.8,2162.9 1122.0,2197.7 1100.1,2232.9 1079.2,2268.3 1059.2,2303.8  " style="stroke-opacity: 1.000000; stroke-width: 5.0; stroke: rgb(251,106,74); fill: none"  />
<path d="M 2412.4,1589.4 L 2370.9,1585.7 2328.9,1582.8 2286.6,1580.7 2243.9,1579.5 2201.0,1579.3 2157.9,1580.0 2114.6,1581.7 2071.3,1584.5 2027.9,1588.3 1984.6,1593.3 1941.3,1599.5 1898.2,1606.8 1855.2,1615.2 1812.5,1624.9 1770.0,1635.8 1727.9,1647.9 1686.1,1661.2 1644.7,1675.7 1603.8,1691.4 1563.3,1708.4 1523.4,1726.4 1484.0,1745.7 1445.2,1766.1 1407.0,1787.6 1369.4,1810.1 1332.5,1833.8 1296.3,1858.4 1260.8,1884.0 1226.1,1910.4 1192.1,1937.8 1158.8,1965.9 1126.4,1994.8 1094.8,2024.4 1064.0,2054.6 1034.1,2085.4 1004.9,2116.6 976.7,2148.2 949.3,2180.1 922.8,2212.2  " style="stroke-opacity: 1.000000; stroke-width: 5.0; stroke: rgb(251,106,74); fill: none"  />
<path d="M 2412.4,1589.4 L 2367.0,1585.1 2321.5,1581.0 2275.7,1577.2 2229.8,1573.6 2183.6,1570.3 2137.3,1567.3 2090.9,1564.5 2044.3,1562.1 1997.6,1560.0 1950.7,1558.3 1903.7,1556.8 1856.7,1555.7 1809.6,1554.9 1762.4,1554.5 1715.1,1554.5 1667.8,1554.8 1620.5,1555.4 1573.2,1556.5 1525.8,1557.8 1478.5,1559.6 1431.2,1561.7 1383.9,1564.2 1336.7,1567.0 1289.5,1570.2 1242.4,1573.8 1195.3,1577.7 1148.4,1581.9 1101.5,1586.5 1054.8,1591.4 1008.2,1596.6 961.8,1602.2 915.5,1608.0 869.4,1614.2 823.4,1620.6 777.6,1627.3 732.1,1634.2 686.7,1641.4 641.6,1648.9 596.7,1656.5  " style="stroke-opacity: 1.000000; stroke-width: 5.0; stroke: rgb(251,106,74); fill: none"  />
<path d="M 2412.4,1589.4 L 2366.1,1584.9 2319.7,1580.5 2273.2,1576.2 2226.7,1571.9 2180.1,1567.7 2133.4,1563.7 2086.7,1559.7 2039.9,1555.8 1993.0,1552.1 1946.1,1548.4 1899.2,1544.9 1852.2,1541.4 1805.2,1538.1 1758.2,1534.9 1711.1,1531.8 1664.0,1528.8 1616.9,1526.0 1569.7,1523.2 1522.6,1520.6 1475.4,1518.1 1428.2,1515.8 1381.1,1513.5 1333.9,1511.4 1286.7,1509.4 1239.6,1507.5 1192.5,1505.7 1145.4,1504.1 1098.3,1502.5 1051.2,1501.1 1004.2,1499.8 957.2,1498.6 910.3,1497.5 863.4,1496.6 816.6,1495.7 769.8,1494.9 723.1,1494.2 676.4,1493.6 629.8,1493.1 583.3,1492.7  " style="stroke-opacity: 1.000000; stroke-width: 5.0; stroke: rgb(251,106,74); fill: none"  />
<path d="M 599.3,1329.2 L 645.0,1337.8 690.8,1346.4 736.7,1354.8 782.7,1363.2 828.7,1371.6 874.9,1379.8 921.0,1387.9 967.3,1396.0 1013.6,1403.9 1060.0,1411.8 1106.4,1419.5 1152.9,1427.2 1199.4,1434.7 1246.0,1442.1 1292.6,1449.4 1339.3,1456.6 1385.9,1463.7 1432.7,1470.6 1479.4,1477.4 1526.1,1484.1 1572.9,1490.7 1619.7,1497.2 1666.5,1503.5 1713.2,1509.8 1760.0,1515.9 1806.8,1521.9 1853.6,1527.7 1900.3,1533.5 1947.1,1539.1 1993.8,1544.6 2040.5,1550.0 2087.1,1555.3 2133.7,1560.5 2180.3,1565.6 2226.8,1570.5 2273.3,1575.4 2319.7,1580.2 2366.1,1584.8 2412.4,1589.4  " style="stroke-opacity: 1.000000; stroke-width: 5.0; stroke: rgb(251,106,74); fill: none"  />
<path d="M 644.3,1171.1 L 685.0,1186.5 726.3,1201.4 768.1,1216.0 810.4,1230.0 853.1,1243.5 896.3,1256.4 939.8,1268.8 983.7,1280.5 1028.0,1291.5 1072.6,1301.9 1117.5,1311.5 1162.6,1320.4 1208.0,1328.6 1253.7,1335.9 1299.5,1342.5 1345.5,1348.2 1391.6,1353.2 1437.8,1357.3 1484.1,1360.6 1530.5,1363.0 1576.9,1364.7 1623.3,1365.4 1669.7,1365.4 1716.0,1364.5 1762.3,1362.8 1808.4,1360.3 1854.4,1357.0 1900.3,1352.9 1945.9,1348.0 1991.4,1342.4 2036.5,1336.1 2081.4,1329.1 2126.0,1321.4 2170.3,1313.1 2214.2,1304.2 2257.7,1294.7 2300.8,1284.7 2343.5,1274.1 2385.6,1263.1  " style="stroke-opacity: 1.000000; stroke-width: 5.0; stroke: rgb(251,106,74); fill: none"  />
</g>
<g id="track_0">
<path d="M 2128.3,2167.6 L 2102.6,2141.0 2076.3,2114.9 2049.4,2089.6 2022.1,2065.2 1994.4,2041.9 1966.3,2019.9 1937.9,1999.3 1909.4,1980.3 1880.8,1962.9 1852.1,1947.2 1823.4,1933.5 1794.8,1921.7 1766.4,1911.9 1738.1,1904.2 1710.1,1898.7 1682.3,1895.4 1655.0,1894.3 1628.0,1895.5 1601.4,1898.9 1575.3,1904.7 1549.8,1912.7 1524.8,1922.9 1500.4,1935.4 1476.6,1950.0 1453.5,1966.8 1431.0,1985.6 1409.3,2006.5 1388.3,2029.2 1368.0,2053.7 1348.6,2079.9 1329.9,2107.7 1312.0,2137.0 1294.9,2167.6 1278.6,2199.3 1263.2,2232.1 1248.6,2265.7 1234.8,2299.9 1221.9,2334.6 1209.8,2369.6  " style="stroke-opacity: 1.000000; stroke-width: 5.0; stroke: rgb(107,174,214); fill: none"  />
<path d="M 2128.3,2167.6 L 2101.7,2140.0 2074.3,2113.0 2046.1,2086.7 2017.1,2061.2 1987.5,2036.7 1957.3,2013.3 1926.5,1991.1 1895.2,1970.3 1863.4,1951.0 1831.2,1933.3 1798.6,1917.2 1765.7,1902.8 1732.5,1890.3 1699.0,1879.6 1665.4,1870.8 1631.7,1863.9 1597.8,1859.1 1563.9,1856.3 1530.1,1855.5 1496.3,1856.7 1462.5,1860.0 1429.0,1865.4 1395.6,1872.7 1362.4,1882.0 1329.5,1893.2 1297.0,1906.4 1264.8,1921.4 1233.0,1938.1 1201.7,1956.6 1170.9,1976.6 1140.6,1998.3 1110.9,2021.3 1081.8,2045.6 1053.4,2071.2 1025.7,2097.8 998.8,2125.4 972.6,2153.7 947.2,2182.7 922.8,2212.2  " style="stroke-opacity: 1.000000; stroke-width: 5.0; stroke: rgb(107,174,214); fill: none"  />
<path d="M 2128.3,2167.6 L 2100.6,2138.9 2072.0,2110.6 2042.6,2082.8 2012.3,2055.7 1981.2,2029.4 1949.3,2004.0 1916.6,1979.6 1883.2,1956.3 1849.2,1934.1 1814.4,1913.1 1779.1,1893.5 1743.1,1875.2 1706.6,1858.4 1669.6,1843.1 1632.2,1829.3 1594.2,1817.1 1555.9,1806.5 1517.3,1797.6 1478.3,1790.3 1439.1,1784.7 1399.7,1780.7 1360.1,1778.4 1320.4,1777.8 1280.5,1778.9 1240.7,1781.5 1200.9,1785.8 1161.1,1791.7 1121.5,1799.1 1082.1,1808.0 1042.8,1818.3 1003.9,1830.0 965.3,1843.1 927.1,1857.3 889.3,1872.7 852.1,1889.2 815.4,1906.7 779.3,1925.0 743.9,1944.2 709.3,1964.0  " style="stroke-opacity: 1.000000; stroke-width: 5.0; stroke: rgb(107,174,214); fill: none"  />
<path d="M 2128.3,2167.6 L 2097.6,2135.3 2066.4,2103.1 2034.7,2071.0 2002.6,2039.0 1969.9,2007.2 1936.8,1975.6 1903.1,1944.2 1869.0,1913.1 1834.4,1882.3 1799.4,1851.8 1763.9,1821.7 1727.9,1791.8 1691.5,1762.4 1654.7,1733.4 1617.5,1704.8 1579.8,1676.6 1541.8,1648.9 1503.4,1621.7 1464.6,1594.9 1425.5,1568.7 1386.1,1542.9 1346.3,1517.7 1306.3,1493.0 1266.0,1468.8 1225.4,1445.1 1184.6,1422.0 1143.6,1399.5 1102.4,1377.5 1061.1,1356.0 1019.6,1335.1 978.0,1314.8 936.3,1295.0 894.5,1275.7 852.7,1257.0 810.9,1238.8 769.1,1221.1 727.4,1203.9 685.8,1187.3 644.3,1171.1  " style="stroke-opacity: 1.000000; stroke-width: 5.0; stroke: rgb(107,174,214); fill: none"  />
<path d="M 1548.4,584.5 L 1546.6,619.7 1545.0,654.7 1543.6,689.2 1542.5,722.9 1541.7,755.7 1541.1,787.2 1540.9,817.4 1540.9,846.0 1541.3,872.9 1542.1,898.0 1543.3,920.9 1544.8,941.8 1546.7,960.3 1549.0,976.5 1551.8,990.2 1554.9,1001.4 1558.4,1010.1 1562.3,1016.1 1566.6,1019.4 1571.3,1020.1 1576.3,1018.1 1581.8,1013.4 1587.6,1006.1 1593.7,996.3 1600.2,983.8 1607.0,969.0 1614.0,951.7 1621.3,932.1 1628.9,910.4 1636.7,886.6 1644.7,860.9 1652.8,833.5 1661.0,804.4 1669.4,774.0 1677.8,742.3 1686.2,709.6 1694.6,676.2 1702.9,642.2 1711.1,607.9  " style="stroke-opacity: 1.000000; stroke-width: 5.0; stroke: rgb(107,174,214); fill: none"  />
<path d="M 1711.1,607.9 L 1702.9,642.2 1694.6,676.2 1686.2,709.6 1677.8,742.3 1669.4,774.0 1661.0,804.4 1652.8,833.5 1644.7,860.9 1636.7,886.6 1628.9,910.4 1621.3,932.1 1614.0,951.7 1607.0,969.0 1600.2,983.8 1593.7,996.3 1587.6,1006.1 1581.8,1013.4 1576.3,1018.1 1571.3,1020.1 1566.6,1019.4 1562.3,1016.1 1558.4,1010.1 1554.9,1001.4 1551.8,990.2 1549.0,976.5 1546.7,960.3 1544.8,941.8 1543.3,920.9 1542.1,898.0 1541.3,872.9 1540.9,846.0 1540.9,817.4 1541.1,787.2 1541.7,755.7 1542.5,722.9 1543.6,689.2 1545.0,654.7 1546.6,619.7 1548.4,584.5  " style="stroke-opacity: 1.000000; stroke-width: 5.0; stroke: rgb(107,174,214); fill: none"  />
<path d="M 1711.1,607.9 L 1703.0,642.2 1695.2,676.3 1687.7,710.0 1680.6,743.0 1673.9,775.1 1667.7,806.0 1662.1,835.7 1657.0,863.9 1652.6,890.4 1649.0,915.2 1646.0,938.0 1643.8,958.7 1642.3,977.3 1641.7,993.7 1641.9,1007.7 1643.0,1019.3 1644.9,1028.4 1647.7,1035.0 1651.3,1039.0 1655.8,1040.5 1661.2,1039.5 1667.4,1035.9 1674.4,1029.7 1682.2,1021.1 1690.7,1010.0 1700.1,996.6 1710.1,980.9 1720.8,962.9 1732.1,942.9 1744.0,920.9 1756.4,897.0 1769.3,871.5 1782.6,844.4 1796.3,815.9 1810.2,786.2 1824.3,755.6 1838.5,724.2 1852.8,692.2 1867.0,659.9  " style="stroke-opacity: 1.000000; stroke-width: 5.0; stroke: rgb(107,174,214); fill: none"  />
<path d="M 1711.1,607.9 L 1703.1,642.4 1695.5,676.7 1688.3,710.7 1681.8,744.1 1675.8,776.6 1670.6,808.2 1666.1,838.5 1662.5,867.5 1659.7,895.0 1657.8,920.7 1656.9,944.7 1657.0,966.8 1658.1,986.8 1660.3,1004.6 1663.5,1020.3 1667.8,1033.6 1673.2,1044.7 1679.7,1053.3 1687.3,1059.5 1695.9,1063.3 1705.6,1064.6 1716.3,1063.5 1728.1,1060.0 1740.8,1054.0 1754.5,1045.8 1769.1,1035.2 1784.5,1022.4 1800.7,1007.5 1817.7,990.6 1835.4,971.7 1853.6,951.0 1872.4,928.6 1891.6,904.7 1911.2,879.5 1931.0,853.0 1951.1,825.5 1971.2,797.2 1991.2,768.2 2011.1,738.9  " style="stroke-opacity: 1.000000; stroke-width: 5.0; stroke: rgb(107,174,214); fill: none"  />
<path d="M 1711.1,607.9 L 1703.0,643.4 1695.8,679.1 1689.3,714.8 1683.9,750.1 1679.6,785.1 1676.3,819.4 1674.4,853.1 1673.7,885.8 1674.4,917.5 1676.5,948.1 1680.0,977.4 1685.1,1005.4 1691.7,1031.8 1699.9,1056.8 1709.6,1080.1 1720.9,1101.7 1733.9,1121.5 1748.4,1139.5 1764.4,1155.7 1782.1,1170.0 1801.2,1182.4 1821.9,1192.8 1844.0,1201.4 1867.4,1208.0 1892.2,1212.7 1918.3,1215.5 1945.6,1216.5 1974.0,1215.7 2003.4,1213.1 2033.8,1208.8 2064.9,1202.9 2096.8,1195.5 2129.3,1186.6 2162.3,1176.3 2195.5,1164.8 2229.0,1152.2 2262.5,1138.5 2296.0,1124.0 2329.1,1108.8  " style="stroke-opacity: 1.000000; stroke-width: 5.0; stroke: rgb(107,174,214); fill: none"  />
<path d="M 1853.6,2345.8 L 1839.9,2313.3 1826.2,2281.1 1812.5,2249.5 1798.9,2218.6 1785.4,2188.7 1772.2,2160.0 1759.4,2132.7 1746.9,2106.9 1734.8,2082.9 1723.3,2060.7 1712.3,2040.5 1701.8,2022.4 1692.1,2006.5 1683.0,1992.9 1674.6,1981.7 1666.9,1973.0 1660.0,1966.7 1653.9,1963.0 1648.5,1961.9 1644.0,1963.3 1640.3,1967.3 1637.4,1973.9 1635.4,1982.9 1634.1,1994.5 1633.7,2008.5 1634.0,2024.9 1635.2,2043.5 1637.1,2064.3 1639.7,2087.1 1643.0,2111.9 1646.9,2138.5 1651.5,2166.8 1656.7,2196.5 1662.4,2227.6 1668.6,2259.8 1675.2,2292.9 1682.2,2326.6 1689.4,2360.9 1696.9,2395.4  " style="stroke-opacity: 1.000000; stroke-width: 5.0; stroke: rgb(107,174,214); fill: none"  />
<path d="M 1696.9,2395.4 L 1689.4,2360.9 1682.2,2326.6 1675.2,2292.9 1668.6,2259.8 1662.4,2227.6 1656.7,2196.5 1651.5,2166.8 1646.9,2138.5 1643.0,2111.9 1639.7,2087.1 1637.1,2064.3 1635.2,2043.5 1634.0,2024.9 1633.7,2008.5 1634.1,1994.5 1635.4,1982.9 1637.4,1973.9 1640.3,1967.3 1644.0,1963.3 1648.5,1961.9 1653.9,1963.0 1660.0,1966.7 1666.9,1973.0 1674.6,1981.7 1683.0,1992.9 1692.1,2006.5 1701.8,2022.4 1712.3,2040.5 1723.3,2060.7 1734.8,2082.9 1746.9,2106.9 1759.4,2132.7 1772.2,2160.0 1785.4,2188.7 1798.9,2218.6 1812.5,2249.5 1826.2,2281.1 1839.9,2313.3 1853.6,2345.8  " style="stroke-opacity: 1.000000; stroke-width: 5.0; stroke: rgb(107,174,214); fill: none"  />
<path d="M 1696.9,2395.4 L 1689.0,2360.6 1680.7,2326.1 1671.9,2292.1 1662.6,2258.9 1653.0,2226.7 1642.9,2195.7 1632.5,2166.0 1621.6,2137.9 1610.4,2111.5 1598.9,2086.9 1587.0,2064.4 1574.8,2044.0 1562.3,2025.7 1549.6,2009.8 1536.6,1996.3 1523.3,1985.3 1509.8,1976.8 1496.2,1970.9 1482.3,1967.5 1468.3,1966.8 1454.2,1968.7 1440.0,1973.1 1425.7,1980.2 1411.3,1989.7 1397.0,2001.8 1382.6,2016.2 1368.3,2033.0 1354.0,2052.1 1339.8,2073.3 1325.7,2096.4 1311.8,2121.5 1298.1,2148.3 1284.5,2176.7 1271.3,2206.5 1258.3,2237.5 1245.6,2269.6 1233.3,2302.4 1221.3,2335.8 1209.8,2369.6  " style="stroke-opacity: 1.000000; stroke-width: 5.0; stroke: rgb(107,174,214); fill: none"  />
<path d="M 1696.9,2395.4 L 1688.6,2359.3 1679.4,2323.4 1669.3,2287.9 1658.3,2253.0 1646.4,2218.8 1633.6,2185.5 1619.8,2153.3 1605.1,2122.3 1589.5,2092.7 1572.9,2064.5 1555.3,2038.0 1536.8,2013.2 1517.4,1990.2 1497.1,1969.1 1475.8,1950.0 1453.7,1932.9 1430.8,1918.0 1407.0,1905.1 1382.4,1894.5 1357.1,1886.0 1331.1,1879.8 1304.3,1875.8 1277.0,1874.0 1249.1,1874.3 1220.6,1876.9 1191.7,1881.5 1162.4,1888.2 1132.7,1897.0 1102.7,1907.6 1072.5,1920.2 1042.2,1934.4 1011.9,1950.4 981.5,1967.9 951.3,1986.8 921.2,2007.0 891.5,2028.4 862.1,2050.7 833.2,2073.9 804.9,2097.7  " style="stroke-opacity: 1.000000; stroke-width: 5.0; stroke: rgb(107,174,214); fill: none"  />
<path d="M 1867.0,659.9 L 1852.8,692.2 1838.5,724.2 1824.3,755.6 1810.2,786.2 1796.3,815.9 1782.6,844.4 1769.3,871.5 1756.4,897.0 1744.0,920.9 1732.1,942.9 1720.8,962.9 1710.1,980.9 1700.1,996.6 1690.7,1010.0 1682.2,1021.1 1674.4,1029.7 1667.4,1035.9 1661.2,1039.5 1655.8,1040.5 1651.3,1039.0 1647.7,1035.0 1644.9,1028.4 1643.0,1019.3 1641.9,1007.7 1641.7,993.7 1642.3,977.3 1643.8,958.7 1646.0,938.0 1649.0,915.2 1652.6,890.4 1657.0,863.9 1662.1,835.7 1667.7,806.0 1673.9,775.1 1680.6,743.0 1687.7,710.0 1695.2,676.3 1703.0,642.2 1711.1,607.9  " style="stroke-opacity: 1.000000; stroke-width: 5.0; stroke: rgb(107,174,214); fill: none"  />
<path d="M 1867.0,659.9 L 1852.9,692.3 1839.2,724.4 1825.8,756.2 1812.9,787.4 1800.6,817.8 1788.9,847.1 1778.1,875.3 1768.1,902.1 1759.0,927.5 1751.0,951.1 1744.0,973.1 1738.1,993.1 1733.4,1011.2 1729.9,1027.1 1727.6,1040.9 1726.5,1052.5 1726.8,1061.8 1728.4,1068.8 1731.2,1073.5 1735.4,1075.7 1740.8,1075.6 1747.5,1073.2 1755.5,1068.4 1764.7,1061.3 1775.2,1052.0 1786.7,1040.4 1799.4,1026.7 1813.1,1011.0 1827.9,993.3 1843.5,973.8 1860.0,952.5 1877.2,929.7 1895.2,905.4 1913.7,879.8 1932.7,853.1 1952.0,825.5 1971.6,797.1 1991.3,768.2 2011.1,738.9  " style="stroke-opacity: 1.000000; stroke-width: 5.0; stroke: rgb(107,174,214); fill: none"  />
<path d="M 1867.0,659.9 L 1852.8,693.0 1839.3,726.3 1826.6,759.5 1814.9,792.6 1804.1,825.2 1794.5,857.2 1786.2,888.6 1779.2,919.2 1773.6,948.7 1769.5,977.2 1767.0,1004.5 1766.2,1030.4 1767.0,1055.0 1769.6,1078.1 1773.9,1099.6 1779.9,1119.4 1787.8,1137.6 1797.5,1154.1 1808.9,1168.7 1822.2,1181.6 1837.1,1192.6 1853.9,1201.8 1872.3,1209.1 1892.3,1214.6 1913.9,1218.3 1937.1,1220.2 1961.6,1220.3 1987.6,1218.7 2014.7,1215.4 2043.1,1210.5 2072.5,1204.1 2102.8,1196.2 2133.9,1187.0 2165.7,1176.4 2198.0,1164.7 2230.7,1152.0 2263.5,1138.3 2296.4,1123.9 2329.1,1108.8  " style="stroke-opacity: 1.000000; stroke-width: 5.0; stroke: rgb(107,174,214); fill: none"  />
<path d="M 1533.9,2416.1 L 1532.9,2380.1 1532.5,2344.2 1532.8,2308.6 1533.9,2273.6 1535.9,2239.3 1538.7,2205.9 1542.4,2173.7 1547.1,2142.7 1552.7,2113.2 1559.4,2085.2 1567.0,2058.9 1575.8,2034.4 1585.5,2011.9 1596.3,1991.3 1608.2,1972.9 1621.1,1956.6 1635.1,1942.6 1650.1,1930.8 1666.2,1921.4 1683.2,1914.3 1701.2,1909.5 1720.1,1907.1 1739.9,1907.0 1760.6,1909.2 1782.0,1913.7 1804.3,1920.4 1827.2,1929.3 1850.7,1940.3 1874.8,1953.3 1899.4,1968.2 1924.4,1985.0 1949.7,2003.4 1975.3,2023.4 2001.0,2044.9 2026.8,2067.6 2052.5,2091.4 2078.1,2116.1 2103.4,2141.6 2128.3,2167.6  " style="stroke-opacity: 1.000000; stroke-width: 5.0; stroke: rgb(107,174,214); fill: none"  />
<path d="M 1533.9,2416.1 L 1532.4,2380.7 1530.6,2345.6 1528.4,2310.9 1525.9,2277.0 1522.9,2244.1 1519.6,2212.3 1515.8,2181.8 1511.6,2152.9 1507.0,2125.7 1501.9,2100.4 1496.4,2077.0 1490.5,2055.8 1484.1,2036.8 1477.3,2020.2 1470.0,2005.9 1462.3,1994.2 1454.2,1985.0 1445.6,1978.4 1436.7,1974.4 1427.3,1973.1 1417.6,1974.4 1407.6,1978.3 1397.2,1984.9 1386.5,1994.0 1375.5,2005.6 1364.3,2019.6 1352.8,2036.0 1341.1,2054.7 1329.3,2075.6 1317.3,2098.5 1305.2,2123.3 1293.0,2149.8 1280.9,2178.0 1268.7,2207.6 1256.6,2238.4 1244.6,2270.2 1232.8,2302.9 1221.2,2336.1 1209.8,2369.6  " style="stroke-opacity: 1.000000; stroke-width: 5.0; stroke: rgb(107,174,214); fill: none"  />
<path d="M 1533.9,2416.1 L 1532.2,2380.1 1530.0,2344.3 1527.0,2308.9 1523.3,2274.0 1518.8,2239.9 1513.5,2206.9 1507.4,2175.0 1500.5,2144.4 1492.7,2115.4 1484.0,2088.0 1474.4,2062.3 1463.9,2038.6 1452.5,2016.8 1440.2,1997.1 1427.0,1979.6 1412.9,1964.3 1397.9,1951.4 1382.1,1940.7 1365.4,1932.5 1347.9,1926.7 1329.6,1923.2 1310.6,1922.2 1290.8,1923.6 1270.4,1927.3 1249.3,1933.4 1227.6,1941.7 1205.4,1952.3 1182.8,1965.0 1159.7,1979.7 1136.3,1996.4 1112.6,2015.0 1088.7,2035.3 1064.7,2057.1 1040.6,2080.4 1016.6,2104.9 992.7,2130.6 969.0,2157.1 945.7,2184.4 922.8,2212.2  " style="stroke-opacity: 1.000000; stroke-width: 5.0; stroke: rgb(107,174,214); fill: none"  />
<path d="M 1533.9,2416.1 L 1532.1,2379.2 1529.5,2342.2 1525.9,2305.5 1521.3,2269.1 1515.7,2233.4 1509.1,2198.3 1501.3,2164.2 1492.3,2131.1 1482.2,2099.1 1470.9,2068.5 1458.4,2039.2 1444.6,2011.5 1429.6,1985.4 1413.4,1961.1 1395.9,1938.5 1377.2,1917.7 1357.3,1898.9 1336.2,1882.0 1313.9,1867.2 1290.5,1854.3 1266.0,1843.5 1240.4,1834.8 1213.8,1828.1 1186.3,1823.5 1157.8,1820.9 1128.5,1820.3 1098.5,1821.7 1067.7,1825.0 1036.3,1830.1 1004.4,1837.1 972.0,1845.7 939.3,1856.0 906.3,1867.8 873.2,1881.0 840.0,1895.5 806.9,1911.2 774.0,1928.0 741.4,1945.6 709.3,1964.0  " style="stroke-opacity: 1.000000; stroke-width: 5.0; stroke: rgb(107,174,214); fill: none"  />
<path d="M 1533.9,2416.1 L 1531.9,2375.4 1529.1,2334.4 1525.3,2293.1 1520.5,2251.8 1514.6,2210.3 1507.6,2168.9 1499.5,2127.6 1490.2,2086.5 1479.7,2045.6 1468.0,2005.1 1455.0,1964.9 1440.7,1925.2 1425.2,1886.1 1408.4,1847.5 1390.3,1809.5 1371.0,1772.2 1350.3,1735.7 1328.4,1699.9 1305.3,1664.9 1280.9,1630.8 1255.3,1597.5 1228.6,1565.2 1200.7,1533.9 1171.7,1503.5 1141.6,1474.0 1110.5,1445.6 1078.5,1418.3 1045.6,1391.9 1011.8,1366.6 977.3,1342.4 942.0,1319.2 906.1,1297.1 869.7,1276.0 832.8,1256.0 795.4,1237.0 757.8,1219.1 720.1,1202.1 682.2,1186.1 644.3,1171.1  " style="stroke-opacity: 1.000000; stroke-width: 5.0; stroke: rgb(107,174,214); fill: none"  />
<path d="M 2011.1,738.9 L 1991.2,768.2 1971.2,797.2 1951.1,825.5 1931.0,853.0 1911.2,879.5 1891.6,904.7 1872.4,928.6 1853.6,951.0 1835.4,971.7 1817.7,990.6 1800.7,1007.5 1784.5,1022.4 1769.1,1035.2 1754.5,1045.8 1740.8,1054.0 1728.1,1060.0 1716.3,1063.5 1705.6,1064.6 1695.9,1063.3 1687.3,1059.5 1679.7,1053.3 1673.2,1044.7 1667.8,1033.6 1663.5,1020.3 1660.3,1004.6 1658.1,986.8 1657.0,966.8 1656.9,944.7 1657.8,920.7 1659.7,895.0 1662.5,867.5 1666.1,838.5 1670.6,808.2 1675.8,776.6 1681.8,744.1 1688.3,710.7 1695.5,676.7 1703.1,642.4 1711.1,607.9  " style="stroke-opacity: 1.000000; stroke-width: 5.0; stroke: rgb(107,174,214); fill: none"  />
<path d="M 2011.1,738.9 L 1991.3,768.2 1971.6,797.1 1952.0,825.5 1932.7,853.1 1913.7,879.8 1895.2,905.4 1877.2,929.7 1860.0,952.5 1843.5,973.8 1827.9,993.3 1813.1,1011.0 1799.4,1026.7 1786.7,1040.4 1775.2,1052.0 1764.7,1061.3 1755.5,1068.4 1747.5,1073.2 1740.8,1075.6 1735.4,1075.7 1731.2,1073.5 1728.4,1068.8 1726.8,1061.8 1726.5,1052.5 1727.6,1040.9 1729.9,1027.1 1733.4,1011.2 1738.1,993.1 1744.0,973.1 1751.0,951.1 1759.0,927.5 1768.1,902.1 1778.1,875.3 1788.9,847.1 1800.6,817.8 1812.9,787.4 1825.8,756.2 1839.2,724.4 1852.9,692.3 1867.0,659.9  " style="stroke-opacity: 1.000000; stroke-width: 5.0; stroke: rgb(107,174,214); fill: none"  />
<path d="M 2011.1,738.9 L 1991.5,768.3 1972.2,797.5 1953.3,826.3 1935.1,854.7 1917.5,882.4 1900.9,909.2 1885.2,935.0 1870.5,959.6 1857.1,982.9 1845.0,1004.8 1834.2,1025.1 1824.8,1043.8 1816.9,1060.7 1810.6,1075.8 1805.9,1088.9 1802.8,1100.2 1801.4,1109.4 1801.7,1116.5 1803.7,1121.6 1807.3,1124.6 1812.7,1125.5 1819.8,1124.3 1828.5,1121.0 1838.8,1115.6 1850.7,1108.3 1864.2,1099.0 1879.1,1087.8 1895.4,1074.8 1913.1,1060.0 1931.9,1043.6 1952.0,1025.6 1973.0,1006.2 1995.0,985.5 2017.8,963.6 2041.2,940.7 2065.2,917.0 2089.6,892.6 2114.1,867.7 2138.8,842.4  " style="stroke-opacity: 1.000000; stroke-width: 5.0; stroke: rgb(107,174,214); fill: none"  />
<path d="M 2011.1,738.9 L 1991.4,768.7 1972.2,798.6 1953.8,828.4 1936.1,858.0 1919.5,887.2 1904.1,915.9 1889.8,944.0 1877.0,971.3 1865.7,997.6 1855.9,1022.9 1847.8,1047.1 1841.5,1070.0 1836.9,1091.6 1834.2,1111.8 1833.5,1130.6 1834.7,1147.8 1837.8,1163.4 1843.0,1177.4 1850.2,1189.7 1859.3,1200.3 1870.4,1209.2 1883.5,1216.4 1898.4,1221.9 1915.3,1225.7 1933.9,1227.7 1954.3,1228.1 1976.3,1226.9 2000.0,1224.0 2025.1,1219.6 2051.5,1213.8 2079.3,1206.5 2108.2,1197.9 2138.0,1188.1 2168.7,1177.1 2200.1,1165.0 2232.1,1152.0 2264.3,1138.3 2296.7,1123.8 2329.1,1108.8  " style="stroke-opacity: 1.000000; stroke-width: 5.0; stroke: rgb(107,174,214); fill: none"  />
<path d="M 1209.8,2369.6 L 1220.9,2336.1 1231.7,2302.8 1242.2,2270.0 1252.3,2237.8 1261.8,2206.4 1270.8,2176.2 1279.0,2147.1 1286.6,2119.5 1293.3,2093.5 1299.2,2069.1 1304.2,2046.7 1308.3,2026.2 1311.4,2007.8 1313.5,1991.6 1314.5,1977.6 1314.5,1966.0 1313.4,1956.7 1311.2,1949.9 1308.0,1945.6 1303.6,1943.7 1298.2,1944.2 1291.7,1947.3 1284.2,1952.8 1275.6,1960.7 1266.1,1970.9 1255.6,1983.4 1244.2,1998.2 1232.0,2015.1 1218.9,2034.0 1205.1,2054.9 1190.5,2077.5 1175.4,2101.8 1159.7,2127.7 1143.6,2154.8 1127.1,2183.1 1110.3,2212.3 1093.3,2242.4 1076.2,2272.9 1059.2,2303.8  " style="stroke-opacity: 1.000000; stroke-width: 5.0; stroke: rgb(107,174,214); fill: none"  />
<path d="M 1209.8,2369.6 L 1220.9,2336.0 1231.5,2302.4 1241.7,2269.2 1251.2,2236.6 1260.0,2204.7 1268.1,2173.7 1275.2,2143.9 1281.5,2115.4 1286.7,2088.3 1290.9,2062.8 1293.9,2039.0 1295.8,2017.0 1296.5,1997.0 1295.9,1979.0 1294.1,1963.1 1291.0,1949.4 1286.7,1938.0 1281.0,1928.8 1274.0,1921.9 1265.7,1917.4 1256.2,1915.2 1245.4,1915.4 1233.4,1917.8 1220.2,1922.6 1205.8,1929.6 1190.3,1938.8 1173.8,1950.1 1156.3,1963.5 1137.9,1978.9 1118.6,1996.1 1098.6,2015.1 1077.9,2035.7 1056.6,2057.8 1034.8,2081.2 1012.7,2105.8 990.3,2131.4 967.7,2157.8 945.2,2184.8 922.8,2212.2  " style="stroke-opacity: 1.000000; stroke-width: 5.0; stroke: rgb(107,174,214); fill: none"  />
<path d="M 1209.8,2369.6 L 1220.9,2335.7 1231.4,2301.8 1241.3,2268.1 1250.4,2234.9 1258.6,2202.3 1265.9,2170.5 1272.1,2139.7 1277.2,2110.0 1281.2,2081.6 1283.9,2054.6 1285.2,2029.1 1285.2,2005.3 1283.9,1983.3 1281.1,1963.1 1276.8,1944.8 1271.1,1928.6 1263.9,1914.4 1255.2,1902.2 1245.0,1892.3 1233.4,1884.5 1220.3,1878.8 1205.8,1875.4 1189.9,1874.1 1172.7,1874.9 1154.2,1877.9 1134.4,1882.9 1113.5,1890.0 1091.5,1899.0 1068.4,1909.9 1044.5,1922.6 1019.7,1937.0 994.1,1953.0 967.9,1970.4 941.3,1989.2 914.2,2009.2 886.9,2030.2 859.5,2052.0 832.1,2074.6 804.9,2097.7  " style="stroke-opacity: 1.000000; stroke-width: 5.0; stroke: rgb(107,174,214); fill: none"  />
<path d="M 1209.8,2369.6 L 1221.1,2334.4 1231.6,2298.9 1241.2,2263.2 1249.7,2227.6 1257.0,2192.1 1263.1,2157.0 1267.8,2122.3 1271.1,2088.1 1272.8,2054.7 1273.0,2022.0 1271.6,1990.2 1268.4,1959.4 1263.5,1929.7 1256.9,1901.2 1248.5,1873.9 1238.2,1847.9 1226.2,1823.3 1212.4,1800.1 1196.7,1778.3 1179.3,1758.1 1160.2,1739.4 1139.3,1722.2 1116.8,1706.6 1092.6,1692.6 1066.9,1680.2 1039.7,1669.4 1011.0,1660.1 981.1,1652.4 949.9,1646.2 917.6,1641.4 884.2,1638.2 850.0,1636.3 814.9,1635.7 779.3,1636.5 743.1,1638.4 706.6,1641.5 669.9,1645.6 633.2,1650.6 596.7,1656.5  " style="stroke-opacity: 1.000000; stroke-width: 5.0; stroke: rgb(107,174,214); fill: none"  />
<path d="M 2138.8,842.4 L 2113.7,867.8 2088.5,892.8 2063.1,917.0 2037.8,940.4 2012.6,962.7 1987.7,983.8 1963.2,1003.5 1939.2,1021.7 1915.8,1038.2 1893.1,1053.0 1871.1,1066.0 1850.0,1076.9 1829.8,1085.8 1810.6,1092.6 1792.4,1097.2 1775.3,1099.6 1759.4,1099.8 1744.6,1097.6 1731.1,1093.2 1718.8,1086.4 1707.8,1077.4 1698.0,1066.1 1689.6,1052.6 1682.4,1036.9 1676.5,1019.1 1671.9,999.3 1668.6,977.4 1666.5,953.7 1665.6,928.3 1665.8,901.1 1667.2,872.5 1669.6,842.5 1673.1,811.2 1677.5,778.9 1682.8,745.7 1688.8,711.8 1695.6,677.3 1703.1,642.6 1711.1,607.9  " style="stroke-opacity: 1.000000; stroke-width: 5.0; stroke: rgb(107,174,214); fill: none"  />
<path d="M 2138.8,842.4 L 2113.6,868.8 2089.1,895.7 2065.3,923.0 2042.5,950.6 2020.8,978.4 2000.4,1006.2 1981.5,1034.1 1964.1,1061.8 1948.4,1089.4 1934.6,1116.7 1922.6,1143.7 1912.6,1170.3 1904.7,1196.4 1898.9,1222.0 1895.3,1247.0 1894.0,1271.4 1894.9,1295.0 1898.1,1317.9 1903.6,1340.1 1911.4,1361.4 1921.5,1381.8 1933.9,1401.4 1948.4,1420.1 1965.2,1437.8 1984.1,1454.5 2005.0,1470.3 2027.9,1485.2 2052.7,1499.0 2079.3,1511.9 2107.6,1523.8 2137.3,1534.7 2168.5,1544.7 2201.0,1553.7 2234.5,1561.8 2269.0,1569.0 2304.2,1575.3 2340.0,1580.8 2376.1,1585.5 2412.4,1589.4  " style="stroke-opacity: 1.000000; stroke-width: 5.0; stroke: rgb(107,174,214); fill: none"  />
<path d="M 1059.2,2303.8 L 1076.1,2272.9 1092.7,2242.0 1108.9,2211.6 1124.5,2181.7 1139.5,2152.6 1153.7,2124.4 1167.0,2097.3 1179.4,2071.4 1190.7,2047.0 1200.8,2024.1 1209.8,2002.9 1217.4,1983.5 1223.7,1966.0 1228.7,1950.4 1232.2,1936.8 1234.3,1925.4 1234.8,1916.1 1233.9,1909.0 1231.5,1904.1 1227.6,1901.5 1222.1,1901.1 1215.2,1902.9 1206.8,1906.9 1197.0,1913.2 1185.8,1921.6 1173.2,1932.0 1159.4,1944.5 1144.3,1959.0 1128.0,1975.3 1110.7,1993.3 1092.4,2013.0 1073.2,2034.2 1053.1,2056.8 1032.4,2080.6 1011.1,2105.5 989.3,2131.3 967.3,2157.8 945.0,2184.9 922.8,2212.2  " style="stroke-opacity: 1.000000; stroke-width: 5.0; stroke: rgb(107,174,214); fill: none"  />
<path d="M 1059.2,2303.8 L 1076.1,2272.7 1092.6,2241.6 1108.5,2210.7 1123.7,2180.3 1138.1,2150.5 1151.5,2121.5 1163.9,2093.4 1175.1,2066.5 1185.1,2040.7 1193.7,2016.4 1201.0,1993.5 1206.8,1972.3 1211.0,1952.7 1213.7,1934.9 1214.7,1918.9 1214.1,1904.9 1211.9,1892.8 1207.9,1882.8 1202.3,1874.8 1195.0,1868.9 1186.0,1865.0 1175.3,1863.2 1163.1,1863.5 1149.2,1865.8 1133.8,1870.2 1117.0,1876.5 1098.7,1884.7 1079.1,1894.7 1058.2,1906.5 1036.2,1920.0 1013.1,1935.1 989.0,1951.7 964.1,1969.6 938.5,1988.8 912.4,2009.0 885.7,2030.2 858.8,2052.2 831.8,2074.7 804.9,2097.7  " style="stroke-opacity: 1.000000; stroke-width: 5.0; stroke: rgb(107,174,214); fill: none"  />
<path d="M 922.8,2212.2 L 947.2,2182.7 972.6,2153.7 998.8,2125.4 1025.7,2097.8 1053.4,2071.2 1081.8,2045.6 1110.9,2021.3 1140.6,1998.3 1170.9,1976.6 1201.7,1956.6 1233.0,1938.1 1264.8,1921.4 1297.0,1906.4 1329.5,1893.2 1362.4,1882.0 1395.6,1872.7 1429.0,1865.4 1462.5,1860.0 1496.3,1856.7 1530.1,1855.5 1563.9,1856.3 1597.8,1859.1 1631.7,1863.9 1665.4,1870.8 1699.0,1879.6 1732.5,1890.3 1765.7,1902.8 1798.6,1917.2 1831.2,1933.3 1863.4,1951.0 1895.2,1970.3 1926.5,1991.1 1957.3,2013.3 1987.5,2036.7 2017.1,2061.2 2046.1,2086.7 2074.3,2113.0 2101.7,2140.0 2128.3,2167.6  " style="stroke-opacity: 1.000000; stroke-width: 5.0; stroke: rgb(107,174,214); fill: none"  />
<path d="M 922.8,2212.2 L 945.7,2184.4 969.0,2157.1 992.7,2130.6 1016.6,2104.9 1040.6,2080.4 1064.7,2057.1 1088.7,2035.3 1112.6,2015.0 1136.3,1996.4 1159.7,1979.7 1182.8,1965.0 1205.4,1952.3 1227.6,1941.7 1249.3,1933.4 1270.4,1927.3 1290.8,1923.6 1310.6,1922.2 1329.6,1923.2 1347.9,1926.7 1365.4,1932.5 1382.1,1940.7 1397.9,1951.4 1412.9,1964.3 1427.0,1979.6 1440.2,1997.1 1452.5,2016.8 1463.9,2038.6 1474.4,2062.3 1484.0,2088.0 1492.7,2115.4 1500.5,2144.4 1507.4,2175.0 1513.5,2206.9 1518.8,2239.9 1523.3,2274.0 1527.0,2308.9 1530.0,2344.3 1532.2,2380.1 1533.9,2416.1  " style="stroke-opacity: 1.000000; stroke-width: 5.0; stroke: rgb(107,174,214); fill: none"  />
<path d="M 922.8,2212.2 L 945.2,2184.8 967.7,2157.8 990.3,2131.4 1012.7,2105.8 1034.8,2081.2 1056.6,2057.8 1077.9,2035.7 1098.6,2015.1 1118.6,1996.1 1137.9,1978.9 1156.3,1963.5 1173.8,1950.1 1190.3,1938.8 1205.8,1929.6 1220.2,1922.6 1233.4,1917.8 1245.4,1915.4 1256.2,1915.2 1265.7,1917.4 1274.0,1921.9 1281.0,1928.8 1286.7,1938.0 1291.0,1949.4 1294.1,1963.1 1295.9,1979.0 1296.5,1997.0 1295.8,2017.0 1293.9,2039.0 1290.9,2062.8 1286.7,2088.3 1281.5,2115.4 1275.2,2143.9 1268.1,2173.7 1260.0,2204.7 1251.2,2236.6 1241.7,2269.2 1231.5,2302.4 1220.9,2336.0 1209.8,2369.6  " style="stroke-opacity: 1.000000; stroke-width: 5.0; stroke: rgb(107,174,214); fill: none"  />
<path d="M 922.8,2212.2 L 945.0,2184.9 967.3,2157.8 989.3,2131.3 1011.1,2105.5 1032.4,2080.6 1053.1,2056.8 1073.2,2034.2 1092.4,2013.0 1110.7,1993.3 1128.0,1975.3 1144.3,1959.0 1159.4,1944.5 1173.2,1932.0 1185.8,1921.6 1197.0,1913.2 1206.8,1906.9 1215.2,1902.9 1222.1,1901.1 1227.6,1901.5 1231.5,1904.1 1233.9,1909.0 1234.8,1916.1 1234.3,1925.4 1232.2,1936.8 1228.7,1950.4 1223.7,1966.0 1217.4,1983.5 1209.8,2002.9 1200.8,2024.1 1190.7,2047.0 1179.4,2071.4 1167.0,2097.3 1153.7,2124.4 1139.5,2152.6 1124.5,2181.7 1108.9,2211.6 1092.7,2242.0 1076.1,2272.9 1059.2,2303.8  " style="stroke-opacity: 1.000000; stroke-width: 5.0; stroke: rgb(107,174,214); fill: none"  />
<path d="M 922.8,2212.2 L 944.9,2184.7 966.7,2157.4 988.1,2130.3 1008.8,2103.7 1028.8,2077.7 1047.8,2052.5 1065.7,2028.2 1082.5,2005.0 1098.0,1983.0 1112.0,1962.3 1124.6,1943.0 1135.6,1925.3 1145.0,1909.1 1152.6,1894.7 1158.5,1882.0 1162.6,1871.1 1164.8,1862.0 1165.2,1854.9 1163.6,1849.7 1160.3,1846.4 1155.0,1845.0 1147.8,1845.6 1138.9,1848.1 1128.1,1852.4 1115.6,1858.7 1101.3,1866.7 1085.5,1876.6 1068.1,1888.1 1049.2,1901.2 1028.9,1915.9 1007.3,1932.0 984.6,1949.4 960.9,1968.1 936.2,1987.8 910.8,2008.5 884.8,2030.0 858.4,2052.1 831.7,2074.8 804.9,2097.7  " style="stroke-opacity: 1.000000; stroke-width: 5.0; stroke: rgb(107,174,214); fill: none"  />
<path d="M 922.8,2212.2 L 945.4,2183.6 967.5,2154.6 988.7,2125.3 1008.9,2095.8 1028.0,2066.2 1045.8,2036.6 1062.2,2007.2 1077.0,1978.0 1090.2,1949.1 1101.5,1920.7 1111.1,1892.7 1118.6,1865.4 1124.2,1838.6 1127.6,1812.6 1128.9,1787.4 1128.1,1763.0 1125.1,1739.5 1119.8,1717.0 1112.4,1695.5 1102.7,1674.9 1090.8,1655.5 1076.7,1637.1 1060.5,1619.8 1042.3,1603.7 1021.9,1588.7 999.7,1574.8 975.5,1562.1 949.6,1550.5 922.0,1540.1 892.8,1530.8 862.1,1522.6 830.2,1515.4 797.0,1509.4 762.9,1504.3 727.9,1500.2 692.3,1497.1 656.1,1494.8 619.7,1493.4 583.3,1492.7  " style="stroke-opacity: 1.000000; stroke-width: 5.0; stroke: rgb(107,174,214); fill: none"  />
<path d="M 922.8,2212.2 L 946.1,2182.7 968.8,2152.5 990.6,2121.8 1011.5,2090.6 1031.2,2058.9 1049.7,2026.9 1066.8,1994.7 1082.4,1962.4 1096.4,1929.9 1108.6,1897.4 1119.1,1864.9 1127.8,1832.6 1134.5,1800.4 1139.2,1768.5 1141.8,1736.8 1142.4,1705.6 1140.9,1674.7 1137.3,1644.2 1131.6,1614.3 1123.7,1584.9 1113.8,1556.1 1101.7,1527.9 1087.6,1500.4 1071.4,1473.6 1053.3,1447.5 1033.3,1422.2 1011.4,1397.7 987.8,1373.9 962.5,1351.1 935.6,1329.0 907.3,1307.9 877.6,1287.6 846.8,1268.2 814.8,1249.8 781.9,1232.2 748.2,1215.5 713.9,1199.8 679.2,1185.0 644.3,1171.1  " style="stroke-opacity: 1.000000; stroke-width: 5.0; stroke: rgb(107,174,214); fill: none"  />
<path d="M 2329.1,1108.8 L 2296.0,1124.0 2262.5,1138.5 2229.0,1152.2 2195.5,1164.8 2162.3,1176.3 2129.3,1186.6 2096.8,1195.5 2064.9,1202.9 2033.8,1208.8 2003.4,1213.1 1974.0,1215.7 1945.6,1216.5 1918.3,1215.5 1892.2,1212.7 1867.4,1208.0 1844.0,1201.4 1821.9,1192.8 1801.2,1182.4 1782.1,1170.0 1764.4,1155.7 1748.4,1139.5 1733.9,1121.5 1720.9,1101.7 1709.6,1080.1 1699.9,1056.8 1691.7,1031.8 1685.1,1005.4 1680.0,977.4 1676.5,948.1 1674.4,917.5 1673.7,885.8 1674.4,853.1 1676.3,819.4 1679.6,785.1 1683.9,750.1 1689.3,714.8 1695.8,679.1 1703.0,643.4 1711.1,607.9  " style="stroke-opacity: 1.000000; stroke-width: 5.0; stroke: rgb(107,174,214); fill: none"  />
<path d="M 2329.1,1108.8 L 2296.4,1123.9 2263.5,1138.3 2230.7,1152.0 2198.0,1164.7 2165.7,1176.4 2133.9,1187.0 2102.8,1196.2 2072.5,1204.1 2043.1,1210.5 2014.7,1215.4 1987.6,1218.7 1961.6,1220.3 1937.1,1220.2 1913.9,1218.3 1892.3,1214.6 1872.3,1209.1 1853.9,1201.8 1837.1,1192.6 1822.2,1181.6 1808.9,1168.7 1797.5,1154.1 1787.8,1137.6 1779.9,1119.4 1773.9,1099.6 1769.6,1078.1 1767.0,1055.0 1766.2,1030.4 1767.0,1004.5 1769.5,977.2 1773.6,948.7 1779.2,919.2 1786.2,888.6 1794.5,857.2 1804.1,825.2 1814.9,792.6 1826.6,759.5 1839.3,726.3 1852.8,693.0 1867.0,659.9  " style="stroke-opacity: 1.000000; stroke-width: 5.0; stroke: rgb(107,174,214); fill: none"  />
<path d="M 2329.1,1108.8 L 2296.7,1123.8 2264.3,1138.3 2232.1,1152.0 2200.1,1165.0 2168.7,1177.1 2138.0,1188.1 2108.2,1197.9 2079.3,1206.5 2051.5,1213.8 2025.1,1219.6 2000.0,1224.0 1976.3,1226.9 1954.3,1228.1 1933.9,1227.7 1915.3,1225.7 1898.4,1221.9 1883.5,1216.4 1870.4,1209.2 1859.3,1200.3 1850.2,1189.7 1843.0,1177.4 1837.8,1163.4 1834.7,1147.8 1833.5,1130.6 1834.2,1111.8 1836.9,1091.6 1841.5,1070.0 1847.8,1047.1 1855.9,1022.9 1865.7,997.6 1877.0,971.3 1889.8,944.0 1904.1,915.9 1919.5,887.2 1936.1,858.0 1953.8,828.4 1972.2,798.6 1991.4,768.7 2011.1,738.9  " style="stroke-opacity: 1.000000; stroke-width: 5.0; stroke: rgb(107,174,214); fill: none"  />
<path d="M 2329.1,1108.8 L 2296.6,1124.4 2264.6,1140.6 2233.2,1157.3 2202.6,1174.4 2173.0,1191.9 2144.7,1209.7 2117.7,1227.9 2092.4,1246.3 2068.7,1264.9 2046.9,1283.6 2027.1,1302.5 2009.4,1321.5 1993.9,1340.6 1980.6,1359.6 1969.7,1378.6 1961.2,1397.6 1955.2,1416.5 1951.6,1435.2 1950.6,1453.8 1952.1,1472.2 1956.1,1490.3 1962.7,1508.3 1971.7,1525.9 1983.2,1543.2 1997.1,1560.2 2013.2,1576.8 2031.7,1593.1 2052.3,1608.9 2074.9,1624.4 2099.4,1639.3 2125.8,1653.8 2153.8,1667.8 2183.4,1681.3 2214.2,1694.3 2246.2,1706.8 2279.2,1718.7 2312.9,1730.0 2347.2,1740.7 2381.8,1750.9  " style="stroke-opacity: 1.000000; stroke-width: 5.0; stroke: rgb(107,174,214); fill: none"  />
<path d="M 804.9,2097.7 L 834.8,2072.6 865.5,2048.0 897.1,2024.2 929.3,2001.2 962.2,1979.2 995.7,1958.3 1029.8,1938.6 1064.4,1920.2 1099.5,1903.1 1135.0,1887.5 1170.8,1873.5 1206.9,1861.1 1243.3,1850.3 1279.9,1841.2 1316.7,1834.0 1353.6,1828.5 1390.5,1824.9 1427.5,1823.1 1464.4,1823.1 1501.3,1825.1 1538.0,1828.9 1574.6,1834.6 1611.0,1842.1 1647.1,1851.4 1682.9,1862.5 1718.3,1875.4 1753.4,1889.9 1788.0,1906.1 1822.2,1923.8 1855.8,1943.1 1888.9,1963.7 1921.3,1985.7 1953.1,2008.9 1984.3,2033.3 2014.7,2058.6 2044.3,2084.8 2073.2,2111.9 2101.2,2139.5 2128.3,2167.6  " style="stroke-opacity: 1.000000; stroke-width: 5.0; stroke: rgb(107,174,214); fill: none"  />
<path d="M 804.9,2097.7 L 832.1,2074.6 859.5,2052.0 886.9,2030.2 914.2,2009.2 941.3,1989.2 967.9,1970.4 994.1,1953.0 1019.7,1937.0 1044.5,1922.6 1068.4,1909.9 1091.5,1899.0 1113.5,1890.0 1134.4,1882.9 1154.2,1877.9 1172.7,1874.9 1189.9,1874.1 1205.8,1875.4 1220.3,1878.8 1233.4,1884.5 1245.0,1892.3 1255.2,1902.2 1263.9,1914.4 1271.1,1928.6 1276.8,1944.8 1281.1,1963.1 1283.9,1983.3 1285.2,2005.3 1285.2,2029.1 1283.9,2054.6 1281.2,2081.6 1277.2,2110.0 1272.1,2139.7 1265.9,2170.5 1258.6,2202.3 1250.4,2234.9 1241.3,2268.1 1231.4,2301.8 1220.9,2335.7 1209.8,2369.6  " style="stroke-opacity: 1.000000; stroke-width: 5.0; stroke: rgb(107,174,214); fill: none"  />
<path d="M 804.9,2097.7 L 831.8,2074.7 858.8,2052.2 885.7,2030.2 912.4,2009.0 938.5,1988.8 964.1,1969.6 989.0,1951.7 1013.1,1935.1 1036.2,1920.0 1058.2,1906.5 1079.1,1894.7 1098.7,1884.7 1117.0,1876.5 1133.8,1870.2 1149.2,1865.8 1163.1,1863.5 1175.3,1863.2 1186.0,1865.0 1195.0,1868.9 1202.3,1874.8 1207.9,1882.8 1211.9,1892.8 1214.1,1904.9 1214.7,1918.9 1213.7,1934.9 1211.0,1952.7 1206.8,1972.3 1201.0,1993.5 1193.7,2016.4 1185.1,2040.7 1175.1,2066.5 1163.9,2093.4 1151.5,2121.5 1138.1,2150.5 1123.7,2180.3 1108.5,2210.7 1092.6,2241.6 1076.1,2272.7 1059.2,2303.8  " style="stroke-opacity: 1.000000; stroke-width: 5.0; stroke: rgb(107,174,214); fill: none"  />
<path d="M 709.3,1964.0 L 742.0,1945.3 775.2,1927.4 808.9,1910.4 842.9,1894.5 877.1,1879.7 911.5,1866.2 945.9,1854.2 980.3,1843.6 1014.5,1834.6 1048.4,1827.4 1082.1,1821.9 1115.4,1818.2 1148.2,1816.4 1180.5,1816.5 1212.1,1818.6 1243.2,1822.7 1273.5,1828.8 1303.0,1837.0 1331.8,1847.1 1359.7,1859.3 1386.6,1873.5 1412.7,1889.6 1437.8,1907.7 1461.9,1927.7 1484.9,1949.5 1507.0,1973.1 1527.9,1998.4 1547.8,2025.3 1566.7,2053.7 1584.4,2083.6 1601.1,2114.8 1616.7,2147.2 1631.2,2180.6 1644.7,2215.0 1657.1,2250.1 1668.5,2285.9 1679.0,2322.2 1688.4,2358.7 1696.9,2395.4  " style="stroke-opacity: 1.000000; stroke-width: 5.0; stroke: rgb(107,174,214); fill: none"  />
<path d="M 709.3,1964.0 L 741.4,1945.6 774.0,1928.0 806.9,1911.2 840.0,1895.5 873.2,1881.0 906.3,1867.8 939.3,1856.0 972.0,1845.7 1004.4,1837.1 1036.3,1830.1 1067.7,1825.0 1098.5,1821.7 1128.5,1820.3 1157.8,1820.9 1186.3,1823.5 1213.8,1828.1 1240.4,1834.8 1266.0,1843.5 1290.5,1854.3 1313.9,1867.2 1336.2,1882.0 1357.3,1898.9 1377.2,1917.7 1395.9,1938.5 1413.4,1961.1 1429.6,1985.4 1444.6,2011.5 1458.4,2039.2 1470.9,2068.5 1482.2,2099.1 1492.3,2131.1 1501.3,2164.2 1509.1,2198.3 1515.7,2233.4 1521.3,2269.1 1525.9,2305.5 1529.5,2342.2 1532.1,2379.2 1533.9,2416.1  " style="stroke-opacity: 1.000000; stroke-width: 5.0; stroke: rgb(107,174,214); fill: none"  />
<path d="M 709.3,1964.0 L 739.8,1945.9 769.9,1927.6 799.4,1909.3 828.0,1891.0 855.6,1872.8 882.1,1854.8 907.1,1837.0 930.6,1819.6 952.3,1802.7 972.2,1786.2 990.2,1770.3 1006.1,1755.0 1019.7,1740.4 1031.2,1726.5 1040.2,1713.3 1046.9,1701.0 1051.2,1689.5 1052.9,1678.8 1052.2,1669.0 1049.0,1660.2 1043.2,1652.3 1035.0,1645.3 1024.3,1639.2 1011.2,1634.1 995.8,1629.9 978.1,1626.7 958.2,1624.4 936.2,1623.0 912.2,1622.4 886.4,1622.7 858.8,1623.8 829.7,1625.7 799.1,1628.3 767.3,1631.6 734.5,1635.6 700.7,1640.1 666.4,1645.2 631.6,1650.7 596.7,1656.5  " style="stroke-opacity: 1.000000; stroke-width: 5.0; stroke: rgb(107,174,214); fill: none"  />
<path d="M 596.7,1656.5 L 633.2,1650.6 669.9,1645.6 706.6,1641.5 743.1,1638.4 779.3,1636.5 814.9,1635.7 850.0,1636.3 884.2,1638.2 917.6,1641.4 949.9,1646.2 981.1,1652.4 1011.0,1660.1 1039.7,1669.4 1066.9,1680.2 1092.6,1692.6 1116.8,1706.6 1139.3,1722.2 1160.2,1739.4 1179.3,1758.1 1196.7,1778.3 1212.4,1800.1 1226.2,1823.3 1238.2,1847.9 1248.5,1873.9 1256.9,1901.2 1263.5,1929.7 1268.4,1959.4 1271.6,1990.2 1273.0,2022.0 1272.8,2054.7 1271.1,2088.1 1267.8,2122.3 1263.1,2157.0 1257.0,2192.1 1249.7,2227.6 1241.2,2263.2 1231.6,2298.9 1221.1,2334.4 1209.8,2369.6  " style="stroke-opacity: 1.000000; stroke-width: 5.0; stroke: rgb(107,174,214); fill: none"  />
<path d="M 596.7,1656.5 L 631.6,1650.7 666.4,1645.2 700.7,1640.1 734.5,1635.6 767.3,1631.6 799.1,1628.3 829.7,1625.7 858.8,1623.8 886.4,1622.7 912.2,1622.4 936.2,1623.0 958.2,1624.4 978.1,1626.7 995.8,1629.9 1011.2,1634.1 1024.3,1639.2 1035.0,1645.3 1043.2,1652.3 1049.0,1660.2 1052.2,1669.0 1052.9,1678.8 1051.2,1689.5 1046.9,1701.0 1040.2,1713.3 1031.2,1726.5 1019.7,1740.4 1006.1,1755.0 990.2,1770.3 972.2,1786.2 952.3,1802.7 930.6,1819.6 907.1,1837.0 882.1,1854.8 855.6,1872.8 828.0,1891.0 799.4,1909.3 769.9,1927.6 739.8,1945.9 709.3,1964.0  " style="stroke-opacity: 1.000000; stroke-width: 5.0; stroke: rgb(107,174,214); fill: none"  />
<path d="M 2413.7,1425.1 L 2377.3,1427.7 2340.9,1429.5 2304.7,1430.5 2269.0,1430.6 2233.8,1429.6 2199.3,1427.7 2165.8,1424.6 2133.3,1420.4 2102.0,1414.9 2072.1,1408.3 2043.7,1400.3 2016.8,1391.1 1991.6,1380.6 1968.2,1368.8 1946.6,1355.7 1927.0,1341.3 1909.3,1325.5 1893.6,1308.5 1880.0,1290.2 1868.6,1270.6 1859.2,1249.8 1851.9,1227.8 1846.8,1204.7 1843.8,1180.5 1842.9,1155.3 1844.0,1129.0 1847.1,1101.9 1852.2,1074.0 1859.1,1045.3 1867.9,1015.9 1878.4,986.0 1890.6,955.6 1904.2,924.8 1919.3,893.8 1935.7,862.6 1953.2,831.4 1971.7,800.3 1991.1,769.4 2011.1,738.9  " style="stroke-opacity: 1.000000; stroke-width: 5.0; stroke: rgb(107,174,214); fill: none"  />
<path d="M 583.3,1492.7 L 620.9,1493.5 658.6,1495.2 696.2,1497.8 733.6,1501.6 770.6,1506.5 807.0,1512.5 842.7,1519.8 877.6,1528.4 911.6,1538.2 944.4,1549.4 976.2,1562.0 1006.6,1575.9 1035.7,1591.1 1063.3,1607.8 1089.5,1625.9 1114.0,1645.3 1136.9,1666.1 1158.1,1688.2 1177.6,1711.7 1195.2,1736.5 1211.1,1762.5 1225.2,1789.7 1237.5,1818.1 1247.9,1847.6 1256.5,1878.2 1263.3,1909.7 1268.4,1942.2 1271.6,1975.5 1273.2,2009.6 1273.1,2044.3 1271.5,2079.6 1268.2,2115.4 1263.6,2151.6 1257.5,2188.0 1250.1,2224.5 1241.6,2261.1 1231.9,2297.6 1221.3,2333.8 1209.8,2369.6  " style="stroke-opacity: 1.000000; stroke-width: 5.0; stroke: rgb(107,174,214); fill: none"  />
<path d="M 583.3,1492.7 L 620.3,1493.4 657.3,1495.0 694.1,1497.5 730.6,1501.0 766.5,1505.6 801.7,1511.2 836.1,1518.0 869.4,1526.0 901.7,1535.2 932.6,1545.6 962.2,1557.3 990.3,1570.2 1016.8,1584.5 1041.7,1600.0 1064.8,1616.8 1086.0,1634.9 1105.4,1654.3 1122.9,1674.9 1138.4,1696.7 1151.9,1719.7 1163.4,1743.9 1172.9,1769.2 1180.3,1795.6 1185.7,1823.0 1189.2,1851.4 1190.6,1880.6 1190.1,1910.7 1187.7,1941.5 1183.5,1973.1 1177.5,2005.2 1169.8,2037.8 1160.4,2070.8 1149.6,2104.1 1137.4,2137.6 1123.8,2171.2 1109.1,2204.7 1093.3,2238.1 1076.6,2271.2 1059.2,2303.8  " style="stroke-opacity: 1.000000; stroke-width: 5.0; stroke: rgb(107,174,214); fill: none"  />
<path d="M 2412.4,1589.4 L 2375.6,1585.4 2338.9,1580.5 2302.4,1574.7 2266.4,1568.0 2231.1,1560.2 2196.5,1551.4 2162.9,1541.6 2130.4,1530.6 2099.1,1518.6 2069.2,1505.5 2040.8,1491.2 2013.9,1475.7 1988.8,1459.2 1965.5,1441.5 1944.0,1422.7 1924.4,1402.8 1906.8,1381.7 1891.3,1359.6 1877.8,1336.5 1866.4,1312.4 1857.1,1287.2 1849.9,1261.2 1844.9,1234.3 1842.0,1206.5 1841.1,1177.9 1842.3,1148.7 1845.5,1118.7 1850.6,1088.2 1857.7,1057.2 1866.5,1025.8 1877.1,994.0 1889.4,961.9 1903.1,929.7 1918.3,897.5 1934.8,865.2 1952.5,833.1 1971.2,801.3 1990.8,769.9 2011.1,738.9  " style="stroke-opacity: 1.000000; stroke-width: 5.0; stroke: rgb(107,174,214); fill: none"  />
<path d="M 2412.4,1589.4 L 2376.1,1585.5 2340.0,1580.8 2304.2,1575.3 2269.0,1569.0 2234.5,1561.8 2201.0,1553.7 2168.5,1544.7 2137.3,1534.7 2107.6,1523.8 2079.3,1511.9 2052.7,1499.0 2027.9,1485.2 2005.0,1470.3 1984.1,1454.5 1965.2,1437.8 1948.4,1420.1 1933.9,1401.4 1921.5,1381.8 1911.4,1361.4 1903.6,1340.1 1898.1,1317.9 1894.9,1295.0 1894.0,1271.4 1895.3,1247.0 1898.9,1222.0 1904.7,1196.4 1912.6,1170.3 1922.6,1143.7 1934.6,1116.7 1948.4,1089.4 1964.1,1061.8 1981.5,1034.1 2000.4,1006.2 2020.8,978.4 2042.5,950.6 2065.3,923.0 2089.1,895.7 2113.6,868.8 2138.8,842.4  " style="stroke-opacity: 1.000000; stroke-width: 5.0; stroke: rgb(107,174,214); fill: none"  />
<path d="M 599.3,1329.2 L 636.2,1336.6 673.0,1345.0 709.5,1354.4 745.6,1364.7 781.1,1376.1 815.9,1388.6 849.7,1402.1 882.5,1416.8 914.2,1432.6 944.5,1449.4 973.5,1467.4 1001.0,1486.5 1026.9,1506.8 1051.1,1528.1 1073.6,1550.5 1094.3,1574.0 1113.1,1598.6 1130.0,1624.2 1144.9,1650.7 1157.9,1678.2 1168.9,1706.7 1177.9,1736.0 1184.9,1766.1 1189.9,1797.0 1192.9,1828.6 1194.0,1860.9 1193.1,1893.7 1190.4,1927.1 1185.9,1960.9 1179.6,1995.0 1171.6,2029.5 1162.1,2064.1 1151.0,2098.9 1138.6,2133.6 1124.8,2168.3 1109.8,2202.7 1093.8,2236.9 1076.9,2270.6 1059.2,2303.8  " style="stroke-opacity: 1.000000; stroke-width: 5.0; stroke: rgb(107,174,214); fill: none"  />
<path d="M 599.3,1329.2 L 635.6,1336.5 671.7,1344.6 707.5,1353.7 742.7,1363.6 777.3,1374.5 810.9,1386.4 843.5,1399.2 874.9,1413.0 905.0,1427.8 933.6,1443.5 960.6,1460.3 986.0,1478.1 1009.5,1496.8 1031.2,1516.5 1050.9,1537.2 1068.6,1558.8 1084.2,1581.3 1097.7,1604.7 1109.1,1629.0 1118.3,1654.0 1125.3,1679.9 1130.1,1706.5 1132.7,1733.8 1133.1,1761.7 1131.4,1790.2 1127.6,1819.2 1121.7,1848.8 1113.9,1878.7 1104.1,1908.9 1092.4,1939.5 1079.0,1970.2 1064.0,2001.0 1047.4,2031.8 1029.3,2062.6 1010.0,2093.2 989.5,2123.6 968.1,2153.6 945.7,2183.2 922.8,2212.2  " style="stroke-opacity: 1.000000; stroke-width: 5.0; stroke: rgb(107,174,214); fill: none"  />
<path d="M 599.3,1329.2 L 634.0,1335.7 668.4,1341.9 702.4,1347.9 735.6,1353.5 768.0,1358.8 799.2,1363.6 829.1,1367.9 857.5,1371.7 884.2,1374.9 909.1,1377.4 932.0,1379.4 952.8,1380.7 971.5,1381.3 987.8,1381.1 1001.8,1380.3 1013.3,1378.7 1022.3,1376.4 1028.8,1373.3 1032.7,1369.5 1034.0,1364.9 1032.7,1359.7 1028.8,1353.6 1022.4,1346.9 1013.4,1339.5 1002.0,1331.4 988.1,1322.7 972.0,1313.4 953.6,1303.5 933.1,1293.1 910.5,1282.2 886.1,1270.9 860.0,1259.1 832.4,1247.1 803.3,1234.7 773.0,1222.1 741.8,1209.4 709.8,1196.6 677.2,1183.8 644.3,1171.1  " style="stroke-opacity: 1.000000; stroke-width: 5.0; stroke: rgb(107,174,214); fill: none"  />
<path d="M 644.3,1171.1 L 685.8,1187.3 727.4,1203.9 769.1,1221.1 810.9,1238.8 852.7,1257.0 894.5,1275.7 936.3,1295.0 978.0,1314.8 1019.6,1335.1 1061.1,1356.0 1102.4,1377.5 1143.6,1399.5 1184.6,1422.0 1225.4,1445.1 1266.0,1468.8 1306.3,1493.0 1346.3,1517.7 1386.1,1542.9 1425.5,1568.7 1464.6,1594.9 1503.4,1621.7 1541.8,1648.9 1579.8,1676.6 1617.5,1704.8 1654.7,1733.4 1691.5,1762.4 1727.9,1791.8 1763.9,1821.7 1799.4,1851.8 1834.4,1882.3 1869.0,1913.1 1903.1,1944.2 1936.8,1975.6 1969.9,2007.2 2002.6,2039.0 2034.7,2071.0 2066.4,2103.1 2097.6,2135.3 2128.3,2167.6  " style="stroke-opacity: 1.000000; stroke-width: 5.0; stroke: rgb(107,174,214); fill: none"  />
<path d="M 644.3,1171.1 L 682.2,1186.1 720.1,1202.1 757.8,1219.1 795.4,1237.0 832.8,1256.0 869.7,1276.0 906.1,1297.1 942.0,1319.2 977.3,1342.4 1011.8,1366.6 1045.6,1391.9 1078.5,1418.3 1110.5,1445.6 1141.6,1474.0 1171.7,1503.5 1200.7,1533.9 1228.6,1565.2 1255.3,1597.5 1280.9,1630.8 1305.3,1664.9 1328.4,1699.9 1350.3,1735.7 1371.0,1772.2 1390.3,1809.5 1408.4,1847.5 1425.2,1886.1 1440.7,1925.2 1455.0,1964.9 1468.0,2005.1 1479.7,2045.6 1490.2,2086.5 1499.5,2127.6 1507.6,2168.9 1514.6,2210.3 1520.5,2251.8 1525.3,2293.1 1529.1,2334.4 1531.9,2375.4 1533.9,2416.1  " style="stroke-opacity: 1.000000; stroke-width: 5.0; stroke: rgb(107,174,214); fill: none"  />
<path d="M 644.3,1171.1 L 679.9,1185.3 715.3,1200.4 750.3,1216.5 784.9,1233.7 818.8,1251.8 851.8,1270.9 884.0,1291.0 915.1,1312.2 945.0,1334.3 973.6,1357.4 1000.8,1381.5 1026.6,1406.5 1050.8,1432.5 1073.3,1459.4 1094.2,1487.2 1113.3,1515.9 1130.6,1545.3 1146.0,1575.6 1159.6,1606.7 1171.2,1638.5 1180.9,1670.9 1188.7,1704.0 1194.6,1737.7 1198.5,1771.9 1200.5,1806.6 1200.7,1841.7 1199.0,1877.1 1195.5,1912.9 1190.3,1948.9 1183.3,1985.0 1174.8,2021.2 1164.7,2057.4 1153.2,2093.5 1140.3,2129.5 1126.1,2165.2 1110.8,2200.6 1094.5,2235.6 1077.2,2270.0 1059.2,2303.8  " style="stroke-opacity: 1.000000; stroke-width: 5.0; stroke: rgb(107,174,214); fill: none"  />
<path d="M 644.3,1171.1 L 679.2,1185.0 713.9,1199.8 748.2,1215.5 781.9,1232.2 814.8,1249.8 846.8,1268.2 877.6,1287.6 907.3,1307.9 935.6,1329.0 962.5,1351.1 987.8,1373.9 1011.4,1397.7 1033.3,1422.2 1053.3,1447.5 1071.4,1473.6 1087.6,1500.4 1101.7,1527.9 1113.8,1556.1 1123.7,1584.9 1131.6,1614.3 1137.3,1644.2 1140.9,1674.7 1142.4,1705.6 1141.8,1736.8 1139.2,1768.5 1134.5,1800.4 1127.8,1832.6 1119.1,1864.9 1108.6,1897.4 1096.4,1929.9 1082.4,1962.4 1066.8,1994.7 1049.7,2026.9 1031.2,2058.9 1011.5,2090.6 990.6,2121.8 968.8,2152.5 946.1,2182.7 922.8,2212.2  " style="stroke-opacity: 1.000000; stroke-width: 5.0; stroke: rgb(107,174,214); fill: none"  />
<path d="M 644.3,1171.1 L 677.2,1183.8 709.8,1196.6 741.8,1209.4 773.0,1222.1 803.3,1234.7 832.4,1247.1 860.0,1259.1 886.1,1270.9 910.5,1282.2 933.1,1293.1 953.6,1303.5 972.0,1313.4 988.1,1322.7 1002.0,1331.4 1013.4,1339.5 1022.4,1346.9 1028.8,1353.6 1032.7,1359.7 1034.0,1364.9 1032.7,1369.5 1028.8,1373.3 1022.3,1376.4 1013.3,1378.7 1001.8,1380.3 987.8,1381.1 971.5,1381.3 952.8,1380.7 932.0,1379.4 909.1,1377.4 884.2,1374.9 857.5,1371.7 829.1,1367.9 799.2,1363.6 768.0,1358.8 735.6,1353.5 702.4,1347.9 668.4,1341.9 634.0,1335.7 599.3,1329.2  " style="stroke-opacity: 1.000000; stroke-width: 5.0; stroke: rgb(107,174,214); fill: none"  />
<path d="M 2381.8,1750.9 L 2344.3,1739.7 2306.9,1727.6 2269.7,1714.4 2232.7,1700.2 2196.2,1684.8 2160.3,1668.4 2125.1,1650.8 2090.6,1632.1 2057.1,1612.2 2024.5,1591.2 1993.1,1569.0 1962.8,1545.7 1933.7,1521.2 1906.0,1495.7 1879.7,1469.0 1854.8,1441.2 1831.4,1412.4 1809.6,1382.5 1789.3,1351.7 1770.6,1319.8 1753.5,1287.1 1738.1,1253.4 1724.4,1218.9 1712.3,1183.7 1701.8,1147.7 1693.0,1111.0 1685.8,1073.7 1680.3,1035.9 1676.3,997.6 1673.8,959.0 1672.8,920.0 1673.3,880.8 1675.1,841.5 1678.3,802.1 1682.7,762.7 1688.2,723.5 1694.9,684.6 1702.5,646.0 1711.1,607.9  " style="stroke-opacity: 1.000000; stroke-width: 5.0; stroke: rgb(107,174,214); fill: none"  />
<path d="M 2381.8,1750.9 L 2347.5,1740.9 2313.6,1730.5 2280.2,1719.6 2247.6,1708.4 2216.1,1696.8 2185.7,1684.9 2156.7,1672.6 2129.3,1660.1 2103.7,1647.3 2079.9,1634.3 2058.1,1621.1 2038.4,1607.7 2021.0,1594.1 2005.9,1580.4 1993.2,1566.6 1983.0,1552.7 1975.3,1538.7 1970.2,1524.7 1967.7,1510.7 1967.8,1496.7 1970.6,1482.7 1975.9,1468.8 1983.8,1455.0 1994.2,1441.2 2007.1,1427.6 2022.4,1414.1 2040.0,1400.8 2059.9,1387.7 2081.9,1374.9 2105.9,1362.2 2131.8,1349.9 2159.4,1337.8 2188.6,1326.0 2219.1,1314.6 2250.9,1303.5 2283.6,1292.8 2317.1,1282.5 2351.2,1272.6 2385.6,1263.1  " style="stroke-opacity: 1.000000; stroke-width: 5.0; stroke: rgb(107,174,214); fill: none"  />
</g>
<defs>
<pattern id="hline-sparse" width="10" height="10" patternTransform="rotate(0 0 0)" patternUnits="userSpaceOnUse"><line x1="0" y1="0" x2="10" y2="0" style="stroke:black;stroke-width:2" /></pattern>
<pattern id="checker" width="10" height="10" patternTransform="rotate(45 0 0)" patternUnits="userSpaceOnUse"><line x1="0" y1="0" x2="10" y2="0" style="stroke:black;stroke-width:2" /><line x1="0" y1="0" x2="0" y2="10" style="stroke:black;stroke-width:2" /></pattern>
<pattern id="hline" width="10" height="10" patternTransform="rotate(0 0 0)" patternUnits="userSpaceOnUse"><line x1="0" y1="0" x2="10" y2="0" style="stroke:black;stroke-width:5" /></pattern>
<pattern id="vline-sparse" width="10" height="10" patternTransform="rotate(0 0 0)" patternUnits="userSpaceOnUse"><line x1="0" y1="0" x2="0" y2="10" style="stroke:black;stroke-width:2" /></pattern>
<pattern id="vline" width="10" height="10" patternTransform="rotate(0 0 0)" patternUnits="userSpaceOnUse"><line x1="0" y1="0" x2="0" y2="10" style="stroke:black;stroke-width:5" /></pattern>
<pattern id="checker" width="10" height="10" patternTransform="rotate(45 0 0)" patternUnits="userSpaceOnUse"><line x1="0" y1="0" x2="10" y2="0" style="stroke:black;stroke-width:5" /><line x1="0" y1="0" x2="0" y2="10" style="stroke:black;stroke-width:4" /></pattern>
</defs>
</svg>
